<?xml version="1.0" standalone="no"?>
<!DOCTYPE svg PUBLIC "-//W3C//DTD SVG 20010904//EN"
 "http://www.w3.org/TR/2001/REC-SVG-20010904/DTD/svg10.dtd">
<svg version="1.0" xmlns="http://www.w3.org/2000/svg"
 width="512.000000pt" height="512.000000pt" viewBox="0 0 512.000000 512.000000"
 preserveAspectRatio="xMidYMid meet">

<g transform="translate(0.000000,512.000000) scale(0.100000,-0.100000)"
fill="#000000" stroke="none">
<path d="M2370 4300 c-104 -19 -227 -58 -305 -98 -142 -71 -308 -211 -404
-341 -170 -229 -249 -531 -210 -807 39 -282 191 -554 401 -719 42 -33 77 -62
77 -65 1 -3 -34 -22 -76 -43 -295 -141 -572 -416 -723 -716 -90 -181 -152
-408 -166 -613 l-7 -98 160 0 159 0 13 119 c33 321 162 587 392 806 198 189
434 303 709 340 180 25 410 3 585 -56 315 -107 578 -337 729 -638 76 -149 135
-382 136 -528 l0 -43 160 0 160 0 0 53 c0 78 -27 249 -55 355 -66 249 -195
481 -372 672 -134 144 -307 273 -465 348 -43 21 -77 39 -78 42 0 3 26 23 56
45 182 129 344 382 406 632 32 128 32 370 0 498 -55 221 -150 391 -303 544
-259 259 -624 375 -979 311z m395 -330 c491 -125 739 -688 504 -1141 -102
-195 -279 -339 -495 -401 -104 -30 -313 -32 -414 -5 -273 75 -488 285 -565
551 -80 280 -12 562 188 772 115 122 265 207 412 233 33 6 71 13 85 15 51 9
208 -4 285 -24z"/>
</g>
</svg>
