<?xml version="1.0" encoding="UTF-8"?>
<svg xmlns="http://www.w3.org/2000/svg" xmlns:xlink="http://www.w3.org/1999/xlink" width="300px" height="300px" viewBox="0 0 300 300" version="1.1">
<g id="surface1">
<path style=" stroke:none;fill-rule:nonzero;fill:rgb(78.431374%,6.27451%,18.039216%);fill-opacity:1;" d="M 149.996094 300.015625 C 67.316406 300.015625 -0.0234375 232.699219 -0.0234375 149.996094 C -0.0234375 67.292969 67.316406 -0.0234375 149.996094 -0.0234375 C 232.675781 -0.0234375 300.015625 67.316406 300.015625 149.996094 C 300.015625 232.675781 232.675781 300.015625 149.996094 300.015625 "/>
<path style=" stroke:none;fill-rule:nonzero;fill:rgb(100%,100%,100%);fill-opacity:1;" d="M 149.996094 293.117188 C 71.109375 293.117188 6.875 228.890625 6.875 149.996094 C 6.875 71.101562 71.109375 6.875 149.996094 6.875 C 228.882812 6.875 293.117188 71.109375 293.117188 149.996094 C 293.117188 228.882812 228.882812 293.117188 149.996094 293.117188 "/>
<path style=" stroke:none;fill-rule:nonzero;fill:rgb(78.431374%,6.27451%,18.039216%);fill-opacity:1;" d="M 149.996094 286.132812 C 74.894531 286.132812 13.859375 225.097656 13.859375 149.996094 C 13.859375 74.894531 74.894531 13.859375 149.996094 13.859375 C 225.097656 13.859375 286.132812 74.894531 286.132812 149.996094 C 286.132812 225.097656 225.097656 286.132812 149.996094 286.132812 "/>
<path style=" stroke:none;fill-rule:nonzero;fill:rgb(100%,100%,100%);fill-opacity:1;" d="M 243.050781 149.996094 C 243.050781 201.386719 201.386719 243.050781 149.996094 243.050781 C 98.601562 243.050781 56.941406 201.386719 56.941406 149.996094 C 56.941406 98.601562 98.601562 56.941406 149.996094 56.941406 C 201.394531 56.921875 243.070312 98.59375 243.050781 149.996094 "/>
<path style=" stroke:none;fill-rule:nonzero;fill:rgb(78.431374%,6.27451%,18.039216%);fill-opacity:1;" d="M 149.996094 63.726562 C 122.59375 63.652344 96.785156 76.609375 80.476562 98.628906 C 82.769531 99.332031 87.144531 100.523438 92.546875 102.121094 C 101.023438 104.621094 129.21875 112.890625 134.535156 114.625 C 149.894531 119.625 153.980469 121.507812 158.273438 126.09375 C 162.5625 130.675781 169.105469 136.09375 175.625 140.554688 C 182.140625 145.011719 185.199219 149.929688 185.199219 157.707031 C 185.199219 165.480469 179.214844 172.066406 175.523438 174.257812 C 175.523438 174.257812 176.824219 170.566406 175.023438 168.875 C 173.222656 167.179688 167.523438 164.089844 153.078125 165.082031 C 138.636719 166.074219 119.167969 173.15625 106.007812 180.242188 C 106.007812 180.242188 112.289062 170.367188 121.667969 165.882812 C 121.667969 165.882812 113.890625 165.882812 70.5 184.835938 C 87.695312 224.65625 131.667969 245.652344 173.445312 233.988281 C 215.222656 222.324219 241.960938 181.589844 236.042969 138.621094 C 230.125 95.652344 193.371094 63.660156 149.996094 63.726562 M 149.996094 218.113281 C 131.8125 218.144531 114.398438 210.804688 101.722656 197.769531 C 136.726562 179.714844 158.570312 184.433594 158.570312 187.894531 C 158.570312 191.351562 153.1875 199.859375 153.1875 199.859375 C 181.707031 195.867188 202.554688 178.617188 202.554688 155.480469 C 202.554688 132.34375 180.832031 121.074219 175.324219 117.683594 C 169.441406 113.992188 172.230469 109.007812 152.820312 101.722656 C 140.953125 97.238281 124.402344 92.847656 117.917969 91.253906 C 142.683594 77.828125 173.179688 81.195312 194.425781 99.695312 C 215.667969 118.195312 223.191406 147.945312 213.296875 174.320312 C 203.398438 200.695312 178.167969 218.152344 149.996094 218.113281 "/>
<path style=" stroke:none;fill-rule:nonzero;fill:rgb(78.431374%,6.27451%,18.039216%);fill-opacity:1;" d="M 149.296875 127.949219 C 145.816406 128.070312 142.363281 127.339844 139.226562 125.824219 C 134.144531 123.324219 126.359375 117.648438 119.683594 123.832031 C 119.683594 123.832031 125.367188 123.132812 124.867188 124.667969 C 124.367188 126.199219 123.867188 134.84375 131.535156 138.128906 C 139.410156 141.417969 148.386719 138.960938 149.289062 127.949219 "/>
<path style=" stroke:none;fill-rule:nonzero;fill:rgb(100%,100%,100%);fill-opacity:1;" d="M 48.066406 219.3125 L 48.964844 220.515625 L 61.46875 210.9375 L 60.566406 209.738281 L 63.316406 207.503906 L 67.308594 212.6875 C 70.300781 216.578125 70 219.472656 67.007812 221.765625 C 64.917969 223.355469 63.015625 223.429688 61.125 222.464844 C 61.957031 225.054688 61.226562 226.757812 58.734375 228.648438 C 55.441406 231.148438 52.148438 230.140625 49.355469 226.65625 L 45.265625 221.371094 Z M 52.355469 224.898438 C 53.457031 226.296875 54.949219 226.566406 56.75 225.199219 C 58.550781 223.832031 58.542969 222.40625 57.351562 221.03125 L 56.515625 220.03125 L 51.515625 223.921875 Z M 59.859375 218.714844 C 60.957031 220.113281 62.359375 220.207031 63.949219 219.015625 C 65.542969 217.820312 65.742188 216.421875 64.550781 214.921875 L 63.949219 214.089844 L 59.148438 217.8125 Z M 59.859375 218.714844 "/>
<path style=" stroke:none;fill-rule:nonzero;fill:rgb(100%,100%,100%);fill-opacity:1;" d="M 62.925781 237.265625 L 63.824219 238.101562 L 80.179688 226.632812 L 83.46875 229.523438 L 74.300781 247.277344 L 75.136719 247.976562 L 72.84375 250.566406 L 67.257812 245.683594 L 69.453125 243.183594 L 70.816406 244.34375 L 72.019531 242.148438 L 68.726562 239.257812 L 66.734375 240.75 L 68.132812 241.949219 L 65.941406 244.449219 L 60.558594 239.765625 Z M 73.695312 239.558594 L 77.484375 232.890625 L 71.300781 237.476562 Z M 73.695312 239.558594 "/>
<path style=" stroke:none;fill-rule:nonzero;fill:rgb(100%,100%,100%);fill-opacity:1;" d="M 84.570312 256.3125 L 83.738281 257.800781 L 81.144531 256.3125 L 84.9375 249.726562 L 87.828125 251.394531 C 86.429688 254.085938 86.730469 255.683594 88.328125 256.578125 C 89.929688 257.46875 90.921875 257.175781 91.722656 255.742188 C 93.613281 252.453125 86.335938 247.46875 89.828125 241.683594 C 91.722656 238.390625 95.011719 237.792969 97.707031 239.390625 C 99.296875 240.292969 100.207031 241.484375 99.996094 242.984375 L 100.832031 241.492188 L 103.421875 242.984375 L 99.832031 249.269531 L 96.839844 247.601562 C 97.9375 245.410156 97.9375 244.007812 96.539062 243.207031 C 96.054688 242.828125 95.425781 242.6875 94.824219 242.824219 C 94.226562 242.957031 93.71875 243.359375 93.445312 243.910156 C 91.65625 247 98.730469 252.085938 95.339844 257.871094 C 93.246094 261.460938 89.953125 261.761719 86.960938 260.0625 C 85.5625 259.0625 84.460938 257.871094 84.570312 256.269531 "/>
<path style=" stroke:none;fill-rule:nonzero;fill:rgb(100%,100%,100%);fill-opacity:1;" d="M 104.824219 264.796875 L 106.214844 265.296875 L 111.105469 250.335938 L 109.707031 249.835938 L 110.707031 246.542969 L 117.382812 248.632812 L 116.390625 251.925781 L 115.089844 251.527344 L 112.898438 258.511719 L 118.882812 252.726562 L 118.082031 252.425781 L 119.082031 249.132812 L 125.167969 251.125 L 124.066406 254.519531 L 122.675781 254.027344 L 117.882812 258.410156 L 118.582031 269.277344 L 119.785156 269.578125 L 118.683594 272.871094 L 112.199219 270.777344 L 113.199219 267.585938 L 114.390625 267.988281 L 113.898438 261.402344 L 111.105469 264.09375 L 110.308594 266.6875 L 111.5 266.988281 L 110.507812 270.179688 L 103.824219 268.085938 Z M 104.824219 264.796875 "/>
<path style=" stroke:none;fill-rule:nonzero;fill:rgb(100%,100%,100%);fill-opacity:1;" d="M 132.152344 271.972656 L 133.644531 272.171875 L 135.042969 256.519531 L 133.542969 256.417969 L 133.84375 252.828125 L 147.503906 254.027344 L 146.8125 261.203125 L 142.917969 260.902344 L 143.21875 257.019531 L 139.328125 256.617188 L 138.828125 262.703125 L 142.320312 263.09375 L 142.019531 266.585938 L 138.527344 266.285156 L 137.9375 272.671875 L 141.917969 273.070312 L 142.21875 268.6875 L 146.210938 269.078125 L 145.613281 276.664062 L 131.851562 275.464844 Z M 132.152344 271.972656 "/>
<path style=" stroke:none;fill-rule:nonzero;fill:rgb(100%,100%,100%);fill-opacity:1;" d="M 162.265625 272.570312 L 164.164062 272.269531 L 162.0625 256.519531 L 159.671875 256.8125 L 160.171875 260.703125 L 156.878906 261.203125 L 155.878906 254.027344 L 171.539062 251.925781 L 172.539062 259.109375 L 169.25 259.511719 L 168.75 255.617188 L 166.355469 255.917969 L 168.449219 271.769531 L 170.347656 271.480469 L 170.75 274.871094 L 162.664062 275.964844 Z M 162.265625 272.570312 "/>
<path style=" stroke:none;fill-rule:nonzero;fill:rgb(100%,100%,100%);fill-opacity:1;" d="M 187 267.679688 L 188.402344 267.179688 L 182.808594 252.511719 L 181.410156 253.011719 L 180.109375 249.71875 L 186.292969 247.425781 C 190.875 245.632812 193.578125 246.824219 194.867188 250.316406 C 195.769531 252.710938 195.367188 254.609375 193.867188 256.101562 C 196.5625 256.003906 198.035156 257.300781 199.152344 260.195312 C 200.644531 264.085938 198.652344 266.980469 194.46875 268.570312 L 188.183594 270.960938 Z M 189.792969 256.210938 C 191.460938 255.609375 191.984375 254.21875 191.285156 252.417969 C 190.585938 250.617188 189.394531 250.027344 187.59375 250.625 L 186.691406 250.925781 L 188.785156 256.511719 Z M 193.484375 265.1875 C 195.152344 264.585938 195.878906 263.195312 195.078125 261.09375 C 194.277344 258.996094 192.984375 258.59375 191.183594 259.300781 L 189.984375 259.804688 L 192.277344 265.6875 Z M 193.484375 265.1875 "/>
<path style=" stroke:none;fill-rule:nonzero;fill:rgb(100%,100%,100%);fill-opacity:1;" d="M 207.445312 259.175781 L 208.445312 258.578125 L 202.363281 239.625 L 206.152344 237.332031 L 220.414062 251.292969 L 221.3125 250.691406 L 223.105469 253.585938 L 216.8125 257.511719 L 215.003906 254.71875 L 216.597656 253.71875 L 214.929688 251.925781 L 211.128906 254.175781 L 211.960938 256.570312 L 213.554688 255.570312 L 215.347656 258.359375 L 209.261719 262.054688 Z M 212.730469 249.5 L 207.445312 243.917969 L 209.945312 251.203125 Z M 212.730469 249.5 "/>
<path style=" stroke:none;fill-rule:nonzero;fill:rgb(100%,100%,100%);fill-opacity:1;" d="M 228.988281 244.652344 L 230.082031 243.652344 L 219.3125 232.183594 L 218.214844 233.175781 L 215.820312 230.582031 L 221.3125 225.496094 L 223.707031 228.089844 L 222.507812 229.191406 L 233.273438 240.757812 L 235.972656 238.265625 L 232.980469 235.175781 L 235.875 232.382812 L 241.058594 237.964844 L 231.28125 247.144531 Z M 228.988281 244.652344 "/>
<path style=" stroke:none;fill-rule:nonzero;fill:rgb(100%,100%,100%);fill-opacity:1;" d="M 244.941406 228.589844 L 245.742188 227.390625 L 233.175781 218.121094 L 232.28125 219.214844 L 229.488281 217.121094 L 233.875 211.136719 L 236.765625 213.230469 L 235.773438 214.628906 L 248.535156 224.007812 L 250.636719 221.113281 L 247.144531 218.511719 L 249.535156 215.328125 L 255.617188 219.914062 L 247.644531 230.683594 Z M 244.941406 228.589844 "/>
<path style=" stroke:none;fill-rule:nonzero;fill:rgb(100%,100%,100%);fill-opacity:1;" d="M 45.816406 122.492188 L 46.214844 121.292969 L 29.460938 110.457031 L 30.953125 106.289062 L 50.796875 108.183594 L 51.199219 107.179688 L 54.390625 108.28125 L 52 115.265625 L 48.808594 114.164062 L 49.40625 112.5 L 46.90625 112.199219 L 45.414062 116.367188 L 47.507812 117.667969 L 48.105469 115.875 L 51.296875 116.972656 L 49.007812 123.640625 Z M 43.921875 111.65625 L 36.347656 110.65625 L 42.832031 114.648438 Z M 43.921875 111.65625 "/>
<path style=" stroke:none;fill-rule:nonzero;fill:rgb(100%,100%,100%);fill-opacity:1;" d="M 55.449219 98.640625 L 56.449219 97.039062 L 42.789062 88.863281 L 41.488281 90.953125 L 44.882812 92.953125 L 43.179688 95.847656 L 37.003906 92.15625 L 45.082031 78.496094 L 51.265625 82.179688 L 49.566406 85.070312 L 46.179688 83.078125 L 44.980469 85.171875 L 58.640625 93.355469 L 59.640625 91.65625 L 62.632812 93.453125 L 58.441406 100.429688 Z M 55.449219 98.640625 "/>
<path style=" stroke:none;fill-rule:nonzero;fill:rgb(100%,100%,100%);fill-opacity:1;" d="M 66.625 81.878906 L 67.617188 80.785156 L 56.148438 70.109375 L 55.148438 71.109375 L 52.558594 68.71875 L 57.648438 63.234375 L 60.242188 65.726562 L 59.140625 66.925781 L 70.710938 77.695312 L 73.203125 75.101562 L 70.007812 72.109375 L 72.703125 69.21875 L 78.292969 74.402344 L 69.21875 84.179688 Z M 66.625 81.878906 "/>
<path style=" stroke:none;fill-rule:nonzero;fill:rgb(100%,100%,100%);fill-opacity:1;" d="M 81.378906 66.917969 L 82.378906 66.21875 L 75.09375 47.664062 L 78.6875 45.074219 L 93.746094 58.140625 L 94.644531 57.542969 L 96.636719 60.332031 L 90.652344 64.625 L 88.761719 61.933594 L 90.253906 60.832031 L 88.460938 59.167969 L 84.871094 61.667969 L 85.871094 63.957031 L 87.363281 62.859375 L 89.253906 65.550781 L 83.46875 69.644531 Z M 86.160156 56.917969 L 80.578125 51.632812 L 83.570312 58.714844 Z M 86.160156 56.917969 "/>
<path style=" stroke:none;fill-rule:nonzero;fill:rgb(100%,100%,100%);fill-opacity:1;" d="M 101.832031 53.558594 L 103.121094 53.058594 L 97.238281 38.496094 L 95.847656 38.996094 L 94.546875 35.703125 L 99.929688 33.511719 L 109.707031 43.179688 L 106.214844 34.804688 L 105.023438 35.304688 L 103.621094 32.011719 L 109.90625 29.421875 L 111.296875 32.710938 L 109.90625 33.3125 L 117.183594 50.964844 L 113.597656 52.457031 L 103.121094 42.390625 L 106.914062 51.464844 L 108.113281 50.964844 L 109.40625 54.15625 L 103.121094 56.75 Z M 101.832031 53.558594 "/>
<path style=" stroke:none;fill-rule:nonzero;fill:rgb(100%,100%,100%);fill-opacity:1;" d="M 127.160156 44.882812 L 129.058594 44.582031 L 126.265625 28.820312 L 123.867188 29.222656 L 124.566406 33.113281 L 121.273438 33.714844 L 119.984375 26.628906 L 135.636719 23.835938 L 136.835938 30.921875 L 133.542969 31.511719 L 132.84375 27.628906 L 130.453125 28.027344 L 133.242188 43.78125 L 135.144531 43.480469 L 135.734375 46.773438 L 127.757812 48.273438 Z M 127.160156 44.882812 "/>
<path style=" stroke:none;fill-rule:nonzero;fill:rgb(100%,100%,100%);fill-opacity:1;" d="M 144.011719 42.382812 L 145.210938 42.382812 L 150.296875 23.128906 L 154.6875 23.226562 L 159.082031 42.671875 L 160.179688 42.671875 L 160.082031 46.066406 L 152.695312 45.964844 L 152.796875 42.671875 L 154.589844 42.671875 L 154.1875 40.171875 L 149.796875 40.070312 L 149.164062 42.480469 L 151.054688 42.480469 L 150.996094 45.816406 L 143.910156 45.714844 Z M 153.6875 37.195312 L 152.289062 29.621094 L 150.496094 37.121094 Z M 153.6875 37.195312 "/>
<path style=" stroke:none;fill-rule:nonzero;fill:rgb(100%,100%,100%);fill-opacity:1;" d="M 176.632812 45.582031 L 178.023438 45.972656 L 183.109375 31.121094 L 181.71875 30.722656 L 182.910156 27.328125 L 189.894531 29.722656 L 188.703125 32.914062 L 187.300781 32.414062 L 185.410156 37.898438 L 189.992188 39.496094 L 191.886719 34.003906 L 190.394531 33.511719 L 191.484375 30.222656 L 198.46875 32.613281 L 197.378906 36.003906 L 195.878906 35.503906 L 190.894531 50.367188 L 192.285156 50.867188 L 191.191406 54.058594 L 184.207031 51.664062 L 185.308594 48.574219 L 186.800781 49.074219 L 188.792969 43.089844 L 184.207031 41.488281 L 182.117188 47.472656 L 183.609375 47.972656 L 182.515625 51.164062 L 175.53125 48.773438 Z M 176.632812 45.582031 "/>
<path style=" stroke:none;fill-rule:nonzero;fill:rgb(100%,100%,100%);fill-opacity:1;" d="M 199.660156 54.347656 L 200.660156 54.949219 L 214.921875 40.988281 L 218.714844 43.28125 L 212.503906 62.234375 L 213.40625 62.832031 L 211.671875 65.71875 L 205.386719 61.824219 L 207.179688 59.03125 L 208.769531 60.035156 L 209.671875 57.742188 L 205.835938 55.449219 L 204.046875 57.242188 L 205.636719 58.242188 L 203.84375 61.035156 L 197.761719 57.242188 Z M 210.628906 54.847656 L 213.320312 47.664062 L 207.9375 53.148438 Z M 210.628906 54.847656 "/>
<path style=" stroke:none;fill-rule:nonzero;fill:rgb(100%,100%,100%);fill-opacity:1;" d="M 229.488281 55.449219 L 228.488281 54.457031 L 230.980469 51.957031 L 235.972656 56.847656 L 233.574219 59.339844 L 232.582031 58.339844 L 226.5 66.625 L 237.765625 58.640625 L 240.359375 61.234375 L 232.582031 72.703125 L 240.757812 66.425781 L 239.859375 65.527344 L 242.25 63.035156 L 246.941406 67.71875 L 244.449219 70.210938 L 243.449219 69.21875 L 227.589844 80.585938 L 224.796875 77.792969 L 232.882812 65.925781 L 221.113281 74.203125 L 218.3125 71.410156 Z M 229.488281 55.449219 "/>
<path style=" stroke:none;fill-rule:nonzero;fill:rgb(100%,100%,100%);fill-opacity:1;" d="M 236.566406 85.871094 L 237.367188 87.070312 L 250.636719 78.695312 L 249.835938 77.492188 L 252.828125 75.503906 L 256.617188 81.484375 L 253.625 83.277344 L 252.925781 82.179688 L 246.742188 86.171875 L 255.019531 85.570312 L 254.617188 84.777344 L 257.511719 82.976562 L 260.902344 88.363281 L 257.910156 90.261719 L 257.109375 88.960938 L 250.636719 89.261719 L 244.351562 98.039062 L 244.941406 99.140625 L 242.058594 100.929688 L 238.367188 95.148438 L 241.160156 93.355469 L 241.859375 94.445312 L 245.742188 88.960938 L 241.859375 89.363281 L 239.558594 90.753906 L 240.257812 91.855469 L 237.464844 93.644531 L 233.675781 87.671875 Z M 236.566406 85.871094 "/>
<path style=" stroke:none;fill-rule:nonzero;fill:rgb(100%,100%,100%);fill-opacity:1;" d="M 247.433594 108.90625 L 245.84375 109.507812 L 244.742188 106.714844 L 251.828125 104.023438 L 253.027344 107.113281 C 250.234375 108.316406 249.535156 109.808594 250.132812 111.507812 C 250.734375 113.207031 251.800781 113.597656 253.226562 113 C 256.820312 111.597656 254.226562 103.222656 260.511719 100.832031 C 264.003906 99.429688 266.996094 101.03125 268.085938 103.921875 C 268.6875 105.589844 268.789062 107.113281 267.6875 108.089844 L 269.277344 107.488281 L 270.378906 110.28125 L 263.59375 112.875 L 262.394531 109.683594 C 264.585938 108.683594 265.488281 107.589844 264.894531 105.988281 C 264.304688 104.390625 263.226562 104.199219 262.101562 104.589844 C 258.8125 105.890625 261.101562 114.265625 254.917969 116.65625 C 251.027344 118.148438 248.25 116.257812 247.042969 113.066406 C 246.542969 111.664062 246.441406 109.972656 247.441406 108.898438 "/>
</g>
</svg>
