<?xml version="1.0" encoding="UTF-8"?>
<svg xmlns="http://www.w3.org/2000/svg" xmlns:xlink="http://www.w3.org/1999/xlink" width="300px" height="300px" viewBox="0 0 300 300" version="1.1">
<g id="surface1">
<path style=" stroke:none;fill-rule:nonzero;fill:rgb(0%,0%,0%);fill-opacity:1;" d="M 156.746094 250.167969 C 161.011719 250.167969 174.097656 250.132812 185 240.839844 C 194.667969 232.074219 195.65625 221.753906 195.941406 210.140625 L 195.871094 177.425781 C 195.871094 167.191406 195.871094 154.652344 185.175781 145.804688 C 182.761719 143.804688 180.042969 142.203125 177.121094 141.054688 C 181.996094 137.816406 185.601562 132.996094 187.335938 127.40625 C 188.582031 122.855469 189.105469 118.136719 188.894531 113.421875 L 188.808594 84.300781 C 188.542969 76.242188 187.65625 67.054688 181.140625 59.621094 C 175.390625 53.289062 166.730469 50 155.757812 50 L 155.546875 50 L 116.050781 50.105469 C 114.855469 50.121094 113.714844 50.597656 112.863281 51.433594 C 112.019531 52.246094 111.550781 53.375 111.570312 54.550781 L 111.90625 245.765625 C 111.898438 247.328125 112.71875 248.777344 114.066406 249.570312 C 114.816406 250.035156 115.683594 250.28125 116.566406 250.28125 L 156.75 250.171875 Z M 171.992188 165.5625 C 173.0625 169.3125 173.53125 173.210938 173.386719 177.105469 L 173.457031 204.210938 C 173.457031 216.566406 172.699219 222.371094 167.972656 226.019531 C 165.15625 228.039062 161.703125 229.226562 152.882812 229.527344 C 152.882812 229.527344 137.746094 229.5625 136.578125 229.5625 C 135.214844 229.5625 134.683594 228.722656 134.683594 227.4375 C 134.683594 216.28125 134.523438 154.832031 134.523438 154.320312 C 134.46875 153.957031 134.585938 153.585938 134.84375 153.320312 C 135.101562 153.058594 135.46875 152.929688 135.835938 152.976562 C 141.15625 152.859375 146.480469 153.035156 151.785156 153.503906 C 156.40625 154 161.328125 154.832031 165.308594 157.363281 C 168.410156 159.234375 170.765625 162.125 171.964844 165.542969 Z M 135.46875 70.390625 L 146.355469 70.390625 C 160.535156 70.390625 166.644531 72.484375 166.644531 86.980469 L 166.644531 111.515625 C 166.464844 117.410156 166.363281 127.394531 154.691406 130.898438 C 151.433594 131.820312 149.878906 132.105469 142.777344 132.351562 L 135.75 132.351562 C 134.511719 132.371094 134.214844 131.785156 134.214844 130.898438 C 134.214844 130.332031 134.140625 72.015625 134.140625 72.015625 C 134.140625 71.0625 134.480469 70.511719 135.46875 70.40625 Z M 150.109375 0 C 67.207031 0 0 67.203125 0 150.105469 C 0 233.007812 67.203125 300.214844 150.105469 300.214844 C 233.007812 300.21875 300.214844 233.011719 300.214844 150.109375 C 300.117188 67.246094 232.96875 0.0976562 150.109375 0 Z M 286.003906 113.460938 C 288.617188 123.148438 290.183594 133.089844 290.675781 143.113281 C 286.535156 151.328125 278.390625 158.089844 272.460938 161.414062 C 271.945312 157.539062 271.273438 153.148438 270.363281 149.113281 C 269.445312 144.96875 268.441406 140.902344 267.355469 136.914062 C 272.050781 134.039062 276.167969 130.300781 279.480469 125.902344 C 282.300781 122.125 284.5 117.925781 285.996094 113.457031 Z M 150.109375 9.363281 C 202.277344 9.394531 250.152344 38.265625 274.53125 84.386719 C 280.457031 95.390625 279.796875 108.773438 272.8125 119.140625 C 272.546875 119.527344 272.28125 119.902344 271.972656 120.289062 C 269.886719 123.066406 267.386719 125.5 264.554688 127.511719 C 256.945312 103.4375 246.144531 82.421875 232.285156 64.894531 C 218.152344 46.921875 200.292969 32.226562 179.933594 21.820312 C 169.609375 16.550781 158.753906 12.382812 147.554688 9.386719 C 148.402344 9.386719 149.230469 9.351562 150.085938 9.351562 Z M 58.652344 256.984375 C 28.289062 231.066406 10.378906 193.453125 9.402344 153.542969 C 17.941406 162.4375 27.574219 170.21875 38.0625 176.699219 C 57.753906 188.753906 79.636719 196.777344 102.453125 200.308594 L 102.453125 190.808594 C 81.566406 187.402344 61.53125 180.003906 43.445312 169.015625 C 24.042969 157 13.152344 144.035156 9.738281 139.574219 C 11.363281 117.488281 18.222656 96.101562 29.742188 77.1875 C 35.710938 74.941406 63.308594 66.441406 98.1875 85.507812 C 99.511719 86.234375 100.875 86.996094 102.257812 87.773438 L 102.257812 77.046875 C 74.875 62.226562 51.574219 62.757812 37.816406 65.324219 C 51.699219 46.984375 69.832031 32.292969 90.65625 22.519531 C 106.28125 15.210938 123.914062 13.382812 140.703125 17.332031 C 152.832031 20.179688 164.570312 24.476562 175.667969 30.132812 C 194.828125 39.929688 211.640625 53.761719 224.941406 70.675781 C 238.429688 87.746094 248.894531 108.371094 256.1875 132.109375 C 251.226562 134.125 246.027344 135.484375 240.714844 136.160156 C 227.382812 138.003906 212.285156 134.710938 196.707031 128.742188 C 195.996094 131.796875 194.78125 134.707031 193.113281 137.363281 C 206.851562 142.640625 220.429688 146.039062 233.125 146.039062 C 236.089844 146.042969 239.054688 145.847656 241.996094 145.453125 C 247.746094 144.707031 253.386719 143.273438 258.796875 141.1875 C 259.664062 144.449219 260.472656 147.757812 261.222656 151.121094 C 262.308594 156.027344 263.125 160.992188 263.664062 165.988281 C 249.945312 173.070312 230.328125 180.222656 205.277344 185.605469 L 205.277344 195.105469 C 228.078125 190.324219 248.457031 183.789062 264.355469 176.128906 C 264.585938 184.320312 264.003906 192.515625 262.621094 200.59375 C 254.191406 205.914062 246.25 211.976562 238.898438 218.703125 C 216.589844 238.402344 194.957031 255.742188 155.957031 268.21875 C 136.339844 274.507812 116.585938 275.210938 101.90625 274.382812 C 85.964844 273.476562 70.765625 267.351562 58.652344 256.949219 Z M 252.683594 232.785156 C 251.105469 236.277344 249.460938 239.488281 247.832031 242.449219 C 239.617188 257.242188 227.050781 269.152344 211.839844 276.566406 C 179.15625 292.539062 141.554688 295.230469 106.929688 284.070312 C 108.464844 284.105469 110.042969 284.144531 111.679688 284.144531 C 127.652344 284.257812 143.546875 281.910156 158.804688 277.183594 C 199.472656 264.15625 222.824219 245.425781 245.09375 225.773438 C 250.757812 220.78125 255.539062 216.941406 259.59375 213.980469 C 257.761719 220.417969 255.453125 226.707031 252.6875 232.800781 Z M 261.464844 236.058594 C 265.65625 226.6875 268.816406 216.886719 270.878906 206.832031 C 276.527344 204.015625 279.058594 204.226562 279.910156 204.457031 C 275.15625 215.742188 268.957031 226.363281 261.46875 236.054688 Z M 283.699219 194.402344 C 282.609375 194.09375 281.46875 194.011719 280.34375 194.15625 C 277.734375 194.375 275.15625 194.925781 272.679688 195.785156 C 273.667969 187.679688 273.921875 179.503906 273.441406 171.351562 C 276.351562 169.683594 279.175781 167.863281 281.902344 165.90625 C 284.980469 163.699219 287.878906 161.246094 290.566406 158.574219 C 289.839844 170.769531 287.523438 182.816406 283.679688 194.40625 Z M 283.699219 194.402344 "/>
<path style=" stroke:none;fill-rule:nonzero;fill:rgb(100%,100%,100%);fill-opacity:1;" d="M 135.558594 133.007812 L 142.683594 133.007812 C 149.859375 132.753906 151.4375 132.449219 154.753906 131.519531 C 166.574219 127.984375 166.699219 117.851562 166.859375 111.878906 L 166.859375 87.023438 C 166.859375 72.316406 160.671875 70.222656 146.308594 70.222656 L 135.273438 70.222656 C 134.269531 70.328125 133.925781 70.882812 133.925781 71.851562 C 133.925781 71.851562 134 130.949219 134 131.507812 C 134 132.40625 134.304688 132.996094 135.414062 132.996094 L 135.554688 132.996094 Z M 135.558594 133.007812 "/>
<path style=" stroke:none;fill-rule:nonzero;fill:rgb(100%,100%,100%);fill-opacity:1;" d="M 172.210938 164.976562 C 171 161.511719 168.617188 158.582031 165.46875 156.691406 C 161.433594 154.109375 156.449219 153.285156 151.765625 152.777344 C 146.394531 152.3125 141 152.132812 135.609375 152.242188 C 135.238281 152.195312 134.867188 152.324219 134.605469 152.59375 C 134.34375 152.859375 134.222656 153.234375 134.28125 153.605469 C 134.28125 154.125 134.441406 216.375 134.441406 227.675781 C 134.441406 228.984375 134.980469 229.828125 136.363281 229.828125 C 137.546875 229.828125 152.878906 229.789062 152.878906 229.789062 C 161.8125 229.484375 165.3125 228.300781 168.160156 226.238281 C 172.949219 222.527344 173.71875 216.660156 173.71875 204.144531 L 173.648438 176.6875 C 173.789062 172.738281 173.308594 168.792969 172.230469 164.992188 Z M 172.210938 164.976562 "/>
<path style=" stroke:none;fill-rule:nonzero;fill:rgb(100%,100%,100%);fill-opacity:1;" d="M 263.882812 176.039062 C 248.023438 183.6875 227.699219 190.207031 204.960938 194.976562 L 204.960938 185.488281 C 229.933594 180.101562 249.503906 172.960938 263.195312 165.914062 C 262.664062 160.925781 261.847656 155.96875 260.757812 151.070312 C 260.015625 147.71875 259.183594 144.410156 258.335938 141.160156 C 252.9375 143.246094 247.308594 144.675781 241.570312 145.417969 C 238.640625 145.820312 235.683594 146.015625 232.722656 146.003906 C 220.042969 146.003906 206.511719 142.628906 192.804688 137.339844 C 194.476562 134.695312 195.6875 131.785156 196.390625 128.734375 C 211.933594 134.691406 227 137.976562 240.300781 136.140625 C 245.601562 135.464844 250.789062 134.101562 255.738281 132.089844 C 248.460938 108.378906 238.023438 87.8125 224.5625 70.785156 C 211.296875 53.902344 194.527344 40.097656 175.410156 30.328125 C 164.339844 24.675781 152.625 20.386719 140.527344 17.554688 C 123.773438 13.613281 106.179688 15.441406 90.597656 22.738281 C 69.8125 32.484375 51.714844 47.148438 37.871094 65.460938 C 51.59375 62.914062 74.839844 62.367188 102.144531 77.15625 L 102.144531 87.863281 C 100.785156 87.085938 99.425781 86.324219 98.09375 85.601562 C 63.296875 66.570312 35.785156 75.050781 29.8125 77.296875 C 18.316406 96.171875 11.480469 117.515625 9.859375 139.554688 C 13.269531 144.007812 24.109375 156.941406 43.488281 168.9375 C 61.523438 179.902344 81.507812 187.289062 102.339844 190.683594 L 102.339844 200.171875 C 79.585938 196.644531 57.753906 188.632812 38.117188 176.605469 C 27.648438 170.140625 18.039062 162.375 9.523438 153.496094 C 10.492188 193.324219 28.359375 230.859375 58.660156 256.722656 C 70.746094 267.097656 85.910156 273.214844 101.8125 274.125 C 116.453125 274.9375 136.164062 274.25 155.738281 267.980469 C 194.648438 255.523438 216.230469 238.222656 238.488281 218.5625 C 245.828125 211.851562 253.75 205.804688 262.15625 200.488281 C 263.535156 192.425781 264.117188 184.25 263.886719 176.074219 Z M 184.71875 240.582031 C 173.839844 249.859375 160.785156 249.890625 156.527344 249.890625 L 116.433594 250 C 115.554688 250 114.691406 249.753906 113.941406 249.292969 C 112.601562 248.496094 111.78125 247.050781 111.789062 245.492188 L 111.453125 54.667969 C 111.429688 53.496094 111.898438 52.371094 112.742188 51.558594 C 113.589844 50.722656 114.730469 50.25 115.921875 50.234375 L 155.328125 50.128906 L 155.539062 50.128906 C 166.488281 50.128906 175.128906 53.414062 180.867188 59.738281 C 187.367188 67.160156 188.253906 76.328125 188.515625 84.367188 L 188.605469 113.425781 C 188.816406 118.128906 188.289062 122.839844 187.050781 127.382812 C 185.320312 132.957031 181.71875 137.769531 176.859375 141.003906 C 179.769531 142.144531 182.484375 143.742188 184.894531 145.738281 C 195.5625 154.570312 195.5625 167.0625 195.5625 177.292969 L 195.632812 209.941406 C 195.355469 221.539062 194.363281 231.832031 184.71875 240.578125 Z M 184.71875 240.582031 "/>
<path style=" stroke:none;fill-rule:nonzero;fill:rgb(100%,100%,100%);fill-opacity:1;" d="M 244.371094 224.785156 C 221.828125 244.710938 198.171875 263.683594 156.957031 276.867188 C 141.5 281.652344 125.394531 284.03125 109.214844 283.914062 C 107.566406 283.914062 105.96875 283.894531 104.410156 283.84375 C 139.484375 295.144531 177.578125 292.421875 210.6875 276.238281 C 226.105469 268.738281 238.835938 256.671875 247.152344 241.679688 C 248.800781 238.683594 250.46875 235.402344 252.066406 231.886719 C 254.863281 225.714844 257.203125 219.339844 259.058594 212.824219 C 254.953125 215.816406 250.109375 219.707031 244.371094 224.765625 Z M 244.371094 224.785156 "/>
<path style=" stroke:none;fill-rule:nonzero;fill:rgb(100%,100%,100%);fill-opacity:1;" d="M 285.816406 113.195312 C 282.53125 123.101562 275.839844 131.523438 266.929688 136.957031 C 268.027344 140.996094 269.042969 145.113281 269.980469 149.316406 C 270.894531 153.40625 271.578125 157.851562 272.097656 161.78125 C 278.101562 158.410156 286.355469 151.558594 290.550781 143.234375 C 290.054688 133.082031 288.46875 123.011719 285.816406 113.199219 Z M 285.816406 113.195312 "/>
<path style=" stroke:none;fill-rule:nonzero;fill:rgb(100%,100%,100%);fill-opacity:1;" d="M 270.515625 206.472656 C 268.417969 216.65625 265.21875 226.585938 260.976562 236.082031 C 268.578125 226.273438 274.859375 215.511719 279.664062 204.070312 C 278.804688 203.835938 276.21875 203.621094 270.515625 206.472656 Z M 270.515625 206.472656 "/>
<path style=" stroke:none;fill-rule:nonzero;fill:rgb(100%,100%,100%);fill-opacity:1;" d="M 231.421875 65.730469 C 245.464844 83.484375 256.402344 104.773438 264.113281 129.164062 C 266.976562 127.125 269.511719 124.65625 271.625 121.84375 C 271.914062 121.46875 272.199219 121.074219 272.464844 120.679688 C 279.53125 110.175781 280.199219 96.625 274.203125 85.472656 C 249.5 38.757812 201.003906 9.515625 148.160156 9.472656 C 147.300781 9.472656 146.457031 9.472656 145.59375 9.511719 C 156.945312 12.535156 167.941406 16.753906 178.398438 22.101562 C 199.023438 32.636719 217.117188 47.523438 231.429688 65.734375 Z M 231.421875 65.730469 "/>
<path style=" stroke:none;fill-rule:nonzero;fill:rgb(100%,100%,100%);fill-opacity:1;" d="M 283.484375 194.546875 C 287.386719 182.804688 289.734375 170.601562 290.460938 158.246094 C 287.734375 160.945312 284.800781 163.425781 281.691406 165.671875 C 278.929688 167.660156 276.070312 169.503906 273.121094 171.195312 C 273.597656 179.453125 273.339844 187.734375 272.347656 195.945312 C 274.859375 195.074219 277.46875 194.519531 280.113281 194.296875 C 281.25 194.152344 282.402344 194.238281 283.503906 194.546875 Z M 283.484375 194.546875 "/>
</g>
</svg>
