<?xml version="1.0" encoding="UTF-8"?>
<svg xmlns="http://www.w3.org/2000/svg" xmlns:xlink="http://www.w3.org/1999/xlink" width="300px" height="300px" viewBox="0 0 300 300" version="1.1">
<g id="surface1">
<path style=" stroke:none;fill-rule:nonzero;fill:rgb(63.137257%,63.137257%,64.313728%);fill-opacity:1;" d="M 293.191406 48.355469 C 286.449219 66.640625 277.617188 85.75 273.203125 93.609375 C 265.734375 106.765625 250.882812 114.625 242.214844 117.683594 C 242.214844 117.683594 237.960938 128.273438 233.546875 134.066406 L 251.285156 134.066406 L 251.285156 158.882812 L 268.304688 167.238281 L 251.285156 176.007812 L 251.285156 197.023438 L 234.828125 207.445312 C 234.828125 207.445312 221.742188 205.792969 215.320312 205.046875 L 163.300781 236.070312 C 153.027344 284.632812 150.375 298.613281 150.375 298.613281 C 150.375 298.613281 147.886719 285.296875 137.453125 236.070312 L 85.425781 205.050781 C 79.085938 205.796875 65.917969 207.453125 65.917969 207.453125 L 49.460938 197.027344 L 49.460938 176.011719 L 32.441406 167.328125 L 49.460938 158.972656 L 49.460938 133.988281 L 67.203125 133.988281 C 62.867188 128.445312 58.453125 117.441406 58.453125 117.441406 C 53.316406 115.621094 48.175781 113.222656 43.761719 110.324219 C 36.699219 105.777344 30.996094 99.738281 27.304688 93.53125 C 20.722656 80.542969 12.292969 61.265625 7.796875 48.277344 C 4.746094 40.417969 1.054688 28.421875 1.054688 28.421875 C 1.054688 28.421875 10.765625 33.140625 13.65625 34.628906 C 9.082031 20.234375 4.988281 1.207031 4.988281 1.207031 C 4.988281 1.207031 71.539062 46.457031 118.253906 84.925781 L 118.976562 84.347656 L 118.976562 81.785156 C 118.976562 81.203125 118.976562 80.292969 119.296875 79.054688 C 119.859375 77.398438 121.0625 75.578125 123.714844 73.757812 C 120.339844 71.027344 114 66.808594 113.4375 66.066406 C 109.023438 62.011719 108.140625 57.460938 108.460938 55.308594 L 109.183594 50.179688 L 134.472656 69.539062 C 148.277344 65.484375 157.992188 67.386719 165.296875 69.539062 L 190.585938 50.179688 L 191.308594 55.308594 C 191.628906 57.710938 190.988281 62.09375 186.332031 66.066406 C 185.769531 66.644531 179.585938 71.027344 176.054688 73.757812 C 178.863281 75.578125 179.988281 77.398438 180.46875 79.054688 C 180.792969 80.292969 180.792969 81.203125 180.792969 81.785156 L 180.792969 84.347656 L 181.515625 84.925781 C 229.441406 45.546875 294.949219 1.289062 294.949219 1.289062 C 294.949219 1.289062 291.578125 17.007812 286.277344 34.710938 C 288.925781 33.46875 298.882812 28.503906 298.882812 28.503906 C 297.117188 38.101562 293.179688 48.359375 293.179688 48.359375 Z M 293.191406 48.355469 "/>
<path style=" stroke:none;fill-rule:nonzero;fill:rgb(11.372549%,6.666667%,37.64706%);fill-opacity:1;" d="M 73.871094 136.957031 L 52.597656 136.957031 L 52.597656 160.703125 L 39.832031 167.074219 L 52.597656 174.023438 L 52.597656 195.035156 L 66.726562 203.96875 C 71.863281 203.226562 78.445312 202.316406 86.234375 201.570312 L 140.582031 233.835938 L 150.535156 280.742188 C 150.535156 280.578125 160.652344 233.835938 160.652344 233.835938 L 215 201.570312 C 222.625 202.480469 229.371094 203.226562 234.507812 203.96875 L 248.476562 195.035156 L 248.476562 174.023438 L 261.242188 167.238281 L 248.476562 160.703125 L 248.476562 136.957031 L 227.203125 136.957031 C 227.203125 136.957031 230.574219 133.648438 234.667969 126.371094 C 236.433594 123.308594 238.039062 119.421875 239.96875 115.035156 C 255.382812 110.320312 266.699219 100.0625 271.679688 90.214844 C 284.921875 65.398438 294.878906 34.789062 294.878906 34.789062 C 294.878906 34.789062 289.179688 37.683594 282.273438 41.15625 C 287.734375 23.617188 291.265625 8.644531 291.265625 8.644531 C 291.265625 8.644531 230.335938 50.257812 182.730469 89.304688 L 178.636719 86.742188 C 178.636719 86.410156 178.796875 82.9375 178.796875 82.523438 C 178.796875 82.523438 179.359375 78.46875 172.214844 75.988281 C 171.652344 75.820312 171.328125 75.65625 171.007812 75.65625 C 174.378906 72.925781 179.839844 68.871094 183.613281 66.140625 C 189.792969 61.757812 189.070312 56.875 189.070312 56.875 L 166.433594 74.25 C 149.09375 68.375 134.5625 74.25 134.5625 74.25 L 111.925781 56.875 C 111.925781 56.875 111.203125 61.589844 117.382812 66.140625 C 121.316406 68.871094 126.777344 72.925781 130.148438 75.65625 C 129.828125 75.820312 129.265625 75.988281 128.945312 75.988281 C 121.878906 78.550781 122.363281 82.523438 122.363281 82.523438 C 122.363281 82.851562 122.523438 86.328125 122.523438 86.742188 L 118.429688 88.894531 C 70.800781 49.9375 9.953125 8.40625 9.953125 8.40625 C 9.953125 8.40625 13.324219 23.382812 18.941406 40.921875 C 11.476562 37.28125 6.339844 34.550781 6.339844 34.550781 C 6.339844 34.550781 16.214844 65.242188 29.378906 89.980469 C 34.195312 99.988281 45.675781 110.082031 61.089844 114.796875 C 61.089844 114.796875 63.738281 121.003906 65.90625 125.386719 C 68.714844 131.011719 73.855469 136.96875 73.855469 136.96875 Z M 73.871094 136.957031 "/>
<path style=" stroke:none;fill-rule:nonzero;fill:rgb(0%,47.058824%,54.901963%);fill-opacity:1;" d="M 279.300781 25.769531 C 235.46875 53.402344 196.378906 84.425781 175.980469 101.386719 C 175.824219 102.128906 175.421875 102.875 175.257812 103.371094 C 196.703125 88.976562 233.867188 63.992188 275.613281 36.027344 C 275.613281 36.027344 275.613281 36.9375 279.300781 25.769531 Z M 21.445312 25.851562 C 24.976562 36.773438 25.136719 36.109375 25.136719 36.109375 C 66.882812 63.824219 104.292969 89.058594 125.730469 103.453125 C 125.332031 102.875 125.164062 102.128906 125.007812 101.386719 C 104.855469 84.425781 65.675781 53.402344 21.445312 25.851562 Z M 151.046875 76.671875 C 147.589844 76.648438 143.957031 77.0625 140.335938 77.972656 C 144.113281 83.433594 143.558594 91.128906 143.558594 91.128906 C 142.101562 84.179688 137.691406 80.949219 135.046875 79.460938 C 134 79.792969 132.789062 80.125 131.347656 80.703125 C 134.15625 81.863281 137.535156 84.757812 139.855469 90.21875 C 140.980469 92.945312 141.625 103.371094 147.324219 105.9375 C 142.589844 110.488281 136.722656 109.246094 132.3125 105.191406 C 137.769531 117.4375 147 122.152344 150.535156 123.640625 C 153.667969 121.15625 155.269531 113.628906 153.746094 105.9375 C 159.445312 103.371094 160.167969 92.945312 161.210938 90.21875 C 163.546875 84.507812 166.914062 81.945312 169.722656 80.703125 C 168.523438 80.371094 167.234375 79.792969 166.035156 79.460938 C 163.378906 80.867188 158.96875 84.34375 157.523438 91.128906 C 157.523438 91.128906 157.035156 83.433594 160.734375 77.972656 C 157.800781 77.144531 154.511719 76.691406 151.046875 76.671875 Z M 231.058594 116.277344 L 226.957031 117.515625 C 213.15625 121.316406 187.144531 124.957031 187.144531 124.957031 C 199.667969 125.128906 210.5 126.207031 216.523438 126.949219 C 217.8125 125.289062 219.335938 123.46875 219.902344 121.820312 C 219.902344 121.820312 219.335938 126.699219 218.289062 129.847656 C 217.101562 133.878906 215.425781 137.277344 214.800781 138.035156 C 215.867188 137.222656 225.511719 129.5625 231.058594 116.277344 Z M 214.800781 138.035156 C 214.746094 138.082031 214.601562 138.195312 214.601562 138.195312 C 214.636719 138.207031 214.710938 138.148438 214.800781 138.035156 Z M 69.777344 116.359375 C 75.800781 130.59375 86.238281 138.285156 86.238281 138.285156 C 86.238281 138.285156 84.148438 134.472656 82.542969 129.929688 C 81.5 126.871094 80.9375 121.902344 80.9375 121.902344 C 81.5 123.390625 83.105469 125.382812 84.308594 127.03125 C 90.332031 126.285156 101.085938 125.382812 113.695312 125.050781 C 113.695312 125.050781 87.519531 121.238281 73.875 117.597656 Z M 91.375 189.160156 C 89.445312 189.332031 87.683594 189.492188 85.914062 189.746094 L 122.925781 211.832031 C 120.914062 209.601562 119.316406 207.449219 117.949219 205.042969 Z M 209.628906 189.160156 L 183.050781 205.042969 C 181.851562 207.449219 180.242188 209.601562 178.074219 211.832031 L 215.085938 189.746094 C 213.320312 189.492188 211.550781 189.332031 209.628906 189.160156 Z M 148.21875 190.488281 C 140.75 190.648438 135.128906 191.566406 131.195312 192.628906 C 132.074219 193.707031 133.117188 194.625 134.007812 195.527344 C 138.417969 199.914062 142.351562 201.90625 142.351562 207.941406 C 142.351562 209.761719 141.472656 211.421875 140.261719 212.65625 C 139.539062 213.734375 138.097656 214.476562 136.894531 215.222656 C 136.574219 215.472656 136.007812 215.632812 135.695312 215.796875 C 140.664062 218.945312 144.195312 220.179688 145.640625 220.765625 C 145.640625 220.765625 142.839844 221.257812 139.460938 220.925781 C 140.585938 222.746094 141.628906 224.40625 142.671875 226.386719 C 143.5625 226.054688 146.363281 224.40625 150.296875 224.40625 C 154.394531 224.40625 157.039062 226.054688 157.605469 226.386719 C 158.484375 224.40625 159.773438 222.746094 160.816406 220.925781 C 157.605469 221.507812 154.640625 220.765625 154.640625 220.765625 C 156.085938 220.179688 159.773438 219.105469 164.585938 215.796875 C 164.273438 215.554688 163.707031 215.382812 163.386719 215.222656 C 162.339844 214.636719 161.0625 213.734375 160.019531 212.65625 C 158.808594 211.421875 157.929688 209.933594 157.929688 207.941406 C 157.929688 202.066406 161.863281 199.914062 166.273438 195.527344 C 167.164062 194.625 168.039062 193.546875 169.085938 192.628906 C 164.996094 191.566406 159.527344 190.648438 152.0625 190.488281 L 150.140625 215.886719 L 149.972656 215.886719 Z M 128.953125 193.054688 C 125.25 194.542969 123.085938 195.953125 121.882812 196.855469 C 124.527344 199.421875 129.507812 202.730469 138.339844 204.710938 C 137.375 201.984375 134.5625 199.007812 131.597656 195.78125 Z M 171.972656 193.214844 L 169.328125 195.941406 C 166.441406 199.007812 163.628906 201.984375 162.585938 204.882812 C 171.574219 202.890625 176.394531 199.582031 179.039062 197.015625 C 177.996094 195.953125 175.664062 194.453125 171.972656 193.214844 Z M 122.039062 200.246094 C 124.527344 205.214844 128.0625 209.761719 132.472656 212.65625 C 132.640625 212.738281 137.617188 211.089844 138.664062 208.855469 C 126.941406 206.121094 122.039062 200.246094 122.039062 200.246094 Z M 179.039062 200.324219 C 179.039062 200.324219 174.21875 206.371094 162.417969 208.9375 C 163.460938 211.089844 168.605469 212.738281 168.605469 212.738281 C 173.019531 209.429688 176.71875 205.292969 179.039062 200.324219 Z M 179.039062 200.324219 "/>
<path style=" stroke:none;fill-rule:nonzero;fill:rgb(100%,100%,100%);fill-opacity:1;" d="M 276.011719 35.945312 C 234.269531 63.824219 197.011719 88.894531 175.667969 103.289062 C 174.777344 105.6875 173.902344 107.671875 172.855469 109.660156 L 257.144531 62.421875 L 191.480469 111.3125 L 194.691406 110.734375 L 229.367188 107.257812 C 229.367188 107.257812 252.890625 104.859375 266.058594 86.824219 C 272.234375 76.980469 282.667969 48.6875 282.667969 48.6875 L 267.179688 56.710938 C 272.15625 44.632812 276.011719 35.945312 276.011719 35.945312 Z M 25.144531 36.109375 C 25.144531 36.109375 28.835938 44.632812 33.976562 56.710938 L 18.804688 48.851562 C 18.804688 48.851562 29.238281 77.144531 35.339844 86.988281 C 48.507812 105.023438 72.027344 107.421875 72.027344 107.421875 L 106.707031 110.898438 L 109.917969 111.476562 L 44.25 62.585938 L 128.304688 109.824219 C 127.261719 107.839844 126.371094 105.855469 125.492188 103.453125 C 104.140625 89.058594 66.890625 63.992188 25.144531 36.109375 Z M 137.535156 97.25 C 137.613281 97.25 131.914062 107.09375 142.511719 106.515625 C 142.511719 106.515625 138.257812 103.617188 137.535156 97.25 Z M 163.777344 97.25 C 163.058594 103.617188 158.800781 106.515625 158.800781 106.515625 C 169.246094 107.09375 163.777344 97.25 163.777344 97.25 Z M 93.457031 132.082031 L 93.457031 141.597656 L 94.742188 142.832031 L 101.085938 142.832031 L 101.085938 139.363281 L 98.597656 139.363281 L 98.597656 140.429688 L 96.1875 140.429688 L 96.1875 134.644531 L 98.597656 134.644531 L 98.597656 135.390625 L 101.085938 135.390625 L 101.085938 132.082031 Z M 106.945312 132.082031 L 106.945312 142.832031 L 109.433594 142.832031 L 109.433594 139.363281 L 112.402344 139.363281 L 112.402344 142.832031 L 114.890625 142.832031 L 114.890625 132.082031 L 112.402344 132.082031 L 112.402344 136.957031 L 109.433594 136.957031 L 109.433594 132.082031 Z M 120.589844 132.082031 L 120.589844 142.671875 L 123.246094 142.671875 L 123.246094 139.191406 L 126.289062 139.191406 L 126.289062 142.671875 L 128.703125 142.671875 L 128.703125 133.316406 L 127.5 132.082031 Z M 128.703125 142.671875 L 128.703125 142.832031 L 128.777344 142.671875 Z M 149.257812 132.082031 L 149.257812 142.832031 L 155.679688 142.832031 L 155.679688 140.429688 L 151.902344 140.429688 L 151.902344 132.082031 Z M 160.8125 132.082031 L 160.8125 141.597656 L 162.011719 142.832031 L 168.921875 142.832031 L 168.921875 133.316406 L 167.710938 132.082031 Z M 174.625 132.082031 L 174.625 134.644531 L 176.945312 134.644531 L 176.945312 142.832031 L 179.757812 142.832031 L 179.757812 134.644531 L 181.847656 134.472656 L 181.847656 132.082031 Z M 187.144531 132.082031 L 187.144531 134.644531 L 189.46875 134.644531 L 189.46875 142.832031 L 192.28125 142.832031 L 192.28125 134.644531 L 194.210938 134.472656 L 194.210938 132.082031 Z M 200.222656 132.082031 L 200.222656 142.832031 L 207.855469 142.832031 L 207.855469 140.429688 L 202.710938 140.429688 L 202.710938 138.777344 L 207.855469 138.777344 L 207.855469 136.292969 L 202.710938 136.292969 L 202.710938 134.644531 L 207.855469 134.644531 L 207.855469 132.082031 Z M 134.722656 132.320312 L 134.722656 142.914062 L 137.367188 142.914062 L 137.367188 139.191406 L 139.300781 139.191406 L 140.902344 142.832031 L 143.558594 142.832031 L 141.867188 139.191406 L 142.914062 139.191406 L 142.914062 133.570312 L 141.703125 132.320312 Z M 123.246094 134.394531 L 126.289062 134.394531 L 126.289062 136.957031 L 123.246094 136.957031 Z M 137.367188 134.472656 L 140.421875 134.472656 L 140.421875 136.625 L 137.367188 136.625 Z M 163.300781 134.566406 L 166.269531 134.566406 L 166.269531 140.429688 L 163.300781 140.429688 Z M 217.089844 142.671875 L 219.902344 145.980469 L 219.902344 163.351562 L 234.589844 169.890625 L 234.589844 179.566406 C 234.589844 179.566406 231.210938 179.234375 226.957031 178.488281 L 226.957031 175.433594 L 219.902344 174.515625 L 219.902344 184.363281 C 227.679688 185.269531 234.914062 186.34375 241.644531 187.671875 C 241.492188 182.210938 241.492188 174.183594 241.492188 170.210938 C 243.824219 169.144531 245.902344 168.070312 248.078125 166.914062 C 241.011719 163.433594 233.945312 160.535156 226.636719 157.636719 L 226.636719 149.289062 L 234.269531 149.289062 L 234.269531 152.347656 L 241.492188 152.347656 L 241.492188 142.671875 Z M 59.023438 142.832031 L 59.023438 164.347656 C 59.023438 164.347656 53.160156 167.234375 53.160156 167.40625 L 59.023438 170.542969 L 59.023438 188.085938 C 61.351562 187.753906 63.597656 187.179688 66.085938 186.847656 L 66.085938 170.050781 L 74.195312 166.582031 L 74.195312 185.359375 C 76.523438 185.027344 78.769531 184.617188 81.257812 184.445312 L 81.257812 142.832031 L 74.195312 142.832031 L 74.195312 157.808594 L 66.085938 161.28125 L 66.085938 142.832031 Z M 111.683594 149.039062 L 114.492188 152.507812 L 114.492188 181.304688 C 116.980469 181.132812 119.070312 181.132812 121.558594 180.972656 L 121.558594 169.796875 L 121.480469 169.796875 C 123.25 169.796875 124.847656 169.636719 126.78125 169.636719 C 128.226562 173.109375 129.425781 177.082031 130.703125 180.5625 C 133.195312 180.5625 135.28125 180.390625 137.769531 180.390625 C 136.328125 176.921875 135.125 172.949219 133.839844 169.464844 L 136.648438 169.464844 L 136.648438 152.347656 L 133.4375 149.039062 Z M 83.988281 149.199219 L 86.640625 152.507812 L 86.640625 179.898438 L 89.449219 183.367188 C 95.628906 182.621094 102.375 182.128906 109.117188 181.71875 L 109.117188 152.679688 L 105.746094 149.199219 Z M 195.65625 149.199219 L 195.65625 155.988281 L 201.832031 155.988281 L 201.832031 182.460938 C 204.476562 182.621094 206.96875 182.792969 209.621094 183.207031 L 209.621094 155.988281 L 215.800781 155.988281 L 215.800781 149.199219 Z M 139.300781 149.289062 L 142.101562 152.761719 L 142.101562 180.640625 L 149.332031 180.640625 C 149.253906 180.390625 149.253906 155.988281 149.253906 155.988281 L 157.355469 155.988281 L 157.355469 180.46875 C 159.84375 180.46875 162.332031 180.46875 164.824219 180.640625 L 164.824219 152.761719 L 161.457031 149.289062 Z M 167.632812 149.449219 L 170.277344 152.921875 L 170.277344 181.054688 C 177.511719 181.214844 184.8125 181.636719 191.710938 182.128906 L 191.710938 174.6875 L 191.554688 174.6875 L 191.554688 174.597656 C 186.976562 174.4375 182.324219 174.023438 177.746094 173.851562 L 177.746094 168.722656 C 182.324219 168.894531 186.976562 169.054688 191.554688 169.304688 L 191.554688 162.023438 C 186.976562 161.863281 182.324219 161.863281 177.746094 161.691406 L 177.746094 156.242188 L 191.554688 156.242188 L 191.554688 149.449219 Z M 93.699219 155.988281 L 101.804688 155.988281 L 101.804688 174.929688 C 98.996094 175.101562 96.507812 175.261719 93.699219 175.511719 Z M 121.476562 155.988281 L 129.578125 155.988281 L 129.578125 162.527344 C 126.777344 162.527344 124.277344 162.527344 121.476562 162.6875 Z M 150.378906 231.847656 C 147 231.847656 146.121094 232.765625 145.078125 233.507812 L 150.535156 256.089844 L 155.679688 233.667969 C 154.957031 232.765625 153.746094 231.847656 150.378906 231.847656 Z M 150.378906 231.847656 "/>
</g>
</svg>
