<?xml version="1.0" encoding="UTF-8"?>
<svg xmlns="http://www.w3.org/2000/svg" xmlns:xlink="http://www.w3.org/1999/xlink" width="300px" height="300px" viewBox="0 0 300 300" version="1.1">
<g id="surface1">
<path style=" stroke:none;fill-rule:nonzero;fill:rgb(0%,0%,0%);fill-opacity:1;" d="M 273.085938 115.179688 C 272.035156 97.105469 263.898438 80.824219 259.078125 71.113281 L 258.476562 70.070312 L 256.367188 65.886719 L 256.820312 70.519531 C 257.273438 76.941406 258.777344 99.046875 252.152344 111.746094 C 243.867188 128.625 219.613281 126.980469 211.632812 126.535156 L 211.179688 126.535156 C 198.074219 125.636719 155.449219 124.144531 142.34375 124.144531 C 125.171875 124.292969 106.191406 125.636719 90.828125 126.832031 C 83.296875 127.429688 76.820312 127.878906 72.453125 128.027344 C 72 128.027344 71.546875 128.175781 70.796875 128.175781 C 49.40625 130.121094 35.847656 123.84375 30.578125 109.503906 C 27.414062 100.691406 27.414062 83.214844 27.414062 74.851562 L 27.414062 68.875 L 25.757812 71.863281 C 18.066406 85.433594 13.296875 100.4375 11.75 115.929688 C 10.242188 142.816406 24.402344 152.527344 35.097656 157.304688 C 46.394531 162.535156 57.839844 163.28125 61.605469 163.578125 L 61.757812 163.578125 C 62.605469 163.703125 63.460938 163.753906 64.316406 163.730469 C 65.582031 163.6875 66.84375 163.785156 68.082031 164.027344 C 65.976562 164.476562 63.261719 164.925781 61.003906 165.222656 C 58.445312 165.820312 56.035156 166.121094 54.828125 166.417969 C 52.269531 167.015625 41.421875 169.40625 35.699219 171.496094 C 30.878906 173.140625 25.457031 175.679688 25.304688 175.679688 L 24.402344 176.128906 L 25.15625 177.023438 C 25.15625 177.023438 26.960938 179.414062 28.769531 181.355469 C 36.15625 187.945312 45.996094 191.144531 55.882812 190.167969 C 65.976562 188.972656 71.546875 186.433594 73.65625 185.390625 C 74.742188 189.195312 76.050781 192.9375 77.574219 196.59375 C 82.09375 207.796875 92.636719 229.457031 96.550781 236.925781 C 99.714844 243.046875 102.878906 248.425781 104.988281 252.011719 L 105.742188 253.355469 C 105.101562 255.300781 103.828125 256.980469 102.125 258.136719 C 101.824219 258.433594 101.671875 258.734375 101.371094 258.882812 L 101.222656 259.183594 L 101.222656 259.628906 C 101.070312 261.570312 100.621094 280.542969 113.421875 294.285156 L 113.574219 294.433594 L 113.722656 294.433594 C 120.199219 296.972656 128.484375 299.511719 142.042969 299.511719 C 155.75 299.511719 167.347656 296.226562 171.414062 294.285156 L 171.566406 294.136719 L 171.714844 293.988281 C 180.601562 283.53125 184.820312 267.546875 184.820312 261.871094 L 184.820312 261.570312 L 184.519531 261.273438 L 183.917969 260.675781 C 181.808594 258.828125 180.335938 256.371094 179.699219 253.65625 C 180.902344 251.863281 183.011719 247.382812 184.820312 243.796875 C 185.453125 242.199219 186.210938 240.648438 187.078125 239.164062 C 190.84375 231.695312 201.839844 208.09375 206.359375 197.039062 C 209.070312 189.871094 210.578125 186.433594 211.332031 184.941406 C 213.289062 185.988281 218.5625 188.375 228.503906 189.421875 C 241.304688 190.617188 253.507812 182.253906 256.972656 177.472656 C 257.574219 176.726562 258.476562 175.679688 258.628906 175.53125 L 259.378906 174.632812 L 258.328125 174.1875 C 258.175781 174.1875 257.875 174.035156 255.765625 173.289062 L 248.6875 171.050781 L 241.605469 168.660156 C 239.648438 168.0625 230.914062 166.121094 224.738281 164.773438 L 219.917969 163.730469 L 221.421875 163.429688 C 236.183594 160.292969 275.347656 153.570312 273.085938 115.179688 Z M 273.085938 115.179688 "/>
<path style="fill-rule:nonzero;fill:rgb(80.784315%,6.666667%,25.490198%);fill-opacity:1;stroke-width:0.24;stroke-linecap:butt;stroke-linejoin:miter;stroke:rgb(80.784315%,6.666667%,25.490198%);stroke-opacity:1;stroke-miterlimit:4;" d="M 20.638646 61.329479 C 20.280768 69.369089 20.399023 78.130443 22.200859 85.80918 C 20.570182 84.076992 18.846146 82.435807 17.041198 80.888763 C 15.360729 82.689987 13.919883 84.610456 12.239414 86.289297 C 13.966563 77.647188 16.789128 69.259258 20.638646 61.329479 Z M 20.638646 61.329479 " transform="matrix(1.25523,0,0,1.244813,0,0)"/>
<path style="fill-rule:nonzero;fill:rgb(80.784315%,6.666667%,25.490198%);fill-opacity:1;stroke-width:0.24;stroke-linecap:butt;stroke-linejoin:miter;stroke:rgb(80.784315%,6.666667%,25.490198%);stroke-opacity:1;stroke-miterlimit:4;" d="M 214.44026 82.689987 L 214.919505 84.848945 L 210.721445 81.848997 C 208.801354 82.689987 206.999518 83.888711 205.200794 84.729701 C 206.507826 76.840716 206.912383 68.829349 206.398906 60.849362 C 210.120833 67.690247 212.15918 75.130495 214.44026 82.689987 Z M 214.44026 82.689987 " transform="matrix(1.25523,0,0,1.244813,0,0)"/>
<path style="fill-rule:nonzero;fill:rgb(80.784315%,6.666667%,25.490198%);fill-opacity:1;stroke-width:0.24;stroke-linecap:butt;stroke-linejoin:miter;stroke:rgb(80.784315%,6.666667%,25.490198%);stroke-opacity:1;stroke-miterlimit:4;" d="M 113.640143 158.768164 C 117.95957 165.489805 126.000924 167.410273 133.438555 165.489805 C 136.177096 164.877891 138.834727 163.952174 141.358542 162.728346 C 138.775599 170.049349 137.518359 177.76888 137.639727 185.529206 C 137.66151 192.26026 138.756927 198.944245 140.879297 205.330117 C 139.79944 205.08849 138.840951 204.2475 137.639727 203.770521 C 122.879609 196.330273 102.119596 196.568763 87.599102 204.250638 C 88.321081 201.969297 89.039948 199.330221 89.64056 196.929635 C 91.800273 185.767695 90.241172 174.128776 86.40099 163.930208 C 94.199609 167.168646 105.598789 167.890391 111.959674 160.688633 C 112.457591 159.998268 113.020859 159.354974 113.640143 158.768164 Z M 113.640143 158.768164 " transform="matrix(1.25523,0,0,1.244813,0,0)"/>
<path style="fill-rule:nonzero;fill:rgb(80.784315%,6.666667%,25.490198%);fill-opacity:1;stroke-width:0.24;stroke-linecap:butt;stroke-linejoin:miter;stroke:rgb(80.784315%,6.666667%,25.490198%);stroke-opacity:1;stroke-miterlimit:4;" d="M 80.758971 164.287943 C 80.401094 167.410273 79.321237 171.009583 75.960299 172.208307 C 73.199974 172.930052 70.800638 171.370456 68.998802 169.449987 C 68.164792 168.536823 67.585964 167.419688 67.321445 166.208411 C 71.519505 168.96987 77.040156 166.807773 80.640716 164.168698 Z M 80.758971 164.287943 " transform="matrix(1.25523,0,0,1.244813,0,0)"/>
<path style="fill-rule:nonzero;fill:rgb(80.784315%,6.666667%,25.490198%);fill-opacity:1;stroke-width:0.24;stroke-linecap:butt;stroke-linejoin:miter;stroke:rgb(80.784315%,6.666667%,25.490198%);stroke-opacity:1;stroke-miterlimit:4;" d="M 159.840586 164.648815 C 158.878984 167.529518 156.361393 170.410221 153.479701 171.009583 C 151.270195 171.351628 149.079362 170.303529 147.959049 168.370508 C 147.205951 167.309857 146.74849 166.067201 146.63957 164.76806 C 150.361497 167.768008 156.240026 167.049401 159.840586 164.648815 Z M 159.840586 164.648815 " transform="matrix(1.25523,0,0,1.244813,0,0)"/>
<path style="fill-rule:nonzero;fill:rgb(80.784315%,6.666667%,25.490198%);fill-opacity:1;stroke-width:0.24;stroke-linecap:butt;stroke-linejoin:miter;stroke:rgb(80.784315%,6.666667%,25.490198%);stroke-opacity:1;stroke-miterlimit:4;" d="M 151.680977 172.807669 C 153.264974 172.96457 154.864531 172.760599 156.361393 172.208307 C 152.160221 182.648503 147.118815 192.727826 141.959154 202.810286 C 140.16043 197.770625 140.639674 192.370091 140.879297 186.72793 C 141.682188 180.16319 143.129258 173.692591 145.198724 167.410273 C 146.63957 169.807721 148.920651 172.327552 151.680977 172.807669 Z M 151.680977 172.807669 " transform="matrix(1.25523,0,0,1.244813,0,0)"/>
<path style="fill-rule:nonzero;fill:rgb(80.784315%,6.666667%,25.490198%);fill-opacity:1;stroke-width:0.24;stroke-linecap:butt;stroke-linejoin:miter;stroke:rgb(80.784315%,6.666667%,25.490198%);stroke-opacity:1;stroke-miterlimit:4;" d="M 86.04 202.687904 L 86.04 202.810286 C 79.679115 193.207943 74.880443 183.009375 70.321393 172.807669 C 72.35974 173.890286 75.838932 174.608893 77.998646 173.168542 C 79.937409 171.652878 81.328464 169.547266 81.960195 167.168646 C 87.119857 177.489596 88.321081 190.92974 86.04 202.687904 Z M 86.04 202.687904 " transform="matrix(1.25523,0,0,1.244813,0,0)"/>
<path style="fill-rule:nonzero;fill:rgb(80.784315%,6.666667%,25.490198%);fill-opacity:1;stroke-width:0.24;stroke-linecap:butt;stroke-linejoin:miter;stroke:rgb(80.784315%,6.666667%,25.490198%);stroke-opacity:1;stroke-miterlimit:4;" d="M 145.198724 210.849896 C 144.361602 219.630078 140.891745 227.955247 135.240391 234.730234 C 122.160742 239.889141 104.518932 240.369258 91.439284 234.849479 C 84.960143 227.889349 82.560807 218.889505 82.199818 209.290299 C 96.119701 199.207839 117.841315 196.929635 133.799544 204.128255 C 137.761094 206.048724 141.719531 207.969193 145.198724 210.849896 Z M 145.198724 210.849896 " transform="matrix(1.25523,0,0,1.244813,0,0)"/>
<path style="fill-rule:nonzero;fill:rgb(80.784315%,6.666667%,25.490198%);fill-opacity:1;stroke-width:0.24;stroke-linecap:butt;stroke-linejoin:miter;stroke:rgb(80.784315%,6.666667%,25.490198%);stroke-opacity:1;stroke-miterlimit:4;" d="M 199.079531 138.609518 C 187.241563 134.392018 174.806094 132.082435 162.239922 131.768633 C 161.160065 118.447734 159.600964 110.169635 156.958893 102.610143 C 150.840742 102.249271 123.719844 101.169792 113.160898 101.169792 C 102.720208 101.169792 75.960299 102.848633 69.960404 103.209505 C 66.543451 112.614154 64.324609 122.411055 63.359896 132.367995 C 50.012617 133.400404 36.861393 136.183828 24.239206 140.649232 C 22.558737 141.248594 21.83987 141.847956 21.83987 141.728711 C 26.430039 147.559154 33.382201 151.036081 40.801159 151.208672 C 44.398607 151.327917 51.238737 150.60931 55.561276 148.688841 C 56.759388 148.208724 59.158724 147.129245 59.158724 147.129245 C 59.628633 147.935716 60.030078 148.776706 60.359948 149.649076 C 61.561172 153.009896 63.120273 157.930313 64.20013 159.970026 C 65.759232 163.208464 68.279935 165.609049 72.35974 165.728294 C 75.054714 165.577669 77.550521 164.265977 79.19987 162.128984 C 68.640924 161.529622 64.20013 155.890599 63.481263 147.367734 C 60.96056 147.01 60.238581 146.768372 59.998958 145.328021 C 59.684648 143.799805 60.082982 142.211966 61.078815 141.010104 C 62.280039 139.328125 64.321497 137.768529 69.359792 139.328125 C 72.229036 140.44526 74.871107 142.070755 77.161523 144.129297 C 79.321237 146.16901 85.67901 152.768268 89.519193 154.930365 C 93.598997 157.327812 101.400729 159.609154 106.439023 154.569492 C 109.647474 151.538164 111.757396 147.527773 112.438919 143.169062 C 104.487813 142.952539 96.552266 142.271589 88.678958 141.129349 C 86.519245 140.768477 87.480846 138.728763 89.161315 139.20888 C 89.161315 139.20888 102.959831 141.010104 112.799909 141.129349 C 112.799909 139.930625 112.799909 138.010156 112.921276 135.728815 C 104.62474 135.553086 96.359323 134.712096 88.199714 133.208984 C 86.40099 132.728867 86.758867 130.689154 88.439336 131.169271 C 96.539818 132.493516 104.718099 133.296849 112.921276 133.569857 C 112.921276 131.887878 113.039531 129.368047 113.039531 127.089844 C 104.917266 126.967461 96.816784 126.245716 88.800326 124.927747 C 86.758867 124.570013 87.241224 122.768789 88.800326 123.010417 C 96.838568 124.105586 104.929714 124.74888 113.039531 124.927747 L 113.039531 119.530352 C 113.039531 117.490638 114.841367 117.368255 114.841367 119.407969 L 114.841367 124.808503 C 122.481276 124.623359 130.099401 123.901615 137.639727 122.649544 C 140.039062 122.169427 139.79944 124.209141 138.719583 124.328385 C 130.840052 125.847188 122.857826 126.769766 114.841367 127.089844 L 114.841367 133.569857 C 122.160742 133.328229 130.799596 133.08974 138.118971 131.40776 C 140.879297 130.808398 141.118919 132.970495 138.840951 133.328229 C 130.945859 134.67444 122.966745 135.477773 114.959622 135.728815 C 114.959622 137.530039 114.959622 139.808242 115.08099 141.129349 C 123.393086 140.875169 131.68651 140.153424 139.920807 138.970391 C 141.840898 138.609518 142.198776 140.649232 140.16043 141.010104 C 138.118971 141.248594 124.320456 143.049818 115.438867 143.288307 C 116.400469 146.288255 116.518724 150.60931 120.841263 154.327865 C 124.921068 157.930313 132.00082 157.56944 136.920859 154.688737 C 140.761042 152.410534 146.879193 145.808138 149.038906 143.768424 C 150.840742 142.208828 155.160169 138.248646 160.920443 138.367891 C 166.559349 138.490273 166.680716 141.367839 167.038594 142.208828 C 167.281328 143.169062 167.520951 144.728659 166.201471 145.569648 C 165.23987 146.16901 164.28138 145.930521 163.319779 146.410638 C 162.600911 151.089427 161.160065 156.367578 157.44125 159.129036 C 153.479701 162.128984 147.361549 162.489857 147.361549 162.489857 C 147.361549 162.489857 148.198672 163.450091 148.441406 163.688581 C 150.040964 164.83082 152.004622 165.342318 153.958945 165.128932 C 156.507656 164.695885 158.857201 163.478333 160.68082 161.648867 C 162.600911 159.129036 164.399635 153.97013 165.719115 150.60931 C 166.201471 149.410586 167.399583 147.129245 167.760573 146.16901 C 168.958685 146.649128 169.441042 147.01 171.600755 147.847852 C 176.01043 149.504727 180.690846 150.320612 185.399271 150.248437 C 191.280911 150.129193 197.999674 146.529883 201.961224 142.80819 C 202.558724 142.208828 203.99957 140.529987 203.99957 140.529987 C 203.99957 140.529987 200.159388 138.970391 199.079531 138.609518 Z M 199.079531 138.609518 " transform="matrix(1.25523,0,0,1.244813,0,0)"/>
<path style="fill-rule:nonzero;fill:rgb(0%,0%,0%);fill-opacity:1;stroke-width:0.24;stroke-linecap:butt;stroke-linejoin:miter;stroke:rgb(80.784315%,6.666667%,25.490198%);stroke-opacity:1;stroke-miterlimit:4;" d="M 135.841003 212.290247 C 136.920859 214.329961 136.080625 216.608164 134.879401 218.409388 C 132.701016 221.123776 129.125352 222.300534 125.761302 221.409336 C 123.685612 220.750352 121.90556 219.391589 120.719896 217.568398 C 120.240651 219.250378 121.438763 220.449102 121.320508 222.008698 C 121.217813 222.165599 121.052878 222.269154 120.869271 222.29112 C 120.682552 222.313086 120.495833 222.256602 120.358906 222.127943 C 118.438815 219.608112 117.719948 215.770312 119.400417 213.008854 C 121.438763 209.167917 125.400313 207.60832 129.601484 207.969193 C 132.252891 208.326927 134.571315 209.933594 135.841003 212.290247 Z M 135.841003 212.290247 " transform="matrix(1.25523,0,0,1.244813,0,0)"/>
<path style="fill-rule:nonzero;fill:rgb(0%,0%,0%);fill-opacity:1;stroke-width:0.24;stroke-linecap:butt;stroke-linejoin:miter;stroke:rgb(80.784315%,6.666667%,25.490198%);stroke-opacity:1;stroke-miterlimit:4;" d="M 106.92138 213.608216 C 108.598737 216.369674 107.758503 219.968984 106.199401 222.60806 C 105.959779 222.968932 105.598789 223.329805 105.119544 222.968932 C 104.400677 222.127943 105.359167 221.409336 105.480534 220.568346 C 105.698372 219.871706 105.738828 219.127995 105.598789 218.409388 C 103.526211 221.45013 99.866523 223.000313 96.241068 222.36957 C 93.52431 221.716862 91.289909 219.796393 90.241172 217.207526 C 89.737031 215.544375 90.001549 213.740013 90.960039 212.290247 C 93.480742 208.929427 98.039792 208.207682 101.758607 209.409544 C 103.936992 210.131289 105.77306 211.624987 106.92138 213.608216 Z M 106.92138 213.608216 " transform="matrix(1.25523,0,0,1.244813,0,0)"/>
<path style="fill-rule:nonzero;fill:rgb(0%,0%,0%);fill-opacity:1;stroke-width:0.24;stroke-linecap:butt;stroke-linejoin:miter;stroke:rgb(80.784315%,6.666667%,25.490198%);stroke-opacity:1;stroke-miterlimit:4;" d="M 135.60138 231.730286 C 135.358646 232.329648 135.240391 232.329648 134.761146 232.92901 C 133.438555 232.568138 132.00082 232.088021 130.559974 231.607904 C 118.560182 226.929115 103.32082 228.250221 92.039896 232.92901 C 91.66957 232.674831 91.411276 232.288854 91.321029 231.849531 C 104.400677 225.96888 122.400365 225.250273 135.60138 231.730286 Z M 135.60138 231.730286 " transform="matrix(1.25523,0,0,1.244813,0,0)"/>
<path style="fill-rule:nonzero;fill:rgb(0%,0%,0%);fill-opacity:1;stroke-width:0.24;stroke-linecap:butt;stroke-linejoin:miter;stroke:rgb(80.784315%,6.666667%,25.490198%);stroke-opacity:1;stroke-miterlimit:4;" d="M 137.761094 168.009635 C 135.841003 177.489596 129.841107 188.409909 119.761406 191.168229 C 111.841419 193.207943 102.959831 191.529102 97.560547 184.929844 C 93.835508 180.166328 91.619779 174.398646 91.199661 168.370508 C 91.569987 168.175951 91.98388 168.091224 92.400885 168.12888 C 93.24112 177.128724 97.921536 186.969557 106.92138 189.727878 C 115.08099 192.323021 124.003034 189.712187 129.480117 183.12862 C 132.95931 178.512591 135.377318 173.18737 136.55987 167.529518 C 137.011107 167.504414 137.449896 167.680143 137.761094 168.009635 Z M 137.761094 168.009635 " transform="matrix(1.25523,0,0,1.244813,0,0)"/>
<path style=" stroke:none;fill-rule:nonzero;fill:rgb(0%,0%,0%);fill-opacity:1;" d="M 24.855469 3 C 22.449219 1.007812 19.398438 -0.0546875 16.269531 0.0117188 C 12.804688 0.160156 0 4.492188 0 23.3125 C 0 42.285156 11.597656 48.410156 18.527344 48.410156 C 25.457031 48.410156 32.535156 43.179688 34.796875 33.921875 C 35.097656 32.574219 34.945312 32.425781 33.589844 31.828125 L 29.070312 30.035156 C 28.015625 29.738281 27.867188 29.738281 27.261719 31.53125 C 26.8125 32.875 24.855469 38.253906 20.183594 38.253906 C 15.515625 38.253906 13.554688 31.53125 13.554688 24.359375 C 13.554688 17.339844 14.761719 10.617188 20.484375 10.617188 C 26.210938 10.617188 27.414062 16.59375 27.867188 18.832031 C 28.015625 19.878906 28.167969 19.878906 29.222656 19.878906 L 33.4375 19.878906 C 34.34375 19.878906 34.34375 19.878906 34.34375 17.9375 L 34.34375 2.402344 C 34.34375 1.503906 34.191406 1.503906 32.386719 1.503906 L 28.621094 1.503906 C 27.867188 1.503906 27.867188 1.65625 27.414062 2.699219 C 26.960938 3.296875 26.058594 4.195312 24.855469 3 Z M 24.855469 3 "/>
<path style=" stroke:none;fill-rule:nonzero;fill:rgb(0%,0%,0%);fill-opacity:1;" d="M 196.71875 10.617188 L 205.457031 37.953125 C 205.90625 39.148438 205.90625 39.296875 206.660156 39.296875 L 207.867188 39.296875 C 209.371094 39.296875 209.371094 39.296875 209.371094 40.492188 L 209.371094 45.722656 C 209.371094 47.511719 209.222656 47.511719 208.316406 47.511719 L 190.996094 47.511719 C 189.488281 47.511719 189.488281 47.363281 189.488281 46.320312 L 189.488281 40.941406 C 189.488281 39.296875 189.640625 39.296875 190.84375 39.296875 L 192.503906 39.296875 C 193.40625 39.296875 193.40625 39 193.105469 37.953125 L 191.75 33.769531 C 191.296875 33.023438 191.144531 33.023438 190.09375 33.023438 L 179.546875 33.023438 L 181.808594 26.75 L 188.285156 26.75 C 189.339844 26.75 189.488281 26.601562 189.1875 25.855469 L 185.273438 13.753906 C 185.121094 13.007812 184.820312 13.007812 184.667969 13.605469 L 180.753906 25.855469 C 180.453125 26.75 180.453125 26.75 181.957031 26.75 L 179.699219 33.023438 C 178.492188 33.023438 178.492188 33.023438 178.191406 33.769531 L 176.835938 37.953125 C 176.535156 39.148438 176.535156 39.296875 177.289062 39.296875 L 178.945312 39.296875 C 180.300781 39.296875 180.300781 39.445312 180.300781 40.941406 L 180.300781 46.320312 C 180.300781 47.363281 180.152344 47.511719 178.796875 47.511719 L 166.894531 47.511719 C 165.839844 47.511719 165.839844 47.363281 165.839844 45.722656 L 165.839844 40.492188 C 165.839844 39.445312 165.992188 39.296875 167.195312 39.296875 L 168.402344 39.296875 C 168.683594 39.339844 168.96875 39.269531 169.195312 39.101562 C 169.421875 38.933594 169.570312 38.679688 169.605469 38.402344 L 178.492188 10.765625 C 178.796875 10.019531 178.796875 9.871094 177.4375 9.871094 L 175.78125 9.871094 C 174.425781 9.871094 174.425781 9.722656 174.425781 8.675781 L 174.425781 3.148438 C 174.425781 1.503906 174.425781 1.503906 176.386719 1.503906 L 199.429688 1.503906 C 200.785156 1.503906 200.785156 1.65625 200.785156 3.148438 L 200.785156 8.375 C 200.785156 9.570312 200.785156 9.570312 199.128906 9.570312 L 197.320312 9.570312 C 196.417969 9.421875 196.417969 9.722656 196.71875 10.617188 Z M 196.71875 10.617188 "/>
<path style=" stroke:none;fill-rule:nonzero;fill:rgb(0%,0%,0%);fill-opacity:1;" d="M 238.445312 31.378906 L 241.457031 31.378906 C 242.8125 31.378906 242.8125 31.53125 242.8125 32.277344 C 242.8125 34.964844 240.855469 38.253906 235.882812 38.253906 C 231.214844 38.253906 229.253906 31.53125 229.253906 24.359375 C 229.253906 17.339844 230.460938 10.617188 236.183594 10.617188 C 239.648438 10.515625 242.714844 12.8125 243.566406 16.144531 C 243.714844 17.191406 243.714844 17.191406 244.921875 17.191406 L 249.136719 17.191406 C 250.042969 17.191406 250.042969 17.191406 250.042969 15.097656 L 250.042969 2.402344 C 250.042969 1.503906 249.890625 1.503906 248.082031 1.503906 L 244.316406 1.503906 C 243.566406 1.503906 243.566406 1.503906 242.960938 2.699219 C 242.8125 3.296875 241.757812 4.195312 240.550781 3 C 238.136719 1.03125 235.09375 -0.0273438 231.964844 0.0117188 C 228.503906 0.160156 215.699219 4.492188 215.699219 23.3125 C 215.699219 42.285156 227.144531 48.410156 234.226562 48.410156 C 244.769531 48.410156 252.902344 40.492188 252.902344 25.554688 C 252.902344 24.0625 252.753906 23.910156 250.644531 23.910156 L 238.140625 23.910156 C 236.9375 23.910156 236.785156 24.0625 236.785156 25.40625 L 236.785156 30.335938 C 236.785156 31.378906 236.9375 31.378906 238.445312 31.378906 Z M 238.445312 31.378906 "/>
<path style=" stroke:none;fill-rule:nonzero;fill:rgb(0%,0%,0%);fill-opacity:1;" d="M 278.960938 1.207031 C 267.515625 1.207031 258.328125 11.960938 258.328125 24.957031 C 258.328125 38.101562 267.515625 48.558594 278.960938 48.558594 C 290.257812 48.558594 299.449219 38.101562 299.449219 24.957031 C 299.449219 11.960938 290.257812 1.207031 278.960938 1.207031 L 278.8125 9.722656 C 283.027344 9.722656 286.492188 16.59375 286.492188 24.957031 C 286.492188 33.324219 283.179688 40.195312 278.8125 40.195312 C 274.59375 40.195312 271.128906 33.324219 271.128906 24.957031 C 271.128906 16.59375 274.59375 9.722656 278.8125 9.722656 Z M 278.960938 1.207031 "/>
<path style=" stroke:none;fill-rule:nonzero;fill:rgb(0%,0%,0%);fill-opacity:1;" d="M 47.75 38.253906 L 47.75 10.914062 C 47.75 9.871094 47.597656 9.722656 46.542969 9.722656 L 45.1875 9.722656 C 43.832031 9.722656 43.832031 9.570312 43.832031 8.675781 L 43.832031 2.699219 C 43.832031 1.65625 43.984375 1.503906 45.488281 1.503906 L 61.757812 1.503906 C 62.960938 1.503906 63.113281 1.503906 63.113281 2.699219 L 63.113281 8.226562 C 63.113281 9.421875 62.960938 9.421875 61.757812 9.421875 L 60.855469 9.421875 C 60.101562 9.421875 59.949219 9.421875 60.101562 10.46875 L 60.101562 18.382812 C 60.101562 20.328125 60.101562 20.476562 61.757812 20.476562 L 70.492188 20.476562 C 72.152344 20.476562 72.152344 20.328125 72.152344 18.382812 L 72.152344 10.46875 C 72.152344 9.421875 72 9.421875 71.398438 9.421875 L 70.492188 9.421875 C 69.136719 9.421875 68.988281 9.421875 68.988281 8.226562 L 68.988281 2.699219 C 68.988281 1.503906 69.289062 1.503906 70.492188 1.503906 L 86.609375 1.503906 C 88.417969 1.503906 88.417969 1.503906 88.417969 2.699219 L 88.417969 8.675781 C 88.417969 9.722656 88.269531 9.722656 86.914062 9.722656 L 85.554688 9.722656 C 84.503906 9.722656 84.503906 9.871094 84.503906 10.914062 L 84.503906 38.253906 C 84.503906 39.296875 84.652344 39.296875 85.859375 39.296875 L 87.214844 39.296875 C 88.417969 39.296875 88.417969 39.296875 88.417969 40.941406 L 88.417969 46.316406 C 88.417969 47.214844 88.417969 47.511719 86.914062 47.511719 L 69.742188 47.511719 C 68.6875 47.511719 68.6875 47.511719 68.6875 45.722656 L 68.6875 40.492188 C 68.535156 39.296875 68.6875 39.296875 70.042969 39.296875 L 70.945312 39.296875 C 72 39.296875 72 39.148438 72 38.101562 L 72 29.589844 C 72 27.644531 71.847656 27.496094 70.492188 27.496094 L 61.757812 27.496094 C 60.402344 27.496094 60.25 27.644531 60.25 29.589844 L 60.25 38.101562 C 60.25 39.296875 60.25 39.296875 61.304688 39.296875 L 62.210938 39.296875 C 63.566406 39.296875 63.566406 39.296875 63.566406 40.492188 L 63.566406 45.722656 C 63.566406 47.511719 63.566406 47.511719 62.511719 47.511719 L 45.1875 47.511719 C 43.832031 47.511719 43.832031 47.511719 43.832031 46.316406 L 43.832031 40.941406 C 43.832031 39.296875 43.984375 39.296875 44.886719 39.296875 L 46.394531 39.296875 C 47.75 39.296875 47.75 39.296875 47.75 38.253906 Z M 47.75 38.253906 "/>
<path style=" stroke:none;fill-rule:nonzero;fill:rgb(0%,0%,0%);fill-opacity:1;" d="M 100.46875 10.617188 C 100.46875 9.570312 100.46875 9.570312 99.714844 9.570312 L 98.210938 9.570312 C 96.703125 9.570312 96.703125 9.421875 96.703125 8.375 L 96.703125 2.699219 C 96.703125 1.503906 96.855469 1.503906 98.058594 1.503906 L 114.175781 1.503906 C 115.984375 1.503906 115.984375 1.503906 115.984375 2.699219 L 115.984375 8.675781 C 115.984375 9.722656 115.832031 9.722656 114.476562 9.722656 L 113.722656 9.722656 C 112.667969 9.722656 112.667969 9.871094 112.667969 10.914062 L 112.667969 38.253906 C 112.667969 39.296875 112.820312 39.296875 114.023438 39.296875 L 115.230469 39.296875 C 116.285156 39.296875 116.285156 39.296875 116.285156 40.941406 L 116.285156 46.320312 C 116.285156 47.214844 116.285156 47.511719 114.929688 47.511719 L 97.757812 47.511719 C 96.703125 47.511719 96.703125 47.511719 96.703125 45.722656 L 96.703125 40.492188 C 96.550781 39.296875 96.703125 39.296875 98.058594 39.296875 L 99.414062 39.296875 C 100.46875 39.296875 100.46875 39.296875 100.46875 38.101562 Z M 100.46875 10.617188 "/>
<path style=" stroke:none;fill-rule:nonzero;fill:rgb(0%,0%,0%);fill-opacity:1;" d="M 147.613281 3 C 145.199219 1.03125 142.15625 -0.0273438 139.027344 0.0117188 C 135.566406 0.160156 122.761719 4.492188 122.761719 23.3125 C 122.761719 42.285156 134.210938 48.410156 141.289062 48.410156 C 148.21875 48.410156 155.296875 43.179688 157.554688 33.921875 C 157.859375 32.574219 157.707031 32.425781 156.351562 31.828125 L 151.832031 30.035156 C 150.777344 29.738281 150.628906 29.738281 150.023438 31.53125 C 149.574219 32.875 147.613281 38.253906 142.945312 38.253906 C 138.277344 38.253906 136.316406 31.53125 136.316406 24.359375 C 136.316406 17.339844 137.523438 10.617188 143.246094 10.617188 C 148.972656 10.617188 150.175781 16.59375 150.628906 18.832031 C 150.777344 19.878906 150.929688 19.878906 151.984375 19.878906 L 156.199219 19.878906 C 157.105469 19.878906 157.105469 19.878906 157.105469 17.9375 L 157.105469 2.402344 C 157.105469 1.503906 156.953125 1.503906 155.144531 1.503906 L 151.378906 1.503906 C 150.628906 1.503906 150.628906 1.65625 150.175781 2.699219 C 149.722656 3.296875 148.820312 4.195312 147.613281 3 Z M 147.613281 3 "/>
<path style=" stroke:none;fill-rule:nonzero;fill:rgb(0%,0%,0%);fill-opacity:1;" d="M 45.039062 69.171875 L 45.039062 96.359375 C 45.039062 97.257812 44.886719 97.257812 43.984375 97.257812 L 42.476562 97.257812 C 41.273438 97.257812 41.121094 97.554688 41.121094 98.75 L 41.121094 104.425781 C 41.121094 105.472656 41.421875 105.472656 42.628906 105.472656 L 67.78125 105.472656 L 59.195312 96.808594 C 57.539062 96.808594 57.390625 96.808594 57.390625 95.015625 L 57.390625 87.246094 C 57.390625 85.753906 57.539062 85.605469 59.195312 85.605469 L 59.195312 78.582031 C 57.390625 78.582031 57.390625 78.433594 57.390625 76.941406 L 57.390625 69.023438 C 57.390625 67.378906 57.539062 67.378906 59.046875 67.378906 C 60.703125 67.378906 67.332031 67.53125 67.332031 73.207031 C 67.332031 78.882812 61.304688 78.582031 59.195312 78.582031 L 59.195312 85.753906 C 61.003906 85.753906 67.332031 85.902344 67.332031 91.578125 C 67.332031 97.257812 61.304688 97.105469 59.195312 97.105469 L 67.78125 105.769531 C 74.109375 105.769531 78.777344 100.09375 78.777344 93.671875 C 78.777344 87.246094 74.710938 84.707031 71.398438 82.320312 C 73.808594 80.527344 77.875 77.835938 77.875 71.414062 C 77.875 64.242188 70.796875 59.761719 66.425781 59.761719 L 43.230469 59.761719 C 41.273438 59.761719 41.121094 59.761719 41.121094 61.257812 L 41.121094 67.082031 C 41.121094 67.976562 41.273438 68.128906 42.628906 68.128906 L 44.132812 68.128906 C 45.039062 67.828125 45.039062 67.976562 45.039062 69.171875 Z M 45.039062 69.171875 "/>
<path style=" stroke:none;fill-rule:nonzero;fill:rgb(0%,0%,0%);fill-opacity:1;" d="M 122.007812 68.726562 L 122.007812 92.175781 C 122.007812 98.152344 118.84375 106.964844 106.945312 106.964844 C 94.894531 106.964844 89.171875 98.152344 89.171875 92.175781 L 89.171875 68.726562 C 89.171875 67.679688 89.019531 67.679688 88.117188 67.679688 L 86.761719 67.679688 C 85.40625 67.679688 85.40625 67.679688 85.40625 66.484375 L 85.40625 61.257812 C 85.40625 59.464844 85.554688 59.464844 87.0625 59.464844 L 103.179688 59.464844 C 104.386719 59.464844 104.6875 59.464844 104.6875 60.957031 L 104.6875 66.1875 C 104.6875 67.378906 104.535156 67.378906 102.878906 67.378906 L 101.523438 67.378906 C 100.769531 67.378906 100.621094 67.53125 100.621094 68.425781 L 100.621094 91.28125 C 100.71875 95.066406 103.878906 98.066406 107.699219 98.003906 C 109.546875 98.128906 111.359375 97.46875 112.683594 96.183594 C 114.007812 94.898438 114.714844 93.117188 114.628906 91.28125 L 114.628906 68.726562 C 114.628906 67.378906 114.476562 67.378906 113.421875 67.378906 L 112.21875 67.378906 C 110.863281 67.378906 110.710938 67.378906 110.710938 66.1875 L 110.710938 60.957031 C 110.710938 59.613281 110.710938 59.464844 112.066406 59.464844 L 123.964844 59.464844 C 126.074219 59.464844 126.074219 59.464844 126.074219 60.957031 L 126.074219 66.484375 C 126.074219 67.679688 126.074219 67.679688 124.570312 67.679688 L 123.0625 67.679688 C 122.007812 67.828125 122.007812 67.828125 122.007812 68.726562 Z M 122.007812 68.726562 "/>
<path style=" stroke:none;fill-rule:nonzero;fill:rgb(0%,0%,0%);fill-opacity:1;" d="M 178.191406 97.257812 L 176.535156 97.257812 C 175.480469 97.257812 175.332031 97.554688 175.332031 99.046875 L 175.332031 104.425781 C 175.332031 105.472656 175.480469 105.472656 176.6875 105.472656 L 206.359375 105.472656 C 207.714844 105.472656 207.867188 105.472656 207.867188 103.828125 L 207.867188 90.535156 C 207.867188 89.339844 207.714844 89.339844 206.359375 89.339844 L 202.140625 89.339844 C 200.785156 89.339844 200.636719 89.339844 200.636719 90.980469 L 200.636719 95.613281 C 200.636719 97.40625 200.484375 97.554688 199.28125 97.554688 L 192.652344 97.554688 C 190.695312 97.554688 190.542969 97.257812 190.542969 96.0625 L 190.542969 69.472656 C 190.542969 67.679688 190.542969 67.679688 191.597656 67.679688 L 193.253906 67.679688 C 194.609375 67.679688 194.609375 67.53125 194.609375 66.484375 L 194.609375 61.257812 C 194.609375 59.761719 194.609375 59.613281 193.105469 59.613281 L 177.289062 59.613281 C 175.179688 59.613281 175.179688 59.761719 175.179688 61.257812 L 175.179688 66.632812 C 175.179688 67.828125 175.332031 67.976562 176.6875 67.976562 L 178.042969 67.976562 C 179.097656 67.976562 179.097656 67.976562 179.097656 69.621094 L 179.097656 96.0625 C 179.246094 97.257812 179.097656 97.257812 178.191406 97.257812 Z M 178.191406 97.257812 "/>
<path style=" stroke:none;fill-rule:nonzero;fill:rgb(0%,0%,0%);fill-opacity:1;" d="M 247.027344 92.773438 C 247.027344 102.484375 237.691406 106.667969 233.773438 106.667969 C 230.667969 106.585938 227.664062 105.542969 225.1875 103.679688 C 223.984375 102.484375 222.628906 103.828125 222.175781 104.425781 C 221.574219 105.472656 221.421875 105.621094 220.972656 105.621094 L 219.011719 105.621094 C 217.054688 105.621094 217.203125 105.621094 217.203125 104.574219 L 217.203125 91.878906 C 217.203125 89.789062 217.203125 89.789062 217.957031 89.789062 L 220.972656 89.789062 C 222.023438 89.789062 222.023438 89.9375 222.328125 90.832031 C 223.476562 94.511719 226.878906 97.039062 230.761719 97.105469 C 233.019531 97.105469 234.828125 96.507812 234.828125 94.566406 C 234.828125 90.234375 232.269531 89.191406 227.75 86.800781 C 223.230469 84.558594 216.453125 81.871094 216.453125 72.011719 C 216.425781 64.753906 222.101562 58.730469 229.40625 58.269531 C 232.378906 58.324219 235.246094 59.378906 237.539062 61.257812 C 238.015625 61.632812 238.640625 61.765625 239.230469 61.621094 C 239.820312 61.472656 240.308594 61.0625 240.550781 60.507812 C 241.304688 59.3125 241.304688 59.3125 241.90625 59.3125 L 243.867188 59.3125 C 245.671875 59.3125 245.824219 59.3125 245.824219 60.359375 L 245.824219 73.058594 C 245.824219 75 245.824219 75.148438 244.921875 75.148438 L 242.058594 75.148438 C 240.855469 75.148438 240.855469 75 240.550781 74.101562 C 239.183594 70.390625 235.652344 67.898438 231.664062 67.828125 C 230.84375 67.753906 230.035156 68.042969 229.453125 68.621094 C 228.871094 69.199219 228.578125 70.003906 228.652344 70.816406 C 228.652344 73.503906 231.664062 75.894531 236.785156 78.433594 C 241.90625 80.824219 247.027344 84.558594 247.027344 92.773438 Z M 247.027344 92.773438 "/>
<path style=" stroke:none;fill-rule:nonzero;fill:rgb(0%,0%,0%);fill-opacity:1;" d="M 136.921875 97.257812 L 135.261719 97.257812 C 134.210938 97.257812 134.058594 97.554688 134.058594 99.046875 L 134.058594 104.425781 C 134.058594 105.472656 134.210938 105.472656 135.566406 105.472656 L 165.238281 105.472656 C 166.445312 105.472656 166.59375 105.472656 166.59375 103.828125 L 166.59375 90.535156 C 166.59375 89.339844 166.445312 89.339844 165.238281 89.339844 L 160.871094 89.339844 C 159.515625 89.339844 159.363281 89.339844 159.363281 90.980469 L 159.363281 95.613281 C 159.363281 97.40625 159.214844 97.554688 158.007812 97.554688 L 151.378906 97.554688 C 149.421875 97.554688 149.421875 97.257812 149.421875 96.0625 L 149.421875 69.472656 C 149.421875 67.679688 149.421875 67.679688 150.328125 67.679688 L 151.984375 67.679688 C 153.339844 67.679688 153.339844 67.53125 153.339844 66.484375 L 153.339844 61.257812 C 153.339844 59.761719 153.339844 59.613281 151.832031 59.613281 L 136.015625 59.613281 C 134.058594 59.613281 134.058594 59.761719 134.058594 61.257812 L 134.058594 66.632812 C 134.058594 67.828125 134.058594 67.976562 135.414062 67.976562 L 136.769531 67.976562 C 137.824219 67.976562 137.824219 67.976562 137.824219 69.621094 L 137.824219 96.0625 C 137.976562 97.257812 137.824219 97.257812 136.921875 97.257812 Z M 136.921875 97.257812 "/>
<path style=" stroke:none;fill-rule:nonzero;fill:rgb(100%,100%,100%);fill-opacity:1;" d="M 30.425781 114.433594 C 36.902344 126.832031 50.007812 130.867188 63.414062 130.121094 C 70.796875 130.121094 78.023438 129.371094 85.40625 128.925781 L 85.40625 129.371094 C 81.667969 139.777344 79.039062 150.539062 77.574219 161.488281 C 58.292969 162.234375 38.5625 160.59375 24.402344 147.894531 C 14.609375 138.1875 12.199219 124.742188 14.308594 111.445312 C 16.570312 108.757812 19.128906 106.515625 21.390625 103.828125 C 24.550781 107.265625 29.671875 109.953125 30.425781 114.433594 Z M 30.425781 114.433594 "/>
<path style=" stroke:none;fill-rule:nonzero;fill:rgb(100%,100%,100%);fill-opacity:1;" d="M 270.375 108.90625 C 270.828125 110.847656 270.828125 112.640625 271.128906 114.734375 C 272.035156 129.371094 265.554688 142.964844 252.902344 150.433594 C 239.046875 158.800781 223.078125 161.488281 206.058594 162.085938 C 205.757812 160.59375 205.605469 158.5 205.304688 156.859375 C 204.117188 147.15625 202.152344 137.566406 199.429688 128.175781 C 217.65625 127.878906 239.800781 132.660156 251.847656 116.078125 C 253.355469 113.6875 255.011719 111.746094 256.367188 109.207031 C 259.078125 108.011719 261.640625 106.21875 264.351562 104.875 C 266.609375 105.921875 268.117188 107.710938 270.375 108.90625 Z M 270.375 108.90625 "/>
<path style=" stroke:none;fill-rule:nonzero;fill:rgb(100%,100%,100%);fill-opacity:1;" d="M 201.238281 183.445312 C 201.390625 189.125 199.429688 194.949219 194.308594 197.636719 C 191.890625 198.863281 189.1875 199.433594 186.476562 199.28125 C 186.402344 198.734375 186.402344 198.183594 186.476562 197.636719 C 190.542969 197.636719 194.609375 196.144531 196.871094 192.859375 C 198.273438 190.234375 198.996094 187.3125 198.980469 184.34375 C 199.648438 183.867188 200.421875 183.5625 201.238281 183.445312 Z M 201.238281 183.445312 "/>
<path style=" stroke:none;fill-rule:nonzero;fill:rgb(100%,100%,100%);fill-opacity:1;" d="M 98.511719 198.683594 C 97.671875 198.917969 96.785156 198.917969 95.949219 198.683594 C 92.246094 198.6875 88.707031 197.160156 86.191406 194.464844 C 83.671875 191.769531 82.40625 188.15625 82.695312 184.492188 C 83.519531 184.191406 84.429688 184.191406 85.253906 184.492188 C 85.253906 189.722656 87.363281 196.59375 98.210938 196.59375 C 98.960938 197.789062 98.210938 197.9375 98.511719 198.683594 Z M 98.511719 198.683594 "/>
</g>
</svg>
