<?xml version="1.0" encoding="UTF-8"?>
<svg xmlns="http://www.w3.org/2000/svg" xmlns:xlink="http://www.w3.org/1999/xlink" width="300px" height="300px" viewBox="0 0 300 300" version="1.1">
<g id="surface1">
<path style=" stroke:none;fill-rule:nonzero;fill:rgb(100%,72.156864%,10.980392%);fill-opacity:1;" d="M 141.210938 294.476562 C 139.78125 293.945312 105.636719 280.417969 71.617188 253.09375 C 40.078125 227.824219 2.546875 185.1875 2.546875 126.195312 L 2.546875 112.847656 C 2.671875 100.566406 3.324219 76.539062 4.765625 60.597656 C 5.03125 57.308594 5.417969 54.453125 5.683594 52.226562 L 6.460938 47.085938 L 12.457031 43.882812 C 19.394531 40.332031 26.800781 37.230469 34.585938 34.625 C 40.855469 32.398438 48.007812 30.179688 55.824219 27.855469 C 96.089844 14.777344 144.699219 3.296875 145.089844 3.117188 L 149.78125 1.960938 L 154.472656 3.03125 C 155 3.117188 209.339844 15.933594 250.777344 29.816406 C 259.824219 32.53125 268.621094 35.621094 277.117188 39.070312 C 280.535156 40.496094 283.84375 42.039062 287.027344 43.695312 L 293.023438 46.898438 L 293.804688 52.039062 C 293.929688 53.109375 294.066406 54.351562 294.328125 55.773438 C 296.023438 70.988281 296.9375 98.757812 297.066406 112.730469 L 297.066406 126.167969 C 297.066406 185.171875 259.53125 227.703125 227.996094 253.066406 C 193.847656 280.476562 159.839844 293.910156 158.398438 294.449219 L 149.617188 297.832031 Z M 141.210938 294.476562 "/>
<path style=" stroke:none;fill-rule:nonzero;fill:rgb(43.529412%,14.901961%,23.921569%);fill-opacity:1;" d="M 149.867188 4.007812 L 151.25 4.378906 L 153.59375 4.90625 C 154.121094 4.992188 208.589844 17.808594 249.632812 31.609375 C 258.605469 34.277344 267.3125 37.335938 275.703125 40.773438 C 279.082031 42.160156 282.34375 43.679688 285.472656 45.3125 L 288.984375 47.183594 L 290.554688 47.976562 L 290.816406 49.316406 L 291.207031 52.339844 C 291.332031 53.410156 291.46875 54.566406 291.734375 55.988281 C 293.425781 71.113281 294.34375 98.878906 294.46875 112.761719 L 294.46875 126.109375 C 294.46875 184.574219 257.324219 226.667969 226.050781 251.765625 C 192.34375 278.816406 158.773438 292.195312 157.292969 292.691406 L 152.214844 294.65625 L 149.992188 295.511719 L 147.773438 294.65625 L 142.691406 292.691406 C 141.261719 292.164062 107.632812 278.808594 73.886719 251.757812 C 42.738281 226.65625 5.46875 184.574219 5.46875 126.101562 L 5.46875 112.667969 C 5.59375 100.386719 6.246094 76.359375 7.691406 60.519531 C 7.953125 57.230469 8.34375 54.472656 8.605469 52.246094 L 8.996094 49.21875 L 9.257812 47.882812 L 10.824219 47.085938 L 14.339844 45.21875 C 21.144531 41.765625 28.386719 38.726562 35.976562 36.140625 C 42.097656 33.914062 49.273438 31.695312 57.089844 29.46875 C 97.230469 16.472656 145.703125 4.90625 146.230469 4.8125 L 148.578125 4.28125 L 149.832031 4.015625 M 149.832031 0.015625 L 148.011719 0.460938 L 146.582031 0.820312 L 144.234375 1.351562 C 143.847656 1.4375 94.847656 13.097656 54.582031 26.195312 C 46.765625 28.421875 39.589844 30.734375 33.34375 32.960938 C 25.507812 35.683594 18.011719 38.832031 10.925781 42.382812 L 7.414062 44.253906 L 5.847656 45.046875 L 4.027344 46.023438 L 3.761719 47.628906 L 3.5 48.964844 L 3.109375 51.988281 C 2.722656 54.300781 2.457031 57.125 2.195312 60.441406 C 0.765625 76.460938 0.113281 100.574219 -0.0234375 112.773438 L -0.0234375 126.210938 C -0.0234375 185.746094 37.898438 228.730469 69.695312 254.265625 C 104.105469 281.847656 138.503906 295.46875 139.945312 296.09375 L 145.027344 298.054688 L 147.246094 298.914062 L 149.992188 299.992188 L 152.726562 298.921875 L 154.949219 298.0625 L 160.027344 296.101562 C 161.460938 295.570312 195.867188 281.953125 230.277344 254.273438 C 262.078125 228.730469 300 185.746094 300 126.21875 L 300 112.753906 C 299.875 98.785156 298.957031 70.925781 297.265625 55.714844 C 297.140625 54.199219 296.875 53.039062 296.738281 51.980469 L 296.347656 48.953125 L 296.085938 47.617188 L 295.824219 46.015625 L 294.003906 45.039062 L 292.4375 44.242188 L 288.921875 42.375 C 285.664062 40.648438 282.273438 39.046875 278.761719 37.570312 C 270.140625 34.066406 261.21875 30.917969 252.042969 28.148438 C 211.25 14.441406 157.820312 1.894531 155.601562 1.363281 L 153.253906 0.832031 L 151.824219 0.472656 Z M 149.832031 0.015625 "/>
<path style=" stroke:none;fill-rule:nonzero;fill:rgb(0%,0%,0%);fill-opacity:1;" d="M 289.828125 117.835938 L 289.828125 126.289062 C 289.828125 183.777344 253.210938 225.246094 222.449219 249.898438 C 189.21875 276.589844 156.265625 289.625 154.8125 290.199219 L 149.730469 292.195312 L 144.648438 290.234375 C 143.21875 289.703125 110.242188 276.625 77.011719 249.921875 C 46.390625 225.269531 9.757812 183.800781 9.757812 126.316406 L 9.757812 112.933594 C 9.886719 100.746094 10.539062 76.804688 11.980469 60.964844 C 12.242188 57.761719 12.632812 54.96875 12.894531 52.773438 L 13.257812 49.777344 L 16.773438 47.910156 C 23.332031 44.5625 30.308594 41.617188 37.621094 39.105469 C 43.742188 36.972656 50.78125 34.742188 58.46875 32.429688 C 98.222656 19.53125 146.695312 7.957031 147.222656 7.871094 L 149.566406 7.339844 L 151.914062 7.871094 C 152.441406 7.957031 206.519531 20.722656 247.4375 34.476562 C 256.269531 37.132812 264.84375 40.167969 273.117188 43.558594 C 276.367188 44.886719 279.5 46.34375 282.5 47.917969 L 286.011719 49.785156 L 286.402344 52.808594 C 286.527344 53.878906 286.664062 55.121094 286.929688 56.457031 C 288.621094 71.5 289.539062 99.175781 289.664062 113.054688 L 289.664062 117.859375 Z M 289.828125 117.835938 "/>
<path style=" stroke:none;fill-rule:nonzero;fill:rgb(100%,72.156864%,10.980392%);fill-opacity:1;" d="M 167.066406 171.578125 C 166.804688 171.9375 225.058594 148.707031 225.058594 148.707031 L 225.058594 140.78125 L 222.1875 138.863281 C 206.542969 128.722656 183.222656 128.628906 159.464844 132.988281 L 159.464844 50.015625 C 159.464844 44.585938 159.589844 39.335938 158.9375 34.53125 C 158.480469 29.667969 156.726562 24.902344 153.757812 20.472656 L 149.84375 14.957031 L 146.078125 20.558594 C 143.164062 25.183594 141.359375 30.101562 140.734375 35.121094 C 140.082031 40.011719 140.082031 45.261719 139.957031 50.695312 L 139.429688 137.546875 C 115.058594 144.398438 92.640625 154.359375 80.660156 161.128906 L 67.5 175.011719 L 83.808594 172.253906 C 58.78125 193.789062 67.652344 207.847656 68.691406 209.277344 C 71.300781 214.347656 77.472656 218.441406 87.195312 221.117188 C 94.621094 223.164062 103.089844 223.429688 110.265625 223.164062 C 119.804688 222.746094 129.222656 221.492188 138.289062 219.429688 L 138.289062 222.1875 C 129.8125 225.460938 123.339844 230.703125 120.050781 236.960938 C 118.671875 239.503906 117.878906 242.179688 117.703125 244.886719 C 117.703125 245.332031 117.703125 246.847656 117.441406 248.980469 C 117.195312 251.324219 116.628906 253.648438 115.746094 255.917969 L 115.09375 257.339844 L 113.011719 260.808594 C 113.277344 261.4375 119.007812 260.097656 121.792969 259.386719 C 122.417969 259.238281 123.023438 259.0625 123.613281 258.855469 C 125.601562 258.070312 127.441406 257.113281 129.082031 256.011719 C 130.371094 255.109375 131.589844 254.160156 132.734375 253.167969 C 133.773438 252.3125 134.691406 251.386719 135.46875 250.601562 C 136.632812 249.527344 137.6875 248.464844 138.730469 247.394531 L 138.855469 256.648438 L 138.855469 264.355469 C 138.335938 264.84375 137.855469 265.347656 137.425781 265.871094 C 136.257812 267.390625 133.257812 272.367188 132.996094 275.125 C 132.871094 275.75 135.730469 275.65625 139.90625 275.570312 C 140.695312 275.539062 141.476562 275.480469 142.253906 275.390625 C 144.632812 275.148438 146.984375 274.789062 149.292969 274.320312 C 153.984375 273.34375 161.410156 271.03125 162.449219 265.949219 L 162.839844 264.167969 L 162.0625 263.808594 C 171.972656 257.8125 174.707031 251.355469 174.316406 246.007812 C 174.171875 244.324219 173.78125 242.652344 173.152344 241.023438 L 176.664062 241.46875 L 180.828125 242 L 181.605469 239.15625 C 184.113281 229.363281 176 221.167969 159.714844 219.582031 L 159.714844 213.886719 C 175.125 208.882812 189.496094 202.507812 202.453125 194.929688 L 202.980469 194.570312 L 207.671875 178.292969 L 198.414062 181.761719 C 183.425781 186.207031 169.875 189.773438 159.714844 192.265625 L 159.714844 155.378906 C 162.476562 154.257812 165.351562 153.277344 168.320312 152.441406 C 175.847656 150.214844 180.867188 149.417969 183.171875 149.597656 C 182.300781 151.304688 181.257812 152.972656 180.050781 154.582031 C 179.785156 154.496094 167.667969 170.859375 167.15625 171.578125 M 134.839844 168.734375 C 136.09375 167.757812 137.710938 166.773438 139.269531 165.796875 L 139.144531 178.695312 L 138.878906 197.027344 C 123.109375 200.316406 115.683594 200.855469 110.214844 199.964844 L 109.5625 199.878906 C 108.546875 199.636719 107.835938 199.011719 107.742188 198.277344 C 107.480469 190.980469 125.59375 175.5 134.851562 168.734375 "/>
<path style=" stroke:none;fill-rule:nonzero;fill:rgb(1.568628%,11.764706%,25.882354%);fill-opacity:1;" d="M 221.671875 147.378906 L 221.546875 142.238281 L 183.363281 158.171875 C 183.097656 158.617188 178.144531 165.203125 177.628906 165.554688 Z M 221.671875 147.378906 "/>
<path style=" stroke:none;fill-rule:nonzero;fill:rgb(1.568628%,11.764706%,25.882354%);fill-opacity:1;" d="M 77.925781 170.6875 L 91.472656 168.375 C 94.082031 166.242188 96.691406 164.375 99 162.773438 C 94.183594 163.484375 88.964844 164.375 83.757812 165.171875 C 82.84375 166.027344 78.539062 170.15625 77.902344 170.6875 "/>
<path style=" stroke:none;fill-rule:nonzero;fill:rgb(1.568628%,11.764706%,25.882354%);fill-opacity:1;" d="M 155.601562 207.390625 C 153.644531 208.019531 151.5625 208.632812 149.605469 209.261719 C 148.351562 209.621094 146.996094 210.054688 145.839844 210.417969 C 144.925781 210.683594 144.023438 210.863281 143.230469 211.128906 C 131.113281 214.332031 118.859375 216.464844 107.53125 216.824219 C 100.492188 217.089844 92.804688 216.738281 86.292969 214.957031 C 81.210938 213.714844 76.707031 211.566406 73.257812 208.730469 C 75.34375 212.910156 80.296875 216.378906 89.292969 218.871094 C 95.941406 220.652344 103.492188 220.917969 110.527344 220.738281 C 121.695312 220.21875 132.6875 218.570312 143.144531 215.847656 C 144.058594 215.667969 144.964844 215.402344 145.753906 215.222656 L 149.667969 214.152344 C 151.625 213.621094 153.707031 212.996094 155.664062 212.371094 C 171.625 207.359375 186.496094 200.859375 199.84375 193.0625 L 202.066406 185.859375 C 190.074219 193.6875 173.402344 201.515625 155.652344 207.390625 "/>
<path style=" stroke:none;fill-rule:nonzero;fill:rgb(1.568628%,11.764706%,25.882354%);fill-opacity:1;" d="M 155.601562 222.304688 L 155.601562 215.367188 C 153.644531 215.992188 151.5625 216.523438 149.605469 217.148438 L 149.605469 224.351562 C 149.605469 226.066406 145.566406 226.402344 145.691406 225.0625 L 145.691406 218.210938 C 144.800781 218.460938 143.886719 218.667969 142.957031 218.835938 L 142.832031 224.269531 L 142.304688 224.535156 C 134.011719 227.332031 127.617188 232.207031 124.453125 238.144531 C 124.453125 238.230469 124.328125 238.324219 124.328125 238.410156 C 123.097656 240.695312 122.398438 243.097656 122.246094 245.527344 C 122.238281 249.425781 121.492188 253.308594 120.023438 257.074219 C 120.023438 257.074219 122.109375 256.808594 126.148438 254.230469 C 128.257812 252.660156 130.210938 250.992188 132.003906 249.246094 C 135.65625 245.777344 138.652344 242.308594 142.957031 240.792969 L 142.957031 243.910156 C 142.957031 249.785156 143.082031 265.710938 143.082031 265.804688 C 140.671875 267.90625 139.226562 270.445312 138.917969 273.101562 C 138.917969 273.28125 157.03125 272.390625 158.335938 265.984375 C 158.335938 265.984375 154.824219 264.382812 154.949219 264.382812 C 180.488281 252.277344 166.238281 237.777344 166.238281 237.777344 C 172.359375 238.402344 175.886719 238.753906 177.441406 239.019531 C 179.785156 230.03125 172.097656 222.820312 155.550781 222.289062 M 148.738281 264.398438 C 148.738281 265.46875 145.476562 265.46875 145.476562 264.664062 L 145.601562 239.660156 C 146.652344 239.21875 147.792969 238.890625 148.988281 238.683594 Z M 153.042969 261.828125 C 160.996094 248.75 155.125 239.136719 155.261719 238.957031 C 165.171875 239.816406 168.296875 254.445312 153.042969 261.828125 M 162.953125 256.757812 C 166.714844 251.328125 167.769531 241.8125 159.1875 237.621094 L 162.1875 237.621094 C 170.65625 242.425781 166.878906 254.617188 162.964844 256.757812 M 174.566406 236.292969 C 160.367188 233.621094 143.683594 236.027344 135.996094 242.289062 C 132.871094 244.859375 129.996094 248.699219 124.527344 252.527344 C 125.238281 249.910156 125.660156 247.261719 125.78125 244.601562 C 126.699219 237.125 132.429688 230.71875 143.898438 226.984375 C 143.914062 227.289062 144.046875 227.582031 144.285156 227.839844 C 144.875 228.414062 145.78125 228.800781 146.792969 228.910156 C 147.835938 228.996094 146.144531 228.730469 146.792969 228.910156 C 146.921875 228.910156 147.183594 228.996094 147.320312 228.996094 L 149.277344 228.996094 C 149.464844 229.011719 149.652344 228.980469 149.804688 228.910156 L 149.929688 228.910156 C 150.054688 228.910156 150.195312 228.824219 150.457031 228.824219 C 150.847656 228.738281 151.109375 228.644531 151.5 228.558594 C 152.5625 228.375 153.488281 227.933594 154.109375 227.316406 C 154.246094 227.21875 154.339844 227.09375 154.371094 226.957031 C 158.535156 227.582031 162.0625 229.003906 163.628906 230.691406 C 156.203125 230.425781 145.515625 232.113281 136.519531 239.148438 C 146.4375 233.820312 159.417969 231.945312 171.644531 234.074219 C 171.910156 230.425781 164.609375 226.511719 160.570312 224.910156 C 168.09375 226.691406 175.949219 231.050781 174.519531 236.304688 "/>
<path style=" stroke:none;fill-rule:nonzero;fill:rgb(43.529412%,14.901961%,23.921569%);fill-opacity:1;" d="M 155.601562 196.582031 C 153.378906 197.113281 151.296875 197.558594 149.605469 198.003906 C 148.175781 198.363281 146.871094 198.628906 145.839844 198.859375 C 144.992188 199.082031 144.121094 199.261719 143.230469 199.390625 L 141.800781 199.65625 C 74.691406 213.894531 96.191406 184.171875 126.8125 161.839844 C 130.675781 159.152344 134.765625 156.628906 139.066406 154.273438 L 139.191406 141.101562 C 119.367188 146.878906 100.746094 154.417969 83.808594 163.527344 C 91.5 162.105469 99.3125 160.957031 107.003906 159.695312 C 40.28125 203.210938 78.980469 226.261719 142.84375 208.824219 C 143.757812 208.558594 144.535156 208.292969 145.453125 208.027344 C 146.707031 207.667969 147.960938 207.316406 149.214844 206.871094 C 151.171875 206.246094 153.253906 205.628906 155.210938 204.910156 C 171.300781 199.367188 186.351562 192.527344 200.046875 184.53125 C 182.445312 190.003906 166.414062 194.003906 155.601562 196.582031 Z M 155.601562 196.582031 "/>
<path style=" stroke:none;fill-rule:nonzero;fill:rgb(43.529412%,14.901961%,23.921569%);fill-opacity:1;" d="M 219.589844 141.058594 C 204.988281 131.53125 182.445312 131.710938 159.515625 136.164062 L 159.515625 145.417969 C 177.078125 139.539062 197.5625 137.707031 183.890625 156.003906 Z M 219.589844 141.058594 "/>
<path style=" stroke:none;fill-rule:nonzero;fill:rgb(1.568628%,11.764706%,25.882354%);fill-opacity:1;" d="M 163.792969 146.042969 C 162.539062 146.402344 161.058594 146.898438 159.488281 147.378906 L 159.488281 152.363281 C 161.84375 151.425781 164.28125 150.59375 166.789062 149.871094 C 174.742188 147.558594 181.519531 146.136719 185.292969 146.933594 C 185.832031 140.972656 176.1875 142.480469 163.792969 146.042969 Z M 163.792969 146.042969 "/>
<path style=" stroke:none;fill-rule:nonzero;fill:rgb(1.568628%,11.764706%,25.882354%);fill-opacity:1;" d="M 139.179688 156.628906 C 135.570312 158.660156 132.132812 160.828125 128.882812 163.125 C 120.277344 169.445312 100.34375 185.996094 100.605469 194.628906 C 100.542969 196.492188 101.683594 198.28125 103.730469 199.519531 C 103.730469 199.160156 103.605469 198.808594 103.605469 198.449219 C 103.339844 189.816406 123.285156 173.265625 131.878906 166.945312 C 133.960938 165.425781 136.445312 163.824219 139.042969 162.222656 Z M 139.179688 156.628906 "/>
<path style=" stroke:none;fill-rule:nonzero;fill:rgb(1.568628%,11.764706%,25.882354%);fill-opacity:1;" d="M 150.382812 21.988281 C 144.648438 30.625 144.773438 40.320312 144.648438 51.003906 L 144.261719 129.671875 L 143.722656 166.0625 L 143.597656 176.46875 L 143.332031 196.316406 C 144.183594 196.101562 145.058594 195.925781 145.941406 195.785156 L 146.066406 175.140625 L 146.191406 158.410156 L 146.191406 150.761719 L 146.316406 139.285156 L 146.582031 64.886719 L 146.707031 36.414062 C 147.359375 37.210938 149.707031 40.414062 149.832031 51.542969 L 149.707031 138.394531 L 149.707031 173.007812 L 149.578125 194.902344 C 151.398438 194.457031 153.34375 194.046875 155.574219 193.480469 L 155.574219 50.195312 C 155.726562 39.496094 156.117188 29.816406 150.382812 21.988281 Z M 150.382812 21.988281 "/>
<path style=" stroke:none;fill-rule:nonzero;fill:rgb(0%,0%,0%);fill-opacity:1;" d="M 283.832031 142.289062 C 283.832031 142.289062 171.230469 98.519531 14.515625 142.289062 C 13.597656 132.59375 23.898438 49.648438 23.898438 49.648438 L 278.875 49.648438 Z M 283.832031 142.289062 "/>
<path style=" stroke:none;fill-rule:nonzero;fill:rgb(100%,100%,100%);fill-opacity:1;" d="M 235.21875 80.453125 L 218.535156 80.453125 C 218.800781 81.429688 218.925781 81.96875 219.1875 82.945312 L 219.1875 95.398438 C 219.1875 103.675781 219.1875 112.042969 219.3125 120.320312 C 222.703125 120.5 224.53125 120.585938 227.917969 120.851562 C 228.445312 120.851562 228.699219 120.933594 229.085938 120.933594 L 229.085938 104.917969 C 230.128906 104.472656 230.65625 104.292969 231.695312 103.847656 C 234.203125 106.414062 235.347656 107.761719 237.816406 110.433594 L 237.816406 121.570312 C 241.730469 121.835938 243.675781 122.015625 247.589844 122.28125 L 247.589844 108.394531 C 244.855469 105.824219 242.246094 103.253906 239.511719 100.683594 C 242.773438 99.261719 244.328125 98.550781 247.589844 97.121094 L 247.589844 86.6875 C 244.203125 84.195312 242.371094 83.039062 238.984375 80.640625 L 235.21875 80.640625 Z M 229.222656 96.472656 L 229.222656 87.304688 L 230.390625 87.304688 C 232.898438 87.304688 234.042969 87.304688 236.511719 87.390625 C 236.933594 87.652344 237.324219 87.941406 237.679688 88.246094 L 237.679688 94.320312 C 234.292969 95.921875 232.460938 96.71875 229.074219 98.320312 C 229.171875 97.699219 229.214844 97.078125 229.199219 96.453125 "/>
<path style=" stroke:none;fill-rule:nonzero;fill:rgb(100%,100%,100%);fill-opacity:1;" d="M 215.023438 87.039062 L 215.023438 80.453125 L 192.21875 80.453125 C 192.480469 81.429688 192.605469 81.875 192.871094 82.851562 C 192.871094 94.953125 192.996094 107.058594 192.996094 119.164062 C 200.421875 119.429688 207.722656 119.789062 215.148438 120.140625 L 215.148438 113.550781 L 202.894531 113.105469 L 202.894531 101.277344 C 206.808594 101.363281 208.75 101.457031 212.664062 101.542969 L 212.664062 95.757812 C 208.75 95.675781 206.808594 95.675781 202.894531 95.578125 L 202.894531 87.015625 C 207.585938 86.929688 210.054688 87.015625 215.011719 87.015625 "/>
<path style=" stroke:none;fill-rule:nonzero;fill:rgb(100%,100%,100%);fill-opacity:1;" d="M 176.335938 80.453125 C 176.601562 81.429688 176.726562 81.875 176.988281 82.851562 L 176.988281 118.714844 C 180.902344 118.800781 182.847656 118.800781 186.898438 118.980469 L 186.898438 82.945312 C 187.136719 82.152344 187.3125 81.351562 187.425781 80.546875 L 176.335938 80.546875 Z M 176.335938 80.453125 "/>
<path style=" stroke:none;fill-rule:nonzero;fill:rgb(100%,100%,100%);fill-opacity:1;" d="M 85.226562 120.148438 C 82.355469 106.886719 79.492188 93.59375 76.757812 80.460938 L 60.726562 80.460938 C 60.992188 81.53125 61.117188 81.976562 61.378906 83.03125 C 58.644531 96.109375 55.910156 109.191406 53.300781 122.273438 C 57.214844 122.007812 59.160156 121.828125 63.074219 121.5625 C 63.726562 118.269531 63.988281 116.574219 64.640625 113.371094 C 66.460938 113.285156 67.375 113.191406 69.332031 113.105469 C 71.289062 113.019531 72.066406 112.925781 74.023438 112.839844 C 74.550781 116.042969 74.941406 117.558594 75.453125 120.765625 C 79.367188 120.5 81.3125 120.402344 85.226562 120.140625 M 65.933594 106.433594 C 67.101562 100.207031 68.28125 93.882812 69.445312 87.65625 C 70.613281 93.796875 71.667969 100.027344 72.832031 106.167969 C 69.960938 106.253906 68.667969 106.347656 65.921875 106.433594 "/>
<path style=" stroke:none;fill-rule:nonzero;fill:rgb(100%,100%,100%);fill-opacity:1;" d="M 144.261719 118.453125 C 141.386719 105.816406 138.527344 93.085938 135.65625 80.453125 L 119.625 80.453125 C 119.886719 81.429688 120.011719 81.875 120.277344 82.851562 C 117.542969 94.953125 114.933594 106.964844 112.199219 119.066406 C 116.109375 118.980469 118.054688 118.886719 122.109375 118.800781 C 122.761719 115.777344 123.023438 114.261719 123.675781 111.152344 C 125.496094 111.152344 126.410156 111.066406 128.367188 111.066406 C 130.324219 111.066406 131.101562 111.066406 133.058594 110.980469 C 133.710938 114.003906 133.972656 115.523438 134.488281 118.546875 C 138.402344 118.460938 140.347656 118.460938 144.261719 118.460938 M 124.84375 104.753906 C 126.007812 98.878906 127.1875 93.097656 128.355469 87.21875 C 129.519531 93 130.574219 98.878906 131.742188 104.660156 C 129.007812 104.660156 127.703125 104.746094 124.828125 104.746094 "/>
<path style=" stroke:none;fill-rule:nonzero;fill:rgb(100%,100%,100%);fill-opacity:1;" d="M 105.035156 80.453125 C 102.953125 91.132812 100.871094 101.867188 98.761719 112.574219 C 96.679688 101.894531 94.722656 91.160156 92.765625 80.453125 L 83.007812 80.453125 C 85.351562 91.929688 87.574219 103.503906 89.917969 114.980469 C 92.140625 116.847656 93.179688 117.824219 95.386719 119.703125 L 106.199219 119.257812 C 109.074219 106.355469 111.933594 93.359375 114.980469 80.460938 Z M 105.035156 80.453125 "/>
<path style=" stroke:none;fill-rule:nonzero;fill:rgb(100%,100%,100%);fill-opacity:1;" d="M 50.304688 90.953125 L 50.304688 86.609375 C 46.917969 84.210938 45.222656 82.960938 41.699219 80.46875 L 31.273438 80.46875 C 27.886719 83.039062 26.054688 84.296875 22.667969 86.960938 L 22.667969 125.160156 C 26.054688 127.386719 27.75 128.542969 31.273438 130.675781 C 35.4375 130.230469 37.546875 129.964844 41.699219 129.605469 C 45.085938 126.761719 46.917969 125.320312 50.304688 122.664062 L 50.304688 110.261719 C 47.042969 112.832031 43.65625 115.332031 40.53125 117.972656 L 40.53125 121.730469 C 40.105469 122.035156 39.714844 122.363281 39.363281 122.707031 C 37.144531 122.886719 36.101562 122.972656 33.894531 123.238281 C 33.472656 122.996094 33.085938 122.730469 32.726562 122.441406 L 32.726562 88.820312 C 33.152344 88.558594 33.539062 88.269531 33.894531 87.964844 C 36.117188 87.964844 37.15625 87.878906 39.363281 87.878906 C 39.785156 88.140625 40.175781 88.429688 40.53125 88.734375 L 40.53125 98.605469 C 43.792969 95.84375 47.042969 93.351562 50.304688 90.953125 "/>
<path style=" stroke:none;fill-rule:nonzero;fill:rgb(100%,100%,100%);fill-opacity:1;" d="M 279.527344 98.964844 L 279.527344 86.972656 C 276.140625 84.296875 274.308594 83.054688 270.921875 80.476562 L 259.84375 80.476562 C 256.457031 82.96875 254.625 84.210938 251.238281 86.621094 L 251.238281 99.253906 C 257.511719 103.082031 263.621094 106.902344 269.617188 110.914062 L 269.617188 122.304688 C 269.195312 122.550781 268.808594 122.816406 268.449219 123.101562 C 265.941406 122.835938 264.800781 122.742188 262.328125 122.570312 C 261.800781 122.125 261.550781 121.945312 261.164062 121.59375 L 261.164062 115.1875 L 251.390625 110.203125 L 251.390625 122.589844 C 251.390625 122.589844 256.609375 126.683594 259.996094 129.527344 C 262.992188 129.792969 264.425781 129.972656 267.296875 130.324219 L 270.945312 130.769531 C 274.335938 128.636719 276.027344 127.480469 279.550781 125.253906 L 279.550781 107.863281 C 273.554688 103.863281 267.433594 99.855469 261.175781 96.023438 L 261.175781 88.460938 C 261.597656 88.199219 261.988281 87.910156 262.339844 87.605469 C 264.851562 87.605469 265.992188 87.691406 268.464844 87.691406 C 268.886719 87.953125 269.277344 88.242188 269.628906 88.546875 L 269.628906 93.796875 C 269.628906 93.796875 275.625 96.820312 279.539062 98.9375 "/>
<path style=" stroke:none;fill-rule:nonzero;fill:rgb(100%,100%,100%);fill-opacity:1;" d="M 146.730469 80.453125 C 147.175781 81.089844 147.566406 81.746094 147.898438 82.414062 L 147.898438 118.453125 C 155.425781 118.453125 163.140625 118.535156 170.703125 118.632812 C 171.480469 116.136719 171.746094 114.800781 172.523438 112.308594 C 167.570312 112.222656 162.613281 112.222656 157.796875 112.128906 L 157.796875 82.414062 C 158.242188 81.777344 158.628906 81.121094 158.964844 80.453125 Z M 146.730469 80.453125 "/>
<path style=" stroke:none;fill-rule:nonzero;fill:rgb(100%,100%,100%);fill-opacity:1;" d="M 215.800781 57.316406 L 211.761719 54.558594 L 202.503906 54.558594 L 202.503906 73.402344 L 212.011719 73.402344 L 215.777344 70.832031 L 215.777344 57.316406 Z M 211.234375 69.949219 L 210.707031 70.308594 L 207.195312 70.308594 L 207.195312 57.761719 L 210.582031 57.761719 L 211.109375 58.121094 L 211.109375 69.957031 Z M 211.234375 69.949219 "/>
<path style=" stroke:none;fill-rule:nonzero;fill:rgb(100%,100%,100%);fill-opacity:1;" d="M 125.367188 57.761719 L 125.367188 54.558594 L 114.679688 54.558594 L 114.945312 55.808594 L 114.945312 73.515625 L 125.367188 73.515625 L 125.367188 70.308594 L 119.636719 70.308594 L 119.636719 64.613281 L 124.191406 64.613281 L 124.191406 61.855469 L 119.636719 61.855469 L 119.636719 57.761719 Z M 125.367188 57.761719 "/>
<path style=" stroke:none;fill-rule:nonzero;fill:rgb(100%,100%,100%);fill-opacity:1;" d="M 155.335938 73.515625 L 155.335938 70.308594 L 149.480469 70.308594 L 149.480469 64.613281 L 154.171875 64.613281 L 154.171875 61.855469 L 149.480469 61.855469 L 149.480469 57.761719 L 155.335938 57.761719 L 155.335938 54.558594 L 144.648438 54.558594 L 144.914062 55.808594 L 144.914062 73.515625 Z M 155.335938 73.515625 "/>
<path style=" stroke:none;fill-rule:nonzero;fill:rgb(100%,100%,100%);fill-opacity:1;" d="M 157.558594 63.277344 L 157.558594 73.515625 L 168.246094 73.515625 L 169.148438 70.308594 L 162.25 70.308594 L 162.25 55.808594 L 162.511719 54.558594 L 157.292969 54.558594 L 157.558594 55.808594 Z M 157.558594 63.277344 "/>
<path style=" stroke:none;fill-rule:nonzero;fill:rgb(100%,100%,100%);fill-opacity:1;" d="M 101.382812 63.277344 L 101.382812 73.515625 L 112.070312 73.515625 L 112.988281 70.308594 L 106.074219 70.308594 L 106.074219 55.808594 L 106.339844 54.558594 L 101.132812 54.558594 L 101.382812 55.808594 Z M 101.382812 63.277344 "/>
<path style=" stroke:none;fill-rule:nonzero;fill:rgb(100%,100%,100%);fill-opacity:1;" d="M 175.921875 69.777344 L 180.351562 69.777344 L 181.003906 73.515625 L 185.570312 73.515625 L 181.53125 54.667969 L 174.003906 54.667969 L 174.265625 55.824219 L 170.503906 73.53125 L 175.070312 73.53125 Z M 178.003906 57.941406 L 179.574219 66.574219 L 176.335938 66.574219 Z M 178.003906 57.941406 "/>
<path style=" stroke:none;fill-rule:nonzero;fill:rgb(100%,100%,100%);fill-opacity:1;" d="M 132.015625 54.558594 L 127.324219 54.558594 L 130.714844 71.105469 L 133.320312 73.515625 L 138.265625 73.515625 L 142.304688 54.558594 L 137.75 54.558594 L 134.878906 70.128906 Z M 132.015625 54.558594 "/>
<path style=" stroke:none;fill-rule:nonzero;fill:rgb(100%,100%,100%);fill-opacity:1;" d="M 191.953125 63.277344 L 191.953125 63.191406 L 196.257812 73.515625 L 200.558594 73.515625 L 200.558594 54.558594 L 195.867188 54.558594 L 196.007812 64.167969 L 191.566406 54.558594 L 187.011719 54.558594 L 187.261719 55.808594 L 187.261719 73.515625 L 191.953125 73.515625 Z M 191.953125 63.277344 "/>
<path style=" stroke:none;fill-rule:nonzero;fill:rgb(100%,100%,100%);fill-opacity:1;" d="M 99.441406 59.277344 L 99.441406 57.316406 L 95.398438 54.558594 L 90.445312 54.558594 L 86.40625 57.316406 L 86.40625 70.753906 L 90.445312 73.515625 L 95.398438 73.515625 L 99.441406 70.753906 L 99.441406 65.683594 L 94.75 68.886719 L 94.75 69.949219 L 94.222656 70.308594 L 91.613281 70.308594 L 90.960938 69.949219 L 90.960938 58.121094 L 91.613281 57.675781 L 94.222656 57.675781 L 94.75 58.121094 L 94.75 62.480469 Z M 99.441406 59.277344 "/>
</g>
</svg>
