<svg version="1.1" id="Layer_1" xmlns="http://www.w3.org/2000/svg" xmlns:xlink="http://www.w3.org/1999/xlink" x="0px" y="0px" width="100%" viewBox="0 0 620 905" enable-background="new 0 0 620 905" xml:space="preserve">
<path fill="#FFFFFF" opacity="1.000000" stroke="none" d=" M621.000000,236.000000   C621.000000,459.666656 621.000000,682.833313 621.000000,906.000000   C414.333344,906.000000 207.666672,906.000000 1.000000,906.000000   C1.000000,604.333313 1.000000,302.666656 1.000000,1.000000   C207.666672,1.000000 414.333344,1.000000 621.000000,1.000000   C621.000000,79.166664 621.000000,157.333328 621.000000,236.000000  M618.000000,534.500000   C618.000000,357.423523 618.000000,180.347076 618.000000,3.305810   C412.686310,3.305810 207.972855,3.305810 3.300033,3.305810   C3.300033,303.317413 3.300033,603.023132 3.300033,902.694214   C208.313644,902.694214 413.027100,902.694214 618.000000,902.694214   C618.000000,780.092468 618.000000,657.796204 618.000000,534.500000  z"/>
<path fill="#72253D" opacity="1.000000" stroke="none" d=" M618.000000,535.000000   C618.000000,657.796204 618.000000,780.092468 618.000000,902.694214   C413.027100,902.694214 208.313644,902.694214 3.300033,902.694214   C3.300033,603.023132 3.300033,303.317413 3.300033,3.305810   C207.972855,3.305810 412.686310,3.305810 618.000000,3.305810   C618.000000,180.347076 618.000000,357.423523 618.000000,535.000000  M14.541835,297.681396   C14.458697,298.169434 14.303184,298.657410 14.302748,299.145508   C14.272643,332.826965 14.247152,366.508423 14.266267,400.189850   C14.266992,401.468475 14.709245,402.746826 14.903627,404.957855   C17.249550,428.264740 18.684248,451.707123 22.125629,474.851105   C29.985632,527.711243 46.334934,578.102051 68.910606,626.494934   C98.310249,689.515503 138.551697,745.013184 187.419388,794.143066   C206.157669,812.981934 226.394714,830.538879 247.316727,846.934387   C265.865570,861.470093 286.284607,873.625122 305.947754,886.726440   C308.648315,888.525818 311.431061,890.313782 315.104736,887.904358   C322.200623,883.250488 329.696747,879.206848 336.793457,874.554138   C385.311554,842.744385 427.997894,804.435852 465.546600,760.180298   C501.226898,718.126892 530.975342,672.428284 553.907715,622.257385   C585.507141,553.124939 603.231628,480.519012 605.394775,404.663605   C606.741882,357.423035 605.289795,310.067444 603.940613,262.796356   C602.868530,225.238007 600.086365,187.727264 597.889893,150.205551   C597.775146,148.245132 596.500488,145.817963 594.979309,144.556458   C578.095337,130.554642 559.485413,119.075874 539.750793,109.732132   C508.308929,94.845314 476.839874,79.882126 444.655670,66.729393   C401.066803,48.915905 356.802399,32.753330 312.773560,16.025297   C310.821503,15.283640 308.142700,15.393349 306.124329,16.068623   C296.655060,19.236645 287.268646,22.661188 277.906647,26.139433   C225.453171,45.627369 173.718048,66.825317 122.859245,90.207283   C88.301331,106.095047 54.044346,122.362640 24.038097,146.190018   C22.691566,147.259277 21.464445,149.278320 21.327671,150.948807   C19.849752,168.999466 18.102137,187.049637 17.402840,205.137619   C16.219780,235.738708 15.739229,266.366943 14.541835,297.681396  z"/>
<path fill="#B4975A" opacity="1.000000" stroke="none" d=" M14.963324,296.983765   C15.739229,266.366943 16.219780,235.738708 17.402840,205.137619   C18.102137,187.049637 19.849752,168.999466 21.327671,150.948807   C21.464445,149.278320 22.691566,147.259277 24.038097,146.190018   C54.044346,122.362640 88.301331,106.095047 122.859245,90.207283   C173.718048,66.825317 225.453171,45.627369 277.906647,26.139433   C287.268646,22.661188 296.655060,19.236645 306.124329,16.068623   C308.142700,15.393349 310.821503,15.283640 312.773560,16.025297   C356.802399,32.753330 401.066803,48.915905 444.655670,66.729393   C476.839874,79.882126 508.308929,94.845314 539.750793,109.732132   C559.485413,119.075874 578.095337,130.554642 594.979309,144.556458   C596.500488,145.817963 597.775146,148.245132 597.889893,150.205551   C600.086365,187.727264 602.868530,225.238007 603.940613,262.796356   C605.289795,310.067444 606.741882,357.423035 605.394775,404.663605   C603.231628,480.519012 585.507141,553.124939 553.907715,622.257385   C530.975342,672.428284 501.226898,718.126892 465.546600,760.180298   C427.997894,804.435852 385.311554,842.744385 336.793457,874.554138   C329.696747,879.206848 322.200623,883.250488 315.104736,887.904358   C311.431061,890.313782 308.648315,888.525818 305.947754,886.726440   C286.284607,873.625122 265.865570,861.470093 247.316727,846.934387   C226.394714,830.538879 206.157669,812.981934 187.419388,794.143066   C138.551697,745.013184 98.310249,689.515503 68.910606,626.494934   C46.334934,578.102051 29.985632,527.711243 22.125629,474.851105   C18.684248,451.707123 17.249550,428.264740 15.230801,404.200806   C15.703262,402.636749 15.975081,401.829834 15.975610,401.022705   C15.997501,367.564606 16.005976,334.106445 15.952157,300.648438   C15.950191,299.426361 15.307444,298.205292 14.963324,296.983765  M22.003963,313.942688   C22.002434,341.909454 21.971367,369.876343 22.071619,397.842773   C22.077736,399.548950 23.124424,401.251404 23.892334,403.853119   C25.637541,441.537048 30.352680,478.835388 39.681721,515.410339   C78.877998,669.081360 167.690826,786.719116 299.868195,872.706177   C311.098785,880.012146 311.244232,879.794189 322.495605,872.913696   C323.915527,872.045349 325.305389,871.127747 326.708344,870.231567   C378.814056,836.948242 423.913330,795.891479 463.408447,748.375916   C528.366638,670.226501 570.358154,581.416809 587.934021,481.329834   C591.898621,458.752930 593.535645,435.767303 596.993530,412.745605   C596.980286,407.157379 596.967041,401.569153 596.808594,395.055237   C596.847534,372.381042 596.886414,349.706879 597.559143,326.470337   C597.696411,315.675415 597.865601,304.880554 597.895691,294.085327   C597.897583,293.401733 596.816284,292.715118 595.998169,291.127594   C595.990356,287.088409 595.982544,283.049225 596.588928,278.436554   C596.722107,271.761871 596.919373,265.087067 596.904602,258.412720   C596.902832,257.612579 595.749878,256.815002 594.965027,255.119843   C594.962646,252.085510 594.960327,249.051193 595.578125,245.447418   C595.714783,240.098053 595.930725,234.748245 595.902039,229.399765   C595.897766,228.601913 594.743896,227.810242 593.941833,226.170395   C593.965149,224.445358 593.988464,222.720322 594.609802,220.414368   C594.736816,216.105362 594.964294,211.794922 594.903564,207.488571   C594.891846,206.656479 593.752869,205.840317 592.950134,204.195663   C592.967041,202.796875 592.984009,201.398071 593.599609,199.427811   C593.736023,197.358765 594.172485,195.253220 593.926270,193.230728   C593.669128,191.117584 592.755066,189.084366 591.942261,186.227402   C591.965027,185.150208 591.987793,184.073013 592.598083,182.440094   C592.531128,179.235458 594.826050,175.667618 590.966858,172.234695   C590.955811,171.165222 590.944763,170.095734 591.519836,168.553909   C591.057312,166.708023 590.594788,164.862152 589.952271,162.226807   C589.973206,161.149307 589.994202,160.071823 590.598755,158.454407   C590.131104,156.540726 589.663452,154.627045 589.037292,152.170563   C588.035522,151.122940 587.135071,149.949890 586.016724,149.046539   C570.120667,136.206299 552.526917,126.020157 534.218018,117.191765   C463.836273,83.254349 391.672913,53.617111 317.831329,28.032909   C311.385406,25.799568 305.934937,26.043447 299.687103,28.269573   C231.425873,52.591404 164.736191,80.703529 99.110100,111.354774   C76.009682,122.144012 53.560062,134.220490 33.802628,150.610825   C31.913208,152.178238 30.558439,155.146576 30.187578,157.647293   C29.042032,165.371658 28.492994,173.184464 27.274776,180.568939   C27.033094,180.353760 26.803461,180.121414 26.540419,179.936630   C26.481884,179.895508 26.196764,180.028046 26.199160,180.070206   C26.463154,184.717316 26.744585,189.363419 27.142807,194.879883   C26.809084,200.902420 26.475361,206.924973 25.640509,213.219345   C25.766659,213.814941 25.892809,214.410553 26.151642,215.893082   C25.811737,223.912643 25.471834,231.932205 24.633202,240.222794   C24.760166,240.816711 24.887129,241.410629 25.161074,242.911072   C24.837275,253.247238 24.513475,263.583405 23.619429,274.266724   C23.773579,275.188080 23.927731,276.109406 24.222475,277.953857   C24.065441,283.312042 23.908409,288.670197 23.001760,294.252289   C22.671852,300.503571 22.341946,306.754852 22.003963,313.942688  z"/>
<path fill="#B19259" opacity="1.000000" stroke="none" d=" M14.752579,297.332581   C15.307444,298.205292 15.950191,299.426361 15.952157,300.648438   C16.005976,334.106445 15.997501,367.564606 15.975610,401.022705   C15.975081,401.829834 15.703262,402.636749 15.251863,403.734558   C14.709245,402.746826 14.266992,401.468475 14.266267,400.189850   C14.247152,366.508423 14.272643,332.826965 14.302748,299.145508   C14.303184,298.657410 14.458697,298.169434 14.752579,297.332581  z"/>
<path fill="#010100" opacity="1.000000" stroke="none" d=" M23.751377,294.028381   C23.908409,288.670197 24.065441,283.312042 24.245342,277.109406   C24.242031,275.483154 24.215853,274.701355 24.189674,273.919556   C24.513475,263.583405 24.837275,253.247238 25.187243,242.123138   C25.186251,240.874054 25.159090,240.412918 25.131931,239.951767   C25.471834,231.932205 25.811737,223.912643 26.184307,215.113800   C26.191862,213.872192 26.166750,213.409851 26.141640,212.947510   C26.475361,206.924973 26.809084,200.902420 27.197144,194.025024   C27.405087,189.101074 27.558695,185.032013 27.712303,180.962936   C28.492994,173.184464 29.042032,165.371658 30.187578,157.647293   C30.558439,155.146576 31.913208,152.178238 33.802628,150.610825   C53.560062,134.220490 76.009682,122.144012 99.110100,111.354774   C164.736191,80.703529 231.425873,52.591404 299.687103,28.269573   C305.934937,26.043447 311.385406,25.799568 317.831329,28.032909   C391.672913,53.617111 463.836273,83.254349 534.218018,117.191765   C552.526917,126.020157 570.120667,136.206299 586.016724,149.046539   C587.135071,149.949890 588.035522,151.122940 589.030762,152.784637   C589.354492,155.263916 589.684814,157.129120 590.015137,158.994324   C589.994202,160.071823 589.973206,161.149307 589.984558,163.006470   C590.322449,165.532837 590.628113,167.279541 590.933716,169.026260   C590.944763,170.095734 590.955811,171.165222 590.994019,173.049622   C591.351013,176.908310 591.680786,179.952057 592.010559,182.995819   C591.987793,184.073013 591.965027,185.150208 591.978149,187.063232   C592.343079,191.932480 592.671997,195.965881 593.000916,199.999283   C592.984009,201.398071 592.967041,202.796875 592.982422,205.063293   C593.347046,210.952377 593.679382,215.973831 594.011719,220.995285   C593.988464,222.720322 593.965149,224.445358 593.972412,227.055206   C594.321350,233.965637 594.639648,239.991257 594.957947,246.016861   C594.960327,249.051193 594.962646,252.085510 594.991882,256.031921   C595.337402,264.299316 595.656128,271.654694 595.974792,279.010040   C595.982544,283.049225 595.990356,287.088409 596.073120,292.043304   C596.407166,304.316895 596.666260,315.674805 596.925354,327.032684   C596.886414,349.706879 596.847534,372.381042 596.777222,395.964111   C596.578613,402.238617 596.411377,407.604218 596.244141,412.969818   C593.535645,435.767303 591.898621,458.752930 587.934021,481.329834   C570.358154,581.416809 528.366638,670.226501 463.408447,748.375916   C423.913330,795.891479 378.814056,836.948242 326.708344,870.231567   C325.305389,871.127747 323.915527,872.045349 322.495605,872.913696   C311.244232,879.794189 311.098785,880.012146 299.868195,872.706177   C167.690826,786.719116 78.877998,669.081360 39.681721,515.410339   C30.352680,478.835388 25.637541,441.537048 23.856829,402.945404   C23.731728,372.366882 23.642130,342.696045 23.665947,312.567749   C23.770033,306.082977 23.760704,300.055664 23.751377,294.028381  M499.662659,291.956421   C500.466278,291.322266 501.269867,290.688110 502.012573,289.998505   C502.012573,289.998505 502.046539,290.073456 502.786133,289.857391   C503.471313,288.502380 504.718628,287.160034 504.749481,285.790283   C504.935150,277.545502 504.892670,269.293732 504.783386,261.046204   C504.768219,259.901520 503.962402,258.767273 503.429169,257.568939   C503.429169,257.568939 503.377716,257.471008 503.076447,256.912933   C498.485291,252.326950 493.959015,247.672623 489.254578,243.205963   C488.160034,242.166748 486.465240,241.179214 485.036133,241.164108   C472.890472,241.035675 460.741974,241.101807 448.596039,241.251404   C447.788239,241.261337 446.994690,242.429901 446.288361,243.990372   C446.541412,246.798752 447.010529,249.606812 447.014618,252.415558   C447.064941,287.041382 447.047363,321.667328 447.047302,356.293243   C447.047302,358.046112 447.047302,359.798950 447.047302,361.329315   C454.142883,361.329315 460.539185,361.329315 467.064514,361.329315   C467.064514,345.293274 467.064514,329.656708 467.470093,313.785858   C467.713348,313.578674 467.892975,313.326263 468.572845,312.897186   C469.026306,312.543427 469.479767,312.189667 470.398529,311.731842   C470.680542,311.559326 470.882446,311.319397 471.740845,310.896820   C474.342499,314.193359 476.854553,317.565796 479.566162,320.769257   C483.967072,325.968353 485.647766,331.756287 485.149109,338.641693   C484.602325,346.191956 485.024628,353.812347 485.024628,361.414795   C491.894531,361.414795 498.145325,361.414795 504.885132,361.414795   C504.885132,348.232727 504.978424,335.313812 504.759094,322.400238   C504.733612,320.898590 502.976929,319.426392 501.902618,317.492523   C501.760010,317.192413 501.527954,317.000458 500.997986,316.299011   C500.018433,315.150116 499.038879,314.001251 497.824738,312.228973   C494.708862,308.187866 491.592987,304.146759 488.296875,299.871918   C491.075439,297.799316 493.557587,295.947784 496.650879,293.963043   C497.461639,293.329559 498.272369,292.696045 499.013672,292.002380   C499.013672,292.002380 499.053986,292.084961 499.662659,291.956421  M197.809906,219.046234   C198.328629,218.398331 198.847351,217.750412 199.914871,216.867706   C200.977890,215.699997 202.040924,214.532288 203.691559,212.969513   C203.816483,212.304230 203.941406,211.638947 204.234146,210.068207   C204.170822,206.380859 204.107498,202.693497 204.209778,198.486893   C204.168884,197.798096 204.128006,197.109299 204.038330,195.598206   C202.700211,197.174957 201.912537,198.103104 200.544434,199.325195   C199.373962,200.594177 198.203491,201.863159 196.506317,203.433609   C196.069962,205.281326 195.633591,207.129059 194.937149,209.793991   C192.702744,210.225403 190.444672,210.998566 188.250702,210.846527   C187.706375,210.808823 187.017029,207.779175 186.995865,206.117172   C186.875351,196.653580 187.030640,187.186172 186.883148,177.723343   C186.835007,174.633698 187.590393,173.203445 191.012589,173.207947   C194.578720,173.212646 195.153915,174.947632 194.987747,177.891617   C194.826691,180.744781 194.952805,183.614166 194.952805,187.747025   C198.566986,183.773575 201.208618,180.869354 204.103790,177.509857   C204.073181,177.338882 204.042572,177.167892 204.175171,176.206161   C204.115479,175.137283 204.055786,174.068390 203.964554,172.317017   C201.802490,170.054382 199.754303,167.662415 197.414276,165.601868   C196.634033,164.914810 195.106613,165.076248 193.044617,164.910446   C190.696472,164.939774 188.348328,164.969086 185.299042,164.816528   C182.212814,167.754120 177.257050,169.346848 177.833160,175.941254   C177.899170,187.962234 177.965179,199.983200 178.071686,212.667191   C179.344864,213.909271 180.618027,215.151352 182.103760,216.912292   C182.936340,217.644379 183.768921,218.376465 185.057571,219.799927   C189.205368,221.212784 193.334396,222.215134 197.114731,219.147583   C197.114731,219.147583 197.236084,219.295013 197.809906,219.046234  M272.990448,219.015839   C272.990448,219.015839 272.902374,219.064163 273.193420,219.793610   C276.724854,220.235397 280.256317,220.677200 284.170593,221.166885   C284.465118,218.140137 284.666656,216.069031 285.098511,213.225342   C287.488861,196.861053 289.879211,180.496780 292.284210,164.032104   C288.706970,164.032104 285.934784,164.032104 282.926880,164.032104   C281.136475,178.497528 279.374756,192.731201 277.613037,206.964890   C277.268707,206.977859 276.924377,206.990845 276.580048,207.003830   C274.687836,192.696030 272.795654,178.388229 270.917297,164.185181   C267.539246,164.185181 264.786072,164.185181 261.641266,164.185181   C263.892426,180.498230 266.052399,196.471878 268.379333,212.421188   C268.571686,213.739578 269.895721,214.892853 270.898499,216.722565   C271.575958,217.513962 272.253448,218.305359 272.990448,219.015839  M100.582390,312.587097   C100.582390,312.587097 100.494148,312.628967 99.930351,312.929413   C94.966362,318.287292 90.002380,323.645172 84.842018,329.797699   C84.674522,331.262756 84.379219,332.726227 84.360573,334.193176   C84.251060,342.809479 84.272812,342.809753 75.694000,342.806274   C74.696899,342.805878 73.699783,342.807831 72.702690,342.804230   C69.421783,342.792297 67.885887,341.127167 67.883240,337.864746   C67.864098,314.267334 67.779480,290.669708 67.890198,267.072998   C67.897377,265.542633 68.970375,263.458527 70.214813,262.606384   C73.006691,260.694641 81.900993,262.512115 84.287872,265.977966   C84.287872,274.274902 84.287872,282.571869 84.287872,292.052734   C85.757919,290.358124 86.367249,289.655701 87.587067,288.691559   C92.386429,283.888397 97.218590,279.117432 101.973183,274.270355   C104.955658,271.229889 105.203445,260.743988 102.278473,257.806854   C97.611191,253.120285 92.793030,248.583954 87.635002,243.298813   C80.039925,243.142273 72.445023,242.972290 64.849182,242.878036   C64.543991,242.874237 64.229912,243.587097 63.341698,244.286102   C58.883862,248.832367 54.426025,253.378632 49.322826,258.275543   C48.788441,260.254639 47.792080,262.233215 47.790020,264.212860   C47.765137,288.139618 48.126431,312.069641 47.813343,335.991302   C47.728157,342.499939 49.476452,347.082703 54.229805,351.589203   C66.738747,363.448517 66.529305,363.708740 83.693634,362.696564   C85.163681,362.609863 86.578857,361.592743 88.595451,360.679565   C93.399147,355.791779 98.202850,350.903961 103.565376,345.712311   C103.748390,345.137146 103.931404,344.562012 104.232193,343.057129   C104.169830,333.375885 104.107460,323.694672 104.225082,313.427948   C104.082138,312.247864 103.939201,311.067780 103.635017,308.556580   C102.082146,310.573669 101.343666,311.532898 100.582390,312.587097  M411.993225,287.956970   C411.993225,287.956970 412.034271,287.987762 411.738831,287.090149   C411.632599,278.703278 411.526367,270.316437 411.773254,261.777588   C411.773254,261.777588 411.865143,261.404297 412.724609,261.389221   C415.149109,261.257751 417.573578,261.126282 420.924072,261.115692   C425.616364,261.082977 430.308685,261.050262 435.855286,261.038025   C436.319580,254.604706 436.783875,248.171402 437.281860,241.271301   C421.615662,241.271301 407.000885,241.248093 392.387543,241.385925   C391.959595,241.389954 391.547638,243.092773 391.089233,244.510284   C391.145142,244.670227 391.201019,244.830170 391.162262,245.627441   C391.392456,246.437637 391.622650,247.247833 391.773285,248.985352   C391.773285,286.509003 391.773285,324.032654 391.773285,361.480255   C407.321442,361.480255 422.028900,361.480255 436.661499,361.480255   C436.661499,354.794800 436.661499,348.545105 436.661499,342.002167   C428.224976,342.002167 420.107574,342.002167 411.830383,341.075806   C411.951691,329.065338 412.072998,317.054871 413.098236,305.181793   C418.382843,305.194580 423.670685,305.304962 428.948914,305.127777   C429.869263,305.096924 430.748932,303.854462 431.827087,302.369904   C431.776489,299.251434 431.725861,296.132996 431.825195,292.222229   C431.216217,290.824402 430.607208,289.426544 429.068390,287.915680   C423.390594,287.919495 417.712799,287.923340 411.993225,287.956970  M516.928040,290.033844   C517.571594,290.463562 518.215149,290.893311 519.237488,291.855255   C526.870239,297.981201 534.041199,304.837158 542.260193,310.036377   C551.228394,315.709534 554.288269,322.801666 553.164734,333.085449   C552.293823,341.058624 552.730103,341.379089 544.480896,341.613892   C543.901062,341.630371 543.368530,342.299591 542.759521,342.465546   C538.648438,343.585510 535.278076,341.087585 535.088623,336.679535   C534.960449,333.697998 534.726196,330.658447 535.140869,327.730011   C535.859924,322.652100 534.010376,319.480927 528.744202,317.456085   C527.194031,316.591705 525.643860,315.727325 524.018372,314.973419   C524.018372,314.973419 524.125671,314.893616 523.731812,314.348389   C521.037659,312.704712 518.343506,311.061035 515.858704,309.545074   C515.858704,321.399567 515.858704,332.726990 516.119263,344.685242   C521.362366,349.808044 526.605408,354.930847 532.259033,360.727234   C539.677551,360.989380 547.095154,361.303802 554.515991,361.438751   C555.324280,361.453461 556.277039,360.556427 556.948608,359.872131   C560.434753,356.319977 563.851440,352.699554 567.844849,348.849854   C568.929993,347.661316 570.015198,346.472778 571.804810,344.876831   C572.160400,344.159149 572.822449,343.442780 572.825500,342.723602   C572.871765,331.967529 572.872070,321.210571 572.736023,310.455688   C572.724548,309.551086 571.659485,308.659821 570.907410,307.342682   C570.696899,307.095215 570.429138,306.968994 569.745911,306.422974   C568.520386,305.549683 567.294922,304.676392 565.878540,303.375397   C565.656006,303.130615 565.379517,303.000000 564.704163,302.439056   C563.492004,301.562073 562.279785,300.685089 560.870972,299.381165   C560.647156,299.136261 560.369690,299.004944 559.697021,298.442108   C558.485657,297.568237 557.274292,296.694366 555.860596,295.388885   C555.632629,295.140839 555.350403,295.009705 554.671997,294.468414   C553.816040,293.878815 552.960022,293.289215 551.761902,292.143433   C547.742554,288.933868 543.884644,285.489105 539.654785,282.586212   C536.007141,280.082764 534.783081,277.136261 534.816956,272.694641   C534.912537,260.179260 534.469727,260.898865 547.461121,260.887634   C551.189636,260.884399 553.434814,262.719543 552.723633,266.341431   C550.804504,276.115997 555.164368,281.923553 563.804504,285.423859   C564.866272,285.853973 565.834961,286.514008 567.268616,287.600006   C568.896118,288.610474 570.523682,289.620941 572.751770,291.004333   C572.751770,280.116882 572.785828,269.964966 572.687256,259.814362   C572.679382,258.999939 571.757935,258.194397 570.929504,256.848328   C566.146362,252.150467 561.363220,247.452621 556.114563,242.044083   C548.301147,241.776459 540.488464,241.472305 532.672791,241.319031   C532.120605,241.308212 531.546692,242.409012 530.407715,243.322678   C525.937012,247.878174 521.466309,252.433670 516.305542,257.415192   C515.884277,258.451935 515.107727,259.485168 515.097473,260.525909   C515.010803,269.346405 515.028015,278.168732 515.135315,286.989044   C515.145081,287.791962 516.002319,288.584595 516.564392,289.439331   C516.564392,289.439331 516.624634,289.535980 516.928040,290.033844  M323.007965,342.011505   C323.007965,342.011505 322.976410,342.009033 322.946320,341.070831   C322.910339,309.575348 322.900940,278.079742 322.759613,246.584732   C322.752533,245.015839 321.599487,243.452087 320.057831,241.730331   C314.709381,241.793900 309.360901,241.857468 303.266479,241.792450   C303.152771,243.205353 303.039032,244.618240 302.877289,246.963837   C302.877289,285.178802 302.877289,323.393799 302.877289,361.273254   C304.087769,361.725250 304.388824,361.935364 304.690430,361.936127   C315.006561,361.962372 325.323425,362.049774 335.638733,361.959076   C350.941162,361.824524 350.940674,361.769958 352.390472,345.053009   C353.344482,341.469360 350.656189,342.255066 348.867249,342.232025   C340.241089,342.120850 331.613861,342.093109 323.007965,342.011505  M258.145050,218.170059   C258.082458,216.777084 258.019867,215.384109 258.035828,213.487366   C257.941193,213.346222 257.846527,213.205078 257.640747,212.331055   C254.263916,212.037750 250.887070,211.744431 246.815979,211.390823   C246.815979,206.171082 246.815979,200.341507 246.815979,194.190079   C249.664398,194.013535 252.703751,193.825150 255.613525,193.644806   C255.613525,190.866089 255.613525,188.596512 255.613525,186.106293   C252.440872,185.967697 249.522369,185.840195 246.420197,185.704666   C246.420197,181.426254 246.420197,177.516312 246.420197,173.416779   C248.092834,173.236710 249.550201,173.079803 251.799057,173.044876   C253.556305,172.214508 256.761902,175.072372 257.124298,170.114655   C257.150177,168.768051 257.176086,167.421463 257.819916,165.666016   C256.549774,165.144516 255.279648,164.623001 253.089767,163.928253   C248.390411,163.985382 243.691040,164.042511 238.204147,163.930832   C237.548660,164.223831 236.316666,164.523605 236.320038,164.808853   C236.530930,182.753403 236.838028,200.696869 237.163849,218.639923   C237.174988,219.252502 237.465836,219.860001 237.689987,220.711899   C243.968491,220.711899 250.102066,220.759567 256.232269,220.637115   C256.835999,220.625046 257.418915,219.569977 258.145050,218.170059  M415.098785,166.909042   C415.150299,183.926544 415.201843,200.944061 415.104523,218.833206   C416.166534,219.297745 417.215698,220.124924 418.292816,220.163132   C422.614594,220.316376 426.945404,220.261841 431.272125,220.214493   C435.997070,220.162781 442.188477,214.132874 442.216980,209.406067   C442.287140,197.756241 442.271667,186.105637 442.229218,174.455566   C442.216827,171.063553 435.615692,163.468216 432.283447,163.314972   C427.134796,163.078140 421.964142,163.157913 416.812988,163.360947   C416.226654,163.384048 415.705444,165.059845 415.098785,166.909042  M409.984070,208.056595   C409.984070,193.449951 409.984070,178.843292 409.984070,163.019669   C406.447113,163.796936 403.678680,164.405319 400.773163,165.941177   C400.773163,173.986221 400.773163,182.031250 400.773163,190.076294   C397.842468,183.419617 395.733276,176.562408 393.592896,169.714951   C391.488586,162.982986 390.232788,162.330811 383.151062,164.267944   C383.151062,173.166138 383.151062,182.091873 383.045441,191.947235   C383.063538,200.232422 383.009247,208.519150 383.184784,216.800980   C383.208710,217.929779 384.380402,219.034241 385.865936,220.265427   C387.567749,220.211105 389.269562,220.156769 391.613556,220.098251   C391.755493,219.728363 391.897430,219.358475 392.183533,218.061844   C392.183533,209.338516 392.183533,200.615204 392.183533,191.891876   C395.105164,198.898270 397.188812,206.101410 399.265808,213.306442   C401.504425,221.071869 401.501740,221.072647 409.838531,219.761658   C409.838531,216.184174 409.838531,212.582855 409.984070,208.056595  M361.373260,247.985672   C361.456940,249.968430 361.603851,251.950867 361.614594,253.934006   C361.735901,276.299377 361.836273,298.664825 361.754791,321.948273   C361.820709,329.624481 361.886627,337.300659 361.756683,345.660522   C361.756683,350.927032 361.756683,356.193542 361.756683,361.571411   C368.714233,361.571411 374.938171,361.571411 381.112671,361.571411   C381.112671,321.435852 381.112671,281.582153 381.112671,241.825989   C373.906281,241.825989 367.163422,241.825989 360.090698,241.825989   C360.479279,243.137833 360.753143,244.062363 360.914551,245.517014   C361.061035,246.027298 361.207520,246.537582 361.373260,247.985672  M173.698227,362.093292   C173.864517,361.704102 174.030807,361.314911 174.232971,360.052460   C171.309982,340.119812 168.429825,320.180786 165.451569,300.256409   C162.646515,281.490814 159.738037,262.740692 156.907516,243.309341   C156.283066,242.911652 155.660583,242.171310 155.033859,242.167694   C145.769577,242.114212 136.504059,242.229904 127.240372,242.142136   C123.865807,242.110168 124.350945,243.906815 124.939766,246.902649   C124.935753,248.724533 125.143822,250.575836 124.895927,252.363907   C121.152336,279.367096 117.341103,306.360870 113.563583,333.359344   C112.240570,342.815063 110.965866,352.277557 109.641052,361.941528   C116.586777,361.941528 122.840858,361.941528 129.387863,361.941528   C130.399567,354.114380 131.389816,346.453156 132.359222,338.953217   C139.124573,338.953217 145.349655,338.953217 151.559006,338.953217   C152.499710,345.240417 153.381866,351.136261 154.185059,357.795807   C154.794037,359.220978 155.403000,360.646179 156.935944,362.220062   C162.282776,362.171783 167.629623,362.123535 173.698227,362.093292  M422.390198,427.595306   C392.431915,419.131195 363.108887,423.381622 333.229584,432.037415   C287.126160,445.845734 245.510147,468.543274 206.104767,495.767395   C193.736435,504.312317 182.963821,513.958740 175.821472,527.486206   C171.982330,534.757385 167.007431,541.428955 161.966507,549.271057   C172.664459,546.644348 182.232620,544.295044 192.802246,541.699829   C191.065720,544.083557 190.010986,545.548157 188.939133,547.000122   C174.933792,565.972107 164.081863,586.307983 160.486160,610.039978   C155.044464,645.955688 176.669479,676.324219 212.686005,682.321045   C248.870117,688.991089 282.760254,680.181763 316.744354,666.954407   C353.178192,652.256653 386.334686,632.119263 416.372406,606.831238   C417.976807,605.480530 420.072540,603.856262 420.454285,602.046082   C423.468292,587.752991 426.121033,573.383667 429.047943,558.191711   C422.689606,561.692200 417.237091,565.246216 411.360962,567.840820   C367.774200,587.087219 323.405487,604.248596 277.317657,616.605286   C266.370117,619.540405 255.212601,621.422485 243.729172,619.604736   C239.004318,618.856812 237.152405,616.196228 238.233170,611.997192   C239.674942,606.395508 240.955795,600.458252 243.849960,595.581543   C251.476379,582.730835 259.386505,569.974609 268.172241,557.900085   C291.197876,526.254944 319.722931,500.990143 355.800659,484.874664   C363.877289,481.266907 372.147827,478.639709 382.352448,478.000122   C372.410797,498.184052 362.898651,517.496033 353.104889,537.379761   C354.659790,537.211487 355.046997,537.277527 355.307770,537.126038   C390.133514,516.890381 424.960846,496.657227 459.718353,476.304962   C460.853241,475.640442 461.866364,473.777802 461.921997,472.431763   C462.162506,466.611542 462.101746,460.773926 461.962280,454.947144   C461.933746,453.755005 461.385315,452.317291 460.585510,451.440796   C450.258545,440.123199 437.876648,432.047485 422.390198,427.595306  M236.751678,322.138580   C234.795914,335.354340 232.840164,348.570099 230.870270,361.881287   C237.872223,361.881287 244.121338,361.881287 250.643219,361.881287   C251.478683,355.062164 252.180054,348.469177 253.178329,341.921478   C253.378143,340.610870 254.653793,338.466644 255.528061,338.418274   C261.253815,338.101562 267.005554,338.255157 272.764465,338.255157   C273.909790,346.606232 274.944916,354.153992 275.997620,361.829926   C282.712769,361.829926 289.125153,361.829926 295.934540,361.829926   C289.969360,321.641846 284.053131,281.783142 278.185883,242.254669   C267.057343,242.254669 256.707703,242.254669 247.309540,242.254669   C245.569443,269.184509 240.075363,295.084900 236.751678,322.138580  M224.412155,313.995728   C227.814484,290.144012 231.216812,266.292328 234.663773,242.127731   C227.925751,242.127731 221.516205,242.127731 214.796951,242.127731   C210.818283,274.355042 206.857712,306.435913 202.897141,338.516785   C202.640991,338.510254 202.384842,338.503693 202.128708,338.497162   C197.912247,306.395813 193.695786,274.294464 189.484787,242.234650   C182.706497,242.234650 176.443527,242.234650 170.236816,242.234650   C170.107544,242.803101 169.940231,243.125931 169.980469,243.420395   C174.641724,277.542053 178.893570,311.730408 184.400558,345.715363   C185.349609,351.572174 191.621719,356.573792 195.490295,361.930481   C195.703918,362.226318 196.426392,362.239655 196.912430,362.240997   C203.693085,362.259949 210.473801,362.253845 217.549881,362.253845   C219.833969,346.104034 222.042938,330.485291 224.412155,313.995728  M352.048462,202.405869   C351.229126,208.283691 350.409821,214.161514 349.546783,220.353241   C352.933624,220.353241 355.694550,220.353241 358.666077,220.353241   C359.238220,216.761292 359.779999,213.359970 360.307159,210.050461   C368.727386,208.332077 369.108917,208.571899 370.188171,216.048950   C370.283234,216.707443 370.357422,217.374725 370.525085,218.016006   C371.635254,222.261536 375.101196,220.426346 377.557709,220.344223   C378.326904,220.318527 379.801453,217.640381 379.614960,216.373337   C377.168030,199.749603 374.530426,183.152908 371.749237,166.581573   C371.552612,165.409958 369.932953,163.704819 368.840881,163.596207   C365.100433,163.224152 361.300232,163.453491 357.568481,163.453491   C355.690826,176.546463 353.899902,189.034729 352.048462,202.405869  M309.255310,185.590744   C308.108826,184.634277 306.139526,183.801483 305.973602,182.697632   C305.516937,179.659134 305.815857,176.507065 305.815857,172.971283   C309.950928,172.971283 313.529877,172.971283 317.276062,172.971283   C317.276062,169.654694 317.276062,166.800125 317.276062,163.922546   C309.990204,163.922546 303.089172,163.922546 296.401733,163.922546   C296.401733,182.926590 296.401733,201.641174 296.401733,220.423279   C303.699982,220.423279 310.574615,220.423279 317.360077,220.423279   C317.360077,217.160995 317.360077,214.293472 317.360077,210.982391   C313.343414,210.982391 309.757111,210.982391 306.097290,210.982391   C306.097290,205.125519 306.097290,199.727570 306.097290,194.084396   C309.149719,193.949173 311.922058,193.826355 314.912231,193.693878   C314.912231,190.984634 314.912231,188.431061 314.912231,185.591919   C313.117432,185.591919 311.641937,185.591919 309.255310,185.590744  M331.596619,164.268005   C328.533813,164.031754 325.471008,163.795502 322.819641,163.590988   C322.819641,182.941895 322.819641,201.669373 322.819641,220.303940   C330.373413,220.303940 337.314728,220.303940 344.583252,220.303940   C344.970245,217.177567 345.324158,214.318344 345.739655,210.961594   C341.024292,210.961594 336.618347,210.961594 331.796173,210.961594   C331.796173,195.375839 331.796173,180.249832 331.596619,164.268005  M218.692841,195.497742   C218.692841,185.080353 218.692841,174.662964 218.692841,164.267899   C215.057480,164.267899 212.150864,164.267899 209.516937,164.267899   C209.516937,183.246506 209.516937,201.923843 209.516937,220.513672   C217.028519,220.513672 224.063629,220.513672 230.959488,220.513672   C231.510620,217.336273 231.990341,214.570496 232.562027,211.274490   C227.803299,211.274490 223.551361,211.274490 218.692551,211.274490   C218.692551,206.047684 218.692551,201.272324 218.692841,195.497742  z"/>
<path fill="#CEAD67" opacity="1.000000" stroke="none" d=" M23.552534,313.025238   C23.642130,342.696045 23.731728,372.366882 23.754135,402.496643   C23.124424,401.251404 22.077736,399.548950 22.071619,397.842773   C21.971367,369.876343 22.002434,341.909454 22.264629,313.475494   C22.867708,313.013947 23.210121,313.019592 23.552534,313.025238  z"/>
<path fill="#C8A864" opacity="1.000000" stroke="none" d=" M597.242249,326.751526   C596.666260,315.674805 596.407166,304.316895 596.193542,292.494446   C596.816284,292.715118 597.897583,293.401733 597.895691,294.085327   C597.865601,304.880554 597.696411,315.675415 597.242249,326.751526  z"/>
<path fill="#C5A663" opacity="1.000000" stroke="none" d=" M596.281860,278.723297   C595.656128,271.654694 595.337402,264.299316 595.074646,256.480103   C595.749878,256.815002 596.902832,257.612579 596.904602,258.412720   C596.919373,265.087067 596.722107,271.761871 596.281860,278.723297  z"/>
<path fill="#C5A663" opacity="1.000000" stroke="none" d=" M23.665947,312.567749   C23.210121,313.019592 22.867708,313.013947 22.268667,313.007202   C22.341946,306.754852 22.671852,300.503571 23.376568,294.140320   C23.760704,300.055664 23.770033,306.082977 23.665947,312.567749  z"/>
<path fill="#C5A663" opacity="1.000000" stroke="none" d=" M595.268066,245.732147   C594.639648,239.991257 594.321350,233.965637 594.062500,227.477875   C594.743896,227.810242 595.897766,228.601913 595.902039,229.399765   C595.930725,234.748245 595.714783,240.098053 595.268066,245.732147  z"/>
<path fill="#C5A663" opacity="1.000000" stroke="none" d=" M594.310791,220.704834   C593.679382,215.973831 593.347046,210.952377 593.074219,205.473862   C593.752869,205.840317 594.891846,206.656479 594.903564,207.488571   C594.964294,211.794922 594.736816,216.105362 594.310791,220.704834  z"/>
<path fill="#C8A864" opacity="1.000000" stroke="none" d=" M596.618835,412.857727   C596.411377,407.604218 596.578613,402.238617 596.849854,396.426971   C596.967041,401.569153 596.980286,407.157379 596.618835,412.857727  z"/>
<path fill="#C5A663" opacity="1.000000" stroke="none" d=" M27.493538,180.765930   C27.558695,185.032013 27.405087,189.101074 27.138252,193.589874   C26.744585,189.363419 26.463154,184.717316 26.199160,180.070206   C26.196764,180.028046 26.481884,179.895508 26.540419,179.936630   C26.803461,180.121414 27.033094,180.353760 27.493538,180.765930  z"/>
<path fill="#C5A663" opacity="1.000000" stroke="none" d=" M593.300293,199.713547   C592.671997,195.965881 592.343079,191.932480 592.071167,187.457642   C592.755066,189.084366 593.669128,191.117584 593.926270,193.230728   C594.172485,195.253220 593.736023,197.358765 593.300293,199.713547  z"/>
<path fill="#C5A663" opacity="1.000000" stroke="none" d=" M592.304321,182.717957   C591.680786,179.952057 591.351013,176.908310 591.085205,173.441315   C594.826050,175.667618 592.531128,179.235458 592.304321,182.717957  z"/>
<path fill="#C5A663" opacity="1.000000" stroke="none" d=" M591.226807,168.790085   C590.628113,167.279541 590.322449,165.532837 590.074524,163.401199   C590.594788,164.862152 591.057312,166.708023 591.226807,168.790085  z"/>
<path fill="#C5A663" opacity="1.000000" stroke="none" d=" M590.306946,158.724365   C589.684814,157.129120 589.354492,155.263916 589.109985,153.056046   C589.663452,154.627045 590.131104,156.540726 590.306946,158.724365  z"/>
<path fill="#C5A663" opacity="1.000000" stroke="none" d=" M23.904551,274.093140   C24.215853,274.701355 24.242031,275.483154 24.175045,276.647858   C23.927731,276.109406 23.773579,275.188080 23.904551,274.093140  z"/>
<path fill="#C5A663" opacity="1.000000" stroke="none" d=" M24.882565,240.087280   C25.159090,240.412918 25.186251,240.874054 25.113752,241.669876   C24.887129,241.410629 24.760166,240.816711 24.882565,240.087280  z"/>
<path fill="#C5A663" opacity="1.000000" stroke="none" d=" M25.891073,213.083435   C26.166750,213.409851 26.191862,213.872192 26.117966,214.670349   C25.892809,214.410553 25.766659,213.814941 25.891073,213.083435  z"/>
<path fill="#B4975A" opacity="1.000000" stroke="none" d=" M212.010620,681.971863   C176.669479,676.324219 155.044464,645.955688 160.486160,610.039978   C164.081863,586.307983 174.933792,565.972107 188.939133,547.000122   C190.010986,545.548157 191.065720,544.083557 192.802246,541.699829   C182.232620,544.295044 172.664459,546.644348 161.966507,549.271057   C167.007431,541.428955 171.982330,534.757385 175.821472,527.486206   C182.963821,513.958740 193.736435,504.312317 206.104767,495.767395   C245.510147,468.543274 287.126160,445.845734 333.862244,432.299255   C335.295929,432.662537 336.134674,432.971924 336.892334,432.834534   C349.506744,430.546722 362.028687,427.214142 374.741180,426.155640   C386.952423,425.138885 399.361206,426.391235 411.677826,426.805542   C415.461517,426.932800 419.227570,427.583984 423.001709,427.995270   C437.876648,432.047485 450.258545,440.123199 460.585510,451.440796   C461.385315,452.317291 461.933746,453.755005 461.962280,454.947144   C462.101746,460.773926 462.162506,466.611542 461.921997,472.431763   C461.866364,473.777802 460.853241,475.640442 459.718353,476.304962   C424.960846,496.657227 390.133514,516.890381 355.307770,537.126038   C355.046997,537.277527 354.659790,537.211487 353.104889,537.379761   C362.898651,517.496033 372.410797,498.184052 382.352448,478.000122   C372.147827,478.639709 363.877289,481.266907 355.800659,484.874664   C319.722931,500.990143 291.197876,526.254944 268.172241,557.900085   C259.386505,569.974609 251.476379,582.730835 243.849960,595.581543   C240.955795,600.458252 239.674942,606.395508 238.233170,611.997192   C237.152405,616.196228 239.004318,618.856812 243.729172,619.604736   C255.212601,621.422485 266.370117,619.540405 277.317657,616.605286   C323.405487,604.248596 367.774200,587.087219 411.360962,567.840820   C417.237091,565.246216 422.689606,561.692200 429.047943,558.191711   C426.121033,573.383667 423.468292,587.752991 420.454285,602.046082   C420.072540,603.856262 417.976807,605.480530 416.372406,606.831238   C386.334686,632.119263 353.178192,652.256653 316.157227,666.727600   C308.831116,668.655945 302.190277,671.215210 295.332275,672.880127   C282.025238,676.110840 268.707855,679.650757 255.181412,681.512329   C244.805313,682.940308 234.101898,682.009705 223.543747,682.084595   C219.699829,682.111816 215.855026,682.013123 212.010620,681.971863  M234.986359,506.984863   C234.986359,506.984863 235.025742,507.020630 234.801590,507.651703   C223.023712,520.776855 210.551315,533.353149 199.638916,547.162170   C185.097717,565.563354 173.337982,585.561523 170.438736,609.682983   C168.589645,625.067322 175.869080,641.427124 188.970428,649.599976   C201.135391,657.188782 214.695831,659.590088 228.606583,659.743896   C250.462677,659.985718 271.524261,655.188660 292.070404,648.006042   C331.011322,634.393005 365.686127,613.196716 398.174133,588.145264   C401.991730,585.201538 405.622101,582.014954 409.339294,578.940918   C409.087585,578.541626 408.835907,578.142273 408.584198,577.742981   C407.090729,578.285583 405.566315,578.755981 404.108307,579.381287   C367.981873,594.874878 331.318634,608.925720 293.630981,620.176575   C277.161011,625.093323 260.478546,628.862488 243.082001,627.962036   C224.364960,626.993286 215.089478,615.187073 219.665466,597.041687   C221.642517,589.201965 224.280975,581.234131 228.232666,574.235596   C252.812759,530.703125 284.674042,494.001495 329.164215,469.632385   C342.654602,462.243134 356.672211,456.090485 372.215149,454.516449   C383.624146,453.361084 394.152496,458.075653 390.920197,473.279480   C389.514160,479.892975 386.793488,486.226929 384.323273,493.070984   C384.350586,493.315125 384.377899,493.559235 384.405212,493.803375   C384.735687,493.682953 385.066162,493.562561 386.088196,493.305511   C407.569489,480.142609 429.050751,466.979706 450.632568,453.755188   C444.285950,445.928009 430.381500,438.224976 417.306580,434.980804   C394.599487,429.346710 372.007477,431.319000 349.622742,436.657166   C301.158630,448.214478 257.841309,470.958588 216.873795,498.619751   C209.132843,503.846436 201.749435,509.602631 194.201035,515.114502   C196.841766,515.579468 198.885559,515.004028 200.954178,514.539124   C212.282898,511.993011 223.617676,509.473969 234.986359,506.984863  M410.796417,577.494446   C410.561340,577.472290 410.326263,577.450134 410.091187,577.428040   C410.198822,577.544189 410.306458,577.660278 410.796417,577.494446  z"/>
<path fill="#B4975A" opacity="1.000000" stroke="none" d=" M236.804291,321.699829   C240.075363,295.084900 245.569443,269.184509 247.309540,242.254669   C256.707703,242.254669 267.057343,242.254669 278.185883,242.254669   C284.053131,281.783142 289.969360,321.641846 295.934540,361.829926   C289.125153,361.829926 282.712769,361.829926 275.997620,361.829926   C274.944916,354.153992 273.909790,346.606232 272.764465,338.255157   C267.005554,338.255157 261.253815,338.101562 255.528061,338.418274   C254.653793,338.466644 253.378143,340.610870 253.178329,341.921478   C252.180054,348.469177 251.478683,355.062164 250.643219,361.881287   C244.121338,361.881287 237.872223,361.881287 230.870270,361.881287   C232.840164,348.570099 234.795914,335.354340 236.804291,321.699829  M265.945862,285.506226   C265.053497,278.624176 264.161163,271.742157 263.268829,264.860107   C262.989716,264.903656 262.710602,264.947205 262.431458,264.990753   C260.281189,282.578918 258.130920,300.167084 255.963806,317.892944   C260.952332,317.892944 265.348114,317.892944 270.079987,317.892944   C268.699982,307.143860 267.367889,296.767853 265.945862,285.506226  z"/>
<path fill="#B4975A" opacity="1.000000" stroke="none" d=" M154.264038,357.032074   C153.381866,351.136261 152.499710,345.240417 151.559006,338.953217   C145.349655,338.953217 139.124573,338.953217 132.359222,338.953217   C131.389816,346.453156 130.399567,354.114380 129.387863,361.941528   C122.840858,361.941528 116.586777,361.941528 109.641052,361.941528   C110.965866,352.277557 112.240570,342.815063 113.563583,333.359344   C117.341103,306.360870 121.152336,279.367096 124.895927,252.363907   C125.143822,250.575836 124.935753,248.724533 125.288025,246.221527   C127.265892,245.026535 128.888306,244.096573 130.526337,244.068207   C139.307098,243.916153 148.091751,243.988770 156.875061,243.983749   C159.738037,262.740692 162.646515,281.490814 165.451569,300.256409   C168.429825,320.180786 171.309982,340.119812 173.944489,360.602081   C173.429474,361.459564 173.202957,361.767426 172.976440,362.075287   C167.629623,362.123535 162.282776,362.171783 156.482285,361.757568   C155.440430,359.874084 154.852234,358.453094 154.264038,357.032074  M137.957840,291.321442   C137.207657,297.592377 136.565765,303.878540 135.684067,310.130951   C134.011581,321.991180 134.207397,319.445190 144.513443,319.805481   C147.703079,319.917023 148.995300,318.990173 148.520370,315.471619   C146.408203,299.823395 144.528076,284.143921 142.533035,268.479675   C142.388153,267.341980 141.995941,266.235748 141.372345,263.714478   C140.142334,273.616577 139.098648,282.018799 137.957840,291.321442  z"/>
<path fill="#B4975A" opacity="1.000000" stroke="none" d=" M468.009033,313.028595   C467.892975,313.326263 467.713348,313.578674 466.864685,313.980896   C465.839966,315.827393 465.076508,317.474945 465.057648,319.130951   C464.944092,329.104034 465.001251,339.079071 465.001251,349.053436   C465.001221,360.105499 464.999359,359.949097 454.032684,360.077332   C450.190857,360.122284 448.925354,359.134552 448.908325,355.084503   C448.750946,317.724274 448.367950,280.364990 448.513947,242.993713   C455.784668,242.979324 462.680420,243.673004 469.380219,242.822601   C481.653290,241.264771 491.305237,244.739731 498.579163,254.901108   C499.526520,256.224579 501.746948,256.636749 503.377716,257.471008   C503.377716,257.471008 503.429169,257.568939 503.324402,258.082275   C503.155121,261.062775 503.117432,263.530975 503.021149,265.996948   C502.707825,274.022919 502.373077,282.048004 502.046570,290.073456   C502.046539,290.073456 502.012573,289.998505 501.680420,290.016144   C500.583527,290.717499 499.818756,291.401215 499.053986,292.084961   C499.053986,292.084961 499.013672,292.002380 498.683899,292.019897   C497.582642,292.723694 496.811157,293.409943 496.039703,294.096252   C493.557587,295.947784 491.075439,297.799316 488.296875,299.871918   C491.592987,304.146759 494.708862,308.187866 497.930359,312.924500   C499.092804,314.718903 500.149597,315.817780 501.206421,316.916656   C501.527954,317.000458 501.760010,317.192413 501.965881,318.143616   C502.355194,328.742462 502.831146,338.688141 502.968597,348.638489   C503.132812,360.524475 503.010315,360.419403 490.921021,360.080994   C487.828003,359.994385 486.886536,358.949005 486.946014,355.971222   C487.095673,348.479462 487.070496,340.981384 486.941711,333.488800   C486.908508,331.556061 486.714752,329.347504 485.767548,327.758881   C482.285614,321.918976 478.523407,316.240814 474.717316,310.602600   C473.516327,308.823456 471.905396,307.857727 471.004242,311.012054   C470.882446,311.319397 470.680542,311.559326 469.978271,311.578613   C469.041687,311.959778 468.525360,312.494202 468.009033,313.028595  M474.943970,288.466522   C483.714722,284.544159 486.687042,277.721008 484.986847,268.512390   C484.809235,267.550323 485.365265,266.234528 484.891541,265.588013   C483.674927,263.927765 482.217102,261.491577 480.592682,261.266876   C476.247223,260.665802 471.763824,261.062073 467.333374,261.062073   C467.333374,272.098083 467.333374,282.565643 467.333374,293.899536   C470.126770,291.909058 472.240753,290.402710 474.943970,288.466522  z"/>
<path fill="#B4975A" opacity="1.000000" stroke="none" d=" M224.332031,314.431152   C222.042938,330.485291 219.833969,346.104034 217.549881,362.253845   C210.473801,362.253845 203.693085,362.259949 196.912430,362.240997   C196.426392,362.239655 195.703918,362.226318 195.490295,361.930481   C191.621719,356.573792 185.349609,351.572174 184.400558,345.715363   C178.893570,311.730408 174.641724,277.542053 169.980469,243.420395   C169.940231,243.125931 170.107544,242.803101 170.236816,242.234650   C176.443527,242.234650 182.706497,242.234650 189.484787,242.234650   C193.695786,274.294464 197.912247,306.395813 202.128708,338.497162   C202.384842,338.503693 202.640991,338.510254 202.897141,338.516785   C206.857712,306.435913 210.818283,274.355042 214.796951,242.127731   C221.516205,242.127731 227.925751,242.127731 234.663773,242.127731   C231.216812,266.292328 227.814484,290.144012 224.332031,314.431152  z"/>
<path fill="#B4975A" opacity="1.000000" stroke="none" d=" M556.580078,242.754776   C561.363220,247.452621 566.146362,252.150467 571.034424,257.628662   C571.101501,266.535095 570.936096,274.663574 571.088989,282.786072   C571.149780,286.014679 570.115723,287.472382 566.846741,287.067474   C565.834961,286.514008 564.866272,285.853973 563.804504,285.423859   C555.164368,281.923553 550.804504,276.115997 552.723633,266.341431   C553.434814,262.719543 551.189636,260.884399 547.461121,260.887634   C534.469727,260.898865 534.912537,260.179260 534.816956,272.694641   C534.783081,277.136261 536.007141,280.082764 539.654785,282.586212   C543.884644,285.489105 547.742554,288.933868 551.939880,292.792419   C553.083191,293.959412 554.048584,294.477417 555.013916,294.995422   C555.350403,295.009705 555.632629,295.140839 555.973999,295.976562   C557.404358,297.371857 558.721436,298.179504 560.038452,298.987183   C560.369690,299.004944 560.647156,299.136261 560.979614,299.967896   C562.408508,301.364258 563.728821,302.173920 565.049072,302.983582   C565.379517,303.000000 565.656006,303.130615 565.984619,303.965485   C567.428467,305.358398 568.766357,306.161224 570.104187,306.964020   C570.429138,306.968994 570.696899,307.095215 570.967712,308.036682   C571.052124,320.915192 571.076294,333.099731 571.100464,345.284241   C570.015198,346.472778 568.929993,347.661316 567.203735,348.969116   C565.833862,349.442780 564.801147,349.598969 564.421326,350.181122   C557.973450,360.062988 548.339172,361.137360 537.829956,360.025421   C535.859192,359.816895 533.843506,360.033325 531.848511,360.053619   C526.605408,354.930847 521.362366,349.808044 516.297729,344.079193   C516.751221,333.449310 517.026306,323.425446 517.302429,313.365082   C520.043579,313.979156 522.084595,314.436371 524.125671,314.893616   C524.125671,314.893616 524.018372,314.973419 524.085449,315.281158   C525.821777,316.387085 527.491028,317.185272 529.160339,317.983459   C534.010376,319.480927 535.859924,322.652100 535.140869,327.730011   C534.726196,330.658447 534.960449,333.697998 535.088623,336.679535   C535.278076,341.087585 538.648438,343.585510 542.759521,342.465546   C543.368530,342.299591 543.901062,341.630371 544.480896,341.613892   C552.730103,341.379089 552.293823,341.058624 553.164734,333.085449   C554.288269,322.801666 551.228394,315.709534 542.260193,310.036377   C534.041199,304.837158 526.870239,297.981201 519.036377,291.216736   C518.098328,290.230835 517.361511,289.883392 516.624634,289.535980   C516.624634,289.535980 516.564392,289.439331 516.671265,288.927002   C516.850647,277.939514 516.923096,267.464325 516.995605,256.989136   C521.466309,252.433670 525.937012,247.878174 531.165100,243.154205   C540.141663,242.908737 548.360901,242.831757 556.580078,242.754776  z"/>
<path fill="#B3975A" opacity="1.000000" stroke="none" d=" M49.968193,257.924896   C54.426025,253.378632 58.883862,248.832367 64.104897,244.128143   C72.591614,243.974823 80.315132,243.979477 88.038651,243.984116   C92.793030,248.583954 97.611191,253.120285 102.278473,257.806854   C105.203445,260.743988 104.955658,271.229889 101.973183,274.270355   C97.218590,279.117432 92.386429,283.888397 87.117142,288.441711   C86.430969,282.003510 86.309349,275.809357 85.932175,269.630829   C85.837456,268.079163 84.922829,266.577545 84.385010,265.052948   C81.900993,262.512115 73.006691,260.694641 70.214813,262.606384   C68.970375,263.458527 67.897377,265.542633 67.890198,267.072998   C67.779480,290.669708 67.864098,314.267334 67.883240,337.864746   C67.885887,341.127167 69.421783,342.792297 72.702690,342.804230   C73.699783,342.807831 74.696899,342.805878 75.694000,342.806274   C84.272812,342.809753 84.251060,342.809479 84.360573,334.193176   C84.379219,332.726227 84.674522,331.262756 85.280899,329.359406   C90.595703,324.271545 95.499130,319.649933 100.298965,314.923096   C100.714317,314.514099 100.445282,313.410126 100.494148,312.628967   C100.494148,312.628967 100.582390,312.587097 100.943489,312.692566   C102.218094,313.203156 103.131599,313.608276 104.045105,314.013428   C104.107460,323.694672 104.169830,333.375885 103.914680,343.688751   C103.400299,344.885651 103.203430,345.450897 103.006561,346.016174   C98.202850,350.903961 93.399147,355.791779 87.837578,360.847900   C86.414841,361.019806 85.733467,360.928619 85.087540,361.041046   C71.760353,363.360535 61.094254,359.117767 53.491898,347.892334   C51.857338,345.478790 50.159187,342.460419 50.133587,339.705414   C49.880302,312.447083 49.973267,285.185547 49.968193,257.924896  z"/>
<path fill="#B3975A" opacity="1.000000" stroke="none" d=" M391.256866,244.990097   C391.201019,244.830170 391.145142,244.670227 391.514343,244.193176   C392.723511,243.607391 393.506287,243.108826 394.291870,243.104340   C406.909393,243.032318 419.528564,242.944458 432.142487,243.154419   C433.116516,243.170624 434.793610,245.331940 434.877350,246.581116   C435.198730,251.374481 435.003479,256.202484 435.000977,261.017548   C430.308685,261.050262 425.616364,261.082977 420.193970,260.777039   C416.930939,260.760376 414.398041,261.082336 411.865143,261.404297   C411.865143,261.404297 411.773254,261.777588 411.269745,262.042328   C410.551178,270.431213 410.306610,278.554993 410.204010,286.680542   C410.198578,287.108490 411.396545,287.551666 412.034271,287.987762   C412.034271,287.987762 411.993225,287.956970 412.086884,288.346191   C417.938446,288.957428 423.696045,289.191345 429.455780,289.343079   C429.624969,289.347534 429.816895,288.486328 429.998230,288.028717   C430.607208,289.426544 431.216217,290.824402 431.388306,292.735229   C431.183380,296.556000 431.415375,299.863831 431.647369,303.171631   C430.748932,303.854462 429.869263,305.096924 428.948914,305.127777   C423.670685,305.304962 418.382843,305.194580 412.236206,305.194946   C410.920685,305.983032 410.078827,306.754730 410.072266,307.533447   C409.983551,318.074768 409.959961,328.617737 410.095703,339.158051   C410.108002,340.114044 411.329956,341.054504 411.990173,342.002167   C420.107574,342.002167 428.224976,342.002167 436.661499,342.002167   C436.661499,348.545105 436.661499,354.794800 436.661499,361.480255   C422.028900,361.480255 407.321442,361.480255 391.773285,361.480255   C391.773285,324.032654 391.773285,286.509003 392.077209,248.343399   C392.006348,246.797668 391.631622,245.893875 391.256866,244.990097  z"/>
<path fill="#B39659" opacity="1.000000" stroke="none" d=" M352.059967,346.023804   C350.940674,361.769958 350.941162,361.824524 335.638733,361.959076   C325.323425,362.049774 315.006561,361.962372 304.690430,361.936127   C304.388824,361.935364 304.087769,361.725250 302.877289,361.273254   C302.877289,323.393799 302.877289,285.178802 303.195801,246.272003   C303.680328,244.360474 303.846375,243.140762 304.012451,241.921051   C309.360901,241.857468 314.709381,241.793900 320.514709,242.285065   C320.981842,274.101074 320.959564,305.362488 321.086670,336.623291   C321.093994,338.421051 322.318420,340.213898 322.976410,342.009033   C322.976410,342.009033 323.007965,342.011505 323.106201,342.414215   C324.682068,343.213196 326.153595,343.922546 327.638397,343.951508   C334.046600,344.076508 340.463837,343.860443 346.865967,344.093262   C348.618378,344.156982 350.329773,345.349365 352.059967,346.023804  z"/>
<path fill="#B4975A" opacity="1.000000" stroke="none" d=" M361.952515,344.976868   C361.886627,337.300659 361.820709,329.624481 362.159973,321.203796   C362.682312,320.150574 362.901489,319.841949 362.902069,319.532959   C362.945129,296.441315 362.992950,273.349609 362.928192,250.258194   C362.925171,249.186615 361.902039,248.117905 361.354004,247.047867   C361.207520,246.537582 361.061035,246.027298 361.281982,245.019577   C365.948883,244.018387 370.262451,243.610764 374.544006,242.984314   C378.988861,242.333969 380.119843,244.111343 380.095612,248.491501   C379.911652,281.734314 379.991425,314.978607 379.989502,348.222412   C379.988739,360.950073 379.994507,360.870087 367.370544,360.058746   C364.735870,359.889404 364.133026,358.884735 363.905975,356.449921   C363.546753,352.598358 362.632111,348.798553 361.952515,344.976868  z"/>
<path fill="#B4975A" opacity="1.000000" stroke="none" d=" M352.078735,201.964432   C353.899902,189.034729 355.690826,176.546463 357.568481,163.453491   C361.300232,163.453491 365.100433,163.224152 368.840881,163.596207   C369.932953,163.704819 371.552612,165.409958 371.749237,166.581573   C374.530426,183.152908 377.168030,199.749603 379.614960,216.373337   C379.801453,217.640381 378.326904,220.318527 377.557709,220.344223   C375.101196,220.426346 371.635254,222.261536 370.525085,218.016006   C370.357422,217.374725 370.283234,216.707443 370.188171,216.048950   C369.108917,208.571899 368.727386,208.332077 360.307159,210.050461   C359.779999,213.359970 359.238220,216.761292 358.666077,220.353241   C355.694550,220.353241 352.933624,220.353241 349.546783,220.353241   C350.409821,214.161514 351.229126,208.283691 352.078735,201.964432  M362.409912,186.903000   C361.930969,191.103378 361.451996,195.303757 360.975159,199.485641   C363.564606,199.485641 365.576843,199.485641 367.786407,199.485641   C366.735870,191.304611 365.743744,183.578415 364.751617,175.852203   C364.469879,175.848434 364.188171,175.844650 363.906464,175.840866   C363.457123,179.236359 363.007812,182.631836 362.409912,186.903000  z"/>
<path fill="#B4975A" opacity="1.000000" stroke="none" d=" M383.151062,191.017609   C383.151062,182.091873 383.151062,173.166138 383.151062,164.267944   C390.232788,162.330811 391.488586,162.982986 393.592896,169.714951   C395.733276,176.562408 397.842468,183.419617 400.773163,190.076294   C400.773163,182.031250 400.773163,173.986221 401.293976,165.483124   C403.730469,165.110184 405.646149,165.195297 408.002319,165.299973   C408.002319,167.620728 408.002228,169.411728 408.002380,171.202713   C408.003235,182.305603 407.935303,193.409409 408.086243,204.510269   C408.106628,206.008347 409.227356,207.491470 409.838531,208.981522   C409.838531,212.582855 409.838531,216.184174 409.838531,219.761658   C401.501740,221.072647 401.504425,221.071869 399.265808,213.306442   C397.188812,206.101410 395.105164,198.898270 392.183533,191.891876   C392.183533,200.615204 392.183533,209.338516 391.867126,218.638367   C391.357605,219.510742 391.164490,219.806595 390.971375,220.102448   C389.269562,220.156769 387.567749,220.211105 385.444824,219.728195   C385.014984,211.277206 385.099976,203.361267 384.914307,195.451660   C384.879333,193.960663 383.766541,192.494965 383.151062,191.017609  z"/>
<path fill="#AC9056" opacity="1.000000" stroke="none" d=" M415.154053,165.969330   C415.705444,165.059845 416.226654,163.384048 416.812988,163.360947   C421.964142,163.157913 427.134796,163.078140 432.283447,163.314972   C435.615692,163.468216 442.216827,171.063553 442.229218,174.455566   C442.271667,186.105637 442.287140,197.756241 442.216980,209.406067   C442.188477,214.132874 435.997070,220.162781 431.272125,220.214493   C426.945404,220.261841 422.614594,220.316376 418.292816,220.163132   C417.215698,220.124924 416.166534,219.297745 415.556152,218.291275   C416.339081,217.048630 416.957031,216.348938 416.959595,215.647018   C417.016205,200.081375 417.038849,184.515244 416.926910,168.950226   C416.919769,167.952393 415.771454,166.962769 415.154053,165.969330  M425.789551,211.022247   C428.365265,210.082474 433.163300,213.492172 433.128693,207.454727   C433.069031,197.044647 432.961823,186.630997 432.544495,176.232086   C432.497253,175.055344 430.500702,173.564285 429.089996,172.952972   C427.854187,172.417450 426.171051,172.914215 423.965485,173.261459   C423.650665,173.797455 423.064301,174.331879 423.061157,174.869690   C422.996582,185.940399 422.950378,197.012009 423.069519,208.081619   C423.080109,209.067947 424.250488,210.041779 425.789551,211.022247  z"/>
<path fill="#B4975A" opacity="1.000000" stroke="none" d=" M270.693970,216.122833   C269.895721,214.892853 268.571686,213.739578 268.379333,212.421188   C266.052399,196.471878 263.892426,180.498230 261.641266,164.185181   C264.786072,164.185181 267.539246,164.185181 270.917297,164.185181   C272.795654,178.388229 274.687836,192.696030 276.580048,207.003830   C276.924377,206.990845 277.268707,206.977859 277.613037,206.964890   C279.374756,192.731201 281.136475,178.497528 282.926880,164.032104   C285.934784,164.032104 288.706970,164.032104 292.284210,164.032104   C289.879211,180.496780 287.488861,196.861053 284.616455,213.702606   C283.426483,215.738464 282.718597,217.297073 281.915985,219.064163   C278.879761,219.064163 275.891052,219.064163 272.902374,219.064163   C272.902374,219.064163 272.990448,219.015839 272.973358,218.675568   C272.202148,217.597809 271.448059,216.860321 270.693970,216.122833  z"/>
<path fill="#AC9056" opacity="1.000000" stroke="none" d=" M309.710876,185.591339   C311.641937,185.591919 313.117432,185.591919 314.912231,185.591919   C314.912231,188.431061 314.912231,190.984634 314.912231,193.693878   C311.922058,193.826355 309.149719,193.949173 306.097290,194.084396   C306.097290,199.727570 306.097290,205.125519 306.097290,210.982391   C309.757111,210.982391 313.343414,210.982391 317.360077,210.982391   C317.360077,214.293472 317.360077,217.160995 317.360077,220.423279   C310.574615,220.423279 303.699982,220.423279 296.401733,220.423279   C296.401733,201.641174 296.401733,182.926590 296.401733,163.922546   C303.089172,163.922546 309.990204,163.922546 317.276062,163.922546   C317.276062,166.800125 317.276062,169.654694 317.276062,172.971283   C313.529877,172.971283 309.950928,172.971283 305.815857,172.971283   C305.815857,176.507065 305.516937,179.659134 305.973602,182.697632   C306.139526,183.801483 308.108826,184.634277 309.710876,185.591339  z"/>
<path fill="#B4975A" opacity="1.000000" stroke="none" d=" M186.000183,164.998398   C188.348328,164.969086 190.696472,164.939774 193.665863,165.167892   C197.523438,167.950073 200.759766,170.474792 203.996094,172.999512   C204.055786,174.068390 204.115479,175.137283 203.923813,176.672302   C203.592316,177.229416 203.426468,177.367172 203.446320,177.403580   C203.555954,177.604416 203.710861,177.780533 203.850250,177.965118   C201.208618,180.869354 198.566986,183.773575 194.952805,187.747025   C194.952805,183.614166 194.826691,180.744781 194.987747,177.891617   C195.153915,174.947632 194.578720,173.212646 191.012589,173.207947   C187.590393,173.203445 186.835007,174.633698 186.883148,177.723343   C187.030640,187.186172 186.875351,196.653580 186.995865,206.117172   C187.017029,207.779175 187.706375,210.808823 188.250702,210.846527   C190.444672,210.998566 192.702744,210.225403 195.421722,209.297943   C196.281876,206.911972 196.657455,205.022064 197.033035,203.132156   C198.203491,201.863159 199.373962,200.594177 201.199371,199.164993   C202.584274,199.005249 203.314224,199.005692 204.044174,199.006149   C204.107498,202.693497 204.170822,206.380859 203.868591,210.722137   C203.370010,212.038910 203.236984,212.701736 203.103943,213.364594   C202.040924,214.532288 200.977890,215.699997 199.264557,216.991058   C198.154861,217.841278 197.695480,218.568146 197.236084,219.295013   C197.236084,219.295013 197.114731,219.147583 196.712967,219.109558   C192.407974,219.083878 188.504730,219.096222 184.601501,219.108566   C183.768921,218.376465 182.936340,217.644379 182.008469,216.282532   C180.619186,214.436569 179.325195,213.220367 178.031189,212.004181   C177.965179,199.983200 177.899170,187.962234 178.177795,175.295807   C181.015015,171.433044 183.507599,168.215729 186.000183,164.998398  z"/>
<path fill="#C0A260" opacity="1.000000" stroke="none" d=" M331.696411,164.695908   C331.796173,180.249832 331.796173,195.375839 331.796173,210.961594   C336.618347,210.961594 341.024292,210.961594 345.739655,210.961594   C345.324158,214.318344 344.970245,217.177567 344.583252,220.303940   C337.314728,220.303940 330.373413,220.303940 322.819641,220.303940   C322.819641,201.669373 322.819641,182.941895 322.819641,163.590988   C325.471008,163.795502 328.533813,164.031754 331.696411,164.695908  z"/>
<path fill="#B39659" opacity="1.000000" stroke="none" d=" M218.692688,195.997360   C218.692551,201.272324 218.692551,206.047684 218.692551,211.274490   C223.551361,211.274490 227.803299,211.274490 232.562027,211.274490   C231.990341,214.570496 231.510620,217.336273 230.959488,220.513672   C224.063629,220.513672 217.028519,220.513672 209.516937,220.513672   C209.516937,201.923843 209.516937,183.246506 209.516937,164.267899   C212.150864,164.267899 215.057480,164.267899 218.692841,164.267899   C218.692841,174.662964 218.692841,185.080353 218.692688,195.997360  z"/>
<path fill="#B5985A" opacity="1.000000" stroke="none" d=" M257.957306,213.991135   C258.019867,215.384109 258.082458,216.777084 257.609039,218.579041   C253.923294,218.989380 250.773071,219.027939 247.623932,218.985199   C237.627182,218.849487 239.073639,220.353836 239.021652,210.244263   C238.942566,194.863083 238.995071,179.481201 238.991684,164.099640   C243.691040,164.042511 248.390411,163.985382 253.615555,164.364029   C255.161560,165.224823 256.181793,165.649841 257.201996,166.074860   C257.176086,167.421463 257.150177,168.768051 256.747284,170.537613   C254.582703,171.614685 252.795135,172.268799 251.007568,172.922913   C249.550201,173.079803 248.092834,173.236710 246.420197,173.416779   C246.420197,177.516312 246.420197,181.426254 246.420197,185.704666   C249.522369,185.840195 252.440872,185.967697 255.613525,186.106293   C255.613525,188.596512 255.613525,190.866089 255.613525,193.644806   C252.703751,193.825150 249.664398,194.013535 246.815979,194.190079   C246.815979,200.341507 246.815979,206.171082 246.815979,211.390823   C250.887070,211.744431 254.263916,212.037750 257.572815,212.809921   C257.655731,213.522903 257.806519,213.757019 257.957306,213.991135  z"/>
<path fill="#BC9D5E" opacity="1.000000" stroke="none" d=" M448.050629,243.005432   C448.367950,280.364990 448.750946,317.724274 448.908325,355.084503   C448.925354,359.134552 450.190857,360.122284 454.032684,360.077332   C464.999359,359.949097 465.001221,360.105499 465.001251,349.053436   C465.001251,339.079071 464.944092,329.104034 465.057648,319.130951   C465.076508,317.474945 465.839966,315.827393 466.661926,314.098022   C467.064514,329.656708 467.064514,345.293274 467.064514,361.329315   C460.539185,361.329315 454.142883,361.329315 447.047302,361.329315   C447.047302,359.798950 447.047302,358.046112 447.047302,356.293243   C447.047363,321.667328 447.064941,287.041382 447.014618,252.415558   C447.010529,249.606812 446.541412,246.798752 446.705566,243.505920   C447.432068,243.016129 447.741333,243.010788 448.050629,243.005432  z"/>
<path fill="#C8A864" opacity="1.000000" stroke="none" d=" M361.854614,345.318695   C362.632111,348.798553 363.546753,352.598358 363.905975,356.449921   C364.133026,358.884735 364.735870,359.889404 367.370544,360.058746   C379.994507,360.870087 379.988739,360.950073 379.989502,348.222412   C379.991425,314.978607 379.911652,281.734314 380.095612,248.491501   C380.119843,244.111343 378.988861,242.333969 374.544006,242.984314   C370.262451,243.610764 365.948883,244.018387 361.338196,244.754517   C360.753143,244.062363 360.479279,243.137833 360.090698,241.825989   C367.163422,241.825989 373.906281,241.825989 381.112671,241.825989   C381.112671,281.582153 381.112671,321.435852 381.112671,361.571411   C374.938171,361.571411 368.714233,361.571411 361.756683,361.571411   C361.756683,356.193542 361.756683,350.927032 361.854614,345.318695  z"/>
<path fill="#A78C54" opacity="1.000000" stroke="none" d=" M49.645512,258.100220   C49.973267,285.185547 49.880302,312.447083 50.133587,339.705414   C50.159187,342.460419 51.857338,345.478790 53.491898,347.892334   C61.094254,359.117767 71.760353,363.360535 85.087540,361.041046   C85.733467,360.928619 86.414841,361.019806 87.549614,361.012024   C86.578857,361.592743 85.163681,362.609863 83.693634,362.696564   C66.529305,363.708740 66.738747,363.448517 54.229805,351.589203   C49.476452,347.082703 47.728157,342.499939 47.813343,335.991302   C48.126431,312.069641 47.765137,288.139618 47.790020,264.212860   C47.792080,262.233215 48.788441,260.254639 49.645512,258.100220  z"/>
<path fill="#AF9357" opacity="1.000000" stroke="none" d=" M471.372559,310.954437   C471.905396,307.857727 473.516327,308.823456 474.717316,310.602600   C478.523407,316.240814 482.285614,321.918976 485.767548,327.758881   C486.714752,329.347504 486.908508,331.556061 486.941711,333.488800   C487.070496,340.981384 487.095673,348.479462 486.946014,355.971222   C486.886536,358.949005 487.828003,359.994385 490.921021,360.080994   C503.010315,360.419403 503.132812,360.524475 502.968597,348.638489   C502.831146,338.688141 502.355194,328.742462 502.025940,318.367615   C502.976929,319.426392 504.733612,320.898590 504.759094,322.400238   C504.978424,335.313812 504.885132,348.232727 504.885132,361.414795   C498.145325,361.414795 491.894531,361.414795 485.024628,361.414795   C485.024628,353.812347 484.602325,346.191956 485.149109,338.641693   C485.647766,331.756287 483.967072,325.968353 479.566162,320.769257   C476.854553,317.565796 474.342499,314.193359 471.372559,310.954437  z"/>
<path fill="#B39659" opacity="1.000000" stroke="none" d=" M212.348312,682.146484   C215.855026,682.013123 219.699829,682.111816 223.543747,682.084595   C234.101898,682.009705 244.805313,682.940308 255.181412,681.512329   C268.707855,679.650757 282.025238,676.110840 295.332275,672.880127   C302.190277,671.215210 308.831116,668.655945 315.786987,666.755249   C282.760254,680.181763 248.870117,688.991089 212.348312,682.146484  z"/>
<path fill="#C5A663" opacity="1.000000" stroke="none" d=" M322.961365,341.539917   C322.318420,340.213898 321.093994,338.421051 321.086670,336.623291   C320.959564,305.362488 320.981842,274.101074 320.975769,242.362885   C321.599487,243.452087 322.752533,245.015839 322.759613,246.584732   C322.900940,278.079742 322.910339,309.575348 322.961365,341.539917  z"/>
<path fill="#B3965A" opacity="1.000000" stroke="none" d=" M422.695953,427.795288   C419.227570,427.583984 415.461517,426.932800 411.677826,426.805542   C399.361206,426.391235 386.952423,425.138885 374.741180,426.155640   C362.028687,427.214142 349.506744,430.546722 336.892334,432.834534   C336.134674,432.971924 335.295929,432.662537 334.249817,432.286255   C363.108887,423.381622 392.431915,419.131195 422.695953,427.795288  z"/>
<path fill="#C0A260" opacity="1.000000" stroke="none" d=" M238.597916,164.015228   C238.995071,179.481201 238.942566,194.863083 239.021652,210.244263   C239.073639,220.353836 237.627182,218.849487 247.623932,218.985199   C250.773071,219.027939 253.923294,218.989380 257.542236,218.993530   C257.418915,219.569977 256.835999,220.625046 256.232269,220.637115   C250.102066,220.759567 243.968491,220.711899 237.689987,220.711899   C237.465836,219.860001 237.174988,219.252502 237.163849,218.639923   C236.838028,200.696869 236.530930,182.753403 236.320038,164.808853   C236.316666,164.523605 237.548660,164.223831 238.597916,164.015228  z"/>
<path fill="#AC9056" opacity="1.000000" stroke="none" d=" M435.428101,261.027771   C435.003479,256.202484 435.198730,251.374481 434.877350,246.581116   C434.793610,245.331940 433.116516,243.170624 432.142487,243.154419   C419.528564,242.944458 406.909393,243.032318 394.291870,243.104340   C393.506287,243.108826 392.723511,243.607391 391.533813,243.939789   C391.547638,243.092773 391.959595,241.389954 392.387543,241.385925   C407.000885,241.248093 421.615662,241.271301 437.281860,241.271301   C436.783875,248.171402 436.319580,254.604706 435.428101,261.027771  z"/>
<path fill="#A78C54" opacity="1.000000" stroke="none" d=" M448.513947,242.993713   C447.741333,243.010788 447.432068,243.016129 446.658630,243.040512   C446.994690,242.429901 447.788239,241.261337 448.596039,241.251404   C460.741974,241.101807 472.890472,241.035675 485.036133,241.164108   C486.465240,241.179214 488.160034,242.166748 489.254578,243.205963   C493.959015,247.672623 498.485291,252.326950 503.227081,257.191956   C501.746948,256.636749 499.526520,256.224579 498.579163,254.901108   C491.305237,244.739731 481.653290,241.264771 469.380219,242.822601   C462.680420,243.673004 455.784668,242.979324 448.513947,242.993713  z"/>
<path fill="#C4A462" opacity="1.000000" stroke="none" d=" M415.126404,166.439178   C415.771454,166.962769 416.919769,167.952393 416.926910,168.950226   C417.038849,184.515244 417.016205,200.081375 416.959595,215.647018   C416.957031,216.348938 416.339081,217.048630 415.630554,217.855453   C415.201843,200.944061 415.150299,183.926544 415.126404,166.439178  z"/>
<path fill="#C4A462" opacity="1.000000" stroke="none" d=" M409.911316,208.519058   C409.227356,207.491470 408.106628,206.008347 408.086243,204.510269   C407.935303,193.409409 408.003235,182.305603 408.002380,171.202713   C408.002228,169.411728 408.002319,167.620728 408.002319,165.299973   C405.646149,165.195297 403.730469,165.110184 401.362518,165.019379   C403.678680,164.405319 406.447113,163.796936 409.984070,163.019669   C409.984070,178.843292 409.984070,193.449951 409.911316,208.519058  z"/>
<path fill="#A78C54" opacity="1.000000" stroke="none" d=" M523.928711,314.620972   C522.084595,314.436371 520.043579,313.979156 517.302429,313.365082   C517.026306,323.425446 516.751221,333.449310 516.167419,343.763794   C515.858704,332.726990 515.858704,321.399567 515.858704,309.545074   C518.343506,311.061035 521.037659,312.704712 523.928711,314.620972  z"/>
<path fill="#BA9C5D" opacity="1.000000" stroke="none" d=" M532.053772,360.390442   C533.843506,360.033325 535.859192,359.816895 537.829956,360.025421   C548.339172,361.137360 557.973450,360.062988 564.421326,350.181122   C564.801147,349.598969 565.833862,349.442780 566.927490,349.095642   C563.851440,352.699554 560.434753,356.319977 556.948608,359.872131   C556.277039,360.556427 555.324280,361.453461 554.515991,361.438751   C547.095154,361.303802 539.677551,360.989380 532.053772,360.390442  z"/>
<path fill="#BA9C5D" opacity="1.000000" stroke="none" d=" M571.452637,345.080536   C571.076294,333.099731 571.052124,320.915192 571.055969,308.246521   C571.659485,308.659821 572.724548,309.551086 572.736023,310.455688   C572.872070,321.210571 572.871765,331.967529 572.825500,342.723602   C572.822449,343.442780 572.160400,344.159149 571.452637,345.080536  z"/>
<path fill="#A78C54" opacity="1.000000" stroke="none" d=" M567.057678,287.333740   C570.115723,287.472382 571.149780,286.014679 571.088989,282.786072   C570.936096,274.663574 571.101501,266.535095 571.200134,257.896881   C571.757935,258.194397 572.679382,258.999939 572.687256,259.814362   C572.785828,269.964966 572.751770,280.116882 572.751770,291.004333   C570.523682,289.620941 568.896118,288.610474 567.057678,287.333740  z"/>
<path fill="#CEAD67" opacity="1.000000" stroke="none" d=" M361.363647,247.516769   C361.902039,248.117905 362.925171,249.186615 362.928192,250.258194   C362.992950,273.349609 362.945129,296.441315 362.902069,319.532959   C362.901489,319.841949 362.682312,320.150574 362.253723,320.744812   C361.836273,298.664825 361.735901,276.299377 361.614594,253.934006   C361.603851,251.950867 361.456940,249.968430 361.363647,247.516769  z"/>
<path fill="#CEAD67" opacity="1.000000" stroke="none" d=" M411.910278,341.539001   C411.329956,341.054504 410.108002,340.114044 410.095703,339.158051   C409.959961,328.617737 409.983551,318.074768 410.072266,307.533447   C410.078827,306.754730 410.920685,305.983032 411.784241,305.126251   C412.072998,317.054871 411.951691,329.065338 411.910278,341.539001  z"/>
<path fill="#A78C54" opacity="1.000000" stroke="none" d=" M502.416351,289.965424   C502.373077,282.048004 502.707825,274.022919 503.021149,265.996948   C503.117432,263.530975 503.155121,261.062775 503.371124,258.111877   C503.962402,258.767273 504.768219,259.901520 504.783386,261.046204   C504.892670,269.293732 504.935150,277.545502 504.749481,285.790283   C504.718628,287.160034 503.471313,288.502380 502.416351,289.965424  z"/>
<path fill="#A78C54" opacity="1.000000" stroke="none" d=" M516.650574,257.202148   C516.923096,267.464325 516.850647,277.939514 516.622070,288.898376   C516.002319,288.584595 515.145081,287.791962 515.135315,286.989044   C515.028015,278.168732 515.010803,269.346405 515.097473,260.525909   C515.107727,259.485168 515.884277,258.451935 516.650574,257.202148  z"/>
<path fill="#C8A864" opacity="1.000000" stroke="none" d=" M156.891296,243.646545   C148.091751,243.988770 139.307098,243.916153 130.526337,244.068207   C128.888306,244.096573 127.265892,245.026535 125.319977,245.769470   C124.350945,243.906815 123.865807,242.110168 127.240372,242.142136   C136.504059,242.229904 145.769577,242.114212 155.033859,242.167694   C155.660583,242.171310 156.283066,242.911652 156.891296,243.646545  z"/>
<path fill="#C4A462" opacity="1.000000" stroke="none" d=" M383.098267,191.482422   C383.766541,192.494965 384.879333,193.960663 384.914307,195.451660   C385.099976,203.361267 385.014984,211.277206 385.022217,219.670471   C384.380402,219.034241 383.208710,217.929779 383.184784,216.800980   C383.009247,208.519150 383.063538,200.232422 383.098267,191.482422  z"/>
<path fill="#CEAD67" opacity="1.000000" stroke="none" d=" M84.336441,265.515442   C84.922829,266.577545 85.837456,268.079163 85.932175,269.630829   C86.309349,275.809357 86.430969,282.003510 86.811905,288.572571   C86.367249,289.655701 85.757919,290.358124 84.287872,292.052734   C84.287872,282.571869 84.287872,274.274902 84.336441,265.515442  z"/>
<path fill="#C8A864" opacity="1.000000" stroke="none" d=" M352.225220,345.538391   C350.329773,345.349365 348.618378,344.156982 346.865967,344.093262   C340.463837,343.860443 334.046600,344.076508 327.638397,343.951508   C326.153595,343.922546 324.682068,343.213196 323.095703,342.426331   C331.613861,342.093109 340.241089,342.120850 348.867249,342.232025   C350.656189,342.255066 353.344482,341.469360 352.225220,345.538391  z"/>
<path fill="#CEAD67" opacity="1.000000" stroke="none" d=" M411.886536,287.538940   C411.396545,287.551666 410.198578,287.108490 410.204010,286.680542   C410.306610,278.554993 410.551178,270.431213 411.093170,262.118317   C411.526367,270.316437 411.632599,278.703278 411.886536,287.538940  z"/>
<path fill="#A78C54" opacity="1.000000" stroke="none" d=" M556.347290,242.399429   C548.360901,242.831757 540.141663,242.908737 531.452637,242.989319   C531.546692,242.409012 532.120605,241.308212 532.672791,241.319031   C540.488464,241.472305 548.301147,241.776459 556.347290,242.399429  z"/>
<path fill="#A78C54" opacity="1.000000" stroke="none" d=" M87.836823,243.641464   C80.315132,243.979477 72.591614,243.974823 64.394035,243.968109   C64.229912,243.587097 64.543991,242.874237 64.849182,242.878036   C72.445023,242.972290 80.039925,243.142273 87.836823,243.641464  z"/>
<path fill="#A78C54" opacity="1.000000" stroke="none" d=" M100.212250,312.779175   C100.445282,313.410126 100.714317,314.514099 100.298965,314.923096   C95.499130,319.649933 90.595703,324.271545 85.379089,328.962097   C90.002380,323.645172 94.966362,318.287292 100.212250,312.779175  z"/>
<path fill="#BA9C5D" opacity="1.000000" stroke="none" d=" M429.533325,287.972198   C429.816895,288.486328 429.624969,289.347534 429.455780,289.343079   C423.696045,289.191345 417.938446,288.957428 412.107788,288.331268   C417.712799,287.923340 423.390594,287.919495 429.533325,287.972198  z"/>
<path fill="#AF9357" opacity="1.000000" stroke="none" d=" M273.047913,219.428894   C275.891052,219.064163 278.879761,219.064163 281.915985,219.064163   C282.718597,217.297073 283.426483,215.738464 284.501282,214.088898   C284.666656,216.069031 284.465118,218.140137 284.170593,221.166885   C280.256317,220.677200 276.724854,220.235397 273.047913,219.428894  z"/>
<path fill="#C4A462" opacity="1.000000" stroke="none" d=" M203.980316,172.658264   C200.759766,170.474792 197.523438,167.950073 194.103943,165.137573   C195.106613,165.076248 196.634033,164.914810 197.414276,165.601868   C199.754303,167.662415 201.802490,170.054382 203.980316,172.658264  z"/>
<path fill="#C4A462" opacity="1.000000" stroke="none" d=" M185.649612,164.907471   C183.507599,168.215729 181.015015,171.433044 178.243256,174.831757   C177.257050,169.346848 182.212814,167.754120 185.649612,164.907471  z"/>
<path fill="#C5A663" opacity="1.000000" stroke="none" d=" M184.829529,219.454254   C188.504730,219.096222 192.407974,219.083878 196.796326,219.156097   C193.334396,222.215134 189.205368,221.212784 184.829529,219.454254  z"/>
<path fill="#BA9C5D" opacity="1.000000" stroke="none" d=" M431.737244,302.770752   C431.415375,299.863831 431.183380,296.556000 431.313324,293.131348   C431.725861,296.132996 431.776489,299.251434 431.737244,302.770752  z"/>
<path fill="#AC9056" opacity="1.000000" stroke="none" d=" M412.294861,261.396759   C414.398041,261.082336 416.930939,260.760376 419.730957,260.716614   C417.573578,261.126282 415.149109,261.257751 412.294861,261.396759  z"/>
<path fill="#C0A260" opacity="1.000000" stroke="none" d=" M251.403320,172.983887   C252.795135,172.268799 254.582703,171.614685 256.792145,170.939514   C256.761902,175.072372 253.556305,172.214508 251.403320,172.983887  z"/>
<path fill="#A78C54" opacity="1.000000" stroke="none" d=" M104.135094,313.720703   C103.131599,313.608276 102.218094,313.203156 100.954895,312.645081   C101.343666,311.532898 102.082146,310.573669 103.635017,308.556580   C103.939201,311.067780 104.082138,312.247864 104.135094,313.720703  z"/>
<path fill="#C8A864" opacity="1.000000" stroke="none" d=" M154.224548,357.413940   C154.852234,358.453094 155.440430,359.874084 156.020294,361.683228   C155.403000,360.646179 154.794037,359.220978 154.224548,357.413940  z"/>
<path fill="#C5A663" opacity="1.000000" stroke="none" d=" M178.051437,212.335693   C179.325195,213.220367 180.619186,214.436569 181.902191,216.023102   C180.618027,215.151352 179.344864,213.909271 178.051437,212.335693  z"/>
<path fill="#C5A663" opacity="1.000000" stroke="none" d=" M196.769684,203.282883   C196.657455,205.022064 196.281876,206.911972 195.551758,208.889328   C195.633591,207.129059 196.069962,205.281326 196.769684,203.282883  z"/>
<path fill="#A78C54" opacity="1.000000" stroke="none" d=" M528.952271,317.719788   C527.491028,317.185272 525.821777,316.387085 524.123047,315.225891   C525.643860,315.727325 527.194031,316.591705 528.952271,317.719788  z"/>
<path fill="#BA9C5D" opacity="1.000000" stroke="none" d=" M569.925049,306.693481   C568.766357,306.161224 567.428467,305.358398 566.080017,304.179321   C567.294922,304.676392 568.520386,305.549683 569.925049,306.693481  z"/>
<path fill="#BA9C5D" opacity="1.000000" stroke="none" d=" M564.876587,302.711304   C563.728821,302.173920 562.408508,301.364258 561.077942,300.181366   C562.279785,300.685089 563.492004,301.562073 564.876587,302.711304  z"/>
<path fill="#BA9C5D" opacity="1.000000" stroke="none" d=" M559.867737,298.714661   C558.721436,298.179504 557.404358,297.371857 556.075134,296.192352   C557.274292,296.694366 558.485657,297.568237 559.867737,298.714661  z"/>
<path fill="#C5A663" opacity="1.000000" stroke="none" d=" M204.126984,198.746521   C203.314224,199.005692 202.584274,199.005249 201.489594,199.018021   C201.912537,198.103104 202.700211,197.174957 204.038330,195.598206   C204.128006,197.109299 204.168884,197.798096 204.126984,198.746521  z"/>
<path fill="#AF9357" opacity="1.000000" stroke="none" d=" M501.102203,316.607849   C500.149597,315.817780 499.092804,314.718903 498.047668,313.236206   C499.038879,314.001251 500.018433,315.150116 501.102203,316.607849  z"/>
<path fill="#C0A260" opacity="1.000000" stroke="none" d=" M257.510956,165.870438   C256.181793,165.649841 255.161560,165.224823 254.075439,164.450653   C255.279648,164.623001 256.549774,165.144516 257.510956,165.870438  z"/>
<path fill="#C5A663" opacity="1.000000" stroke="none" d=" M303.639465,241.856750   C303.846375,243.140762 303.680328,244.360474 303.219788,245.805664   C303.039032,244.618240 303.152771,243.205353 303.639465,241.856750  z"/>
<path fill="#AC9056" opacity="1.000000" stroke="none" d=" M391.209564,245.308777   C391.631622,245.893875 392.006348,246.797668 392.116974,247.879745   C391.622650,247.247833 391.392456,246.437637 391.209564,245.308777  z"/>
<path fill="#A78C54" opacity="1.000000" stroke="none" d=" M496.345276,294.029633   C496.811157,293.409943 497.582642,292.723694 498.718628,292.049988   C498.272369,292.696045 497.461639,293.329559 496.345276,294.029633  z"/>
<path fill="#AF9357" opacity="1.000000" stroke="none" d=" M270.796234,216.422699   C271.448059,216.860321 272.202148,217.597809 272.943604,218.716034   C272.253448,218.305359 271.575958,217.513962 270.796234,216.422699  z"/>
<path fill="#BA9C5D" opacity="1.000000" stroke="none" d=" M554.842957,294.731934   C554.048584,294.477417 553.083191,293.959412 552.110962,293.070557   C552.960022,293.289215 553.816040,293.878815 554.842957,294.731934  z"/>
<path fill="#A78C54" opacity="1.000000" stroke="none" d=" M499.358337,292.020691   C499.818756,291.401215 500.583527,290.717499 501.710876,290.043854   C501.269867,290.688110 500.466278,291.322266 499.358337,292.020691  z"/>
<path fill="#C5A663" opacity="1.000000" stroke="none" d=" M197.522995,219.170624   C197.695480,218.568146 198.154861,217.841278 198.990173,217.108444   C198.847351,217.750412 198.328629,218.398331 197.522995,219.170624  z"/>
<path fill="#BC9D5E" opacity="1.000000" stroke="none" d=" M468.290955,312.962891   C468.525360,312.494202 469.041687,311.959778 469.745605,311.630646   C469.479767,312.189667 469.026306,312.543427 468.290955,312.962891  z"/>
<path fill="#A78C54" opacity="1.000000" stroke="none" d=" M516.776367,289.784912   C517.361511,289.883392 518.098328,290.230835 518.846924,290.950653   C518.215149,290.893311 517.571594,290.463562 516.776367,289.784912  z"/>
<path fill="#A78C54" opacity="1.000000" stroke="none" d=" M103.285965,345.864258   C103.203430,345.450897 103.400299,344.885651 103.855789,344.153625   C103.931404,344.562012 103.748390,345.137146 103.285965,345.864258  z"/>
<path fill="#C5A663" opacity="1.000000" stroke="none" d=" M203.397751,213.167053   C203.236984,212.701736 203.370010,212.038910 203.784698,211.174866   C203.941406,211.638947 203.816483,212.304230 203.397751,213.167053  z"/>
<path fill="#C4A462" opacity="1.000000" stroke="none" d=" M391.292480,220.100342   C391.164490,219.806595 391.357605,219.510742 391.795044,219.101746   C391.897430,219.358475 391.755493,219.728363 391.292480,220.100342  z"/>
<path fill="#C8A864" opacity="1.000000" stroke="none" d=" M173.337341,362.084290   C173.202957,361.767426 173.429474,361.459564 173.926544,361.038696   C174.030807,361.314911 173.864517,361.704102 173.337341,362.084290  z"/>
<path fill="#C4A462" opacity="1.000000" stroke="none" d=" M203.977020,177.737488   C203.710861,177.780533 203.555954,177.604416 203.446320,177.403580   C203.426468,177.367172 203.592316,177.229416 203.842209,177.067673   C204.042572,177.167892 204.073181,177.338882 203.977020,177.737488  z"/>
<path fill="#C0A260" opacity="1.000000" stroke="none" d=" M257.996582,213.739258   C257.806519,213.757019 257.655731,213.522903 257.628387,213.176361   C257.846527,213.205078 257.941193,213.346222 257.996582,213.739258  z"/>
<path fill="#72253D" opacity="1.000000" stroke="none" d=" M384.669922,492.687836   C386.793488,486.226929 389.514160,479.892975 390.920197,473.279480   C394.152496,458.075653 383.624146,453.361084 372.215149,454.516449   C356.672211,456.090485 342.654602,462.243134 329.164215,469.632385   C284.674042,494.001495 252.812759,530.703125 228.232666,574.235596   C224.280975,581.234131 221.642517,589.201965 219.665466,597.041687   C215.089478,615.187073 224.364960,626.993286 243.082001,627.962036   C260.478546,628.862488 277.161011,625.093323 293.630981,620.176575   C331.318634,608.925720 367.981873,594.874878 404.108307,579.381287   C405.566315,578.755981 407.090729,578.285583 408.584198,577.742981   C408.835907,578.142273 409.087585,578.541626 409.339294,578.940918   C405.622101,582.014954 401.991730,585.201538 398.174133,588.145264   C365.686127,613.196716 331.011322,634.393005 292.070404,648.006042   C271.524261,655.188660 250.462677,659.985718 228.606583,659.743896   C214.695831,659.590088 201.135391,657.188782 188.970428,649.599976   C175.869080,641.427124 168.589645,625.067322 170.438736,609.682983   C173.337982,585.561523 185.097717,565.563354 199.638916,547.162170   C210.551315,533.353149 223.023712,520.776855 235.071091,507.266724   C235.210510,506.903015 235.080444,506.924347 234.950363,506.945679   C223.617676,509.473969 212.282898,511.993011 200.954178,514.539124   C198.885559,515.004028 196.841766,515.579468 194.201035,515.114502   C201.749435,509.602631 209.132843,503.846436 216.873795,498.619751   C257.841309,470.958588 301.158630,448.214478 349.622742,436.657166   C372.007477,431.319000 394.599487,429.346710 417.306580,434.980804   C430.381500,438.224976 444.285950,445.928009 450.632568,453.755188   C429.050751,466.979706 407.569489,480.142609 385.565613,493.180542   C384.918671,492.932983 384.794281,492.810425 384.669922,492.687836  z"/>
<path fill="#72253D" opacity="1.000000" stroke="none" d=" M385.219849,493.248871   C385.066162,493.562561 384.735687,493.682953 384.405212,493.803375   C384.377899,493.559235 384.350586,493.315125 384.496582,492.879395   C384.794281,492.810425 384.918671,492.932983 385.219849,493.248871  z"/>
<path fill="#72253D" opacity="1.000000" stroke="none" d=" M410.605286,577.635376   C410.306458,577.660278 410.198822,577.544189 410.091187,577.427979   C410.326263,577.450134 410.561340,577.472290 410.605286,577.635376  z"/>
<path fill="#070603" opacity="1.000000" stroke="none" d=" M265.990845,285.949036   C267.367889,296.767853 268.699982,307.143860 270.079987,317.892944   C265.348114,317.892944 260.952332,317.892944 255.963806,317.892944   C258.130920,300.167084 260.281189,282.578918 262.431458,264.990753   C262.710602,264.947205 262.989716,264.903656 263.268829,264.860107   C264.161163,271.742157 265.053497,278.624176 265.990845,285.949036  z"/>
<path fill="#0B0905" opacity="1.000000" stroke="none" d=" M138.006393,290.871246   C139.098648,282.018799 140.142334,273.616577 141.372345,263.714478   C141.995941,266.235748 142.388153,267.341980 142.533035,268.479675   C144.528076,284.143921 146.408203,299.823395 148.520370,315.471619   C148.995300,318.990173 147.703079,319.917023 144.513443,319.805481   C134.207397,319.445190 134.011581,321.991180 135.684067,310.130951   C136.565765,303.878540 137.207657,297.592377 138.006393,290.871246  z"/>
<path fill="#040302" opacity="1.000000" stroke="none" d=" M474.649353,288.681458   C472.240753,290.402710 470.126770,291.909058 467.333374,293.899536   C467.333374,282.565643 467.333374,272.098083 467.333374,261.062073   C471.763824,261.062073 476.247223,260.665802 480.592682,261.266876   C482.217102,261.491577 483.674927,263.927765 484.891541,265.588013   C485.365265,266.234528 484.809235,267.550323 484.986847,268.512390   C486.687042,277.721008 483.714722,284.544159 474.649353,288.681458  z"/>
<path fill="#100D08" opacity="1.000000" stroke="none" d=" M362.484192,186.465149   C363.007812,182.631836 363.457123,179.236359 363.906464,175.840866   C364.188171,175.844650 364.469879,175.848434 364.751617,175.852203   C365.743744,183.578415 366.735870,191.304611 367.786407,199.485641   C365.576843,199.485641 363.564606,199.485641 360.975159,199.485641   C361.451996,195.303757 361.930969,191.103378 362.484192,186.465149  z"/>
<path fill="#010100" opacity="1.000000" stroke="none" d=" M424.685486,172.954971   C426.171051,172.914215 427.854187,172.417450 429.089996,172.952972   C430.500702,173.564285 432.497253,175.055344 432.544495,176.232086   C432.961823,186.630997 433.069031,197.044647 433.128693,207.454727   C433.163300,213.492172 428.365265,210.082474 425.243652,210.559052   C424.693695,197.715561 424.689606,185.335266 424.685486,172.954971  z"/>
<path fill="#CEAD67" opacity="1.000000" stroke="none" d=" M424.325500,173.108215   C424.689606,185.335266 424.693695,197.715561 424.789978,210.558640   C424.250488,210.041779 423.080109,209.067947 423.069519,208.081619   C422.950378,197.012009 422.996582,185.940399 423.061157,174.869690   C423.064301,174.331879 423.650665,173.797455 424.325500,173.108215  z"/>
<path fill="#B4975A" opacity="1.000000" stroke="none" d=" M234.968353,506.965271   C235.080444,506.924347 235.210510,506.903015 235.183167,506.951172   C235.025742,507.020630 234.986359,506.984863 234.968353,506.965271  z"/>
</svg>