<?xml version="1.0" encoding="UTF-8"?>
<svg xmlns="http://www.w3.org/2000/svg" xmlns:xlink="http://www.w3.org/1999/xlink" width="300px" height="300px" viewBox="0 0 300 300" version="1.1">
<g id="surface1">
<path style=" stroke:none;fill-rule:nonzero;fill:rgb(100%,100%,100%);fill-opacity:1;" d="M 289.304688 153.765625 C 291.046875 149.722656 297.582031 134.234375 297.582031 134.234375 L 270 148.882812 C 269.855469 149.023438 261.726562 153.210938 250.113281 158.09375 C 256.523438 142.765625 261.902344 127.058594 266.226562 111.070312 C 275.953125 75.488281 281.175781 36.277344 281.324219 34.605469 L 283.5 18.835938 C 283.5 18.835938 231.53125 32.652344 226.597656 33.90625 C 208.160156 12.558594 179.710938 0 149.953125 0 C 119.902344 0 91.453125 12.699219 73.015625 34.1875 C 67.933594 32.789062 15.96875 18.835938 15.96875 18.835938 L 18.144531 34.605469 C 18.144531 35.164062 23.660156 75.347656 33.824219 111.488281 C 38.351562 126.933594 43.777344 142.117188 50.082031 156.976562 C 37.742188 151.8125 27.289062 147.210938 27 147.070312 L 1.453125 135.347656 C 1.453125 135.347656 7.546875 150.140625 9.289062 154.1875 C 8.855469 154.1875 0 150.835938 0 150.835938 L 8.566406 172.882812 L 8.566406 172.746094 C 9.144531 174.417969 12.773438 183.765625 40.355469 255.070312 L 44.273438 264.835938 C 44.273438 264.835938 50.371094 262.882812 52.257812 262.324219 C 53.710938 266.234375 57.773438 276.558594 57.773438 276.558594 L 68.953125 271.117188 C 77.371094 266.929688 95.660156 259.8125 110.324219 257.582031 C 127.886719 280.605469 141.53125 292.605469 142.257812 293.023438 L 149.804688 299.582031 L 157.210938 293.023438 C 157.933594 292.464844 171.726562 280.046875 188.855469 257.722656 C 202.039062 259.582031 214.769531 263.695312 226.453125 269.859375 L 237.339844 275.582031 L 242.128906 264.699219 C 242.441406 263.742188 242.832031 262.808594 243.289062 261.90625 C 244.160156 262.046875 249.386719 263.859375 249.386719 263.859375 L 253.453125 254.09375 C 254.175781 252.140625 271.886719 212.652344 288.871094 174.417969 L 300.195312 149.023438 C 300.339844 149.023438 289.304688 153.765625 289.304688 153.765625 Z M 289.304688 153.765625 "/>
<path style=" stroke:none;fill-rule:nonzero;fill:rgb(0%,0%,0%);fill-opacity:1;" d="M 272.175781 152.789062 C 262.300781 157.789062 252.121094 162.214844 241.695312 166.046875 C 249.910156 147.875 256.65625 129.121094 261.871094 109.953125 C 271.597656 74.371094 276.824219 34.464844 276.96875 34.046875 L 278.128906 24.699219 L 268.695312 27.210938 C 268.695312 27.210938 152.417969 58.046875 149.082031 59.023438 C 145.742188 58.1875 21.339844 24.835938 21.339844 24.835938 L 22.644531 34.1875 C 22.644531 34.605469 28.015625 74.371094 38.175781 110.371094 C 44.417969 132.140625 51.53125 149.023438 58.5 164.929688 C 41.804688 158.652344 25.257812 151.117188 25.113281 150.976562 L 10.015625 144.140625 L 16.113281 158.929688 C 30.917969 194.511719 38.46875 214.046875 48.046875 238.882812 L 60.242188 270.558594 L 66.773438 267.347656 C 76.644531 262.605469 96.824219 254.929688 112.5 252.976562 C 130.355469 276.976562 144.582031 289.253906 145.304688 289.8125 L 149.660156 293.722656 L 154.015625 289.8125 C 154.742188 289.257812 169.113281 276.140625 186.675781 252.976562 C 204.96875 254.789062 220.644531 261.90625 228.628906 266.09375 L 235.160156 269.441406 L 237.917969 263.023438 C 245.175781 246.140625 281.03125 161.300781 281.46875 160.464844 L 288.433594 144 Z M 272.175781 152.789062 "/>
<path style=" stroke:none;fill-rule:nonzero;fill:rgb(100%,100%,100%);fill-opacity:1;" d="M 285.242188 156.835938 C 284.953125 156.976562 256.210938 168.699219 232.695312 174.277344 C 241.839844 154.046875 249.824219 135.765625 257.371094 108.835938 C 267.097656 73.535156 272.175781 33.90625 272.324219 33.488281 L 272.613281 30.699219 L 269.855469 31.394531 C 269.855469 31.394531 149.953125 63.210938 148.933594 63.488281 C 148.066406 63.210938 26.710938 30.699219 26.710938 30.699219 L 27 33.488281 C 27.144531 33.90625 32.515625 73.535156 42.53125 109.117188 C 49.210938 132.558594 56.902344 150.277344 64.453125 167.300781 C 64.453125 167.300781 65.757812 170.371094 66.917969 173.023438 C 46.597656 168.140625 19.015625 158.789062 18.726562 158.652344 L 14.804688 157.394531 L 16.257812 161.023438 C 28.304688 191.859375 34.546875 208.324219 41.082031 225.90625 L 54.289062 261.070312 L 56.03125 260.511719 C 75.082031 255.097656 94.546875 251.132812 114.242188 248.652344 C 131.804688 272.929688 148.066406 286.605469 148.210938 286.746094 L 149.515625 287.722656 L 150.824219 286.746094 C 163.261719 275.136719 174.535156 262.429688 184.5 248.789062 C 200.03125 249.765625 229.210938 256.1875 240.242188 260.234375 L 241.984375 260.929688 L 242.710938 259.253906 C 249.96875 242.511719 287.417969 160.046875 287.710938 159.347656 L 289.597656 155.023438 Z M 285.242188 156.835938 "/>
<path style=" stroke:none;fill-rule:nonzero;fill:rgb(76.862746%,80.784315%,83.137256%);fill-opacity:1;" d="M 226.160156 179.582031 L 227.757812 176.234375 C 237.917969 153.765625 245.902344 136.046875 253.597656 107.859375 C 261.726562 78.140625 266.804688 45.347656 268.113281 35.859375 C 262.742188 37.253906 149.515625 67.253906 149.515625 67.253906 L 148.933594 67.394531 C 148.933594 67.394531 36.726562 37.394531 31.210938 36 C 32.660156 45.628906 37.742188 78.417969 46.304688 108.417969 C 52.839844 131.582031 60.53125 149.023438 67.933594 166.046875 L 73.304688 178.464844 L 116.128906 244.882812 L 116.855469 245.859375 C 131.515625 266.511719 145.304688 279.347656 149.515625 282.976562 C 153.582031 279.347656 166.933594 266.511719 182.03125 246.140625 L 182.613281 245.300781 Z M 226.160156 179.582031 "/>
<path style=" stroke:none;fill-rule:nonzero;fill:rgb(0%,0%,0%);fill-opacity:1;" d="M 68.226562 139.253906 C 67.066406 137.722656 62.128906 130.1875 62.128906 117.628906 L 62.128906 116.511719 C 58.683594 107.53125 56.914062 98.035156 56.902344 88.464844 C 56.902344 65.164062 67.355469 44.09375 84.195312 28.746094 C 121.261719 -4.371094 178.640625 -4.371094 215.710938 28.746094 C 233.117188 44.101562 243.0625 65.75 243.144531 88.464844 C 243.164062 96.910156 241.742188 105.300781 238.933594 113.300781 C 239.011719 128.714844 234.367188 143.808594 225.582031 156.699219 C 225.054688 157.179688 224.46875 157.601562 223.839844 157.953125 L 223.695312 157.953125 C 223.546875 158.09375 223.546875 158.09375 223.546875 158.371094 C 223.546875 158.371094 223.257812 159.347656 222.96875 160.1875 L 223.257812 160.046875 L 222.824219 160.605469 C 206.070312 182.335938 179.542969 195.089844 151.402344 194.929688 C 112.644531 195.070312 79.839844 171.628906 68.226562 139.253906 Z M 68.226562 139.253906 "/>
<path style=" stroke:none;fill-rule:nonzero;fill:rgb(0%,49.019608%,77.254903%);fill-opacity:1;" d="M 275.660156 164.234375 C 275.082031 164.371094 216.433594 188.652344 149.082031 188.371094 C 89.855469 188.09375 22.644531 163.8125 22.066406 163.535156 L 7.984375 158.371094 L 13.066406 171.347656 C 13.066406 171.765625 13.066406 171.765625 44.855469 253.675781 L 47.175781 259.535156 L 53.417969 257.722656 C 84.347656 248.449219 116.539062 243.652344 148.933594 243.488281 C 190.015625 243.488281 225.871094 251.582031 240.675781 256.464844 L 246.917969 258.417969 L 249.386719 252.558594 C 250.402344 250.324219 271.160156 203.722656 284.953125 172.746094 L 291.773438 157.535156 Z M 275.660156 164.234375 "/>
<path style=" stroke:none;fill-rule:nonzero;fill:rgb(100%,100%,100%);fill-opacity:1;" d="M 276.242188 172.046875 L 270.289062 174.140625 C 270.289062 174.140625 257.082031 178.882812 256.933594 178.882812 C 253.605469 179.832031 250.496094 181.394531 247.789062 183.488281 C 246.351562 184.722656 245.082031 186.128906 244.015625 187.675781 C 244.179688 187.320312 244.277344 186.945312 244.304688 186.558594 L 246.195312 181.8125 L 241.113281 183.210938 L 229.066406 186.277344 C 227.902344 186.558594 219.628906 188.09375 217.160156 188.652344 L 214.402344 189.070312 L 200.324219 191.441406 C 199.597656 191.441406 194.226562 192.417969 191.324219 195.070312 C 190.742188 195.734375 190.210938 196.433594 189.726562 197.164062 L 190.597656 192.558594 L 186.96875 192.976562 L 175.644531 193.953125 L 175.210938 196.746094 C 174.910156 196.382812 174.566406 196.058594 174.195312 195.765625 C 172.015625 194.234375 168.386719 194.234375 167.371094 194.371094 L 150.675781 194.789062 L 137.175781 194.652344 C 134.324219 194.757812 131.578125 195.734375 129.339844 197.441406 C 128.902344 197.859375 128.613281 198.417969 128.175781 198.835938 L 128.175781 196.324219 L 128.03125 194.09375 C 128.03125 194.09375 114.386719 192.835938 113.953125 192.835938 L 97.402344 190.882812 L 98.128906 194.371094 L 98.273438 195.347656 C 94.5 191.164062 88.695312 189.765625 88.402344 189.628906 C 88.257812 189.628906 71.417969 186 71.417969 186 L 72.582031 190.1875 L 73.304688 193.253906 C 72.886719 192.429688 72.402344 191.636719 71.855469 190.882812 C 69.523438 187.71875 66.226562 185.328125 62.417969 184.046875 C 58.210938 182.652344 49.789062 180.699219 49.5 180.699219 L 44.710938 179.582031 C 40.355469 177.765625 30.628906 174.835938 27.433594 173.722656 L 22.066406 172.046875 L 24.097656 177.210938 L 51.96875 249.488281 C 51.96875 249.488281 63 246.558594 63.582031 246.417969 C 63.582031 246.417969 75.046875 243.765625 75.917969 243.628906 C 76.355469 243.488281 87.96875 241.535156 87.96875 241.535156 L 87.96875 241.394531 C 91.160156 240.976562 97.546875 240 98.128906 240 C 98.710938 239.859375 104.226562 239.023438 107.417969 238.746094 L 119.03125 237.628906 C 120.195312 237.488281 123.96875 237.210938 126 235.535156 C 126.722656 235.074219 127.320312 234.449219 127.742188 233.722656 L 127.886719 236.789062 L 141.675781 236.371094 C 142.257812 236.234375 145.886719 235.953125 148.210938 233.722656 C 148.535156 233.425781 148.828125 233.097656 149.082031 232.746094 L 148.933594 236.234375 C 148.933594 236.234375 159.53125 236.511719 160.113281 236.511719 L 172.597656 236.789062 L 181.597656 237.488281 L 193.066406 238.746094 C 195.871094 238.957031 198.679688 238.425781 201.195312 237.210938 C 201.484375 236.929688 201.773438 236.789062 202.066406 236.511719 L 201.195312 239.722656 L 212.804688 241.675781 L 212.804688 241.535156 C 213.242188 241.675781 221.371094 243.070312 223.257812 243.347656 L 224.417969 243.765625 C 224.710938 243.765625 230.515625 245.164062 234.871094 244.605469 C 240.242188 244.046875 245.757812 239.859375 248.226562 234.417969 L 259.839844 208.882812 C 259.984375 208.324219 276.242188 172.046875 276.242188 172.046875 Z M 276.242188 172.046875 "/>
<path style=" stroke:none;fill-rule:nonzero;fill:rgb(0%,0%,0%);fill-opacity:1;" d="M 173.03125 234.277344 L 180.289062 234.835938 L 187.257812 195.628906 L 177.96875 196.464844 Z M 173.03125 234.277344 "/>
<path style=" stroke:none;fill-rule:nonzero;fill:rgb(0%,0%,0%);fill-opacity:1;" d="M 203.226562 198.558594 L 199.742188 212.511719 L 208.742188 212.371094 L 214.839844 191.859375 L 200.757812 194.09375 C 200.757812 194.09375 195.675781 194.929688 193.355469 197.164062 C 190.160156 200.234375 189.433594 205.8125 189.433594 205.8125 L 183.773438 235.117188 L 192.773438 236.09375 C 195.0625 236.300781 197.367188 235.914062 199.453125 234.976562 C 201.628906 234 202.933594 231.628906 203.660156 229.535156 C 204.386719 227.441406 206.566406 219.070312 206.566406 219.070312 L 198.289062 219.070312 L 196.402344 227.441406 C 196.15625 228.597656 195.664062 229.691406 194.953125 230.652344 C 194 231.671875 192.597656 232.191406 191.175781 232.046875 L 197.128906 205.953125 C 197.652344 204.050781 198.433594 202.222656 199.453125 200.511719 C 200.285156 199.289062 201.703125 198.550781 203.226562 198.558594 Z M 203.226562 198.558594 "/>
<path style=" stroke:none;fill-rule:nonzero;fill:rgb(0%,0%,0%);fill-opacity:1;" d="M 218.902344 213.210938 L 226.597656 189.488281 L 218.613281 191.164062 L 204.675781 237.488281 L 210.917969 238.324219 L 217.453125 218.652344 L 219.339844 218.511719 C 219.339844 218.511719 220.644531 218.929688 220.644531 220.046875 C 220.589844 220.90625 220.394531 221.753906 220.066406 222.558594 L 214.546875 238.882812 L 221.804688 240.277344 L 227.902344 223.253906 C 228.417969 221.917969 228.664062 220.496094 228.628906 219.070312 C 228.488281 217.714844 227.988281 216.417969 227.175781 215.300781 C 227.175781 215.300781 228.628906 215.300781 230.660156 213.347656 C 232.695312 211.535156 232.695312 210 233.128906 208.605469 C 233.710938 207.210938 241.839844 185.859375 241.839844 185.859375 L 231.242188 188.371094 L 225.144531 207.488281 C 224.863281 208.675781 224.371094 209.808594 223.695312 210.835938 C 222.675781 212.234375 221.953125 212.789062 221.371094 212.789062 C 220.574219 213.042969 219.742188 213.183594 218.902344 213.210938 Z M 218.902344 213.210938 "/>
<path style=" stroke:none;fill-rule:nonzero;fill:rgb(0%,0%,0%);fill-opacity:1;" d="M 255.339844 189.765625 L 248.515625 207.347656 L 257.804688 206.929688 L 271.160156 176.789062 L 257.804688 181.394531 C 254.816406 182.320312 252.015625 183.734375 249.53125 185.582031 C 246.761719 188.28125 244.460938 191.390625 242.710938 194.789062 C 241.984375 196.464844 238.933594 203.023438 238.5 205.117188 C 237.917969 207.210938 233.417969 218.789062 233.417969 218.789062 L 244.015625 218.789062 L 239.515625 230.371094 C 239.089844 232.089844 238.300781 233.707031 237.195312 235.117188 C 236.136719 236.371094 234.640625 237.214844 232.984375 237.488281 L 238.933594 222.699219 L 232.402344 222.699219 L 225.289062 241.117188 C 228.316406 241.894531 231.449219 242.222656 234.582031 242.09375 C 238.789062 241.675781 243.582031 238.464844 245.757812 233.441406 C 248.082031 228.558594 255.628906 211.675781 255.628906 211.675781 L 243 212.371094 L 246.917969 201.628906 C 246.917969 201.628906 249.53125 195.347656 251.417969 193.253906 C 252.5 191.878906 253.828125 190.699219 255.339844 189.765625 Z M 255.339844 189.765625 "/>
<path style=" stroke:none;fill-rule:nonzero;fill:rgb(0%,0%,0%);fill-opacity:1;" d="M 26.566406 176.234375 L 53.710938 246.277344 L 61.695312 244.046875 L 41.515625 187.394531 C 41.515625 187.394531 44.566406 187.675781 47.175781 192.140625 C 49.125 195.484375 50.632812 199.046875 51.675781 202.746094 C 52.402344 205.535156 65.175781 243.347656 65.175781 243.347656 L 73.304688 241.535156 L 57.773438 191.722656 C 57.773438 191.722656 59.660156 191.722656 61.695312 195.070312 C 62.886719 197.011719 63.859375 199.070312 64.597656 201.210938 L 76.5 240.976562 L 84.339844 239.441406 L 74.324219 202.605469 C 74.324219 202.605469 72 196.046875 69.53125 192.699219 C 67.601562 189.875 64.738281 187.761719 61.402344 186.699219 C 57.484375 185.441406 48.773438 183.210938 48.773438 183.210938 L 50.082031 186.976562 C 48.421875 185.238281 46.515625 183.734375 44.417969 182.511719 C 42.242188 181.257812 26.566406 176.234375 26.566406 176.234375 Z M 26.566406 176.234375 "/>
<path style=" stroke:none;fill-rule:nonzero;fill:rgb(0%,0%,0%);fill-opacity:1;" d="M 90.144531 214.605469 L 85.789062 196.464844 C 87.277344 196.824219 88.664062 197.492188 89.855469 198.417969 C 91.453125 199.8125 91.886719 203.722656 91.886719 203.722656 L 94.066406 214.605469 Z M 99.144531 236.929688 L 105.96875 236.09375 L 100.160156 206.929688 C 100.160156 206.929688 98.855469 200.511719 97.113281 197.859375 C 94.066406 193.535156 87.675781 191.859375 87.675781 191.859375 L 75.195312 189.488281 L 88.113281 238.605469 L 95.804688 237.488281 L 91.015625 219.070312 L 95.515625 219.070312 Z M 99.144531 236.929688 "/>
<path style=" stroke:none;fill-rule:nonzero;fill:rgb(0%,0%,0%);fill-opacity:1;" d="M 100.886719 193.953125 L 109.597656 235.8125 L 118.742188 234.835938 C 118.742188 234.835938 123.097656 234.699219 124.257812 233.722656 C 125.734375 232.601562 126.632812 230.921875 126.726562 229.117188 L 125.710938 196.464844 L 116.710938 195.628906 L 119.902344 226.464844 C 119.902344 226.464844 120.195312 229.253906 118.742188 230.652344 C 118.101562 231.382812 117.117188 231.75 116.128906 231.628906 L 111.484375 195.070312 Z M 100.886719 193.953125 "/>
<path style=" stroke:none;fill-rule:nonzero;fill:rgb(0%,0%,0%);fill-opacity:1;" d="M 130.5 234 L 141.386719 233.582031 C 143.195312 233.414062 144.914062 232.734375 146.324219 231.628906 C 147.476562 230.316406 148.230469 228.722656 148.5 227.023438 L 148.644531 221.164062 L 141.242188 221.164062 L 141.386719 227.023438 C 141.480469 228.027344 141.171875 229.027344 140.515625 229.8125 C 139.789062 230.511719 137.324219 230.511719 137.324219 230.511719 L 137.324219 218.652344 L 148.644531 218.652344 L 148.933594 215.164062 L 137.175781 215.164062 L 137.175781 204.835938 C 137.09375 204.003906 137.414062 203.179688 138.046875 202.605469 C 139.042969 202.003906 140.222656 201.757812 141.386719 201.90625 L 141.386719 212.511719 L 149.226562 212.511719 L 150.242188 197.300781 L 137.175781 197.023438 C 135.0625 197.128906 133.035156 197.859375 131.371094 199.117188 C 128.613281 201.488281 129.046875 206.929688 129.046875 206.929688 Z M 130.5 234 "/>
<path style=" stroke:none;fill-rule:nonzero;fill:rgb(0%,0%,0%);fill-opacity:1;" d="M 165.195312 202.882812 L 164.613281 212.09375 C 164.605469 212.738281 164.402344 213.367188 164.03125 213.90625 C 163.742188 214.292969 163.335938 214.585938 162.871094 214.746094 L 160.257812 214.605469 L 160.984375 201.070312 L 162.871094 200.929688 C 163.433594 200.917969 163.988281 201.0625 164.46875 201.347656 C 165.195312 201.628906 165.195312 202.882812 165.195312 202.882812 Z M 172.453125 198.417969 C 171 197.023438 167.515625 197.164062 167.515625 197.164062 L 153.289062 197.582031 L 151.839844 233.582031 L 158.953125 233.722656 L 159.824219 218.929688 C 159.824219 218.929688 162.144531 218.234375 163.304688 219.765625 C 163.742188 220.378906 163.949219 221.121094 163.886719 221.859375 L 163.015625 233.722656 L 169.984375 234.140625 L 171.289062 222.140625 C 171.53125 220.925781 171.429688 219.675781 171 218.511719 C 170.539062 217.664062 169.761719 217.015625 168.824219 216.699219 C 168.824219 216.699219 169.839844 216.699219 171.289062 215.164062 C 172.277344 214.023438 172.839844 212.597656 172.886719 211.117188 L 173.757812 202.746094 C 173.613281 202.746094 174.046875 199.953125 172.453125 198.417969 Z M 172.453125 198.417969 "/>
<path style=" stroke:none;fill-rule:nonzero;fill:rgb(0%,0%,0%);fill-opacity:1;" d="M 166.355469 249.90625 L 175.210938 247.8125 L 166.210938 246.976562 C 165.773438 246.976562 157.355469 246.277344 153.144531 246.277344 C 152.566406 244.605469 148.933594 234.140625 148.933594 234.140625 L 147.484375 238.1875 C 147.339844 238.464844 145.453125 243.488281 144.433594 246.277344 C 139.5 246.277344 132.96875 246.835938 132.824219 246.835938 L 123.242188 247.8125 L 132.53125 249.765625 C 135.433594 250.324219 141.242188 252.277344 141.675781 254.652344 C 140.953125 257.441406 139.066406 262.324219 139.066406 262.324219 L 137.175781 266.789062 C 137.175781 266.789062 147.339844 259.953125 148.789062 259.117188 C 150.242188 259.953125 160.113281 266.652344 160.113281 266.652344 C 160.113281 266.652344 156.046875 255.347656 155.757812 254.371094 C 156.773438 252.976562 161.855469 250.882812 166.355469 249.90625 Z M 166.355469 249.90625 "/>
<path style=" stroke:none;fill-rule:nonzero;fill:rgb(100%,100%,100%);fill-opacity:1;" d="M 153.289062 254.234375 C 154.015625 251.859375 158.226562 250.046875 161.566406 248.929688 C 158.226562 248.652344 154.015625 248.371094 151.839844 248.371094 L 151.402344 248.371094 C 151.402344 248.371094 149.660156 243.765625 148.789062 241.394531 C 148.066406 243.488281 146.902344 246.558594 146.46875 247.953125 L 146.324219 248.511719 L 145.742188 248.511719 C 143.417969 248.511719 140.082031 248.652344 137.613281 248.789062 C 140.515625 250.046875 144 251.859375 144.433594 254.511719 L 144.433594 254.929688 C 144 256.464844 143.128906 259.117188 142.402344 260.929688 C 144.726562 259.253906 148.933594 256.464844 148.933594 256.464844 C 148.933594 256.464844 153.433594 259.394531 155.757812 260.929688 C 154.742188 258.558594 153.289062 254.652344 153.289062 254.652344 Z M 153.289062 254.234375 "/>
<path style=" stroke:none;fill-rule:nonzero;fill:rgb(100%,100%,100%);fill-opacity:1;" d="M 61.695312 88.605469 C 61.695312 44.511719 101.324219 8.652344 149.953125 8.652344 C 198.582031 8.652344 238.210938 44.511719 238.210938 88.605469 C 238.210938 132.558594 198.726562 168.417969 149.953125 168.417969 C 101.324219 168.417969 61.695312 132.558594 61.695312 88.605469 Z M 61.695312 88.605469 "/>
<path style=" stroke:none;fill-rule:nonzero;fill:rgb(0%,0%,0%);fill-opacity:1;" d="M 96.675781 41.164062 L 100.304688 38.234375 C 102.773438 36.417969 103.5 33.90625 102.195312 32.371094 C 100.453125 30.277344 97.695312 30.976562 94.789062 33.070312 L 91.886719 35.441406 Z M 96.386719 34.882812 L 96.53125 34.746094 C 97.695312 33.90625 98.566406 33.765625 99.289062 34.605469 C 99.871094 35.300781 99.433594 36.277344 98.417969 36.976562 L 98.273438 37.257812 Z M 96.386719 34.882812 "/>
<path style=" stroke:none;fill-rule:nonzero;fill:rgb(0%,0%,0%);fill-opacity:1;" d="M 118.597656 26.789062 L 121.210938 25.675781 L 121.933594 26.371094 L 125.710938 24.835938 L 119.324219 19.535156 L 115.402344 20.929688 L 114.96875 29.023438 L 118.742188 27.628906 Z M 118.453125 24.835938 L 118.304688 22.605469 L 118.304688 22.464844 C 118.503906 22.777344 118.75 23.058594 119.03125 23.300781 L 119.902344 24.277344 Z M 118.453125 24.835938 "/>
<path style=" stroke:none;fill-rule:nonzero;fill:rgb(0%,0%,0%);fill-opacity:1;" d="M 137.03125 15.070312 L 140.804688 14.652344 L 141.386719 19.535156 L 144.582031 19.253906 L 144.871094 21.628906 L 137.902344 22.324219 Z M 137.03125 15.070312 "/>
<path style=" stroke:none;fill-rule:nonzero;fill:rgb(0%,0%,0%);fill-opacity:1;" d="M 158.660156 14.652344 L 162.582031 15.210938 L 161.710938 20.09375 L 164.902344 20.511719 L 164.46875 22.882812 L 157.644531 21.90625 Z M 158.660156 14.652344 "/>
<path style=" stroke:none;fill-rule:nonzero;fill:rgb(0%,0%,0%);fill-opacity:1;" d="M 180.433594 26.511719 L 183.046875 27.628906 L 182.902344 28.605469 L 186.675781 30.277344 L 186.242188 22.046875 L 182.324219 20.511719 L 175.933594 25.8125 L 179.710938 27.488281 Z M 181.742188 25.253906 L 183.339844 23.441406 L 183.339844 23.582031 C 183.339844 24 183.195312 24.140625 183.195312 24.558594 L 183.046875 25.8125 Z M 181.742188 25.253906 "/>
<path style=" stroke:none;fill-rule:nonzero;fill:rgb(0%,0%,0%);fill-opacity:1;" d="M 199.304688 34.882812 L 199.453125 35.164062 C 199.746094 35.890625 200.191406 36.554688 200.757812 37.117188 C 201.046875 37.394531 201.628906 37.675781 201.773438 37.394531 C 201.917969 37.117188 201.628906 36.699219 201.484375 36.558594 L 200.902344 36 C 199.886719 34.882812 199.304688 33.765625 200.03125 32.789062 C 201.195312 31.535156 203.660156 32.09375 205.402344 33.488281 C 206.246094 34.222656 206.980469 35.070312 207.582031 36 L 205.546875 36.835938 C 205.238281 36.160156 204.734375 35.578125 204.097656 35.164062 C 203.953125 34.882812 203.371094 34.605469 203.226562 34.882812 C 203.082031 35.164062 203.371094 35.441406 203.660156 35.722656 L 204.097656 36.277344 C 205.257812 37.394531 205.695312 38.652344 204.824219 39.628906 C 203.660156 40.882812 201.339844 40.1875 199.597656 38.789062 C 198.503906 38.019531 197.609375 37.015625 196.984375 35.859375 Z M 199.304688 34.882812 "/>
<path style=" stroke:none;fill-rule:nonzero;fill:rgb(0%,0%,0%);fill-opacity:1;" d="M 223.984375 68.09375 C 223.402344 67.675781 222.242188 66.976562 222.242188 66.976562 C 222.003906 66.839844 221.804688 66.648438 221.660156 66.417969 C 221.546875 65.746094 221.351562 65.09375 221.082031 64.464844 C 213.414062 55 203.707031 47.242188 192.628906 41.722656 C 191.425781 41.222656 190.15625 40.890625 188.855469 40.742188 C 188.585938 40.738281 188.328125 40.640625 188.128906 40.464844 C 187.183594 39.546875 186.046875 38.832031 184.789062 38.371094 C 174.144531 34.203125 162.753906 32.070312 151.257812 32.09375 C 147.714844 32.113281 144.175781 32.34375 140.660156 32.789062 L 145.304688 26.789062 C 127.015625 26.234375 113.804688 40.046875 113.804688 40.046875 C 109.429688 41.972656 105.207031 44.210938 101.175781 46.746094 C 95.679688 48.507812 91.203125 52.402344 88.839844 57.488281 C 86.371094 59.300781 81.582031 65.441406 81.582031 65.441406 C 80.457031 66.15625 79.390625 66.949219 78.386719 67.8125 C 74.160156 72.195312 71.25 77.597656 69.96875 83.441406 C 69.855469 83.554688 69.804688 83.707031 69.824219 83.859375 C 69.675781 84.277344 69.675781 84.835938 69.53125 85.394531 C 69.386719 86.511719 69.097656 87.488281 68.953125 88.605469 L 69.097656 88.464844 C 69.105469 88.617188 69.050781 88.765625 68.953125 88.882812 C 68.304688 90.617188 67.773438 92.386719 67.355469 94.1875 C 67.210938 94.882812 64.597656 102.140625 64.597656 102.140625 C 58.066406 124.1875 66.773438 137.441406 68.226562 139.535156 C 79.839844 171.90625 112.644531 195.070312 151.113281 195.070312 C 179.257812 195.257812 205.800781 182.5 222.53125 160.746094 C 222.847656 160.082031 223.042969 159.375 223.113281 158.652344 C 223.144531 158.367188 223.304688 158.113281 223.546875 157.953125 C 224.710938 157.394531 225.144531 156.976562 225.144531 156.835938 C 233.933594 143.945312 238.578125 128.855469 238.5 113.441406 C 238.707031 97.238281 233.632812 81.378906 223.984375 68.09375 Z M 223.984375 68.09375 "/>
<path style=" stroke:none;fill-rule:nonzero;fill:rgb(100%,100%,100%);fill-opacity:1;" d="M 114.675781 52.1875 C 114.824219 51.90625 115.113281 51.765625 115.257812 51.628906 L 115.695312 51.210938 L 115.839844 51.210938 C 115.84375 48.667969 116.183594 46.132812 116.855469 43.675781 C 124.839844 33.070312 137.902344 30.277344 137.902344 30.277344 C 139.5 29.722656 138.484375 30.417969 138.484375 30.417969 C 130.210938 39.347656 131.082031 46.605469 131.082031 46.605469 L 139.066406 74.09375 C 139.066406 74.09375 132.675781 71.859375 127.742188 62.371094 C 125.417969 81.628906 144.433594 97.253906 144.433594 97.253906 C 145.160156 97.953125 143.855469 97.117188 143.855469 97.117188 C 139.210938 94.882812 133.695312 90 132.242188 88.746094 C 132.53125 90.277344 141.824219 134.652344 141.96875 134.929688 C 142.019531 135.222656 142.117188 135.503906 142.257812 135.765625 L 145.304688 128.234375 L 148.066406 150.699219 C 135.871094 161.441406 123.097656 157.253906 122.371094 156.976562 C 122.53125 157.203125 122.675781 157.433594 122.804688 157.675781 C 122.804688 157.675781 133.257812 177.210938 175.789062 175.253906 C 175.789062 175.253906 176.804688 175.253906 176.660156 175.394531 C 175.710938 175.742188 175.027344 175.882812 174.339844 175.953125 C 123.097656 189.070312 96.53125 147.210938 95.371094 145.394531 C 93.734375 143.15625 92.328125 140.773438 91.160156 138.277344 C 91.160156 138.140625 91.160156 137.859375 91.304688 138.140625 C 91.304688 138.140625 96.675781 143.441406 112.210938 144.835938 L 112.355469 144.835938 C 100.453125 132.277344 95.371094 123.070312 94.644531 121.675781 C 94.644531 121.675781 93.195312 119.582031 91.453125 113.722656 C 91.453125 113.722656 91.597656 113.441406 91.597656 113.722656 C 92.175781 114.835938 96.242188 120.417969 101.03125 121.675781 C 96.96875 115.394531 94.355469 105.488281 94.066406 104.09375 C 99.582031 111.488281 109.453125 112.046875 109.453125 112.046875 L 109.304688 112.046875 C 93.195312 96.558594 96.675781 79.8125 103.210938 67.675781 C 106.242188 62.011719 110.105469 56.796875 114.675781 52.1875 Z M 114.675781 52.1875 "/>
<path style=" stroke:none;fill-rule:nonzero;fill:rgb(76.862746%,80.784315%,83.137256%);fill-opacity:1;" d="M 162.871094 154.1875 L 152.273438 164.789062 L 165.339844 155.164062 L 158.515625 132.835938 L 161.566406 106.046875 L 156.339844 131.582031 Z M 162.871094 154.1875 "/>
<path style=" stroke:none;fill-rule:nonzero;fill:rgb(76.862746%,80.784315%,83.137256%);fill-opacity:1;" d="M 160.257812 99.765625 C 160.476562 99.734375 160.679688 99.636719 160.839844 99.488281 C 161.949219 98.933594 162.933594 98.175781 163.742188 97.253906 C 166.621094 94.382812 168.144531 90.496094 167.953125 86.511719 C 167.910156 83.667969 167.417969 80.84375 166.5 78.140625 C 166.355469 81.90625 165.195312 95.722656 160.257812 99.765625 Z M 160.257812 99.765625 "/>
<path style=" stroke:none;fill-rule:nonzero;fill:rgb(76.862746%,80.784315%,83.137256%);fill-opacity:1;" d="M 165.195312 54.140625 C 168.824219 48.835938 174.917969 48.417969 177.53125 48.417969 C 175.566406 47.789062 173.507812 47.457031 171.433594 47.441406 C 169.308594 47.398438 167.195312 47.730469 165.195312 48.417969 C 164.03125 48.835938 163.304688 49.117188 163.015625 49.253906 C 163.847656 50.839844 164.574219 52.46875 165.195312 54.140625 Z M 165.195312 54.140625 "/>
<path style=" stroke:none;fill-rule:nonzero;fill:rgb(76.862746%,80.784315%,83.137256%);fill-opacity:1;" d="M 155.902344 68.371094 L 156.046875 68.234375 Z M 160.402344 65.441406 L 160.546875 67.117188 C 160.546875 78.558594 157.5 91.117188 156.195312 95.582031 C 160.0625 87.140625 162.042969 78.011719 162 68.789062 C 162.007812 65.425781 161.71875 62.0625 161.128906 58.746094 C 160.988281 57.757812 160.796875 56.78125 160.546875 55.8125 C 159.386719 64.464844 155.902344 68.371094 155.902344 68.371094 L 155.757812 68.511719 C 155.613281 68.511719 155.613281 68.511719 155.46875 68.371094 C 152.195312 62.765625 147.921875 57.757812 142.839844 53.582031 C 140.800781 51.847656 138.558594 50.351562 136.160156 49.117188 C 146.902344 71.441406 150.097656 88.605469 150.96875 94.324219 L 150.96875 92.371094 C 150.769531 85.433594 149.945312 78.523438 148.5 71.722656 C 147.339844 65.722656 146.03125 61.394531 146.03125 61.394531 L 146.03125 61.117188 L 146.324219 61.117188 C 151.113281 64.746094 154.597656 74.929688 155.03125 76.882812 C 156.359375 74.972656 157.429688 72.910156 158.226562 70.746094 C 159.097656 68.09375 159.96875 65.582031 159.96875 65.582031 Z M 160.402344 65.441406 "/>
<path style=" stroke:none;fill-rule:nonzero;fill:rgb(76.862746%,80.784315%,83.137256%);fill-opacity:1;" d="M 69.96875 111.90625 C 69.96875 122.511719 71.855469 133.535156 81.433594 147.765625 C 90.582031 166.046875 107.128906 175.8125 114.96875 179.582031 C 117.582031 180.699219 119.175781 181.394531 119.175781 181.394531 C 129.871094 186.328125 141.574219 188.902344 153.433594 188.929688 C 169.523438 188.800781 185.214844 184.140625 198.582031 175.535156 C 200.902344 174 202.210938 173.023438 202.210938 173.023438 L 203.226562 172.046875 C 203.226562 172.1875 202.933594 172.324219 202.789062 172.324219 L 201.917969 172.882812 C 184.933594 182.371094 169.402344 185.300781 156.628906 185.300781 C 136.597656 185.300781 123.824219 178.1875 123.824219 178.1875 C 81.433594 156.976562 80.855469 120.140625 80.855469 120.140625 L 81.289062 120 C 86.660156 130.1875 93.339844 133.535156 96.242188 134.652344 C 96.5625 134.824219 96.90625 134.964844 97.257812 135.070312 C 84.917969 120.277344 81.433594 107.722656 81.433594 98.371094 C 81.433594 85.8125 87.675781 78.835938 87.675781 78.835938 L 87.824219 78.699219 C 87.210938 82.65625 86.820312 86.53125 86.804688 90.417969 C 86.75 94.617188 87.335938 98.800781 88.546875 102.835938 C 88.921875 103.929688 89.359375 105 89.855469 106.046875 C 89.453125 103.179688 89.261719 100.289062 89.273438 97.394531 C 89.253906 79.359375 96.664062 62.050781 109.886719 49.253906 C 107.128906 50.371094 103.933594 53.164062 101.324219 55.8125 C 98.417969 58.605469 96.097656 61.394531 96.097656 61.394531 L 95.953125 61.394531 C 95.804688 61.394531 95.804688 61.394531 95.804688 61.253906 C 96.042969 59.035156 96.785156 56.890625 97.984375 54.976562 C 95.742188 57.160156 93.921875 59.714844 92.613281 62.511719 C 91.730469 64.214844 91 65.988281 90.433594 67.8125 L 90.433594 67.953125 C 86.734375 72.078125 83.65625 76.679688 81.289062 81.628906 C 80.238281 83.742188 79.363281 85.9375 78.675781 88.1875 C 78.53125 88.746094 78.386719 89.023438 78.386719 89.164062 C 78.386719 89.164062 78.386719 89.300781 78.097656 89.300781 C 77.804688 89.300781 77.953125 89.164062 77.953125 89.023438 L 77.953125 88.882812 C 77.960938 88.597656 78.007812 88.316406 78.097656 88.046875 C 78.097656 82.746094 80.417969 77.023438 81.289062 74.789062 C 74.902344 81.347656 73.304688 90.417969 73.304688 97.535156 C 73.292969 101.574219 73.78125 105.605469 74.757812 109.535156 C 74.929688 114.078125 75.464844 118.605469 76.355469 123.070312 C 77.371094 127.253906 78.097656 130.324219 78.097656 130.324219 C 78.300781 130.773438 78.445312 131.242188 78.53125 131.722656 L 78.53125 131.859375 L 78.386719 131.859375 C 78.097656 131.859375 78.097656 131.722656 77.953125 131.582031 C 77.804688 131.582031 77.804688 131.441406 77.660156 131.164062 L 77.371094 130.605469 C 72.726562 123.90625 70.546875 113.023438 70.113281 110.371094 C 69.992188 110.875 69.945312 111.390625 69.96875 111.90625 Z M 69.96875 111.90625 "/>
<path style=" stroke:none;fill-rule:nonzero;fill:rgb(0%,49.019608%,77.254903%);fill-opacity:1;" d="M 212.660156 65.023438 C 212.660156 65.023438 192.046875 38.511719 153.289062 38.511719 L 152.417969 38.511719 C 152.191406 38.515625 151.980469 38.617188 151.839844 38.789062 C 151.839844 39.070312 152.128906 39.210938 152.417969 39.347656 C 155.546875 41.714844 158.460938 44.328125 161.128906 47.164062 L 161.128906 47.300781 L 161.273438 47.164062 C 162.070312 46.8125 162.894531 46.535156 163.742188 46.324219 C 165.921875 45.777344 168.164062 45.496094 170.417969 45.488281 C 174.78125 45.492188 179.074219 46.546875 182.902344 48.558594 C 180.871094 49.535156 171.289062 54.140625 169.113281 59.582031 L 169.257812 59.722656 C 169.257812 59.722656 178.984375 68.09375 199.015625 68.09375 C 202.511719 68.125 206.007812 67.890625 209.46875 67.394531 C 210.058594 67.382812 210.644531 67.289062 211.210938 67.117188 C 212.082031 66.835938 213.097656 66.558594 213.097656 65.582031 C 212.925781 65.414062 212.78125 65.226562 212.660156 65.023438 Z M 212.660156 65.023438 "/>
<path style=" stroke:none;fill-rule:nonzero;fill:rgb(0%,49.019608%,77.254903%);fill-opacity:1;" d="M 171 102.140625 C 170.855469 102 170.710938 102 170.710938 102.140625 C 170.566406 102.140625 170.566406 102.277344 170.710938 102.277344 C 170.925781 102.496094 171.117188 102.726562 171.289062 102.976562 C 172.453125 104.511719 174.628906 108.140625 174.628906 114.558594 C 174.488281 120.574219 172.953125 126.488281 170.128906 131.859375 C 170.097656 129.796875 169.855469 127.738281 169.402344 125.722656 C 168.675781 122.09375 167.371094 118.324219 164.324219 117.488281 L 164.03125 117.488281 L 162.289062 133.253906 L 168.824219 156.699219 L 155.902344 166.746094 C 155.757812 166.746094 155.757812 166.746094 155.757812 166.882812 C 160.355469 168.136719 164.949219 168.652344 169.546875 168.558594 C 175.0625 168.53125 180.554688 167.96875 185.953125 166.882812 C 186.886719 166.621094 187.640625 165.949219 187.984375 165.070312 C 188.988281 159.964844 189.472656 154.777344 189.433594 149.582031 C 189.582031 135.765625 186.53125 116.09375 171 102.140625 Z M 171 102.140625 "/>
<path style=" stroke:none;fill-rule:nonzero;fill:rgb(0%,49.019608%,77.254903%);fill-opacity:1;" d="M 192.339844 165.070312 C 192.046875 164.929688 192.046875 164.652344 192.046875 164.234375 L 192.046875 163.535156 C 192.507812 161.835938 192.847656 160.113281 193.066406 158.371094 C 193.777344 154.082031 194.117188 149.742188 194.082031 145.394531 C 194.082031 131.300781 190.597656 111.628906 174.195312 96.417969 L 173.46875 95.859375 L 173.902344 95.582031 C 174.152344 95.582031 174.398438 95.628906 174.628906 95.722656 C 177.433594 96.617188 179.972656 98.148438 182.03125 100.1875 C 181.886719 99.488281 181.597656 97.953125 181.160156 96 C 180.105469 92.640625 178.382812 89.511719 176.082031 86.789062 L 175.644531 86.371094 C 175.5 86.09375 175.355469 86.09375 175.355469 85.8125 L 175.355469 85.535156 L 175.644531 85.535156 C 175.789062 85.535156 175.933594 85.675781 176.371094 85.953125 C 177.386719 86.371094 218.613281 105.488281 220.066406 144 L 220.066406 144.699219 C 220.140625 146.132812 219.617188 147.539062 218.613281 148.605469 C 218.175781 149.023438 208.453125 160.746094 193.933594 165.070312 C 193.675781 165.230469 193.375 165.328125 193.066406 165.347656 C 192.917969 165.347656 192.484375 165.347656 192.339844 165.070312 Z M 192.339844 165.070312 "/>
<path style=" stroke:none;fill-rule:nonzero;fill:rgb(0%,49.019608%,77.254903%);fill-opacity:1;" d="M 223.257812 136.882812 C 222.386719 105.070312 191.03125 83.441406 175.355469 74.511719 C 172.5625 72.832031 169.652344 71.339844 166.644531 70.046875 L 165.917969 69.765625 L 166.933594 69.765625 C 170.71875 69.78125 174.3125 71.359375 176.804688 74.09375 C 176.757812 72.71875 176.515625 71.355469 176.082031 70.046875 L 175.789062 69.628906 L 176.226562 69.765625 C 180.726562 71.441406 186.386719 72 192.046875 72 C 197.003906 71.957031 201.953125 71.582031 206.855469 70.882812 C 210.773438 70.464844 213.386719 69.90625 213.386719 69.90625 L 213.96875 69.90625 C 216.289062 69.90625 217.015625 71.164062 217.015625 71.300781 C 222.386719 77.023438 228.917969 90.140625 230.082031 105.90625 C 230.226562 107.859375 230.226562 109.8125 230.226562 111.628906 C 230.226562 123.488281 227.613281 132.699219 225.726562 136.464844 C 225 137.859375 224.417969 138.558594 223.839844 138.558594 C 223.402344 138.417969 223.257812 137.859375 223.257812 136.882812 Z M 223.257812 136.882812 "/>
<path style=" stroke:none;fill-rule:nonzero;fill:rgb(0%,0%,0%);fill-opacity:1;" d="M 132.824219 34.046875 L 132.96875 33.90625 C 132.53125 34.046875 123.96875 36.558594 121.5 48.835938 C 121.5 48.835938 121.5 49.117188 121.644531 48.835938 C 122.371094 47.722656 124.984375 43.8125 127.453125 44.929688 L 127.453125 44.652344 C 127.597656 43.675781 128.46875 39.347656 132.824219 34.046875 Z M 132.824219 34.046875 "/>
<path style=" stroke:none;fill-rule:nonzero;fill:rgb(0%,0%,0%);fill-opacity:1;" d="M 126.433594 145.8125 C 124.546875 142.324219 112.789062 117.628906 112.789062 117.628906 C 109.160156 118.882812 104.660156 115.953125 104.660156 115.953125 C 110.46875 130.605469 124.113281 143.441406 126.289062 145.8125 C 126.582031 146.234375 126.582031 146.09375 126.582031 146.09375 C 126.433594 146.09375 126.433594 145.8125 126.433594 145.8125 Z M 126.433594 145.8125 "/>
<path style=" stroke:none;fill-rule:nonzero;fill:rgb(0%,0%,0%);fill-opacity:1;" d="M 114.675781 65.722656 C 104.082031 88.882812 127.886719 98.511719 128.324219 98.652344 L 127.015625 93.210938 L 126.289062 90.277344 C 125.738281 89.988281 125.152344 89.753906 124.546875 89.582031 C 124.402344 89.582031 124.257812 89.441406 124.113281 89.300781 C 123.84375 89.296875 123.585938 89.199219 123.386719 89.023438 C 112.933594 83.722656 113.953125 71.023438 114.675781 66.835938 L 114.675781 66.417969 C 114.777344 66.148438 114.824219 65.867188 114.824219 65.582031 C 114.824219 65.300781 114.824219 65.582031 114.675781 65.722656 Z M 114.675781 65.722656 "/>
<path style=" stroke:none;fill-rule:nonzero;fill:rgb(76.862746%,80.784315%,83.137256%);fill-opacity:1;" d="M 130.355469 131.023438 L 128.613281 101.859375 L 138.917969 134.371094 C 138.917969 134.371094 135.582031 126.699219 130.355469 131.023438 Z M 130.355469 131.023438 "/>
<path style=" stroke:none;fill-rule:nonzero;fill:rgb(76.862746%,80.784315%,83.137256%);fill-opacity:1;" d="M 138.917969 74.09375 L 131.082031 46.605469 L 131.082031 47.164062 L 133.257812 64.605469 C 133.355469 64.824219 133.40625 65.0625 133.402344 65.300781 C 133.402344 66.277344 132.824219 67.535156 127.886719 62.652344 C 127.742188 62.371094 127.597656 62.371094 127.597656 62.371094 C 132.53125 72 138.917969 74.09375 138.917969 74.09375 Z M 138.917969 74.09375 "/>
<path style=" stroke:none;fill-rule:nonzero;fill:rgb(76.862746%,80.784315%,83.137256%);fill-opacity:1;" d="M 120.195312 79.117188 C 119.53125 77.863281 119.183594 76.476562 119.175781 75.070312 C 119.234375 72.519531 120.453125 70.121094 122.515625 68.511719 L 122.660156 68.371094 C 122.472656 66.050781 122.472656 63.71875 122.660156 61.394531 C 120.046875 65.023438 114.53125 73.8125 121.210938 80.652344 C 121.066406 80.511719 120.917969 80.371094 120.917969 80.234375 C 120.65625 79.871094 120.414062 79.5 120.195312 79.117188 Z M 120.195312 79.117188 "/>
<path style=" stroke:none;fill-rule:nonzero;fill:rgb(0%,0%,0%);fill-opacity:1;" d="M 127.160156 82.605469 C 124.699219 78.242188 123.167969 73.449219 122.660156 68.511719 L 122.660156 68.371094 C 120.574219 70.019531 119.351562 72.472656 119.324219 75.070312 C 119.375 76.410156 119.671875 77.734375 120.195312 78.976562 C 120.496094 79.359375 120.742188 79.78125 120.917969 80.234375 C 121.066406 80.234375 121.210938 80.511719 121.210938 80.652344 L 121.644531 81.070312 C 123.261719 82.632812 125.449219 83.535156 127.742188 83.582031 C 127.488281 83.292969 127.292969 82.960938 127.160156 82.605469 Z M 127.160156 82.605469 "/>
<path style=" stroke:none;fill-rule:nonzero;fill:rgb(76.862746%,80.784315%,83.137256%);fill-opacity:1;" d="M 136.597656 134.789062 C 136.597656 134.789062 131.515625 133.535156 131.953125 143.582031 C 131.980469 143.285156 132.082031 143 132.242188 142.746094 C 133.695312 139.394531 135.144531 138.140625 136.453125 138 C 137.46875 138 138.339844 138.976562 138.917969 140.234375 C 139.558594 141.730469 140.09375 143.269531 140.515625 144.835938 C 140.929688 146.160156 141.222656 147.511719 141.386719 148.882812 C 141.519531 149.761719 141.570312 150.648438 141.53125 151.535156 L 141.53125 151.675781 C 141.675781 150.558594 143.855469 136.746094 136.597656 134.789062 Z M 136.597656 134.789062 "/>
<path style=" stroke:none;fill-rule:nonzero;fill:rgb(0%,0%,0%);fill-opacity:1;" d="M 141.53125 151.675781 C 141.386719 150.417969 141.386719 149.582031 141.242188 148.882812 C 141.097656 147.765625 140.804688 146.371094 140.515625 144.976562 C 140.113281 143.339844 139.527344 141.75 138.773438 140.234375 C 138.195312 138.976562 137.324219 138.140625 136.304688 138.140625 C 135 138.140625 133.695312 139.535156 132.097656 142.746094 C 132.066406 143.085938 131.96875 143.417969 131.804688 143.722656 L 134.417969 148.882812 C 134.417969 148.882812 135.871094 134.789062 141.53125 151.675781 Z M 141.53125 151.675781 "/>
</g>
</svg>
