<?xml version="1.0" encoding="UTF-8"?>
<svg xmlns="http://www.w3.org/2000/svg" xmlns:xlink="http://www.w3.org/1999/xlink" width="300px" height="300px" viewBox="0 0 300 300" version="1.1">
<g id="surface1">
<path style=" stroke:none;fill-rule:nonzero;fill:rgb(100%,77.64706%,15.294118%);fill-opacity:1;" d="M 149.878906 0 C 232.546875 0.140625 299.511719 67.140625 299.613281 149.804688 C 299.613281 232.421875 232.421875 299.613281 149.878906 299.613281 C 89.277344 299.652344 34.617188 263.164062 11.414062 207.179688 C -11.789062 151.191406 1.03125 86.738281 43.894531 43.894531 C 71.9375 15.6875 110.105469 -0.121094 149.878906 0 "/>
<path style=" stroke:none;fill-rule:nonzero;fill:rgb(54.509807%,13.725491%,19.607843%);fill-opacity:1;" d="M 149.878906 287.703125 C 225.832031 287.703125 287.625 225.90625 287.625 149.804688 C 287.625 73.855469 225.832031 11.984375 149.878906 11.984375 C 73.78125 11.910156 11.984375 73.78125 11.984375 149.730469 C 11.984375 225.832031 73.78125 287.703125 149.878906 287.703125 "/>
<path style=" stroke:none;fill-rule:nonzero;fill:rgb(5.098039%,13.333334%,25.098041%);fill-opacity:1;" d="M 22.171875 149.730469 C 22.171875 79.398438 79.472656 22.171875 149.804688 22.171875 C 220.277344 22.171875 277.402344 79.296875 277.402344 149.769531 C 277.402344 220.238281 220.277344 277.367188 149.804688 277.367188 C 79.472656 277.441406 22.171875 220.140625 22.171875 149.730469 "/>
<path style=" stroke:none;fill-rule:nonzero;fill:rgb(100%,77.64706%,15.294118%);fill-opacity:1;" d="M 250.324219 96.324219 L 253.171875 94.753906 L 244.035156 80.519531 L 241.488281 82.394531 C 225.90625 62.695312 198.191406 40.746094 171.828125 37.453125 C 191.675781 46.515625 213.996094 69.660156 227.628906 87.488281 L 213.324219 97.898438 L 215.046875 100.519531 L 150.328125 142.539062 L 85.613281 100.519531 L 87.335938 97.898438 L 72.957031 87.488281 C 86.664062 69.660156 108.910156 46.515625 128.832031 37.453125 C 102.542969 40.746094 74.828125 62.695312 59.324219 82.316406 L 56.625 80.371094 L 47.488281 94.527344 L 50.335938 96.175781 L 50.261719 96.324219 C 38.875 118.722656 30.484375 153.25 38.648438 178.570312 C 38.425781 156.695312 50.183594 126.660156 60.746094 106.660156 L 76.175781 115.351562 L 77.75 112.878906 L 137.820312 150.628906 L 58.574219 202.164062 L 58.425781 202.011719 L 47.789062 204.859375 L 47.9375 205.160156 C 47.414062 207.105469 48.386719 210.777344 50.632812 214.296875 C 52.882812 217.890625 55.726562 220.214844 57.898438 220.664062 L 58.050781 220.964844 L 65.089844 212.425781 L 65.015625 212.273438 L 222.835938 113.027344 L 224.410156 115.5 L 239.914062 106.8125 C 250.476562 126.808594 262.234375 156.921875 262.085938 178.71875 C 270.175781 153.324219 261.710938 118.722656 250.324219 96.324219 "/>
<path style=" stroke:none;fill-rule:nonzero;fill:rgb(100%,77.64706%,15.294118%);fill-opacity:1;" d="M 242.160156 202.011719 L 242.011719 202.164062 L 169.128906 154.824219 L 156.398438 162.390625 L 235.570312 212.199219 L 235.496094 212.351562 L 242.535156 220.886719 L 242.761719 220.589844 C 244.855469 220.214844 247.703125 217.816406 250.027344 214.222656 C 252.199219 210.703125 253.246094 207.105469 252.722656 205.085938 L 252.871094 204.785156 Z M 242.160156 202.011719 "/>
<path style=" stroke:none;fill-rule:nonzero;fill:rgb(100%,77.64706%,15.294118%);fill-opacity:1;" d="M 162.765625 50.183594 L 157.296875 57.375 L 149.730469 39.25 L 149.730469 122.914062 L 175.199219 90.257812 L 200.816406 96.925781 Z M 162.765625 50.183594 "/>
<path style=" stroke:none;fill-rule:nonzero;fill:rgb(100%,100%,100%);fill-opacity:1;" d="M 162.765625 69.808594 L 162.765625 50.183594 L 157.296875 57.375 Z M 162.765625 69.808594 "/>
<path style=" stroke:none;fill-rule:nonzero;fill:rgb(100%,100%,100%);fill-opacity:1;" d="M 149.730469 39.25 L 103.515625 95.652344 L 123.890625 90.40625 L 149.730469 122.914062 Z M 149.730469 39.25 "/>
<path style=" stroke:none;fill-rule:nonzero;fill:rgb(100%,77.64706%,15.294118%);fill-opacity:1;" d="M 122.617188 250.175781 C 129.113281 243.917969 137.53125 240.035156 146.511719 239.164062 L 146.511719 226.65625 L 111.980469 226.65625 C 112.660156 235.5 116.421875 243.824219 122.617188 250.175781 "/>
<path style=" stroke:none;fill-rule:nonzero;fill:rgb(100%,77.64706%,15.294118%);fill-opacity:1;" d="M 146.433594 261.785156 L 146.433594 246.953125 C 139.734375 247.777344 133.453125 250.652344 128.457031 255.195312 C 133.808594 258.851562 139.988281 261.117188 146.433594 261.785156 "/>
<path style=" stroke:none;fill-rule:nonzero;fill:rgb(100%,100%,100%);fill-opacity:1;" d="M 154.148438 185.011719 L 154.148438 199.765625 C 160.839844 198.992188 167.113281 196.105469 172.050781 191.527344 C 166.710938 187.914062 160.5625 185.675781 154.148438 185.011719 "/>
<path style=" stroke:none;fill-rule:nonzero;fill:rgb(100%,100%,100%);fill-opacity:1;" d="M 177.96875 196.621094 C 171.496094 202.855469 163.097656 206.710938 154.148438 207.554688 L 154.148438 218.941406 L 188.605469 218.941406 C 187.570312 210.546875 183.835938 202.710938 177.96875 196.621094 "/>
<path style=" stroke:none;fill-rule:nonzero;fill:rgb(100%,100%,100%);fill-opacity:1;" d="M 146.433594 199.765625 L 146.433594 185.011719 C 140.003906 185.65625 133.84375 187.921875 128.535156 191.601562 C 133.507812 196.117188 139.765625 198.972656 146.433594 199.765625 "/>
<path style=" stroke:none;fill-rule:nonzero;fill:rgb(100%,77.64706%,15.294118%);fill-opacity:1;" d="M 154.148438 226.65625 L 154.148438 239.164062 C 163.121094 239.988281 171.53125 243.875 177.96875 250.175781 C 184.210938 243.851562 188.007812 235.515625 188.679688 226.65625 Z M 154.148438 226.65625 "/>
<path style=" stroke:none;fill-rule:nonzero;fill:rgb(100%,100%,100%);fill-opacity:1;" d="M 111.980469 218.941406 L 146.433594 218.941406 L 146.433594 207.554688 C 137.472656 206.683594 129.0625 202.832031 122.542969 196.621094 C 116.695312 202.71875 112.988281 210.550781 111.980469 218.941406 "/>
<path style=" stroke:none;fill-rule:nonzero;fill:rgb(100%,77.64706%,15.294118%);fill-opacity:1;" d="M 154.148438 261.785156 C 160.578125 261.140625 166.738281 258.871094 172.050781 255.195312 C 167.105469 250.628906 160.835938 247.742188 154.148438 246.953125 Z M 154.148438 261.785156 "/>
</g>
</svg>
