<?xml version="1.0" encoding="UTF-8"?>
<svg xmlns="http://www.w3.org/2000/svg" xmlns:xlink="http://www.w3.org/1999/xlink" width="300px" height="300px" viewBox="0 0 300 300" version="1.1">
<g id="surface1">
<path style=" stroke:none;fill-rule:nonzero;fill:rgb(70.980394%,70.19608%,70.19608%);fill-opacity:1;" d="M 299.757812 149.878906 C 299.757812 232.65625 232.65625 299.757812 149.878906 299.757812 C 67.101562 299.757812 0 232.65625 0 149.878906 C 0 67.101562 67.101562 0 149.878906 0 C 232.660156 -0.015625 299.773438 67.097656 299.757812 149.878906 "/>
<path style=" stroke:none;fill-rule:nonzero;fill:rgb(11.372549%,25.882354%,54.11765%);fill-opacity:1;" d="M 295.4375 149.878906 C 295.4375 230.269531 230.269531 295.4375 149.878906 295.4375 C 69.488281 295.4375 4.320312 230.269531 4.320312 149.878906 C 4.320312 69.488281 69.488281 4.320312 149.878906 4.320312 C 230.273438 4.308594 295.449219 69.484375 295.4375 149.878906 "/>
<path style=" stroke:none;fill-rule:nonzero;fill:rgb(78.431374%,6.27451%,18.039216%);fill-opacity:1;" d="M 273.996094 149.878906 C 274.011719 218.441406 218.441406 274.035156 149.878906 274.050781 C 81.316406 274.0625 25.722656 218.492188 25.707031 149.929688 C 25.695312 81.367188 81.261719 25.773438 149.828125 25.761719 C 218.394531 25.738281 273.988281 81.3125 273.996094 149.878906 "/>
<path style=" stroke:none;fill-rule:nonzero;fill:rgb(100%,100%,100%);fill-opacity:1;" d="M 149.878906 25.761719 C 81.328125 25.761719 25.761719 81.332031 25.761719 149.878906 C 25.761719 218.425781 81.332031 273.996094 149.878906 273.996094 C 218.425781 273.996094 273.996094 218.425781 273.996094 149.878906 C 273.917969 81.363281 218.394531 25.839844 149.878906 25.761719 M 32.941406 153.523438 L 55.789062 153.523438 L 55.789062 146.234375 L 32.941406 146.234375 C 33.046875 143.476562 33.148438 140.71875 33.460938 138.011719 C 41.527344 97.265625 90.65625 65.78125 149.878906 65.78125 C 209.101562 65.78125 258.175781 97.214844 266.296875 138.011719 C 266.554688 140.71875 266.710938 143.476562 266.816406 146.234375 L 243.96875 146.234375 L 243.96875 153.523438 L 266.761719 153.523438 C 266.660156 156.28125 266.554688 159.039062 266.242188 161.746094 C 258.125 202.492188 209.050781 233.976562 149.828125 233.976562 C 90.605469 233.976562 41.527344 202.542969 33.410156 161.742188 C 33.148438 159.039062 32.992188 156.332031 32.941406 153.523438 M 149.878906 32.890625 C 198.117188 32.949219 241.390625 62.570312 258.90625 107.515625 C 238.089844 79.050781 197.027344 59.640625 149.878906 59.640625 C 102.730469 59.640625 61.617188 79.050781 40.851562 107.515625 C 58.355469 62.558594 101.632812 32.933594 149.878906 32.890625 M 149.878906 266.917969 C 101.640625 266.859375 58.367188 237.242188 40.851562 192.292969 C 61.667969 220.757812 102.730469 240.171875 149.878906 240.171875 C 197.027344 240.171875 238.140625 220.757812 258.90625 192.292969 C 241.378906 237.230469 198.113281 266.84375 149.878906 266.917969 "/>
<path style=" stroke:none;fill-rule:nonzero;fill:rgb(100%,100%,100%);fill-opacity:1;" d="M 97.421875 192.550781 L 106.164062 192.550781 L 106.164062 153.15625 L 97.421875 153.15625 Z M 97.421875 192.550781 "/>
<path style=" stroke:none;fill-rule:nonzero;fill:rgb(100%,100%,100%);fill-opacity:1;" d="M 131.039062 153.15625 L 130.78125 153.15625 C 128.332031 153.15625 119.332031 153.105469 117.613281 153.15625 L 117.144531 153.15625 C 114.492188 153.15625 112.824219 154.40625 112.410156 156.695312 C 112.378906 156.921875 112.359375 157.144531 112.355469 157.371094 C 112.355469 157.476562 111.734375 164.867188 112.460938 166.949219 C 113.65625 170.332031 116.363281 171.578125 118.914062 172.359375 C 119.019531 172.359375 119.070312 172.414062 119.175781 172.414062 L 119.644531 172.570312 C 119.882812 172.648438 120.085938 172.816406 120.214844 173.039062 L 120.265625 187.246094 L 113.035156 187.246094 L 113.085938 192.5 L 122.609375 192.5 C 125.941406 192.34375 128.175781 190.886719 129.0625 188.390625 C 129.324219 186.464844 129.324219 173.246094 129.167969 170.488281 C 129.101562 169.417969 128.542969 168.4375 127.65625 167.832031 C 127.210938 167.492188 126.738281 167.179688 126.253906 166.894531 C 125.730469 166.636719 125.160156 166.324219 124.640625 166.117188 C 122.558594 165.125 120.265625 163.980469 120.265625 161.328125 L 120.265625 159.089844 L 127.136719 159.089844 C 128.519531 159.113281 129.789062 158.34375 130.414062 157.113281 C 130.789062 156.472656 131.035156 155.765625 131.144531 155.03125 C 131.195312 154.476562 131.195312 153.917969 131.144531 153.367188 Z M 131.039062 153.15625 "/>
<path style=" stroke:none;fill-rule:nonzero;fill:rgb(100%,100%,100%);fill-opacity:1;" d="M 171.164062 153.105469 C 169.257812 153.027344 167.351562 153.203125 165.492188 153.625 C 161.171875 154.667969 159.089844 157.527344 159.089844 162.421875 L 159.089844 185.890625 C 159.089844 191.875 163.410156 193.125 169.863281 193.125 C 177.667969 193.125 182.144531 190.367188 182.144531 185.527344 L 182.144531 161.066406 C 182.144531 153.105469 177.097656 153.105469 171.164062 153.105469 M 168.300781 162.003906 C 168.3125 161.183594 168.402344 160.363281 168.5625 159.558594 L 168.71875 159.402344 C 169.132812 159.339844 169.546875 159.304688 169.964844 159.296875 L 170.121094 159.296875 C 173.089844 159.351562 173.191406 160.234375 173.191406 165.59375 L 173.191406 182.039062 C 173.199219 182.527344 173.183594 183.011719 173.140625 183.496094 C 173.144531 183.953125 173.089844 184.40625 172.984375 184.851562 L 172.828125 185.007812 C 172.308594 185.058594 171.789062 185.109375 171.265625 185.109375 C 170.421875 185.183594 169.582031 184.921875 168.925781 184.382812 C 168.25 183.652344 168.195312 182.457031 168.25 181.050781 L 168.25 164.398438 C 168.25 164.503906 168.25 162.628906 168.300781 162.003906 "/>
<path style=" stroke:none;fill-rule:nonzero;fill:rgb(100%,100%,100%);fill-opacity:1;" d="M 202.492188 169.914062 C 198.277344 154.71875 191.5625 153.054688 188.804688 153.054688 C 188.402344 153.050781 188.003906 153.085938 187.609375 153.15625 L 187.402344 153.210938 L 187.402344 192.605469 L 196.300781 192.605469 L 196.300781 176.730469 L 202.492188 192.605469 L 211.546875 192.605469 L 211.546875 153.15625 L 202.542969 153.15625 L 202.542969 169.914062 Z M 202.492188 169.914062 "/>
<path style=" stroke:none;fill-rule:nonzero;fill:rgb(100%,100%,100%);fill-opacity:1;" d="M 86.699219 153.105469 L 64.53125 153.15625 L 64.269531 153.15625 L 64.269531 153.417969 C 64.25 156.324219 66.386719 158.796875 69.265625 159.195312 L 69.265625 192.605469 L 78.375 192.605469 L 78.375 175.847656 L 86.023438 175.847656 C 90.082031 175.847656 92.375 173.191406 92.375 168.5625 L 92.375 167.15625 C 92.375 155.914062 91.90625 153.679688 86.699219 153.105469 M 83.160156 170.644531 L 78.21875 170.644531 L 78.21875 159.195312 C 78.21875 159.195312 80.925781 159.140625 81.289062 159.195312 C 82.277344 159.296875 83.160156 159.714844 83.160156 160.859375 C 83.214844 161.222656 83.160156 170.644531 83.160156 170.644531 "/>
<path style=" stroke:none;fill-rule:nonzero;fill:rgb(100%,100%,100%);fill-opacity:1;" d="M 156.382812 153.15625 L 135.828125 153.15625 L 135.828125 159.351562 L 141.707031 159.351562 L 141.707031 192.605469 L 150.761719 192.605469 L 150.761719 159.296875 L 151.074219 159.296875 C 152.492188 159.390625 153.882812 158.859375 154.875 157.839844 C 155.917969 156.609375 156.457031 155.03125 156.382812 153.417969 Z M 156.382812 153.15625 "/>
<path style=" stroke:none;fill-rule:nonzero;fill:rgb(100%,100%,100%);fill-opacity:1;" d="M 235.433594 153.15625 L 235.175781 153.15625 C 232.726562 153.15625 223.726562 153.105469 222.007812 153.15625 L 221.539062 153.15625 C 218.886719 153.15625 217.21875 154.40625 216.804688 156.695312 C 216.773438 156.921875 216.753906 157.144531 216.75 157.371094 C 216.75 157.476562 216.128906 164.867188 216.855469 166.949219 C 218.054688 170.332031 220.757812 171.578125 223.308594 172.359375 C 223.414062 172.359375 223.464844 172.414062 223.570312 172.414062 L 224.039062 172.570312 C 224.277344 172.648438 224.484375 172.816406 224.609375 173.039062 L 224.660156 187.246094 L 217.429688 187.246094 L 217.480469 192.5 L 227.003906 192.5 C 230.335938 192.34375 232.574219 190.886719 233.457031 188.390625 C 233.71875 186.464844 233.71875 173.246094 233.5625 170.488281 C 233.496094 169.417969 232.9375 168.4375 232.050781 167.832031 C 231.605469 167.492188 231.136719 167.179688 230.648438 166.894531 C 230.125 166.636719 229.554688 166.324219 229.035156 166.117188 C 226.953125 165.125 224.660156 163.980469 224.660156 161.328125 L 224.660156 159.089844 L 231.53125 159.089844 C 232.914062 159.113281 234.183594 158.34375 234.808594 157.113281 C 235.183594 156.472656 235.429688 155.765625 235.539062 155.03125 C 235.589844 154.476562 235.589844 153.917969 235.539062 153.367188 Z M 235.433594 153.15625 "/>
<path style=" stroke:none;fill-rule:nonzero;fill:rgb(100%,100%,100%);fill-opacity:1;" d="M 154.824219 128.800781 L 156.332031 128.800781 C 157.789062 128.855469 160.234375 129.269531 160.234375 131.925781 C 160.234375 133.171875 160.339844 137.128906 160.390625 138.585938 L 160.390625 139.160156 C 160.414062 139.992188 160.484375 140.828125 160.597656 141.65625 C 161.222656 143.945312 162.992188 145.351562 165.804688 145.613281 L 168.351562 145.613281 L 168.351562 131.558594 C 168.234375 130.058594 167.671875 128.628906 166.738281 127.449219 L 166.53125 127.1875 C 167.929688 125.664062 168.644531 123.632812 168.507812 121.566406 L 168.507812 120.214844 C 168.507812 109.339844 168.09375 107.152344 162.992188 106.582031 L 146.027344 106.582031 L 146.027344 145.089844 L 154.824219 145.089844 Z M 154.875 112.722656 L 156.644531 112.722656 C 158.933594 112.773438 159.820312 112.773438 159.714844 116.832031 C 159.714844 120.058594 159.714844 120.265625 159.664062 121.878906 L 159.664062 122.191406 C 159.652344 122.664062 159.484375 123.121094 159.195312 123.492188 C 159.003906 123.691406 158.742188 123.804688 158.464844 123.804688 L 154.875 123.804688 Z M 154.875 112.722656 "/>
<path style=" stroke:none;fill-rule:nonzero;fill:rgb(100%,100%,100%);fill-opacity:1;" d="M 209.308594 106.632812 L 200.722656 106.632812 L 200.722656 145.144531 L 209.308594 145.144531 Z M 209.308594 106.632812 "/>
<path style=" stroke:none;fill-rule:nonzero;fill:rgb(100%,100%,100%);fill-opacity:1;" d="M 127.136719 145.195312 L 135.933594 145.195312 L 135.933594 112.667969 L 136.242188 112.667969 C 137.632812 112.746094 138.992188 112.234375 139.992188 111.265625 C 141.003906 110.058594 141.523438 108.515625 141.449219 106.945312 L 141.449219 106.683594 L 121.414062 106.683594 L 121.414062 112.722656 L 127.136719 112.722656 Z M 127.136719 145.195312 "/>
<path style=" stroke:none;fill-rule:nonzero;fill:rgb(100%,100%,100%);fill-opacity:1;" d="M 219.511719 145.195312 L 228.304688 145.195312 L 228.304688 112.667969 L 228.617188 112.667969 C 230.019531 112.75 231.386719 112.21875 232.363281 111.210938 C 233.378906 110.007812 233.898438 108.464844 233.820312 106.894531 L 233.820312 106.632812 L 213.785156 106.632812 L 213.785156 112.667969 L 219.511719 112.667969 Z M 219.511719 145.195312 "/>
<path style=" stroke:none;fill-rule:nonzero;fill:rgb(100%,100%,100%);fill-opacity:1;" d="M 116.78125 138.949219 L 107.570312 138.949219 L 107.570312 129.582031 L 113.917969 129.582031 L 113.917969 121.257812 L 107.570312 121.257812 L 107.570312 112.566406 L 116.78125 112.566406 L 116.78125 106.632812 L 99.035156 106.632812 L 98.980469 145.144531 L 116.78125 145.144531 Z M 116.78125 138.949219 "/>
<path style=" stroke:none;fill-rule:nonzero;fill:rgb(100%,100%,100%);fill-opacity:1;" d="M 87.84375 106.632812 L 65.882812 106.632812 L 65.832031 106.894531 C 65.707031 108.324219 66.113281 109.75 66.976562 110.898438 C 68.03125 112.054688 69.527344 112.699219 71.089844 112.667969 L 71.089844 145.089844 L 87.429688 145.089844 C 91.175781 145.089844 93.675781 141.917969 93.675781 137.234375 L 93.675781 119.382812 C 93.675781 109.496094 93.675781 106.839844 87.84375 106.632812 M 84.773438 138.949219 L 79.882812 138.949219 L 79.882812 112.667969 C 81.117188 112.542969 82.359375 112.59375 83.578125 112.824219 C 84.722656 113.292969 84.671875 115.375 84.671875 115.425781 C 85.035156 118.496094 84.828125 136.554688 84.773438 138.949219 "/>
<path style=" stroke:none;fill-rule:nonzero;fill:rgb(100%,100%,100%);fill-opacity:1;" d="M 185.164062 106.632812 C 183.257812 106.558594 181.351562 106.734375 179.488281 107.152344 C 175.222656 108.140625 173.140625 111.003906 173.140625 115.738281 L 173.140625 138.691406 C 173.140625 144.570312 177.410156 145.765625 183.808594 145.765625 C 191.5625 145.765625 196.039062 143.0625 196.039062 138.378906 L 196.039062 114.4375 C 196.039062 106.632812 190.992188 106.632812 185.164062 106.632812 M 182.25 115.375 C 182.261719 114.570312 182.347656 113.769531 182.507812 112.980469 L 182.664062 112.824219 C 183.078125 112.761719 183.496094 112.726562 183.914062 112.722656 L 184.070312 112.722656 C 187.035156 112.773438 187.089844 113.65625 187.089844 118.914062 L 187.089844 135.046875 C 187.097656 135.515625 187.078125 135.984375 187.035156 136.453125 C 187.039062 136.890625 186.984375 137.328125 186.878906 137.753906 L 186.722656 137.910156 C 186.203125 137.960938 185.683594 138.011719 185.164062 138.011719 C 184.328125 138.113281 183.492188 137.847656 182.871094 137.285156 C 182.195312 136.554688 182.144531 135.410156 182.195312 134.058594 L 182.195312 117.769531 C 182.25 117.769531 182.25 116 182.25 115.375 "/>
</g>
</svg>
