<?xml version="1.0" encoding="UTF-8"?>
<svg xmlns="http://www.w3.org/2000/svg" xmlns:xlink="http://www.w3.org/1999/xlink" width="300px" height="300px" viewBox="0 0 300 300" version="1.1">
<g id="surface1">
<path style=" stroke:none;fill-rule:nonzero;fill:rgb(11.372549%,25.882354%,54.11765%);fill-opacity:1;" d="M 152.792969 12.054688 L 143.710938 0 L 137.511719 0 L 137.511719 1.136719 L 138.996094 2.183594 L 138.996094 19.828125 L 143.710938 19.828125 L 143.710938 7.859375 L 152.792969 19.828125 L 157.511719 19.828125 L 157.511719 0 L 152.792969 0 Z M 152.792969 12.054688 "/>
<path style=" stroke:none;fill-rule:nonzero;fill:rgb(11.372549%,25.882354%,54.11765%);fill-opacity:1;" d="M 119.605469 22.796875 L 133.230469 20.4375 L 132.445312 16.421875 L 123.796875 17.90625 L 123.097656 14.0625 L 130.171875 12.839844 L 129.910156 11.09375 L 129.472656 8.820312 L 122.398438 10.042969 L 121.789062 6.464844 L 129.738281 5.066406 L 130.085938 0.785156 L 117.246094 3.058594 L 116.113281 3.230469 L 114.714844 3.492188 L 114.976562 4.628906 L 116.546875 5.414062 Z M 119.605469 22.796875 "/>
<path style=" stroke:none;fill-rule:nonzero;fill:rgb(11.372549%,25.882354%,54.11765%);fill-opacity:1;" d="M 96.984375 30.21875 L 103.972656 27.6875 C 110.433594 25.328125 112.96875 20.089844 110.957031 14.585938 C 108.949219 9.082031 103.621094 6.636719 97.160156 8.996094 L 90.957031 11.265625 L 90.171875 11.527344 L 88.601562 12.140625 L 89.035156 13.277344 L 91.046875 13.800781 Z M 96.285156 13.710938 L 98.816406 12.839844 C 101.351562 11.878906 104.84375 12.316406 106.242188 16.332031 C 107.726562 20.351562 105.28125 22.882812 102.75 23.757812 L 100.214844 24.628906 Z M 96.285156 13.710938 "/>
<path style=" stroke:none;fill-rule:nonzero;fill:rgb(11.372549%,25.882354%,54.11765%);fill-opacity:1;" d="M 79.078125 40.089844 L 91.394531 32.925781 L 90.171875 28.648438 L 81.261719 33.800781 L 73.488281 20.351562 L 70.257812 22.269531 L 69.121094 22.882812 L 68.074219 23.496094 L 68.6875 24.542969 L 70.171875 24.628906 Z M 79.078125 40.089844 "/>
<path style=" stroke:none;fill-rule:nonzero;fill:rgb(11.372549%,25.882354%,54.11765%);fill-opacity:1;" d="M 67.027344 35.632812 C 63.269531 31.355469 57.070312 30.65625 52.179688 34.847656 C 47.289062 39.128906 47.113281 45.328125 50.867188 49.609375 C 54.625 53.890625 60.824219 54.675781 65.714844 50.394531 C 70.605469 46.203125 70.695312 39.914062 67.027344 35.632812 M 54.710938 46.289062 C 52.441406 43.671875 52.441406 40.351562 55.0625 38.082031 C 57.59375 35.898438 60.914062 36.246094 63.183594 38.953125 C 65.453125 41.574219 65.453125 44.980469 62.921875 47.164062 C 60.300781 49.433594 56.984375 48.910156 54.710938 46.289062 "/>
<path style=" stroke:none;fill-rule:nonzero;fill:rgb(11.372549%,25.882354%,54.11765%);fill-opacity:1;" d="M 46.851562 52.402344 L 42.921875 57.46875 L 41.871094 58.78125 L 40.214844 60.875 L 43.355469 63.320312 L 46.5 59.304688 C 47.375 61.136719 47.289062 63.234375 45.804688 65.066406 C 43.707031 67.777344 40.300781 67.949219 37.59375 65.765625 C 34.886719 63.582031 34.1875 60.351562 36.371094 57.644531 C 36.71875 57.207031 37.070312 56.859375 37.503906 56.507812 C 38.117188 56.070312 38.726562 55.722656 39.339844 55.546875 L 40.910156 53.453125 L 43.007812 50.832031 L 43.09375 50.746094 C 43.007812 50.746094 42.921875 50.746094 42.746094 50.65625 C 39.515625 50.394531 36.019531 51.53125 33.398438 54.5 C 33.226562 54.675781 33.050781 54.851562 32.964844 55.023438 C 28.945312 60.175781 29.992188 66.289062 34.449219 69.785156 C 38.902344 73.277344 45.191406 72.839844 49.207031 67.6875 C 49.382812 67.515625 49.472656 67.339844 49.644531 67.164062 C 52.265625 63.496094 52.265625 59.304688 50.429688 55.984375 C 50.257812 55.636719 50.082031 55.375 49.820312 55.113281 C 49.207031 54.324219 48.507812 53.628906 47.722656 52.929688 C 47.375 52.753906 47.113281 52.578125 46.851562 52.40625 "/>
<path style=" stroke:none;fill-rule:nonzero;fill:rgb(11.372549%,25.882354%,54.11765%);fill-opacity:1;" d="M 181.441406 15.023438 L 183.101562 16.59375 C 184.585938 17.992188 185.285156 18.605469 184.933594 19.652344 C 184.671875 20.4375 183.710938 20.875 182.226562 20.523438 C 180.394531 20 178.644531 18.515625 177.335938 16.507812 L 175.9375 21.484375 C 177.160156 22.621094 178.648438 23.667969 181.617188 24.542969 C 185.371094 25.589844 189.128906 24.28125 190.175781 20.613281 C 191.050781 17.730469 189.476562 15.722656 187.292969 13.710938 L 185.285156 11.792969 C 184.324219 10.917969 184.148438 10.304688 184.324219 9.695312 C 184.585938 8.910156 185.546875 8.558594 186.769531 8.910156 C 188.078125 9.257812 189.824219 10.304688 191.484375 12.226562 L 192.796875 7.6875 C 192.097656 6.988281 190.351562 5.675781 187.644531 4.890625 C 183.539062 3.757812 180.21875 5.503906 179.257812 8.734375 C 178.734375 11.003906 179.34375 13.015625 181.441406 15.023438 "/>
<path style=" stroke:none;fill-rule:nonzero;fill:rgb(11.372549%,25.882354%,54.11765%);fill-opacity:1;" d="M 197.949219 30.480469 L 202.492188 32.664062 L 209.128906 18.339844 L 214.804688 21.050781 L 216.550781 17.292969 L 200.65625 9.871094 L 198.910156 13.625 L 204.585938 16.246094 Z M 197.949219 30.480469 "/>
<path style=" stroke:none;fill-rule:nonzero;fill:rgb(11.372549%,25.882354%,54.11765%);fill-opacity:1;" d="M 210.699219 34.148438 L 209.476562 35.898438 L 212.882812 38.253906 L 214.28125 36.683594 L 216.464844 35.546875 L 219.523438 37.644531 L 222.578125 39.738281 L 222.402344 42.183594 L 221.445312 44.105469 L 224.851562 46.464844 L 226.074219 44.71875 L 230.613281 26.464844 L 228.257812 24.890625 L 226.421875 23.667969 L 225.898438 23.320312 L 224.324219 22.269531 L 223.714844 23.230469 L 224.238281 24.542969 Z M 225.546875 28.820312 L 223.714844 35.632812 L 219.871094 33.015625 L 225.550781 28.820312 Z M 225.546875 28.820312 "/>
<path style=" stroke:none;fill-rule:nonzero;fill:rgb(11.372549%,25.882354%,54.11765%);fill-opacity:1;" d="M 236.816406 35.898438 L 241.445312 40.175781 L 230.703125 51.707031 L 234.371094 55.113281 L 245.113281 43.582031 L 249.65625 47.863281 L 252.449219 44.804688 L 239.699219 32.839844 Z M 236.816406 35.898438 "/>
<path style=" stroke:none;fill-rule:nonzero;fill:rgb(11.372549%,25.882354%,54.11765%);fill-opacity:1;" d="M 251.3125 61.835938 L 255.679688 67.511719 L 259 64.980469 L 254.546875 59.304688 L 257.425781 57.121094 L 262.320312 63.496094 L 266.25 61.75 L 258.125 51.355469 L 258.214844 51.355469 L 256.640625 49.347656 L 255.679688 50.046875 L 255.769531 52.054688 L 241.882812 62.882812 L 250.441406 73.714844 L 253.671875 71.183594 L 248.257812 64.28125 Z M 251.3125 61.835938 "/>
<path style=" stroke:none;fill-rule:nonzero;fill:rgb(11.372549%,25.882354%,54.11765%);fill-opacity:1;" d="M 266.683594 144.546875 C 266.683594 210.316406 213.320312 263.679688 147.554688 263.679688 C 81.789062 263.679688 28.335938 210.402344 28.335938 144.546875 C 28.335938 78.695312 81.699219 25.414062 147.554688 25.414062 C 213.40625 25.414062 266.683594 78.78125 266.683594 144.546875 "/>
<path style=" stroke:none;fill-rule:nonzero;fill:rgb(99.215686%,72.549021%,15.294118%);fill-opacity:1;" d="M 225.460938 66.640625 C 204.675781 45.855469 176.988281 34.324219 147.554688 34.324219 C 118.121094 34.324219 90.433594 45.765625 69.648438 66.640625 C 48.859375 87.425781 37.332031 115.113281 37.332031 144.546875 C 37.332031 173.980469 48.773438 201.667969 69.648438 222.457031 C 90.433594 243.242188 118.121094 254.769531 147.554688 254.769531 C 176.988281 254.769531 204.675781 243.328125 225.460938 222.457031 C 246.25 201.667969 257.777344 173.980469 257.777344 144.546875 C 257.777344 115.113281 246.25 87.425781 225.460938 66.640625 M 73.75 70.832031 C 93.402344 51.179688 119.605469 40.261719 147.464844 40.261719 C 175.328125 40.261719 201.53125 51.09375 221.183594 70.832031 C 240.832031 90.484375 251.75 116.6875 251.75 144.546875 C 251.75 159.484375 248.605469 173.980469 242.667969 187.257812 C 230.003906 182.976562 217.601562 178.171875 205.375 172.757812 C 203.800781 172.058594 202.140625 171.363281 200.570312 170.574219 L 195.851562 168.304688 L 193.496094 167.167969 L 191.136719 166.035156 L 186.421875 163.675781 C 184.847656 162.890625 183.277344 162.015625 181.792969 161.230469 L 179.433594 160.007812 C 178.648438 159.570312 177.863281 159.132812 177.164062 158.785156 L 172.535156 156.25 L 167.992188 153.632812 C 155.9375 146.558594 144.234375 138.695312 133.230469 129.960938 C 127.730469 125.59375 122.402344 121.054688 117.335938 116.25 C 114.800781 113.804688 112.355469 111.359375 109.910156 108.828125 C 109.300781 108.214844 108.6875 107.515625 108.164062 106.90625 C 107.550781 106.292969 107.027344 105.59375 106.417969 104.984375 C 105.804688 104.371094 105.28125 103.671875 104.757812 102.976562 L 104.671875 102.886719 C 104.496094 95.203125 104.320312 90.660156 104.320312 90.660156 L 99.082031 89.4375 L 99.082031 96.425781 L 94.625 96.425781 L 94.625 89.089844 L 89.035156 90.398438 L 89.035156 93.105469 L 86.417969 94.503906 C 86.503906 96.6875 86.503906 99.570312 86.589844 102.976562 C 84.496094 106.644531 61.351562 146.558594 44.058594 158.875 C 43.445312 154.15625 43.097656 149.441406 43.097656 144.636719 C 43.269531 116.777344 54.101562 90.574219 73.753906 70.835938 M 210.699219 195.730469 L 199.957031 196.078125 L 191.222656 173.371094 L 192.972656 174.242188 L 197.773438 176.601562 C 199.347656 177.386719 201.007812 178.175781 202.578125 178.871094 C 203.015625 179.046875 203.453125 179.308594 203.976562 179.484375 Z M 208.167969 181.492188 C 212.535156 183.5 216.816406 185.335938 221.269531 187.167969 L 224.851562 195.203125 L 214.105469 195.554688 Z M 196.726562 196.164062 L 185.722656 196.515625 L 174.28125 164.113281 C 174.980469 164.546875 175.675781 164.984375 176.464844 165.335938 L 178.820312 166.644531 C 180.394531 167.519531 181.964844 168.390625 183.539062 169.265625 L 187.121094 171.1875 Z M 182.488281 196.691406 L 172.707031 197.039062 L 158.382812 154.417969 C 160.566406 155.816406 162.75 157.210938 165.023438 158.609375 L 169.5625 161.402344 L 170.175781 161.753906 Z M 169.476562 197.125 L 159.171875 197.476562 L 142.226562 143.152344 C 146.15625 146.03125 150.085938 148.914062 154.191406 151.621094 Z M 155.9375 197.5625 L 146.070312 197.914062 L 125.894531 130.050781 C 127.289062 131.273438 128.777344 132.496094 130.171875 133.71875 C 132.707031 135.8125 135.328125 137.910156 137.945312 139.917969 Z M 142.835938 198 L 131.917969 198.347656 L 107.902344 112.496094 C 109.996094 114.851562 112.179688 117.125 114.363281 119.308594 C 116.722656 121.664062 119.082031 123.9375 121.527344 126.121094 Z M 128.777344 198.4375 L 119.34375 198.785156 L 106.15625 148.390625 C 105.71875 135.375 105.367188 123.324219 105.105469 113.714844 Z M 116.109375 198.871094 L 107.902344 199.136719 C 107.378906 187.167969 106.941406 174.503906 106.503906 162.363281 Z M 231.664062 206.121094 C 230.964844 207.082031 230.265625 208.042969 229.480469 209.003906 L 108.25 206.648438 L 108.164062 205.511719 L 231.660156 206.121094 Z M 228.167969 195.117188 L 225.375 188.917969 C 230.003906 190.75 234.632812 192.585938 239.261719 194.242188 C 239.175781 194.417969 239.085938 194.59375 239 194.769531 Z M 99.167969 118.871094 L 99.167969 125.246094 L 94.277344 125.246094 L 94.277344 131.183594 L 99.167969 131.183594 L 99.167969 137.558594 L 94.277344 137.558594 L 94.277344 143.5 L 99.167969 143.5 L 99.167969 155.550781 L 94.277344 155.550781 L 94.277344 161.492188 L 99.167969 161.492188 L 99.167969 173.894531 L 94.277344 173.894531 L 94.277344 179.832031 L 99.167969 179.832031 L 99.167969 199.308594 L 94.710938 199.484375 L 94.710938 108.824219 L 99.167969 108.824219 L 99.167969 112.84375 L 94.277344 112.84375 L 94.277344 118.78125 L 99.167969 118.78125 Z M 52.351562 187.34375 L 65.976562 141.578125 C 71.480469 134.242188 77.507812 125.070312 83.882812 113.628906 L 59.515625 200.621094 C 56.808594 196.339844 54.449219 191.972656 52.351562 187.34375 M 50.519531 182.890625 C 48.160156 176.777344 46.328125 170.488281 45.105469 164.023438 C 48.945312 160.96875 54.363281 155.988281 60.824219 148.214844 Z M 86.765625 114.765625 C 86.765625 123.933594 86.679688 135.027344 86.414062 146.90625 L 72.441406 200.269531 L 62.746094 200.621094 Z M 86.066406 160.355469 C 85.71875 173.542969 85.191406 187.257812 84.582031 199.921875 L 75.585938 200.183594 Z M 67.550781 211.449219 L 83.96875 212.0625 C 83.621094 217.128906 83.273438 221.929688 82.921875 226.386719 C 79.777344 223.851562 76.722656 221.230469 73.925781 218.351562 C 71.566406 216.078125 69.472656 213.808594 67.550781 211.449219 M 147.554688 248.832031 C 134.539062 248.832031 121.964844 246.472656 110.171875 241.933594 C 109.648438 234.769531 109.210938 226.296875 108.773438 216.953125 L 99.253906 213.722656 L 99.253906 236.953125 C 97.769531 236.167969 96.199219 235.292969 94.800781 234.421875 L 94.800781 212.324219 L 99.253906 212.5 L 99.253906 212.671875 L 104.144531 212.671875 L 112.96875 213.023438 L 222.664062 216.867188 C 222.230469 217.304688 221.792969 217.738281 221.355469 218.261719 C 201.53125 238.003906 175.328125 248.832031 147.554688 248.832031 "/>
<path style=" stroke:none;fill-rule:nonzero;fill:rgb(11.372549%,25.882354%,54.11765%);fill-opacity:1;" d="M 182.925781 271.539062 L 181.792969 265.425781 L 175.152344 266.648438 L 167.640625 268.132812 L 161.089844 269.445312 L 162.226562 275.558594 L 168.863281 274.246094 L 172.183594 291.628906 L 165.632812 292.851562 L 166.769531 298.964844 L 173.40625 297.742188 L 180.917969 296.257812 L 187.554688 294.949219 L 186.332031 288.832031 L 179.78125 290.144531 L 176.375 272.851562 Z M 182.925781 271.539062 "/>
<path style=" stroke:none;fill-rule:nonzero;fill:rgb(11.372549%,25.882354%,54.11765%);fill-opacity:1;" d="M 221.269531 264.203125 C 224.9375 271.976562 222.054688 281.148438 213.144531 285.253906 C 204.238281 289.445312 195.414062 285.6875 191.835938 277.914062 C 188.167969 270.140625 191.050781 261.058594 199.957031 256.867188 C 208.777344 252.761719 217.601562 256.429688 221.269531 264.203125 M 214.28125 267.523438 C 212.011719 262.71875 207.382812 260.710938 202.753906 262.894531 C 198.035156 265.078125 196.640625 269.882812 198.910156 274.683594 C 201.09375 279.402344 205.722656 281.585938 210.4375 279.3125 C 215.066406 277.21875 216.464844 272.238281 214.28125 267.523438 "/>
<path style=" stroke:none;fill-rule:nonzero;fill:rgb(11.372549%,25.882354%,54.11765%);fill-opacity:1;" d="M 243.015625 239.484375 C 239.261719 235.121094 233.410156 235.46875 228.953125 239.222656 L 220.570312 246.386719 L 219.257812 247.519531 L 217.6875 248.832031 L 218.824219 250.140625 L 221.355469 249.878906 L 238.824219 270.316406 L 244.585938 265.339844 L 237.425781 256.953125 L 239.085938 255.558594 L 251.925781 258.964844 L 258.910156 253.023438 L 243.976562 249.53125 C 245.722656 246.386719 245.460938 242.367188 243.015625 239.484375 M 236.292969 250.140625 L 233.582031 252.414062 L 229.128906 247.257812 L 231.921875 244.8125 C 233.496094 243.417969 235.503906 243.15625 236.988281 244.902344 C 238.5625 246.648438 238.039062 248.65625 236.289062 250.140625 "/>
<path style=" stroke:none;fill-rule:nonzero;fill:rgb(11.372549%,25.882354%,54.11765%);fill-opacity:1;" d="M 271.226562 238.351562 C 268.433594 242.105469 266.074219 243.589844 263.804688 244.640625 L 257.515625 239.835938 C 261.007812 239.050781 264.066406 237.304688 265.8125 235.03125 C 267.210938 233.199219 267.121094 231.449219 266.074219 230.753906 C 264.765625 229.792969 263.453125 230.402344 260.660156 231.714844 L 257.425781 233.285156 C 253.496094 235.207031 250.179688 235.03125 247.382812 232.847656 C 243.367188 229.792969 242.667969 224.113281 246.507812 218.960938 C 249.042969 215.640625 251.925781 213.808594 253.234375 213.195312 L 259 217.5625 C 255.242188 218.875 252.972656 220.707031 251.664062 222.453125 C 250.527344 223.941406 250.441406 225.511719 251.488281 226.296875 C 252.273438 226.910156 253.234375 226.910156 255.070312 226.121094 L 258.824219 224.289062 C 262.84375 222.367188 266.421875 221.230469 270.179688 224.027344 C 274.894531 227.609375 274.808594 233.632812 271.226562 238.351562 "/>
<path style=" stroke:none;fill-rule:nonzero;fill:rgb(11.372549%,25.882354%,54.11765%);fill-opacity:1;" d="M 153.84375 279.050781 C 154.015625 273.285156 149.476562 269.53125 143.625 269.355469 L 132.617188 269.007812 L 130.960938 268.917969 L 128.863281 268.832031 L 128.777344 270.578125 L 130.785156 272.152344 L 129.824219 299.050781 L 137.421875 299.316406 L 137.773438 288.308594 L 139.957031 288.398438 L 147.117188 299.664062 L 156.289062 300.011719 L 147.640625 287.4375 C 151.222656 285.953125 153.667969 282.894531 153.84375 279.050781 M 141.613281 282.371094 L 138.035156 282.28125 L 138.296875 275.46875 L 142.050781 275.558594 C 144.148438 275.644531 145.894531 276.78125 145.804688 279.050781 C 145.71875 281.320312 143.886719 282.457031 141.613281 282.371094 "/>
<path style=" stroke:none;fill-rule:nonzero;fill:rgb(11.372549%,25.882354%,54.11765%);fill-opacity:1;" d="M 119.953125 276.429688 C 121.613281 270.929688 118.121094 266.125 112.53125 264.464844 L 101.960938 261.320312 L 100.304688 260.882812 L 98.292969 260.273438 L 97.769531 261.933594 L 99.34375 263.941406 L 91.746094 289.707031 L 98.992188 291.890625 L 102.136719 281.410156 L 104.234375 282.019531 L 108.339844 294.683594 L 117.160156 297.304688 L 111.921875 282.894531 C 115.675781 282.371094 118.90625 280.011719 119.957031 276.429688 M 107.378906 276.519531 L 103.972656 275.46875 L 105.890625 268.917969 L 109.472656 269.96875 C 111.484375 270.578125 112.878906 272.0625 112.179688 274.246094 C 111.484375 276.519531 109.5625 277.128906 107.378906 276.519531 "/>
<path style=" stroke:none;fill-rule:nonzero;fill:rgb(11.372549%,25.882354%,54.11765%);fill-opacity:1;" d="M 84.144531 252.148438 L 81.523438 250.578125 L 80.476562 249.964844 L 78.292969 248.65625 L 77.417969 250.140625 L 78.207031 251.800781 L 58.464844 268.046875 L 56.808594 270.839844 L 62.222656 274.070312 L 64.230469 271.453125 L 67.464844 269.53125 L 72.265625 272.324219 L 77.070312 275.121094 L 76.984375 278.875 L 75.671875 281.933594 L 81.089844 285.164062 L 82.746094 282.371094 L 87.988281 254.246094 Z M 75.148438 267.433594 L 72.09375 265.6875 L 80.300781 258.699219 L 78.207031 269.269531 Z M 75.148438 267.433594 "/>
<path style=" stroke:none;fill-rule:nonzero;fill:rgb(11.372549%,25.882354%,54.11765%);fill-opacity:1;" d="M 66.152344 240.535156 L 64.230469 238.527344 L 62.921875 239.660156 L 63.183594 241.84375 L 46.9375 248.832031 L 57.417969 231.101562 L 54.1875 227.519531 L 35.671875 236.605469 L 45.628906 218.175781 L 39.863281 211.972656 L 39.164062 211.1875 L 37.855469 212.324219 L 38.203125 215.207031 L 25.363281 240.621094 L 30.519531 246.300781 L 42.921875 241.144531 L 36.71875 253.023438 L 41.871094 258.699219 L 71.742188 246.734375 Z M 66.152344 240.535156 "/>
</g>
</svg>
