<?xml version="1.0" encoding="UTF-8"?>
<svg xmlns="http://www.w3.org/2000/svg" xmlns:xlink="http://www.w3.org/1999/xlink" width="300px" height="300px" viewBox="0 0 300 300" version="1.1">
<g id="surface1">
<path style=" stroke:none;fill-rule:nonzero;fill:rgb(11.372549%,25.882354%,54.11765%);fill-opacity:1;" d="M 153.824219 12.015625 L 142.886719 0 L 135.40625 0 L 135.40625 1.144531 L 137.167969 2.183594 L 137.167969 19.816406 L 142.886719 19.816406 L 142.886719 7.90625 L 153.886719 19.816406 L 159.546875 19.816406 L 159.546875 0 L 153.824219 0 Z M 153.824219 12.015625 "/>
<path style=" stroke:none;fill-rule:nonzero;fill:rgb(11.372549%,25.882354%,54.11765%);fill-opacity:1;" d="M 113.78125 22.832031 L 130.1875 20.441406 L 129.371094 16.382812 L 118.871094 17.890625 L 118.054688 14.09375 L 126.605469 12.847656 L 126.226562 11.078125 L 125.726562 8.789062 L 117.175781 10.039062 L 116.421875 6.449219 L 125.976562 5.097656 L 126.417969 0.832031 L 110.890625 3.121094 L 109.632812 3.277344 L 107.933594 3.535156 L 108.1875 4.679688 L 110.074219 5.460938 Z M 113.78125 22.832031 "/>
<path style=" stroke:none;fill-rule:nonzero;fill:rgb(11.372549%,25.882354%,54.11765%);fill-opacity:1;" d="M 86.5 30.21875 L 94.921875 27.667969 C 102.71875 25.328125 105.734375 20.023438 103.347656 14.5625 C 100.957031 9.101562 94.546875 6.65625 86.6875 8.996094 L 79.269531 11.234375 L 78.328125 11.492188 L 76.441406 12.066406 L 76.945312 13.160156 L 79.332031 13.730469 Z M 85.683594 13.730469 L 88.699219 12.847656 C 91.78125 11.910156 95.929688 12.273438 97.6875 16.332031 C 99.449219 20.335938 96.558594 22.832031 93.476562 23.769531 L 90.460938 24.652344 Z M 85.683594 13.730469 "/>
<path style=" stroke:none;fill-rule:nonzero;fill:rgb(11.372549%,25.882354%,54.11765%);fill-opacity:1;" d="M 64.875 40.046875 L 79.710938 32.921875 L 78.261719 28.605469 L 67.453125 33.753906 L 58.148438 20.386719 L 54.25 22.207031 L 52.929688 22.882812 L 51.609375 23.507812 L 52.300781 24.496094 L 54.1875 24.652344 Z M 64.875 40.046875 "/>
<path style=" stroke:none;fill-rule:nonzero;fill:rgb(11.372549%,25.882354%,54.11765%);fill-opacity:1;" d="M 50.289062 35.574219 C 45.828125 31.308594 38.285156 30.582031 32.375 34.847656 C 26.464844 39.109375 26.277344 45.351562 30.738281 49.617188 C 35.203125 53.882812 42.746094 54.660156 48.65625 50.394531 C 54.628906 46.132812 54.816406 39.839844 50.289062 35.574219 M 35.453125 46.289062 C 32.6875 43.636719 32.6875 40.359375 35.832031 38.121094 C 38.910156 35.886719 42.933594 36.300781 45.699219 38.953125 C 48.46875 41.554688 48.46875 44.933594 45.324219 47.171875 C 42.179688 49.410156 38.15625 48.886719 35.453125 46.289062 "/>
<path style=" stroke:none;fill-rule:nonzero;fill:rgb(11.372549%,25.882354%,54.11765%);fill-opacity:1;" d="M 26.023438 52.371094 L 21.308594 57.367188 L 20.054688 58.664062 L 18.042969 60.796875 L 21.8125 63.242188 L 25.585938 59.289062 C 26.703125 61.179688 26.382812 63.4375 24.769531 65.0625 C 22.191406 67.765625 18.167969 67.921875 14.898438 65.792969 C 11.566406 63.660156 10.8125 60.382812 13.390625 57.675781 C 13.78125 57.277344 14.222656 56.910156 14.710938 56.585938 C 15.382812 56.152344 16.152344 55.832031 16.972656 55.648438 L 18.921875 53.570312 L 21.375 50.96875 L 21.5 50.863281 C 21.375 50.863281 21.246094 50.8125 21.121094 50.8125 C 16.847656 50.335938 12.585938 51.734375 9.871094 54.503906 C 9.664062 54.683594 9.476562 54.875 9.304688 55.078125 C 4.464844 60.175781 5.71875 66.363281 11.125 69.847656 C 16.53125 73.332031 24.078125 72.863281 28.917969 67.765625 C 29.105469 67.613281 29.230469 67.402344 29.417969 67.246094 C 32.398438 64.003906 32.746094 59.601562 30.300781 56.066406 C 30.09375 55.742188 29.863281 55.429688 29.609375 55.128906 C 28.871094 54.328125 28.027344 53.59375 27.09375 52.945312 C 26.652344 52.738281 26.339844 52.527344 26.023438 52.371094 "/>
<path style=" stroke:none;fill-rule:nonzero;fill:rgb(11.372549%,25.882354%,54.11765%);fill-opacity:1;" d="M 188.460938 14.976562 L 190.535156 16.589844 C 192.296875 17.941406 193.175781 18.617188 192.800781 19.660156 C 192.546875 20.492188 191.292969 20.90625 189.53125 20.492188 C 187.078125 19.765625 184.992188 18.371094 183.621094 16.539062 L 181.863281 21.53125 C 183.777344 23.011719 186.113281 24.066406 188.652344 24.601562 C 193.238281 25.691406 197.703125 24.339844 199.023438 20.648438 C 200.027344 17.734375 198.144531 15.757812 195.566406 13.78125 L 193.175781 11.859375 C 192.046875 10.972656 191.792969 10.402344 192.046875 9.726562 C 192.296875 8.894531 193.492188 8.582031 195 8.894531 C 197.277344 9.515625 199.269531 10.695312 200.71875 12.273438 L 202.292969 7.75 C 200.53125 6.425781 198.421875 5.464844 196.132812 4.941406 C 191.164062 3.746094 187.140625 5.566406 186.074219 8.738281 C 185.128906 10.972656 185.949219 13.054688 188.460938 14.976562 "/>
<path style=" stroke:none;fill-rule:nonzero;fill:rgb(11.372549%,25.882354%,54.11765%);fill-opacity:1;" d="M 208.328125 30.476562 L 213.859375 32.609375 L 221.84375 18.359375 L 228.695312 21.011719 L 230.769531 17.265625 L 211.597656 9.882812 L 209.519531 13.625 L 216.371094 16.226562 Z M 208.328125 30.476562 "/>
<path style=" stroke:none;fill-rule:nonzero;fill:rgb(11.372549%,25.882354%,54.11765%);fill-opacity:1;" d="M 223.792969 34.167969 L 222.34375 35.9375 L 226.496094 38.226562 L 228.253906 36.613281 L 230.894531 35.523438 L 234.605469 37.550781 L 238.3125 39.578125 L 238.0625 42.023438 L 236.929688 43.949219 L 241.078125 46.289062 L 242.523438 44.519531 L 247.992188 26.265625 L 245.164062 24.652344 L 242.902344 23.402344 L 242.273438 23.039062 L 240.386719 22 L 239.570312 22.988281 L 240.199219 24.339844 Z M 241.707031 28.8125 L 239.507812 35.625 L 237.179688 34.324219 L 234.855469 33.027344 Z M 241.707031 28.8125 "/>
<path style=" stroke:none;fill-rule:nonzero;fill:rgb(11.372549%,25.882354%,54.11765%);fill-opacity:1;" d="M 255.285156 35.832031 L 260.816406 40.148438 L 247.867188 51.644531 L 252.332031 55.078125 L 265.28125 43.582031 L 270.8125 47.796875 L 274.207031 44.832031 L 258.679688 32.871094 Z M 255.285156 35.832031 "/>
<path style=" stroke:none;fill-rule:nonzero;fill:rgb(11.372549%,25.882354%,54.11765%);fill-opacity:1;" d="M 272.761719 61.785156 L 278.105469 67.457031 L 282.003906 64.957031 L 276.660156 59.289062 L 280.117188 57.054688 L 286.085938 63.398438 L 290.804688 61.734375 L 280.996094 51.332031 L 281.058594 51.28125 L 279.171875 49.304688 L 278.105469 50.03125 L 278.167969 51.957031 L 261.445312 62.828125 L 271.691406 73.695312 L 275.589844 71.148438 L 269.054688 64.179688 Z M 272.761719 61.785156 "/>
<path style=" stroke:none;fill-rule:nonzero;fill:rgb(11.372549%,25.882354%,54.11765%);fill-opacity:1;" d="M 291.304688 144.429688 C 291.304688 210.148438 226.910156 263.425781 147.476562 263.425781 C 68.039062 263.425781 3.644531 210.148438 3.644531 144.429688 C 3.644531 78.707031 68.039062 25.433594 147.476562 25.433594 C 226.910156 25.4375 291.300781 78.710938 291.304688 144.429688 "/>
<path style=" stroke:none;fill-rule:nonzero;fill:rgb(99.215686%,72.549021%,15.294118%);fill-opacity:1;" d="M 241.519531 66.570312 C 189.585938 23.574219 105.351562 23.558594 53.398438 66.542969 C 1.445312 109.523438 1.460938 179.214844 53.433594 222.179688 C 105.367188 265.179688 189.601562 265.191406 241.554688 222.210938 C 293.507812 179.230469 293.492188 109.535156 241.519531 66.570312 M 58.523438 70.785156 C 101.492188 35.324219 168.925781 30.28125 218.878906 58.792969 C 268.832031 87.308594 287.078125 141.253906 262.261719 187.074219 C 246.988281 182.8125 231.964844 178.027344 217.253906 172.617188 C 215.304688 171.890625 213.355469 171.210938 211.46875 170.484375 L 205.75 168.25 L 202.859375 167.105469 L 200.027344 165.960938 L 194.371094 163.621094 C 192.484375 162.839844 190.601562 162.007812 188.777344 161.175781 L 185.949219 159.925781 C 185.003906 159.511719 184.125 159.09375 183.183594 158.679688 L 177.648438 156.128906 L 172.179688 153.476562 C 157.542969 146.421875 143.53125 138.515625 130.25 129.8125 C 123.652344 125.445312 117.175781 120.921875 111.078125 116.082031 C 107.996094 113.691406 105.042969 111.195312 102.152344 108.644531 C 101.460938 108.023438 100.707031 107.398438 100.015625 106.722656 C 99.324219 106.097656 98.632812 105.421875 97.941406 104.746094 C 97.25 104.070312 96.558594 103.445312 95.929688 102.769531 C 95.929688 102.71875 95.867188 102.71875 95.867188 102.664062 C 95.613281 95.019531 95.488281 90.441406 95.488281 90.441406 L 89.203125 89.195312 L 89.203125 96.164062 L 83.859375 96.164062 L 83.859375 88.832031 L 77.132812 90.183594 L 77.195312 92.835938 L 74.050781 94.238281 C 74.113281 96.425781 74.179688 99.285156 74.242188 102.664062 C 71.664062 106.359375 43.816406 146.195312 22.945312 158.46875 C 22.167969 153.765625 21.769531 149.023438 21.75 144.273438 C 21.605469 116.6875 34.855469 90.210938 58.523438 70.785156 M 223.792969 195.449219 L 210.839844 195.8125 L 200.28125 173.1875 L 202.355469 174.019531 L 208.136719 176.414062 C 210.085938 177.195312 212.035156 177.921875 213.984375 178.703125 C 214.550781 178.910156 215.117188 179.117188 215.621094 179.328125 Z M 220.648438 181.25 C 225.867188 183.226562 231.144531 185.097656 236.425781 186.917969 L 240.765625 194.929688 L 227.75 195.292969 Z M 206.820312 195.917969 L 193.554688 196.28125 L 179.789062 163.929688 C 180.667969 164.347656 181.546875 164.761719 182.425781 165.179688 L 185.257812 166.480469 C 187.140625 167.363281 189.027344 168.195312 190.914062 169.082031 L 195.25 171.003906 Z M 189.71875 196.386719 L 177.902344 196.695312 L 160.675781 154.152344 C 163.316406 155.558594 165.957031 156.960938 168.660156 158.316406 L 174.191406 161.125 L 174.945312 161.488281 Z M 173.941406 196.851562 L 161.558594 197.21875 L 141.125 142.972656 C 145.839844 145.882812 150.683594 148.691406 155.523438 151.449219 Z M 157.660156 197.320312 L 145.714844 197.632812 L 121.386719 129.867188 C 123.085938 131.113281 124.84375 132.308594 126.605469 133.507812 C 129.6875 135.640625 132.765625 137.667969 135.972656 139.695312 Z M 141.882812 197.738281 L 128.679688 198.101562 L 99.636719 112.339844 C 102.152344 114.679688 104.792969 116.914062 107.496094 119.152344 C 110.324219 121.492188 113.214844 123.730469 116.105469 125.964844 Z M 124.84375 198.207031 L 113.40625 198.515625 L 97.4375 148.171875 C 96.933594 135.171875 96.496094 123.207031 96.179688 113.535156 Z M 109.570312 198.621094 L 99.699219 198.882812 C 99.070312 186.917969 98.507812 174.332031 98.003906 162.109375 Z M 249.125 205.851562 C 248.246094 206.785156 247.425781 207.773438 246.484375 208.710938 L 100.203125 206.320312 L 100.140625 205.175781 Z M 244.789062 194.875 L 241.457031 188.636719 C 246.988281 190.507812 252.582031 192.277344 258.175781 193.941406 C 258.050781 194.097656 257.925781 194.304688 257.800781 194.460938 Z M 89.140625 118.734375 L 89.140625 125.132812 L 83.292969 125.132812 L 83.292969 131.0625 L 89.140625 131.0625 L 89.140625 137.460938 L 83.292969 137.460938 L 83.292969 143.386719 L 89.140625 143.386719 L 89.140625 155.402344 L 83.292969 155.402344 L 83.292969 161.332031 L 89.140625 161.332031 L 89.140625 173.710938 L 83.292969 173.710938 L 83.292969 179.636719 L 89.140625 179.636719 L 89.140625 199.089844 L 83.734375 199.246094 L 83.734375 108.699219 L 89.078125 108.699219 L 89.078125 112.703125 L 83.230469 112.703125 L 83.230469 118.632812 L 89.140625 118.632812 Z M 32.6875 187.128906 L 49.097656 141.410156 C 57.085938 132.535156 64.3125 123.199219 70.71875 113.484375 L 41.300781 200.335938 C 38.039062 196.117188 35.160156 191.699219 32.6875 187.128906 M 30.363281 182.65625 C 27.453125 176.550781 25.265625 170.226562 23.824219 163.777344 C 30.78125 159.046875 37.140625 153.75 42.808594 147.964844 Z M 74.179688 114.679688 C 74.179688 123.886719 73.988281 134.960938 73.738281 146.769531 L 56.828125 200.078125 L 45.136719 200.390625 Z M 73.359375 160.136719 C 72.921875 173.34375 72.355469 186.972656 71.539062 199.660156 L 60.726562 199.972656 Z M 50.917969 211.207031 L 70.71875 211.78125 C 70.34375 216.824219 69.902344 221.609375 69.402344 226.082031 C 65.578125 223.566406 61.925781 220.875 58.460938 218.019531 C 55.820312 215.835938 53.308594 213.546875 50.917969 211.207031 M 147.476562 248.496094 C 132.046875 248.527344 116.746094 246.199219 102.339844 241.632812 C 101.773438 234.507812 101.210938 225.976562 100.644531 216.667969 L 89.140625 213.445312 L 89.140625 236.691406 C 87.316406 235.910156 85.492188 235.078125 83.734375 234.195312 L 83.734375 212.144531 L 89.140625 212.300781 L 89.140625 212.457031 L 94.984375 212.457031 L 105.609375 212.769531 L 238.0625 216.667969 C 237.558594 217.136719 236.992188 217.550781 236.488281 218.019531 C 212.921875 237.597656 180.875 248.570312 147.476562 248.496094 "/>
<path style=" stroke:none;fill-rule:nonzero;fill:rgb(11.372549%,25.882354%,54.11765%);fill-opacity:1;" d="M 190.285156 271.171875 L 188.839844 265.035156 L 180.855469 266.335938 L 171.804688 267.792969 L 163.820312 269.09375 L 165.265625 275.175781 L 173.1875 273.929688 L 177.273438 291.195312 L 169.351562 292.496094 L 170.734375 298.582031 L 178.78125 297.332031 L 187.832031 295.878906 L 195.753906 294.578125 L 194.308594 288.441406 L 186.386719 289.742188 L 182.300781 272.472656 Z M 190.285156 271.171875 "/>
<path style=" stroke:none;fill-rule:nonzero;fill:rgb(11.372549%,25.882354%,54.11765%);fill-opacity:1;" d="M 236.488281 263.890625 C 240.890625 271.695312 237.433594 280.796875 226.683594 284.902344 C 215.933594 289.066406 205.308594 285.371094 200.910156 277.570312 C 196.507812 269.769531 199.964844 260.71875 210.714844 256.558594 C 221.464844 252.449219 232.089844 256.089844 236.488281 263.890625 M 228.003906 267.167969 C 225.300781 262.382812 219.707031 260.355469 214.046875 262.539062 C 208.328125 264.722656 206.691406 269.5625 209.394531 274.347656 C 212.097656 279.078125 217.628906 281.210938 223.351562 279.027344 C 229.007812 276.84375 230.707031 271.902344 228.003906 267.167969 "/>
<path style=" stroke:none;fill-rule:nonzero;fill:rgb(11.372549%,25.882354%,54.11765%);fill-opacity:1;" d="M 262.765625 239.1875 C 258.238281 234.820312 251.136719 235.132812 245.792969 238.929688 L 235.734375 246.054688 L 234.164062 247.144531 L 232.277344 248.496094 L 233.660156 249.796875 L 236.742188 249.589844 L 257.800781 270.027344 L 264.777344 265.089844 L 256.164062 256.765625 L 258.175781 255.363281 L 273.703125 258.796875 L 282.128906 252.867188 L 264.148438 249.382812 C 266.148438 246.054688 265.609375 242.066406 262.765625 239.1875 M 254.59375 249.851562 L 251.324219 252.136719 L 245.980469 246.988281 L 249.375 244.597656 C 251.324219 243.246094 253.777344 242.933594 255.535156 244.648438 C 257.359375 246.3125 256.667969 248.339844 254.59375 249.851562 "/>
<path style=" stroke:none;fill-rule:nonzero;fill:rgb(11.372549%,25.882354%,54.11765%);fill-opacity:1;" d="M 296.773438 238.042969 C 294.515625 240.75 291.4375 242.921875 287.847656 244.335938 L 280.242188 239.605469 C 284.140625 239.007812 287.671875 237.320312 290.238281 234.820312 C 291.933594 232.945312 291.808594 231.28125 290.613281 230.503906 C 289.042969 229.515625 287.410156 230.136719 284.140625 231.492188 L 280.242188 233 C 275.527344 234.871094 271.503906 234.714844 268.109375 232.582031 C 263.269531 229.566406 262.390625 223.898438 267.105469 218.695312 C 269.246094 216.285156 272.046875 214.324219 275.277344 212.976562 L 282.191406 217.292969 C 278.746094 218.183594 275.675781 219.859375 273.328125 222.128906 C 271.945312 223.636719 271.882812 225.199219 273.136719 225.976562 C 274.144531 226.601562 275.277344 226.601562 277.414062 225.769531 L 282.003906 223.949219 C 286.78125 222.023438 291.242188 220.882812 295.644531 223.636719 C 301.300781 227.277344 301.113281 233.3125 296.773438 238.042969 "/>
<path style=" stroke:none;fill-rule:nonzero;fill:rgb(11.372549%,25.882354%,54.11765%);fill-opacity:1;" d="M 155.082031 278.714844 C 155.332031 272.941406 149.800781 269.25 142.761719 269.042969 L 129.496094 268.675781 L 127.484375 268.625 L 124.972656 268.574219 L 124.910156 270.339844 L 127.359375 271.902344 L 126.226562 298.738281 L 135.40625 299 L 135.847656 288.023438 L 138.488281 288.078125 L 147.160156 299.308594 L 158.226562 299.621094 L 147.789062 287.035156 C 151.980469 285.683594 154.832031 282.429688 155.082031 278.714844 M 140.371094 281.992188 L 136.097656 281.886719 L 136.414062 275.125 L 140.875 275.230469 C 143.453125 275.28125 145.464844 276.425781 145.402344 278.714844 C 145.277344 280.953125 143.136719 282.042969 140.371094 281.992188 "/>
<path style=" stroke:none;fill-rule:nonzero;fill:rgb(11.372549%,25.882354%,54.11765%);fill-opacity:1;" d="M 114.222656 276.011719 C 116.171875 270.496094 111.957031 265.710938 105.230469 264.101562 L 92.535156 260.980469 L 90.585938 260.511719 L 88.195312 259.941406 L 87.566406 261.605469 L 89.453125 263.632812 L 80.214844 289.375 L 89.015625 291.507812 L 92.785156 281.003906 L 95.363281 281.628906 L 100.328125 294.265625 L 110.953125 296.867188 L 104.667969 282.511719 C 109.128906 282.109375 112.882812 279.554688 114.222656 276.011719 M 99.007812 276.167969 L 94.921875 275.179688 L 97.25 268.675781 L 101.523438 269.71875 C 103.976562 270.339844 105.609375 271.851562 104.855469 274.035156 C 104.039062 276.167969 101.648438 276.789062 99.007812 276.167969 "/>
<path style=" stroke:none;fill-rule:nonzero;fill:rgb(11.372549%,25.882354%,54.11765%);fill-opacity:1;" d="M 70.972656 251.878906 L 67.765625 250.316406 L 66.507812 249.695312 L 63.867188 248.394531 L 62.800781 249.902344 L 63.679688 251.566406 L 39.855469 267.792969 L 37.84375 270.601562 L 44.382812 273.773438 L 46.832031 271.171875 L 50.730469 269.300781 L 56.511719 272.109375 L 62.296875 274.917969 L 62.171875 278.609375 L 60.664062 281.628906 L 67.199219 284.800781 L 69.210938 281.992188 L 75.5 253.90625 Z M 60.160156 267.066406 L 56.511719 265.296875 L 66.382812 258.328125 L 63.804688 268.832031 Z M 60.160156 267.066406 "/>
<path style=" stroke:none;fill-rule:nonzero;fill:rgb(11.372549%,25.882354%,54.11765%);fill-opacity:1;" d="M 49.222656 240.230469 L 46.957031 238.199219 L 45.386719 239.394531 L 45.703125 241.527344 L 26.089844 248.550781 L 38.785156 230.8125 L 34.824219 227.226562 L 12.511719 236.277344 L 24.453125 217.917969 L 17.601562 211.675781 L 16.722656 210.894531 L 15.148438 212.039062 L 15.589844 214.953125 L 0 240.332031 L 6.285156 246 L 21.246094 240.851562 L 13.765625 252.710938 L 19.992188 258.378906 L 56.011719 246.417969 Z M 49.222656 240.230469 "/>
</g>
</svg>
