<?xml version="1.0"?>
<svg width="595.27557" height="841.88977" xmlns="http://www.w3.org/2000/svg" xmlns:svg="http://www.w3.org/2000/svg" version="1.1">

 <g class="layer">
  <title>Layer 1</title>
  <path d="m249.84,687.46c0,0 3.37,-87.21 5.33,-173.3c24.87,0.82 48.83,0.84 73.63,0.1c0.56,83.29 3.9,178.51 3.9,178.51c0,0 3.38,-73.57 4.55,-89.94c0.33,-4.45 0.96,-10.33 3.38,-11.41c3.5,-1.54 6.35,0.53 6.35,10.93c0,16.68 4.18,111.63 4.18,111.63c0,0 3.63,-69.18 5.13,-92.06c0.3,-4.4 0.56,-7.2 1.59,-9.14c1.64,-3.13 5.06,-3.39 6.67,0.5c1.18,2.84 1.34,7.62 1.41,14.62c0.2,20.32 3.17,131.72 3.17,131.72c1.05,-32.74 3.63,-86.59 4.84,-140.99c0.78,-35.56 1.44,-72.38 1.97,-106.65c42.61,-3.02 91.17,-10.89 119.76,-19.99c52.36,-16.65 58.82,-38.03 16.99,-53.55c-41.81,-15.52 -134.46,-15.89 -134.46,-15.89l-1.01,0.08c0.45,-33.84 0.73,-56.76 0.9,-59.96c0.58,-11.73 -8.98,-20.42 -23.81,-23.83c-14.85,-3.39 -34.71,-2.96 -34.71,-2.96c0,0 63.31,-18.17 71.13,-55.25c5.59,-26.49 -0.53,-49.53 -31.37,-63.14c-31.97,-14.11 -67.38,-11.81 -101.27,-9.42c-2.37,0.18 -4.75,0.35 -7.12,0.56c-2.97,-42.56 -17.44,-81.94 -17.44,-81.94c0,0 -16.62,41.92 -23.29,86.38l-0.1,0.63c-43.8,6.97 -79.82,17.32 -84.76,20.37c26.65,-3.1 55.68,-3.66 82.82,-2.88c-2.29,29.07 -0.63,59.8 -0.81,88.32c-0.18,29.84 0.76,66.18 1.16,103.04c0,0 -92.66,0.37 -134.47,15.89c-41.83,15.52 -35.37,36.91 17.01,53.55c28.3,9.01 76.24,16.82 118.56,19.91c1.19,68.83 2.89,123.36 2.89,123.36c0,0 4.75,-63.3 5.91,-78.54c0.33,-4.13 0.96,-9.59 3.38,-10.6c3.5,-1.43 6.35,0.5 6.35,10.17c0,15.5 2.32,106.22 2.32,106.22c0,0 5.49,-66.77 6.98,-88.03c0.3,-4.1 0.56,-6.68 1.59,-8.5c1.64,-2.91 5.06,-3.15 6.67,0.47c1.18,2.63 1.34,7.07 1.41,13.58c0.2,18.89 2.69,107.46 2.69,107.46zm5.77,-194.48c0.41,-20.41 0.71,-40.34 0.85,-58.58c0.22,-30.41 1.46,-61.87 1.97,-89.53c3.68,0.06 9.14,0.27 15.3,0.88c15.25,1.54 47.17,7.92 53.74,23.15c2.31,5.38 1.94,12.64 1.66,24.07c-0.27,11.5 -0.56,52.15 -0.43,100.07c-17.72,0.43 -29.48,0.26 -29.48,0.26l-11.66,0c0,0 -12.84,0.19 -31.94,-0.32zm120.67,-2.28c0.35,-23.76 0.65,-45.78 0.9,-64.62c11.4,1.38 29.48,3.68 57.65,7.42c62.53,8.32 78.94,27.25 22.66,44.28c-22.83,6.91 -53.19,10.76 -81.21,12.92zm-167.7,-64.49c0.02,2.35 0.05,4.71 0.07,7.07c0.13,19.33 0.37,38.67 0.65,57.33c-27.69,-2.17 -57.51,-6.01 -80.02,-12.82c-56.28,-17.03 -39.87,-35.96 22.66,-44.28c27.36,-3.63 45.21,-5.9 56.64,-7.29zm49.96,-86.55c0.1,-7.25 0.15,-14.2 0.12,-20.77c-0.17,-26.45 -1.18,-58.31 -3.2,-85.04c20.81,1.56 49.13,4.16 67.29,15.01c10.25,6.12 17.42,15.86 17.89,27.56c0.3,7.33 -0.83,15.59 -6.57,25.77c-19.15,34.06 -75.52,37.48 -75.52,37.48z" fill="#000000" fill-rule="evenodd" id="path4"/>
 </g>
</svg>