<?xml version="1.0" encoding="UTF-8" standalone="no"?>
<svg
   version="1.1"
   width="595.27557pt"
   height="841.88977pt"
   id="svg6"
   viewBox="0 0 595.27557 841.88977"
   sodipodi:docname="houston-rockets-seeklogo.cdr"
   xmlns:inkscape="http://www.inkscape.org/namespaces/inkscape"
   xmlns:sodipodi="http://sodipodi.sourceforge.net/DTD/sodipodi-0.dtd"
   xmlns="http://www.w3.org/2000/svg"
   xmlns:svg="http://www.w3.org/2000/svg">
  <defs
     id="defs10" />
  <sodipodi:namedview
     id="namedview8"
     pagecolor="#ffffff"
     bordercolor="#000000"
     borderopacity="0.25"
     inkscape:showpageshadow="2"
     inkscape:pageopacity="0.0"
     inkscape:pagecheckerboard="0"
     inkscape:deskcolor="#d1d1d1"
     inkscape:document-units="pt" />
  <path
     d="m 275.1406,573.6869 c 0,0 2.0291,-54.2849 3.2094,-107.8611 14.9874,0.504 29.429,0.5222 44.3764,0.055 0.3453,51.8463 2.353,111.1028 2.353,111.1028 0,0 2.0362,-45.7883 2.7448,-55.9825 0.1922,-2.7669 0.5718,-6.4282 2.0393,-7.0974 2.1081,-0.9618 3.8256,0.3265 3.8256,6.8048 0,10.3771 2.5175,69.4738 2.5175,69.4738 0,0 2.1903,-43.0622 3.0962,-57.2992 0.1744,-2.742 0.3379,-4.4754 0.9564,-5.6917 0.9888,-1.9454 3.0547,-2.1033 4.0224,0.3152 0.7064,1.7645 0.8104,4.7389 0.8504,9.093 0.1168,12.6544 1.912,81.9839 1.912,81.9839 0.6259,-20.3743 2.1855,-53.8901 2.9126,-87.7456 0.4753,-22.1296 0.8702,-45.0502 1.1965,-66.3843 25.6773,-1.876 54.9479,-6.7791 72.1749,-12.4356 31.5649,-10.364 35.4512,-23.675 10.2464,-33.3329 -25.2049,-9.6579 -81.0491,-9.8946 -81.0491,-9.8946 l -0.6029,0.0502 c 0.2687,-21.0606 0.4382,-35.3254 0.5346,-37.3193 0.3526,-7.2935 -5.4113,-12.7049 -14.3518,-14.8223 -8.9405,-2.1175 -20.916,-1.8465 -20.916,-1.8465 0,0 38.1608,-11.3072 42.8717,-34.3917 3.3648,-16.4888 -0.3217,-30.8276 -18.9155,-39.2983 -19.268,-8.7781 -40.6032,-7.3523 -61.0354,-5.857 -1.4292,0.1046 -2.8584,0.2222 -4.2871,0.349 -1.7912,-26.4856 -10.5162,-50.9956 -10.5162,-50.9956 0,0 -10.0205,26.0836 -14.0369,53.7559 l -0.0556,0.3926 c -26.4047,4.3382 -48.1124,10.7796 -51.0979,12.6797 16.0594,-1.9313 33.5657,-2.2825 49.9269,-1.7941 -1.3855,18.0896 -0.3869,37.2215 -0.4935,54.9675 -0.1117,18.576 0.4612,41.1985 0.6988,64.1305 0,0 -55.8442,0.2366 -81.0491,9.8946 -25.2048,9.6579 -21.3185,22.9688 10.2464,33.3329 17.0677,5.6043 45.9573,10.4686 71.4617,12.3825 0.7186,42.8406 1.7385,76.7787 1.7385,76.7787 0,0 2.8593,-39.3982 3.5683,-48.8744 0.1924,-2.5725 0.5717,-5.9754 2.0392,-6.5977 2.1081,-0.894 3.8256,0.3036 3.8256,6.3256 0,9.6463 1.4026,66.1067 1.4026,66.1067 0,0 3.3049,-41.5556 4.2112,-54.7897 0.1743,-2.5492 0.3379,-4.1601 0.9564,-5.2909 0.9887,-1.8082 3.0546,-1.955 4.0224,0.2931 0.7063,1.6404 0.8101,4.4051 0.8503,8.4524 0.1168,11.7632 1.6186,66.882 1.6186,66.882 z m 3.4818,-121.0442 c 0.2444,-12.7014 0.4266,-25.105 0.5071,-36.4538 0.1344,-18.9309 0.8819,-38.5118 1.1929,-55.7249 2.2147,0.0377 5.5054,0.1667 9.2182,0.5528 9.1874,0.9555 28.4298,4.9309 32.3853,14.4122 1.3978,3.35 1.1704,7.8604 1.0057,14.9723 -0.1661,7.1614 -0.3407,32.4626 -0.2619,62.2803 -10.6829,0.271 -17.7693,0.163 -17.7693,0.163 l -7.027,5e-4 c 0,0 -7.746,0.1182 -19.251,-0.2024 z m 72.7277,-1.4201 c 0.2146,-14.7835 0.3946,-28.4848 0.5448,-40.2197 6.8607,0.8626 17.7661,2.2887 34.7445,4.6233 37.6895,5.1823 47.583,16.9603 13.6625,27.5604 -13.7628,4.3008 -32.0636,6.7017 -48.9518,8.036 z m -101.079,-40.1423 c 0.0137,1.4672 0.0258,2.935 0.0363,4.4028 0.0854,12.0316 0.2243,24.0738 0.3926,35.6814 -16.6861,-1.3456 -34.6612,-3.7378 -48.2281,-7.9773 -33.9205,-10.6001 -24.027,-22.3781 13.6625,-27.5604 16.484,-2.2666 27.2454,-3.6771 34.1367,-4.5465 z m 30.1048,-53.8662 c 0.0672,-4.5127 0.099,-8.843 0.0746,-12.9331 -0.0984,-16.459 -0.7141,-36.2829 -1.9321,-52.9262 12.5459,0.9675 29.609,2.5883 40.5578,9.3359 6.1807,3.8089 10.5024,9.8728 10.7878,17.153 0.1789,4.5635 -0.5079,9.7047 -3.9591,16.0441 -11.5421,21.2 -45.5287,23.3263 -45.5287,23.3263 z"
     style="fill:#231a0b;fill-rule:evenodd"
     id="path2" />
  <path
     d="m 275.1406,571.7027 c 0,0 2.0291,-54.2849 3.2094,-107.8611 14.9874,0.504 29.429,0.5221 44.3764,0.055 0.3453,51.8462 2.353,111.1028 2.353,111.1028 0,0 2.0362,-45.7883 2.7448,-55.9826 0.1922,-2.7669 0.5718,-6.4281 2.0393,-7.0974 2.1081,-0.9618 3.8256,0.3266 3.8256,6.8049 0,10.3771 2.5175,69.4737 2.5175,69.4737 0,0 2.1903,-43.0622 3.0962,-57.2992 0.1744,-2.7419 0.3379,-4.4753 0.9564,-5.6917 0.9888,-1.9454 3.0547,-2.1033 4.0224,0.3152 0.7064,1.7646 0.8104,4.739 0.8504,9.093 0.1168,12.6544 1.912,81.9839 1.912,81.9839 0.6259,-20.3743 2.1855,-53.89 2.9126,-87.7456 0.4753,-22.1295 0.8702,-45.0502 1.1965,-66.3843 25.6773,-1.8759 54.9479,-6.779 72.1749,-12.4356 31.5649,-10.364 35.4512,-23.6749 10.2464,-33.3328 -25.2049,-9.658 -81.0491,-9.8947 -81.0491,-9.8947 l -0.6029,0.0502 c 0.2687,-21.0606 0.4382,-35.3253 0.5346,-37.3192 0.3526,-7.2936 -5.4113,-12.7049 -14.3518,-14.8224 -8.9405,-2.1175 -20.916,-1.8465 -20.916,-1.8465 0,0 38.1608,-11.3071 42.8717,-34.3916 3.3648,-16.4889 -0.3217,-30.8276 -18.9155,-39.2984 -19.268,-8.778 -40.6032,-7.3522 -61.0354,-5.8569 -1.4292,0.1046 -2.8584,0.2222 -4.2871,0.3489 -1.7912,-26.4855 -10.5162,-50.9956 -10.5162,-50.9956 0,0 -10.0205,26.0836 -14.0369,53.756 l -0.0556,0.3926 c -26.4047,4.3381 -48.1124,10.7796 -51.0979,12.6796 16.0594,-1.9312 33.5657,-2.2824 49.9269,-1.794 -1.3855,18.0896 -0.3869,37.2214 -0.4935,54.9674 -0.1117,18.576 0.4612,41.1985 0.6988,64.1305 0,0 -55.8442,0.2367 -81.0491,9.8946 -25.2048,9.6579 -21.3185,22.9689 10.2464,33.3329 17.0677,5.6044 45.9573,10.4686 71.4617,12.3826 0.7186,42.8405 1.7385,76.7786 1.7385,76.7786 0,0 2.8593,-39.3981 3.5683,-48.8744 0.1924,-2.5724 0.5717,-5.9754 2.0392,-6.5976 2.1081,-0.8941 3.8256,0.3036 3.8256,6.3255 0,9.6463 1.4026,66.1068 1.4026,66.1068 0,0 3.3049,-41.5556 4.2112,-54.7898 0.1743,-2.5491 0.3379,-4.1601 0.9564,-5.2908 0.9887,-1.8082 3.0546,-1.9551 4.0224,0.2931 0.7063,1.6404 0.8101,4.405 0.8503,8.4523 0.1168,11.7632 1.6186,66.8821 1.6186,66.8821 z m 3.4818,-121.0442 c 0.2444,-12.7015 0.4266,-25.1051 0.5071,-36.4538 0.1344,-18.9309 0.8819,-38.5118 1.1929,-55.7249 2.2147,0.0377 5.5054,0.1667 9.2182,0.5527 9.1874,0.9556 28.4298,4.9309 32.3853,14.4122 1.3978,3.35 1.1704,7.8605 1.0057,14.9723 -0.1661,7.1615 -0.3407,32.4627 -0.2619,62.2803 -10.6829,0.271 -17.7693,0.163 -17.7693,0.163 l -7.027,6e-4 c 0,0 -7.746,0.1182 -19.251,-0.2024 z m 72.7277,-1.4202 c 0.2146,-14.7835 0.3946,-28.4848 0.5448,-40.2196 6.8607,0.8626 17.7661,2.2887 34.7445,4.6233 37.6895,5.1823 47.583,16.9602 13.6625,27.5604 -13.7628,4.3007 -32.0636,6.7017 -48.9518,8.0359 z m -101.079,-40.1422 c 0.0137,1.4672 0.0258,2.935 0.0363,4.4027 0.0854,12.0317 0.2243,24.0738 0.3926,35.6814 -16.6861,-1.3456 -34.6612,-3.7377 -48.2281,-7.9772 -33.9205,-10.6002 -24.027,-22.3781 13.6625,-27.5604 16.484,-2.2666 27.2454,-3.6772 34.1367,-4.5465 z m 30.1048,-53.8662 c 0.0672,-4.5128 0.099,-8.843 0.0746,-12.9331 -0.0984,-16.4591 -0.7141,-36.2829 -1.9321,-52.9262 12.5459,0.9674 29.609,2.5883 40.5578,9.3359 6.1807,3.8089 10.5024,9.8727 10.7878,17.153 0.1789,4.5635 -0.5079,9.7047 -3.9591,16.0441 -11.5421,21.2 -45.5287,23.3263 -45.5287,23.3263 z"
     style="fill:#d40f44;fill-rule:evenodd"
     id="path4" />
</svg>
