<?xml version="1.0" encoding="UTF-8"?>
<svg xmlns="http://www.w3.org/2000/svg" xmlns:xlink="http://www.w3.org/1999/xlink" width="300px" height="300px" viewBox="0 0 300 300" version="1.1">
<g id="surface1">
<path style=" stroke:none;fill-rule:nonzero;fill:rgb(74.509805%,75.294119%,76.078433%);fill-opacity:1;" d="M 299.636719 149.777344 C 299.65625 232.527344 232.582031 299.628906 149.832031 299.636719 C 67.078125 299.640625 -0.0078125 232.554688 0 149.804688 C 0.0078125 67.050781 67.105469 -0.0234375 149.859375 0 C 232.578125 0.00390625 299.632812 67.058594 299.636719 149.777344 Z M 299.636719 149.777344 "/>
<path style=" stroke:none;fill-rule:nonzero;fill:rgb(0%,17.647059%,38.431373%);fill-opacity:1;" d="M 291.058594 149.777344 C 291.023438 227.714844 227.828125 290.871094 149.890625 290.851562 C 71.953125 290.835938 8.78125 227.652344 8.78125 149.714844 C 8.78125 71.777344 71.953125 8.59375 149.890625 8.574219 C 227.828125 8.558594 291.023438 71.714844 291.058594 149.652344 C 291.058594 149.691406 291.058594 149.734375 291.058594 149.777344 Z M 291.058594 149.777344 "/>
<path style=" stroke:none;fill-rule:nonzero;fill:rgb(99.215686%,73.333335%,18.82353%);fill-opacity:1;" d="M 149.859375 15.191406 C 75.515625 15.144531 15.21875 75.382812 15.191406 149.722656 C 15.160156 224.0625 75.410156 284.347656 149.75 284.363281 C 224.089844 284.378906 284.363281 224.117188 284.363281 149.777344 C 284.382812 75.46875 224.164062 15.214844 149.859375 15.191406 Z M 149.859375 15.191406 "/>
<path style=" stroke:none;fill-rule:nonzero;fill:rgb(0%,17.647059%,38.431373%);fill-opacity:1;" d="M 241.976562 149.777344 C 241.976562 201.714844 200.65625 243.855469 149.859375 243.855469 C 98.898438 243.855469 57.738281 201.714844 57.738281 149.777344 C 57.738281 97.835938 98.898438 55.777344 149.859375 55.777344 C 200.738281 55.777344 241.976562 97.835938 241.976562 149.777344 Z M 241.976562 149.777344 "/>
<path style=" stroke:none;fill-rule:nonzero;fill:rgb(100%,100%,100%);fill-opacity:1;" d="M 236.097656 149.777344 C 236.097656 198.367188 197.550781 237.730469 149.859375 237.730469 C 102.246094 237.730469 63.617188 198.367188 63.617188 149.777344 C 63.617188 101.183594 102.164062 61.820312 149.859375 61.820312 C 197.550781 61.820312 236.097656 101.183594 236.097656 149.777344 Z M 236.097656 149.777344 "/>
<path style=" stroke:none;fill-rule:nonzero;fill:rgb(0%,17.647059%,38.431373%);fill-opacity:1;" d="M 55.289062 123.480469 L 54.390625 126.910156 L 26.867188 120.132812 L 27.765625 116.621094 Z M 55.289062 123.480469 "/>
<path style=" stroke:none;fill-rule:nonzero;fill:rgb(0%,17.647059%,38.431373%);fill-opacity:1;" d="M 59.125 81.175781 L 70.96875 90.242188 L 68.925781 92.9375 L 46.46875 75.703125 L 47.613281 74.152344 L 63.863281 78.398438 L 51.613281 69.007812 L 53.65625 66.3125 L 76.113281 83.464844 L 75.050781 85.097656 Z M 59.125 81.175781 "/>
<path style=" stroke:none;fill-rule:nonzero;fill:rgb(0%,17.647059%,38.431373%);fill-opacity:1;" d="M 88.117188 37.648438 L 93.671875 34.789062 C 96.039062 33.566406 98.980469 33.648438 100.53125 36.585938 C 104.042969 43.609375 105.675781 46.632812 109.269531 53.492188 C 109.847656 54.652344 109.914062 56.003906 109.445312 57.214844 C 108.980469 58.425781 108.027344 59.386719 106.820312 59.863281 L 101.023438 62.800781 Z M 102.898438 58.390625 L 104.371094 57.574219 C 105.578125 57.097656 106.171875 55.730469 105.691406 54.523438 C 105.664062 54.449219 105.628906 54.378906 105.59375 54.308594 C 102.65625 48.589844 100.53125 44.507812 97.589844 38.710938 C 97.0625 37.601562 95.734375 37.128906 94.625 37.660156 C 94.578125 37.679688 94.53125 37.703125 94.488281 37.730469 L 92.773438 38.628906 Z M 102.898438 58.390625 "/>
<path style=" stroke:none;fill-rule:nonzero;fill:rgb(0%,17.647059%,38.431373%);fill-opacity:1;" d="M 146.265625 49.734375 L 142.753906 49.980469 L 141.121094 21.640625 L 144.878906 21.398438 Z M 146.265625 49.734375 "/>
<path style=" stroke:none;fill-rule:nonzero;fill:rgb(0%,17.647059%,38.431373%);fill-opacity:1;" d="M 187.589844 57.25 L 188.8125 51.777344 L 184.078125 49.980469 L 181.21875 54.796875 L 177.871094 53.492188 L 192.976562 28.910156 L 196.488281 30.214844 L 191.101562 58.554688 Z M 191.507812 37.894531 L 191.34375 37.8125 L 185.546875 47.367188 L 189.386719 48.753906 Z M 191.507812 37.894531 "/>
<path style=" stroke:none;fill-rule:nonzero;fill:rgb(0%,17.647059%,38.431373%);fill-opacity:1;" d="M 229.726562 68.273438 L 218.785156 78.5625 L 216.417969 76.113281 L 237.078125 56.675781 L 238.304688 57.984375 L 231.523438 73.5 L 242.875 62.800781 L 245.164062 65.25 L 224.5 84.6875 L 223.195312 83.300781 Z M 229.726562 68.273438 "/>
<path style=" stroke:none;fill-rule:nonzero;fill:rgb(0%,17.647059%,38.431373%);fill-opacity:1;" d="M 243.855469 121.03125 L 248.839844 118.5 L 247.203125 113.679688 L 241.652344 114.578125 L 240.507812 111.148438 L 269.171875 107.308594 L 270.398438 110.820312 L 245.082031 124.625 Z M 261.414062 111.964844 L 261.25 111.71875 L 250.226562 113.273438 L 251.535156 117.109375 Z M 261.414062 111.964844 "/>
<path style=" stroke:none;fill-rule:nonzero;fill:rgb(0%,17.647059%,38.431373%);fill-opacity:1;" d="M 37.078125 208.902344 L 35.363281 205.636719 L 60.433594 192.652344 L 64.597656 200.574219 C 65.414062 202.207031 65.007812 203.433594 63.78125 204.085938 C 59.289062 206.371094 57.003906 207.597656 52.511719 209.964844 C 51.9375 210.296875 51.242188 210.363281 50.617188 210.144531 C 49.988281 209.921875 49.488281 209.441406 49.246094 208.820312 L 46.714844 203.921875 Z M 49.410156 202.453125 L 51.449219 206.289062 L 61.496094 200.980469 L 59.453125 197.144531 Z M 49.410156 202.453125 "/>
<path style=" stroke:none;fill-rule:nonzero;fill:rgb(0%,17.647059%,38.431373%);fill-opacity:1;" d="M 74.480469 253.984375 L 77.257812 249.082031 L 73.171875 245.898438 L 69.007812 249.574219 L 66.230469 247.367188 L 87.953125 228.421875 L 90.894531 230.789062 L 77.421875 256.269531 Z M 84.199219 236.671875 L 84.035156 236.425781 L 75.703125 243.773438 L 78.890625 246.308594 Z M 84.199219 236.671875 "/>
<path style=" stroke:none;fill-rule:nonzero;fill:rgb(0%,17.647059%,38.431373%);fill-opacity:1;" d="M 124.785156 266.640625 L 128.378906 267.539062 L 126.582031 274.808594 C 126.324219 276.027344 125.128906 276.804688 123.910156 276.546875 C 123.875 276.539062 123.839844 276.53125 123.808594 276.523438 C 121.273438 275.953125 119.558594 275.460938 116.945312 274.808594 C 115.707031 274.53125 114.925781 273.300781 115.203125 272.058594 C 115.210938 272.023438 115.222656 271.984375 115.230469 271.949219 C 117.4375 262.964844 118.660156 257.984375 120.867188 249 C 121.125 247.78125 122.320312 247.003906 123.539062 247.261719 C 123.574219 247.269531 123.609375 247.277344 123.644531 247.285156 C 126.175781 247.859375 127.972656 248.429688 130.585938 249 C 131.820312 249.332031 132.554688 250.597656 132.226562 251.832031 L 132.21875 251.859375 L 130.828125 257.578125 L 127.238281 256.761719 L 128.460938 251.695312 L 124.214844 250.714844 L 118.988281 272.277344 L 123.234375 273.257812 Z M 124.785156 266.640625 "/>
<path style=" stroke:none;fill-rule:nonzero;fill:rgb(0%,17.647059%,38.431373%);fill-opacity:1;" d="M 176.972656 276.359375 L 167.824219 278.074219 L 162.925781 250.144531 L 171.90625 248.511719 L 172.398438 251.535156 L 166.925781 252.429688 L 168.558594 261.578125 L 173.703125 260.679688 L 174.195312 263.699219 L 169.132812 264.601562 L 170.929688 274.320312 L 176.316406 273.417969 Z M 176.972656 276.359375 "/>
<path style=" stroke:none;fill-rule:nonzero;fill:rgb(0%,17.647059%,38.431373%);fill-opacity:1;" d="M 218.703125 258.558594 L 215.601562 260.515625 L 199.675781 237.078125 L 207.433594 231.769531 C 207.9375 231.335938 208.613281 231.152344 209.265625 231.28125 C 209.921875 231.410156 210.480469 231.832031 210.78125 232.421875 C 212.988281 235.609375 214.457031 237.730469 216.660156 241 C 217.074219 241.511719 217.238281 242.179688 217.113281 242.824219 C 216.988281 243.46875 216.582031 244.027344 216.007812 244.347656 L 215.601562 244.671875 L 225.972656 253.574219 L 222.625 255.863281 L 210.945312 245.570312 L 210.863281 244.265625 L 213.3125 242.632812 L 208.167969 235.117188 L 204.328125 237.730469 Z M 218.703125 258.558594 "/>
<path style=" stroke:none;fill-rule:nonzero;fill:rgb(0%,17.647059%,38.431373%);fill-opacity:1;" d="M 247.53125 215.761719 L 253.167969 219.355469 L 254.800781 216.742188 L 249.328125 213.230469 L 238.792969 213.804688 C 238.140625 213.882812 237.476562 213.738281 236.914062 213.394531 C 234.875 212.089844 233.976562 211.433594 231.6875 210.128906 C 230.65625 209.472656 230.351562 208.101562 231.007812 207.066406 L 231.035156 207.023438 C 232.097656 205.148438 233.078125 203.757812 234.21875 201.960938 C 234.523438 201.417969 235.050781 201.03125 235.664062 200.90625 C 236.273438 200.78125 236.910156 200.925781 237.40625 201.308594 L 242.386719 204.492188 L 240.425781 207.515625 L 236.097656 204.738281 L 234.464844 207.433594 L 238.710938 210.046875 L 248.757812 209.394531 C 249.640625 209.28125 250.539062 209.480469 251.289062 209.964844 C 253.902344 211.679688 254.800781 212.167969 257.578125 213.886719 C 258.644531 214.527344 259.007812 215.902344 258.394531 216.988281 C 257.25 218.867188 256.351562 220.253906 255.125 222.050781 C 254.816406 222.589844 254.292969 222.972656 253.683594 223.097656 C 253.074219 223.222656 252.4375 223.078125 251.941406 222.703125 L 245.734375 218.703125 Z M 247.53125 215.761719 "/>
<path style=" stroke:none;fill-rule:nonzero;fill:rgb(74.509805%,75.294119%,76.078433%);fill-opacity:1;" d="M 122.335938 96.367188 L 98.980469 202.207031 L 145.203125 202.207031 C 145.203125 202.207031 150.347656 181.136719 150.757812 179.257812 L 170.765625 179.257812 C 185.792969 179.339844 198.042969 174.277344 206.289062 164.558594 C 221.398438 148.144531 218.785156 124.214844 207.433594 110.496094 C 199.339844 100.683594 187.238281 95.066406 174.523438 95.222656 L 122.582031 95.222656 Z M 122.335938 96.367188 "/>
<path style=" stroke:none;fill-rule:nonzero;fill:rgb(0%,17.647059%,38.431373%);fill-opacity:1;" d="M 147.410156 175.09375 L 141.855469 198.042969 L 104.207031 198.042969 L 125.929688 99.550781 L 174.441406 99.550781 C 185.933594 99.378906 196.882812 104.460938 204.167969 113.351562 C 214.945312 126.339844 216.007812 147.980469 203.105469 161.945312 C 195.183594 171.171875 183.503906 175.339844 170.765625 175.175781 Z M 147.410156 175.09375 "/>
<path style=" stroke:none;fill-rule:nonzero;fill:rgb(99.215686%,73.333335%,18.82353%);fill-opacity:1;" d="M 120.867188 122.089844 L 142.101562 122.089844 C 144.550781 122.089844 147.164062 124.050781 146.101562 127.238281 C 145.363281 129.273438 144.84375 131.378906 144.550781 133.523438 C 144.386719 135.078125 146.183594 136.136719 147.164062 136.136719 L 190.527344 136.136719 C 191.34375 136.136719 191.753906 135.894531 191.753906 135.484375 C 191.769531 134.554688 191.6875 133.621094 191.507812 132.707031 C 191.34375 131.808594 191.261719 131.566406 190.445312 131.566406 C 185.058594 131.566406 182.851562 129.113281 177.136719 125.523438 C 171.5 121.847656 163.171875 119.722656 155.984375 119.722656 L 121.191406 119.722656 Z M 120.867188 122.089844 "/>
<path style=" stroke:none;fill-rule:nonzero;fill:rgb(99.215686%,73.333335%,18.82353%);fill-opacity:1;" d="M 147.164062 150.101562 C 146.402344 148.382812 145.777344 146.609375 145.285156 144.796875 C 144.796875 142.589844 142.835938 140.792969 139.488281 140.792969 L 116.703125 140.792969 L 117.355469 138.261719 L 191.261719 138.34375 C 191.917969 138.34375 191.835938 138.671875 191.753906 139.488281 C 191.753906 140.304688 191.507812 141.773438 191.425781 142.671875 C 191.34375 143.652344 190.609375 143.40625 189.957031 143.40625 C 187.625 143.34375 185.324219 143.96875 183.339844 145.203125 C 180.320312 147.570312 173.703125 151.65625 170.113281 152.714844 C 166.109375 153.859375 151.492188 158.433594 147.164062 150.101562 Z M 147.164062 150.101562 "/>
<path style=" stroke:none;fill-rule:nonzero;fill:rgb(99.215686%,73.333335%,18.82353%);fill-opacity:1;" d="M 112.699219 159.414062 L 151.246094 159.414062 C 152.792969 159.355469 154.316406 159.816406 155.574219 160.71875 C 159.15625 163.457031 163.234375 165.480469 167.578125 166.679688 C 169.539062 167.335938 173.050781 166.519531 176.15625 164.804688 C 183.832031 160.394531 188.8125 152.144531 190.527344 146.753906 C 190.9375 145.367188 190.121094 145.449219 189.140625 145.53125 C 185.875 145.773438 182.441406 148.714844 177.953125 151.65625 C 173.378906 154.429688 164.3125 157.207031 155.574219 157.207031 L 113.273438 157.207031 Z M 112.699219 159.414062 "/>
<path style=" stroke:none;fill-rule:nonzero;fill:rgb(99.215686%,73.333335%,18.82353%);fill-opacity:1;" d="M 169.375 107.71875 C 170.542969 107.496094 171.746094 107.550781 172.886719 107.882812 C 180.320312 110.820312 187.179688 118.417969 190.121094 126.5 C 190.691406 128.136719 190.855469 129.035156 190.121094 129.113281 C 186.773438 129.523438 185.300781 127.808594 181.21875 125.195312 C 177.359375 122.554688 173.117188 120.515625 168.640625 119.152344 C 163.660156 117.601562 154.675781 117.273438 153.613281 117.273438 C 152.472656 117.273438 152.554688 116.785156 153.042969 116.292969 C 157.460938 111.804688 163.171875 108.804688 169.375 107.71875 Z M 169.375 107.71875 "/>
<path style=" stroke:none;fill-rule:nonzero;fill:rgb(99.215686%,73.333335%,18.82353%);fill-opacity:1;" d="M 204.492188 135.484375 C 204.46875 135.878906 204.152344 136.195312 203.757812 136.21875 L 195.265625 136.21875 C 194.203125 136.21875 194.203125 135.730469 194.203125 135.078125 C 194.027344 134.214844 193.945312 133.339844 193.957031 132.464844 C 193.957031 131.808594 193.632812 130.992188 194.613281 130.585938 C 196.941406 129.394531 198.871094 127.550781 200.164062 125.277344 C 200.410156 124.625 200.980469 123.5625 201.554688 124.460938 C 203.675781 127.644531 204.328125 131.566406 204.492188 135.484375 Z M 204.492188 135.484375 "/>
<path style=" stroke:none;fill-rule:nonzero;fill:rgb(99.215686%,73.333335%,18.82353%);fill-opacity:1;" d="M 201.472656 150.675781 C 201.390625 151 200.738281 151.246094 200.65625 150.675781 C 199.445312 147.796875 197.246094 145.449219 194.449219 144.058594 C 193.875 143.734375 193.875 143.324219 193.875 142.671875 C 193.957031 142.101562 194.203125 140.140625 194.285156 139.40625 C 194.285156 138.75 194.613281 138.261719 195.101562 138.261719 L 203.921875 138.261719 C 204.167969 138.261719 204.574219 138.589844 204.574219 138.75 C 204.445312 142.910156 203.386719 146.984375 201.472656 150.675781 Z M 201.472656 150.675781 "/>
<path style=" stroke:none;fill-rule:nonzero;fill:rgb(99.215686%,73.333335%,18.82353%);fill-opacity:1;" d="M 178.605469 167.171875 C 177.953125 167.335938 176.5625 167.089844 178.6875 165.863281 C 185.054688 162.109375 190.855469 153.453125 192.324219 148.386719 C 192.976562 146.429688 192.976562 146.347656 193.796875 146.589844 C 195.320312 147.28125 196.625 148.382812 197.550781 149.777344 C 198.695312 151.410156 199.265625 154.675781 198.53125 155.492188 C 193.703125 161.878906 186.535156 166.078125 178.605469 167.171875 Z M 178.605469 167.171875 "/>
<path style=" stroke:none;fill-rule:nonzero;fill:rgb(99.215686%,73.333335%,18.82353%);fill-opacity:1;" d="M 194.855469 127.726562 C 193.386719 128.542969 193.058594 128.296875 192.734375 127.238281 C 189.957031 117.519531 181.707031 110.25 178.359375 108.046875 C 177.789062 107.71875 177.871094 107.390625 178.359375 107.472656 C 186.363281 108.617188 194.285156 112.945312 198.203125 118.90625 C 200.574219 122.335938 196.328125 126.910156 194.855469 127.726562 Z M 194.855469 127.726562 "/>
</g>
</svg>
