<?xml version="1.0" encoding="UTF-8"?>
<svg xmlns="http://www.w3.org/2000/svg" xmlns:xlink="http://www.w3.org/1999/xlink" width="300px" height="300px" viewBox="0 0 300 300" version="1.1">
<g id="surface1">
<path style=" stroke:none;fill-rule:nonzero;fill:rgb(4.313726%,13.333334%,25.098041%);fill-opacity:1;" d="M 121.804688 288.917969 C 97.128906 283.773438 75.414062 272.976562 56.613281 256.410156 C 37.460938 239.527344 23.839844 218.929688 15.734375 194.71875 C 11.84375 183.09375 9.53125 171.140625 8.878906 158.886719 C 6.867188 121.039062 17.859375 87.410156 42.335938 58.515625 C 64.03125 32.90625 91.660156 17.097656 124.703125 10.886719 C 134.566406 9.03125 144.523438 8.289062 154.539062 8.652344 C 186.949219 9.820312 215.753906 20.65625 240.710938 41.359375 C 261.449219 58.558594 276.046875 80.078125 284.605469 105.636719 C 288.496094 117.261719 290.804688 129.214844 291.453125 141.472656 C 293.460938 179.316406 282.460938 212.945312 257.976562 241.835938 C 236.28125 267.441406 208.652344 283.246094 175.601562 289.445312 C 163.480469 291.71875 151.257812 292.335938 138.988281 291.289062 C 133.28125 290.800781 127.621094 289.75 121.804688 288.917969 M 145.144531 36.382812 C 145.273438 35.882812 145.496094 35.386719 145.507812 34.886719 C 145.550781 32.898438 145.488281 30.910156 145.539062 28.925781 C 145.570312 27.785156 145.75 26.648438 146.0625 25.605469 C 148.199219 28.261719 150.523438 30.792969 152.414062 33.613281 C 154.058594 36.066406 156.046875 37.023438 159.105469 36.375 C 159.21875 36.089844 159.429688 35.808594 159.429688 35.523438 C 159.453125 30.367188 159.457031 25.207031 159.429688 20.050781 C 159.425781 19.675781 159.152344 19.300781 158.714844 18.890625 C 157.734375 18.890625 156.753906 18.890625 155.519531 18.96875 C 155.390625 19.578125 155.1875 20.183594 155.152344 20.796875 C 155.007812 23.367188 154.917969 25.9375 154.609375 28.40625 C 152.257812 25.503906 149.921875 22.59375 147.542969 19.710938 C 147.222656 19.324219 146.71875 18.867188 146.277344 18.84375 C 144.386719 18.75 142.488281 18.804688 140.613281 18.804688 C 140.960938 20.050781 141.261719 21.128906 141.355469 22.398438 C 141.3125 26.832031 141.261719 31.269531 141.25 35.703125 C 141.25 35.945312 141.582031 36.1875 142.03125 36.476562 C 142.984375 36.472656 143.941406 36.472656 145.144531 36.382812 M 59.167969 101.109375 C 47.773438 122.566406 44.160156 145.300781 48.585938 169.15625 C 53.039062 193.160156 64.648438 213.277344 83.355469 228.941406 C 108.296875 249.820312 137.109375 257.394531 169.089844 251.726562 C 193.183594 247.457031 213.296875 235.644531 229.015625 216.898438 C 248.828125 193.269531 256.613281 165.890625 252.425781 135.378906 C 249.1875 111.808594 238.769531 91.589844 221.363281 75.355469 C 195.886719 51.59375 165.59375 42.425781 131.375 48.644531 C 99.269531 54.476562 75.359375 72.5 59.167969 101.109375 M 221.128906 241.164062 C 220.058594 241.367188 218.8125 241.292969 217.945312 241.824219 C 214.355469 244.03125 210.882812 246.425781 207.003906 248.988281 C 210.644531 250.027344 211.714844 253.015625 213.445312 255.359375 C 215.195312 257.722656 216.816406 260.183594 218.507812 262.621094 C 219.949219 261.597656 221.203125 260.707031 222.515625 259.773438 C 221.25 257.949219 220.035156 256.195312 218.558594 254.058594 C 219.476562 254.007812 220.15625 253.789062 220.691406 253.976562 C 222.558594 254.640625 224.375 255.453125 226.222656 256.175781 C 226.605469 256.328125 227.171875 256.539062 227.433594 256.375 C 228.984375 255.390625 230.472656 254.304688 232.132812 253.148438 C 229.316406 252.09375 226.804688 251.15625 224.269531 250.210938 C 226.804688 245.8125 225.628906 242.257812 221.128906 241.164062 M 49.183594 69.222656 C 47.71875 69.949219 46.066406 70.4375 44.832031 71.441406 C 41.457031 74.183594 40.148438 78.628906 41.40625 82.105469 C 42.65625 85.554688 46.488281 88.382812 50.109375 88.527344 C 55.257812 88.734375 60.253906 83.535156 60.132812 78.09375 C 60.015625 72.933594 54.917969 68.679688 49.183594 69.222656 M 172.695312 31.402344 C 172.480469 33.960938 173.097656 36.285156 175.003906 38.042969 C 178.507812 41.273438 182.652344 42.242188 187.269531 41.109375 C 187.667969 41.011719 188.1875 40.617188 188.292969 40.253906 C 189.039062 37.671875 189.695312 35.066406 190.410156 32.351562 C 187.898438 31.683594 185.53125 31.050781 183.160156 30.421875 C 182.667969 31.261719 182.257812 31.957031 181.792969 32.75 C 182.847656 33.082031 183.769531 33.375 184.777344 33.695312 C 184.386719 35.175781 184.058594 36.5625 183.628906 37.921875 C 183.53125 38.242188 183.113281 38.652344 182.804688 38.6875 C 179.617188 39.0625 177.085938 36.300781 177.742188 33.164062 C 178.039062 31.761719 178.441406 30.382812 178.839844 29.007812 C 179.667969 26.140625 181.636719 24.871094 184.492188 25.792969 C 186.335938 26.382812 187.984375 27.582031 189.640625 28.464844 C 189.574219 27.613281 191.183594 26.457031 189.558594 25.136719 C 182.871094 19.722656 174.246094 22.761719 172.695312 31.402344 M 169.007812 268.207031 C 168.136719 265.167969 166.53125 263.523438 163.613281 263.523438 C 159.574219 263.519531 155.535156 263.910156 151.484375 264.132812 C 154.394531 269.859375 152.996094 276.019531 154.382812 281.835938 C 155.929688 281.683594 157.488281 281.53125 159.101562 281.371094 C 158.960938 279.5625 158.835938 277.933594 158.703125 276.214844 C 160.136719 276.085938 161.445312 275.976562 162.75 275.847656 C 167.261719 275.414062 169.332031 272.988281 169.007812 268.207031 M 120.738281 272.695312 C 120.421875 274.523438 120.105469 276.347656 119.773438 278.269531 C 121.476562 278.578125 123.019531 278.855469 124.589844 279.140625 C 124.925781 277.351562 125.226562 275.746094 125.539062 274.078125 C 127.316406 274.347656 128.933594 274.707031 130.570312 274.824219 C 134.417969 275.097656 136.820312 273.246094 137.460938 269.664062 C 138.070312 266.269531 136.375 263.574219 132.679688 262.683594 C 129.054688 261.808594 125.347656 261.273438 121.929688 260.636719 C 121.929688 262.578125 122.074219 264.417969 121.890625 266.21875 C 121.675781 268.300781 121.171875 270.351562 120.738281 272.695312 M 110.40625 42.226562 C 110.40625 42.492188 110.40625 42.753906 110.40625 43.035156 C 113.332031 42.496094 113.300781 42.492188 113.757812 39.636719 C 113.835938 39.148438 114.226562 38.445312 114.625 38.320312 C 117.128906 37.53125 119.671875 36.878906 122.21875 36.175781 C 122.863281 37.003906 123.398438 37.777344 124.035156 38.457031 C 124.320312 38.761719 124.867188 39.097656 125.207031 39.023438 C 126.695312 38.699219 128.152344 38.230469 129.746094 37.777344 C 125.875 32.890625 122.128906 28.136719 118.335938 23.414062 C 118.097656 23.117188 117.480469 22.867188 117.125 22.953125 C 115.109375 23.441406 113.117188 24.039062 111.558594 24.472656 C 111.8125 25.988281 112.339844 27.363281 112.207031 28.667969 C 111.746094 33.105469 111.050781 37.519531 110.40625 42.226562 M 79.175781 54.269531 C 77.359375 52.195312 75.132812 52.257812 72.8125 53.136719 C 71.113281 53.78125 69.496094 54.648438 67.773438 55.214844 C 67.171875 55.414062 66.078125 55.238281 65.738281 54.8125 C 65.417969 54.40625 65.609375 53.363281 65.902344 52.761719 C 66.222656 52.105469 66.828125 51.453125 67.472656 51.113281 C 69.085938 50.261719 70.789062 49.589844 72.433594 48.859375 C 71.015625 46.449219 70.476562 46.136719 68.035156 47.625 C 66.238281 48.71875 64.5625 50.160156 63.191406 51.753906 C 62.367188 52.710938 61.90625 54.25 61.855469 55.550781 C 61.71875 59.003906 64.957031 61.058594 68.480469 59.835938 C 70.347656 59.191406 72.109375 58.226562 73.988281 57.605469 C 74.566406 57.414062 75.613281 57.679688 75.992188 58.121094 C 76.367188 58.566406 76.4375 59.625 76.164062 60.179688 C 75.746094 61.03125 75.050781 61.917969 74.238281 62.371094 C 72.371094 63.410156 70.367188 64.195312 68.46875 65.0625 C 70.304688 67.632812 69.832031 67.785156 73.191406 66.253906 C 75.734375 65.097656 77.917969 63.398438 79.382812 60.945312 C 80.667969 58.789062 80.960938 56.609375 79.175781 54.269531 M 269.546875 96.230469 C 267.742188 94.695312 265.742188 94.195312 263.574219 95.328125 C 261.457031 96.4375 261.136719 98.453125 261.214844 100.589844 C 261.246094 101.359375 261.359375 102.128906 261.417969 102.898438 C 261.496094 103.945312 261.71875 105.015625 261.574219 106.03125 C 261.484375 106.671875 260.953125 107.5 260.398438 107.753906 C 259.925781 107.96875 258.996094 107.648438 258.515625 107.261719 C 257.945312 106.804688 257.566406 106.054688 257.230469 105.371094 C 256.121094 103.101562 256.058594 100.722656 256.8125 98.132812 C 255.800781 98.539062 254.976562 98.820312 254.207031 99.210938 C 253.925781 99.355469 253.65625 99.742188 253.589844 100.0625 C 252.890625 103.46875 255.316406 109.265625 258.222656 111.230469 C 261.609375 113.515625 265.855469 111.542969 266.171875 107.472656 C 266.285156 106.054688 266.085938 104.609375 266.011719 103.175781 C 265.96875 102.296875 265.738281 101.390625 265.882812 100.542969 C 265.996094 99.878906 266.445312 98.925781 266.945312 98.777344 C 267.464844 98.625 268.425781 99.128906 268.832031 99.632812 C 269.429688 100.382812 269.921875 101.347656 270.085938 102.289062 C 270.359375 103.875 270.339844 105.515625 270.445312 107.097656 C 273.230469 106.3125 273.507812 105.976562 273.058594 103.277344 C 272.628906 100.667969 271.644531 98.296875 269.546875 96.230469 M 239.308594 221.234375 C 237.941406 222.65625 236.359375 223.925781 235.253906 225.527344 C 233.371094 228.265625 233.570312 231.167969 235.40625 232.976562 C 237.242188 234.785156 239.457031 234.738281 242.507812 232.820312 C 243.71875 232.054688 244.855469 231.128906 246.148438 230.539062 C 246.820312 230.234375 248.105469 230.183594 248.480469 230.59375 C 248.960938 231.117188 249.09375 232.332031 248.832031 233.054688 C 248.496094 233.988281 247.761719 234.921875 246.949219 235.507812 C 245.398438 236.628906 243.671875 237.503906 242.058594 238.457031 C 244.503906 240.769531 243.964844 241.105469 247.152344 238.847656 C 248.777344 237.695312 250.207031 236.117188 251.34375 234.46875 C 253.355469 231.542969 253.210938 228.632812 251.324219 226.71875 C 249.3125 224.667969 246.972656 224.675781 243.65625 226.746094 C 242.300781 227.59375 240.988281 228.53125 239.5625 229.230469 C 239.046875 229.484375 238.074219 229.375 237.636719 229.023438 C 237.289062 228.742188 237.265625 227.796875 237.417969 227.234375 C 237.601562 226.574219 238.003906 225.851562 238.53125 225.4375 C 240.089844 224.207031 241.753906 223.117188 243.355469 221.988281 C 241.613281 219.953125 241.613281 219.953125 239.308594 221.234375 M 195.035156 265.453125 C 196.730469 264.691406 195.324219 263.5 195.625 262.394531 C 193.472656 263.140625 191.523438 263.8125 189.515625 264.507812 C 189.003906 263.070312 188.546875 261.789062 188.050781 260.394531 C 190.726562 259.429688 193.300781 258.5 196 257.527344 C 195.390625 256.679688 194.867188 255.945312 194.34375 255.222656 C 189.886719 256.8125 185.589844 258.347656 181.359375 259.855469 C 185.480469 264.5625 185.769531 270.851562 188.554688 276.125 C 192.546875 274.695312 196.578125 273.25 200.535156 271.832031 C 200.535156 270.835938 200.535156 269.96875 200.535156 268.953125 C 197.660156 269.960938 194.921875 270.914062 192.125 271.894531 C 191.539062 270.226562 191 268.691406 190.4375 267.089844 C 191.996094 266.53125 193.390625 266.027344 195.035156 265.453125 M 209.917969 53.140625 C 211.503906 53.738281 211.601562 52.042969 212.660156 51.542969 C 209.9375 50.050781 207.394531 48.660156 204.800781 47.238281 C 205.660156 45.675781 206.445312 44.238281 207.261719 42.746094 C 208.984375 43.675781 210.621094 44.554688 212.222656 45.421875 C 212.910156 44.777344 213.542969 44.1875 214.28125 43.496094 C 212.289062 42.390625 210.4375 41.355469 208.535156 40.300781 C 209.285156 38.972656 209.976562 37.753906 210.695312 36.484375 C 213.234375 37.871094 215.617188 39.179688 218.121094 40.546875 C 218.347656 39.503906 218.53125 38.664062 218.722656 37.785156 C 214.570312 35.523438 210.507812 33.3125 206.554688 31.164062 C 205.746094 37.453125 201.347656 41.851562 199.246094 47.335938 C 202.738281 49.238281 206.21875 51.132812 209.917969 53.140625 M 252.085938 78.898438 C 251.585938 78.199219 251.082031 77.496094 250.558594 76.769531 C 251.792969 75.867188 252.90625 75.058594 254.105469 74.1875 C 255.746094 76.488281 257.359375 78.738281 259.039062 81.09375 C 259.707031 80.222656 260.234375 79.535156 260.757812 78.847656 C 258 74.980469 255.332031 71.238281 252.667969 67.507812 C 249.554688 73.113281 243.457031 74.941406 239.230469 79.078125 C 241.71875 82.539062 244.222656 86.015625 246.742188 89.523438 C 247.652344 89.183594 248.460938 88.882812 249.417969 88.527344 C 247.640625 86.058594 245.957031 83.71875 244.222656 81.3125 C 245.652344 80.292969 246.984375 79.34375 248.355469 78.363281 C 249.539062 79.984375 250.632812 81.488281 251.757812 83.03125 C 252.648438 82.683594 253.4375 82.378906 254.324219 82.03125 C 253.5625 80.96875 252.894531 80.027344 252.085938 78.898438 M 67.875 230.429688 C 67.460938 228.121094 66.273438 226.226562 64.65625 224.585938 C 60.878906 220.75 56.078125 220.480469 52.042969 223.84375 C 47.921875 227.28125 47.316406 232.089844 50.566406 236.480469 C 51.410156 237.617188 52.429688 238.722656 53.601562 239.484375 C 56.324219 241.257812 56.160156 241.414062 58.324219 238.90625 C 56.820312 237.96875 55.042969 237.242188 53.777344 235.992188 C 51.519531 233.757812 51.808594 231.226562 54.199219 229.113281 C 55.152344 228.273438 56.109375 227.4375 57.09375 226.636719 C 59.113281 225 61.113281 225.078125 63.046875 226.835938 C 64.691406 228.324219 65.34375 230.242188 65.34375 232.757812 C 66.3125 231.921875 67.042969 231.289062 67.875 230.429688 M 224.054688 63.839844 C 226.226562 65.769531 228.402344 67.695312 230.574219 69.621094 C 231.417969 69.078125 232.148438 68.609375 233.023438 68.042969 C 230.925781 66.167969 228.929688 64.378906 226.863281 62.53125 C 230.207031 58.757812 233.476562 55.066406 236.773438 51.34375 C 235.132812 49.910156 233.628906 48.59375 231.90625 47.089844 C 231.714844 50.765625 228.90625 52.394531 227.089844 54.667969 C 225.253906 56.96875 223.214844 59.109375 221.246094 61.339844 C 222.234375 62.21875 223.054688 62.953125 224.054688 63.839844 M 36.804688 105.261719 C 33.90625 104.09375 31.007812 102.925781 28.023438 101.726562 C 27.214844 103.710938 26.460938 105.566406 25.742188 107.328125 C 32.015625 107.355469 36.847656 111.34375 42.632812 112.75 C 43.875 109.765625 45.148438 106.726562 46.410156 103.683594 C 47.402344 101.289062 47.398438 101.289062 44.984375 99.761719 C 43.957031 102.246094 42.9375 104.714844 41.878906 107.28125 C 40.195312 106.613281 38.617188 105.988281 36.804688 105.261719 M 74.988281 246.53125 C 73.246094 249.003906 71.5 251.476562 69.6875 254.042969 C 73.113281 256.488281 76.457031 258.875 79.828125 261.28125 C 80.585938 260.664062 81.257812 260.117188 82.042969 259.480469 C 79.753906 257.859375 77.578125 256.3125 75.304688 254.703125 C 78.210938 250.613281 81.0625 246.601562 83.933594 242.558594 C 82.121094 241.28125 80.476562 240.117188 78.984375 239.0625 C 78.464844 240.464844 78.125 241.789062 77.5 242.960938 C 76.859375 244.164062 75.933594 245.222656 74.988281 246.53125 M 97.125 268.324219 C 96.890625 268.917969 96.660156 269.507812 96.402344 270.164062 C 97.976562 270.828125 99.421875 271.4375 100.921875 272.070312 C 103.257812 266.59375 105.523438 261.289062 107.851562 255.828125 C 105.90625 255.007812 104.042969 254.226562 102.523438 253.582031 C 101.984375 255.589844 101.660156 257.414062 101.007812 259.109375 C 99.84375 262.140625 98.484375 265.097656 97.125 268.324219 Z M 97.125 268.324219 "/>
<path style=" stroke:none;fill-rule:nonzero;fill:rgb(23.137255%,55.29412%,87.058824%);fill-opacity:1;" d="M 59.226562 101 C 75.359375 72.5 99.269531 54.476562 131.375 48.644531 C 165.59375 42.425781 195.886719 51.59375 221.363281 75.355469 C 238.769531 91.589844 249.1875 111.808594 252.425781 135.378906 C 256.613281 165.890625 248.828125 193.269531 229.015625 216.898438 C 213.296875 235.644531 193.183594 247.457031 169.089844 251.726562 C 137.109375 257.394531 108.296875 249.820312 83.355469 228.941406 C 64.648438 213.277344 53.039062 193.160156 48.585938 169.15625 C 44.160156 145.300781 47.773438 122.566406 59.226562 101 M 73.738281 213.5 C 92.042969 235 115.25 247.085938 143.417969 249.160156 C 162.839844 250.59375 181.148438 246.398438 198.265625 237.011719 C 235.28125 216.71875 255.613281 173.925781 247.847656 132.429688 C 243.625 109.878906 233.0625 90.773438 215.742188 75.742188 C 191.703125 54.882812 163.6875 47.195312 132.378906 52.570312 C 109.648438 56.472656 90.527344 67.425781 75.476562 84.894531 C 54.789062 108.90625 47.3125 136.824219 52.554688 168.019531 C 55.402344 184.972656 62.6875 200.023438 73.738281 213.5 Z M 73.738281 213.5 "/>
<path style=" stroke:none;fill-rule:nonzero;fill:rgb(98.039216%,98.039216%,98.431373%);fill-opacity:1;" d="M 221.257812 241.1875 C 225.628906 242.257812 226.804688 245.8125 224.269531 250.210938 C 226.804688 251.15625 229.316406 252.09375 232.132812 253.148438 C 230.472656 254.304688 228.984375 255.390625 227.433594 256.375 C 227.171875 256.539062 226.605469 256.328125 226.222656 256.175781 C 224.375 255.453125 222.558594 254.640625 220.691406 253.976562 C 220.15625 253.789062 219.476562 254.007812 218.558594 254.058594 C 220.035156 256.195312 221.25 257.949219 222.515625 259.773438 C 221.203125 260.707031 219.949219 261.597656 218.507812 262.621094 C 216.816406 260.183594 215.195312 257.722656 213.445312 255.359375 C 211.714844 253.015625 210.644531 250.027344 207.003906 248.988281 C 210.882812 246.425781 214.355469 244.03125 217.945312 241.824219 C 218.8125 241.292969 220.058594 241.367188 221.257812 241.1875 M 217.171875 251.953125 C 218.535156 251.066406 219.925781 250.21875 221.230469 249.257812 C 221.46875 249.085938 221.484375 248.421875 221.398438 248.027344 C 220.746094 245.078125 218.707031 244.28125 216.226562 245.980469 C 215.515625 246.46875 214.8125 246.964844 214.046875 247.5 C 215.097656 248.988281 216.078125 250.375 217.171875 251.953125 Z M 217.171875 251.953125 "/>
<path style=" stroke:none;fill-rule:nonzero;fill:rgb(98.823529%,99.215686%,99.215686%);fill-opacity:1;" d="M 158.867188 36.480469 C 156.046875 37.023438 154.058594 36.066406 152.414062 33.613281 C 150.523438 30.792969 148.199219 28.261719 145.902344 25.425781 C 145.679688 24.988281 145.617188 24.738281 145.550781 24.484375 C 145.332031 24.613281 145.113281 24.742188 144.894531 24.871094 C 144.894531 28.738281 144.894531 32.601562 144.894531 36.46875 C 143.941406 36.472656 142.984375 36.472656 141.886719 36.3125 C 141.757812 32.695312 141.796875 29.242188 141.785156 25.785156 C 141.777344 24.59375 141.640625 23.402344 141.5625 22.207031 C 141.261719 21.128906 140.960938 20.050781 140.613281 18.804688 C 142.488281 18.804688 144.386719 18.75 146.277344 18.84375 C 146.71875 18.867188 147.222656 19.324219 147.542969 19.710938 C 149.921875 22.59375 152.257812 25.503906 154.730469 28.550781 C 155.03125 28.871094 155.210938 29.042969 155.421875 29.285156 C 155.519531 29.289062 155.582031 29.222656 155.671875 29.035156 C 155.722656 25.574219 155.75 22.230469 155.773438 18.890625 C 156.753906 18.890625 157.734375 18.890625 158.859375 19.0625 C 158.960938 24.980469 158.914062 30.730469 158.867188 36.480469 Z M 158.867188 36.480469 "/>
<path style=" stroke:none;fill-rule:nonzero;fill:rgb(98.039216%,98.039216%,98.431373%);fill-opacity:1;" d="M 49.316406 69.203125 C 54.917969 68.679688 60.015625 72.933594 60.132812 78.09375 C 60.253906 83.535156 55.257812 88.734375 50.109375 88.527344 C 46.488281 88.382812 42.65625 85.554688 41.40625 82.105469 C 40.148438 78.628906 41.457031 74.183594 44.832031 71.441406 C 46.066406 70.4375 47.71875 69.949219 49.316406 69.203125 M 45.785156 80.65625 C 47.265625 81.714844 48.699219 82.847656 50.238281 83.8125 C 52.355469 85.148438 54.402344 84.648438 55.851562 82.59375 C 57.300781 80.527344 57.042969 78.496094 55.042969 76.917969 C 53.785156 75.929688 52.472656 75.007812 51.148438 74.113281 C 49.007812 72.667969 47.027344 72.863281 45.527344 74.609375 C 43.808594 76.617188 43.832031 78.476562 45.785156 80.65625 Z M 45.785156 80.65625 "/>
<path style=" stroke:none;fill-rule:nonzero;fill:rgb(97.647059%,98.039216%,98.431373%);fill-opacity:1;" d="M 172.707031 31.253906 C 174.246094 22.761719 182.871094 19.722656 189.558594 25.136719 C 191.183594 26.457031 189.574219 27.613281 189.640625 28.464844 C 187.984375 27.582031 186.335938 26.382812 184.492188 25.792969 C 181.636719 24.871094 179.667969 26.140625 178.839844 29.007812 C 178.441406 30.382812 178.039062 31.761719 177.742188 33.164062 C 177.085938 36.300781 179.617188 39.0625 182.804688 38.6875 C 183.113281 38.652344 183.53125 38.242188 183.628906 37.921875 C 184.058594 36.5625 184.386719 35.175781 184.777344 33.695312 C 183.769531 33.375 182.847656 33.082031 181.792969 32.75 C 182.257812 31.957031 182.667969 31.261719 183.160156 30.421875 C 185.53125 31.050781 187.898438 31.683594 190.410156 32.351562 C 189.695312 35.066406 189.039062 37.671875 188.292969 40.253906 C 188.1875 40.617188 187.667969 41.011719 187.269531 41.109375 C 182.652344 42.242188 178.507812 41.273438 175.003906 38.042969 C 173.097656 36.285156 172.480469 33.960938 172.707031 31.253906 Z M 172.707031 31.253906 "/>
<path style=" stroke:none;fill-rule:nonzero;fill:rgb(98.039216%,98.039216%,98.431373%);fill-opacity:1;" d="M 169.027344 268.351562 C 169.332031 272.988281 167.261719 275.414062 162.75 275.847656 C 161.445312 275.976562 160.136719 276.085938 158.703125 276.214844 C 158.835938 277.933594 158.960938 279.5625 159.101562 281.371094 C 157.488281 281.53125 155.929688 281.683594 154.382812 281.835938 C 152.996094 276.019531 154.394531 269.859375 151.484375 264.132812 C 155.535156 263.910156 159.574219 263.519531 163.613281 263.523438 C 166.53125 263.523438 168.136719 265.167969 169.027344 268.351562 M 163.808594 268.703125 C 163.433594 266.015625 162.101562 265.511719 157.949219 266.566406 C 158.136719 268.820312 158.332031 271.089844 158.535156 273.472656 C 159.804688 273.34375 160.949219 273.28125 162.070312 273.097656 C 163.332031 272.890625 163.96875 272.066406 163.957031 270.789062 C 163.949219 270.1875 163.871094 269.585938 163.808594 268.703125 Z M 163.808594 268.703125 "/>
<path style=" stroke:none;fill-rule:nonzero;fill:rgb(97.647059%,98.039216%,98.431373%);fill-opacity:1;" d="M 120.765625 272.554688 C 121.171875 270.351562 121.675781 268.300781 121.890625 266.21875 C 122.074219 264.417969 121.929688 262.578125 121.929688 260.636719 C 125.347656 261.273438 129.054688 261.808594 132.679688 262.683594 C 136.375 263.574219 138.070312 266.269531 137.460938 269.664062 C 136.820312 273.246094 134.417969 275.097656 130.570312 274.824219 C 128.933594 274.707031 127.316406 274.347656 125.539062 274.078125 C 125.226562 275.746094 124.925781 277.351562 124.589844 279.140625 C 123.019531 278.855469 121.476562 278.578125 119.773438 278.269531 C 120.105469 276.347656 120.421875 274.523438 120.765625 272.554688 M 132.019531 270.007812 C 132.902344 265.519531 132.617188 265.113281 128.128906 264.496094 C 127.871094 264.460938 127.605469 264.453125 127.214844 264.421875 C 126.796875 266.742188 126.390625 268.988281 125.964844 271.320312 C 127.132812 271.542969 128.148438 271.753906 129.171875 271.925781 C 130.558594 272.15625 131.546875 271.683594 132.019531 270.007812 Z M 132.019531 270.007812 "/>
<path style=" stroke:none;fill-rule:nonzero;fill:rgb(97.647059%,98.039216%,98.039216%);fill-opacity:1;" d="M 110.425781 42.082031 C 111.050781 37.519531 111.746094 33.105469 112.207031 28.667969 C 112.339844 27.363281 111.8125 25.988281 111.558594 24.472656 C 113.117188 24.039062 115.109375 23.441406 117.125 22.953125 C 117.480469 22.867188 118.097656 23.117188 118.335938 23.414062 C 122.128906 28.136719 125.875 32.890625 129.746094 37.777344 C 128.152344 38.230469 126.695312 38.699219 125.207031 39.023438 C 124.867188 39.097656 124.320312 38.761719 124.035156 38.457031 C 123.398438 37.777344 122.863281 37.003906 122.21875 36.175781 C 119.671875 36.878906 117.128906 37.53125 114.625 38.320312 C 114.226562 38.445312 113.835938 39.148438 113.757812 39.636719 C 113.300781 42.492188 113.332031 42.496094 110.40625 43.035156 C 110.40625 42.753906 110.40625 42.492188 110.425781 42.082031 M 117.167969 34.804688 C 118.15625 34.523438 119.144531 34.242188 120.335938 33.902344 C 118.632812 31.753906 117.035156 29.746094 115.203125 27.4375 C 114.84375 30.421875 114.546875 32.929688 114.226562 35.605469 C 115.316406 35.300781 116.109375 35.082031 117.167969 34.804688 Z M 117.167969 34.804688 "/>
<path style=" stroke:none;fill-rule:nonzero;fill:rgb(97.254902%,97.647059%,98.039216%);fill-opacity:1;" d="M 79.25 54.367188 C 80.960938 56.609375 80.667969 58.789062 79.382812 60.945312 C 77.917969 63.398438 75.734375 65.097656 73.191406 66.253906 C 69.832031 67.785156 70.304688 67.632812 68.46875 65.0625 C 70.367188 64.195312 72.371094 63.410156 74.238281 62.371094 C 75.050781 61.917969 75.746094 61.03125 76.164062 60.179688 C 76.4375 59.625 76.367188 58.566406 75.992188 58.121094 C 75.613281 57.679688 74.566406 57.414062 73.988281 57.605469 C 72.109375 58.226562 70.347656 59.191406 68.480469 59.835938 C 64.957031 61.058594 61.71875 59.003906 61.855469 55.550781 C 61.90625 54.25 62.367188 52.710938 63.191406 51.753906 C 64.5625 50.160156 66.238281 48.71875 68.035156 47.625 C 70.476562 46.136719 71.015625 46.449219 72.433594 48.859375 C 70.789062 49.589844 69.085938 50.261719 67.472656 51.113281 C 66.828125 51.453125 66.222656 52.105469 65.902344 52.761719 C 65.609375 53.363281 65.417969 54.40625 65.738281 54.8125 C 66.078125 55.238281 67.171875 55.414062 67.773438 55.214844 C 69.496094 54.648438 71.113281 53.78125 72.8125 53.136719 C 75.132812 52.257812 77.359375 52.195312 79.25 54.367188 Z M 79.25 54.367188 "/>
<path style=" stroke:none;fill-rule:nonzero;fill:rgb(97.647059%,97.647059%,98.039216%);fill-opacity:1;" d="M 269.636719 96.3125 C 271.644531 98.296875 272.628906 100.667969 273.058594 103.277344 C 273.507812 105.976562 273.230469 106.3125 270.445312 107.097656 C 270.339844 105.515625 270.359375 103.875 270.085938 102.289062 C 269.921875 101.347656 269.429688 100.382812 268.832031 99.632812 C 268.425781 99.128906 267.464844 98.625 266.945312 98.777344 C 266.445312 98.925781 265.996094 99.878906 265.882812 100.542969 C 265.738281 101.390625 265.96875 102.296875 266.011719 103.175781 C 266.085938 104.609375 266.285156 106.054688 266.171875 107.472656 C 265.855469 111.542969 261.609375 113.515625 258.222656 111.230469 C 255.316406 109.265625 252.890625 103.46875 253.589844 100.0625 C 253.65625 99.742188 253.925781 99.355469 254.207031 99.210938 C 254.976562 98.820312 255.800781 98.539062 256.8125 98.132812 C 256.058594 100.722656 256.121094 103.101562 257.230469 105.371094 C 257.566406 106.054688 257.945312 106.804688 258.515625 107.261719 C 258.996094 107.648438 259.925781 107.96875 260.398438 107.753906 C 260.953125 107.5 261.484375 106.671875 261.574219 106.03125 C 261.71875 105.015625 261.496094 103.945312 261.417969 102.898438 C 261.359375 102.128906 261.246094 101.359375 261.214844 100.589844 C 261.136719 98.453125 261.457031 96.4375 263.574219 95.328125 C 265.742188 94.195312 267.742188 94.695312 269.636719 96.3125 Z M 269.636719 96.3125 "/>
<path style=" stroke:none;fill-rule:nonzero;fill:rgb(97.647059%,97.647059%,98.039216%);fill-opacity:1;" d="M 239.410156 221.171875 C 241.613281 219.953125 241.613281 219.953125 243.355469 221.988281 C 241.753906 223.117188 240.089844 224.207031 238.53125 225.4375 C 238.003906 225.851562 237.601562 226.574219 237.417969 227.234375 C 237.265625 227.796875 237.289062 228.742188 237.636719 229.023438 C 238.074219 229.375 239.046875 229.484375 239.5625 229.230469 C 240.988281 228.53125 242.300781 227.59375 243.65625 226.746094 C 246.972656 224.675781 249.3125 224.667969 251.324219 226.71875 C 253.210938 228.632812 253.355469 231.542969 251.34375 234.46875 C 250.207031 236.117188 248.777344 237.695312 247.152344 238.847656 C 243.964844 241.105469 244.503906 240.769531 242.058594 238.457031 C 243.671875 237.503906 245.398438 236.628906 246.949219 235.507812 C 247.761719 234.921875 248.496094 233.988281 248.832031 233.054688 C 249.09375 232.332031 248.960938 231.117188 248.480469 230.59375 C 248.105469 230.183594 246.820312 230.234375 246.148438 230.539062 C 244.855469 231.128906 243.71875 232.054688 242.507812 232.820312 C 239.457031 234.738281 237.242188 234.785156 235.40625 232.976562 C 233.570312 231.167969 233.371094 228.265625 235.253906 225.527344 C 236.359375 223.925781 237.941406 222.65625 239.410156 221.171875 Z M 239.410156 221.171875 "/>
<path style=" stroke:none;fill-rule:nonzero;fill:rgb(97.647059%,97.647059%,98.039216%);fill-opacity:1;" d="M 194.910156 265.492188 C 193.390625 266.027344 191.996094 266.53125 190.4375 267.089844 C 191 268.691406 191.539062 270.226562 192.125 271.894531 C 194.921875 270.914062 197.660156 269.960938 200.535156 268.953125 C 200.535156 269.96875 200.535156 270.835938 200.535156 271.832031 C 196.578125 273.25 192.546875 274.695312 188.554688 276.125 C 185.769531 270.851562 185.480469 264.5625 181.359375 259.855469 C 185.589844 258.347656 189.886719 256.8125 194.34375 255.222656 C 194.867188 255.945312 195.390625 256.679688 196 257.527344 C 193.300781 258.5 190.726562 259.429688 188.050781 260.394531 C 188.546875 261.789062 189.003906 263.070312 189.515625 264.507812 C 191.523438 263.8125 193.472656 263.140625 195.625 262.394531 C 195.324219 263.5 196.730469 264.691406 194.910156 265.492188 Z M 194.910156 265.492188 "/>
<path style=" stroke:none;fill-rule:nonzero;fill:rgb(97.647059%,98.039216%,98.039216%);fill-opacity:1;" d="M 209.808594 53.085938 C 206.21875 51.132812 202.738281 49.238281 199.246094 47.335938 C 201.347656 41.851562 205.746094 37.453125 206.554688 31.164062 C 210.507812 33.3125 214.570312 35.523438 218.722656 37.785156 C 218.53125 38.664062 218.347656 39.503906 218.121094 40.546875 C 215.617188 39.179688 213.234375 37.871094 210.695312 36.484375 C 209.976562 37.753906 209.285156 38.972656 208.535156 40.300781 C 210.4375 41.355469 212.289062 42.390625 214.28125 43.496094 C 213.542969 44.1875 212.910156 44.777344 212.222656 45.421875 C 210.621094 44.554688 208.984375 43.675781 207.261719 42.746094 C 206.445312 44.238281 205.660156 45.675781 204.800781 47.238281 C 207.394531 48.660156 209.9375 50.050781 212.660156 51.542969 C 211.601562 52.042969 211.503906 53.738281 209.808594 53.085938 Z M 209.808594 53.085938 "/>
<path style=" stroke:none;fill-rule:nonzero;fill:rgb(97.647059%,98.039216%,98.431373%);fill-opacity:1;" d="M 252.15625 78.996094 C 252.894531 80.027344 253.5625 80.96875 254.324219 82.03125 C 253.4375 82.378906 252.648438 82.683594 251.757812 83.03125 C 250.632812 81.488281 249.539062 79.984375 248.355469 78.363281 C 246.984375 79.34375 245.652344 80.292969 244.222656 81.3125 C 245.957031 83.71875 247.640625 86.058594 249.417969 88.527344 C 248.460938 88.882812 247.652344 89.183594 246.742188 89.523438 C 244.222656 86.015625 241.71875 82.539062 239.230469 79.078125 C 243.457031 74.941406 249.554688 73.113281 252.667969 67.507812 C 255.332031 71.238281 258 74.980469 260.757812 78.847656 C 260.234375 79.535156 259.707031 80.222656 259.039062 81.09375 C 257.359375 78.738281 255.746094 76.488281 254.105469 74.1875 C 252.90625 75.058594 251.792969 75.867188 250.558594 76.769531 C 251.082031 77.496094 251.585938 78.199219 252.15625 78.996094 Z M 252.15625 78.996094 "/>
<path style=" stroke:none;fill-rule:nonzero;fill:rgb(97.254902%,97.647059%,98.039216%);fill-opacity:1;" d="M 67.828125 230.542969 C 67.042969 231.289062 66.3125 231.921875 65.34375 232.757812 C 65.34375 230.242188 64.691406 228.324219 63.046875 226.835938 C 61.113281 225.078125 59.113281 225 57.09375 226.636719 C 56.109375 227.4375 55.152344 228.273438 54.199219 229.113281 C 51.808594 231.226562 51.519531 233.757812 53.777344 235.992188 C 55.042969 237.242188 56.820312 237.96875 58.324219 238.90625 C 56.160156 241.414062 56.324219 241.257812 53.601562 239.484375 C 52.429688 238.722656 51.410156 237.617188 50.566406 236.480469 C 47.316406 232.089844 47.921875 227.28125 52.042969 223.84375 C 56.078125 220.480469 60.878906 220.75 64.65625 224.585938 C 66.273438 226.226562 67.460938 228.121094 67.828125 230.542969 Z M 67.828125 230.542969 "/>
<path style=" stroke:none;fill-rule:nonzero;fill:rgb(97.647059%,98.039216%,98.431373%);fill-opacity:1;" d="M 223.964844 63.761719 C 223.054688 62.953125 222.234375 62.21875 221.246094 61.339844 C 223.214844 59.109375 225.253906 56.96875 227.089844 54.667969 C 228.90625 52.394531 231.714844 50.765625 231.90625 47.089844 C 233.628906 48.59375 235.132812 49.910156 236.773438 51.34375 C 233.476562 55.066406 230.207031 58.757812 226.863281 62.53125 C 228.929688 64.378906 230.925781 66.167969 233.023438 68.042969 C 232.148438 68.609375 231.417969 69.078125 230.574219 69.621094 C 228.402344 67.695312 226.226562 65.769531 223.964844 63.761719 Z M 223.964844 63.761719 "/>
<path style=" stroke:none;fill-rule:nonzero;fill:rgb(97.647059%,98.039216%,98.039216%);fill-opacity:1;" d="M 36.921875 105.3125 C 38.617188 105.988281 40.195312 106.613281 41.878906 107.28125 C 42.9375 104.714844 43.957031 102.246094 44.984375 99.761719 C 47.398438 101.289062 47.402344 101.289062 46.410156 103.683594 C 45.148438 106.726562 43.875 109.765625 42.632812 112.75 C 36.847656 111.34375 32.015625 107.355469 25.742188 107.328125 C 26.460938 105.566406 27.214844 103.710938 28.023438 101.726562 C 31.007812 102.925781 33.90625 104.09375 36.921875 105.3125 Z M 36.921875 105.3125 "/>
<path style=" stroke:none;fill-rule:nonzero;fill:rgb(97.647059%,98.039216%,98.431373%);fill-opacity:1;" d="M 75.0625 246.4375 C 75.933594 245.222656 76.859375 244.164062 77.5 242.960938 C 78.125 241.789062 78.464844 240.464844 78.984375 239.0625 C 80.476562 240.117188 82.121094 241.28125 83.933594 242.558594 C 81.0625 246.601562 78.210938 250.613281 75.304688 254.703125 C 77.578125 256.3125 79.753906 257.859375 82.042969 259.480469 C 81.257812 260.117188 80.585938 260.664062 79.828125 261.28125 C 76.457031 258.875 73.113281 256.488281 69.6875 254.042969 C 71.5 251.476562 73.246094 249.003906 75.0625 246.4375 Z M 75.0625 246.4375 "/>
<path style=" stroke:none;fill-rule:nonzero;fill:rgb(98.039216%,98.039216%,98.431373%);fill-opacity:1;" d="M 97.164062 268.203125 C 98.484375 265.097656 99.84375 262.140625 101.007812 259.109375 C 101.660156 257.414062 101.984375 255.589844 102.523438 253.582031 C 104.042969 254.226562 105.90625 255.007812 107.851562 255.828125 C 105.523438 261.289062 103.257812 266.59375 100.921875 272.070312 C 99.421875 271.4375 97.976562 270.828125 96.402344 270.164062 C 96.660156 269.507812 96.890625 268.917969 97.164062 268.203125 Z M 97.164062 268.203125 "/>
<path style=" stroke:none;fill-rule:nonzero;fill:rgb(0%,2.745098%,16.078432%);fill-opacity:1;" d="M 141.457031 22.304688 C 141.640625 23.402344 141.777344 24.59375 141.785156 25.785156 C 141.796875 29.242188 141.757812 32.695312 141.75 36.289062 C 141.582031 36.1875 141.25 35.945312 141.25 35.703125 C 141.261719 31.269531 141.3125 26.832031 141.457031 22.304688 Z M 141.457031 22.304688 "/>
<path style=" stroke:none;fill-rule:nonzero;fill:rgb(0.392157%,3.529412%,16.470589%);fill-opacity:1;" d="M 155.386719 29.214844 C 155.210938 29.042969 155.03125 28.871094 154.828125 28.601562 C 154.917969 25.9375 155.007812 23.367188 155.152344 20.796875 C 155.1875 20.183594 155.390625 19.578125 155.644531 18.929688 C 155.75 22.230469 155.722656 25.574219 155.601562 29.035156 C 155.507812 29.15625 155.386719 29.214844 155.386719 29.214844 Z M 155.386719 29.214844 "/>
<path style=" stroke:none;fill-rule:nonzero;fill:rgb(0%,2.745098%,16.078432%);fill-opacity:1;" d="M 158.984375 36.429688 C 158.914062 30.730469 158.960938 24.980469 159.003906 19.078125 C 159.152344 19.300781 159.425781 19.675781 159.429688 20.050781 C 159.457031 25.207031 159.453125 30.367188 159.429688 35.523438 C 159.429688 35.808594 159.21875 36.089844 158.984375 36.429688 Z M 158.984375 36.429688 "/>
<path style=" stroke:none;fill-rule:nonzero;fill:rgb(0.392157%,2.745098%,15.686275%);fill-opacity:1;" d="M 145.019531 36.425781 C 144.894531 32.601562 144.894531 28.738281 144.894531 24.871094 C 145.113281 24.742188 145.332031 24.613281 145.550781 24.484375 C 145.617188 24.738281 145.679688 24.988281 145.804688 25.378906 C 145.75 26.648438 145.570312 27.785156 145.539062 28.925781 C 145.488281 30.910156 145.550781 32.898438 145.507812 34.886719 C 145.496094 35.386719 145.273438 35.882812 145.019531 36.425781 Z M 145.019531 36.425781 "/>
<path style=" stroke:none;fill-rule:nonzero;fill:rgb(99.607843%,99.607843%,99.607843%);fill-opacity:1;" d="M 73.660156 213.410156 C 62.6875 200.023438 55.402344 184.972656 52.554688 168.019531 C 47.3125 136.824219 54.789062 108.90625 75.476562 84.894531 C 90.527344 67.425781 109.648438 56.472656 132.378906 52.570312 C 163.6875 47.195312 191.703125 54.882812 215.742188 75.742188 C 233.0625 90.773438 243.625 109.878906 247.847656 132.429688 C 255.613281 173.925781 235.28125 216.71875 198.265625 237.011719 C 181.148438 246.398438 162.839844 250.59375 143.417969 249.160156 C 115.25 247.085938 92.042969 235 73.660156 213.410156 M 123.328125 113.617188 C 123.273438 113.648438 123.238281 113.695312 123.113281 113.789062 C 123.113281 113.789062 123.046875 113.878906 122.886719 113.964844 C 122.65625 114.164062 122.429688 114.363281 122.320312 114.6875 C 122.277344 114.644531 122.238281 114.605469 121.980469 114.648438 C 120.699219 115.402344 119.414062 116.15625 117.964844 117.011719 C 121.179688 117.011719 124.066406 117.011719 127.265625 117.0625 C 145.578125 116.988281 163.894531 116.914062 182.390625 116.839844 C 178.929688 115.050781 175.46875 113.183594 174.296875 108.863281 C 174.222656 108.59375 174.144531 108.324219 174.105469 107.8125 C 174.09375 107.570312 174.082031 107.324219 174.160156 106.882812 C 173.824219 106.636719 173.496094 106.175781 173.160156 106.171875 C 166.101562 106.128906 159.039062 106.140625 151.859375 106.140625 C 151.640625 107.046875 151.4375 107.894531 151.140625 108.988281 C 150.964844 109.585938 150.789062 110.183594 150.613281 110.78125 C 150.472656 110.761719 150.332031 110.742188 150.195312 110.722656 C 150.195312 95.726562 150.195312 80.726562 150.195312 65.730469 C 102.496094 65.511719 66.457031 105.101562 65.914062 146.792969 C 71.75 145.886719 77.566406 144.980469 83.355469 144.078125 C 85.890625 111.246094 113.808594 85.960938 142.75 83.734375 C 143.585938 86.90625 144.421875 90.089844 145.300781 93.4375 C 142.300781 93.4375 139.449219 93.4375 136.859375 93.4375 C 136.25 95.285156 135.902344 97.035156 135.109375 98.550781 C 134.324219 100.046875 133.09375 101.308594 132.503906 102.085938 C 136.921875 102.085938 142.1875 102.085938 147.558594 102.085938 C 147.863281 103.375 148.195312 104.765625 148.214844 106.199219 C 141.828125 106.199219 135.441406 106.195312 129.054688 106.207031 C 128.242188 106.210938 127.433594 106.3125 126.414062 106.4375 C 126.414062 106.648438 126.410156 106.855469 126.367188 107.328125 C 126.375 107.679688 126.378906 108.03125 126.289062 108.613281 C 126.179688 109.09375 126.074219 109.574219 125.816406 110.214844 C 125.597656 110.667969 125.378906 111.125 125.273438 111.699219 C 125.273438 111.699219 125.152344 111.589844 125 111.695312 C 124.824219 111.953125 124.652344 112.210938 124.410156 112.527344 C 124.410156 112.527344 124.378906 112.609375 124.289062 112.648438 C 124.234375 112.6875 124.199219 112.738281 124.113281 112.851562 C 124.113281 112.851562 124.074219 112.925781 123.96875 112.972656 C 123.898438 113.023438 123.859375 113.085938 123.804688 113.207031 C 123.804688 113.207031 123.769531 113.246094 123.65625 113.289062 C 123.585938 113.332031 123.542969 113.394531 123.453125 113.519531 C 123.453125 113.519531 123.410156 113.585938 123.328125 113.617188 M 65.707031 150.460938 C 65.71875 150.691406 65.726562 150.921875 65.683594 151.449219 C 65.777344 153.011719 65.867188 154.574219 65.898438 156.382812 C 65.933594 156.632812 65.964844 156.882812 65.957031 157.402344 C 66.03125 158.105469 66.109375 158.804688 66.210938 159.792969 C 66.496094 161.8125 66.660156 163.863281 67.085938 165.855469 C 73.691406 196.589844 91.589844 217.835938 120.789062 229.46875 C 127.007812 231.949219 133.503906 233.511719 140.457031 234.167969 C 143.582031 234.332031 146.707031 234.496094 150.066406 234.628906 C 150.082031 234.324219 150.09375 234.015625 150.160156 233.402344 C 150.164062 218.121094 150.164062 202.839844 150.167969 187.558594 C 150.171875 170.785156 150.179688 154.015625 150.464844 137.214844 C 150.601562 137.582031 150.820312 137.945312 150.859375 138.324219 C 151.128906 140.960938 151.351562 143.605469 151.609375 146.242188 C 153.242188 162.894531 154.875 179.546875 156.511719 196.199219 C 156.871094 199.855469 157.242188 203.507812 157.625 207.300781 C 158.09375 207.136719 158.394531 207.035156 158.691406 206.925781 C 164.445312 204.828125 170.167969 202.644531 175.964844 200.683594 C 177.667969 200.109375 178.136719 199.179688 178.066406 197.542969 C 177.121094 197.542969 176.238281 197.582031 175.359375 197.535156 C 171.160156 197.300781 166.964844 197.003906 163.167969 194.910156 C 159.105469 192.671875 157.769531 188.933594 159.558594 184.65625 C 160.105469 183.339844 160.75 182.007812 161.621094 180.898438 C 164.171875 177.640625 166.820312 174.460938 169.503906 171.3125 C 173.769531 166.320312 178.152344 161.425781 182.367188 156.390625 C 184.308594 154.070312 184.183594 153.964844 187.050781 154.859375 C 187.140625 154.890625 187.210938 154.980469 187.386719 155.113281 C 187.113281 155.5625 186.875 156.046875 186.554688 156.472656 C 184.5 159.207031 182.425781 161.929688 180.359375 164.652344 C 175.855469 170.589844 171.34375 176.511719 166.871094 182.46875 C 166.273438 183.261719 165.882812 184.210938 165.289062 185.28125 C 172.691406 184.613281 179.363281 182.679688 185.480469 179.011719 C 186.0625 178.664062 186.574219 178.089844 186.9375 177.507812 C 189.574219 173.304688 192.152344 169.058594 194.78125 164.847656 C 195.972656 162.941406 196.855469 160.480469 198.585938 159.363281 C 200.328125 158.242188 202.945312 158.472656 205.179688 158.117188 C 214.445312 156.644531 223.710938 155.175781 233.265625 153.722656 C 233.632812 153.621094 234 153.519531 234.511719 153.414062 C 234.511719 153.414062 234.59375 153.292969 234.59375 153.292969 C 234.59375 153.292969 234.527344 153.164062 234.597656 152.90625 C 234.597656 152.042969 234.597656 151.175781 234.597656 150.234375 C 233.929688 150.234375 233.441406 150.234375 232.949219 150.234375 C 220.261719 150.234375 207.574219 150.238281 194.886719 150.230469 C 189.925781 150.226562 184.960938 150.195312 180.007812 149.921875 C 180.332031 149.761719 180.644531 149.539062 180.988281 149.445312 C 185.34375 148.226562 189.703125 147.027344 194.0625 145.816406 C 194.554688 145.679688 195.027344 145.488281 195.507812 145.320312 C 195.527344 145.179688 195.542969 145.042969 195.558594 144.90625 C 194.167969 144.304688 192.777344 143.699219 191.382812 143.105469 C 179.753906 138.132812 168 133.511719 155.503906 131.160156 C 153.308594 130.746094 150.976562 130.234375 148.816406 130.542969 C 133.769531 132.699219 119.722656 138.105469 105.917969 144.214844 C 105.476562 144.410156 105.132812 144.820312 104.546875 145.285156 C 105.386719 145.539062 105.902344 145.710938 106.421875 145.855469 C 110.675781 147.03125 114.933594 148.1875 119.179688 149.394531 C 119.609375 149.515625 119.957031 149.929688 120.03125 150.230469 C 102.589844 150.234375 85.152344 150.234375 67.710938 150.238281 C 67.109375 150.238281 66.507812 150.296875 65.707031 150.460938 M 107.125 139.320312 C 107.382812 139.214844 107.640625 139.117188 107.894531 139.011719 C 119.378906 134.085938 131.0625 129.769531 143.394531 127.472656 C 145.976562 126.992188 148.683594 126.289062 151.222656 126.601562 C 162.46875 127.980469 173.152344 131.539062 183.652344 135.679688 C 187.015625 137.003906 190.347656 138.402344 193.695312 139.769531 C 193.8125 139.667969 193.925781 139.570312 194.042969 139.472656 C 189.628906 134.59375 185.246094 129.695312 183.960938 122.714844 C 184.089844 121.300781 183.382812 121.015625 182.074219 121.015625 C 160.820312 121.054688 139.566406 121.0625 118.3125 121.007812 C 116.722656 121.003906 116.203125 121.519531 116.328125 123.238281 C 115.136719 129.019531 111.726562 133.492188 107.839844 137.691406 C 107.417969 138.148438 107.101562 138.710938 106.632812 139.265625 C 106.71875 139.289062 106.800781 139.316406 107.125 139.320312 M 228.625 123.863281 C 229.582031 122.074219 229.359375 120.398438 228.546875 118.542969 C 215.921875 89.6875 194.199219 72.328125 163.171875 66.738281 C 160.054688 66.175781 156.863281 66.046875 153.582031 65.707031 C 154.378906 70.914062 155.125 75.765625 155.863281 80.621094 C 156.304688 83.523438 156.296875 83.523438 159.289062 83.882812 C 159.945312 83.964844 160.601562 84.0625 161.253906 84.175781 C 180.75 87.609375 195.863281 97.675781 206.660156 114.234375 C 206.957031 114.691406 207.023438 115.476562 206.871094 116.011719 C 206.3125 117.972656 205.566406 119.878906 204.996094 121.839844 C 204.832031 122.402344 205.027344 123.066406 205.21875 123.945312 C 207.683594 123.980469 210.144531 124.054688 212.609375 124.046875 C 217.871094 124.035156 223.128906 123.980469 228.625 123.863281 M 196.351562 221.058594 C 211.226562 211.203125 222.054688 198.042969 228.84375 181.523438 C 229.617188 179.644531 229.601562 178.074219 228.578125 176.320312 C 221.066406 176.320312 213.507812 176.308594 205.945312 176.332031 C 204.570312 176.335938 204.671875 177.304688 204.953125 178.203125 C 205.53125 180.042969 206.101562 181.890625 206.820312 183.679688 C 207.289062 184.839844 207.089844 185.710938 206.414062 186.714844 C 196.601562 201.304688 183.257812 210.902344 166.175781 215.1875 C 163.039062 215.972656 159.8125 216.425781 156.539062 217.046875 C 155.644531 222.800781 154.742188 228.613281 153.8125 234.597656 C 169.238281 233.890625 183.292969 229.441406 196.351562 221.058594 M 156.089844 101.914062 C 160.351562 101.914062 164.613281 101.914062 168.847656 101.914062 C 165.820312 100.195312 163.910156 97.511719 164.054688 93.605469 C 161.042969 93.605469 158.144531 93.605469 155.136719 93.605469 C 154.441406 96.261719 153.738281 98.953125 152.96875 101.898438 C 154.042969 101.898438 154.910156 101.898438 156.089844 101.914062 M 170.222656 192.261719 C 172.949219 192.679688 175.667969 193.121094 178.398438 193.484375 C 178.789062 193.535156 179.480469 193.3125 179.605469 193.027344 C 180.777344 190.335938 181.855469 187.605469 182.855469 185.15625 C 177.117188 186.78125 171.289062 188.433594 165.441406 190.089844 C 166.539062 191.421875 168.304688 191.703125 170.222656 192.261719 Z M 170.222656 192.261719 "/>
<path style=" stroke:none;fill-rule:nonzero;fill:rgb(5.490196%,13.725491%,25.490198%);fill-opacity:1;" d="M 217.113281 251.855469 C 216.078125 250.375 215.097656 248.988281 214.046875 247.5 C 214.8125 246.964844 215.515625 246.46875 216.226562 245.980469 C 218.707031 244.28125 220.746094 245.078125 221.398438 248.027344 C 221.484375 248.421875 221.46875 249.085938 221.230469 249.257812 C 219.925781 250.21875 218.535156 251.066406 217.113281 251.855469 Z M 217.113281 251.855469 "/>
<path style=" stroke:none;fill-rule:nonzero;fill:rgb(4.313726%,13.333334%,25.098041%);fill-opacity:1;" d="M 155.421875 29.285156 C 155.386719 29.214844 155.507812 29.15625 155.578125 29.15625 C 155.582031 29.222656 155.519531 29.289062 155.421875 29.285156 Z M 155.421875 29.285156 "/>
<path style=" stroke:none;fill-rule:nonzero;fill:rgb(4.705882%,13.725491%,25.098041%);fill-opacity:1;" d="M 45.691406 80.582031 C 43.832031 78.476562 43.808594 76.617188 45.527344 74.609375 C 47.027344 72.863281 49.007812 72.667969 51.148438 74.113281 C 52.472656 75.007812 53.785156 75.929688 55.042969 76.917969 C 57.042969 78.496094 57.300781 80.527344 55.851562 82.59375 C 54.402344 84.648438 52.355469 85.148438 50.238281 83.8125 C 48.699219 82.847656 47.265625 81.714844 45.691406 80.582031 Z M 45.691406 80.582031 "/>
<path style=" stroke:none;fill-rule:nonzero;fill:rgb(5.882353%,14.117648%,25.882354%);fill-opacity:1;" d="M 163.816406 268.84375 C 163.871094 269.585938 163.949219 270.1875 163.957031 270.789062 C 163.96875 272.066406 163.332031 272.890625 162.070312 273.097656 C 160.949219 273.28125 159.804688 273.34375 158.535156 273.472656 C 158.332031 271.089844 158.136719 268.820312 157.949219 266.566406 C 162.101562 265.511719 163.433594 266.015625 163.816406 268.84375 Z M 163.816406 268.84375 "/>
<path style=" stroke:none;fill-rule:nonzero;fill:rgb(5.882353%,14.509805%,25.882354%);fill-opacity:1;" d="M 131.988281 270.132812 C 131.546875 271.683594 130.558594 272.15625 129.171875 271.925781 C 128.148438 271.753906 127.132812 271.542969 125.964844 271.320312 C 126.390625 268.988281 126.796875 266.742188 127.214844 264.421875 C 127.605469 264.453125 127.871094 264.460938 128.128906 264.496094 C 132.617188 265.113281 132.902344 265.519531 131.988281 270.132812 Z M 131.988281 270.132812 "/>
<path style=" stroke:none;fill-rule:nonzero;fill:rgb(6.666667%,14.509805%,25.882354%);fill-opacity:1;" d="M 117.035156 34.832031 C 116.109375 35.082031 115.316406 35.300781 114.226562 35.605469 C 114.546875 32.929688 114.84375 30.421875 115.203125 27.4375 C 117.035156 29.746094 118.632812 31.753906 120.335938 33.902344 C 119.144531 34.242188 118.15625 34.523438 117.035156 34.832031 Z M 117.035156 34.832031 "/>
<path style=" stroke:none;fill-rule:nonzero;fill:rgb(4.313726%,13.725491%,25.490198%);fill-opacity:1;" d="M 120.339844 150.207031 C 119.957031 149.929688 119.609375 149.515625 119.179688 149.394531 C 114.933594 148.1875 110.675781 147.03125 106.421875 145.855469 C 105.902344 145.710938 105.386719 145.539062 104.546875 145.285156 C 105.132812 144.820312 105.476562 144.410156 105.917969 144.214844 C 119.722656 138.105469 133.769531 132.699219 148.816406 130.542969 C 150.976562 130.234375 153.308594 130.746094 155.503906 131.160156 C 168 133.511719 179.753906 138.132812 191.382812 143.105469 C 192.777344 143.699219 194.167969 144.304688 195.558594 144.90625 C 195.542969 145.042969 195.527344 145.179688 195.507812 145.320312 C 195.027344 145.488281 194.554688 145.679688 194.0625 145.816406 C 189.703125 147.027344 185.34375 148.226562 180.988281 149.445312 C 180.644531 149.539062 180.332031 149.761719 180.039062 150.179688 C 180.675781 150.566406 181.285156 150.8125 181.894531 150.8125 C 198.578125 150.832031 215.257812 150.828125 231.941406 150.828125 C 232.582031 150.828125 233.226562 150.828125 233.695312 150.828125 C 234.484375 152.261719 233.761719 152.992188 232.976562 153.707031 C 223.710938 155.175781 214.445312 156.644531 205.179688 158.117188 C 202.945312 158.472656 200.328125 158.242188 198.585938 159.363281 C 196.855469 160.480469 195.972656 162.941406 194.78125 164.847656 C 192.152344 169.058594 189.574219 173.304688 186.9375 177.507812 C 186.574219 178.089844 186.0625 178.664062 185.480469 179.011719 C 179.363281 182.679688 172.691406 184.613281 165.289062 185.28125 C 165.882812 184.210938 166.273438 183.261719 166.871094 182.46875 C 171.34375 176.511719 175.855469 170.589844 180.359375 164.652344 C 182.425781 161.929688 184.5 159.207031 186.554688 156.472656 C 186.875 156.046875 187.113281 155.5625 187.386719 155.113281 C 187.210938 154.980469 187.140625 154.890625 187.050781 154.859375 C 184.183594 153.964844 184.308594 154.070312 182.367188 156.390625 C 178.152344 161.425781 173.769531 166.320312 169.503906 171.3125 C 166.820312 174.460938 164.171875 177.640625 161.621094 180.898438 C 160.75 182.007812 160.105469 183.339844 159.558594 184.65625 C 157.769531 188.933594 159.105469 192.671875 163.167969 194.910156 C 166.964844 197.003906 171.160156 197.300781 175.359375 197.535156 C 176.238281 197.582031 177.121094 197.542969 178.066406 197.542969 C 178.136719 199.179688 177.667969 200.109375 175.964844 200.683594 C 170.167969 202.644531 164.445312 204.828125 158.691406 206.925781 C 158.394531 207.035156 158.09375 207.136719 157.625 207.300781 C 157.242188 203.507812 156.871094 199.855469 156.511719 196.199219 C 154.875 179.546875 153.242188 162.894531 151.609375 146.242188 C 151.351562 143.605469 151.128906 140.960938 150.859375 138.324219 C 150.820312 137.945312 150.601562 137.582031 150.191406 137.253906 C 149.777344 137.957031 149.519531 138.617188 149.519531 139.273438 C 149.5 170.039062 149.503906 200.804688 149.5 231.566406 C 149.5 232.011719 149.472656 232.453125 149.507812 232.894531 C 149.578125 233.765625 149.175781 234.089844 148.332031 234.035156 C 146.46875 233.921875 144.605469 233.789062 142.742188 233.757812 C 141.898438 233.742188 141.054688 233.949219 140.210938 234.058594 C 133.503906 233.511719 127.007812 231.949219 120.789062 229.46875 C 91.589844 217.835938 73.691406 196.589844 67.085938 165.855469 C 66.660156 163.863281 66.496094 161.8125 66.308594 159.570312 C 66.589844 158.550781 67.152344 157.683594 66 157.128906 C 65.964844 156.882812 65.933594 156.632812 66.03125 156.164062 C 66.207031 155.019531 66.285156 154.089844 66.292969 153.160156 C 66.308594 150.828125 66.296875 150.828125 68.585938 150.828125 C 85.230469 150.828125 101.875 150.835938 118.523438 150.804688 C 119.128906 150.800781 119.734375 150.414062 120.339844 150.207031 M 85.605469 167.464844 C 94.59375 200.550781 123.78125 215.785156 143.996094 216.617188 C 143.59375 213.933594 143.144531 211.265625 142.816406 208.582031 C 142.683594 207.5 142.203125 206.992188 141.191406 206.632812 C 135.6875 204.664062 130.234375 202.546875 124.707031 200.648438 C 123.101562 200.09375 122.339844 199.273438 122.371094 197.472656 C 123.128906 197.472656 123.890625 197.5 124.652344 197.46875 C 128.75 197.3125 132.832031 197.003906 136.609375 195.222656 C 141.34375 192.984375 142.90625 188.839844 140.679688 184.097656 C 139.75 182.121094 138.605469 180.164062 137.191406 178.507812 C 130.214844 170.339844 123.113281 162.273438 115.902344 153.992188 C 115.253906 154.1875 114.160156 154.519531 112.847656 154.914062 C 114.992188 157.804688 116.996094 160.570312 119.066406 163.28125 C 123.683594 169.335938 128.355469 175.347656 132.953125 181.410156 C 133.753906 182.46875 134.308594 183.710938 135.125 185.117188 C 127.632812 184.386719 120.925781 182.394531 114.75 178.738281 C 114.304688 178.472656 113.941406 178 113.664062 177.546875 C 110.753906 172.863281 107.675781 168.265625 105.046875 163.429688 C 103.253906 160.136719 101.007812 158.425781 97.160156 158.15625 C 92.683594 157.84375 88.253906 156.867188 83.394531 156.113281 C 84.144531 159.988281 84.84375 163.59375 85.605469 167.464844 Z M 85.605469 167.464844 "/>
<path style=" stroke:none;fill-rule:nonzero;fill:rgb(4.313726%,13.725491%,25.490198%);fill-opacity:1;" d="M 125.964844 110.054688 C 126.074219 109.574219 126.179688 109.09375 126.457031 108.464844 C 126.824219 107.839844 127.019531 107.359375 127.277344 106.742188 C 127.820312 106.742188 128.417969 106.742188 129.011719 106.742188 C 134.953125 106.742188 140.894531 106.757812 146.835938 106.714844 C 147.398438 106.710938 147.960938 106.351562 148.523438 106.15625 C 148.195312 104.765625 147.863281 103.375 147.558594 102.085938 C 142.1875 102.085938 136.921875 102.085938 132.503906 102.085938 C 133.09375 101.308594 134.324219 100.046875 135.109375 98.550781 C 135.902344 97.035156 136.25 95.285156 136.859375 93.4375 C 139.449219 93.4375 142.300781 93.4375 145.300781 93.4375 C 144.421875 90.089844 143.585938 86.90625 142.75 83.734375 C 113.808594 85.960938 85.890625 111.246094 83.355469 144.078125 C 77.566406 144.980469 71.75 145.886719 65.914062 146.792969 C 66.457031 105.101562 102.496094 65.511719 150.195312 65.730469 C 150.195312 80.726562 150.195312 95.726562 150.195312 110.722656 C 150.332031 110.742188 150.472656 110.761719 150.613281 110.78125 C 150.789062 110.183594 150.964844 109.585938 151.300781 108.832031 C 151.925781 106.84375 153.195312 106.636719 154.882812 106.667969 C 160.589844 106.769531 166.296875 106.691406 172.007812 106.722656 C 172.695312 106.726562 173.382812 106.957031 174.070312 107.082031 C 174.082031 107.324219 174.09375 107.570312 174.011719 107.996094 C 174.035156 108.480469 174.152344 108.777344 174.269531 109.074219 C 175.46875 113.183594 178.929688 115.050781 182.390625 116.839844 C 163.894531 116.914062 145.578125 116.988281 127.011719 116.941406 C 124.59375 116.820312 122.429688 116.820312 120.03125 116.820312 C 120.980469 115.832031 121.589844 115.199219 122.199219 114.566406 C 122.238281 114.605469 122.277344 114.644531 122.378906 114.652344 C 122.644531 114.371094 122.847656 114.125 123.046875 113.878906 C 123.046875 113.878906 123.113281 113.789062 123.234375 113.8125 C 123.351562 113.835938 123.464844 113.730469 123.464844 113.730469 C 123.464844 113.730469 123.410156 113.585938 123.410156 113.585938 C 123.410156 113.585938 123.453125 113.519531 123.570312 113.523438 C 123.710938 113.433594 123.742188 113.339844 123.769531 113.246094 C 123.769531 113.246094 123.804688 113.207031 123.90625 113.207031 C 124.03125 113.113281 124.050781 113.019531 124.074219 112.925781 C 124.074219 112.925781 124.113281 112.851562 124.226562 112.855469 C 124.335938 112.863281 124.445312 112.75 124.445312 112.75 C 124.445312 112.75 124.378906 112.609375 124.378906 112.609375 C 124.378906 112.609375 124.410156 112.527344 124.558594 112.53125 C 124.859375 112.21875 125.007812 111.90625 125.152344 111.589844 C 125.152344 111.589844 125.273438 111.699219 125.332031 111.644531 C 125.578125 111.078125 125.773438 110.566406 125.964844 110.054688 Z M 125.964844 110.054688 "/>
<path style=" stroke:none;fill-rule:nonzero;fill:rgb(4.313726%,13.333334%,25.098041%);fill-opacity:1;" d="M 196.25 221.117188 C 183.292969 229.441406 169.238281 233.890625 153.8125 234.597656 C 154.742188 228.613281 155.644531 222.800781 156.539062 217.046875 C 159.8125 216.425781 163.039062 215.972656 166.175781 215.1875 C 183.257812 210.902344 196.601562 201.304688 206.414062 186.714844 C 207.089844 185.710938 207.289062 184.839844 206.820312 183.679688 C 206.101562 181.890625 205.53125 180.042969 204.953125 178.203125 C 204.671875 177.304688 204.570312 176.335938 205.945312 176.332031 C 213.507812 176.308594 221.066406 176.320312 228.578125 176.320312 C 229.601562 178.074219 229.617188 179.644531 228.84375 181.523438 C 222.054688 198.042969 211.226562 211.203125 196.25 221.117188 Z M 196.25 221.117188 "/>
<path style=" stroke:none;fill-rule:nonzero;fill:rgb(4.313726%,13.333334%,25.098041%);fill-opacity:1;" d="M 205.054688 123.6875 C 205.027344 123.066406 204.832031 122.402344 204.996094 121.839844 C 205.566406 119.878906 206.3125 117.972656 206.871094 116.011719 C 207.023438 115.476562 206.957031 114.691406 206.660156 114.234375 C 195.863281 97.675781 180.75 87.609375 161.253906 84.175781 C 160.601562 84.0625 159.945312 83.964844 159.289062 83.882812 C 156.296875 83.523438 156.304688 83.523438 155.863281 80.621094 C 155.125 75.765625 154.378906 70.914062 153.582031 65.707031 C 156.863281 66.046875 160.054688 66.175781 163.171875 66.738281 C 194.199219 72.328125 215.921875 89.6875 228.546875 118.542969 C 229.359375 120.398438 229.582031 122.074219 228.40625 123.808594 C 220.480469 123.730469 212.769531 123.707031 205.054688 123.6875 Z M 205.054688 123.6875 "/>
<path style=" stroke:none;fill-rule:nonzero;fill:rgb(4.705882%,13.725491%,25.490198%);fill-opacity:1;" d="M 183.929688 122.988281 C 185.246094 129.695312 189.628906 134.59375 194.042969 139.472656 C 193.925781 139.570312 193.8125 139.667969 193.695312 139.769531 C 190.347656 138.402344 187.015625 137.003906 183.652344 135.679688 C 173.152344 131.539062 162.46875 127.980469 151.222656 126.601562 C 148.683594 126.289062 145.976562 126.992188 143.394531 127.472656 C 131.0625 129.769531 119.378906 134.085938 107.894531 139.011719 C 107.640625 139.117188 107.382812 139.214844 106.96875 139.300781 C 106.8125 139.285156 106.734375 139.222656 106.734375 139.222656 C 107.101562 138.710938 107.417969 138.148438 107.839844 137.691406 C 111.726562 133.492188 115.136719 129.019531 116.484375 123.078125 C 117.03125 121.894531 117.730469 121.597656 118.859375 121.597656 C 139.371094 121.640625 159.882812 121.628906 180.398438 121.632812 C 181.738281 121.632812 183.238281 121.273438 183.929688 122.988281 Z M 183.929688 122.988281 "/>
<path style=" stroke:none;fill-rule:nonzero;fill:rgb(5.490196%,14.117648%,25.882354%);fill-opacity:1;" d="M 155.933594 101.90625 C 154.910156 101.898438 154.042969 101.898438 152.96875 101.898438 C 153.738281 98.953125 154.441406 96.261719 155.136719 93.605469 C 158.144531 93.605469 161.042969 93.605469 164.054688 93.605469 C 163.910156 97.511719 165.820312 100.195312 168.847656 101.914062 C 164.613281 101.914062 160.351562 101.914062 155.933594 101.90625 Z M 155.933594 101.90625 "/>
<path style=" stroke:none;fill-rule:nonzero;fill:rgb(5.882353%,14.509805%,25.882354%);fill-opacity:1;" d="M 170.089844 192.238281 C 168.304688 191.703125 166.539062 191.421875 165.441406 190.089844 C 171.289062 188.433594 177.117188 186.78125 182.855469 185.15625 C 181.855469 187.605469 180.777344 190.335938 179.605469 193.027344 C 179.480469 193.3125 178.789062 193.535156 178.398438 193.484375 C 175.667969 193.121094 172.949219 192.679688 170.089844 192.238281 Z M 170.089844 192.238281 "/>
<path style=" stroke:none;fill-rule:nonzero;fill:rgb(1.176471%,10.196079%,21.960784%);fill-opacity:1;" d="M 140.332031 234.113281 C 141.054688 233.949219 141.898438 233.742188 142.742188 233.757812 C 144.605469 233.789062 146.46875 233.921875 148.332031 234.035156 C 149.175781 234.089844 149.578125 233.765625 149.507812 232.894531 C 149.472656 232.453125 149.5 232.011719 149.5 231.566406 C 149.503906 200.804688 149.5 170.039062 149.519531 139.273438 C 149.519531 138.617188 149.777344 137.957031 150.050781 137.269531 C 150.179688 154.015625 150.171875 170.785156 150.167969 187.558594 C 150.164062 202.839844 150.164062 218.121094 150.058594 233.625 C 149.914062 234.121094 149.875 234.390625 149.832031 234.65625 C 146.707031 234.496094 143.582031 234.332031 140.332031 234.113281 Z M 140.332031 234.113281 "/>
<path style=" stroke:none;fill-rule:nonzero;fill:rgb(16.862746%,22.745098%,33.333334%);fill-opacity:1;" d="M 183.945312 122.851562 C 183.238281 121.273438 181.738281 121.632812 180.398438 121.632812 C 159.882812 121.628906 139.371094 121.640625 118.859375 121.597656 C 117.730469 121.597656 117.03125 121.894531 116.523438 122.953125 C 116.203125 121.519531 116.722656 121.003906 118.3125 121.007812 C 139.566406 121.0625 160.820312 121.054688 182.074219 121.015625 C 183.382812 121.015625 184.089844 121.300781 183.945312 122.851562 Z M 183.945312 122.851562 "/>
<path style=" stroke:none;fill-rule:nonzero;fill:rgb(0%,6.27451%,18.82353%);fill-opacity:1;" d="M 233.121094 153.714844 C 233.761719 152.992188 234.484375 152.261719 233.695312 150.828125 C 233.226562 150.828125 232.582031 150.828125 231.941406 150.828125 C 215.257812 150.828125 198.578125 150.832031 181.894531 150.8125 C 181.285156 150.8125 180.675781 150.566406 180.035156 150.308594 C 184.960938 150.195312 189.925781 150.226562 194.886719 150.230469 C 207.574219 150.238281 220.261719 150.234375 232.949219 150.234375 C 233.441406 150.234375 233.929688 150.234375 234.597656 150.234375 C 234.597656 151.175781 234.597656 152.042969 234.515625 153.0625 C 234.386719 153.277344 234.363281 153.34375 234.363281 153.417969 C 234 153.519531 233.632812 153.621094 233.121094 153.714844 Z M 233.121094 153.714844 "/>
<path style=" stroke:none;fill-rule:nonzero;fill:rgb(0%,6.27451%,18.82353%);fill-opacity:1;" d="M 120.1875 150.21875 C 119.734375 150.414062 119.128906 150.800781 118.523438 150.804688 C 101.875 150.835938 85.230469 150.828125 68.585938 150.828125 C 66.296875 150.828125 66.308594 150.828125 66.292969 153.160156 C 66.285156 154.089844 66.207031 155.019531 66.0625 156.042969 C 65.867188 154.574219 65.777344 153.011719 65.785156 151.21875 C 65.890625 150.765625 65.898438 150.546875 65.902344 150.328125 C 66.507812 150.296875 67.109375 150.238281 67.710938 150.238281 C 85.152344 150.234375 102.589844 150.234375 120.1875 150.21875 Z M 120.1875 150.21875 "/>
<path style=" stroke:none;fill-rule:nonzero;fill:rgb(18.82353%,23.137255%,33.333334%);fill-opacity:1;" d="M 174.113281 106.984375 C 173.382812 106.957031 172.695312 106.726562 172.007812 106.722656 C 166.296875 106.691406 160.589844 106.769531 154.882812 106.667969 C 153.195312 106.636719 151.925781 106.84375 151.347656 108.707031 C 151.4375 107.894531 151.640625 107.046875 151.859375 106.140625 C 159.039062 106.140625 166.101562 106.128906 173.160156 106.171875 C 173.496094 106.175781 173.824219 106.636719 174.113281 106.984375 Z M 174.113281 106.984375 "/>
<path style=" stroke:none;fill-rule:nonzero;fill:rgb(0%,3.137255%,16.470589%);fill-opacity:1;" d="M 148.367188 106.179688 C 147.960938 106.351562 147.398438 106.710938 146.835938 106.714844 C 140.894531 106.757812 134.953125 106.742188 129.011719 106.742188 C 128.417969 106.742188 127.820312 106.742188 127.277344 106.742188 C 127.019531 107.359375 126.824219 107.839844 126.507812 108.351562 C 126.378906 108.03125 126.375 107.679688 126.453125 107.128906 C 126.570312 106.742188 126.597656 106.554688 126.621094 106.367188 C 127.433594 106.3125 128.242188 106.210938 129.054688 106.207031 C 135.441406 106.195312 141.828125 106.199219 148.367188 106.179688 Z M 148.367188 106.179688 "/>
<path style=" stroke:none;fill-rule:nonzero;fill:rgb(10.196079%,14.901961%,26.274511%);fill-opacity:1;" d="M 122.089844 114.605469 C 121.589844 115.199219 120.980469 115.832031 120.03125 116.820312 C 122.429688 116.820312 124.59375 116.820312 126.859375 116.914062 C 124.066406 117.011719 121.179688 117.011719 117.964844 117.011719 C 119.414062 116.15625 120.699219 115.402344 122.089844 114.605469 Z M 122.089844 114.605469 "/>
<path style=" stroke:none;fill-rule:nonzero;fill:rgb(0%,2.352941%,15.294118%);fill-opacity:1;" d="M 205.136719 123.816406 C 212.769531 123.707031 220.480469 123.730469 228.289062 123.851562 C 223.128906 123.980469 217.871094 124.035156 212.609375 124.046875 C 210.144531 124.054688 207.683594 123.980469 205.136719 123.816406 Z M 205.136719 123.816406 "/>
<path style=" stroke:none;fill-rule:nonzero;fill:rgb(0%,6.27451%,18.82353%);fill-opacity:1;" d="M 65.976562 157.265625 C 67.152344 157.683594 66.589844 158.550781 66.296875 159.425781 C 66.109375 158.804688 66.03125 158.105469 65.976562 157.265625 Z M 65.976562 157.265625 "/>
<path style=" stroke:none;fill-rule:nonzero;fill:rgb(10.196079%,14.901961%,26.274511%);fill-opacity:1;" d="M 125.890625 110.132812 C 125.773438 110.566406 125.578125 111.078125 125.273438 111.585938 C 125.378906 111.125 125.597656 110.667969 125.890625 110.132812 Z M 125.890625 110.132812 "/>
<path style=" stroke:none;fill-rule:nonzero;fill:rgb(18.82353%,23.137255%,33.333334%);fill-opacity:1;" d="M 174.285156 108.96875 C 174.152344 108.777344 174.035156 108.480469 173.992188 108.117188 C 174.144531 108.324219 174.222656 108.59375 174.285156 108.96875 Z M 174.285156 108.96875 "/>
<path style=" stroke:none;fill-rule:nonzero;fill:rgb(10.196079%,14.901961%,26.274511%);fill-opacity:1;" d="M 122.964844 113.921875 C 122.847656 114.125 122.644531 114.371094 122.320312 114.589844 C 122.429688 114.363281 122.65625 114.164062 122.964844 113.921875 Z M 122.964844 113.921875 "/>
<path style=" stroke:none;fill-rule:nonzero;fill:rgb(10.196079%,14.901961%,26.274511%);fill-opacity:1;" d="M 125.074219 111.640625 C 125.007812 111.90625 124.859375 112.21875 124.59375 112.5 C 124.652344 112.210938 124.824219 111.953125 125.074219 111.640625 Z M 125.074219 111.640625 "/>
<path style=" stroke:none;fill-rule:nonzero;fill:rgb(4.313726%,13.725491%,25.490198%);fill-opacity:1;" d="M 149.949219 234.644531 C 149.875 234.390625 149.914062 234.121094 150.03125 233.78125 C 150.09375 234.015625 150.082031 234.324219 149.949219 234.644531 Z M 149.949219 234.644531 "/>
<path style=" stroke:none;fill-rule:nonzero;fill:rgb(4.313726%,13.725491%,25.490198%);fill-opacity:1;" d="M 126.519531 106.402344 C 126.597656 106.554688 126.570312 106.742188 126.476562 106.996094 C 126.410156 106.855469 126.414062 106.648438 126.519531 106.402344 Z M 126.519531 106.402344 "/>
<path style=" stroke:none;fill-rule:nonzero;fill:rgb(4.313726%,13.725491%,25.490198%);fill-opacity:1;" d="M 65.804688 150.394531 C 65.898438 150.546875 65.890625 150.765625 65.808594 151.066406 C 65.726562 150.921875 65.71875 150.691406 65.804688 150.394531 Z M 65.804688 150.394531 "/>
<path style=" stroke:none;fill-rule:nonzero;fill:rgb(10.196079%,14.901961%,26.274511%);fill-opacity:1;" d="M 124.332031 112.628906 C 124.378906 112.609375 124.445312 112.75 124.445312 112.75 C 124.445312 112.75 124.335938 112.863281 124.261719 112.835938 C 124.199219 112.738281 124.234375 112.6875 124.332031 112.628906 Z M 124.332031 112.628906 "/>
<path style=" stroke:none;fill-rule:nonzero;fill:rgb(10.196079%,14.901961%,26.274511%);fill-opacity:1;" d="M 124.019531 112.949219 C 124.050781 113.019531 124.03125 113.113281 123.929688 113.1875 C 123.859375 113.085938 123.898438 113.023438 124.019531 112.949219 Z M 124.019531 112.949219 "/>
<path style=" stroke:none;fill-rule:nonzero;fill:rgb(10.196079%,14.901961%,26.274511%);fill-opacity:1;" d="M 123.714844 113.265625 C 123.742188 113.339844 123.710938 113.433594 123.601562 113.503906 C 123.542969 113.394531 123.585938 113.332031 123.714844 113.265625 Z M 123.714844 113.265625 "/>
<path style=" stroke:none;fill-rule:nonzero;fill:rgb(4.313726%,13.725491%,25.490198%);fill-opacity:1;" d="M 234.4375 153.417969 C 234.363281 153.34375 234.386719 153.277344 234.480469 153.191406 C 234.527344 153.164062 234.59375 153.292969 234.59375 153.292969 C 234.59375 153.292969 234.511719 153.414062 234.4375 153.417969 Z M 234.4375 153.417969 "/>
<path style=" stroke:none;fill-rule:nonzero;fill:rgb(10.196079%,14.901961%,26.274511%);fill-opacity:1;" d="M 123.367188 113.601562 C 123.410156 113.585938 123.464844 113.730469 123.464844 113.730469 C 123.464844 113.730469 123.351562 113.835938 123.285156 113.796875 C 123.238281 113.695312 123.273438 113.648438 123.367188 113.601562 Z M 123.367188 113.601562 "/>
<path style=" stroke:none;fill-rule:nonzero;fill:rgb(4.705882%,13.725491%,25.490198%);fill-opacity:1;" d="M 106.847656 139.3125 C 106.800781 139.316406 106.71875 139.289062 106.683594 139.242188 C 106.734375 139.222656 106.8125 139.285156 106.847656 139.3125 Z M 106.847656 139.3125 "/>
<path style=" stroke:none;fill-rule:nonzero;fill:rgb(99.215686%,99.215686%,99.215686%);fill-opacity:1;" d="M 85.574219 167.332031 C 84.84375 163.59375 84.144531 159.988281 83.394531 156.113281 C 88.253906 156.867188 92.683594 157.84375 97.160156 158.15625 C 101.007812 158.425781 103.253906 160.136719 105.046875 163.429688 C 107.675781 168.265625 110.753906 172.863281 113.664062 177.546875 C 113.941406 178 114.304688 178.472656 114.75 178.738281 C 120.925781 182.394531 127.632812 184.386719 135.125 185.117188 C 134.308594 183.710938 133.753906 182.46875 132.953125 181.410156 C 128.355469 175.347656 123.683594 169.335938 119.066406 163.28125 C 116.996094 160.570312 114.992188 157.804688 112.847656 154.914062 C 114.160156 154.519531 115.253906 154.1875 115.902344 153.992188 C 123.113281 162.273438 130.214844 170.339844 137.191406 178.507812 C 138.605469 180.164062 139.75 182.121094 140.679688 184.097656 C 142.90625 188.839844 141.34375 192.984375 136.609375 195.222656 C 132.832031 197.003906 128.75 197.3125 124.652344 197.46875 C 123.890625 197.5 123.128906 197.472656 122.371094 197.472656 C 122.339844 199.273438 123.101562 200.09375 124.707031 200.648438 C 130.234375 202.546875 135.6875 204.664062 141.191406 206.632812 C 142.203125 206.992188 142.683594 207.5 142.816406 208.582031 C 143.144531 211.265625 143.59375 213.933594 143.996094 216.617188 C 123.78125 215.785156 94.59375 200.550781 85.574219 167.332031 M 133.03125 189.351562 C 127.800781 187.992188 122.570312 186.632812 117.542969 185.328125 C 118.632812 187.875 119.851562 190.734375 121.128906 193.722656 C 123.6875 193.34375 126.199219 193.019531 128.695312 192.582031 C 129.992188 192.351562 131.289062 192.011719 132.519531 191.546875 C 133.449219 191.195312 134.277344 190.5625 135.152344 190.054688 C 135.078125 189.9375 135.003906 189.816406 134.929688 189.699219 C 134.386719 189.601562 133.84375 189.503906 133.03125 189.351562 Z M 133.03125 189.351562 "/>
<path style=" stroke:none;fill-rule:nonzero;fill:rgb(5.882353%,14.509805%,25.882354%);fill-opacity:1;" d="M 133.167969 189.378906 C 133.84375 189.503906 134.386719 189.601562 134.929688 189.699219 C 135.003906 189.816406 135.078125 189.9375 135.152344 190.054688 C 134.277344 190.5625 133.449219 191.195312 132.519531 191.546875 C 131.289062 192.011719 129.992188 192.351562 128.695312 192.582031 C 126.199219 193.019531 123.6875 193.34375 121.128906 193.722656 C 119.851562 190.734375 118.632812 187.875 117.542969 185.328125 C 122.570312 186.632812 127.800781 187.992188 133.167969 189.378906 Z M 133.167969 189.378906 "/>
</g>
</svg>
