<svg version="1.1" id="Layer_1" xmlns="http://www.w3.org/2000/svg" xmlns:xlink="http://www.w3.org/1999/xlink" x="0px" y="0px" width="100%" viewBox="0 0 905 905" enable-background="new 0 0 905 905" xml:space="preserve">

<path fill="#CE0E2D" opacity="1.000000" stroke="none" d=" M3.000001,687.000000   C3.000001,458.876251 3.000001,231.252487 3.000001,3.314415   C302.952209,3.314415 602.661560,3.314415 902.685547,3.314415   C902.685547,302.952118 902.685547,602.661438 902.685547,902.685425   C603.047974,902.685425 303.338593,902.685425 3.000001,902.685425   C3.000001,831.006042 3.000001,759.252991 3.000001,687.000000  M367.850769,871.680237   C384.989014,874.080383 402.061371,877.253906 419.279114,878.721375   C456.293518,881.876282 493.169403,880.021667 529.736267,873.162659   C629.431274,854.462280 712.778931,806.781250 778.233459,729.536804   C852.084656,642.383301 885.274353,540.940735 879.218750,426.771301   C877.257629,389.796539 870.299500,353.737152 858.556091,318.670441   C832.736816,241.572342 788.708923,176.657501 726.146545,124.763260   C650.857178,62.312222 563.958923,29.620512 466.197418,26.099331   C435.976593,25.010836 405.942749,27.249949 376.188538,32.843163   C276.504211,51.581905 193.164108,99.266113 127.716652,176.519318   C53.870209,263.686554 20.719193,365.139435 26.785742,479.303436   C28.750483,516.277100 35.729988,552.330444 47.468216,587.400208   C71.912827,660.432251 113.002632,722.570557 170.786713,773.499512   C227.500443,823.484985 293.006775,856.052979 367.850769,871.680237  z" data-index="1" style="opacity: 1; stroke-width: 2px; stroke: rgb(13, 153, 255); visibility: hidden;"/>
<path fill="#0B2240" opacity="1.000000" stroke="none" d=" M367.440765,871.569702   C293.006775,856.052979 227.500443,823.484985 170.786713,773.499512   C113.002632,722.570557 71.912827,660.432251 47.468216,587.400208   C35.729988,552.330444 28.750483,516.277100 26.785742,479.303436   C20.719193,365.139435 53.870209,263.686554 127.716652,176.519318   C193.164108,99.266113 276.504211,51.581905 376.188538,32.843163   C405.942749,27.249949 435.976593,25.010836 466.197418,26.099331   C563.958923,29.620512 650.857178,62.312222 726.146545,124.763260   C788.708923,176.657501 832.736816,241.572342 858.556091,318.670441   C870.299500,353.737152 877.257629,389.796539 879.218750,426.771301   C885.274353,540.940735 852.084656,642.383301 778.233459,729.536804   C712.778931,806.781250 629.431274,854.462280 529.736267,873.162659   C493.169403,880.021667 456.293518,881.876282 419.279114,878.721375   C402.061371,877.253906 384.989014,874.080383 367.440765,871.569702  M437.856873,109.751945   C438.237061,108.246918 438.912933,106.748238 438.945343,105.235756   C439.073914,99.245750 438.885956,93.248329 439.047241,87.259903   C439.139862,83.820305 439.677734,80.392715 440.626434,77.244522   C447.068298,85.256805 454.075989,92.889595 459.781006,101.396065   C464.747009,108.800636 470.740601,111.690300 479.970947,109.736076   C480.311462,108.876701 480.945374,108.018517 480.948883,107.157776   C481.012207,91.602440 481.027588,76.046646 480.944916,60.491535   C480.938843,59.356792 480.104401,58.226456 478.790070,56.992352   C475.832458,56.990788 472.874847,56.989223 469.149414,57.225742   C468.766266,59.062805 468.144836,60.886574 468.041473,62.739246   C467.609131,70.489494 467.332245,78.248421 466.404053,85.694443   C459.313110,76.938728 452.259460,68.152267 445.086975,59.463863   C444.124725,58.298218 442.598633,56.917660 441.272400,56.850739   C435.564850,56.562748 429.834473,56.727711 424.189056,56.727711   C425.234924,60.491745 426.138458,63.743427 426.426605,67.565544   C426.294830,80.945557 426.137482,94.325493 426.100708,107.705765   C426.098694,108.437248 427.102142,109.171509 428.461975,110.039871   C431.341400,110.031105 434.220795,110.022331 437.856873,109.751945  M178.488800,305.012939   C144.119415,369.747040 133.211288,438.326141 146.564178,510.285156   C160.001480,582.699097 195.020859,643.391907 251.461243,690.641602   C326.696106,753.625305 413.618652,776.475769 510.089172,759.380127   C582.775208,746.499329 643.447998,710.863708 690.863464,654.314148   C750.630066,583.034119 774.118286,500.438904 761.480225,408.398773   C751.716858,337.294922 720.283691,276.294769 667.782227,227.327057   C590.927429,155.645172 499.540436,127.985008 396.310425,146.740097   C299.459778,164.336166 227.339523,218.713486 178.488800,305.012939  M667.073303,727.514465   C663.839355,728.129395 660.083191,727.895325 657.462708,729.507446   C646.639893,736.165405 636.161194,743.382690 624.460144,751.119080   C635.449646,754.244141 638.668335,763.263123 643.896851,770.333252   C649.173950,777.469055 654.062744,784.891968 659.160156,792.244629   C663.510498,789.154358 667.290894,786.468872 671.252075,783.655029   C667.439514,778.145264 663.776733,772.851990 659.316467,766.406250   C662.092773,766.260376 664.140381,765.598511 665.752747,766.168213   C671.390625,768.160339 676.862427,770.618347 682.436157,772.799927   C683.589661,773.251465 685.302246,773.894531 686.089722,773.395630   C690.772827,770.429260 695.259827,767.153198 700.270020,763.662598   C691.776306,760.488586 684.188660,757.653137 676.548340,754.798035   C684.198853,741.530090 680.650330,730.813538 667.073303,727.514465  M148.367279,208.824799   C143.955963,211.010223 138.969513,212.488190 135.243805,215.516968   C125.063728,223.792816 121.115082,237.193802 124.910912,247.681946   C128.678299,258.091583 140.237274,266.623932 151.164536,267.061279   C166.699432,267.682983 181.765564,251.996719 181.399445,235.581818   C181.052383,220.020538 165.669144,207.184845 148.367279,208.824799  M520.965515,94.736214   C520.313904,102.446022 522.181946,109.457794 527.927795,114.758553   C538.493042,124.505341 551.003540,127.433807 564.931274,124.010368   C566.129395,123.715874 567.699280,122.523346 568.014648,121.434624   C570.269836,113.649101 572.244446,105.782310 574.401001,97.588684   C566.827759,95.573502 559.687256,93.673477 552.533081,91.769829   C551.042847,94.310417 549.812439,96.407921 548.410950,98.797096   C551.591675,99.802444 554.375000,100.682167 557.410706,101.641685   C556.230286,106.108032 555.242432,110.298004 553.952515,114.392815   C553.647644,115.360992 552.397095,116.603790 551.463501,116.713120   C541.840027,117.840126 534.207397,109.507118 536.192810,100.041977   C537.078857,95.817719 538.297546,91.657249 539.497681,87.506096   C541.997742,78.857986 547.937561,75.031479 556.548645,77.802971   C562.109436,79.592712 567.084290,83.202934 572.087524,85.872353   C571.879578,83.294197 576.736206,79.806656 571.831543,75.834923   C551.659058,59.499428 525.642334,68.666672 520.965515,94.736214  M509.836456,809.091553   C507.214478,799.928955 502.369049,794.967102 493.568390,794.962158   C481.382080,794.955261 469.195129,796.132996 456.974396,796.805359   C465.755676,814.070923 461.544006,832.659485 465.726685,850.201355   C470.384644,849.743164 475.084351,849.280823 479.958801,848.801331   C479.535339,843.348328 479.154022,838.438049 478.751312,833.251892   C483.074951,832.860901 487.021637,832.524597 490.963989,832.143738   C504.573059,830.828918 510.823822,823.515625 509.836456,809.091553  M364.232208,822.633362   C363.277222,828.140991 362.322235,833.648621 361.316162,839.450867   C366.454010,840.377075 371.107788,841.216003 375.840210,842.069092   C376.854492,836.672791 377.764862,831.829102 378.709991,826.800659   C384.066620,827.619263 388.953094,828.702393 393.891602,829.053345   C405.490936,829.877563 412.744354,824.290894 414.675995,813.492432   C416.509430,803.242920 411.393250,795.119507 400.251862,792.432434   C389.316803,789.795044 378.136353,788.174866 367.817322,786.249023   C367.817322,792.111328 368.259125,797.656067 367.701355,803.098267   C367.058167,809.373962 365.532776,815.559265 364.232208,822.633362  M333.061707,127.387436   C333.061707,128.182999 333.061707,128.978577 333.061707,129.823883   C341.883270,128.196289 341.787964,128.181015 343.168671,119.568573   C343.404114,118.099983 344.582184,115.976562 345.779541,115.599426   C353.333527,113.220139 361.015869,111.248222 368.692719,109.131584   C370.642944,111.625252 372.250336,113.965645 374.172974,116.009537   C375.035217,116.926170 376.680115,117.945328 377.709259,117.721222   C382.201019,116.743103 386.597107,115.325668 391.398987,113.962364   C379.726196,99.220886 368.416473,84.878380 356.980927,70.636932   C356.256897,69.735207 354.399811,68.985420 353.330719,69.243912   C347.246490,70.715042 341.241547,72.514130 336.538940,73.829803   C337.302856,78.403267 338.897217,82.547501 338.488373,86.483665   C337.098175,99.868248 335.000946,113.179390 333.061707,127.387436  M238.851212,163.708466   C233.362808,157.461075 226.646896,157.648254 219.653442,160.296280   C214.528091,162.236938 209.645248,164.856613 204.453583,166.562851   C202.630737,167.161926 199.333038,166.638046 198.315506,165.353836   C197.344254,164.128067 197.923325,160.981979 198.810333,159.162369   C199.776245,157.180939 201.598221,155.218567 203.544876,154.191895   C208.405014,151.628586 213.547302,149.600266 218.506866,147.388245   C214.230972,140.119614 212.600601,139.175812 205.235840,143.663422   C199.815369,146.966324 194.762802,151.312027 190.629318,156.123489   C188.146194,159.013885 186.751862,163.651306 186.595871,167.572327   C186.181076,177.999207 195.950302,184.192169 206.579224,180.509888   C212.220856,178.555389 217.535736,175.644394 223.199326,173.774628   C224.942627,173.199097 228.105499,173.997467 229.242584,175.335709   C230.376816,176.670578 230.588516,179.866501 229.765366,181.537430   C228.499115,184.107773 226.400116,186.784241 223.949127,188.150314   C218.324402,191.285355 212.273804,193.656265 206.543991,196.269913   C212.080521,204.025208 210.654175,204.488861 220.797836,199.868347   C228.463364,196.376602 235.057373,191.250992 239.472595,183.849655   C243.348511,177.352371 244.235992,170.769348 238.851212,163.708466  M813.137817,290.291534   C807.690002,285.667938 801.655579,284.153259 795.117920,287.574951   C788.726990,290.919830 787.761719,296.998596 788.003662,303.442841   C788.091003,305.770325 788.431152,308.087280 788.607727,310.412689   C788.847412,313.567871 789.517029,316.794312 789.080994,319.859100   C788.805420,321.796143 787.213013,324.293518 785.536743,325.055237   C784.107483,325.704712 781.310547,324.739716 779.854187,323.571716   C778.135803,322.193573 776.987183,319.936981 775.978943,317.872040   C772.636047,311.026123 772.442444,303.851166 774.723511,296.029572   C771.665833,297.263550 769.174133,298.105957 766.856689,299.289520   C766.004822,299.724579 765.191162,300.889374 764.994141,301.851135   C762.887817,312.133911 770.203247,329.619385 778.975647,335.542694   C789.187378,342.437866 802.001099,336.489777 802.956665,324.208893   C803.289795,319.927856 802.690674,315.571167 802.470154,311.251404   C802.334351,308.591553 801.639648,305.856110 802.074951,303.304565   C802.415894,301.306274 803.777527,298.423401 805.289490,297.976593   C806.851318,297.514984 809.746582,299.035309 810.971680,300.561218   C812.782959,302.817078 814.263062,305.734863 814.753540,308.566650   C815.583374,313.358490 815.529297,318.303436 815.839722,323.074738   C824.244324,320.707886 825.080811,319.694458 823.732117,311.552948   C822.427551,303.678009 819.462219,296.525513 813.137817,290.291534  M721.920105,667.390930   C717.794250,671.675049 713.018005,675.510925 709.687622,680.343201   C704.000183,688.595642 704.608521,697.359314 710.146667,702.810486   C715.686096,708.263123 722.365112,708.131836 731.564453,702.335876   C735.224060,700.030151 738.647705,697.236633 742.542480,695.464050   C744.572388,694.540222 748.454041,694.381958 749.588501,695.623657   C751.028748,697.200012 751.429077,700.873474 750.641968,703.051514   C749.625305,705.864746 747.413391,708.677795 744.962830,710.448547   C740.286987,713.827576 735.078064,716.468994 730.215637,719.342468   C737.589294,726.325256 735.960266,727.340271 745.579041,720.522217   C750.476257,717.050964 754.791992,712.286804 758.214600,707.311829   C764.287964,698.483704 763.849731,689.711304 758.166138,683.929932   C752.089050,677.748352 745.039246,677.777222 735.028931,684.021423   C730.937805,686.573364 726.984436,689.407959 722.676331,691.517395   C721.126587,692.276245 718.191284,691.943115 716.872742,690.883423   C715.827759,690.043396 715.750854,687.187683 716.214844,685.492798   C716.759155,683.504272 717.974426,681.322205 719.564392,680.067993   C724.265808,676.359375 729.295288,673.066650 734.118103,669.666382   C728.868042,663.520569 728.868042,663.520569 721.920105,667.390930  M588.359558,800.786194   C593.470764,798.484680 589.230957,794.897217 590.131287,791.555481   C583.640381,793.802917 577.760986,795.838623 571.705750,797.935181   C570.159851,793.592102 568.783325,789.724854 567.289307,785.527466   C575.352905,782.616943 583.118713,779.813904 591.269470,776.871887   C589.433289,774.316895 587.845276,772.107239 586.276062,769.923767   C572.829468,774.721436 559.866760,779.346497 547.104492,783.900085   C559.529358,798.096436 560.401062,817.067871 568.800842,832.975647   C580.848206,828.660583 593.011047,824.304138 604.947632,820.028809   C604.947632,817.022278 604.947632,814.407410 604.947632,811.347534   C596.272217,814.378113 588.019531,817.261108 579.572449,820.211914   C577.806702,815.181213 576.180542,810.548096 574.488281,805.726685   C579.183838,804.036316 583.393677,802.520874 588.359558,800.786194  M633.258362,160.310242   C638.032532,162.109085 638.328674,157.000076 641.519592,155.483231   C633.314514,150.990692 625.645874,146.791870 617.819702,142.506790   C620.404053,137.787537 622.781372,133.446381 625.244690,128.948166   C630.437988,131.750046 635.369751,134.410828 640.205383,137.019745   C642.284119,135.076019 644.185181,133.298416 646.409973,131.218079   C640.404968,127.874321 634.814270,124.761284 629.080383,121.568497   C631.342651,117.573067 633.429138,113.888046 635.597412,110.058662   C643.257080,114.250275 650.450623,118.186844 657.999268,122.317688   C658.686584,119.169640 659.239258,116.638283 659.817688,113.989136   C647.281921,107.166786 635.026550,100.497070 623.107300,94.010246   C620.668030,112.985855 607.395508,126.257683 601.062195,142.794327   C611.592834,148.534988 622.087708,154.256165 633.258362,160.310242  M760.463928,238.013733   C758.947144,235.899109 757.430359,233.784485 755.851074,231.582779   C759.575806,228.871429 762.929260,226.430359 766.545837,223.797714   C771.505005,230.736359 776.362122,237.532242 781.434387,244.629044   C783.447449,242.001282 785.037476,239.925735 786.622742,237.856445   C778.304321,226.194855 770.245789,214.897644 762.219788,203.645950   C752.818970,220.563889 734.428528,226.074417 721.684387,238.551819   C729.189514,248.991104 736.732666,259.483368 744.334290,270.056915   C747.085999,269.035828 749.521484,268.132080 752.412537,267.059265   C747.052185,259.613953 741.965210,252.548233 736.742615,245.294205   C741.051025,242.218918 745.064880,239.353912 749.208923,236.395981   C752.770447,241.282364 756.076965,245.819016 759.469788,250.473923   C762.152710,249.431412 764.536499,248.505142 767.209167,247.466629   C764.919250,244.250839 762.903198,241.419617 760.463928,238.013733  M204.761063,695.135071   C203.511185,688.163269 199.919647,682.452515 195.047501,677.504333   C183.652863,665.931946 169.168884,665.110413 157.001892,675.262024   C144.567352,685.636902 142.742859,700.138733 152.547592,713.382996   C155.083252,716.808167 158.167892,720.148010 161.702469,722.447998   C169.912369,727.790283 169.415985,728.263306 175.950226,720.699524   C171.413483,717.877563 166.043976,715.683960 162.231842,711.915100   C155.413300,705.174011 156.283813,697.532776 163.503021,691.160645   C166.373352,688.627197 169.258286,686.104919 172.230377,683.693176   C178.323441,678.748901 184.355133,678.988892 190.192230,684.285095   C195.149185,688.782593 197.125565,694.563477 197.125839,702.157837   C200.043411,699.632202 202.251236,697.720947 204.761063,695.135071  M675.894226,192.586456   C682.453125,198.402924 689.012024,204.219376 695.563660,210.029404   C698.115479,208.384033 700.313171,206.967010 702.951111,205.266083   C696.626160,199.602798 690.600647,194.207596 684.373718,188.632080   C694.457703,177.249481 704.324646,166.111938 714.268005,154.888046   C709.318115,150.560333 704.779114,146.591873 699.587402,142.052765   C699.002014,153.145035 690.528198,158.062668 685.053162,164.918869   C679.510193,171.860214 673.360229,178.316864 667.424683,185.044159   C670.405640,187.696350 672.886719,189.903809 675.894226,192.586456  M111.029808,317.539764   C102.283371,314.017365 93.536942,310.494965 84.542976,306.872864   C82.100685,312.861755 79.818741,318.457428 77.650917,323.773285   C96.579437,323.860687 111.151924,335.890106 128.610077,340.126526   C132.360931,331.130188 136.197769,321.961334 140.006805,312.780945   C143.002594,305.560638 142.987366,305.554321 135.701660,300.945404   C132.603867,308.443298 129.529694,315.884003 126.329292,323.630249   C121.256287,321.620209 116.496307,319.734192 111.029808,317.539764  M226.216446,743.706360   C220.956085,751.160767 215.695709,758.615112 210.227707,766.363770   C220.554642,773.734070 230.643112,780.934265 240.819931,788.197510   C243.100937,786.338989 245.127533,784.687805 247.493195,782.760315   C240.595886,777.870056 234.023010,773.209839 227.173782,768.353638   C235.939987,756.011230 244.533600,743.911804 253.195236,731.716614   C247.734299,727.859680 242.776093,724.357849 238.264633,721.171509   C236.701828,725.400513 235.679291,729.394653 233.794098,732.928650   C231.853729,736.566101 229.072220,739.754761 226.216446,743.706360  M292.992157,809.443726   C292.291901,811.231750 291.591614,813.019836 290.818848,814.992920   C295.568451,816.996765 299.923431,818.834106 304.452881,820.745117   C311.498291,804.229614 318.326874,788.222412 325.353851,771.750122   C319.478729,769.275635 313.866180,766.911682 309.273895,764.977539   C307.654327,771.034912 306.674713,776.526794 304.711365,781.641052   C301.199402,790.789001 297.094635,799.709412 292.992157,809.443726  z" data-index="2" style="opacity: 1;"/>
<path fill="#3B8DDE" opacity="1.000000" stroke="none" d=" M178.666290,304.687805   C227.339523,218.713486 299.459778,164.336166 396.310425,146.740097   C499.540436,127.985008 590.927429,155.645172 667.782227,227.327057   C720.283691,276.294769 751.716858,337.294922 761.480225,408.398773   C774.118286,500.438904 750.630066,583.034119 690.863464,654.314148   C643.447998,710.863708 582.775208,746.499329 510.089172,759.380127   C413.618652,776.475769 326.696106,753.625305 251.461243,690.641602   C195.020859,643.391907 160.001480,582.699097 146.564178,510.285156   C133.211288,438.326141 144.119415,369.747040 178.666290,304.687805  M222.438614,644.059509   C277.666595,708.921448 347.674316,745.375793 432.648499,751.637695   C491.232391,755.954712 546.469849,743.302185 598.104553,714.989868   C709.760132,653.766968 771.105469,524.672302 747.672607,399.500427   C734.937134,331.470856 703.069580,273.833954 650.816895,228.489120   C578.307251,165.565262 493.791565,142.377853 399.345184,158.587158   C330.774475,170.355576 273.090607,203.403656 227.691589,256.097656   C165.284653,328.532471 142.729309,412.758392 158.541550,506.863190   C167.135071,558.006531 189.104996,603.408875 222.438614,644.059509  z" data-index="3" style="opacity: 1;"/>
<path fill="#FAFAFB" opacity="1.000000" stroke="none" d=" M667.461914,727.586975   C680.650330,730.813538 684.198853,741.530090 676.548340,754.798035   C684.188660,757.653137 691.776306,760.488586 700.270020,763.662598   C695.259827,767.153198 690.772827,770.429260 686.089722,773.395630   C685.302246,773.894531 683.589661,773.251465 682.436157,772.799927   C676.862427,770.618347 671.390625,768.160339 665.752747,766.168213   C664.140381,765.598511 662.092773,766.260376 659.316467,766.406250   C663.776733,772.851990 667.439514,778.145264 671.252075,783.655029   C667.290894,786.468872 663.510498,789.154358 659.160156,792.244629   C654.062744,784.891968 649.173950,777.469055 643.896851,770.333252   C638.668335,763.263123 635.449646,754.244141 624.460144,751.119080   C636.161194,743.382690 646.639893,736.165405 657.462708,729.507446   C660.083191,727.895325 663.839355,728.129395 667.461914,727.586975  M655.140015,760.055420   C659.247620,757.382996 663.441284,754.827698 667.383850,751.930725   C668.098145,751.405823 668.147461,749.400391 667.885925,748.214722   C665.922485,739.313171 659.761719,736.917480 652.287231,742.046265   C650.144348,743.516663 648.019897,745.013855 645.705078,746.625427   C648.882629,751.119751 651.835327,755.296021 655.140015,760.055420  z" data-index="4"/>
<path fill="#FCFDFD" opacity="1.000000" stroke="none" d=" M479.246185,110.044632   C470.740601,111.690300 464.747009,108.800636 459.781006,101.396065   C454.075989,92.889595 447.068298,85.256805 440.144257,76.697792   C439.467926,75.386818 439.273804,74.622581 439.079681,73.858337   C438.419861,74.248573 437.760040,74.638809 437.100220,75.029045   C437.100220,86.690552 437.100220,98.352058 437.100220,110.013565   C434.220795,110.022331 431.341400,110.031105 428.024200,109.544479   C427.640625,98.629631 427.758759,88.209892 427.713928,77.790863   C427.698456,74.191383 427.277649,70.593643 427.041962,66.995110   C426.138458,63.743427 425.234924,60.491745 424.189056,56.727711   C429.834473,56.727711 435.564850,56.562748 441.272400,56.850739   C442.598633,56.917660 444.124725,58.298218 445.086975,59.463863   C452.259460,68.152267 459.313110,76.938728 466.771912,86.131592   C467.677063,87.088890 468.214355,87.609047 468.855652,88.346039   C469.148560,88.360649 469.337433,88.158424 469.606323,87.591446   C469.763306,77.147011 469.840271,67.067329 469.917236,56.987656   C472.874847,56.989223 475.832458,56.990788 479.228638,57.505333   C479.526855,75.360420 479.386536,92.702522 479.246185,110.044632  z" data-index="5"/>
<path fill="#FAFAFB" opacity="1.000000" stroke="none" d=" M148.776276,208.763626   C165.669144,207.184845 181.052383,220.020538 181.399445,235.581818   C181.765564,251.996719 166.699432,267.682983 151.164536,267.061279   C140.237274,266.623932 128.678299,258.091583 124.910912,247.681946   C121.115082,237.193802 125.063728,223.792816 135.243805,215.516968   C138.969513,212.488190 143.955963,211.010223 148.776276,208.763626  M138.123123,243.316986   C142.587982,246.508316 146.915115,249.918304 151.551132,252.837875   C157.935928,256.858765 164.118134,255.359940 168.480560,249.153641   C172.862778,242.919220 172.080795,236.800095 166.043152,232.039627   C162.257721,229.054947 158.297272,226.278870 154.301788,223.577133   C147.843292,219.209946 141.863586,219.799576 137.343262,225.073578   C132.157669,231.123764 132.223053,236.736053 138.123123,243.316986  z" data-index="6"/>
<path fill="#F9FAFB" opacity="1.000000" stroke="none" d=" M521.002319,94.288002   C525.642334,68.666672 551.659058,59.499428 571.831543,75.834923   C576.736206,79.806656 571.879578,83.294197 572.087524,85.872353   C567.084290,83.202934 562.109436,79.592712 556.548645,77.802971   C547.937561,75.031479 541.997742,78.857986 539.497681,87.506096   C538.297546,91.657249 537.078857,95.817719 536.192810,100.041977   C534.207397,109.507118 541.840027,117.840126 551.463501,116.713120   C552.397095,116.603790 553.647644,115.360992 553.952515,114.392815   C555.242432,110.298004 556.230286,106.108032 557.410706,101.641685   C554.375000,100.682167 551.591675,99.802444 548.410950,98.797096   C549.812439,96.407921 551.042847,94.310417 552.533081,91.769829   C559.687256,93.673477 566.827759,95.573502 574.401001,97.588684   C572.244446,105.782310 570.269836,113.649101 568.014648,121.434624   C567.699280,122.523346 566.129395,123.715874 564.931274,124.010368   C551.003540,127.433807 538.493042,124.505341 527.927795,114.758553   C522.181946,109.457794 520.313904,102.446022 521.002319,94.288002  z" data-index="7"/>
<path fill="#FAFAFB" opacity="1.000000" stroke="none" d=" M509.894409,809.521545   C510.823822,823.515625 504.573059,830.828918 490.963989,832.143738   C487.021637,832.524597 483.074951,832.860901 478.751312,833.251892   C479.154022,838.438049 479.535339,843.348328 479.958801,848.801331   C475.084351,849.280823 470.384644,849.743164 465.726685,850.201355   C461.544006,832.659485 465.755676,814.070923 456.974396,796.805359   C469.195129,796.132996 481.382080,794.955261 493.568390,794.962158   C502.369049,794.967102 507.214478,799.928955 509.894409,809.521545  M494.157654,810.584656   C493.029968,802.484558 489.001099,800.962280 476.474335,804.146362   C477.050873,810.937012 477.632874,817.792114 478.242798,824.975891   C482.077087,824.585876 485.527679,824.402283 488.916992,823.845581   C492.720062,823.220886 494.642822,820.738159 494.600739,816.878540   C494.580902,815.060913 494.345184,813.245605 494.157654,810.584656  z" data-index="8"/>
<path fill="#F9FAFB" opacity="1.000000" stroke="none" d=" M364.311340,822.208618   C365.532776,815.559265 367.058167,809.373962 367.701355,803.098267   C368.259125,797.656067 367.817322,792.111328 367.817322,786.249023   C378.136353,788.174866 389.316803,789.795044 400.251862,792.432434   C411.393250,795.119507 416.509430,803.242920 414.675995,813.492432   C412.744354,824.290894 405.490936,829.877563 393.891602,829.053345   C388.953094,828.702393 384.066620,827.619263 378.709991,826.800659   C377.764862,831.829102 376.854492,836.672791 375.840210,842.069092   C371.107788,841.216003 366.454010,840.377075 361.316162,839.450867   C362.322235,833.648621 363.277222,828.140991 364.311340,822.208618  M398.256439,814.519897   C400.924469,800.983582 400.065826,799.763367 386.525818,797.897156   C385.741852,797.789001 384.945740,797.768799 383.770355,797.677979   C382.501831,804.675964 381.274872,811.444885 379.998749,818.484924   C383.512299,819.153320 386.578522,819.796570 389.666443,820.309387   C393.845886,821.003540 396.834900,819.578796 398.256439,814.519897  z" data-index="9"/>
<path fill="#F9FAFA" opacity="1.000000" stroke="none" d=" M333.117706,126.953003   C335.000946,113.179390 337.098175,99.868248 338.488373,86.483665   C338.897217,82.547501 337.302856,78.403267 336.538940,73.829803   C341.241547,72.514130 347.246490,70.715042 353.330719,69.243912   C354.399811,68.985420 356.256897,69.735207 356.980927,70.636932   C368.416473,84.878380 379.726196,99.220886 391.398987,113.962364   C386.597107,115.325668 382.201019,116.743103 377.709259,117.721222   C376.680115,117.945328 375.035217,116.926170 374.172974,116.009537   C372.250336,113.965645 370.642944,111.625252 368.692719,109.131584   C361.015869,111.248222 353.333527,113.220139 345.779541,115.599426   C344.582184,115.976562 343.404114,118.099983 343.168671,119.568573   C341.787964,128.181015 341.883270,128.196289 333.061707,129.823883   C333.061707,128.978577 333.061707,128.182999 333.117706,126.953003  M353.455627,104.989853   C356.437683,104.141159 359.419708,103.292473 363.015076,102.269226   C357.870758,95.792671 353.059601,89.735580 347.523865,82.766258   C346.449463,91.776070 345.547180,99.342361 344.585754,107.404724   C347.871368,106.492424 350.263763,105.828156 353.455627,104.989853  z" data-index="10"/>
<path fill="#F8F9FA" opacity="1.000000" stroke="none" d=" M239.073700,164.002625   C244.235992,170.769348 243.348511,177.352371 239.472595,183.849655   C235.057373,191.250992 228.463364,196.376602 220.797836,199.868347   C210.654175,204.488861 212.080521,204.025208 206.543991,196.269913   C212.273804,193.656265 218.324402,191.285355 223.949127,188.150314   C226.400116,186.784241 228.499115,184.107773 229.765366,181.537430   C230.588516,179.866501 230.376816,176.670578 229.242584,175.335709   C228.105499,173.997467 224.942627,173.199097 223.199326,173.774628   C217.535736,175.644394 212.220856,178.555389 206.579224,180.509888   C195.950302,184.192169 186.181076,177.999207 186.595871,167.572327   C186.751862,163.651306 188.146194,159.013885 190.629318,156.123489   C194.762802,151.312027 199.815369,146.966324 205.235840,143.663422   C212.600601,139.175812 214.230972,140.119614 218.506866,147.388245   C213.547302,149.600266 208.405014,151.628586 203.544876,154.191895   C201.598221,155.218567 199.776245,157.180939 198.810333,159.162369   C197.923325,160.981979 197.344254,164.128067 198.315506,165.353836   C199.333038,166.638046 202.630737,167.161926 204.453583,166.562851   C209.645248,164.856613 214.528091,162.236938 219.653442,160.296280   C226.646896,157.648254 233.362808,157.461075 239.073700,164.002625  z" data-index="11"/>
<path fill="#F9F9FA" opacity="1.000000" stroke="none" d=" M813.398926,290.541748   C819.462219,296.525513 822.427551,303.678009 823.732117,311.552948   C825.080811,319.694458 824.244324,320.707886 815.839722,323.074738   C815.529297,318.303436 815.583374,313.358490 814.753540,308.566650   C814.263062,305.734863 812.782959,302.817078 810.971680,300.561218   C809.746582,299.035309 806.851318,297.514984 805.289490,297.976593   C803.777527,298.423401 802.415894,301.306274 802.074951,303.304565   C801.639648,305.856110 802.334351,308.591553 802.470154,311.251404   C802.690674,315.571167 803.289795,319.927856 802.956665,324.208893   C802.001099,336.489777 789.187378,342.437866 778.975647,335.542694   C770.203247,329.619385 762.887817,312.133911 764.994141,301.851135   C765.191162,300.889374 766.004822,299.724579 766.856689,299.289520   C769.174133,298.105957 771.665833,297.263550 774.723511,296.029572   C772.442444,303.851166 772.636047,311.026123 775.978943,317.872040   C776.987183,319.936981 778.135803,322.193573 779.854187,323.571716   C781.310547,324.739716 784.107483,325.704712 785.536743,325.055237   C787.213013,324.293518 788.805420,321.796143 789.080994,319.859100   C789.517029,316.794312 788.847412,313.567871 788.607727,310.412689   C788.431152,308.087280 788.091003,305.770325 788.003662,303.442841   C787.761719,296.998596 788.726990,290.919830 795.117920,287.574951   C801.655579,284.153259 807.690002,285.667938 813.398926,290.541748  z" data-index="12"/>
<path fill="#F9F9FA" opacity="1.000000" stroke="none" d=" M722.221069,667.197510   C728.868042,663.520569 728.868042,663.520569 734.118103,669.666382   C729.295288,673.066650 724.265808,676.359375 719.564392,680.067993   C717.974426,681.322205 716.759155,683.504272 716.214844,685.492798   C715.750854,687.187683 715.827759,690.043396 716.872742,690.883423   C718.191284,691.943115 721.126587,692.276245 722.676331,691.517395   C726.984436,689.407959 730.937805,686.573364 735.028931,684.021423   C745.039246,677.777222 752.089050,677.748352 758.166138,683.929932   C763.849731,689.711304 764.287964,698.483704 758.214600,707.311829   C754.791992,712.286804 750.476257,717.050964 745.579041,720.522217   C735.960266,727.340271 737.589294,726.325256 730.215637,719.342468   C735.078064,716.468994 740.286987,713.827576 744.962830,710.448547   C747.413391,708.677795 749.625305,705.864746 750.641968,703.051514   C751.429077,700.873474 751.028748,697.200012 749.588501,695.623657   C748.454041,694.381958 744.572388,694.540222 742.542480,695.464050   C738.647705,697.236633 735.224060,700.030151 731.564453,702.335876   C722.365112,708.131836 715.686096,708.263123 710.146667,702.810486   C704.608521,697.359314 704.000183,688.595642 709.687622,680.343201   C713.018005,675.510925 717.794250,671.675049 722.221069,667.197510  z" data-index="13"/>
<path fill="#F9F9FA" opacity="1.000000" stroke="none" d=" M587.981506,800.895752   C583.393677,802.520874 579.183838,804.036316 574.488281,805.726685   C576.180542,810.548096 577.806702,815.181213 579.572449,820.211914   C588.019531,817.261108 596.272217,814.378113 604.947632,811.347534   C604.947632,814.407410 604.947632,817.022278 604.947632,820.028809   C593.011047,824.304138 580.848206,828.660583 568.800842,832.975647   C560.401062,817.067871 559.529358,798.096436 547.104492,783.900085   C559.866760,779.346497 572.829468,774.721436 586.276062,769.923767   C587.845276,772.107239 589.433289,774.316895 591.269470,776.871887   C583.118713,779.813904 575.352905,782.616943 567.289307,785.527466   C568.783325,789.724854 570.159851,793.592102 571.705750,797.935181   C577.760986,795.838623 583.640381,793.802917 590.131287,791.555481   C589.230957,794.897217 593.470764,798.484680 587.981506,800.895752  z" data-index="14"/>
<path fill="#F9FAFA" opacity="1.000000" stroke="none" d=" M632.920471,160.143799   C622.087708,154.256165 611.592834,148.534988 601.062195,142.794327   C607.395508,126.257683 620.668030,112.985855 623.107300,94.010246   C635.026550,100.497070 647.281921,107.166786 659.817688,113.989136   C659.239258,116.638283 658.686584,119.169640 657.999268,122.317688   C650.450623,118.186844 643.257080,114.250275 635.597412,110.058662   C633.429138,113.888046 631.342651,117.573067 629.080383,121.568497   C634.814270,124.761284 640.404968,127.874321 646.409973,131.218079   C644.185181,133.298416 642.284119,135.076019 640.205383,137.019745   C635.369751,134.410828 630.437988,131.750046 625.244690,128.948166   C622.781372,133.446381 620.404053,137.787537 617.819702,142.506790   C625.645874,146.791870 633.314514,150.990692 641.519592,155.483231   C638.328674,157.000076 638.032532,162.109085 632.920471,160.143799  z" data-index="15"/>
<path fill="#F9FAFB" opacity="1.000000" stroke="none" d=" M760.675537,238.301071   C762.903198,241.419617 764.919250,244.250839 767.209167,247.466629   C764.536499,248.505142 762.152710,249.431412 759.469788,250.473923   C756.076965,245.819016 752.770447,241.282364 749.208923,236.395981   C745.064880,239.353912 741.051025,242.218918 736.742615,245.294205   C741.965210,252.548233 747.052185,259.613953 752.412537,267.059265   C749.521484,268.132080 747.085999,269.035828 744.334290,270.056915   C736.732666,259.483368 729.189514,248.991104 721.684387,238.551819   C734.428528,226.074417 752.818970,220.563889 762.219788,203.645950   C770.245789,214.897644 778.304321,226.194855 786.622742,237.856445   C785.037476,239.925735 783.447449,242.001282 781.434387,244.629044   C776.362122,237.532242 771.505005,230.736359 766.545837,223.797714   C762.929260,226.430359 759.575806,228.871429 755.851074,231.582779   C757.430359,233.784485 758.947144,235.899109 760.675537,238.301071  z" data-index="16"/>
<path fill="#F8F9FA" opacity="1.000000" stroke="none" d=" M204.610062,695.472412   C202.251236,697.720947 200.043411,699.632202 197.125839,702.157837   C197.125565,694.563477 195.149185,688.782593 190.192230,684.285095   C184.355133,678.988892 178.323441,678.748901 172.230377,683.693176   C169.258286,686.104919 166.373352,688.627197 163.503021,691.160645   C156.283813,697.532776 155.413300,705.174011 162.231842,711.915100   C166.043976,715.683960 171.413483,717.877563 175.950226,720.699524   C169.415985,728.263306 169.912369,727.790283 161.702469,722.447998   C158.167892,720.148010 155.083252,716.808167 152.547592,713.382996   C142.742859,700.138733 144.567352,685.636902 157.001892,675.262024   C169.168884,665.110413 183.652863,665.931946 195.047501,677.504333   C199.919647,682.452515 203.511185,688.163269 204.610062,695.472412  z" data-index="17"/>
<path fill="#F9FAFB" opacity="1.000000" stroke="none" d=" M675.630981,192.348877   C672.886719,189.903809 670.405640,187.696350 667.424683,185.044159   C673.360229,178.316864 679.510193,171.860214 685.053162,164.918869   C690.528198,158.062668 699.002014,153.145035 699.587402,142.052765   C704.779114,146.591873 709.318115,150.560333 714.268005,154.888046   C704.324646,166.111938 694.457703,177.249481 684.373718,188.632080   C690.600647,194.207596 696.626160,199.602798 702.951111,205.266083   C700.313171,206.967010 698.115479,208.384033 695.563660,210.029404   C689.012024,204.219376 682.453125,198.402924 675.630981,192.348877  z" data-index="18"/>
<path fill="#F9FAFA" opacity="1.000000" stroke="none" d=" M111.383072,317.693970   C116.496307,319.734192 121.256287,321.620209 126.329292,323.630249   C129.529694,315.884003 132.603867,308.443298 135.701660,300.945404   C142.987366,305.554321 143.002594,305.560638 140.006805,312.780945   C136.197769,321.961334 132.360931,331.130188 128.610077,340.126526   C111.151924,335.890106 96.579437,323.860687 77.650917,323.773285   C79.818741,318.457428 82.100685,312.861755 84.542976,306.872864   C93.536942,310.494965 102.283371,314.017365 111.383072,317.693970  z" data-index="19" style="opacity: 1;"/>
<path fill="#F9FAFB" opacity="1.000000" stroke="none" d=" M226.437607,743.423096   C229.072220,739.754761 231.853729,736.566101 233.794098,732.928650   C235.679291,729.394653 236.701828,725.400513 238.264633,721.171509   C242.776093,724.357849 247.734299,727.859680 253.195236,731.716614   C244.533600,743.911804 235.939987,756.011230 227.173782,768.353638   C234.023010,773.209839 240.595886,777.870056 247.493195,782.760315   C245.127533,784.687805 243.100937,786.338989 240.819931,788.197510   C230.643112,780.934265 220.554642,773.734070 210.227707,766.363770   C215.695709,758.615112 220.956085,751.160767 226.437607,743.423096  z" data-index="20"/>
<path fill="#FAFAFB" opacity="1.000000" stroke="none" d=" M293.114899,809.084351   C297.094635,799.709412 301.199402,790.789001 304.711365,781.641052   C306.674713,776.526794 307.654327,771.034912 309.273895,764.977539   C313.866180,766.911682 319.478729,769.275635 325.353851,771.750122   C318.326874,788.222412 311.498291,804.229614 304.452881,820.745117   C299.923431,818.834106 295.568451,816.996765 290.818848,814.992920   C291.591614,813.019836 292.291901,811.231750 293.114899,809.084351  z" data-index="21"/>
<path fill="#000729" opacity="1.000000" stroke="none" d=" M426.734283,67.280327   C427.277649,70.593643 427.698456,74.191383 427.713928,77.790863   C427.758759,88.209892 427.640625,98.629631 427.612000,109.476784   C427.102142,109.171509 426.098694,108.437248 426.100708,107.705765   C426.137482,94.325493 426.294830,80.945557 426.734283,67.280327  z" data-index="22"/>
<path fill="#01092A" opacity="1.000000" stroke="none" d=" M468.751648,88.129196   C468.214355,87.609047 467.677063,87.088890 467.069092,86.286453   C467.332245,78.248421 467.609131,70.489494 468.041473,62.739246   C468.144836,60.886574 468.766266,59.062805 469.533325,57.106697   C469.840271,67.067329 469.763306,77.147011 469.403137,87.591957   C469.119904,87.957230 468.751648,88.129196 468.751648,88.129196  z" data-index="23"/>
<path fill="#000729" opacity="1.000000" stroke="none" d=" M479.608582,109.890350   C479.386536,92.702522 479.526855,75.360420 479.661133,57.556190   C480.104401,58.226456 480.938843,59.356792 480.944916,60.491535   C481.027588,76.046646 481.012207,91.602440 480.948883,107.157776   C480.945374,108.018517 480.311462,108.876701 479.608582,109.890350  z" data-index="24"/>
<path fill="#010728" opacity="1.000000" stroke="none" d=" M437.478546,109.882751   C437.100220,98.352058 437.100220,86.690552 437.100220,75.029045   C437.760040,74.638809 438.419861,74.248573 439.079681,73.858337   C439.273804,74.622581 439.467926,75.386818 439.838623,76.555389   C439.677734,80.392715 439.139862,83.820305 439.047241,87.259903   C438.885956,93.248329 439.073914,99.245750 438.945343,105.235756   C438.912933,106.748238 438.237061,108.246918 437.478546,109.882751  z" data-index="25"/>
<path fill="#FEFEFE" opacity="1.000000" stroke="none" d=" M222.204514,643.790771   C189.104996,603.408875 167.135071,558.006531 158.541550,506.863190   C142.729309,412.758392 165.284653,328.532471 227.691589,256.097656   C273.090607,203.403656 330.774475,170.355576 399.345184,158.587158   C493.791565,142.377853 578.307251,165.565262 650.816895,228.489120   C703.069580,273.833954 734.937134,331.470856 747.672607,399.500427   C771.105469,524.672302 709.760132,653.766968 598.104553,714.989868   C546.469849,743.302185 491.232391,755.954712 432.648499,751.637695   C347.674316,745.375793 277.666595,708.921448 222.204514,643.790771  M372.034790,342.741791   C371.875763,342.842651 371.769379,342.983337 371.394012,343.262054   C371.394012,343.262054 371.196106,343.533936 370.703308,343.788330   C370.015503,344.390656 369.327698,344.992981 368.996582,345.971771   C368.874146,345.849915 368.751709,345.728027 367.975800,345.852203   C364.106110,348.128448 360.236450,350.404724 355.854797,352.982147   C365.555328,352.982147 374.272675,352.982147 383.917999,353.134735   C439.164917,352.911774 494.411835,352.688782 550.207031,352.463593   C539.767883,347.075226 529.327209,341.433319 525.795837,328.404236   C525.568542,327.590057 525.341248,326.775848 525.220764,325.232849   C525.183655,324.498749 525.146545,323.764648 525.379456,322.433838   C524.375244,321.686523 523.374878,320.293030 522.366272,320.287079   C501.068146,320.161316 479.769135,320.191925 458.109863,320.191925   C457.454376,322.925140 456.842102,325.478180 455.946228,328.780914   C455.414825,330.583374 454.883392,332.385834 454.351990,334.188293   C453.929565,334.130463 453.507111,334.072662 453.084656,334.014862   C453.084656,288.770508 453.084656,243.526169 453.084656,198.292801   C309.198700,197.622818 200.484589,317.054474 198.844681,442.828369   C216.440323,440.090302 233.991226,437.359161 251.458481,434.641052   C259.106628,335.593109 343.326233,259.319427 430.630432,252.600189   C433.145172,262.166840 435.671143,271.776215 438.324646,281.870667   C429.269928,281.870667 420.677521,281.870667 412.853729,281.870667   C411.018311,287.440918 409.968414,292.719635 407.575745,297.296356   C405.215546,301.810974 401.496277,305.615112 399.716705,307.960480   C413.048401,307.960480 428.929169,307.960480 445.134064,307.960480   C446.054962,311.845520 447.050140,316.043793 447.109772,320.367798   C427.844574,320.369659 408.579346,320.353577 389.314240,320.395782   C386.868225,320.401154 384.422882,320.711304 381.350616,321.086639   C381.345306,321.717285 381.339996,322.347931 381.204193,323.768890   C381.226471,324.834259 381.248718,325.899597 380.972961,327.650421   C380.646912,329.100128 380.320862,330.549835 379.545319,332.476929   C378.886230,333.853546 378.227142,335.230194 377.910461,336.964722   C377.910461,336.964722 377.546967,336.628174 377.077881,336.944916   C376.554565,337.722870 376.031250,338.500824 375.302979,339.455109   C375.302979,339.455109 375.204681,339.707001 374.935883,339.817383   C374.768280,339.936523 374.667603,340.097504 374.412628,340.433044   C374.412628,340.433044 374.288086,340.659027 373.966766,340.802826   C373.766022,340.948608 373.643799,341.143616 373.480225,341.502930   C373.480225,341.502930 373.368683,341.626251 373.033661,341.751129   C372.822662,341.887421 372.685730,342.077179 372.415558,342.448090   C372.415558,342.448090 372.290039,342.656677 372.034790,342.741791  M198.218781,453.889099   C198.247650,454.582977 198.276505,455.276855 198.149017,456.876190   C198.424500,461.587982 198.699982,466.299774 198.794296,471.754150   C198.894287,472.506378 198.994278,473.258575 198.965652,474.835388   C199.199844,476.947845 199.434036,479.060272 199.734161,482.039948   C200.597672,488.139893 201.089645,494.319672 202.380295,500.327850   C222.297150,593.044067 276.296478,657.136902 364.385529,692.234436   C383.145477,699.708984 402.740448,704.429688 423.709198,706.409302   C433.137421,706.901428 442.565643,707.393494 452.704437,707.798462   C452.742310,706.873657 452.780182,705.948792 452.986664,704.097107   C452.992920,657.996704 452.995453,611.896362 453.006409,565.795959   C453.018463,515.203186 453.038239,464.610382 453.900574,413.928223   C454.310242,415.044922 454.971283,416.135742 455.089111,417.282410   C455.906555,425.236633 456.578064,433.205719 457.357117,441.164062   C462.274811,491.400024 467.203949,541.634888 472.140167,591.869019   C473.223663,602.895386 474.350922,613.917542 475.499390,625.353271   C476.912628,624.860840 477.822876,624.556335 478.724304,624.227722   C496.076355,617.900757 513.341309,611.316589 530.831970,605.399414   C535.964661,603.663086 537.376953,600.852966 537.167480,595.915833   C534.317017,595.915833 531.653015,596.041687 529.004272,595.894470   C516.332703,595.190308 503.672211,594.292480 492.223907,587.981201   C479.962524,581.221680 475.936096,569.949158 481.331604,557.043701   C482.988953,553.079590 484.924561,549.058350 487.552795,545.706360   C495.251404,535.887451 503.238464,526.285950 511.341156,516.794495   C524.203552,501.727509 537.426208,486.965179 550.142517,471.777679   C556.003052,464.778259 555.624329,464.457642 564.264648,467.161682   C564.538879,467.247528 564.754395,467.520874 565.278198,467.921783   C564.458923,469.277832 563.737549,470.741211 562.774170,472.022705   C556.572144,480.272736 550.316956,488.482849 544.079529,496.706360   C530.502258,514.606995 516.886963,532.479187 503.393677,550.442932   C501.593750,552.839233 500.412415,555.700134 498.620148,558.930786   C520.956543,556.911804 541.080139,551.088501 559.537964,540.019409   C561.288757,538.969482 562.830017,537.239380 563.929199,535.486816   C571.886414,522.800049 579.656311,509.995880 587.589111,497.293640   C591.185791,491.534424 593.852600,484.114990 599.070312,480.750336   C604.324036,477.362396 612.217590,478.058380 618.958069,476.987305   C646.908142,472.545959 674.859497,468.113068 703.682312,463.726746   C704.788269,463.422791 705.894165,463.118835 707.441528,462.796631   C707.441528,462.796631 707.692322,462.433838 707.692322,462.433838   C707.692322,462.433838 707.492004,462.040863 707.698669,461.271515   C707.698669,458.661804 707.698669,456.052094 707.698669,453.205475   C705.687744,453.205475 704.209717,453.205444 702.731750,453.205444   C664.458618,453.205444 626.185547,453.221039 587.912415,453.197693   C572.939331,453.188568 557.966309,453.092072 543.026489,452.269775   C544.007446,451.779236 544.939636,451.114471 545.976685,450.824524   C559.117676,447.149841 572.276367,443.538330 585.422485,439.882050   C586.901428,439.470703 588.331726,438.884308 589.784546,438.379089   C589.835693,437.963165 589.886841,437.547241 589.937988,437.131348   C585.738953,435.319977 581.544800,433.497040 577.340027,431.699036   C542.256958,416.696899 506.804443,402.761963 469.108215,395.663269   C462.476501,394.414490 455.443481,392.874817 448.930450,393.807098   C403.532379,400.305603 361.165741,416.618835 319.519409,435.049042   C318.191803,435.636536 317.150330,436.870575 315.379303,438.276459   C317.912476,439.047333 319.466522,439.558258 321.041443,439.993591   C333.872864,443.540344 346.719910,447.031647 359.524323,450.673065   C360.820953,451.041809 361.867615,452.289551 362.091431,453.198669   C309.482025,453.201965 256.872650,453.202393 204.263260,453.220398   C202.445480,453.221008 200.627762,453.397064 198.218781,453.889099  M323.163147,420.280792   C323.935272,419.970032 324.713837,419.674255 325.478607,419.346283   C360.120483,404.489929 395.373688,391.472534 432.574585,384.544006   C440.365479,383.092957 448.528229,380.975494 456.182617,381.913879   C490.112701,386.073486 522.348633,396.808075 554.021729,409.296265   C564.164795,413.295563 574.220947,417.515106 584.316895,421.633850   C584.665161,421.335449 585.013428,421.037079 585.361694,420.738678   C572.042664,406.021606 558.821045,391.247192 554.951233,370.192017   C555.340149,365.928772 553.205688,365.060730 549.257019,365.067810   C485.140656,365.182678 421.023865,365.203918 356.907745,365.038361   C352.115509,365.026001 350.547607,366.589691 350.928040,371.771301   C347.329498,389.204742 337.046417,402.700500 325.320709,415.367065   C324.039673,416.750885 323.090302,418.441772 321.678101,420.112457   C321.932343,420.193665 322.186554,420.274841 323.163147,420.280792  M689.681213,373.658325   C692.572388,368.260345 691.901123,363.196655 689.454163,357.603668   C651.368835,270.551514 585.832825,218.188232 492.234131,201.321854   C482.837158,199.628540 473.204163,199.244949 463.306549,198.214584   C465.711090,213.922302 467.965179,228.562820 470.189362,243.207870   C471.519226,251.964478 471.499451,251.957245 480.518433,253.050156   C482.501099,253.290421 484.479095,253.589447 486.446136,253.935822   C545.257019,264.291473 590.849792,294.659332 623.426208,344.610901   C624.321655,345.983948 624.520813,348.351044 624.058105,349.973236   C622.371033,355.887146 620.123047,361.640259 618.405945,367.546844   C617.912781,369.243134 618.496582,371.252502 619.081909,373.902191   C626.511780,374.013092 633.941833,374.231293 641.371399,374.212799   C657.239929,374.173309 673.108093,374.011230 689.681213,373.658325  M592.332825,666.857422   C637.204102,637.128845 669.868408,597.427429 690.350586,547.594727   C692.677979,541.932434 692.636719,537.191772 689.543030,531.900574   C666.887451,531.900574 644.079041,531.867188 621.270874,531.931152   C617.123901,531.942810 617.421631,534.866089 618.274658,537.579956   C620.019409,543.130920 621.744690,548.707703 623.913025,554.098877   C625.319641,557.596252 624.717468,560.227051 622.679688,563.257385   C593.082397,607.270935 552.822449,636.225464 501.297577,649.146790   C491.828705,651.521362 482.105286,652.881104 472.223602,654.761780   C469.526062,672.119324 466.802002,689.647522 463.996063,707.702454   C510.540649,705.569031 552.932678,692.142700 592.332825,666.857422  M470.867767,307.437256   C483.727478,307.437256 496.587219,307.437256 509.357513,307.437256   C500.225372,302.259033 494.462036,294.164551 494.901794,282.378967   C485.812958,282.378967 477.072296,282.378967 467.992249,282.378967   C465.899994,290.390961 463.779510,298.511047 461.459106,307.396667   C464.696716,307.396667 467.316925,307.396667 470.867767,307.437256  M513.507446,579.992310   C521.725525,581.248108 529.933472,582.580383 538.173157,583.673218   C539.344604,583.828613 541.433777,583.154907 541.805725,582.301514   C545.343689,574.183777 548.602417,565.944397 551.608215,558.558655   C534.301941,563.462402 516.723022,568.443420 499.086182,573.440796   C502.389923,577.459778 507.724915,578.299744 513.507446,579.992310  z" data-index="26" style="opacity: 1;"/>
<path fill="#0E2341" opacity="1.000000" stroke="none" d=" M654.963989,759.763916   C651.835327,755.296021 648.882629,751.119751 645.705078,746.625427   C648.019897,745.013855 650.144348,743.516663 652.287231,742.046265   C659.761719,736.917480 665.922485,739.313171 667.885925,748.214722   C668.147461,749.400391 668.098145,751.405823 667.383850,751.930725   C663.441284,754.827698 659.247620,757.382996 654.963989,759.763916  z" data-index="27"/>
<path fill="#0B2240" opacity="1.000000" stroke="none" d=" M468.855652,88.346031   C468.751648,88.129196 469.119904,87.957230 469.323120,87.956718   C469.337433,88.158424 469.148560,88.360649 468.855652,88.346031  z" data-index="28"/>
<path fill="#0C2340" opacity="1.000000" stroke="none" d=" M137.836700,243.084259   C132.223053,236.736053 132.157669,231.123764 137.343262,225.073578   C141.863586,219.799576 147.843292,219.209946 154.301788,223.577133   C158.297272,226.278870 162.257721,229.054947 166.043152,232.039627   C172.080795,236.800095 172.862778,242.919220 168.480560,249.153641   C164.118134,255.359940 157.935928,256.858765 151.551132,252.837875   C146.915115,249.918304 142.587982,246.508316 137.836700,243.084259  z" data-index="29" style="opacity: 1;"/>
<path fill="#0F2442" opacity="1.000000" stroke="none" d=" M494.182495,811.006958   C494.345184,813.245605 494.580902,815.060913 494.600739,816.878540   C494.642822,820.738159 492.720062,823.220886 488.916992,823.845581   C485.527679,824.402283 482.077087,824.585876 478.242798,824.975891   C477.632874,817.792114 477.050873,810.937012 476.474335,804.146362   C489.001099,800.962280 493.029968,802.484558 494.182495,811.006958  z" data-index="30"/>
<path fill="#0F2542" opacity="1.000000" stroke="none" d=" M398.168274,814.905945   C396.834900,819.578796 393.845886,821.003540 389.666443,820.309387   C386.578522,819.796570 383.512299,819.153320 379.998749,818.484924   C381.274872,811.444885 382.501831,804.675964 383.770355,797.677979   C384.945740,797.768799 385.741852,797.789001 386.525818,797.897156   C400.065826,799.763367 400.924469,800.983582 398.168274,814.905945  z" data-index="31"/>
<path fill="#112542" opacity="1.000000" stroke="none" d=" M353.055878,105.076866   C350.263763,105.828156 347.871368,106.492424 344.585754,107.404724   C345.547180,99.342361 346.449463,91.776070 347.523865,82.766258   C353.059601,89.735580 357.870758,95.792671 363.015076,102.269226   C359.419708,103.292473 356.437683,104.141159 353.055878,105.076866  z" data-index="32"/>
<path fill="#0B2341" opacity="1.000000" stroke="none" d=" M363.030273,453.129395   C361.867615,452.289551 360.820953,451.041809 359.524323,450.673065   C346.719910,447.031647 333.872864,443.540344 321.041443,439.993591   C319.466522,439.558258 317.912476,439.047333 315.379303,438.276459   C317.150330,436.870575 318.191803,435.636536 319.519409,435.049042   C361.165741,416.618835 403.532379,400.305603 448.930450,393.807098   C455.443481,392.874817 462.476501,394.414490 469.108215,395.663269   C506.804443,402.761963 542.256958,416.696899 577.340027,431.699036   C581.544800,433.497040 585.738953,435.319977 589.937988,437.131348   C589.886841,437.547241 589.835693,437.963165 589.784546,438.379089   C588.331726,438.884308 586.901428,439.470703 585.422485,439.882050   C572.276367,443.538330 559.117676,447.149841 545.976685,450.824524   C544.939636,451.114471 544.007446,451.779236 543.118103,453.042603   C545.044250,454.210297 546.878296,454.947845 548.713318,454.950134   C599.039062,455.012695 649.364929,455.000366 699.690735,455.000488   C701.626343,455.000488 703.561951,455.000458 704.984375,455.000458   C707.363281,459.319702 705.182861,461.530792 702.810425,463.677032   C674.859497,468.113068 646.908142,472.545959 618.958069,476.987305   C612.217590,478.058380 604.324036,477.362396 599.070312,480.750336   C593.852600,484.114990 591.185791,491.534424 587.589111,497.293640   C579.656311,509.995880 571.886414,522.800049 563.929199,535.486816   C562.830017,537.239380 561.288757,538.969482 559.537964,540.019409   C541.080139,551.088501 520.956543,556.911804 498.620148,558.930786   C500.412415,555.700134 501.593750,552.839233 503.393677,550.442932   C516.886963,532.479187 530.502258,514.606995 544.079529,496.706360   C550.316956,488.482849 556.572144,480.272736 562.774170,472.022705   C563.737549,470.741211 564.458923,469.277832 565.278198,467.921783   C564.754395,467.520874 564.538879,467.247528 564.264648,467.161682   C555.624329,464.457642 556.003052,464.778259 550.142517,471.777679   C537.426208,486.965179 524.203552,501.727509 511.341156,516.794495   C503.238464,526.285950 495.251404,535.887451 487.552795,545.706360   C484.924561,549.058350 482.988953,553.079590 481.331604,557.043701   C475.936096,569.949158 479.962524,581.221680 492.223907,587.981201   C503.672211,594.292480 516.332703,595.190308 529.004272,595.894470   C531.653015,596.041687 534.317017,595.915833 537.167480,595.915833   C537.376953,600.852966 535.964661,603.663086 530.831970,605.399414   C513.341309,611.316589 496.076355,617.900757 478.724304,624.227722   C477.822876,624.556335 476.912628,624.860840 475.499390,625.353271   C474.350922,613.917542 473.223663,602.895386 472.140167,591.869019   C467.203949,541.634888 462.274811,491.400024 457.357117,441.164062   C456.578064,433.205719 455.906555,425.236633 455.089111,417.282410   C454.971283,416.135742 454.310242,415.044922 453.076294,414.055023   C451.833832,416.170319 451.051208,418.158569 451.049927,420.147369   C450.989746,512.952637 450.997559,605.757996 450.997314,698.563293   C450.997314,699.896240 450.904572,701.236267 451.010895,702.560547   C451.222290,705.194458 450.008392,706.165527 447.472290,706.009155   C441.851379,705.662537 436.227631,705.262939 430.600189,705.166077   C428.062714,705.122314 425.513702,705.750366 422.969910,706.073608   C402.740448,704.429688 383.145477,699.708984 364.385529,692.234436   C276.296478,657.136902 222.297150,593.044067 202.380295,500.327850   C201.089645,494.319672 200.597672,488.139893 200.030609,481.371399   C200.874573,478.295593 202.578201,475.675354 199.094269,474.010803   C198.994278,473.258575 198.894287,472.506378 199.193176,471.097656   C199.728806,467.637878 199.962387,464.835327 199.983246,462.031158   C200.035477,455.003998 199.996841,455.001678 206.897339,455.001587   C257.111786,455.000946 307.326294,455.020935 357.540558,454.922302   C359.371643,454.918701 361.200409,453.753326 363.030273,453.129395  M258.239471,505.187927   C285.359985,604.996216 373.411865,650.955994 434.383820,653.458069   C433.173553,645.364502 431.820801,637.316284 430.832886,629.223633   C430.433655,625.953613 428.974945,624.432007 425.925018,623.340759   C409.322906,617.401001 392.876923,611.016113 376.204498,605.287109   C371.358002,603.621765 369.056305,601.137207 369.151886,595.714478   C371.436554,595.714478 373.737915,595.789856 376.033020,595.701843   C388.390686,595.228088 400.707153,594.297607 412.100830,588.916687   C426.388367,582.168945 431.105591,569.661499 424.384918,555.361023   C421.581635,549.395935 418.125641,543.490479 413.863220,538.500122   C392.812012,513.853882 371.391418,489.523071 349.635834,464.546844   C347.677460,465.138153 344.386353,466.131836 340.420654,467.329224   C346.888367,476.045837 352.932343,484.384979 359.178497,492.569885   C373.110443,510.825989 387.202881,528.959900 401.078644,547.258301   C403.494202,550.443787 405.169373,554.190674 407.622009,558.431213   C385.023590,556.232910 364.795746,550.229248 346.163422,539.188110   C344.824066,538.394470 343.727844,536.960999 342.882233,535.599182   C334.106903,521.466980 324.827545,507.603455 316.885773,493.013367   C311.477417,483.077545 304.702515,477.914062 293.103729,477.106720   C279.595886,476.166504 266.228210,473.212616 251.568878,470.941864   C253.835587,482.631073 255.945175,493.509949 258.239471,505.187927  z" data-index="33" style="opacity: 1;"/>
<path fill="#0B2341" opacity="1.000000" stroke="none" d=" M379.994812,331.999542   C380.320862,330.549835 380.646912,329.100128 381.477356,327.203461   C382.581329,325.313782 383.180939,323.871094 383.958099,322.001221   C385.594849,322.001221 387.392517,322.001251 389.190216,322.001251   C407.113007,322.001251 425.036163,322.048431 442.958099,321.924591   C444.657654,321.912872 446.349762,320.828491 448.045319,320.242126   C447.050140,316.043793 446.054962,311.845520 445.134064,307.960480   C428.929169,307.960480 413.048401,307.960480 399.716705,307.960480   C401.496277,305.615112 405.215546,301.810974 407.575745,297.296356   C409.968414,292.719635 411.018311,287.440918 412.853729,281.870667   C420.677521,281.870667 429.269928,281.870667 438.324646,281.870667   C435.671143,271.776215 433.145172,262.166840 430.630432,252.600189   C343.326233,259.319427 259.106628,335.593109 251.458481,434.641052   C233.991226,437.359161 216.440323,440.090302 198.844681,442.828369   C200.484589,317.054474 309.198700,197.622818 453.084656,198.292801   C453.084656,243.526169 453.084656,288.770508 453.084656,334.014862   C453.507111,334.072662 453.929565,334.130463 454.351990,334.188293   C454.883392,332.385834 455.414825,330.583374 456.425842,328.307556   C458.308960,322.315277 462.138824,321.684601 467.228149,321.776611   C484.442566,322.087830 501.666260,321.856964 518.885864,321.945312   C520.962219,321.955963 523.035034,322.652100 525.109497,323.030548   C525.146545,323.764648 525.183655,324.498749 524.933594,325.791260   C525.002563,327.245758 525.358643,328.141876 525.714661,329.038025   C529.327209,341.433319 539.767883,347.075226 550.207031,352.463593   C494.411835,352.688782 439.164917,352.911774 383.155151,352.769348   C375.860626,352.403992 369.328949,352.403992 362.091125,352.403992   C364.958191,349.423065 366.793732,347.514587 368.629272,345.606140   C368.751709,345.728027 368.874146,345.849915 369.181152,345.868652   C369.975861,345.021667 370.585999,344.277802 371.196106,343.533936   C371.196106,343.533936 371.394012,343.262054 371.755188,343.332214   C372.116333,343.402405 372.457764,343.089813 372.457764,343.089813   C372.457764,343.089813 372.290039,342.656677 372.290039,342.656677   C372.290039,342.656677 372.415558,342.448090 372.764679,342.462067   C373.198761,342.192780 373.283722,341.909515 373.368683,341.626251   C373.368683,341.626251 373.480225,341.502930 373.789032,341.505127   C374.161255,341.224579 374.224670,340.941803 374.288086,340.659027   C374.288086,340.659027 374.412628,340.433044 374.746307,340.452576   C375.079987,340.472107 375.410309,340.133850 375.410309,340.133850   C375.410309,340.133850 375.204681,339.707001 375.204681,339.707001   C375.204681,339.707001 375.302979,339.455109 375.756927,339.467743   C376.656219,338.529633 377.101593,337.578918 377.546967,336.628174   C377.546967,336.628174 377.910461,336.964722 378.081116,336.795563   C378.832764,335.084106 379.413757,333.541840 379.994812,331.999542  z" data-index="34" style="opacity: 1;"/>
<path fill="#0B2240" opacity="1.000000" stroke="none" d=" M592.021545,667.038940   C552.932678,692.142700 510.540649,705.569031 463.996063,707.702454   C466.802002,689.647522 469.526062,672.119324 472.223602,654.761780   C482.105286,652.881104 491.828705,651.521362 501.297577,649.146790   C552.822449,636.225464 593.082397,607.270935 622.679688,563.257385   C624.717468,560.227051 625.319641,557.596252 623.913025,554.098877   C621.744690,548.707703 620.019409,543.130920 618.274658,537.579956   C617.421631,534.866089 617.123901,531.942810 621.270874,531.931152   C644.079041,531.867188 666.887451,531.900574 689.543030,531.900574   C692.636719,537.191772 692.677979,541.932434 690.350586,547.594727   C669.868408,597.427429 637.204102,637.128845 592.021545,667.038940  z" data-index="35"/>
<path fill="#0B2240" opacity="1.000000" stroke="none" d=" M618.586548,373.118317   C618.496582,371.252502 617.912781,369.243134 618.405945,367.546844   C620.123047,361.640259 622.371033,355.887146 624.058105,349.973236   C624.520813,348.351044 624.321655,345.983948 623.426208,344.610901   C590.849792,294.659332 545.257019,264.291473 486.446136,253.935822   C484.479095,253.589447 482.501099,253.290421 480.518433,253.050156   C471.499451,251.957245 471.519226,251.964478 470.189362,243.207870   C467.965179,228.562820 465.711090,213.922302 463.306549,198.214584   C473.204163,199.244949 482.837158,199.628540 492.234131,201.321854   C585.832825,218.188232 651.368835,270.551514 689.454163,357.603668   C691.901123,363.196655 692.572388,368.260345 689.028076,373.493164   C665.112122,373.258118 641.849365,373.188232 618.586548,373.118317  z" data-index="36" style="opacity: 1;"/>
<path fill="#0C2341" opacity="1.000000" stroke="none" d=" M554.855347,371.019714   C558.821045,391.247192 572.042664,406.021606 585.361694,420.738678   C585.013428,421.037079 584.665161,421.335449 584.316895,421.633850   C574.220947,417.515106 564.164795,413.295563 554.021729,409.296265   C522.348633,396.808075 490.112701,386.073486 456.182617,381.913879   C448.528229,380.975494 440.365479,383.092957 432.574585,384.544006   C395.373688,391.472534 360.120483,404.489929 325.478607,419.346283   C324.713837,419.674255 323.935272,419.970032 322.688416,420.227112   C322.213715,420.173401 321.987091,419.990234 321.987091,419.990234   C323.090302,418.441772 324.039673,416.750885 325.320709,415.367065   C337.046417,402.700500 347.329498,389.204742 351.395996,371.289429   C353.047455,367.711639 355.152435,366.816650 358.554016,366.823517   C420.436066,366.948608 482.318451,366.909637 544.200745,366.926666   C548.243958,366.927765 552.769836,365.846283 554.855347,371.019714  z" data-index="37"/>
<path fill="#0E2442" opacity="1.000000" stroke="none" d=" M470.402466,307.416962   C467.316925,307.396667 464.696716,307.396667 461.459106,307.396667   C463.779510,298.511047 465.899994,290.390961 467.992249,282.378967   C477.072296,282.378967 485.812958,282.378967 494.901794,282.378967   C494.462036,294.164551 500.225372,302.259033 509.357513,307.437256   C496.587219,307.437256 483.727478,307.437256 470.402466,307.416962  z" data-index="38"/>
<path fill="#0F2542" opacity="1.000000" stroke="none" d=" M513.101685,579.922241   C507.724915,578.299744 502.389923,577.459778 499.086182,573.440796   C516.723022,568.443420 534.301941,563.462402 551.608215,558.558655   C548.602417,565.944397 545.343689,574.183777 541.805725,582.301514   C541.433777,583.154907 539.344604,583.828613 538.173157,583.673218   C529.933472,582.580383 521.725525,581.248108 513.101685,579.922241  z" data-index="39"/>
<path fill="#031A38" opacity="1.000000" stroke="none" d=" M423.339539,706.241455   C425.513702,705.750366 428.062714,705.122314 430.600189,705.166077   C436.227631,705.262939 441.851379,705.662537 447.472290,706.009155   C450.008392,706.165527 451.222290,705.194458 451.010895,702.560547   C450.904572,701.236267 450.997314,699.896240 450.997314,698.563293   C450.997559,605.757996 450.989746,512.952637 451.049927,420.147369   C451.051208,418.158569 451.833832,416.170319 452.653320,414.099701   C453.038239,464.610382 453.018463,515.203186 453.006409,565.795959   C452.995453,611.896362 452.992920,657.996704 452.675659,704.772888   C452.241028,706.260986 452.117432,707.073242 451.993866,707.885559   C442.565643,707.393494 433.137421,706.901428 423.339539,706.241455  z" data-index="40"/>
<path fill="#2B3A55" opacity="1.000000" stroke="none" d=" M554.903320,370.605865   C552.769836,365.846283 548.243958,366.927765 544.200745,366.926666   C482.318451,366.909637 420.436066,366.948608 358.554016,366.823517   C355.152435,366.816650 353.047455,367.711639 351.511108,370.914429   C350.547607,366.589691 352.115509,365.026001 356.907745,365.038361   C421.023865,365.203918 485.140656,365.182678 549.257019,365.067810   C553.205688,365.060730 555.340149,365.928772 554.903320,370.605865  z" data-index="41"/>
<path fill="#001030" opacity="1.000000" stroke="none" d=" M703.246338,463.701904   C705.182861,461.530792 707.363281,459.319702 704.984375,455.000458   C703.561951,455.000458 701.626343,455.000488 699.690735,455.000488   C649.364929,455.000366 599.039062,455.012695 548.713318,454.950134   C546.878296,454.947845 545.044250,454.210297 543.101440,453.425385   C557.966309,453.092072 572.939331,453.188568 587.912415,453.197693   C626.185547,453.221039 664.458618,453.205444 702.731750,453.205444   C704.209717,453.205444 705.687744,453.205475 707.698669,453.205475   C707.698669,456.052094 707.698669,458.661804 707.455444,461.740326   C707.065247,462.384308 706.994507,462.586212 707.000122,462.814850   C705.894165,463.118835 704.788269,463.422791 703.246338,463.701904  z" data-index="42"/>
<path fill="#001030" opacity="1.000000" stroke="none" d=" M362.560852,453.164032   C361.200409,453.753326 359.371643,454.918701 357.540558,454.922302   C307.326294,455.020935 257.111786,455.000946 206.897339,455.001587   C199.996841,455.001678 200.035477,455.003998 199.983246,462.031158   C199.962387,464.835327 199.728806,467.637878 199.283768,470.726379   C198.699982,466.299774 198.424500,461.587982 198.446594,456.172180   C198.766129,454.809204 198.788071,454.150269 198.809998,453.491333   C200.627762,453.397064 202.445480,453.221008 204.263260,453.220398   C256.872650,453.202393 309.482025,453.201965 362.560852,453.164032  z" data-index="43"/>
<path fill="#303B55" opacity="1.000000" stroke="none" d=" M525.244507,322.732178   C523.035034,322.652100 520.962219,321.955963 518.885864,321.945312   C501.666260,321.856964 484.442566,322.087830 467.228149,321.776611   C462.138824,321.684601 458.308960,322.315277 456.567657,327.932739   C456.842102,325.478180 457.454376,322.925140 458.109863,320.191925   C479.769135,320.191925 501.068146,320.161316 522.366272,320.287079   C523.374878,320.293030 524.375244,321.686523 525.244507,322.732178  z" data-index="44"/>
<path fill="#00082A" opacity="1.000000" stroke="none" d=" M447.577545,320.304962   C446.349762,320.828491 444.657654,321.912872 442.958099,321.924591   C425.036163,322.048431 407.113007,322.001251 389.190216,322.001251   C387.392517,322.001251 385.594849,322.001221 383.958099,322.001221   C383.180939,323.871094 382.581329,325.313782 381.626343,326.860718   C381.248718,325.899597 381.226471,324.834259 381.472351,323.169434   C381.819397,322.006714 381.898315,321.443451 381.977234,320.880219   C384.422882,320.711304 386.868225,320.401154 389.314240,320.395782   C408.579346,320.353577 427.844574,320.369659 447.577545,320.304962  z" data-index="45"/>
<path fill="#1A2643" opacity="1.000000" stroke="none" d=" M368.302551,345.729187   C366.793732,347.514587 364.958191,349.423065 362.091125,352.403992   C369.328949,352.403992 375.860626,352.403992 382.691162,352.693054   C374.272675,352.982147 365.555328,352.982147 355.854797,352.982147   C360.236450,350.404724 364.106110,348.128448 368.302551,345.729187  z" data-index="46"/>
<path fill="#000627" opacity="1.000000" stroke="none" d=" M618.834229,373.510254   C641.849365,373.188232 665.112122,373.258118 688.675659,373.613708   C673.108093,374.011230 657.239929,374.173309 641.371399,374.212799   C633.941833,374.231293 626.511780,374.013092 618.834229,373.510254  z" data-index="47"/>
<path fill="#001030" opacity="1.000000" stroke="none" d=" M199.029968,474.423096   C202.578201,475.675354 200.874573,478.295593 199.997650,480.937775   C199.434036,479.060272 199.199844,476.947845 199.029968,474.423096  z" data-index="48"/>
<path fill="#1A2643" opacity="1.000000" stroke="none" d=" M379.770050,332.238220   C379.413757,333.541840 378.832764,335.084106 377.909912,336.616608   C378.227142,335.230194 378.886230,333.853546 379.770050,332.238220  z" data-index="49"/>
<path fill="#303B55" opacity="1.000000" stroke="none" d=" M525.755249,328.721130   C525.358643,328.141876 525.002563,327.245758 524.880188,326.155640   C525.341248,326.775848 525.568542,327.590057 525.755249,328.721130  z" data-index="50"/>
<path fill="#1A2643" opacity="1.000000" stroke="none" d=" M370.949707,343.661133   C370.585999,344.277802 369.975861,345.021667 369.002808,345.680420   C369.327698,344.992981 370.015503,344.390656 370.949707,343.661133  z" data-index="51"/>
<path fill="#1A2643" opacity="1.000000" stroke="none" d=" M377.312439,336.786560   C377.101593,337.578918 376.656219,338.529633 375.859406,339.379578   C376.031250,338.500824 376.554565,337.722870 377.312439,336.786560  z" data-index="52"/>
<path fill="#0B2341" opacity="1.000000" stroke="none" d=" M452.349152,707.842041   C452.117432,707.073242 452.241028,706.260986 452.591309,705.236328   C452.780182,705.948792 452.742310,706.873657 452.349152,707.842041  z" data-index="53"/>
<path fill="#0B2341" opacity="1.000000" stroke="none" d=" M381.663940,320.983429   C381.898315,321.443451 381.819397,322.006714 381.537598,322.774261   C381.339996,322.347931 381.345306,321.717285 381.663940,320.983429  z" data-index="54"/>
<path fill="#0B2341" opacity="1.000000" stroke="none" d=" M198.514389,453.690216   C198.788071,454.150269 198.766129,454.809204 198.524780,455.719421   C198.276505,455.276855 198.247650,454.582977 198.514389,453.690216  z" data-index="55"/>
<path fill="#1A2643" opacity="1.000000" stroke="none" d=" M375.070282,339.762207   C375.204681,339.707001 375.410309,340.133850 375.410309,340.133850   C375.410309,340.133850 375.079987,340.472107 374.856934,340.386200   C374.667603,340.097504 374.768280,339.936523 375.070282,339.762207  z" data-index="56"/>
<path fill="#1A2643" opacity="1.000000" stroke="none" d=" M374.127411,340.730927   C374.224670,340.941803 374.161255,341.224579 373.848999,341.447571   C373.643799,341.143616 373.766022,340.948608 374.127411,340.730927  z" data-index="57"/>
<path fill="#1A2643" opacity="1.000000" stroke="none" d=" M373.201172,341.688690   C373.283722,341.909515 373.198761,342.192780 372.868286,342.398193   C372.685730,342.077179 372.822662,341.887421 373.201172,341.688690  z" data-index="58"/>
<path fill="#0B2341" opacity="1.000000" stroke="none" d=" M707.220825,462.805725   C706.994507,462.586212 707.065247,462.384308 707.352112,462.125000   C707.492004,462.040863 707.692322,462.433838 707.692322,462.433838   C707.692322,462.433838 707.441528,462.796631 707.220825,462.805725  z" data-index="59"/>
<path fill="#1A2643" opacity="1.000000" stroke="none" d=" M372.162415,342.699219   C372.290039,342.656677 372.457764,343.089813 372.457764,343.089813   C372.457764,343.089813 372.116333,343.402405 371.915955,343.283081   C371.769379,342.983337 371.875763,342.842651 372.162415,342.699219  z" data-index="60"/>
<path fill="#0C2341" opacity="1.000000" stroke="none" d=" M322.327271,420.264709   C322.186554,420.274841 321.932343,420.193665 321.832581,420.051331   C321.987091,419.990234 322.213715,420.173401 322.327271,420.264709  z" data-index="61"/>
<path fill="#FDFDFD" opacity="1.000000" stroke="none" d=" M258.147095,504.788391   C255.945175,493.509949 253.835587,482.631073 251.568878,470.941864   C266.228210,473.212616 279.595886,476.166504 293.103729,477.106720   C304.702515,477.914062 311.477417,483.077545 316.885773,493.013367   C324.827545,507.603455 334.106903,521.466980 342.882233,535.599182   C343.727844,536.960999 344.824066,538.394470 346.163422,539.188110   C364.795746,550.229248 385.023590,556.232910 407.622009,558.431213   C405.169373,554.190674 403.494202,550.443787 401.078644,547.258301   C387.202881,528.959900 373.110443,510.825989 359.178497,492.569885   C352.932343,484.384979 346.888367,476.045837 340.420654,467.329224   C344.386353,466.131836 347.677460,465.138153 349.635834,464.546844   C371.391418,489.523071 392.812012,513.853882 413.863220,538.500122   C418.125641,543.490479 421.581635,549.395935 424.384918,555.361023   C431.105591,569.661499 426.388367,582.168945 412.100830,588.916687   C400.707153,594.297607 388.390686,595.228088 376.033020,595.701843   C373.737915,595.789856 371.436554,595.714478 369.151886,595.714478   C369.056305,601.137207 371.358002,603.621765 376.204498,605.287109   C392.876923,611.016113 409.322906,617.401001 425.925018,623.340759   C428.974945,624.432007 430.433655,625.953613 430.832886,629.223633   C431.820801,637.316284 433.173553,645.364502 434.383820,653.458069   C373.411865,650.955994 285.359985,604.996216 258.147095,504.788391  M401.305084,571.205627   C385.530396,567.108948 369.755737,563.012268 354.590302,559.073792   C357.871552,566.760559 361.553986,575.387207 365.401093,584.399536   C373.121613,583.254639 380.705292,582.278748 388.227386,580.953369   C392.140594,580.263794 396.052490,579.240845 399.763641,577.836487   C402.576416,576.772034 405.070740,574.866150 407.706787,573.334778   C407.482483,572.975159 407.258148,572.615540 407.033844,572.255920   C405.399353,571.963135 403.764862,571.670349 401.305084,571.205627  z" data-index="62"/>
<path fill="#0F2542" opacity="1.000000" stroke="none" d=" M401.717712,571.291626   C403.764862,571.670349 405.399353,571.963135 407.033844,572.255920   C407.258148,572.615540 407.482483,572.975159 407.706787,573.334778   C405.070740,574.866150 402.576416,576.772034 399.763641,577.836487   C396.052490,579.240845 392.140594,580.263794 388.227386,580.953369   C380.705292,582.278748 373.121613,583.254639 365.401093,584.399536   C361.553986,575.387207 357.871552,566.760559 354.590302,559.073792   C369.755737,563.012268 385.530396,567.108948 401.717712,571.291626  z" data-index="63"/>
</svg>