<svg width="300" height="300" xmlns="http://www.w3.org/2000/svg" version="1.1">

 <g>
  <title>Layer 1</title>
  <path id="svg_1" fill="#fff" d="m68.24,90.44006s24.72,-40.44006 75.36,-40.44006s74.28,39.36 74.28,39.36l68.64,0l-2.76,16.8s-1.92,6.72 -5.04,7.44l4.68,0s1.56,6 -7.8,26.4l20.04,0s0.72,35.76 -42.48,52.56006c0,0 -22.32,7.08 -33.72,-5.04c0,0 -22.8,42.36 -75.84,42.36s-76.92,-43.56 -76.92,-43.56l-61.68,0l9.84,-17.64l-6.72,0l7.92,-14.52l13.32,0l2.28,-5.52l-6.24,0l15.36,-28.32006l8.64,0l3.48,-8.64l-7.44,0l11.4,-21.24l11.4,0.00006z"/>
  <path id="svg_2" fill="#fdb927" d="m144.32,220.4c43.32,0 78.48,-35.64 78.48,-79.68c0,-43.92 -35.16,-79.56 -78.48,-79.56s-78.48,35.64 -78.48,79.56c0,44.04 35.16,79.68 78.48,79.68z"/>
  <path id="svg_3" fill="#31006F" d="m152.96,140.36l-3.36,0a0.51618,0.51618 0 0 0 -0.48,0.48c0,0.24 0.24,0.36 0.48,0.36l3.48,0c1.2,0 2.28,0.12 1.92,0.6l-9,17.28a2.03145,2.03145 0 0 1 -3.84,-0.12l-4.44,-23.04l15.6,-12.12c1.56,-1.44 4.56,-3.6 6.12,-3.6l3.48,0c2.04,0 2.76,0.96 2.28,2.28l-0.6,1.08c-0.36,0.72 -1.68,0.84 -2.64,0.84l-2.04,0a0.31819,0.31819 0 0 0 -0.36,0.36c0,0.24 0.12,0.48 0.36,0.48l2.04,0c0.84,0 1.8,0 1.44,0.6l-7.2,13.92c-0.36,0.48005 -1.92,0.6 -3.24,0.6zm27.12,8.52c-7.32,9 -11.4,12 -18.84,12c-2.52,0 -3.84,-0.6 -3.24,-1.8l8.88,-17.75995l3.36,0c3.72,0 3.24,3.12 2.28,7.43994c-0.24,0.6 0.24,0.6 0.72,0.12l8.4,-14.76c0.36,-0.96 -0.72,-1.08 -1.2,-0.36c-4.2,5.64 -8.64,5.28 -10.56,5.28l-1.44,0l9.36,-18l3.84,0c4.8,0.24 6.96,4.32 5.64,14.16l1.92,0l6.96,-13.67999c0.6,-1.2 -0.6,-2.28 -1.92,-2.28l-47.04,0.12c-2.76,0 -2.88,2.04 -0.24,2.04c2.16,0 2.04,3 0.12,4.44l-20.04,15.96l4.08,18.72a2.44828,2.44828 0 0 0 2.76,2.04l38.88,0a3.16759,3.16759 0 0 0 2.88,-1.32l6.96,-12.12c0.96,-1.79993 -1.2,-1.67994 -2.52,-0.24z"/>
  <path id="svg_4" fill="#31006F" d="m94.04,143.84l-12.36,0l15.6,-20.64l-3.24,20.64zm-2.88,12.84c-0.36,2.04 -2.52,3.48 -5.16,4.2l-2.76,0.72l2.28,-4.08c0.6,-1.2 -0.72,-1.8 -2.16,-0.12c-9.6,11.16 -12.72,16.56 -27.6,16.56l-3.96,0c-1.2,0 -2.52,-0.48 -1.68,-1.56l5.28,-9.84l19.92,0c2.64,0 2.04,-2.04 0.36,-2.04a4.48187,4.48187 0 0 1 -3,-1.92a2.74729,2.74729 0 0 1 0.12,-2.88l7.56,-10.2l12.72,0l-1.92,11.16zm29.52,3.84a2.302,2.302 0 0 1 -1.92,-1.44a5.21574,5.21574 0 0 1 0.12,-3.6l18.12,-32.16c0.24,-0.6 1.08,-1.92 1.92,-1.92c1.56,0 2.28,-2.04 -0.36,-2.04l-14.64,0c-2.64,0 -2.64,2.04 -0.12,2.04a1.2116,1.2116 0 0 1 1.2,1.68l-3.96,7.32c-0.6,0.72 -1.68,0.84 -2.88,0.84l-3.36,0c-0.24,0 -0.48,0.12 -0.48,0.36a0.51618,0.51618 0 0 0 0.48,0.48l3.36,0c0.96,0 1.68,0.24005 1.2,1.32l-13.44,24.48c-0.96,1.32007 -2.88,1.56006 -2.76,-0.96l4.68,-35.76c0.24,-1.08 0,-1.92 -1.2,-1.92l-7.2,0a2.06941,2.06941 0 0 0 -1.8,1.08l-2.64,3.12c-0.24,0.36 -1.08,0.36 -1.8,0.36l-6,0a0.51618,0.51618 0 0 0 -0.48,0.48c0,0.24 0.24,0.36 0.48,0.36l4.92,0c0.84,0 1.8,0.24 1.44,0.72l-6.84,8.64a2.41859,2.41859 0 0 1 -1.32,0.36l-1.92,0c-0.24,0 -0.48,0.12 -0.48,0.36a0.51623,0.51623 0 0 0 0.48,0.48l1.56,0c0.48,0 0.48,0.24 0.36,0.48l-6.48,8.16a3.485,3.485 0 0 1 -1.68,0.36l-5.76,0c-0.24,0 -0.36,0.24 -0.36,0.48a0.31819,0.31819 0 0 0 0.36,0.36l4.92,0c0.84,0 1.32,0.12 0.96,0.72l-9.24,11.52c-1.68,2.28 -10.08,3.36 -11.76,3.36l31.32,-58.44a3.09167,3.09167 0 0 1 2.64,-1.68l6.6,0c3.12,0 3.12,-2.16 0.36,-2.16l-33.36,0c-2.76,0 -2.88,2.16 0.36,2.16l6.12,0c1.8,0 2.28,0.96 1.8,1.92l-0.84,1.56c-0.24,0.48 -0.72,0.72 -2.4,0.72l-10.92,0c-0.24,0 -0.36,0.24 -0.36,0.48a0.31821,0.31821 0 0 0 0.36,0.36l10.92,0c0.6,0 1.44,0.24 0.96,1.31995l-1.56,2.76c-0.24,0.48 -0.96,0.6 -1.68,0.6l-5.04,0c-0.24,0 -0.36,0.24 -0.36,0.48s0.12,0.48 0.36,0.48l4.92,0c0.72,0 0.84,0.48 0.36,1.08l-3.48,6.48c-0.36,0.6 -0.84,0.72 -2.04,0.72l-1.92,0c-0.24,0 -0.48,0.12 -0.48,0.36a0.51624,0.51624 0 0 0 0.48,0.48l1.92,0c0.72,0 0.96,0.36 0.6,1.08l-2.88,5.4c-0.48,0.72 -1.08,1.08 -3,1.08l-10.92,0a0.31821,0.31821 0 0 0 -0.36,0.36c0,0.24 0.12,0.48 0.36,0.48l10.92,0c1.2,0 1.68,0.6 1.2,1.44l-5.64,10.56005c-0.36,0.48 -1.2,0.6 -2.76,0.6l-10.92,0c-0.24,0 -0.48,0.12 -0.48,0.36a0.51618,0.51618 0 0 0 0.48,0.48l10.8,0c1.32,0 2.16,0 1.8,0.72l-3.24,6.12c-0.6,0.96 -2.28,0.96 -3,0.96l-3.48,0a0.31821,0.31821 0 0 0 -0.36,0.36c0,0.24 0.12,0.48 0.36,0.48l3.48,0c1.2,0 1.8,0.24 1.56,0.84l-4.32,8.16c-0.48,0.72 -2.16,0.72 -3.48,0.72l-16.8,0a0.51618,0.51618 0 0 0 -0.48,0.48c0,0.24005 0.24,0.36 0.48,0.36l16.8,0c1.2,0 2.52,0.24 2.04,1.08l-2.76,5.16c-0.24,0.48 -1.2,0.48 -2.64,0.48l-3.36,0a0.51624,0.51624 0 0 0 -0.48,0.48c0,0.24 0.24,0.36 0.48,0.36l3.36,0c0.84,0 1.92,0.12 1.56,0.84l-1.8,3.24a2.56,2.56 0 0 1 -2.4,1.56006l-8.52,0c-3.12,0 -3,2.16 -0.24,2.16l49.68,0c1.44,0 1.56,-0.24 2.16,-1.32l7.44,-12.84l37.68,0c2.64,0 2.04,-2.04006 0.36,-2.04006z"/>
  <path id="svg_5" fill="#31006F" d="m216.92,136.88c-1.32,1.2 -3.48,2.4 -3.96,2.04a18.25674,18.25674 0 0 0 -3.36,-2.28l8.16,-14.88a1.65039,1.65039 0 0 1 1.56,-0.72c3.24,0 4.2,3.36 2.76,7.68c-1.08,3 -2.76,6.24 -5.16,8.16zm65.52,13.32007c-0.24,-0.96 -0.6,-0.36 -1.2,0.84c-0.24,0.48 -0.84,0.48 -1.56,0.48l-1.92,0a0.53567,0.53567 0 0 0 -0.48,0.36a0.43958,0.43958 0 0 0 0.48,0.48l1.92,0c0.72,0 0.72,0.48 0.36,1.2a30.51,30.51 0 0 1 -4.68,7.31995a2.07292,2.07292 0 0 1 -1.56,0.6l-2.04,0.12c-0.24,0 -0.48,0.12 -0.48,0.36a0.5162,0.5162 0 0 0 0.48,0.48l1.92,0c1.08,0 0,0.6 -0.12,0.84a45.815,45.815 0 0 1 -8.4,8.76a9.37792,9.37792 0 0 1 -2.76,0.12l-2.04,0c-0.24,0 -0.36,0.24 -0.36,0.48a0.31819,0.31819 0 0 0 0.36,0.36l2.04,0.12c1.44,0 0.36,0.84 0.12,0.96c-5.4,4.56 -13.56,6 -17.16,5.52c-12,-1.44 -14.52,-10.56 -15.36,-14.28a20.76983,20.76983 0 0 1 -0.96,-3.24005c-0.36,-1.92 5.04,-2.4 6.48,-1.44c2.28,1.56006 7.56,3.12 11.76,3.12c3.84,0 11.64,-2.76 13.92,-9.36c2.4,-6.84 -3.48,-14.28 -6.12,-16.92c-3.24,-3.24 -6.36,-8.52 -5.04,-12.36c0.96,-2.87994 2.64,-4.2 6.12,-4.2c4.68,0 7.92,2.88 7.92,7.08c0,0.36 -0.12,0.84 -0.48,0.84l-1.56,0a0.51618,0.51618 0 0 0 -0.48,0.48c0,0.24 0.24,0.36 0.48,0.36l1.44,0a0.60655,0.60655 0 0 1 0.6,0.84c-0.24,1.44 -0.36,2.4 -0.72,3.84c-0.12,0.84 1.08,1.32 1.44,0.72l7.2,-12.84c0.6,-0.96 -0.6,-1.2 -1.44,-0.96c-2.04,0.72 -5.16,1.2 -6.36,0.36a14.00651,14.00651 0 0 0 -8.88,-3.12c-6.36,0 -10.92,1.56 -13.8,6.84c-0.24,0.36 -0.84,0.36 -1.32,0.36l-1.32,0c-0.24,0 -0.36,0.24 -0.36,0.48s0.12,0.48 0.36,0.48l1.08,-0.12c0.48,0 0.72,0.24 0.48,0.72c-0.12,0.48 -0.36,0.96 -0.48,1.44a13.76249,13.76249 0 0 0 0.6,8.4c0.12,0.12006 -0.12,0.24005 -0.6,0.24005l-1.92,0a0.51618,0.51618 0 0 0 -0.48,0.48c0,0.24 0.24,0.36 0.48,0.36l1.92,0c0.96,0 1.08,0.12 1.44,0.6c1.08,1.44 2.16,2.52 3.36,4.2c0.48,0.48 -1.32,0.6 -2.28,0.6l-7.68,0a0.48,0.48 0 1 0 0,0.96l7.8,0c1.32,0 3.48,-0.12 3.72,0.24c1.92,2.16 4.2,5.52 4.56,8.4c0.12,0.84 -0.24,1.2 -1.2,1.2l-1.08,0a0.3182,0.3182 0 0 0 -0.36,0.36c0,0.24 0.12,0.48 0.36,0.48l0.96,0c0.84,0 1.2,0.12 1.08,0.72c-1.08,3.24005 -2.52,5.64 -8.76,5.52c-6.6,0 -7.92,-6.36 -6,-13.08c0.36,-1.32 0,-1.92 -0.6,-0.84l-4.56,7.2a1.59281,1.59281 0 0 1 -1.2,0.48l-0.6,0a0.48,0.48 0 1 0 0,0.96c0.48,0 0.72,0.24 0.48,0.6l-1.68,2.52a84.256,84.256 0 0 0 -9.72,-16.80002l0,-0.12c6.12,-0.36 15,-6 16.44,-11.04c2.52,-8.88 -6,-12.12 -10.68,-12.12l-20.4,0c-2.76,0 -2.88,2.16 -0.36,2.16c1.44,0 2.64,1.2 2.04,2.4l-4.56,8.16c-0.36,0.72 -1.68,0.72 -3.6,0.72l-1.92,0c-0.24,0 -0.48,0.12 -0.48,0.36a0.51618,0.51618 0 0 0 0.48,0.48l1.92,0c1.32,0 2.76,0 2.28,0.96l-5.4,9.72c-0.24,0.48 -0.96,0.48 -2.76,0.48l-1.92,0a0.51618,0.51618 0 0 0 -0.48,0.48c0,0.24 0.24,0.36 0.48,0.36l1.92,0c1.44,0 1.92,0.24 1.56,0.96l-7.2,12.96c-0.84,0.96 -1.8,1.08 -3.6,1.08c-2.64,0 -2.52,2.04 0.12,2.04l17.52,0c2.76,0 2.04,-2.04 0.48,-2.04c-0.96,0 -1.92,-1.8 -1.32,-2.76l8.88,-17.04l0.96,0c3.96,0 4.92,6.6 5.64,13.68c0.12,0.48 -0.84,0.6 -2.88,0.6l-4.92,0c-0.24,0 -0.48,0.12 -0.48,0.36a0.51617,0.51617 0 0 0 0.48,0.48l4.92,0c1.32,0 3.12,0 3.12,0.48a68.28194,68.28194 0 0 0 1.2,8.28c0.24,0.84 -1.2,0.72 -2.64,0.72l-6.36,0a0.51618,0.51618 0 0 0 -0.48,0.48c0,0.24 0.24,0.36 0.48,0.36l6.36,0c1.92,0 3,0 3.12,0.48c2.64,9.96 14.4,17.88 25.68,17.4c9.84,-0.36 18,-5.64 22.2,-9.12c5.64,-4.44 13.92,-13.92 17.28,-20.76c0.6,-1.2 1.56,-2.88 1.32,-3.95993z"/>
  <path id="svg_6" fill="#31006F" d="m118.28,106.16a7.49031,7.49031 0 0 1 -6.24,2.64l-0.72,0l4.32,-8.52a1.31984,1.31984 0 0 1 1.2,-0.72c0.6,0 0.48,-1.08 -0.24,-1.08l-6.72,0c-0.6,0 -0.84,1.08 -0.24,1.08s0.6,0.6 0.36,1.2l-3.84,7.56a1.91727,1.91727 0 0 1 -1.2,0.6c-0.6,0.24 -0.96,1.2 -0.24,1.2l10.8,0c0.84,0 1.08,-0.24005 1.2,-0.6l2.28,-3.36c0.24,-0.36 -0.36,-0.47995 -0.72,0z"/>
  <path id="svg_7" fill="#31006F" d="m150.92,98.72a1.26087,1.26087 0 0 1 -1.44,0a6.40624,6.40624 0 0 0 -3.48,-1.2c-2.52,0 -4.32,0.48 -5.52,2.88c-0.84,2.04 0.12,3.84 2.28,4.8c1.08,0.48 2.28,1.08 1.8,2.28c-0.36,0.84 -1.32,0.96 -2.28,0.96c-1.2,-0.12006 -3,-0.96 -3.24,-2.64c-0.12,-0.6 -0.72,-0.48 -0.96,-0.12l-1.56,3c-0.24,0.48 0.36,0.84 0.72,0.6a1.83458,1.83458 0 0 1 2.16,-0.36a8.25223,8.25223 0 0 0 3.96,1.44a5.98851,5.98851 0 0 0 5.64,-2.88c1.32,-2.04 0.48,-4.08 -1.8,-5.16c-1.32,-0.6 -2.4,-1.68 -1.8,-2.75995c0.36,-0.72 1.44,-0.6 2.04,-0.48a3.21737,3.21737 0 0 1 2.52,2.04a0.46568,0.46568 0 0 0 0.84,0.11993l0.72,-1.92c0.24,-0.35998 -0.36,-0.71998 -0.6,-0.59998z"/>
  <path id="svg_8" fill="#31006F" d="m226.16,101.84l0.96,-1.8c0.48,-0.72 -0.24,-1.56 -1.32,-1.56l-12.72,0c-0.84,0 -0.6,0.96 -0.24,0.96c0.84,0 1.08,0.96 0.6,1.8l-3.84,6.96c-0.6,0.72 -0.96,0.96 -1.68,0.96s-0.96,0.96 0,0.96l12.84,0c0.48,0 0.72,-0.12006 0.84,-0.48l1.8,-2.28c0.48,-0.48 -0.48,-0.48 -0.72,-0.24a8.31817,8.31817 0 0 1 -6.36,2.16l-1.44,0l1.68,-3.96l0.36,0c1.2,0 2.52,0 2.76,0.84a0.62164,0.62164 0 0 0 0.96,0l1.44,-3c0.24,-0.48 -0.36,-0.48 -0.6,-0.24c-0.6,1.08 -3.24,0.84 -3.84,0.84l-0.36,0l2.16,-4.31995l2.4,0a3.435,3.435 0 0 1 3.24,2.28c0.12,0.23995 0.96,0.47995 1.08,0.11995z"/>
  <path id="svg_9" fill="#31006F" d="m163.64,104l4.2,-3.36l0,3.36l-4.2,0zm30.12,-5.52l-4.44,0c-0.96,0 -0.72,0.96 -0.24,0.96a1.43012,1.43012 0 0 1 1.2,2.16l-1.8,3.36l-4.08,-6a2.28131,2.28131 0 0 0 -1.56,-0.6l-4.44,0c-0.84,0 -0.72,0.96 -0.24,0.96c0.84,0 0.6,0.72 0.36,1.2l-3.48,6.84a0.77513,0.77513 0 0 1 -1.44,-0.12l-2.76,-8.88c-0.12,-0.36 -1.68,-0.36 -2.16,0l-6.84,5.64l-3.48,0c-0.72,0 -1.08,0.36 -1.08,0.72s0.36,0.72 1.08,0.72l1.8,0l-1.8,1.56c-1.08,0.72 -2.16,1.8 -2.76,1.8l-0.48,0c-0.72,0 -1.08,0.12 -1.08,0.6c0,0.6 0.36,0.72 0.96,0.72l5.52,0c1.08,0 0.84,-1.31995 0.36,-1.31995a1.038,1.038 0 0 1 -0.72,-1.8l1.68,-1.55994l3.36,0c1.92,0 3.36,2.28 2.16,3l-0.96,0.48c-0.36,0.24 -0.6,1.2 0,1.2l10.8,0c0.84,0 0.72,-1.08 0.36,-1.08c-1.2,0 -0.6,-1.56 -0.36,-1.92l2.76,-5.4l3.96,7.68c0.36,0.48 0.6,0.72 0.96,0.72l1.56,0a0.79943,0.79943 0 0 0 0.84,-0.6l4.56,-8.28c0.72,-1.43994 1.32,-1.79993 2.28,-1.79993c0.36,-0.00012 0.6,-0.96018 -0.36,-0.96018z"/>
  <path id="svg_10" fill="#31006F" d="m130.88,105.2c-1.2,2.4 -3.24,3.84 -4.44,3.24005c-1.32,-0.6 -1.44,-3.12 -0.12,-5.52c1.2,-2.4 3.12,-3.84 4.44,-3.24c1.32,0.71995 1.32,3.11995 0.12,5.51995zm-1.08,-7.32c-3.72,0 -7.68,1.92 -8.4,5.88a5.82152,5.82152 0 0 0 5.88,7.08c4.08,0 7.8,-2.64 8.52,-6.48s-2.04,-6.48 -6,-6.48z"/>
  <path id="svg_11" fill="#31006F" d="m206.6,103.76l-4.8,0c-0.96,0 -0.72,0.96 -0.36,0.96a0.75806,0.75806 0 0 1 0.84,0.84c0,1.92 -0.84,2.64 -2.64,2.64s-2.52,-2.16 -1.2,-4.92a5.97718,5.97718 0 0 1 5.4,-3.48c1.56,0 2.88,0.36 3,1.8c0.12,0.36 0.6,0.36 0.84,0l1.08,-2.04c0.12,-0.24005 0,-0.48 -0.36,-0.48c-0.36,-0.12 -0.96,0.36 -1.44,0a9.37841,9.37841 0 0 0 -4.68,-1.44a9.24351,9.24351 0 0 0 -8.76,4.92c-2.28,3.84 0.96,7.92 3.96,7.92c1.68,0 3.72,-1.2 4.8,-1.68l1.2,0.84a1.48145,1.48145 0 0 0 0.96,0.48l0.48,0c0.48,0 0.6,-0.6 0.72,-0.96l1.92,-4.56c0.24,-0.47994 0.12,-0.84 -0.96,-0.84z"/>
  <path id="svg_12" fill="#31006F" d="m273.44,98.72a1.26085,1.26085 0 0 1 -1.44,0a6.40629,6.40629 0 0 0 -3.48,-1.2c-2.52,0 -4.32,0.48 -5.52,2.88c-0.84,2.04 0.12,3.84 2.4,4.8c0.96,0.48 2.16,1.08 1.68,2.28c-0.36,0.84 -1.32,0.96 -2.28,0.96c-1.2,-0.12006 -3,-0.96 -3.24,-2.64c-0.12,-0.6 -0.72,-0.48 -0.96,-0.12l-1.56,3c-0.24,0.48 0.36,0.84 0.72,0.6a1.83464,1.83464 0 0 1 2.16,-0.36a8.25211,8.25211 0 0 0 3.96,1.44c2.52,0 4.32,-0.72 5.64,-2.88c1.32,-2.04 0.6,-4.08 -1.8,-5.16c-1.32,-0.6 -2.28,-1.68 -1.8,-2.75995c0.36,-0.72 1.44,-0.6 2.04,-0.48a3.21732,3.21732 0 0 1 2.52,2.04a0.46569,0.46569 0 0 0 0.84,0.11993l0.72,-1.92c0.24,-0.35998 -0.36,-0.71998 -0.6,-0.59998z"/>
  <path id="svg_13" fill="#31006F" d="m239.6,106.16c-1.68,2.04 -3.84,2.64 -6.36,2.64l-0.6,0l4.32,-8.52a1.10878,1.10878 0 0 1 1.2,-0.72c0.48,0 0.48,-1.08 -0.24,-1.08l-6.84,0c-0.6,0 -0.72,1.08 -0.24,1.08c0.6,0 0.72,0.6 0.48,1.2l-3.96,7.56a1.61556,1.61556 0 0 1 -1.08,0.6c-0.6,0.24 -0.96,1.2 -0.36,1.2l10.8,0c0.84,0 1.08,-0.24005 1.32,-0.6l2.16,-3.36c0.36,-0.36 -0.36,-0.47995 -0.6,0z"/>
  <path id="svg_14" fill="#31006F" d="m255.92,99.44006a3.69763,3.69763 0 0 1 3.24,2.28c0.12,0.24 0.84,0.48 1.08,0.12l0.96,-1.8c0.36,-0.72 -0.24,-1.56 -1.32,-1.56l-12.72,0c-0.96,0 -0.6,0.96 -0.24,0.96c0.84,0 1.08,0.96 0.48,1.79993l-3.72,6.96a1.99077,1.99077 0 0 1 -1.8,0.96c-0.6,0 -0.84,0.96 0,0.96l12.84,0c0.6,0 0.84,-0.12 0.96,-0.48l1.8,-2.28c0.36,-0.48 -0.48,-0.48 -0.84,-0.24005a7.94521,7.94521 0 0 1 -6.24,2.16l-1.56,0l1.8,-3.96l0.36,0c1.08,0 2.4,0 2.76,0.84a0.502,0.502 0 0 0 0.84,0l1.56,-3c0.24,-0.48 -0.48,-0.48 -0.6,-0.24c-0.6,1.08 -3.24,0.84 -3.96,0.84l-0.36,0l2.28,-4.31995l2.4,0.00007z"/>
  <path id="svg_15" d="m158,69.2c-6,-0.36 -10.92,-0.6 -15.12,-0.12a17.2627,17.2627 0 0 1 5.64,-7.32a77.32454,77.32454 0 0 1 11.52,1.44c10.68,2.04 27.24,8.64 34.44,18.12c-9.6,-6.36 -25.32,-11.28 -36.48,-12.12zm-17.88,0.24005a93.85721,93.85721 0 0 0 -12.48,2.28c-0.6,-1.56 -2.16,-6.36 -2.76,-7.92a59.86741,59.86741 0 0 1 20.28,-2.04c-1.68,1.31995 -4.44,6.24001 -5.04,7.68001l0,-0.00001zm-30.12,8.87995c-0.72,-1.2 -4.2,-4.44 -6.12,-5.04c4.44,-3.36 14.64,-8.04 18.6,-8.88c0.6,1.2 2.4,6 3,7.92c-3.48,0.72 -12.6,4.08 -15.48,6zm96,10.92c-0.96,-1.2 -2.28,-3.6 -11.88,-12c-14.28,-12.36 -33.12,-18 -50.76,-18c-12.96,0 -24.36,2.88 -37.08,9.84c-16.08,8.88 -22.68,19.08 -24.36,21.12c-1.2,1.56 -1.32,2.4 -0.6,2.88c0.6,0.36 1.68,-0.84 2.64,-2.16c4.8,-6.36 11.16,-12.6 17.76,-16.32c2.04,0.36 4.92,3.24 6,4.68a160.11636,160.11636 0 0 0 -13.92,9.72c-2.28,1.8 -3,2.76 -2.4,3.48c0.48,0.6 2.28,-0.48 3.72,-1.68a119.983,119.983 0 0 1 13.8,-9.48c2.64,3 1.8,8.52 0.84,9.6c-0.48,0.72 -0.48,1.32 0,1.68c0.6,0.36 1.08,-0.48 1.8,-1.56c1.8,-2.52 1.08,-8.52 -0.36,-10.68c4.56,-2.88 11.04,-4.8 15,-5.64c0.36,0.6 5.16,14.64 6.12,17.16c0.48,1.44 0.96,3.12 2.04,2.76c0.6,-0.12 0.24,-1.68 -0.36,-3.24c-0.72,-1.92 -4.32,-13.68 -5.52,-17.16c1.32,-0.72 9.24,-2.28 11.28,-2.28c-0.96,5.16 2.64,7.32 6.72,9.96c2.16,1.44 16.08,9.36 18.96,11.16c1.68,1.08 3,1.68 3.36,1.2s-0.72,-1.68 -2.28,-2.52c-1.2,-0.72 -14.16,-8.28 -19.56,-11.64c-3.84,-2.52 -5.88,-5.04 -5.04,-8.52c1.32,-0.36 5.16,-0.36 9.24,-0.36c27.6,0.24 49.68,15.96 52.08,18.6c1.32,1.2 3,2.28 3.72,1.8c0.36,-0.36 -0.36,-1.8 -0.96,-2.39995l0,-0.00005z"/>
  <path id="svg_16" d="m212,183.44006c1.08,-1.8 1.8,-2.88 0.96,-3.36c-0.72,-0.48 -1.56,1.32 -2.52,3c-3.24,5.52 -6.72,10.2 -14.64,17.4a73.60823,73.60823 0 0 1 -22.44,13.8c-3,-8.4 -14.4,-44.16 -14.76,-45.24c-0.36,-1.56006 -0.84,-1.92 -1.32,-1.8c-0.6,0.24 -0.24,1.08 0.12,2.4c0.24,1.32 13.8,43.8 14.28,45.24c-2.64,1.32 -13.68,4.44 -21.24,4.68005c-6.84,0.24 -14.88,0 -18.96,-0.96c-4.68,-3.84011 -15.48,-19.08011 -19.56,-27.12011c-4.8,-9.6 -8.04,-18.36 -8.88,-22.08c-0.36,-1.8 -0.84,-3.12 -1.8,-2.88c-0.96,0.12 -0.36,1.56 0.24,3.48a121.64892,121.64892 0 0 0 8.76,21.84c5.4,10.44 14.88,22.8 17.64,26.16a76.32867,76.32867 0 0 1 -29.28,-13.31995c-8.64,-6.48 -16.08,-14.64 -19.8,-20.64c-0.6,-1.08 -1.32,-2.52 -2.28,-1.92c-0.48,0.36 0.12,1.44006 0.72,2.64c5.4,9.72 18.6,23.52 35.64,31.08c19.68,8.76 41.16,8.28 60.48,0.84c16.8,-6.48005 31.44,-19.92005 38.64,-33.23999z"/>
 </g>
</svg>