<?xml version="1.0" encoding="UTF-8"?>
<svg xmlns="http://www.w3.org/2000/svg" xmlns:xlink="http://www.w3.org/1999/xlink" width="300px" height="300px" viewBox="0 0 300 300" version="1.1">
<g id="surface1">
<path style=" stroke:none;fill-rule:nonzero;fill:rgb(7.058824%,9.019608%,24.705882%);fill-opacity:1;" d="M 60.285156 283.753906 C 60.269531 280.285156 56.875 277.472656 52.683594 277.460938 L 38.492188 277.460938 L 38.492188 299.566406 L 44.710938 299.566406 L 44.710938 292.648438 L 50.488281 292.648438 C 52.324219 292.703125 53.785156 293.9375 53.816406 295.457031 L 53.816406 299.515625 L 60.03125 299.515625 L 60.03125 295.457031 C 60.03125 293.730469 59.347656 292.046875 58.085938 290.671875 C 59.503906 289.480469 60.292969 287.871094 60.285156 286.199219 Z M 52.683594 282.609375 C 53.445312 282.617188 54.058594 283.125 54.066406 283.753906 L 54.066406 286.25 C 54.070312 286.597656 53.90625 286.929688 53.613281 287.175781 C 53.316406 287.417969 52.914062 287.554688 52.496094 287.550781 L 44.710938 287.550781 L 44.710938 282.664062 L 52.683594 282.664062 Z M 52.683594 282.609375 "/>
<path style=" stroke:none;fill-rule:nonzero;fill:rgb(7.058824%,9.019608%,24.705882%);fill-opacity:1;" d="M 200.191406 299.566406 L 178.089844 299.566406 L 178.089844 277.460938 L 184.304688 277.460938 L 184.304688 294.417969 L 200.191406 294.417969 Z M 200.191406 299.566406 "/>
<path style=" stroke:none;fill-rule:nonzero;fill:rgb(7.058824%,9.019608%,24.705882%);fill-opacity:1;" d="M 261.730469 282.609375 L 261.730469 277.460938 L 239.625 277.460938 L 239.625 299.566406 L 261.730469 299.566406 L 261.730469 294.417969 L 245.84375 294.417969 L 245.84375 290.828125 L 259.53125 290.828125 L 259.53125 285.679688 L 245.84375 285.679688 L 245.84375 282.609375 Z M 261.730469 282.609375 "/>
<path style=" stroke:none;fill-rule:nonzero;fill:rgb(7.058824%,9.019608%,24.705882%);fill-opacity:1;" d="M 121.949219 299.566406 L 97.960938 299.566406 L 111.714844 282.609375 L 99.46875 282.609375 L 99.46875 277.460938 L 123.394531 277.460938 L 109.640625 294.417969 L 121.949219 294.417969 Z M 121.949219 299.566406 "/>
<path style=" stroke:none;fill-rule:nonzero;fill:rgb(7.058824%,9.019608%,24.705882%);fill-opacity:1;" d="M 160.503906 299.566406 L 136.515625 299.566406 L 150.269531 282.609375 L 138.023438 282.609375 L 138.023438 277.460938 L 161.949219 277.460938 L 148.195312 294.417969 L 160.503906 294.417969 Z M 160.503906 299.566406 "/>
<path style=" stroke:none;fill-rule:nonzero;fill:rgb(7.058824%,9.019608%,24.705882%);fill-opacity:1;" d="M 215.703125 277.460938 L 221.917969 277.460938 L 221.917969 299.566406 L 215.703125 299.566406 Z M 215.703125 277.460938 "/>
<path style=" stroke:none;fill-rule:nonzero;fill:rgb(7.058824%,9.019608%,24.705882%);fill-opacity:1;" d="M 76.796875 277.460938 L 83.015625 277.460938 L 83.015625 299.566406 L 76.796875 299.566406 Z M 76.796875 277.460938 "/>
<path style=" stroke:none;fill-rule:nonzero;fill:rgb(7.058824%,9.019608%,24.705882%);fill-opacity:1;" d="M 76.796875 277.460938 L 83.015625 277.460938 L 83.015625 299.566406 L 76.796875 299.566406 Z M 76.796875 277.460938 "/>
<path style=" stroke:none;fill-rule:nonzero;fill:rgb(7.058824%,9.019608%,24.705882%);fill-opacity:1;" d="M 182.421875 229.039062 L 159.6875 229.039062 L 159.6875 269.503906 L 170.929688 269.503906 L 170.929688 256.5 L 182.421875 256.5 C 189.972656 256.484375 196.09375 251.417969 196.109375 245.160156 L 196.109375 240.375 C 196.09375 234.121094 189.972656 229.050781 182.421875 229.039062 Z M 184.871094 245.160156 C 184.867188 246.28125 183.773438 247.1875 182.421875 247.191406 L 170.929688 247.191406 L 170.929688 238.347656 L 182.421875 238.347656 C 183.773438 238.347656 184.867188 239.257812 184.871094 240.375 Z M 184.871094 245.160156 "/>
<path style=" stroke:none;fill-rule:nonzero;fill:rgb(36.470589%,46.27451%,66.274512%);fill-opacity:1;" d="M 165.78125 269.503906 L 164.839844 269.503906 L 164.839844 233.300781 L 182.421875 233.300781 C 187.136719 233.308594 190.957031 236.472656 190.960938 240.375 L 190.960938 245.160156 C 190.957031 249.066406 187.136719 252.230469 182.421875 252.234375 L 165.78125 252.234375 Z M 165.78125 251.453125 L 182.421875 251.453125 C 184.4375 251.457031 186.371094 250.796875 187.796875 249.613281 C 189.222656 248.433594 190.023438 246.832031 190.019531 245.160156 L 190.019531 240.375 C 190.023438 238.707031 189.222656 237.105469 187.796875 235.921875 C 186.371094 234.742188 184.4375 234.078125 182.421875 234.082031 L 165.78125 234.082031 Z M 165.78125 251.453125 "/>
<path style=" stroke:none;fill-rule:nonzero;fill:rgb(7.058824%,9.019608%,24.705882%);fill-opacity:1;" d="M 95.511719 238.347656 L 95.511719 229.039062 L 58.464844 229.039062 L 58.464844 269.503906 L 95.449219 269.503906 L 95.449219 260.246094 L 69.703125 260.246094 L 69.703125 253.953125 L 91.492188 253.953125 L 91.492188 244.640625 L 69.703125 244.640625 L 69.703125 238.347656 Z M 95.511719 238.347656 "/>
<path style=" stroke:none;fill-rule:nonzero;fill:rgb(36.470589%,46.27451%,66.274512%);fill-opacity:1;" d="M 95.511719 234.082031 L 95.511719 233.304688 L 63.609375 233.304688 L 63.609375 265.238281 L 95.449219 265.238281 L 95.449219 264.511719 L 64.554688 264.511719 L 64.554688 249.6875 L 91.492188 249.6875 L 91.492188 248.90625 L 64.554688 248.90625 L 64.554688 234.082031 Z M 95.511719 234.082031 "/>
<path style=" stroke:none;fill-rule:nonzero;fill:rgb(7.058824%,9.019608%,24.705882%);fill-opacity:1;" d="M 140.035156 229.089844 L 101.289062 229.089844 L 101.289062 269.503906 L 112.53125 269.503906 L 112.53125 238.398438 L 121.886719 238.398438 L 121.886719 269.554688 L 133.125 269.554688 L 133.125 238.398438 L 140.035156 238.398438 C 141.386719 238.402344 142.480469 239.308594 142.484375 240.429688 L 142.484375 269.503906 L 153.722656 269.503906 L 153.722656 240.429688 C 153.707031 234.171875 147.585938 229.105469 140.035156 229.089844 "/>
<path style=" stroke:none;fill-rule:nonzero;fill:rgb(36.470589%,46.27451%,66.274512%);fill-opacity:1;" d="M 140.035156 233.355469 L 106.4375 233.355469 L 106.4375 269.503906 L 107.378906 269.503906 L 107.378906 234.136719 L 127.035156 234.136719 L 127.035156 269.554688 L 127.976562 269.554688 L 127.976562 234.136719 L 140.035156 234.136719 C 142.050781 234.132812 143.984375 234.792969 145.410156 235.976562 C 146.835938 237.15625 147.636719 238.757812 147.632812 240.429688 L 147.632812 269.503906 L 148.574219 269.503906 L 148.574219 240.429688 C 148.570312 236.523438 144.75 233.359375 140.035156 233.355469 "/>
<path style=" stroke:none;fill-rule:nonzero;fill:rgb(7.058824%,9.019608%,24.705882%);fill-opacity:1;" d="M 38.746094 229.089844 L 0 229.089844 L 0 269.503906 L 11.242188 269.503906 L 11.242188 238.398438 L 20.597656 238.398438 L 20.597656 269.554688 L 31.835938 269.554688 L 31.835938 238.398438 L 38.746094 238.398438 C 40.097656 238.402344 41.191406 239.308594 41.195312 240.429688 L 41.195312 269.503906 L 52.433594 269.503906 L 52.433594 240.429688 C 52.417969 234.171875 46.296875 229.105469 38.746094 229.089844 "/>
<path style=" stroke:none;fill-rule:nonzero;fill:rgb(36.470589%,46.27451%,66.274512%);fill-opacity:1;" d="M 38.746094 233.355469 L 5.148438 233.355469 L 5.148438 269.503906 L 6.089844 269.503906 L 6.089844 234.136719 L 25.746094 234.136719 L 25.746094 269.554688 L 26.6875 269.554688 L 26.6875 234.136719 L 38.746094 234.136719 C 40.761719 234.132812 42.695312 234.792969 44.121094 235.976562 C 45.546875 237.15625 46.347656 238.757812 46.34375 240.429688 L 46.34375 269.503906 L 47.285156 269.503906 L 47.285156 240.429688 C 47.28125 236.523438 43.460938 233.359375 38.746094 233.355469 "/>
<path style=" stroke:none;fill-rule:nonzero;fill:rgb(7.058824%,9.019608%,24.705882%);fill-opacity:1;" d="M 245.027344 229.039062 L 256.269531 229.039062 L 256.269531 269.503906 L 245.027344 269.503906 Z M 245.027344 229.039062 "/>
<path style=" stroke:none;fill-rule:nonzero;fill:rgb(36.470589%,46.27451%,66.274512%);fill-opacity:1;" d="M 250.175781 229.039062 L 251.117188 229.039062 L 251.117188 269.503906 L 250.175781 269.503906 Z M 250.175781 229.039062 "/>
<path style=" stroke:none;fill-rule:nonzero;fill:rgb(7.058824%,9.019608%,24.705882%);fill-opacity:1;" d="M 226.566406 229.039062 L 226.566406 244.640625 L 212.5625 244.640625 L 212.5625 229.039062 L 201.382812 229.039062 L 201.382812 269.503906 L 212.5625 269.503906 L 212.5625 253.953125 L 226.566406 253.953125 L 226.566406 269.503906 L 237.742188 269.503906 L 237.742188 229.039062 Z M 226.566406 229.039062 "/>
<path style=" stroke:none;fill-rule:nonzero;fill:rgb(36.470589%,46.27451%,66.274512%);fill-opacity:1;" d="M 231.652344 229.039062 L 231.652344 248.90625 L 207.414062 248.90625 L 207.414062 229.039062 L 206.535156 229.039062 L 206.535156 269.503906 L 207.414062 269.503906 L 207.414062 249.6875 L 231.652344 249.6875 L 231.652344 269.503906 L 232.59375 269.503906 L 232.59375 229.039062 Z M 231.652344 229.039062 "/>
<path style=" stroke:none;fill-rule:nonzero;fill:rgb(7.058824%,9.019608%,24.705882%);fill-opacity:1;" d="M 21.789062 299.566406 L 7.597656 299.566406 C 3.40625 299.554688 0.015625 296.742188 0 293.273438 L 0 283.753906 C 0.015625 280.285156 3.40625 277.472656 7.597656 277.460938 L 14.191406 277.460938 C 18.382812 277.472656 21.777344 280.285156 21.789062 283.753906 L 21.789062 284.796875 L 15.574219 284.796875 L 15.574219 283.753906 C 15.566406 283.125 14.953125 282.617188 14.191406 282.609375 L 7.597656 282.609375 C 6.839844 282.617188 6.222656 283.125 6.214844 283.753906 L 6.214844 293.273438 C 6.222656 293.902344 6.839844 294.410156 7.597656 294.417969 L 15.574219 294.417969 L 15.574219 292.390625 L 11.867188 292.390625 L 11.867188 287.238281 L 21.789062 287.238281 Z M 21.789062 299.566406 "/>
<path style=" stroke:none;fill-rule:nonzero;fill:rgb(7.058824%,9.019608%,24.705882%);fill-opacity:1;" d="M 21.789062 299.566406 L 7.597656 299.566406 C 3.40625 299.554688 0.015625 296.742188 0 293.273438 L 0 283.753906 C 0.015625 280.285156 3.40625 277.472656 7.597656 277.460938 L 14.191406 277.460938 C 18.382812 277.472656 21.777344 280.285156 21.789062 283.753906 L 21.789062 284.796875 L 15.574219 284.796875 L 15.574219 283.753906 C 15.566406 283.125 14.953125 282.617188 14.191406 282.609375 L 7.597656 282.609375 C 6.839844 282.617188 6.222656 283.125 6.214844 283.753906 L 6.214844 293.273438 C 6.222656 293.902344 6.839844 294.410156 7.597656 294.417969 L 15.574219 294.417969 L 15.574219 292.390625 L 11.867188 292.390625 L 11.867188 287.238281 L 21.789062 287.238281 Z M 21.789062 299.566406 "/>
<path style=" stroke:none;fill-rule:nonzero;fill:rgb(7.058824%,9.019608%,24.705882%);fill-opacity:1;" d="M 292.0625 299.566406 L 285.40625 299.566406 C 281.214844 299.554688 277.820312 296.742188 277.808594 293.273438 L 277.808594 292.492188 L 284.023438 292.492188 L 284.023438 293.273438 C 284.03125 293.902344 284.644531 294.410156 285.40625 294.417969 L 292.0625 294.417969 C 292.820312 294.410156 293.4375 293.902344 293.441406 293.273438 L 293.441406 292.335938 L 281.886719 289.789062 C 279.5 289.167969 277.871094 287.335938 277.871094 285.261719 L 277.871094 283.910156 C 277.867188 280.347656 281.355469 277.460938 285.65625 277.460938 L 292.125 277.460938 C 296.316406 277.472656 299.707031 280.285156 299.722656 283.753906 L 299.722656 284.792969 L 293.503906 284.792969 L 293.503906 283.753906 C 293.5 283.125 292.882812 282.617188 292.125 282.609375 L 285.65625 282.609375 C 285.238281 282.605469 284.835938 282.742188 284.542969 282.988281 C 284.246094 283.230469 284.082031 283.566406 284.085938 283.910156 L 284.085938 284.949219 L 295.640625 287.5 C 298.03125 288.117188 299.65625 289.949219 299.660156 292.023438 L 299.660156 293.273438 C 299.664062 294.941406 298.863281 296.546875 297.4375 297.726562 C 296.011719 298.90625 294.078125 299.570312 292.0625 299.566406 "/>
<path style=" stroke:none;fill-rule:nonzero;fill:rgb(7.058824%,9.019608%,24.705882%);fill-opacity:1;" d="M 286.03125 269.453125 L 262.988281 269.453125 L 262.988281 256.605469 L 274.226562 256.605469 L 274.226562 260.191406 L 286.03125 260.191406 C 286.71875 260.199219 287.378906 259.976562 287.863281 259.574219 C 288.347656 259.175781 288.613281 258.628906 288.609375 258.0625 L 288.609375 256.1875 L 270.269531 251.507812 C 265.949219 250.429688 262.988281 247.132812 262.988281 243.394531 L 262.988281 240.480469 C 262.988281 234.160156 269.171875 229.039062 276.800781 229.039062 L 299.847656 229.039062 L 299.847656 242.40625 L 288.609375 242.40625 L 288.609375 238.347656 L 276.800781 238.347656 C 276.117188 238.339844 275.457031 238.5625 274.972656 238.964844 C 274.488281 239.367188 274.21875 239.914062 274.226562 240.480469 L 274.226562 242.820312 L 292.5 247.449219 C 296.878906 248.535156 299.871094 251.882812 299.847656 255.667969 L 299.847656 258.007812 C 299.824219 264.320312 293.652344 269.433594 286.03125 269.453125 "/>
<path style=" stroke:none;fill-rule:nonzero;fill:rgb(36.470589%,46.27451%,66.274512%);fill-opacity:1;" d="M 286.03125 265.1875 L 268.136719 265.1875 L 268.136719 256.550781 L 269.078125 256.550781 L 269.078125 264.40625 L 286.03125 264.40625 C 288.082031 264.40625 290.046875 263.734375 291.496094 262.535156 C 292.945312 261.332031 293.757812 259.707031 293.757812 258.007812 L 293.757812 255.667969 C 293.742188 254.089844 292.5 252.703125 290.679688 252.234375 L 271.777344 247.398438 C 269.613281 246.863281 268.132812 245.210938 268.136719 243.339844 L 268.136719 240.429688 C 268.144531 236.46875 272.019531 233.257812 276.800781 233.25 L 294.699219 233.25 L 294.699219 242.351562 L 293.695312 242.351562 L 293.695312 234.03125 L 276.738281 234.03125 C 274.691406 234.03125 272.726562 234.703125 271.277344 235.902344 C 269.828125 237.101562 269.015625 238.730469 269.015625 240.429688 L 269.015625 243.339844 C 269.007812 244.867188 270.203125 246.21875 271.96875 246.667969 L 290.867188 251.507812 C 293.070312 252.070312 294.574219 253.757812 294.574219 255.667969 L 294.574219 258.007812 C 294.617188 259.90625 293.738281 261.738281 292.128906 263.089844 C 290.523438 264.441406 288.324219 265.195312 286.03125 265.1875 "/>
<path style=" stroke:none;fill-rule:nonzero;fill:rgb(43.921569%,44.705883%,44.313726%);fill-opacity:1;" d="M 268.511719 49.75 C 271.699219 44.96875 273.402344 39.609375 273.472656 34.148438 C 273.179688 22.851562 266.207031 12.390625 254.824219 6.164062 C 239.628906 -2.367188 216.894531 -3.5625 200.757812 12.40625 C 183.578125 10.582031 166.125 12.386719 150.019531 17.660156 C 133.914062 12.382812 116.457031 10.574219 99.28125 12.40625 C 83.140625 -3.5625 60.347656 -2.367188 45.210938 6.164062 C 33.808594 12.375 26.828125 22.84375 26.5625 34.148438 C 26.664062 39.605469 28.367188 44.960938 31.523438 49.75 C 19.339844 64.261719 10.925781 81.53125 10.925781 99.058594 C 10.925781 120.175781 21.851562 131.097656 25.933594 135.78125 L 29.199219 133.074219 C 40.753906 157.417969 60.472656 170.523438 84.335938 182.433594 C 84.335938 182.433594 84.835938 180.042969 85.339844 177.859375 C 111.023438 196.269531 123.265625 191.746094 149.957031 216.761719 C 176.582031 191.847656 189.140625 196.113281 214.570312 177.859375 C 215.074219 179.988281 215.578125 182.433594 215.578125 182.433594 C 226.1875 177.128906 256.140625 163.8125 270.710938 133.074219 L 273.976562 135.78125 C 276.488281 132.917969 288.984375 121.371094 288.984375 99.058594 C 289.109375 81.53125 280.695312 64.316406 268.511719 49.75 "/>
<path style=" stroke:none;fill-rule:nonzero;fill:rgb(7.058824%,9.019608%,24.705882%);fill-opacity:1;" d="M 261.167969 50.0625 C 285.65625 18.90625 230.082031 -13.496094 203.207031 17.867188 C 185.214844 15.429688 166.761719 17.304688 150.019531 23.277344 C 133.277344 17.304688 114.820312 15.429688 96.832031 17.867188 C 69.890625 -13.496094 14.378906 18.90625 38.871094 50.0625 C 10.988281 81.789062 13.753906 113.101562 26.6875 127.820312 L 32.027344 123.402344 C 32.027344 123.402344 39.625 153.984375 79.8125 174.113281 L 81.257812 167.507812 C 106 189.402344 128.605469 188.882812 149.957031 208.910156 C 171.304688 188.9375 193.914062 189.402344 218.652344 167.507812 L 220.097656 174.113281 C 260.285156 154.035156 267.886719 123.402344 267.886719 123.402344 L 273.222656 127.820312 C 286.347656 113.050781 289.109375 81.84375 261.167969 50.0625 "/>
<path style=" stroke:none;fill-rule:nonzero;fill:rgb(36.470589%,46.27451%,66.274512%);fill-opacity:1;" d="M 150.269531 166.519531 C 150.269531 166.519531 130.992188 166.777344 128.101562 168.234375 C 128.101562 168.234375 124.773438 172.96875 150.269531 172.917969 C 174.507812 172.8125 170.929688 169.171875 171.117188 168.597656 C 164.3125 167.128906 157.300781 166.429688 150.269531 166.519531 "/>
<path style=" stroke:none;fill-rule:nonzero;fill:rgb(36.470589%,46.27451%,66.274512%);fill-opacity:1;" d="M 133.566406 147.949219 C 133.566406 147.949219 136.578125 140.71875 139.78125 143.007812 C 144.242188 146.183594 150.019531 152.632812 150.019531 153.308594 L 150.019531 161.890625 L 142.984375 162.203125 C 137.238281 162.828125 131.535156 163.710938 125.90625 164.855469 C 107.945312 128.03125 117.929688 100.203125 122.703125 90.214844 C 104.929688 93.390625 102.042969 75.707031 102.042969 75.707031 C 104.722656 75.609375 107.382812 76.152344 109.703125 77.265625 C 114.949219 79.503906 119.914062 82.171875 124.523438 85.222656 C 125.84375 86.054688 127.035156 86.886719 128.164062 87.667969 C 140.285156 96.09375 150.082031 94.378906 150.082031 94.378906 L 150.082031 130.421875 C 150.019531 130.472656 114.726562 128.1875 133.566406 147.949219 "/>
<path style=" stroke:none;fill-rule:nonzero;fill:rgb(36.470589%,46.27451%,66.274512%);fill-opacity:1;" d="M 166.660156 147.949219 C 189.140625 129.070312 152.46875 130.164062 150.144531 130.472656 C 153.910156 130.628906 182.296875 130.785156 166.660156 147.949219 "/>
<path style=" stroke:none;fill-rule:nonzero;fill:rgb(36.470589%,46.27451%,66.274512%);fill-opacity:1;" d="M 181.542969 90.839844 C 201.761719 135.9375 176.140625 164.957031 175.953125 165.113281 C 191.839844 130.578125 181.667969 101.917969 174.695312 91.257812 C 172.085938 91.441406 169.464844 91.476562 166.847656 91.359375 C 169.957031 89.761719 172.917969 87.972656 175.703125 86.003906 C 175.953125 85.796875 176.203125 85.640625 176.519531 85.378906 C 180.957031 81.996094 186.082031 79.285156 191.652344 77.371094 C 194.136719 76.570312 196.730469 76.03125 199.375 75.757812 C 199.375 75.757812 197.492188 90.632812 181.542969 90.839844 "/>
<path style=" stroke:none;fill-rule:nonzero;fill:rgb(36.470589%,46.27451%,66.274512%);fill-opacity:1;" d="M 213.566406 32.484375 C 213.566406 32.484375 221.792969 15.421875 247.101562 19.53125 C 247.101562 19.53125 223.867188 6.894531 207.726562 29.726562 C 207.726562 29.726562 184.554688 20.726562 150.019531 33.105469 C 150.019531 33.105469 117.554688 23.640625 92.875 29 C 92.875 29 78.496094 8.296875 58.210938 16.828125 C 37.929688 25.355469 48.539062 45.019531 52.058594 50.167969 C 52.058594 50.167969 18.460938 78.515625 31.082031 113.519531 L 37.867188 106.546875 C 37.867188 106.546875 47.535156 144.726562 72.402344 156.742188 L 73.910156 147.378906 C 73.910156 147.378906 99.90625 173.332031 130.425781 184.359375 C 133.316406 185.503906 149.515625 192.160156 150.019531 195.4375 L 150.019531 177.285156 C 150.019531 177.285156 128.855469 178.742188 123.203125 170.628906 C 119.375 165.113281 95.007812 129.121094 107.066406 91.414062 C 107.066406 91.414062 95.324219 89.957031 93.125 73.574219 C 86.964844 71.335938 80.242188 70.371094 73.535156 70.765625 C 73.535156 70.765625 92.9375 65.71875 111.148438 71.542969 C 129.359375 77.371094 134.257812 92.246094 146.566406 85.691406 L 149.957031 43.820312 L 153.660156 85.691406 C 165.96875 92.246094 170.867188 77.421875 189.078125 71.542969 C 207.289062 65.71875 226.753906 70.765625 226.753906 70.765625 C 220.554688 67.523438 213.675781 65.285156 206.472656 64.160156 C 196.046875 62.441406 180.726562 67.957031 180.726562 67.957031 C 180.726562 67.957031 182.859375 56.097656 189.832031 49.75 C 195.859375 44.289062 209.421875 43.09375 213.566406 32.484375 Z M 56.453125 46.890625 C 55.699219 41.167969 64.429688 35.550781 64.429688 35.550781 C 60.847656 32.484375 54.570312 35.136719 54.570312 35.136719 C 60.222656 25.929688 72.96875 30.453125 72.96875 30.453125 C 68.132812 25.566406 57.960938 25.878906 57.960938 25.878906 C 70.582031 15.476562 85.839844 31.339844 85.839844 31.339844 C 72.277344 33.886719 56.453125 46.890625 56.453125 46.890625 Z M 56.453125 46.890625 "/>
<path style=" stroke:none;fill-rule:nonzero;fill:rgb(100%,73.333335%,13.333334%);fill-opacity:1;" d="M 124.523438 85.277344 C 122.578125 84.753906 119.375 86.417969 117.554688 89.332031 C 111.523438 87.875 109.453125 82.46875 109.703125 77.316406 C 114.949219 79.554688 119.914062 82.222656 124.523438 85.277344 "/>
<path style=" stroke:none;fill-rule:nonzero;fill:rgb(100%,73.333335%,13.333334%);fill-opacity:1;" d="M 183.800781 89.332031 C 181.917969 86.265625 178.464844 84.597656 176.519531 85.378906 C 180.957031 81.996094 186.082031 79.285156 191.652344 77.371094 C 191.902344 82.519531 189.832031 87.929688 183.800781 89.332031 "/>
</g>
</svg>
