<?xml version="1.0" encoding="UTF-8"?>
<svg xmlns="http://www.w3.org/2000/svg" xmlns:xlink="http://www.w3.org/1999/xlink" width="300px" height="300px" viewBox="0 0 300 300" version="1.1">
<g id="surface1">
<path style=" stroke:none;fill-rule:nonzero;fill:rgb(13.725491%,21.568628%,35.686275%);fill-opacity:1;" d="M 84.496094 198.441406 L 84.496094 238.609375 C 86.761719 238.609375 110.203125 238.578125 110.203125 238.578125 L 110.203125 233.625 L 89.515625 233.671875 L 89.515625 196.996094 L 110.203125 196.996094 L 110.203125 191.796875 L 82.050781 191.839844 Z M 142.695312 198.441406 C 142.695312 198.441406 139.65625 198.421875 135.855469 198.417969 L 135.855469 238.742188 L 140.144531 238.742188 L 140.144531 203.023438 L 141.683594 202.984375 C 142.578125 202.984375 143.292969 203.957031 143.292969 205.144531 L 143.285156 238.789062 L 147.875 238.789062 L 147.875 204.8125 C 147.875 200.429688 145.480469 198.441406 142.695312 198.441406 M 121.367188 238.789062 L 125.714844 238.789062 L 125.714844 203.023438 L 129.300781 203.023438 L 129.300781 238.742188 L 133.78125 238.742188 L 133.78125 198.417969 C 128.394531 198.390625 122.382812 198.375 121.367188 198.367188 Z M 67.128906 186.011719 C 67.128906 186.011719 63.710938 186.011719 59.464844 185.992188 L 59.464844 238.464844 L 64.308594 238.464844 L 64.308594 191.191406 L 66.019531 191.152344 C 66.988281 191.152344 67.789062 192.210938 67.789062 193.519531 L 67.757812 238.5 L 73.117188 238.5 L 73.117188 193.148438 C 73.117188 188.476562 70.332031 186.011719 67.128906 186.011719 M 91.574219 214.214844 L 105.089844 214.214844 L 105.089844 209.464844 L 95.972656 209.464844 L 95.972656 203.878906 L 110.203125 203.878906 L 110.203125 199.0625 L 91.574219 199.0625 Z M 143.410156 192.019531 L 112.25 192.019531 L 114.878906 199.101562 L 114.878906 238.789062 L 119.296875 238.789062 L 119.296875 196.296875 L 142.695312 196.363281 C 146.59375 196.363281 149.957031 199.265625 149.957031 204.8125 L 149.957031 238.789062 L 154.117188 238.789062 L 154.078125 201.941406 C 154.074219 195.6875 148.78125 192.019531 143.410156 192.019531 M 203.863281 210.207031 L 198.34375 210.207031 L 198.34375 191.683594 L 194.0625 191.691406 L 194.0625 213.789062 L 208.636719 213.789062 L 208.636719 191.671875 L 203.863281 191.671875 Z M 95.972656 221.28125 L 105.089844 221.28125 L 105.089844 216.273438 L 91.574219 216.273438 L 91.574219 231.601562 C 93.238281 231.59375 107.171875 231.5625 110.203125 231.550781 L 110.203125 227.121094 L 95.972656 227.105469 Z M 43.503906 238.5 L 48.394531 238.5 L 48.394531 191.191406 L 52.363281 191.191406 L 52.363281 238.464844 L 57.390625 238.464844 L 57.390625 185.992188 C 51.351562 185.96875 44.539062 185.960938 43.503906 185.949219 Z M 67.917969 179.046875 L 33.566406 179.046875 L 36.460938 186.855469 L 36.460938 238.5 L 41.433594 238.5 L 41.433594 183.878906 L 67.128906 183.953125 C 71.367188 183.953125 75.1875 187.125 75.1875 193.148438 L 75.1875 238.5 L 79.714844 238.5 L 79.671875 189.988281 C 79.671875 183.101562 73.84375 179.046875 67.917969 179.046875 M 227.136719 191.78125 L 227.136719 238.886719 L 232.203125 238.886719 L 232.195312 191.78125 Z M 219.992188 199.460938 L 220.003906 238.886719 L 225.074219 238.886719 L 225.074219 191.78125 L 217.164062 191.78125 Z M 248.644531 214.257812 C 253.042969 214.257812 252.371094 217.0625 252.371094 219.949219 L 252.371094 224.847656 C 252.371094 226.019531 251.578125 226.960938 250.617188 226.960938 L 249.914062 226.960938 C 248.953125 226.960938 248.164062 226.019531 248.164062 224.847656 L 248.164062 219.082031 L 242.855469 219.082031 L 242.855469 224.179688 C 242.855469 227.296875 242.855469 232.007812 250.011719 232.007812 C 257.460938 232.007812 257.738281 226.410156 257.75 226.203125 L 257.75 215.496094 C 257.75 210.429688 255.101562 209.96875 250.800781 209.65625 C 249.507812 209.554688 248.183594 209.453125 247.011719 209.136719 C 241.9375 207.734375 241.320312 204.210938 241.085938 202.886719 C 240.925781 202.011719 240.976562 195.046875 241 192.820312 C 240.988281 192.585938 240.796875 189.351562 243.039062 186.90625 C 244.609375 185.183594 246.933594 184.320312 249.957031 184.320312 C 253.179688 184.320312 255.667969 185.261719 257.363281 187.132812 C 259.445312 189.417969 259.660156 192.382812 259.660156 193.515625 C 259.660156 193.738281 259.648438 193.863281 259.648438 193.941406 L 259.648438 198.386719 L 265.105469 198.386719 L 265.105469 190.835938 C 265.105469 183.671875 259.328125 178.890625 251.78125 178.890625 L 249.328125 178.890625 C 241.898438 178.890625 235.183594 182.796875 235.183594 191.015625 L 235.183594 202.011719 C 235.183594 210.117188 242.699219 214.257812 248.644531 214.257812 M 174.175781 192.039062 L 155.824219 192.039062 L 158.367188 199.0625 L 158.367188 238.890625 L 162.527344 238.890625 L 162.527344 196.21875 L 173.480469 196.21875 C 177.390625 196.21875 181.359375 198.980469 181.359375 203.957031 L 181.359375 209.003906 C 181.359375 213.96875 177.386719 216.570312 173.480469 216.570312 L 164.601562 216.570312 L 164.601562 238.890625 L 169.351562 238.890625 L 169.351562 220.363281 C 169.351562 220.363281 175.210938 220.253906 175.230469 220.253906 C 181.753906 220.253906 185.277344 214.472656 185.277344 209.007812 L 185.40625 202.078125 C 185.40625 195.554688 179.609375 192.039062 174.175781 192.039062 M 253.703125 203.09375 L 251.386719 202.972656 C 249.273438 202.972656 248.058594 202.074219 248.058594 199.867188 L 248.058594 193.632812 C 248.058594 192.460938 248.835938 191.519531 249.785156 191.519531 L 250.492188 191.519531 C 251.453125 191.519531 252.242188 192.460938 252.242188 193.632812 L 252.242188 198.390625 L 257.632812 198.390625 L 257.632812 193.832031 C 257.644531 193.800781 257.835938 190.660156 255.871094 188.507812 C 254.566406 187.089844 252.582031 186.363281 249.957031 186.363281 C 247.523438 186.363281 245.695312 187.015625 244.523438 188.285156 C 242.855469 190.101562 243.019531 192.640625 243.019531 192.679688 L 243.019531 192.761719 C 242.996094 197.066406 242.996094 201.9375 243.070312 202.519531 C 243.285156 203.683594 243.722656 206.101562 247.542969 207.160156 C 248.515625 207.425781 249.699219 207.515625 250.9375 207.605469 C 254.664062 207.875 259.765625 208.257812 259.765625 215.496094 L 259.765625 226.230469 C 259.765625 226.308594 259.457031 234.046875 250.011719 234.046875 C 240.839844 234.046875 240.839844 227.136719 240.839844 224.179688 L 240.839844 219.082031 L 235.300781 219.082031 L 235.300781 226.605469 C 235.300781 235.574219 242.132812 238.988281 248.410156 238.988281 L 251.621094 238.988281 C 259.492188 238.988281 265.230469 234.132812 265.230469 226.316406 L 265.230469 214.628906 C 265.230469 206.128906 259.511719 203.09375 253.703125 203.09375 M 187.1875 198.960938 L 187.1875 239.179688 L 192.023438 239.179688 L 192.023438 191.691406 L 184.59375 191.703125 Z M 179.289062 209.007812 L 179.289062 203.957031 C 179.289062 200.171875 176.277344 198.289062 173.480469 198.289062 L 164.601562 198.289062 L 164.601562 214.503906 L 173.480469 214.503906 C 176.277344 214.503906 179.289062 212.785156 179.289062 209.007812 M 169.351562 210.234375 L 169.351562 202.238281 L 172.277344 202.238281 C 173.75 202.238281 174.933594 203.679688 174.933594 205.453125 L 174.933594 207.027344 C 174.933594 208.824219 173.769531 210.234375 172.277344 210.234375 Z M 210.707031 239.179688 L 215.0625 239.179688 L 215.0625 191.671875 L 210.707031 191.671875 Z M 194.0625 239.179688 L 198.34375 239.179688 L 198.34375 220.449219 L 203.863281 220.449219 L 203.863281 239.179688 L 208.636719 239.179688 L 208.636719 215.847656 L 194.0625 215.847656 Z M 194.0625 239.179688 "/>
<path style=" stroke:none;fill-rule:nonzero;fill:rgb(38.039216%,53.725493%,72.549021%);fill-opacity:1;" d="M 119.296875 238.789062 L 119.296875 196.296875 L 142.695312 196.363281 C 146.585938 196.363281 149.957031 199.265625 149.957031 204.8125 L 149.957031 238.789062 L 147.875 238.789062 L 147.875 204.8125 C 147.875 200.429688 145.484375 198.441406 142.699219 198.441406 C 142.699219 198.441406 139.65625 198.421875 135.855469 198.417969 L 135.855469 238.742188 L 133.785156 238.742188 L 133.785156 198.417969 C 128.394531 198.390625 122.382812 198.375 121.371094 198.371094 L 121.371094 238.789062 Z M 110.203125 199.0625 L 91.574219 199.0625 L 91.574219 214.214844 L 105.089844 214.214844 L 105.089844 216.277344 L 91.574219 216.277344 L 91.574219 231.601562 C 93.238281 231.59375 107.171875 231.5625 110.203125 231.550781 L 110.203125 233.625 L 89.515625 233.671875 L 89.515625 196.996094 L 110.203125 196.996094 Z M 41.433594 238.5 L 41.433594 183.878906 L 67.128906 183.953125 C 71.367188 183.953125 75.1875 187.125 75.1875 193.148438 L 75.1875 238.5 L 73.117188 238.5 L 73.117188 193.148438 C 73.117188 188.476562 70.328125 186.011719 67.125 186.011719 C 67.125 186.011719 63.710938 186.011719 59.460938 185.992188 L 59.460938 238.464844 L 57.390625 238.464844 L 57.390625 185.992188 C 51.347656 185.96875 44.539062 185.960938 43.503906 185.949219 L 43.503906 238.5 Z M 225.074219 191.78125 L 227.136719 191.78125 L 227.136719 238.886719 L 225.074219 238.886719 Z M 162.527344 238.890625 L 162.527344 196.21875 L 173.480469 196.21875 C 177.390625 196.21875 181.359375 198.980469 181.359375 203.957031 L 181.359375 209.003906 C 181.359375 213.96875 177.386719 216.570312 173.480469 216.570312 L 164.601562 216.570312 L 164.601562 238.890625 Z M 242.859375 219.082031 L 242.859375 224.179688 C 242.859375 227.296875 242.859375 232.007812 250.011719 232.007812 C 257.460938 232.007812 257.738281 226.410156 257.75 226.203125 L 257.75 215.496094 C 257.75 210.429688 255.101562 209.96875 250.800781 209.65625 C 249.507812 209.554688 248.183594 209.453125 247.011719 209.136719 C 241.941406 207.734375 241.324219 204.210938 241.085938 202.886719 C 240.925781 202.011719 240.980469 195.046875 241 192.820312 C 240.988281 192.585938 240.796875 189.351562 243.039062 186.90625 C 244.609375 185.183594 246.9375 184.320312 249.957031 184.320312 C 253.183594 184.320312 255.667969 185.261719 257.367188 187.132812 C 259.445312 189.417969 259.660156 192.382812 259.660156 193.515625 C 259.660156 193.738281 259.648438 193.863281 259.648438 193.941406 L 259.648438 198.386719 L 257.632812 198.386719 L 257.632812 193.828125 C 257.644531 193.796875 257.835938 190.660156 255.871094 188.507812 C 254.566406 187.085938 252.582031 186.359375 249.957031 186.359375 C 247.523438 186.359375 245.695312 187.011719 244.523438 188.285156 C 242.855469 190.097656 243.019531 192.640625 243.019531 192.675781 L 243.019531 192.761719 C 242.996094 197.0625 242.996094 201.9375 243.070312 202.519531 C 243.285156 203.683594 243.722656 206.097656 247.542969 207.15625 C 248.515625 207.421875 249.699219 207.511719 250.9375 207.605469 C 254.664062 207.871094 259.765625 208.253906 259.765625 215.492188 L 259.765625 226.226562 C 259.765625 226.304688 259.457031 234.046875 250.011719 234.046875 C 240.839844 234.046875 240.839844 227.132812 240.839844 224.175781 L 240.839844 219.078125 L 242.859375 219.078125 Z M 179.289062 209.007812 L 179.289062 203.957031 C 179.289062 200.171875 176.277344 198.289062 173.480469 198.289062 L 164.601562 198.289062 L 164.601562 214.503906 L 173.480469 214.503906 C 176.277344 214.503906 179.289062 212.785156 179.289062 209.007812 M 192.023438 239.179688 L 192.023438 191.691406 L 194.0625 191.691406 L 194.0625 213.789062 L 208.636719 213.789062 L 208.636719 191.671875 L 210.707031 191.671875 L 210.707031 239.179688 L 208.636719 239.179688 L 208.636719 215.847656 L 194.0625 215.847656 L 194.0625 239.179688 Z M 192.023438 239.179688 "/>
<path style=" stroke:none;fill-rule:nonzero;fill:rgb(13.725491%,21.568628%,35.686275%);fill-opacity:1;" d="M 231.90625 48.6875 C 231.171875 47.554688 230.421875 46.492188 229.664062 45.4375 C 248.410156 14.699219 204.175781 -8.867188 188.152344 17.21875 C 168.421875 13.589844 151.941406 20.796875 149.71875 21.835938 C 147.511719 20.804688 131.210938 13.6875 111.683594 17.148438 C 92.332031 -10.070312 52.417969 18.058594 70.019531 45.085938 C 69.175781 46.246094 68.347656 47.433594 67.511719 48.6875 C 42.511719 86.757812 61.289062 112.554688 61.289062 112.554688 L 65.132812 108.710938 C 65.132812 108.710938 70.597656 135.25 99.484375 152.6875 L 100.53125 146.964844 C 118.3125 165.960938 134.785156 165.515625 150.136719 182.875 C 164.324219 166.433594 184.9375 166.433594 200.980469 145.925781 L 200.980469 153.210938 C 230.65625 138.765625 233.367188 107.539062 233.367188 107.539062 L 236.109375 112.605469 C 236.113281 112.605469 256.925781 86.753906 231.90625 48.6875 "/>
<path style=" stroke:none;fill-rule:nonzero;fill:rgb(99.215686%,72.156864%,15.294118%);fill-opacity:1;" d="M 169 75.652344 C 170.398438 75.144531 172.851562 76.613281 174.164062 79.167969 C 180.175781 77.417969 179.855469 69.316406 179.820312 68.742188 C 175.035156 70.597656 171.101562 73.796875 169 75.652344 "/>
<path style=" stroke:none;fill-rule:nonzero;fill:rgb(38.039216%,53.725493%,72.549021%);fill-opacity:1;" d="M 149.953125 114.835938 C 151.609375 114.574219 177.964844 113.621094 161.824219 130.003906 C 173.074219 115.097656 152.667969 114.988281 149.953125 114.835938 M 195.546875 29.816406 C 195.546875 29.816406 201.472656 15 219.628906 18.582031 C 219.628906 18.582031 202.964844 7.605469 191.363281 27.453125 C 191.363281 27.453125 174.902344 19.636719 150.070312 30.363281 C 150.070312 30.363281 126.554688 22.164062 108.824219 26.8125 C 108.824219 26.8125 98.492188 8.867188 83.929688 16.261719 C 69.378906 23.644531 76.960938 40.738281 79.5 45.164062 C 79.5 45.164062 55.363281 69.742188 64.4375 100.140625 L 69.296875 94.085938 C 69.296875 94.085938 76.210938 127.179688 94.113281 137.613281 L 95.179688 129.476562 C 95.179688 129.476562 113.851562 152.003906 135.808594 161.570312 C 137.882812 162.546875 149.546875 168.328125 149.902344 171.183594 L 149.902344 155.417969 C 149.902344 155.417969 134.644531 156.6875 130.632812 149.660156 C 127.898438 144.878906 110.402344 113.644531 119.050781 80.925781 C 119.050781 80.925781 110.625 79.671875 109.035156 65.457031 C 109.035156 65.457031 102.75 62.402344 94.945312 63.035156 C 94.945312 63.035156 108.910156 58.664062 122.007812 63.714844 C 135.082031 68.789062 138.585938 81.679688 147.457031 75.980469 L 150.070312 39.65625 L 152.570312 75.980469 C 161.441406 81.679688 164.941406 68.785156 178.019531 63.714844 C 191.117188 58.664062 205.070312 63.035156 205.070312 63.035156 C 205.070312 63.035156 199.496094 59.09375 190.519531 57.304688 C 183.015625 55.800781 171.996094 60.621094 171.996094 60.621094 C 171.996094 60.621094 173.523438 50.3125 178.53125 44.808594 C 182.824219 40.089844 192.535156 39.050781 195.546875 29.816406 M 82.640625 42.332031 C 82.105469 37.386719 88.359375 32.492188 88.359375 32.492188 C 85.789062 29.824219 81.28125 32.136719 81.28125 32.136719 C 85.359375 24.152344 94.507812 28.054688 94.507812 28.054688 C 91.050781 23.8125 83.695312 24.078125 83.695312 24.078125 C 92.789062 15.082031 103.742188 28.84375 103.742188 28.84375 C 93.976562 31.042969 82.640625 42.332031 82.640625 42.332031 M 179.824219 68.742188 C 179.75 68.773438 179.6875 68.800781 179.632812 68.824219 C 179.683594 68.800781 179.75 68.765625 179.824219 68.742188 M 172.542969 80.453125 C 187.125 119.683594 168.550781 144.878906 168.550781 144.878906 C 179.992188 114.949219 172.640625 90.046875 167.625 80.796875 C 165.070312 81.046875 161.988281 80.910156 161.988281 80.910156 C 161.988281 80.910156 165.839844 78.515625 168.347656 76.242188 C 168.542969 76.070312 168.765625 75.867188 169.023438 75.644531 C 169.023438 75.648438 169 75.648438 169 75.652344 C 170.398438 75.148438 172.855469 76.613281 174.167969 79.167969 C 180.175781 77.425781 179.855469 69.34375 179.824219 68.746094 C 181.566406 68.0625 183.445312 67.570312 185.363281 67.371094 C 185.363281 67.371094 183.988281 80.269531 172.542969 80.453125 "/>
<path style=" stroke:none;fill-rule:nonzero;fill:rgb(99.215686%,72.156864%,15.294118%);fill-opacity:1;" d="M 120.867188 68.726562 C 120.835938 69.320312 120.519531 77.425781 126.523438 79.164062 C 127.816406 76.65625 130.132812 75.207031 131.542969 75.636719 C 128.304688 73.140625 124.292969 70.359375 120.867188 68.726562 "/>
<path style=" stroke:none;fill-rule:nonzero;fill:rgb(73.333335%,81.960785%,89.411765%);fill-opacity:1;" d="M 149.902344 151.652344 C 131.519531 151.652344 133.984375 147.605469 133.984375 147.605469 C 135.980469 146.367188 148.84375 146.113281 149.882812 146.113281 C 150.90625 146.113281 163.8125 146.367188 165.808594 147.605469 C 165.808594 147.605469 168.28125 151.652344 149.902344 151.652344 M 120.875 68.730469 C 120.875 68.730469 120.859375 68.726562 120.859375 68.722656 C 120.859375 68.726562 120.875 68.730469 120.875 68.730469 M 149.902344 134.636719 L 149.902344 142.09375 L 144.832031 142.359375 C 139.503906 142.515625 132.554688 144.683594 132.554688 144.683594 C 119.660156 112.742188 126.8125 88.570312 130.25 79.949219 C 117.460938 82.726562 115.398438 67.375 115.398438 67.375 C 116.726562 67.105469 118.667969 67.679688 120.863281 68.722656 C 120.835938 69.324219 120.527344 77.425781 126.527344 79.167969 C 127.816406 76.660156 130.125 75.207031 131.519531 75.628906 C 132.472656 76.371094 133.367188 77.085938 134.148438 77.742188 C 142.824219 85.0625 149.582031 83.570312 149.582031 83.570312 C 149.582031 83.570312 149.679688 111.414062 149.679688 114.835938 C 149.679688 114.835938 124.527344 112.871094 138.03125 129.992188 C 138.03125 129.992188 140.210938 123.734375 142.515625 125.710938 C 145.707031 128.457031 149.902344 134.046875 149.902344 134.636719 "/>
<path style=" stroke:none;fill-rule:nonzero;fill:rgb(38.039216%,53.725493%,72.549021%);fill-opacity:1;" d="M 93.589844 267.164062 L 93.304688 267.972656 C 92.972656 268.910156 92.074219 269.410156 91.277344 269.117188 L 89.652344 268.519531 L 91.148438 264.402344 L 92.792969 264.996094 C 93.570312 265.277344 93.933594 266.257812 93.589844 267.164062 M 95.703125 260.089844 L 85.90625 256.53125 L 85.925781 260.640625 L 78.464844 281.207031 L 84.261719 283.320312 L 87.742188 273.761719 L 89.503906 274.394531 C 90.015625 274.582031 90.21875 275.253906 89.984375 275.90625 L 86.929688 284.308594 L 92.683594 286.386719 L 95.835938 277.742188 C 96.324219 276.386719 96.164062 275.125 95.40625 274.203125 C 95.40625 274.203125 97.351562 273.867188 98.386719 270.996094 L 99.753906 267.441406 C 100.980469 264.070312 98.597656 261.144531 95.703125 260.089844 "/>
<path style=" stroke:none;fill-rule:nonzero;fill:rgb(38.039216%,53.725493%,72.549021%);fill-opacity:1;" d="M 215.648438 262.726562 L 213.621094 256.902344 L 199.136719 261.964844 L 201.558594 264.953125 L 208.816406 285.800781 C 209.972656 285.394531 222.117188 281.164062 222.117188 281.164062 L 220.046875 275.390625 L 212.714844 277.9375 C 212.511719 277.339844 211.519531 274.507812 211.519531 274.507812 L 216.214844 272.875 L 214.1875 266.988281 L 209.480469 268.613281 L 208.316406 265.277344 Z M 215.648438 262.726562 "/>
<path style=" stroke:none;fill-rule:nonzero;fill:rgb(38.039216%,53.725493%,72.549021%);fill-opacity:1;" d="M 175.03125 286.824219 L 173.128906 267.097656 L 165.390625 267.835938 L 167.324219 271.769531 L 169.371094 293.1875 L 184.542969 291.777344 L 183.988281 285.957031 Z M 175.03125 286.824219 "/>
<path style=" stroke:none;fill-rule:nonzero;fill:rgb(38.039216%,53.725493%,72.549021%);fill-opacity:1;" d="M 107.5 267.878906 L 106.976562 263.480469 L 114.398438 265.0625 L 109.175781 290.242188 L 103.113281 288.941406 Z M 107.5 267.878906 "/>
<path style=" stroke:none;fill-rule:nonzero;fill:rgb(38.039216%,53.725493%,72.549021%);fill-opacity:1;" d="M 187.777344 268.941406 L 185.515625 265.132812 L 192.953125 263.585938 L 198.34375 288.714844 L 192.292969 289.984375 Z M 187.777344 268.941406 "/>
<path style=" stroke:none;fill-rule:nonzero;fill:rgb(38.039216%,53.725493%,72.549021%);fill-opacity:1;" d="M 136.953125 268.066406 L 121.550781 266.449219 L 120.867188 273.589844 L 125.179688 272.511719 L 127.664062 272.769531 L 118.871094 291.988281 L 134.273438 293.519531 L 134.808594 287.703125 L 128.167969 287.003906 Z M 136.953125 268.066406 "/>
<path style=" stroke:none;fill-rule:nonzero;fill:rgb(38.039216%,53.725493%,72.549021%);fill-opacity:1;" d="M 158.335938 268.40625 L 142.835938 268.324219 L 142.867188 275.503906 L 147.039062 273.996094 L 149.570312 273.996094 L 142.707031 294 L 158.21875 294 L 158.164062 288.148438 L 151.492188 288.128906 Z M 158.335938 268.40625 "/>
<path style=" stroke:none;fill-rule:nonzero;fill:rgb(38.039216%,53.725493%,72.549021%);fill-opacity:1;" d="M 234.777344 265.324219 L 235.996094 267.15625 C 236.28125 267.601562 236.230469 268.132812 235.875 268.378906 L 235.097656 268.890625 C 234.734375 269.125 234.210938 268.976562 233.921875 268.535156 L 232.492188 266.371094 L 227.6875 269.5625 L 229.546875 272.382812 C 231.769531 275.734375 235.171875 275.320312 237.523438 273.757812 L 239.21875 272.628906 C 242.1875 270.675781 243.105469 267.441406 241.171875 264.527344 L 238.269531 260.148438 C 236.164062 256.980469 233.273438 257.257812 231.105469 258.699219 L 229.695312 259.570312 C 228.90625 260.089844 228.222656 260.054688 227.6875 259.242188 L 226.140625 256.90625 C 225.84375 256.46875 225.90625 255.925781 226.261719 255.679688 L 227.050781 255.175781 C 227.402344 254.941406 227.925781 255.09375 228.214844 255.523438 L 229.398438 257.300781 L 234.210938 254.113281 L 232.3125 251.300781 C 230.550781 248.609375 227.210938 248.265625 224.390625 250.136719 L 222.972656 251.089844 C 220.195312 252.921875 218.648438 256.046875 220.6875 259.113281 L 223.417969 263.226562 C 225.414062 266.25 229.257812 265.9375 231.480469 264.46875 C 233.496094 263.117188 234.074219 264.25 234.777344 265.324219 "/>
<path style=" stroke:none;fill-rule:nonzero;fill:rgb(38.039216%,53.725493%,72.549021%);fill-opacity:1;" d="M 70.308594 272.382812 C 68.226562 275.476562 64.535156 275.640625 62.015625 273.945312 L 59.429688 272.191406 C 56.910156 270.511719 55.683594 267.023438 57.753906 263.921875 L 66.1875 251.308594 C 68.269531 248.210938 71.972656 248.03125 74.484375 249.71875 L 77.078125 251.453125 C 79.597656 253.136719 80.855469 256.621094 78.785156 259.730469 L 77.109375 262.242188 L 71.972656 258.792969 L 73.03125 257.234375 C 73.414062 256.652344 73.394531 255.941406 72.976562 255.664062 L 72.15625 255.113281 C 71.738281 254.839844 71.078125 255.09375 70.683594 255.675781 C 70.683594 255.675781 70.277344 256.304688 69.648438 257.246094 C 68.492188 258.957031 63.488281 266.4375 63.488281 266.4375 C 63.101562 267.023438 63.113281 267.726562 63.53125 268.003906 L 64.351562 268.566406 C 64.757812 268.839844 65.429688 268.59375 65.824219 268.003906 L 67.714844 265.207031 L 66.828125 264.605469 L 69.210938 261.039062 L 75.242188 265.0625 Z M 70.308594 272.382812 "/>
</g>
</svg>
