<?xml version="1.0" encoding="UTF-8"?>
<svg xmlns="http://www.w3.org/2000/svg" xmlns:xlink="http://www.w3.org/1999/xlink" width="300px" height="300px" viewBox="0 0 300 300" version="1.1">
<g id="surface1">
<path style=" stroke:none;fill-rule:nonzero;fill:rgb(0%,0%,0%);fill-opacity:1;" d="M 38.519531 85.1875 C 39.421875 77.753906 76.140625 67.972656 135.898438 66.40625 C 128.398438 70.472656 123.417969 76.519531 122.039062 83.234375 L 121.5 86.363281 C 121.160156 88.398438 120.554688 90.40625 119.699219 92.363281 C 117.359375 96.667969 110.878906 100.320312 104.039062 102.929688 C 80.101562 100.839844 59.941406 97.058594 48.238281 92.492188 C 41.761719 90.144531 38.160156 87.40625 38.519531 85.1875 Z M 267.121094 82.972656 C 269.460938 84.796875 269.28125 85.972656 269.28125 86.363281 C 269.101562 88.449219 265.5 91.058594 259.378906 93.277344 C 246.601562 98.101562 224.640625 101.753906 198.71875 103.710938 C 199.941406 103.179688 201.203125 102.699219 202.5 102.277344 L 202.859375 102.144531 C 210.421875 99.929688 218.878906 97.449219 219.238281 88.449219 C 219.421875 87.015625 219.421875 82.710938 220.5 81.144531 C 221.941406 79.058594 225.539062 76.058594 228.601562 75.144531 L 223.378906 74.492188 L 222.660156 74.492188 C 224.253906 73.636719 225.550781 72.519531 226.441406 71.234375 C 247.679688 74.492188 261.898438 78.796875 267.121094 82.972656 Z M 293.039062 71.753906 C 282.058594 62.753906 257.21875 55.582031 225.539062 51.277344 C 225.539062 48.667969 227.878906 47.492188 231.839844 45.40625 C 234.164062 44.246094 236.390625 42.980469 238.5 41.625 C 248.761719 34.449219 236.699219 23.753906 236.339844 23.234375 L 229.679688 17.363281 L 231.300781 24.929688 C 232.378906 30.015625 229.859375 31.839844 221.941406 35.753906 C 221.0625 36.242188 220.222656 36.765625 219.421875 37.320312 C 219.992188 33.304688 219.628906 29.246094 218.339844 25.320312 C 216.898438 20.625 213.660156 18.667969 213.660156 18.667969 L 212.761719 25.582031 C 212.761719 25.710938 212.039062 31.058594 202.140625 37.582031 C 202.976562 36.875 203.757812 36.132812 204.480469 35.363281 C 209.339844 30.144531 207.898438 24.40625 206.28125 17.625 L 205.921875 16.1875 C 204.300781 9.277344 206.820312 4.839844 208.441406 4.058594 C 210.058594 2.625 213.300781 0.277344 213.300781 0.277344 C 213.300781 0.277344 211.679688 -0.246094 206.820312 0.144531 C 200.699219 0.796875 190.261719 3.535156 190.441406 9.667969 C 190.789062 12.21875 191.636719 14.722656 192.960938 17.101562 C 194.039062 19.582031 195.121094 21.929688 194.039062 22.972656 C 193.320312 23.882812 191.160156 24.667969 187.558594 25.1875 C 172.800781 27.144531 161.640625 31.972656 156.058594 39.015625 C 154.140625 41.351562 152.800781 43.910156 152.101562 46.582031 C 115.921875 46.710938 81.539062 49.972656 55.078125 55.839844 C 25.199219 62.492188 8.820312 71.625 7.558594 82.1875 C 6.839844 87.796875 10.441406 95.753906 29.519531 103.449219 L 29.339844 103.449219 L 34.738281 105.40625 L 37.621094 106.320312 C 47.527344 109.472656 57.835938 111.917969 68.398438 113.625 C 64.339844 115.277344 60.535156 117.246094 57.058594 119.492188 C 29.875 135.710938 20.484375 162.882812 33.90625 186.472656 C 47.328125 210.058594 80.425781 224.535156 115.480469 222.152344 C 150.539062 219.769531 179.34375 201.085938 186.480469 176.101562 C 192.960938 162.144531 192.238281 147.144531 191.878906 141.40625 C 191.160156 128.492188 199.980469 121.320312 205.558594 118.1875 C 230.761719 115.839844 253.261719 111.796875 269.820312 106.449219 L 272.519531 105.535156 L 278.28125 103.582031 L 278.101562 103.449219 C 291.601562 97.972656 299.160156 91.710938 299.878906 84.929688 C 300.601562 80.234375 298.261719 75.796875 293.039062 71.753906 Z M 293.039062 71.753906 "/>
<path style=" stroke:none;fill-rule:nonzero;fill:rgb(0%,0%,0%);fill-opacity:1;" d="M 79.921875 262.058594 L 90.179688 231.929688 L 73.261719 231.929688 L 63 262.058594 Z M 79.921875 262.058594 "/>
<path style=" stroke:none;fill-rule:nonzero;fill:rgb(0%,0%,0%);fill-opacity:1;" d="M 116.820312 239.234375 L 117.898438 251.625 L 109.078125 251.625 L 117.898438 262.058594 L 133.378906 262.058594 L 131.039062 231.929688 L 105.660156 231.929688 C 105.660156 231.929688 84.78125 262.058594 84.960938 262.058594 L 101.160156 262.058594 Z M 116.820312 239.234375 "/>
<path style=" stroke:none;fill-rule:nonzero;fill:rgb(0%,0%,0%);fill-opacity:1;" d="M 77.761719 289.972656 L 74.160156 300.277344 L 90 300.277344 L 100.261719 270.015625 L 84.421875 270.015625 L 80.640625 281.753906 L 68.761719 281.753906 L 72.539062 270.015625 L 56.699219 270.015625 L 46.441406 300.277344 L 62.28125 300.277344 L 65.699219 289.972656 Z M 77.761719 289.972656 "/>
<path style=" stroke:none;fill-rule:nonzero;fill:rgb(0%,0%,0%);fill-opacity:1;" d="M 115.558594 293.363281 L 116.640625 289.320312 L 136.261719 289.320312 L 138.78125 282.667969 L 119.160156 282.667969 L 120.421875 278.234375 L 140.039062 278.234375 L 143.101562 270.015625 L 107.460938 270.015625 L 97.019531 300.277344 L 132.660156 300.277344 L 135.179688 293.363281 Z M 115.558594 293.363281 "/>
<path style=" stroke:none;fill-rule:nonzero;fill:rgb(0%,0%,0%);fill-opacity:1;" d="M 217.441406 262.058594 L 227.699219 231.929688 L 210.78125 231.929688 L 200.519531 262.058594 Z M 217.441406 262.058594 "/>
<path style=" stroke:none;fill-rule:nonzero;fill:rgb(0%,0%,0%);fill-opacity:1;" d="M 245.339844 255.277344 C 247.679688 257.492188 250.199219 261.929688 239.761719 265.320312 C 227.519531 269.363281 239.761719 279.535156 223.199219 279.535156 L 216.359375 279.535156 L 209.339844 300.277344 L 192.421875 300.277344 L 199.261719 279.535156 L 187.738281 279.535156 L 191.339844 270.015625 L 220.859375 270.015625 C 238.140625 270.015625 225.898438 261.277344 234.898438 260.101562 C 241.019531 259.320312 244.800781 258.535156 245.339844 255.277344 Z M 245.339844 255.277344 "/>
<path style=" stroke:none;fill-rule:nonzero;fill:rgb(0%,0%,0%);fill-opacity:1;" d="M 33.839844 247.449219 L 31.140625 231.929688 L 10.261719 231.929688 L 0 262.058594 L 15.480469 262.058594 L 21.058594 246.277344 L 21.238281 246.277344 L 24.300781 262.058594 L 33.300781 262.058594 L 45.898438 246.277344 L 46.078125 246.277344 L 41.039062 262.058594 L 55.621094 262.058594 L 65.878906 231.929688 L 45.898438 231.929688 Z M 33.839844 247.449219 "/>
<path style=" stroke:none;fill-rule:nonzero;fill:rgb(0%,0%,0%);fill-opacity:1;" d="M 171.539062 247.449219 L 168.839844 231.929688 L 147.960938 231.929688 L 137.699219 262.058594 L 153.179688 262.058594 L 158.761719 246.277344 L 158.941406 246.277344 L 162 262.058594 L 171 262.058594 L 183.601562 246.277344 L 183.78125 246.277344 L 178.738281 262.058594 L 193.320312 262.058594 L 203.761719 231.929688 L 183.601562 231.929688 L 171.71875 247.449219 Z M 171.539062 247.449219 "/>
<path style=" stroke:none;fill-rule:nonzero;fill:rgb(0%,0%,0%);fill-opacity:1;" d="M 169.019531 277.449219 L 170.101562 289.839844 L 161.28125 289.839844 L 170.101562 300.277344 L 185.578125 300.277344 L 183.238281 270.015625 L 157.859375 270.015625 C 157.859375 270.015625 136.980469 300.277344 137.160156 300.277344 L 153.359375 300.277344 Z M 169.019531 277.449219 "/>
<path style=" stroke:none;fill-rule:nonzero;fill:rgb(59.607846%,0%,18.039216%);fill-opacity:1;" d="M 30.960938 168.40625 C 33.402344 177.640625 40.613281 185.847656 51.121094 191.363281 C 54.722656 193.222656 58.660156 194.714844 62.820312 195.796875 C 60.300781 192.667969 57.238281 189.40625 54.179688 186.144531 C 48.421875 180.015625 42.480469 173.625 38.699219 166.839844 C 34.84375 159.941406 33.722656 152.398438 35.460938 145.058594 C 32.335938 151.242188 30.75 157.777344 30.78125 164.363281 C 30.78125 165.796875 30.960938 167.101562 30.960938 168.40625 Z M 30.960938 168.40625 "/>
<path style=" stroke:none;fill-rule:nonzero;fill:rgb(59.607846%,0%,18.039216%);fill-opacity:1;" d="M 43.921875 165.40625 C 47.519531 171.796875 53.28125 177.929688 58.859375 183.796875 C 63.082031 188.214844 66.988281 192.785156 70.558594 197.492188 C 74.128906 198.023438 77.734375 198.414062 81.359375 198.667969 C 77.3125 194.40625 73.992188 189.808594 71.460938 184.972656 C 60.300781 164.882812 61.738281 140.101562 75.601562 125.753906 C 82.519531 118.734375 91.652344 113.007812 102.238281 109.058594 C 111.601562 105.40625 117.539062 104.234375 123.660156 101.625 C 130.140625 98.882812 133.558594 94.1875 129.238281 83.625 C 128.253906 81.214844 127.886719 78.695312 128.160156 76.1875 C 126.441406 78.449219 125.339844 80.929688 124.921875 83.492188 C 124.402344 86.761719 123.5 89.988281 122.21875 93.144531 C 116.460938 104.101562 88.558594 110.101562 84.960938 111.015625 C 75.445312 113.015625 66.617188 116.4375 59.039062 121.058594 C 41.792969 132.136719 35.777344 149.78125 43.921875 165.40625 Z M 43.921875 165.40625 "/>
<path style=" stroke:none;fill-rule:nonzero;fill:rgb(59.607846%,0%,18.039216%);fill-opacity:1;" d="M 160.558594 66.40625 C 160.738281 67.058594 160.921875 67.710938 161.101562 68.363281 C 161.820312 72.277344 160.199219 75.40625 153.898438 76.058594 C 147.238281 76.839844 144.898438 72.667969 144.359375 69.277344 C 144.359375 67.972656 144.539062 67.058594 144.539062 66.40625 L 141.300781 66.40625 C 138.480469 67.597656 135.878906 69.046875 133.558594 70.710938 C 132.300781 72.796875 130.679688 75.667969 133.199219 82.320312 C 137.519531 94.1875 135.539062 101.363281 122.578125 105.40625 C 105.839844 110.625 95.039062 113.753906 80.820312 126.796875 C 73.980469 132.929688 70.199219 143.363281 69.660156 153.667969 C 69.261719 163.832031 71.710938 173.949219 76.859375 183.40625 C 79.839844 188.875 83.773438 194.046875 88.558594 198.796875 C 93.101562 198.621094 97.613281 198.183594 102.058594 197.492188 C 97.039062 193.253906 94.066406 187.941406 93.601562 182.363281 C 91.980469 163.058594 106.199219 154.972656 128.160156 142.320312 L 138.058594 136.320312 C 177.300781 112.1875 165.78125 87.667969 170.101562 66.667969 C 166.929688 66.449219 163.746094 66.363281 160.558594 66.40625 Z M 160.558594 66.40625 "/>
<path style=" stroke:none;fill-rule:nonzero;fill:rgb(59.607846%,0%,18.039216%);fill-opacity:1;" d="M 176.21875 66.796875 C 175.125 71.109375 174.402344 75.464844 174.058594 79.839844 C 172.441406 98.101562 173.339844 118.839844 141.300781 139.320312 L 131.761719 144.929688 C 110.339844 157.320312 98.101562 165.144531 99 181.972656 C 99.175781 187.378906 102.359375 192.503906 107.820312 196.1875 C 113.953125 194.878906 119.867188 193.085938 125.460938 190.839844 C 153.179688 179.363281 170.640625 162.277344 177.300781 140.363281 C 181.441406 126.535156 181.441406 115.320312 181.261719 106.1875 C 181.261719 101.625 182.160156 92.753906 182.160156 92.753906 C 183.058594 87.144531 184.140625 79.058594 193.320312 68.753906 C 193.679688 68.363281 193.859375 68.101562 194.21875 67.710938 C 188.640625 67.320312 182.519531 67.058594 176.21875 66.796875 Z M 176.21875 66.796875 "/>
<path style=" stroke:none;fill-rule:nonzero;fill:rgb(59.607846%,0%,18.039216%);fill-opacity:1;" d="M 185.578125 125.492188 C 184.679688 128.882812 184.5 132.535156 183.960938 136.1875 C 183.601562 137.492188 183.238281 138.929688 183.058594 140.234375 C 183.027344 140.636719 182.90625 141.03125 182.699219 141.40625 C 175.859375 164.492188 157.679688 182.363281 128.339844 194.363281 C 123.515625 196.378906 118.457031 198.078125 113.21875 199.449219 C 121.859375 203.492188 131.761719 204.796875 138.601562 204.015625 C 164.878906 201.277344 177.660156 188.882812 183.78125 175.582031 C 190.078125 162.015625 189.359375 147.535156 189 141.535156 C 188.101562 121.449219 209.339844 114.015625 209.339844 114.015625 C 192.960938 113.363281 187.378906 118.582031 185.578125 125.492188 Z M 185.578125 125.492188 "/>
<path style=" stroke:none;fill-rule:nonzero;fill:rgb(59.607846%,0%,18.039216%);fill-opacity:1;" d="M 168.121094 199.449219 C 160.300781 204.105469 150.808594 207.046875 140.761719 207.929688 C 128.871094 209.117188 116.828125 206.710938 107.460938 201.277344 C 107.101562 201.144531 107.101562 201.015625 106.738281 200.882812 C 102.25 201.746094 97.675781 202.355469 93.058594 202.710938 C 103.5 210.929688 117.539062 215.625 136.078125 216.40625 L 136.261719 216.40625 C 148.894531 212.875 160.011719 206.976562 168.480469 199.320312 C 168.300781 199.320312 168.300781 199.449219 168.121094 199.449219 Z M 168.121094 199.449219 "/>
<path style=" stroke:none;fill-rule:nonzero;fill:rgb(59.607846%,0%,18.039216%);fill-opacity:1;" d="M 70.558594 213.277344 C 70.5625 208.925781 69.144531 204.632812 66.421875 200.753906 C 59.832031 199.382812 53.535156 197.363281 47.699219 194.753906 C 44.34375 193.003906 41.265625 190.992188 38.519531 188.753906 C 45.429688 199.140625 56.628906 207.707031 70.558594 213.277344 Z M 70.558594 213.277344 "/>
<path style=" stroke:none;fill-rule:nonzero;fill:rgb(59.607846%,0%,18.039216%);fill-opacity:1;" d="M 124.019531 219.015625 C 114.203125 217.609375 104.929688 214.671875 96.839844 210.40625 C 92.796875 208.191406 89.113281 205.65625 85.859375 202.839844 C 81.625 202.867188 77.402344 202.5625 73.261719 201.929688 C 75.683594 206.175781 76.609375 210.792969 75.960938 215.363281 C 86.011719 218.6875 96.949219 220.378906 108 220.320312 C 113.382812 220.324219 118.75 219.929688 124.019531 219.144531 C 124.199219 219.015625 124.019531 219.015625 124.019531 219.015625 Z M 124.019531 219.015625 "/>
<path style=" stroke:none;fill-rule:nonzero;fill:rgb(59.607846%,0%,18.039216%);fill-opacity:1;" d="M 213.839844 81.535156 C 212.039062 85.839844 206.101562 85.320312 204.300781 82.972656 C 201.601562 79.320312 202.679688 76.449219 205.558594 74.492188 C 208.261719 72.535156 212.941406 71.492188 217.441406 69.929688 L 217.621094 69.929688 C 212.398438 69.277344 206.820312 68.753906 201.058594 68.234375 C 200.878906 68.363281 200.878906 68.363281 200.699219 68.363281 C 200.265625 68.824219 199.785156 69.257812 199.261719 69.667969 C 192.597656 76.609375 188.621094 84.714844 187.738281 93.144531 L 187.558594 94.972656 C 186.984375 98.738281 186.800781 102.53125 187.019531 106.320312 L 187.019531 108.144531 C 186.839844 109.710938 186.839844 111.277344 186.839844 112.710938 C 187.019531 112.058594 187.019531 111.929688 187.019531 112.1875 C 189.539062 106.058594 194.398438 102.40625 201.238281 100.320312 C 208.800781 98.234375 216 96.277344 216.359375 88.449219 C 216.539062 85.1875 216.898438 81.929688 217.800781 80.363281 C 218.84375 78.652344 220.695312 77.265625 223.019531 76.449219 C 219.421875 76.320312 215.460938 77.363281 213.839844 81.535156 Z M 213.839844 81.535156 "/>
<path style="fill-rule:nonzero;fill:rgb(97.647059%,62.7451%,10.588235%);fill-opacity:1;stroke-width:0.12;stroke-linecap:butt;stroke-linejoin:miter;stroke:rgb(97.647059%,62.7451%,10.588235%);stroke-opacity:1;stroke-miterlimit:4;" d="M 148.440104 46.693594 C 148.799479 41.892344 153.359375 41.055 157.799479 36.9725 C 163.440104 31.574688 156 22.694531 156 22.694531 C 156.960938 28.6925 154.200521 30.974531 149.158854 34.575469 C 147.523438 35.617656 146.424479 37.328281 146.158854 39.254531 C 146.09375 41.63 145.851562 43.994688 145.440104 46.334219 C 146.445312 46.395313 147.447917 46.513906 148.440104 46.693594 Z M 148.440104 46.693594 " transform="matrix(1.5,0,0,1.086957,0,0)"/>
<path style="fill-rule:nonzero;fill:rgb(97.647059%,62.7451%,10.588235%);fill-opacity:1;stroke-width:0.12;stroke-linecap:butt;stroke-linejoin:miter;stroke:rgb(97.647059%,62.7451%,10.588235%);stroke-opacity:1;stroke-miterlimit:4;" d="M 132.960938 38.413594 C 131.666667 39.3875 130.424479 40.429688 129.239583 41.532969 C 128.401042 42.373906 127.559896 43.092656 126.841146 43.933594 C 131.760417 44.292969 136.559896 44.893125 141.239583 45.493281 C 144.119792 40.095469 145.559896 34.093906 143.760417 23.654063 C 143.760417 23.654063 143.401042 30.73375 132.960938 38.413594 Z M 132.960938 38.413594 " transform="matrix(1.5,0,0,1.086957,0,0)"/>
<path style="fill-rule:nonzero;fill:rgb(97.647059%,62.7451%,10.588235%);fill-opacity:1;stroke-width:0.12;stroke-linecap:butt;stroke-linejoin:miter;stroke:rgb(97.647059%,62.7451%,10.588235%);stroke-opacity:1;stroke-miterlimit:4;" d="M 105.359375 42.855469 C 111 42.974063 116.520833 43.092656 122.039062 43.574219 C 122.169271 43.351406 122.330729 43.150156 122.520833 42.974063 C 126.119792 39.132344 131.760417 35.772188 134.760417 31.4525 C 137.760417 27.132812 136.559896 21.735 135.359375 15.255469 C 133.440104 4.093281 138.239583 2.055625 138.239583 2.055625 C 138.239583 2.055625 128.760417 3.374531 129 8.772344 C 129.239583 16.092813 136.799479 22.935313 125.401042 25.095156 C 112.919271 27.373594 105.119792 34.093906 103.440104 42.974063 C 104.075521 42.877031 104.71875 42.8375 105.359375 42.855469 Z M 105.359375 42.855469 " transform="matrix(1.5,0,0,1.086957,0,0)"/>
<path style=" stroke:none;fill-rule:nonzero;fill:rgb(100%,100%,100%);fill-opacity:1;" d="M 158.039062 49.710938 C 79.558594 49.1875 14.21875 63.796875 12.058594 82.449219 C 11.160156 89.882812 20.339844 96.796875 36.71875 102.535156 C 48.871094 106.535156 61.613281 109.511719 74.699219 111.40625 C 77.761719 110.492188 80.640625 109.710938 84.058594 108.929688 C 88.359375 108 92.570312 106.867188 96.660156 105.535156 C 74.699219 103.320312 57.058594 99.667969 46.078125 95.363281 C 37.980469 92.234375 33.660156 88.710938 34.199219 84.929688 C 35.640625 72.40625 90.539062 62.753906 156.601562 63.144531 C 222.839844 63.667969 275.21875 74.234375 273.601562 86.625 C 273.238281 90.144531 268.738281 93.277344 261.359375 96.144531 C 247.5 101.492188 223.199219 105.40625 193.5 107.363281 C 192.484375 108.441406 191.582031 109.578125 190.800781 110.753906 C 204.300781 107.101562 219.960938 112.582031 219.960938 112.582031 C 220.582031 112.765625 221.183594 112.984375 221.761719 113.234375 C 241.378906 110.625 258.300781 106.972656 270.898438 102.667969 C 285.839844 97.582031 295.019531 91.1875 295.738281 84.535156 C 297.898438 65.882812 236.339844 50.363281 158.039062 49.710938 Z M 158.039062 49.710938 "/>
</g>
</svg>
