<?xml version="1.0" encoding="UTF-8"?>
<svg xmlns="http://www.w3.org/2000/svg" xmlns:xlink="http://www.w3.org/1999/xlink" width="300px" height="300px" viewBox="0 0 300 300" version="1.1">
<g id="surface1">
<path style=" stroke:none;fill-rule:nonzero;fill:rgb(0%,0%,0%);fill-opacity:1;" d="M 255.335938 70.996094 C 247.304688 61.960938 229.238281 54.9375 206.492188 50.585938 C 206.492188 47.910156 208.164062 46.90625 211.175781 44.898438 C 212.847656 43.898438 214.519531 42.558594 216.191406 41.21875 C 223.550781 34.195312 214.855469 23.488281 214.519531 23.15625 L 209.835938 17.132812 L 210.839844 24.492188 C 211.507812 29.511719 209.835938 31.519531 204.148438 35.199219 C 203.480469 35.53125 202.8125 36.203125 202.140625 36.871094 C 202.476562 32.855469 202.140625 28.84375 201.472656 24.828125 C 201.136719 22.152344 199.800781 20.144531 198.128906 18.136719 L 197.457031 25.164062 C 197.457031 25.164062 196.789062 30.515625 189.761719 37.207031 C 190.433594 36.535156 191.101562 35.867188 191.4375 35.199219 C 194.78125 30.179688 194.113281 24.160156 192.773438 17.46875 L 192.441406 16.128906 C 191.101562 8.769531 193.109375 4.421875 194.445312 3.417969 C 195.449219 2.078125 197.792969 -0.261719 197.792969 -0.261719 C 196.121094 -0.597656 194.78125 -0.597656 193.109375 -0.261719 C 188.425781 0.0703125 181.066406 2.746094 181.066406 9.105469 C 181.398438 11.78125 181.734375 14.121094 182.738281 16.464844 C 183.40625 18.804688 184.410156 21.148438 183.742188 22.484375 C 182.402344 23.824219 180.730469 24.492188 179.058594 24.828125 C 168.351562 26.835938 160.324219 31.851562 156.308594 38.878906 C 154.96875 41.21875 153.96875 43.5625 153.632812 46.238281 C 129.878906 45.902344 106.128906 49.25 83.378906 55.605469 C 61.96875 62.296875 49.921875 71.328125 48.917969 82.035156 C 48.585938 87.386719 50.925781 95.417969 64.976562 103.109375 L 68.992188 105.117188 L 70.664062 105.789062 C 77.691406 108.796875 85.050781 111.472656 92.746094 113.148438 C 89.734375 114.820312 87.058594 116.828125 84.714844 118.835938 C 59.957031 139.242188 56.613281 175.707031 77.019531 200.464844 C 97.425781 225.21875 133.894531 228.566406 158.648438 208.15625 C 168.6875 199.792969 175.710938 188.085938 178.386719 175.371094 C 181.734375 163.996094 183.070312 152.289062 182.402344 140.578125 C 181.734375 131.546875 185.414062 122.847656 192.4375 117.496094 C 208.496094 115.824219 224.21875 111.808594 238.941406 105.785156 L 240.949219 104.785156 L 244.960938 102.777344 C 254.664062 97.421875 260.015625 91.066406 260.683594 84.042969 C 261.019531 79.359375 259.011719 74.675781 255.332031 70.996094 Z M 236.597656 82.367188 C 237.601562 83.039062 238.273438 84.375 238.273438 85.714844 C 238.273438 87.722656 235.597656 90.398438 231.246094 92.738281 C 221.878906 97.757812 206.15625 101.101562 187.421875 103.109375 C 188.425781 102.441406 189.09375 102.105469 190.097656 101.773438 L 190.433594 101.773438 C 195.785156 99.429688 202.140625 97.089844 202.140625 88.054688 C 202.140625 85.714844 202.476562 83.039062 203.144531 80.695312 C 204.484375 78.019531 206.492188 76.011719 209.167969 74.675781 L 205.488281 74.003906 L 204.816406 74.003906 C 206.15625 73.003906 207.160156 72 207.828125 70.660156 C 222.546875 73.671875 232.917969 78.019531 236.597656 82.371094 Z M 71 84.710938 C 71.667969 77.351562 98.433594 67.648438 141.253906 65.976562 C 135.902344 69.992188 132.222656 76.011719 131.21875 82.703125 L 130.882812 86.050781 C 130.546875 88.054688 130.214844 90.0625 129.546875 92.070312 C 127.203125 96.753906 123.1875 100.433594 118.171875 102.777344 C 100.773438 100.769531 86.386719 97.089844 78.023438 92.40625 C 73.339844 89.394531 71 86.71875 71 84.710938 Z M 71 84.710938 "/>
<path style=" stroke:none;fill-rule:nonzero;fill:rgb(0%,0%,0%);fill-opacity:1;" d="M 101.109375 261.351562 L 108.46875 230.90625 L 96.089844 230.90625 L 88.730469 261.351562 Z M 101.109375 261.351562 "/>
<path style=" stroke:none;fill-rule:nonzero;fill:rgb(0%,0%,0%);fill-opacity:1;" d="M 127.871094 238.601562 L 128.542969 250.980469 L 122.183594 250.980469 L 128.542969 261.351562 L 139.582031 261.351562 L 137.910156 231.242188 L 119.507812 231.242188 L 104.453125 261.351562 L 116.164062 261.351562 Z M 127.871094 238.601562 "/>
<path style=" stroke:none;fill-rule:nonzero;fill:rgb(0%,0%,0%);fill-opacity:1;" d="M 99.4375 289.117188 L 97.09375 299.488281 L 108.46875 299.488281 L 115.828125 269.046875 L 104.453125 269.046875 L 101.441406 280.753906 L 93.078125 280.753906 L 95.753906 269.046875 L 84.382812 269.046875 L 77.019531 299.488281 L 88.394531 299.488281 L 90.738281 289.117188 Z M 99.4375 289.117188 "/>
<path style=" stroke:none;fill-rule:nonzero;fill:rgb(0%,0%,0%);fill-opacity:1;" d="M 126.867188 292.464844 L 127.539062 288.449219 L 141.921875 288.449219 L 143.597656 281.757812 L 129.546875 281.757812 L 130.214844 277.410156 L 144.597656 277.410156 L 146.941406 269.046875 L 120.847656 269.046875 L 113.488281 299.488281 L 139.246094 299.488281 L 140.917969 292.464844 Z M 126.867188 292.464844 "/>
<path style=" stroke:none;fill-rule:nonzero;fill:rgb(0%,0%,0%);fill-opacity:1;" d="M 200.46875 261.351562 L 207.828125 230.90625 L 195.785156 230.90625 L 188.425781 261.351562 Z M 200.46875 261.351562 "/>
<path style=" stroke:none;fill-rule:nonzero;fill:rgb(0%,0%,0%);fill-opacity:1;" d="M 220.875 254.324219 C 222.546875 256.667969 224.222656 261.015625 216.863281 264.363281 C 208.164062 268.375 216.863281 278.414062 204.816406 278.414062 L 199.800781 278.414062 L 194.78125 299.15625 L 182.402344 299.15625 L 187.421875 278.414062 L 179.058594 278.414062 L 181.734375 269.046875 L 202.808594 269.046875 C 215.523438 269.046875 206.488281 260.347656 212.847656 259.007812 C 217.53125 258.339844 220.542969 257.671875 220.875 254.324219 Z M 220.875 254.324219 "/>
<path style=" stroke:none;fill-rule:nonzero;fill:rgb(0%,0%,0%);fill-opacity:1;" d="M 67.652344 246.632812 L 65.644531 230.90625 L 50.59375 230.90625 L 43.230469 261.351562 L 54.273438 261.351562 L 58.621094 245.628906 L 60.964844 261.351562 L 67.320312 261.351562 L 76.351562 245.628906 L 76.6875 245.628906 L 73.007812 261.351562 L 83.378906 261.351562 L 91.070312 230.90625 L 76.351562 230.90625 Z M 67.652344 246.632812 "/>
<path style=" stroke:none;fill-rule:nonzero;fill:rgb(0%,0%,0%);fill-opacity:1;" d="M 167.347656 246.632812 L 165.339844 230.90625 L 150.285156 230.90625 L 142.925781 261.351562 L 153.964844 261.351562 L 158.316406 245.628906 L 160.324219 261.351562 L 167.015625 261.351562 L 176.046875 245.628906 L 176.382812 245.628906 L 172.703125 261.351562 L 183.070312 261.351562 L 190.765625 230.90625 L 176.046875 230.90625 Z M 167.347656 246.632812 "/>
<path style=" stroke:none;fill-rule:nonzero;fill:rgb(0%,0%,0%);fill-opacity:1;" d="M 165.675781 276.738281 L 166.34375 289.117188 L 159.988281 289.117188 L 166.34375 299.488281 L 177.386719 299.488281 L 175.710938 269.378906 L 157.3125 269.378906 L 142.257812 299.488281 L 154.300781 299.488281 L 165.675781 276.742188 Z M 165.675781 276.738281 "/>
<path style=" stroke:none;fill-rule:nonzero;fill:rgb(59.607846%,0%,18.039216%);fill-opacity:1;" d="M 65.644531 167.679688 C 67.320312 177.046875 72.671875 185.074219 80.03125 190.425781 C 82.707031 192.101562 85.382812 193.773438 88.394531 194.777344 C 86.386719 191.429688 84.382812 188.421875 82.039062 185.074219 C 77.691406 179.050781 74.011719 172.695312 71 166.003906 C 68.324219 158.980469 67.320312 151.621094 68.65625 144.261719 C 66.316406 150.28125 65.3125 156.972656 65.3125 163.664062 C 65.648438 165 65.648438 166.339844 65.648438 167.679688 Z M 65.644531 167.679688 "/>
<path style=" stroke:none;fill-rule:nonzero;fill:rgb(59.607846%,0%,18.039216%);fill-opacity:1;" d="M 75.015625 164.667969 C 78.023438 171.359375 81.703125 177.378906 85.71875 183.066406 C 88.730469 187.414062 91.742188 192.101562 94.082031 196.785156 C 96.757812 197.453125 99.4375 197.785156 101.777344 197.785156 C 98.765625 193.4375 96.425781 189.089844 94.417969 184.070312 C 86.390625 163.996094 87.394531 139.242188 97.429688 125.191406 C 102.445312 118.164062 109.136719 112.476562 116.832031 108.464844 C 123.523438 104.785156 127.871094 103.445312 132.222656 101.101562 C 136.570312 98.761719 139.582031 93.410156 136.234375 83.039062 C 135.566406 80.695312 135.234375 78.019531 135.234375 75.679688 C 134.230469 78.019531 133.226562 80.363281 132.890625 83.039062 C 132.554688 86.382812 131.886719 89.394531 130.882812 92.738281 C 126.871094 103.445312 106.796875 109.800781 103.785156 110.472656 C 96.761719 112.476562 90.402344 115.824219 85.050781 120.507812 C 73.339844 131.214844 68.992188 148.945312 75.015625 164.667969 Z M 75.015625 164.667969 "/>
<path style=" stroke:none;fill-rule:nonzero;fill:rgb(59.607846%,0%,18.039216%);fill-opacity:1;" d="M 159.320312 65.640625 C 159.652344 66.3125 159.652344 66.980469 159.652344 67.648438 C 160.65625 70.660156 158.984375 74.003906 155.640625 75.007812 C 155.304688 75.007812 154.636719 75.34375 154.300781 75.34375 C 149.285156 76.011719 147.945312 71.996094 147.609375 68.652344 L 147.609375 65.640625 L 145.269531 65.640625 C 143.261719 66.644531 141.253906 68.316406 139.917969 69.992188 C 138.242188 73.671875 138.242188 78.019531 139.582031 81.699219 C 142.59375 93.410156 141.253906 100.769531 131.886719 104.785156 C 119.84375 110.136719 112.148438 113.148438 101.777344 126.195312 C 96.761719 132.550781 94.082031 142.585938 93.75 152.957031 C 93.414062 162.996094 95.085938 173.03125 98.765625 182.398438 C 100.773438 187.75 103.785156 193.105469 107.128906 197.789062 C 110.476562 197.789062 113.488281 197.453125 116.832031 196.785156 C 113.152344 192.433594 110.8125 187.082031 110.476562 181.394531 C 109.136719 162.324219 119.507812 154.296875 135.566406 141.25 L 142.59375 135.226562 C 171.03125 111.140625 162.664062 86.71875 166.011719 65.640625 Z M 159.320312 65.640625 "/>
<path style=" stroke:none;fill-rule:nonzero;fill:rgb(59.607846%,0%,18.039216%);fill-opacity:1;" d="M 170.695312 66.3125 C 170.023438 70.660156 169.355469 75.007812 169.019531 79.359375 C 168.015625 97.757812 168.351562 118.164062 145.269531 138.90625 L 138.242188 144.261719 C 122.855469 156.636719 113.820312 164.332031 114.488281 181.394531 C 114.824219 186.746094 117.167969 191.765625 120.847656 195.78125 C 125.195312 194.441406 129.542969 192.769531 133.558594 190.425781 C 152.628906 180.054688 166.34375 161.65625 171.027344 140.246094 C 173.371094 128.871094 174.375 117.496094 174.039062 106.121094 C 174.039062 101.4375 174.707031 92.738281 174.707031 92.738281 C 175.375 84.042969 178.054688 76.011719 182.738281 68.652344 L 183.40625 67.648438 C 179.726562 66.644531 175.375 66.3125 170.691406 66.3125 Z M 170.695312 66.3125 "/>
<path style=" stroke:none;fill-rule:nonzero;fill:rgb(59.607846%,0%,18.039216%);fill-opacity:1;" d="M 177.71875 124.855469 C 177.050781 128.203125 177.050781 131.882812 176.382812 135.5625 C 176.382812 136.898438 176.046875 138.238281 175.710938 139.578125 C 175.710938 139.910156 175.710938 140.246094 175.378906 140.578125 C 171.027344 163.328125 156.644531 182.398438 136.234375 193.4375 C 132.890625 195.445312 129.210938 197.117188 125.195312 198.457031 C 130.546875 202.136719 137.238281 203.808594 143.59375 203.140625 C 162.664062 200.464844 171.699219 188.085938 176.378906 174.703125 C 179.726562 163.664062 181.0625 151.953125 180.394531 140.578125 C 179.726562 129.203125 185.414062 118.835938 195.117188 113.148438 C 182.738281 112.8125 178.722656 117.832031 177.71875 124.855469 Z M 177.71875 124.855469 "/>
<path style=" stroke:none;fill-rule:nonzero;fill:rgb(59.607846%,0%,18.039216%);fill-opacity:1;" d="M 165.007812 198.792969 C 159.320312 203.472656 152.292969 206.484375 144.933594 207.15625 C 136.234375 208.492188 127.539062 205.816406 120.847656 200.464844 L 120.511719 200.128906 C 117.167969 201.132812 113.820312 201.46875 110.476562 201.800781 C 118.503906 210.5 129.878906 215.183594 141.589844 215.519531 C 150.621094 211.839844 158.984375 206.152344 165.007812 198.457031 Z M 165.007812 198.792969 "/>
<path style=" stroke:none;fill-rule:nonzero;fill:rgb(59.607846%,0%,18.039216%);fill-opacity:1;" d="M 94.417969 212.507812 C 94.417969 208.160156 93.414062 203.808594 91.40625 200.128906 C 86.722656 198.792969 82.039062 196.785156 78.023438 194.109375 C 75.683594 192.433594 73.339844 190.425781 71.335938 188.085938 C 76.351562 198.457031 84.382812 207.15625 94.417969 212.507812 Z M 94.417969 212.507812 "/>
<path style=" stroke:none;fill-rule:nonzero;fill:rgb(59.607846%,0%,18.039216%);fill-opacity:1;" d="M 132.890625 218.195312 C 122.183594 216.1875 112.484375 210.5 105.121094 202.136719 C 102.113281 202.136719 99.101562 201.800781 96.089844 201.132812 C 97.761719 205.480469 98.433594 209.832031 98.097656 214.515625 C 105.457031 217.859375 113.152344 219.53125 121.179688 219.53125 C 125.195312 219.53125 129.210938 219.199219 132.890625 218.195312 Z M 132.890625 218.195312 "/>
<path style=" stroke:none;fill-rule:nonzero;fill:rgb(59.607846%,0%,18.039216%);fill-opacity:1;" d="M 197.792969 81.03125 C 197.457031 83.039062 195.449219 84.375 193.441406 84.042969 C 192.441406 83.707031 191.769531 83.371094 191.101562 82.367188 C 189.429688 79.691406 189.761719 76.011719 191.769531 73.671875 C 194.445312 71.664062 197.457031 70.324219 200.46875 69.320312 C 196.789062 68.652344 192.773438 67.984375 188.425781 67.648438 L 188.425781 67.984375 L 187.421875 69.320312 C 182.738281 76.347656 179.726562 84.375 179.058594 92.738281 L 178.722656 94.414062 C 178.386719 98.09375 178.386719 101.773438 178.386719 105.789062 L 178.386719 112.476562 C 178.386719 111.808594 178.386719 111.472656 178.386719 111.808594 C 179.726562 106.457031 183.40625 102.105469 188.757812 100.101562 C 194.113281 98.09375 199.464844 96.085938 199.464844 88.054688 C 199.464844 85.378906 199.800781 82.367188 200.46875 80.027344 C 201.136719 78.355469 202.476562 77.015625 204.148438 76.347656 C 201.472656 75.679688 198.460938 77.683594 197.792969 81.03125 Z M 197.792969 81.03125 "/>
<path style=" stroke:none;fill-rule:nonzero;fill:rgb(97.647059%,62.7451%,11.372549%);fill-opacity:1;" d="M 204.484375 50.253906 C 204.816406 44.898438 209.835938 44.230469 214.519531 39.546875 C 220.542969 33.859375 212.847656 24.15625 212.847656 24.15625 C 213.851562 30.515625 210.839844 33.191406 205.488281 36.871094 C 203.816406 37.875 202.476562 39.882812 202.140625 41.890625 C 202.140625 44.566406 201.808594 46.90625 201.472656 49.582031 Z M 204.484375 50.253906 "/>
<path style=" stroke:none;fill-rule:nonzero;fill:rgb(97.647059%,62.7451%,11.372549%);fill-opacity:1;" d="M 187.757812 41.21875 C 186.417969 42.222656 185.078125 43.5625 183.742188 44.566406 C 182.402344 45.570312 181.734375 46.238281 181.066406 46.90625 C 186.417969 47.242188 191.769531 47.910156 196.789062 48.578125 C 200.132812 42.558594 201.472656 36.203125 199.464844 24.828125 C 199.464844 25.160156 198.796875 32.855469 187.757812 41.21875 Z M 187.757812 41.21875 "/>
<path style=" stroke:none;fill-rule:nonzero;fill:rgb(97.647059%,62.7451%,11.372549%);fill-opacity:1;" d="M 157.648438 45.902344 C 163.667969 45.902344 169.691406 46.238281 175.710938 46.574219 L 176.382812 45.902344 C 180.394531 41.554688 186.417969 38.207031 189.761719 33.191406 C 193.109375 28.171875 191.769531 22.484375 190.433594 15.460938 C 188.425781 3.417969 193.441406 1.074219 193.441406 1.074219 C 193.441406 1.074219 183.070312 2.414062 183.40625 8.433594 C 183.742188 16.464844 191.769531 23.824219 179.390625 26.164062 C 166.011719 28.507812 157.3125 35.867188 155.640625 45.570312 L 157.644531 45.570312 L 157.644531 45.902344 Z M 157.648438 45.902344 "/>
<path style=" stroke:none;fill-rule:nonzero;fill:rgb(100%,100%,100%);fill-opacity:1;" d="M 157.648438 49.25 C 100.773438 48.578125 53.601562 63.300781 51.929688 82.035156 C 51.261719 89.394531 57.953125 96.421875 69.660156 102.105469 C 78.359375 106.121094 87.726562 109.132812 97.09375 111.140625 C 99.4375 110.136719 101.441406 109.46875 103.785156 108.464844 C 106.796875 107.460938 109.804688 106.457031 112.816406 105.117188 C 96.757812 102.777344 84.046875 99.097656 76.351562 95.082031 C 70.332031 92.070312 67.320312 88.390625 67.652344 84.710938 C 68.65625 72.332031 108.46875 62.632812 156.308594 62.964844 C 204.148438 63.300781 241.953125 74.003906 240.949219 86.382812 C 240.613281 89.730469 237.605469 93.074219 231.917969 95.75 C 221.878906 101.105469 204.148438 105.117188 182.738281 106.792969 C 182.070312 107.796875 181.398438 108.796875 180.730469 110.136719 C 190.433594 106.457031 201.808594 111.808594 201.808594 111.808594 C 202.140625 112.144531 202.8125 112.144531 203.144531 112.480469 C 215.523438 110.472656 227.234375 107.125 238.605469 102.109375 C 249.3125 97.089844 256.003906 90.734375 256.671875 84.042969 C 259.015625 65.308594 214.183594 49.585938 157.644531 49.25 Z M 157.648438 49.25 "/>
</g>
</svg>
