<?xml version="1.0" encoding="UTF-8"?>
<svg xmlns="http://www.w3.org/2000/svg" xmlns:xlink="http://www.w3.org/1999/xlink" width="300px" height="300px" viewBox="0 0 300 300" version="1.1">
<g id="surface1">
<path style=" stroke:none;fill-rule:nonzero;fill:rgb(93.333334%,88.235295%,77.64706%);fill-opacity:1;" d="M 150.296875 298.769531 C 68.523438 298.769531 2.003906 245.105469 2.003906 179.128906 C 2.003906 146.878906 17.769531 116.597656 46.351562 93.867188 C 46.554688 93.703125 46.859375 93.539062 47.0625 93.375 C 37.195312 81.394531 31.703125 67.359375 35.875 50.375 C 43.605469 19.109375 74.929688 9.671875 76.253906 9.261719 C 76.761719 9.097656 77.269531 9.015625 77.777344 9.015625 C 79.40625 9.015625 81.03125 9.753906 81.847656 10.984375 C 82.355469 11.722656 82.457031 12.625 82.253906 13.445312 C 92.527344 6.472656 102.289062 3.4375 106.359375 2.367188 C 106.867188 2.285156 107.273438 2.203125 107.78125 2.203125 C 109.511719 2.203125 111.238281 3.027344 111.953125 4.339844 C 112.867188 6.0625 112.15625 8.03125 110.121094 9.015625 C 100.765625 13.527344 92.628906 19.765625 86.523438 26.824219 C 93.949219 25.429688 98.832031 25.265625 100.5625 25.265625 L 101.476562 25.265625 C 103.714844 25.347656 105.542969 26.824219 105.746094 28.628906 C 105.953125 30.433594 104.527344 32.074219 102.289062 32.566406 C 102.1875 32.566406 89.882812 35.109375 76.355469 42.90625 C 73.8125 49.226562 72.488281 55.789062 72.488281 62.4375 C 72.488281 75.074219 77.472656 88.121094 86.21875 98.050781 C 88.253906 100.347656 90.1875 102.402344 92.320312 104.207031 C 91.507812 91.160156 96.289062 70.972656 125.378906 61.617188 C 125.886719 61.453125 126.496094 61.371094 127.105469 61.371094 C 128.835938 61.371094 130.359375 62.109375 131.175781 63.421875 C 132.292969 65.144531 131.480469 67.195312 129.445312 68.261719 L 129.242188 68.34375 C 124.867188 70.644531 121.105469 73.597656 118.257812 77.042969 C 121.308594 76.304688 123.953125 76.058594 125.683594 75.894531 L 126.496094 75.894531 C 128.429688 75.894531 130.15625 76.878906 130.769531 78.355469 C 131.480469 80 130.667969 81.804688 128.9375 82.707031 L 128.632812 82.871094 C 119.375 87.21875 114.191406 92.226562 113.273438 97.804688 C 112.257812 103.878906 116.425781 109.621094 119.375 112.90625 C 127.207031 105.601562 132.191406 93.210938 133.617188 88.53125 C 134.125 86.890625 135.957031 85.742188 138.089844 85.742188 L 138.601562 85.742188 C 140.9375 85.988281 142.667969 87.546875 142.667969 89.351562 C 142.769531 104.699219 137.683594 115.203125 132.496094 121.847656 C 140.328125 124.96875 147.855469 125.214844 149.585938 125.214844 L 150.601562 125.214844 C 152.230469 125.214844 159.855469 125.050781 167.6875 121.847656 C 162.5 115.121094 157.414062 104.617188 157.515625 89.351562 C 157.515625 87.464844 159.246094 85.90625 161.585938 85.742188 L 162.09375 85.742188 C 164.128906 85.742188 166.0625 86.890625 166.570312 88.53125 C 167.992188 93.210938 173.078125 105.601562 180.808594 112.90625 C 183.859375 109.621094 187.929688 103.878906 186.910156 97.804688 C 185.996094 92.226562 180.808594 87.136719 171.554688 82.871094 C 171.453125 82.871094 171.25 82.707031 171.25 82.707031 C 169.417969 81.804688 168.605469 79.917969 169.316406 78.355469 C 169.925781 76.878906 171.65625 75.894531 173.585938 75.894531 L 174.402344 75.894531 C 176.230469 76.058594 178.773438 76.304688 181.824219 77.042969 C 178.976562 73.597656 175.214844 70.644531 170.839844 68.34375 L 170.636719 68.261719 C 168.605469 67.277344 167.890625 65.144531 168.910156 63.421875 C 169.722656 62.109375 171.351562 61.371094 172.976562 61.371094 C 173.585938 61.371094 174.097656 61.453125 174.707031 61.617188 C 203.691406 70.972656 208.472656 91.160156 207.761719 104.207031 C 209.898438 102.402344 211.828125 100.347656 213.863281 98.050781 C 222.609375 88.039062 227.59375 75.074219 227.59375 62.4375 C 227.59375 55.789062 226.273438 49.226562 223.730469 42.90625 C 210.101562 35.027344 197.996094 32.566406 197.792969 32.566406 C 195.554688 32.15625 194.132812 30.433594 194.335938 28.628906 C 194.539062 26.824219 196.371094 25.347656 198.609375 25.265625 L 199.523438 25.265625 C 201.253906 25.265625 206.234375 25.429688 213.558594 26.824219 C 207.355469 19.683594 199.21875 13.527344 189.960938 9.015625 C 187.929688 8.03125 187.214844 6.0625 188.132812 4.339844 C 188.84375 3.027344 190.574219 2.203125 192.300781 2.203125 C 192.808594 2.203125 193.21875 2.285156 193.726562 2.367188 C 197.792969 3.4375 207.558594 6.472656 217.832031 13.445312 C 217.628906 12.625 217.730469 11.804688 218.339844 10.984375 C 219.152344 9.753906 220.679688 9.015625 222.40625 9.015625 C 222.917969 9.015625 223.425781 9.097656 223.933594 9.261719 C 225.253906 9.671875 256.582031 19.109375 264.3125 50.375 C 268.480469 67.359375 262.988281 81.394531 253.125 93.375 C 253.429688 93.539062 253.632812 93.703125 253.835938 93.867188 C 282.414062 116.597656 298.179688 146.878906 298.179688 179.128906 C 298.585938 245.105469 232.070312 298.769531 150.296875 298.769531 Z M 150.296875 298.769531 "/>
<path style=" stroke:none;fill-rule:nonzero;fill:rgb(0%,27.843139%,10.588235%);fill-opacity:1;" d="M 107.78125 5.980469 C 97.507812 8.605469 76.660156 17.222656 64.453125 38.476562 C 59.570312 41.183594 55.402344 44.628906 50.824219 49.144531 C 55.503906 31.828125 66.792969 19.4375 77.777344 12.871094 C 77.777344 12.871094 47.671875 21.652344 40.347656 51.195312 C 31.804688 85.578125 65.878906 107.078125 93.441406 125.542969 L 72.488281 118.648438 C 71.066406 118.15625 70.046875 119.304688 70.351562 120.617188 L 70.964844 124.804688 C 71.269531 127.101562 73.402344 138.753906 81.335938 142.28125 C 82.964844 143.019531 85.914062 143.921875 94.660156 144.417969 L 110.425781 145.238281 L 107.78125 152.375 L 123.242188 172.316406 L 115.308594 165.585938 L 99.136719 211.953125 L 143.480469 241.410156 L 129.648438 190.78125 L 150.296875 211.050781 L 170.738281 190.78125 L 156.90625 241.410156 L 201.25 211.953125 L 185.078125 165.585938 L 177.144531 172.316406 L 192.605469 152.375 L 189.960938 145.238281 L 205.726562 144.417969 C 214.371094 143.925781 217.320312 143.019531 219.050781 142.28125 C 226.984375 138.753906 229.117188 127.101562 229.421875 124.804688 L 230.035156 120.621094 C 230.339844 119.304688 229.320312 118.15625 227.898438 118.648438 L 206.945312 125.542969 C 234.507812 107.078125 268.582031 85.578125 260.035156 51.195312 C 252.714844 21.652344 222.609375 12.875 222.609375 12.875 C 233.695312 19.4375 244.882812 31.746094 249.5625 49.144531 C 245.085938 44.628906 240.914062 41.183594 235.933594 38.476562 C 223.625 17.222656 202.875 8.605469 192.605469 5.980469 C 205.929688 12.464844 217.015625 22.0625 223.726562 33.140625 C 208.367188 28.710938 199.113281 29.121094 199.113281 29.121094 C 199.113281 29.121094 212.84375 31.828125 227.796875 40.773438 C 230.746094 47.667969 232.371094 54.96875 232.371094 62.601562 C 232.371094 75.976562 226.980469 89.765625 217.726562 100.347656 C 212.539062 106.257812 207.453125 110.363281 201.25 114.136719 C 203.285156 109.953125 211.21875 77.539062 173.179688 65.230469 L 173.484375 65.390625 C 182.535156 70.070312 189.148438 77.371094 191.792969 85.988281 C 184.875 80.574219 177.554688 80.082031 173.6875 79.671875 C 173.789062 79.671875 173.789062 79.753906 173.890625 79.753906 C 209.183594 96.164062 181.113281 118.402344 181.113281 118.402344 C 170.027344 110.855469 163.515625 94.03125 162.09375 89.4375 C 161.992188 107.242188 169.316406 117.910156 174.296875 123.082031 C 162.90625 129.398438 150.191406 128.988281 150.191406 128.988281 C 150.191406 128.988281 137.480469 129.398438 126.089844 123.082031 C 131.074219 117.910156 138.394531 107.242188 138.292969 89.4375 C 136.871094 94.03125 130.359375 110.855469 119.273438 118.402344 C 119.273438 118.402344 91.203125 96.164062 126.496094 79.753906 C 126.597656 79.753906 126.597656 79.671875 126.699219 79.671875 C 122.832031 80.082031 115.511719 80.65625 108.59375 85.988281 C 111.339844 77.371094 117.953125 70.070312 126.902344 65.390625 L 127.207031 65.226562 C 89.167969 77.539062 97.101562 109.949219 99.136719 114.136719 C 92.929688 110.359375 87.847656 106.257812 82.660156 100.347656 C 73.402344 89.84375 68.015625 76.058594 68.015625 62.601562 C 68.015625 54.96875 69.640625 47.582031 72.589844 40.773438 C 87.542969 31.828125 101.269531 29.121094 101.269531 29.121094 C 101.269531 29.121094 92.015625 28.710938 76.660156 33.140625 C 83.472656 22.0625 94.558594 12.464844 107.78125 5.980469 Z M 49.5 96.492188 C 23.058594 117.582031 6.582031 146.792969 6.582031 179.125 C 6.582031 243.050781 71.066406 295.078125 150.296875 295.078125 C 229.527344 295.078125 294.011719 243.050781 294.011719 179.125 C 294.011719 146.796875 277.636719 117.582031 251.089844 96.492188 L 247.9375 99.609375 C 273.363281 119.878906 289.027344 148.023438 289.027344 179.125 C 289.027344 240.917969 226.882812 291.054688 150.296875 291.054688 C 73.710938 291.054688 11.566406 240.917969 11.566406 179.125 C 11.566406 148.023438 27.328125 119.878906 52.65625 99.609375 Z M 56.417969 102.398438 C 31.90625 122.011719 16.652344 149.175781 16.652344 179.125 C 16.652344 238.539062 76.558594 286.953125 150.296875 286.953125 C 223.933594 286.953125 283.941406 238.621094 283.941406 179.125 C 283.941406 149.175781 268.785156 122.09375 244.273438 102.566406 L 240.820312 105.519531 C 264.109375 124.3125 278.855469 150.488281 278.855469 179.125 C 278.855469 185.773438 278.042969 192.257812 276.617188 198.492188 L 236.851562 189.632812 C 230.542969 223.933594 193.929688 250.355469 149.683594 250.355469 C 105.644531 250.355469 69.03125 224.179688 62.621094 190.042969 L 23.871094 198.492188 C 22.449219 192.175781 21.636719 185.773438 21.636719 179.128906 C 21.636719 150.570312 36.585938 123.984375 59.878906 105.191406 L 56.417969 102.402344 Z M 56.417969 102.398438 "/>
<path style=" stroke:none;fill-rule:nonzero;fill:rgb(93.333334%,88.235295%,77.64706%);fill-opacity:1;" d="M 59.777344 50.128906 C 58.453125 51.277344 57.132812 52.425781 55.910156 53.65625 C 44.113281 66.046875 61.503906 88.203125 61.503906 88.203125 C 61.503906 88.203125 54.996094 64.242188 59.777344 50.128906 Z M 240.714844 50.128906 C 245.699219 64.242188 239.089844 88.203125 239.089844 88.203125 C 239.089844 88.203125 256.480469 66.046875 244.582031 53.65625 C 243.363281 52.425781 242.039062 51.195312 240.714844 50.128906 Z M 240.714844 50.128906 "/>
<path style=" stroke:none;fill-rule:nonzero;fill:rgb(100%,100%,100%);fill-opacity:1;" d="M 77.777344 124.640625 C 77.777344 124.640625 79.304688 135.0625 84.695312 137.441406 C 88.355469 139.082031 97.203125 138.917969 105.035156 139.410156 C 96.390625 136.703125 83.675781 129.316406 77.777344 124.640625 Z M 222.8125 124.640625 C 216.8125 129.316406 204.203125 136.703125 195.558594 139.410156 C 203.289062 138.917969 212.238281 139.082031 215.898438 137.441406 C 221.289062 135.0625 222.8125 124.636719 222.8125 124.636719 Z M 176.050781 140.292969 C 175.835938 140.28125 175.621094 140.3125 175.417969 140.394531 C 171.144531 141.953125 166.976562 143.511719 164.738281 144.332031 C 163.824219 144.660156 163.621094 145.648438 164.332031 146.140625 C 166.46875 147.863281 170.433594 149.503906 175.214844 146.550781 C 177.757812 144.992188 177.757812 142.691406 177.453125 141.214844 C 177.300781 140.722656 176.6875 140.324219 176.050781 140.292969 Z M 124.542969 140.363281 C 123.910156 140.375 123.316406 140.742188 123.242188 141.296875 C 122.933594 142.773438 122.9375 145.074219 125.480469 146.632812 C 130.15625 149.585938 134.226562 147.945312 136.359375 146.222656 C 136.972656 145.648438 136.769531 144.746094 135.851562 144.417969 C 133.613281 143.597656 129.34375 142.035156 125.171875 140.476562 C 124.96875 140.394531 124.753906 140.359375 124.542969 140.363281 Z M 145.515625 148.355469 L 141.34375 159.34375 C 141.34375 159.34375 139.921875 163.691406 134.023438 166.726562 L 131.480469 175.753906 L 137.683594 182.566406 L 144.292969 182.566406 L 138.191406 175.261719 L 139.210938 170.75 C 141.957031 173.128906 145.921875 174.6875 150.296875 174.6875 C 154.667969 174.6875 158.632812 173.210938 161.378906 170.75 L 162.398438 175.261719 L 156.292969 182.566406 L 162.90625 182.566406 L 169.109375 175.753906 L 166.570312 166.726562 C 160.667969 163.691406 159.246094 159.34375 159.246094 159.34375 L 155.074219 148.347656 L 150.292969 150.234375 L 145.511719 148.347656 Z M 141.34375 186.75 L 145.617188 191.425781 L 154.972656 191.425781 L 159.246094 186.75 Z M 243.460938 196.351562 L 239.902344 205.789062 L 238.882812 208.414062 L 252.207031 211.613281 L 255.5625 212.433594 L 258.71875 204.066406 L 266.953125 206.035156 L 265.226562 210.710938 L 261.667969 209.808594 L 260.242188 213.503906 L 265.226562 214.734375 L 268.582031 215.554688 L 273.058594 203.40625 L 269.699219 202.832031 L 258.617188 200.125 L 255.257812 199.304688 L 252.105469 207.675781 L 244.988281 205.953125 L 246.714844 201.273438 L 250.273438 202.09375 L 251.699219 198.402344 L 246.816406 197.171875 Z M 57.128906 196.925781 L 27.632812 205.132812 L 29.160156 208.824219 L 47.773438 203.65625 L 41.160156 208.085938 L 49.707031 208.332031 L 31.195312 213.503906 L 32.71875 217.195312 L 62.214844 208.988281 L 60.589844 205.296875 L 52.042969 205.050781 L 58.65625 200.621094 Z M 237.359375 209.890625 L 234.917969 213.503906 L 240.613281 219.738281 L 232.984375 216.457031 L 230.746094 219.902344 L 258.308594 231.71875 L 260.546875 228.273438 L 248.546875 223.105469 L 262.988281 224.582031 L 265.328125 220.96875 L 245.496094 218.835938 Z M 64.25 212.273438 L 36.585938 223.925781 L 38.824219 227.371094 L 66.488281 215.71875 Z M 68.625 219.164062 L 43.296875 233.855469 L 52.046875 243.699219 L 56.113281 241.320312 L 50.214844 234.589844 L 71.472656 222.367188 Z M 229.222656 222.117188 L 219.457031 231.964844 L 222.203125 233.769531 L 243.664062 247.640625 L 245.800781 245.507812 L 253.425781 237.792969 L 250.679688 236.070312 L 246.105469 232.949219 L 243.15625 235.988281 L 246.714844 238.285156 L 242.953125 242.140625 L 226.472656 231.554688 L 230.238281 227.699219 L 233.695312 229.914062 L 236.644531 226.878906 L 231.96875 223.921875 Z M 76.863281 228.4375 L 56.925781 247.886719 L 60.179688 250.511719 L 68.726562 245.753906 L 62.929688 252.726562 L 66.183594 255.355469 L 89.980469 239.023438 L 87.03125 236.480469 L 76.964844 243.125 L 84.1875 234.183594 L 83.066406 233.28125 L 72.082031 239.1875 L 80.117188 230.984375 Z M 216.8125 234.265625 L 213.050781 236.726562 L 230.035156 252.730469 L 225.355469 255.847656 L 208.574219 239.761719 L 204.914062 242.304688 L 224.746094 261.589844 L 227.492188 259.703125 L 234.308594 255.105469 L 236.851562 253.382812 Z M 92.421875 240.417969 L 92.324219 240.5 L 75.640625 261.589844 L 79.710938 263.640625 L 87.03125 254.371094 L 92.117188 256.996094 L 84.796875 266.269531 L 88.863281 268.320312 L 103 250.511719 L 104.628906 248.460938 L 105.542969 247.3125 L 105.644531 247.230469 Z M 198.609375 245.425781 L 187.824219 250.101562 L 202.570312 272.09375 L 213.355469 267.417969 L 214.675781 263.722656 L 210.097656 256.914062 L 207.355469 255.929688 L 207.863281 253.464844 L 203.082031 246.410156 Z M 93.746094 245.917969 L 98.832031 248.542969 L 94.761719 253.714844 L 89.675781 251.089844 Z M 107.984375 248.460938 L 96.695312 271.765625 L 100.050781 272.832031 L 108.390625 275.378906 L 111.542969 276.363281 L 122.734375 252.972656 L 118.15625 251.578125 L 108.800781 271.191406 L 103.105469 269.46875 L 112.460938 249.855469 Z M 199.828125 249.527344 L 203.390625 254.863281 L 197.996094 257.160156 L 194.4375 251.824219 Z M 176.234375 253.386719 L 161.484375 255.683594 L 167.484375 280.21875 L 182.234375 277.921875 L 181.320312 273.980469 L 171.25 275.539062 L 169.519531 268.648438 L 179.488281 267.089844 L 178.570312 263.230469 L 168.605469 264.792969 L 167.179688 258.882812 L 177.148438 257.324219 L 176.234375 253.382812 Z M 126.191406 253.632812 L 120.800781 278.414062 L 125.582031 279.070312 L 127.921875 268.238281 L 130.667969 279.726562 L 135.652344 280.464844 L 131.992188 264.628906 L 140.023438 255.601562 L 135.042969 254.863281 L 129.449219 261.179688 L 130.972656 254.285156 Z M 158.128906 255.929688 L 143.179688 256.09375 L 143.6875 281.121094 L 158.636719 280.957031 L 158.535156 276.9375 L 148.363281 277.183594 L 148.261719 270.125 L 158.433594 269.960938 L 158.332031 266.023438 L 148.160156 266.1875 L 148.058594 260.113281 L 158.230469 259.949219 Z M 205.625 258.308594 L 209.796875 264.464844 L 204.40625 266.761719 L 200.234375 260.605469 Z M 205.625 258.308594 "/>
</g>
</svg>
