<?xml version="1.0" encoding="UTF-8"?>
<svg xmlns="http://www.w3.org/2000/svg" xmlns:xlink="http://www.w3.org/1999/xlink" width="300px" height="300px" viewBox="0 0 300 300" version="1.1">
<g id="surface1">
<path style=" stroke:none;fill-rule:nonzero;fill:rgb(86.666667%,78.823531%,63.921571%);fill-opacity:1;" d="M 151.230469 301.734375 C 84.535156 301.734375 30.578125 247.78125 30.242188 181.09375 C 30.242188 148.589844 43.3125 117.421875 66.4375 94.636719 L 67.109375 94.300781 C 58.394531 81.566406 55.042969 66.152344 58.058594 51.070312 C 61.410156 32.640625 73.476562 16.890625 90.902344 9.515625 C 91.238281 9.515625 91.910156 9.179688 92.242188 9.179688 C 93.585938 9.179688 94.925781 9.851562 95.59375 11.191406 C 95.929688 11.863281 96.265625 12.867188 95.929688 13.539062 C 101.628906 8.511719 108.332031 4.824219 115.703125 2.480469 L 116.710938 2.480469 C 118.050781 2.480469 119.390625 3.484375 120.0625 4.488281 C 120.730469 6.164062 120.0625 8.175781 118.71875 9.179688 C 111.011719 14.207031 104.308594 20.238281 99.28125 27.613281 C 103.304688 26.605469 106.992188 25.9375 111.011719 25.9375 L 111.683594 25.9375 C 113.691406 25.9375 115.367188 27.277344 115.703125 29.289062 C 115.703125 31.296875 114.363281 32.972656 112.351562 33.308594 C 104.644531 35.65625 97.605469 39.007812 91.238281 43.699219 C 85.207031 62.464844 88.222656 82.90625 99.28125 99.328125 C 100.957031 101.335938 102.632812 103.683594 104.308594 105.695312 C 103.640625 92.625 107.660156 72.183594 131.121094 62.800781 C 131.457031 62.464844 132.125 62.464844 132.460938 62.464844 C 133.800781 62.464844 135.140625 63.132812 135.8125 64.476562 C 136.816406 66.152344 136.148438 68.496094 134.472656 69.167969 L 134.136719 69.167969 C 130.449219 71.511719 127.433594 74.527344 125.089844 77.878906 C 127.097656 77.210938 129.109375 76.875 131.121094 76.875 L 131.789062 76.875 C 133.464844 76.875 134.808594 77.878906 135.140625 79.21875 C 135.8125 80.894531 135.140625 82.570312 133.464844 83.578125 L 133.132812 83.578125 C 125.421875 87.933594 121.402344 92.960938 120.730469 98.65625 C 120.394531 104.019531 122.070312 109.714844 125.757812 113.734375 C 131.121094 106.363281 135.140625 97.984375 137.488281 88.9375 C 137.824219 87.261719 139.5 86.257812 141.175781 86.257812 L 141.511719 86.257812 C 143.519531 86.257812 144.863281 87.933594 144.863281 89.941406 C 145.195312 101.335938 142.515625 112.730469 136.484375 122.785156 C 140.839844 124.792969 145.53125 126.136719 150.558594 126.136719 L 151.230469 126.136719 C 155.921875 126.136719 160.949219 124.792969 165.304688 122.785156 C 159.273438 112.730469 156.59375 101.335938 156.925781 89.941406 C 156.925781 87.933594 158.269531 86.59375 160.277344 86.257812 L 161.285156 86.257812 C 162.960938 86.257812 164.300781 87.261719 164.636719 88.9375 C 166.980469 97.984375 170.667969 106.363281 176.367188 113.402344 C 180.050781 109.042969 181.726562 103.683594 181.394531 98.320312 C 180.722656 92.625 176.367188 87.597656 168.992188 83.242188 L 168.65625 83.242188 C 167.316406 82.234375 166.648438 80.558594 166.980469 78.886719 C 167.316406 77.542969 168.65625 76.539062 170.332031 76.203125 L 171.339844 76.203125 C 173.347656 76.539062 175.359375 76.875 177.371094 77.542969 C 175.023438 74.191406 172.007812 71.175781 168.324219 68.832031 C 166.648438 67.824219 165.976562 65.816406 166.980469 63.804688 C 167.652344 62.464844 168.992188 61.792969 170.332031 61.792969 C 170.667969 61.792969 171.339844 61.792969 171.671875 62.128906 C 195.132812 71.511719 199.15625 91.953125 198.484375 105.023438 C 200.160156 103.011719 201.835938 101.003906 203.511719 98.65625 C 210.886719 87.933594 214.574219 75.535156 214.574219 62.464844 C 214.574219 55.761719 213.566406 49.058594 211.554688 42.691406 C 205.1875 38 198.148438 34.648438 190.441406 32.304688 C 188.429688 31.96875 187.089844 29.957031 187.761719 27.949219 C 188.097656 26.273438 189.4375 25.265625 191.113281 24.929688 L 191.78125 24.929688 C 195.804688 24.929688 199.492188 25.601562 203.175781 26.605469 C 198.148438 19.234375 191.445312 13.203125 184.074219 8.511719 C 182.398438 7.503906 181.726562 5.496094 182.734375 3.820312 C 183.402344 2.480469 184.746094 1.472656 186.085938 1.808594 L 187.089844 1.808594 C 194.128906 4.15625 200.832031 8.175781 206.863281 12.867188 C 206.527344 12.199219 206.863281 11.191406 207.199219 10.523438 C 207.871094 9.183594 209.210938 8.511719 210.550781 8.511719 C 210.886719 8.511719 211.554688 8.511719 211.890625 8.847656 C 228.984375 16.21875 241.382812 31.96875 244.734375 50.402344 C 247.75 65.480469 244.398438 81.230469 235.6875 93.628906 L 236.355469 93.964844 C 283.613281 141.214844 284.617188 217.621094 238.03125 265.207031 C 215.242188 288.667969 183.738281 301.734375 151.230469 301.734375 Z M 151.230469 301.734375 "/>
<path style=" stroke:none;fill-rule:nonzero;fill:rgb(16.078432%,31.764707%,20.784314%);fill-opacity:1;" d="M 78.839844 89.273438 C 78.839844 89.273438 73.476562 65.144531 77.496094 50.734375 C 76.492188 51.742188 75.488281 53.082031 74.480469 54.421875 C 64.761719 66.820312 78.839844 89.273438 78.839844 89.273438 Z M 223.621094 89.273438 C 223.621094 89.273438 237.695312 67.15625 228.3125 54.421875 C 227.308594 53.082031 226.300781 52.078125 224.960938 50.734375 C 228.984375 65.144531 223.621094 89.273438 223.621094 89.273438 Z M 61.746094 51.742188 C 64.761719 34.648438 76.15625 20.242188 92.242188 13.203125 C 80.847656 22.25 73.140625 35.320312 70.460938 49.730469 C 73.476562 45.710938 77.496094 42.023438 81.519531 39.007812 C 88.222656 23.59375 100.957031 11.863281 116.710938 6.167969 C 105.984375 12.867188 96.9375 22.25 91.238281 33.644531 C 97.605469 30.964844 104.308594 29.625 111.347656 29.625 C 102.96875 31.96875 94.925781 35.992188 87.886719 41.351562 C 85.539062 48.390625 84.199219 56.097656 84.199219 63.46875 C 84.199219 77.210938 88.222656 90.277344 95.929688 101.671875 C 99.617188 107.035156 103.972656 111.726562 109.335938 115.746094 C 107.660156 111.390625 101.292969 78.886719 132.125 66.484375 L 131.789062 66.484375 C 124.417969 71.179688 119.054688 78.886719 117.042969 87.261719 C 121.066406 83.578125 126.429688 81.230469 131.789062 80.894531 C 102.96875 97.652344 125.757812 120.105469 125.757812 120.105469 C 134.808594 112.398438 140.167969 95.640625 141.175781 90.949219 C 141.175781 109.046875 135.140625 119.769531 131.121094 124.796875 C 136.816406 128.816406 143.855469 130.828125 150.558594 130.828125 C 157.597656 130.828125 164.636719 128.816406 170.332031 124.796875 C 166.3125 119.433594 160.277344 108.710938 160.277344 90.949219 C 161.285156 95.640625 166.644531 112.730469 175.695312 120.105469 C 175.695312 120.105469 198.484375 97.652344 169.664062 81.230469 C 175.023438 81.566406 180.386719 83.578125 184.410156 87.597656 C 182.398438 78.886719 177.035156 71.511719 169.664062 66.820312 L 169.328125 66.820312 C 200.160156 79.21875 193.792969 112.0625 192.117188 116.082031 C 197.480469 112.398438 201.835938 107.371094 205.523438 102.34375 C 214.238281 90.28125 218.257812 77.210938 218.257812 63.46875 C 218.257812 56.097656 216.917969 48.390625 214.570312 41.351562 C 207.535156 35.992188 199.824219 31.96875 191.445312 29.625 C 198.484375 29.625 205.1875 30.964844 211.554688 33.644531 C 205.859375 22.25 196.808594 12.867188 186.085938 6.167969 C 201.835938 11.863281 214.570312 23.59375 221.273438 39.007812 C 225.632812 42.023438 229.316406 45.710938 232.335938 49.730469 C 229.652344 35.320312 221.945312 22.25 210.550781 13.203125 C 226.636719 20.242188 238.03125 34.652344 241.046875 51.742188 C 248.085938 86.59375 220.269531 108.039062 197.8125 126.804688 L 214.90625 119.769531 C 215.910156 119.097656 216.917969 120.4375 216.582031 121.78125 L 215.910156 126.136719 C 215.578125 128.480469 213.902344 140.210938 207.535156 143.898438 C 204.183594 145.238281 200.496094 146.242188 196.808594 146.242188 L 184.074219 146.914062 L 186.085938 154.285156 L 173.347656 174.390625 L 179.714844 167.691406 L 192.789062 214.605469 L 156.589844 244.097656 L 167.988281 193.160156 L 151.230469 213.601562 L 134.472656 193.160156 L 145.867188 244.097656 L 109.671875 214.269531 L 122.742188 167.355469 L 129.109375 174.058594 L 116.375 153.949219 L 118.386719 146.578125 L 105.648438 145.90625 C 101.964844 145.90625 98.277344 145.238281 94.925781 143.5625 C 88.558594 139.875 86.882812 128.148438 86.546875 125.800781 L 86.210938 121.445312 C 85.875 120.105469 86.882812 119.097656 87.886719 119.433594 L 104.980469 126.472656 C 82.523438 108.039062 54.707031 86.257812 61.746094 51.742188 Z M 77.832031 106.363281 C 58.058594 126.136719 46.664062 152.945312 46.664062 180.757812 C 46.664062 187.460938 47.335938 193.828125 48.675781 200.195312 L 80.179688 191.816406 C 85.875 231.027344 122.40625 257.835938 161.617188 251.804688 C 192.789062 247.113281 217.253906 222.648438 221.609375 191.484375 L 254.117188 200.53125 C 260.488281 166.347656 249.761719 131.164062 224.960938 106.699219 L 227.644531 103.683594 C 270.542969 145.90625 270.875 214.941406 228.648438 257.5 C 186.421875 300.058594 117.714844 300.394531 74.816406 258.171875 C 31.917969 215.945312 31.917969 147.25 74.144531 104.355469 C 74.480469 104.019531 74.816406 103.683594 75.152344 103.347656 Z M 233.339844 97.652344 L 230.660156 100.667969 C 275.234375 144.566406 275.566406 215.945312 231.664062 260.515625 C 187.761719 305.085938 116.039062 305.085938 71.800781 261.1875 C 27.5625 217.285156 27.226562 145.574219 71.128906 101.339844 C 71.351562 101.113281 71.578125 100.890625 71.800781 100.667969 L 69.117188 97.652344 C 23.203125 142.890625 22.535156 216.953125 68.113281 263.199219 C 113.691406 309.441406 187.425781 309.777344 233.339844 264.539062 C 279.253906 219.296875 279.925781 145.238281 234.679688 98.992188 C 234.34375 98.320312 234.011719 97.988281 233.339844 97.652344 Z M 233.339844 97.652344 "/>
<path style=" stroke:none;fill-rule:nonzero;fill:rgb(100%,100%,100%);fill-opacity:1;" d="M 142.851562 258.171875 L 136.148438 267.21875 L 139.164062 283.304688 L 135.140625 282.632812 L 132.796875 270.90625 L 131.121094 281.964844 L 127.433594 281.292969 L 131.789062 256.160156 L 135.476562 256.832031 L 134.472656 263.867188 L 139.164062 257.5 Z M 195.46875 269.230469 L 192.117188 262.863281 L 196.472656 260.515625 L 199.824219 266.882812 Z M 187.425781 254.148438 L 191.78125 251.804688 L 194.796875 257.164062 L 190.441406 259.511719 Z M 197.816406 258.507812 L 198.148438 256.160156 L 194.128906 249.121094 L 190.777344 247.78125 L 182.0625 252.472656 L 194.128906 274.589844 L 202.839844 269.898438 L 203.847656 266.214844 L 200.160156 259.511719 Z M 157.933594 279.617188 L 157.933594 283.640625 L 145.867188 283.972656 L 145.53125 258.839844 L 157.597656 258.507812 L 157.597656 262.527344 L 149.21875 262.527344 L 149.21875 268.558594 L 157.597656 268.558594 L 157.597656 272.582031 L 149.21875 272.582031 L 149.21875 279.617188 Z M 176.367188 276.601562 L 177.035156 280.625 L 164.96875 282.96875 L 160.277344 258.171875 L 172.34375 255.824219 L 173.015625 259.847656 L 164.96875 261.523438 L 165.976562 267.554688 L 174.019531 265.878906 L 174.691406 269.898438 L 166.980469 271.238281 L 168.320312 278.277344 Z M 205.1875 236.386719 L 221.609375 255.824219 L 219.597656 257.5 L 213.902344 262.191406 L 211.554688 264.203125 L 195.46875 244.765625 L 198.484375 242.085938 L 212.226562 258.171875 L 215.914062 254.820312 L 202.171875 238.734375 Z M 251.101562 205.222656 L 247.75 217.621094 L 245.070312 216.953125 L 241.046875 215.613281 L 242.054688 211.925781 L 245.070312 212.929688 L 246.410156 208.238281 L 239.707031 206.230469 L 237.027344 214.273438 L 234.34375 213.601562 L 223.621094 210.25 L 224.289062 207.570312 L 226.972656 198.1875 L 229.652344 198.855469 L 233.675781 200.195312 L 232.667969 203.882812 L 229.652344 203.210938 L 228.3125 207.902344 L 234.011719 209.578125 L 236.691406 201.203125 L 239.371094 201.871094 L 248.421875 204.554688 Z M 228.984375 220.972656 L 245.070312 222.984375 L 243.058594 226.671875 L 231.328125 225.328125 L 241.046875 230.691406 L 239.371094 234.042969 L 216.917969 221.980469 L 218.59375 218.628906 L 224.960938 221.980469 L 220.269531 215.613281 L 222.28125 211.925781 Z M 233.003906 238.398438 L 235.351562 240.074219 L 228.984375 247.78125 L 227.308594 250.128906 L 209.878906 236.054688 L 207.535156 234.378906 L 215.578125 224.324219 L 217.921875 226 L 221.609375 229.015625 L 219.265625 232.03125 L 216.582031 229.6875 L 213.566406 233.707031 L 226.972656 244.429688 L 229.988281 240.410156 L 227.308594 238.0625 L 229.652344 235.046875 Z M 129.109375 255.488281 L 120.0625 278.949219 L 117.378906 277.941406 L 110.675781 275.261719 L 107.660156 274.257812 L 117.042969 250.796875 L 120.730469 252.136719 L 113.023438 271.910156 L 117.714844 273.585938 L 125.421875 253.8125 Z M 69.789062 236.722656 L 74.480469 243.425781 L 71.128906 245.773438 L 64.089844 235.71875 L 84.871094 220.972656 L 87.214844 224.324219 Z M 79.507812 210.921875 L 55.378906 219.296875 L 54.039062 215.613281 L 69.117188 210.585938 L 62.082031 210.25 L 67.441406 205.894531 L 52.695312 210.921875 L 51.355469 207.234375 L 75.488281 198.855469 L 76.828125 202.542969 L 71.464844 206.898438 L 78.503906 207.234375 Z M 83.195312 217.621094 L 60.738281 229.6875 L 58.730469 226.335938 L 81.183594 214.269531 Z M 102.296875 241.078125 L 82.859375 257.835938 L 80.179688 255.15625 L 84.871094 248.117188 L 77.832031 252.808594 L 75.152344 250.128906 L 91.238281 230.355469 L 93.917969 233.035156 L 87.214844 241.414062 L 96.265625 235.382812 L 97.269531 236.386719 L 91.574219 245.4375 L 99.617188 238.734375 Z M 105.984375 255.824219 L 101.964844 253.144531 L 105.316406 247.78125 L 109.335938 250.464844 Z M 114.027344 250.464844 L 114.699219 249.457031 L 103.972656 242.753906 L 90.234375 263.867188 L 93.585938 265.878906 L 99.617188 256.496094 L 103.640625 259.175781 L 97.605469 268.558594 L 100.957031 270.570312 L 112.351562 252.472656 Z M 114.027344 250.464844 "/>
<path style=" stroke:none;fill-rule:nonzero;fill:rgb(100%,100%,100%);fill-opacity:1;" d="M 139.5 145.90625 L 130.785156 141.886719 C 130.113281 141.550781 129.445312 141.886719 129.445312 142.558594 L 129.445312 142.890625 C 129.109375 144.902344 129.78125 146.914062 131.121094 148.253906 C 133.800781 150.597656 137.488281 150.265625 139.835938 147.917969 C 140.503906 147.25 140.503906 146.578125 139.5 145.90625 C 139.722656 145.90625 139.722656 145.90625 139.5 145.90625 Z M 139.5 145.90625 "/>
<path style=" stroke:none;fill-rule:nonzero;fill:rgb(100%,100%,100%);fill-opacity:1;" d="M 92.242188 125.800781 C 92.242188 125.800781 93.585938 136.191406 97.941406 138.535156 C 100.957031 140.210938 107.996094 139.875 114.363281 140.546875 C 106.320312 137.195312 98.945312 132.167969 92.242188 125.800781 Z M 92.242188 125.800781 "/>
<path style=" stroke:none;fill-rule:nonzero;fill:rgb(100%,100%,100%);fill-opacity:1;" d="M 143.855469 188.46875 L 147.542969 193.492188 L 155.25 193.492188 L 158.601562 188.46875 Z M 143.855469 188.46875 "/>
<path style=" stroke:none;fill-rule:nonzero;fill:rgb(100%,100%,100%);fill-opacity:1;" d="M 210.550781 125.800781 C 203.847656 131.832031 196.472656 136.859375 188.09375 140.546875 C 194.464844 139.875 201.5 140.210938 204.519531 138.535156 C 208.875 136.523438 210.214844 125.800781 210.550781 125.800781 Z M 210.550781 125.800781 "/>
<path style=" stroke:none;fill-rule:nonzero;fill:rgb(100%,100%,100%);fill-opacity:1;" d="M 158.601562 160.988281 L 155.25 149.929688 L 151.230469 151.605469 L 147.207031 149.59375 L 143.855469 160.652344 C 142.851562 163.667969 140.839844 166.351562 137.824219 168.023438 L 136.148438 177.410156 L 141.175781 184.109375 L 146.535156 184.109375 L 141.511719 177.074219 L 142.179688 172.382812 C 146.871094 177.410156 154.582031 177.742188 159.609375 173.050781 C 159.832031 172.828125 160.054688 172.605469 160.277344 172.382812 L 161.285156 177.074219 L 156.257812 184.445312 L 161.617188 184.445312 L 166.644531 177.742188 L 164.636719 168.359375 C 161.953125 166.683594 159.609375 164.003906 158.601562 160.988281 Z M 158.601562 160.988281 "/>
<path style=" stroke:none;fill-rule:nonzero;fill:rgb(100%,100%,100%);fill-opacity:1;" d="M 171.671875 141.886719 L 162.960938 145.90625 C 162.289062 146.242188 162.289062 146.914062 162.289062 147.582031 C 162.289062 147.582031 162.289062 147.917969 162.625 147.917969 C 164.96875 150.601562 168.992188 150.601562 171.339844 148.253906 C 173.015625 146.914062 173.683594 144.902344 173.015625 142.890625 C 173.015625 142.222656 172.34375 141.886719 171.671875 141.886719 C 171.898438 141.886719 171.898438 141.886719 171.671875 141.886719 Z M 171.671875 141.886719 "/>
</g>
</svg>
