<?xml version="1.0" encoding="UTF-8"?>
<svg xmlns="http://www.w3.org/2000/svg" xmlns:xlink="http://www.w3.org/1999/xlink" width="300px" height="300px" viewBox="0 0 300 300" version="1.1">
<g id="surface1">
<path style=" stroke:none;fill-rule:nonzero;fill:rgb(61.960787%,63.529414%,63.529414%);fill-opacity:1;" d="M 299.246094 150.257812 C 299.246094 67.902344 232.5 1.140625 150.167969 1.140625 C 67.835938 1.140625 1.089844 67.902344 1.089844 150.257812 C 1.089844 232.613281 67.835938 299.378906 150.167969 299.378906 C 232.5 299.378906 299.246094 232.613281 299.246094 150.257812 Z M 299.246094 150.257812 "/>
<path style=" stroke:none;fill-rule:nonzero;fill:rgb(4.705882%,13.725491%,25.098041%);fill-opacity:1;" d="M 294.742188 150.050781 C 294.742188 70.605469 230.351562 6.199219 150.921875 6.199219 C 71.488281 6.199219 7.097656 70.605469 7.097656 150.050781 C 7.097656 229.496094 71.488281 293.898438 150.921875 293.898438 C 230.351562 293.898438 294.742188 229.496094 294.742188 150.050781 Z M 294.742188 150.050781 "/>
<path style=" stroke:none;fill-rule:nonzero;fill:rgb(13.725491%,38.039216%,57.254905%);fill-opacity:1;" d="M 151.28125 54.933594 C 143.984375 54.890625 136.78125 55.695312 129.800781 57.273438 C 129.15625 59.351562 128.285156 63.398438 129.746094 67.078125 C 130.625 69.296875 132.328125 71.09375 134.730469 72.492188 C 141.320312 69.8125 148.46875 67.070312 155.371094 64.761719 C 164.082031 61.582031 171.820312 59.828125 177.835938 58.902344 C 177.675781 58.855469 177.523438 58.796875 177.363281 58.753906 C 173.082031 57.507812 168.789062 56.578125 164.5 55.945312 C 160.078125 55.292969 155.664062 54.960938 151.28125 54.933594 Z M 123.160156 59.03125 C 109.542969 63.164062 96.972656 70.289062 86.445312 79.886719 C 86.90625 79.886719 87.421875 79.902344 87.910156 79.914062 C 96.933594 79.378906 109.773438 79.75 117.113281 80.046875 C 120.210938 78.652344 123.980469 76.996094 128.164062 75.222656 C 126.34375 73.53125 124.957031 71.554688 124.058594 69.265625 C 122.640625 65.640625 122.695312 61.953125 123.160156 59.03125 Z M 190.90625 63.832031 L 190.902344 63.941406 C 190.640625 63.933594 170.609375 63.476562 145.816406 75.5 C 145.378906 75.753906 144.949219 76.027344 144.527344 76.3125 C 152.296875 78.585938 158.710938 79.054688 163.320312 79.367188 C 164.40625 79.441406 165.367188 79.507812 166.207031 79.585938 L 166.894531 79.648438 C 169.886719 79.898438 174.074219 80.375 179.003906 81.257812 C 182.671875 76.765625 187.101562 73.96875 190.082031 73.304688 C 193.597656 74.621094 195.394531 76.675781 196.671875 79.605469 C 201.542969 81.648438 204.804688 85.242188 206.953125 89.542969 C 218.222656 94.449219 229.554688 101.71875 238.214844 112.480469 C 229.140625 91.496094 212.613281 73.886719 190.910156 63.832031 Z M 139.257812 80.972656 C 137.207031 83.238281 135.519531 85.632812 134.25 87.644531 C 136.824219 90.324219 141.742188 95.472656 144.179688 98.214844 C 148.390625 100.746094 152.613281 103.492188 156.796875 106.425781 C 163.460938 98.921875 169.382812 92.832031 175.226562 86.71875 C 172.386719 86.3125 169.449219 85.976562 166.386719 85.714844 L 165.625 85.652344 C 164.835938 85.574219 163.921875 85.515625 162.902344 85.441406 C 157.652344 85.085938 149.3125 84.441406 139.257812 80.972656 Z M 86.234375 86.011719 C 83.785156 86.007812 81.707031 86.101562 80.128906 86.210938 C 72.230469 94.902344 65.859375 105.1875 61.535156 116.738281 C 71.222656 106.6875 85.789062 95.996094 101.972656 99.160156 C 103.253906 96.890625 104.546875 94.617188 105.726562 92.550781 C 100.671875 89.238281 97.515625 86.835938 88.804688 86.054688 C 87.910156 86.027344 87.050781 86.015625 86.234375 86.015625 Z M 209.542969 97.050781 C 212.433594 110.003906 209.152344 124.722656 209.152344 124.722656 C 209.152344 124.722656 216.195312 128.796875 217.90625 136.574219 C 217.914062 136.578125 218.847656 136.972656 219.585938 138.117188 C 221.554688 140.53125 224.066406 146.101562 220.027344 157.050781 C 220.027344 157.050781 217.632812 151.9375 212.5625 157.441406 C 212.125 158.050781 211.703125 158.65625 211.289062 159.25 C 220.945312 172.535156 228.300781 186.402344 232.042969 199.9375 C 236.339844 192.898438 239.800781 185.191406 242.21875 176.890625 C 245.582031 165.335938 246.632812 153.664062 245.691406 142.347656 C 243.242188 131.046875 235.257812 110.230469 209.542969 97.050781 Z M 121.03125 99.265625 C 118.421875 100.511719 115.566406 101.960938 112.8125 103.554688 C 120.566406 108.644531 126.335938 117.246094 130.730469 127.351562 C 136.894531 125.210938 141.152344 125.167969 141.152344 125.167969 C 145.292969 119.898438 149.117188 115.277344 152.703125 111.105469 C 148.558594 108.207031 144.386719 105.496094 140.226562 103.003906 C 135.664062 101.363281 124.765625 99.777344 121.03125 99.265625 Z M 95.394531 104.6875 C 78.429688 105.253906 63.433594 122.957031 57.382812 131.160156 C 53.148438 151.75 55.957031 172.386719 64.3125 190.371094 C 68.800781 186.160156 73.117188 181.808594 77.226562 177.46875 C 76.90625 163.800781 78.738281 150.625 82.738281 138.035156 C 86.09375 127.476562 90.609375 118.554688 95.414062 111.121094 C 96.144531 109.679688 97.363281 107.421875 98.8125 104.808594 C 97.664062 104.6875 96.527344 104.648438 95.394531 104.6875 Z M 107.070312 107.234375 C 105.621094 108.285156 104.308594 109.363281 103.203125 110.449219 C 92.113281 126.050781 84.214844 146.429688 83.449219 170.75 C 95.296875 157.707031 105.046875 145.621094 111.699219 139.21875 C 116.308594 134.789062 120.964844 131.761719 125.183594 129.683594 C 120.769531 119.511719 114.945312 111.203125 107.070312 107.234375 Z M 207.605469 164.832031 C 201.390625 174.929688 198.339844 184.425781 197.992188 201.089844 C 197.800781 210.214844 202.296875 217.25 205.636719 228.101562 C 213.914062 222.273438 221.292969 215.117188 227.414062 206.820312 C 224.664062 193.191406 217.5 178.78125 207.605469 164.832031 Z M 207.605469 164.832031 "/>
<path style=" stroke:none;fill-rule:nonzero;fill:rgb(47.058824%,74.509805%,12.54902%);fill-opacity:1;" d="M 189.8125 77.460938 C 187.980469 77.410156 185.628906 79.050781 182.742188 84.304688 C 188.902344 77.710938 194.320312 81.960938 194.320312 81.960938 C 193.660156 80.394531 192.167969 77.53125 189.8125 77.460938 Z M 132.121094 78.765625 L 118.90625 85.398438 C 118.90625 85.398438 109.445312 84.617188 104.472656 84.472656 C 109.007812 87.398438 112.945312 90.757812 112.945312 90.757812 L 107.097656 100.460938 L 119.570312 93.675781 C 119.570312 93.675781 127.441406 95.003906 134.609375 96.464844 C 130.511719 91.785156 125.53125 88.324219 125.53125 88.324219 Z M 137.441406 135.847656 C 130.238281 139.445312 119.40625 150.242188 119.40625 150.242188 C 124.628906 146.691406 135.480469 145.085938 135.480469 145.085938 C 135.703125 140.636719 137.441406 135.847656 137.441406 135.847656 Z M 137.441406 135.847656 "/>
<path style=" stroke:none;fill-rule:nonzero;fill:rgb(61.960787%,63.529414%,63.529414%);fill-opacity:1;" d="M 150.601562 42.875 C 97.320312 42.875 51.652344 82.742188 44.363281 135.59375 C 41.335938 157.542969 45.058594 179.382812 54.894531 198.722656 C 56.125 197.695312 57.347656 196.648438 58.5625 195.585938 C 49.539062 177.34375 46.160156 156.839844 49.003906 136.234375 C 55.96875 85.679688 99.644531 47.558594 150.601562 47.558594 C 155.296875 47.558594 160.054688 47.886719 164.746094 48.535156 C 191.875 52.273438 215.949219 66.382812 232.53125 88.273438 C 249.113281 110.15625 256.1875 137.152344 252.445312 164.277344 C 248.320312 194.214844 231.320312 219.785156 207.566406 235.667969 C 207.886719 237.261719 208.171875 238.9375 208.40625 240.699219 C 234.160156 224.195312 252.667969 196.945312 257.085938 164.917969 C 260.996094 136.550781 253.597656 108.324219 236.257812 85.445312 C 218.917969 62.5625 193.75 47.804688 165.382812 43.898438 C 160.480469 43.222656 155.507812 42.875 150.597656 42.875 Z M 197.5 87.382812 C 197.714844 88.050781 197.476562 90.402344 197.285156 92.257812 C 197.285156 92.257812 197.265625 92.226562 197.253906 92.214844 C 192.957031 92.996094 183.480469 91.925781 180.40625 90.3125 C 168.753906 102.8125 156.050781 120.199219 146.488281 136.171875 C 142.34375 144.617188 138.277344 154.527344 137.261719 162.578125 C 137.261719 162.578125 135.941406 158.933594 135.632812 154.078125 C 130.339844 156.121094 112.355469 164.960938 108.507812 192.0625 C 108.507812 192.0625 119.941406 180.269531 132.578125 175.671875 C 132.578125 175.671875 124.570312 196.632812 139.847656 233.78125 C 139.847656 233.78125 146.03125 211 158.964844 205.257812 C 166.796875 244.152344 189.757812 244.789062 196.457031 271.257812 C 196.457031 271.257812 203.472656 257.546875 195.027344 234.246094 C 195.027344 234.246094 197.941406 235.054688 200.40625 237.964844 C 200.40625 237.964844 200.023438 231.152344 193.652344 216.445312 C 189.5 208.570312 188.199219 197.949219 188.199219 197.949219 C 184.46875 201.328125 183.519531 212.742188 183.519531 212.742188 C 172.117188 181.816406 204.472656 151.171875 210.378906 146.648438 C 213.261719 144.4375 215.035156 144.402344 216.109375 144.929688 C 217.21875 142.628906 217.121094 141.15625 215.785156 140.195312 C 215.785156 140.195312 215.222656 139.808594 215.097656 139.746094 C 211.664062 137.914062 205.507812 143.253906 201.492188 145.464844 C 197.476562 147.675781 191.625 152.386719 188.765625 145.898438 C 185.910156 139.40625 192.480469 129.253906 194.757812 122.867188 C 199.78125 108.742188 199.964844 100.429688 198.902344 95.929688 C 203.546875 101.171875 205.003906 111.21875 205.003906 111.21875 C 205.003906 111.21875 206.730469 92.351562 197.503906 87.382812 Z M 96.917969 195.113281 C 96.917969 195.113281 75.351562 210.917969 53.296875 212.183594 C 53.296875 212.183594 75.121094 217.324219 84.351562 213.554688 C 83.464844 212.976562 82.472656 212.136719 81.488281 210.886719 C 81.488281 210.886719 90.402344 205.144531 96.871094 195.226562 C 96.882812 195.191406 96.90625 195.152344 96.917969 195.113281 Z M 96.917969 195.113281 "/>
<path style=" stroke:none;fill-rule:nonzero;fill:rgb(100%,100%,100%);fill-opacity:1;" d="M 161.988281 16.238281 L 161.464844 20.191406 L 166.5 20.859375 L 164.628906 34.976562 L 168.6875 35.519531 L 170.558594 21.398438 L 175.59375 22.066406 L 176.117188 18.113281 Z M 127.015625 17.851562 L 126.433594 17.949219 L 121.339844 37.488281 L 125.777344 36.722656 L 128.3125 27.132812 L 133.886719 35.324219 L 138.355469 34.554688 Z M 187.675781 21.132812 L 182.488281 38.613281 L 186.414062 39.777344 L 191.597656 22.296875 Z M 108.632812 22.09375 L 95.425781 27.4375 L 96.917969 31.136719 L 101.625 29.230469 L 106.972656 42.433594 L 110.765625 40.902344 L 105.421875 27.695312 L 110.128906 25.789062 Z M 205.378906 27.058594 L 196.851562 43.386719 L 200.460938 45.273438 L 204.386719 37.75 L 206.246094 44.714844 L 206.71875 44.964844 L 213.488281 42.5 L 209.558594 50.023438 L 213.199219 51.925781 L 221.722656 35.597656 L 221.171875 35.308594 L 209.164062 39.695312 L 205.929688 27.429688 L 205.90625 27.339844 L 205.378906 27.0625 Z M 82.832031 35.515625 C 77.65625 35.515625 73.464844 39.707031 73.464844 44.882812 C 73.464844 50.054688 77.65625 54.246094 82.832031 54.246094 C 88.003906 54.246094 92.199219 50.054688 92.199219 44.882812 C 92.199219 39.707031 88.003906 35.515625 82.832031 35.515625 Z M 82.832031 39.773438 C 85.65625 39.773438 87.941406 42.058594 87.941406 44.882812 C 87.941406 47.703125 85.65625 49.992188 82.832031 49.992188 C 80.007812 49.992188 77.71875 47.703125 77.71875 44.882812 C 77.71875 42.058594 80.007812 39.773438 82.832031 39.773438 Z M 233.929688 44.640625 L 231.257812 47.714844 L 229.4375 49.8125 L 229.292969 49.980469 L 226.769531 52.882812 L 224.605469 55.378906 L 221.933594 58.449219 L 225.003906 61.121094 L 227.671875 63.433594 C 228.839844 64.449219 230.207031 65.011719 231.632812 65.054688 C 233.320312 65.109375 234.929688 64.402344 236.042969 63.113281 C 237.019531 61.992188 237.488281 60.574219 237.390625 59.117188 C 238.417969 58.839844 239.363281 58.253906 240.113281 57.394531 C 241.261719 56.074219 241.730469 54.449219 241.429688 52.828125 C 241.1875 51.511719 240.460938 50.320312 239.273438 49.289062 L 237.003906 47.3125 Z M 234.332031 50.382812 L 236.605469 52.359375 C 237.558594 53.1875 237.703125 53.964844 237.039062 54.726562 C 236.226562 55.664062 235.210938 55.125 234.5 54.507812 L 232.363281 52.652344 L 234.328125 50.382812 Z M 61.011719 52.601562 L 60.652344 52.609375 C 58.613281 52.671875 56.691406 53.671875 54.941406 55.578125 C 53.835938 56.785156 53.160156 58.214844 53.035156 59.601562 C 52.878906 61.222656 53.480469 62.703125 54.761719 63.878906 C 56.75 65.695312 59.085938 65.820312 61.902344 64.25 L 63.863281 63.164062 C 64.878906 62.589844 65.535156 62.375 66.078125 62.875 C 66.730469 63.464844 66.574219 64.304688 65.621094 65.363281 C 65.613281 65.375 65.601562 65.386719 65.589844 65.394531 C 64.328125 66.773438 62.898438 66.875 61.933594 66.835938 L 61.585938 66.820312 L 61.140625 71.363281 L 61.527344 71.382812 C 63.042969 71.464844 66.007812 71.136719 68.820312 68.058594 C 68.847656 68.03125 68.871094 68.003906 68.898438 67.976562 C 70.328125 66.386719 71.089844 64.8125 71.167969 63.296875 C 71.25 61.722656 70.597656 60.292969 69.226562 59.039062 C 67.199219 57.179688 64.984375 57.140625 61.839844 58.902344 L 59.644531 60.128906 C 58.835938 60.585938 58.367188 60.605469 57.917969 60.191406 C 57.390625 59.707031 57.488281 58.964844 58.179688 58.199219 C 58.183594 58.195312 58.183594 58.191406 58.1875 58.1875 C 58.976562 57.328125 59.84375 56.886719 60.921875 56.800781 L 61.289062 56.773438 L 61.011719 52.605469 Z M 229.855469 55.554688 L 232.363281 57.734375 C 233.398438 58.628906 233.640625 59.695312 232.984375 60.445312 C 232.332031 61.195312 231.273438 61.164062 230.355469 60.363281 L 227.6875 58.042969 Z M 253.496094 63.542969 L 239.199219 74.863281 L 246.890625 84.582031 L 250.082031 82.054688 L 244.929688 75.546875 L 247.324219 73.652344 L 251.757812 79.253906 L 254.953125 76.730469 L 250.515625 71.128906 L 252.871094 69.261719 L 258.023438 75.769531 L 261.1875 73.265625 Z M 42.664062 69.675781 L 35.789062 79.984375 L 50.957031 90.101562 L 57.832031 79.792969 L 54.449219 77.53125 L 49.839844 84.4375 L 47.300781 82.746094 L 51.269531 76.796875 L 47.878906 74.539062 L 43.917969 80.484375 L 41.414062 78.820312 L 46.019531 71.914062 L 42.660156 69.675781 Z M 268.507812 85.15625 L 252.15625 93.21875 L 253.960938 96.890625 L 261.53125 93.160156 L 256.359375 101.753906 L 258.515625 106.125 C 258.515625 106.125 262.257812 99.828125 262.523438 99.410156 C 264.085938 101.066406 266.65625 101.289062 268.929688 100.171875 C 272.34375 98.488281 273.417969 95.109375 271.519531 91.269531 Z M 266.71875 90.605469 L 267.871094 92.953125 C 268.699219 94.632812 268.3125 95.796875 266.824219 96.527344 C 265.320312 97.269531 264.136719 96.878906 263.308594 95.199219 L 262.152344 92.851562 Z M 28.589844 93.21875 L 27.03125 97.035156 L 35.839844 100.632812 L 22.996094 106.492188 L 22.75 107.105469 L 39.769531 114.0625 L 41.308594 110.289062 L 32.460938 106.675781 L 45.363281 100.796875 L 45.609375 100.175781 Z M 278.761719 107.511719 L 262.457031 118.34375 L 262.609375 118.972656 L 273.585938 121.523438 L 264.96875 128.761719 L 265.121094 129.398438 L 284.574219 131.597656 L 283.558594 127.398438 L 274.199219 126.296875 L 281.898438 119.839844 L 281.75 119.21875 L 271.9375 116.914062 L 279.777344 111.722656 Z M 18.707031 122.378906 L 18.074219 126.449219 L 27.472656 127.917969 L 16.324219 136.578125 L 16.222656 137.238281 L 34.390625 140.082031 L 35.019531 136.050781 L 25.578125 134.574219 L 36.773438 125.882812 L 36.875 125.222656 Z M 209.757812 130.835938 C 210.65625 132.222656 210.6875 134.140625 210.582031 135.367188 C 211.785156 135.070312 212.6875 135.027344 213.355469 135.070312 C 213.160156 134.519531 212.785156 133.691406 212.109375 132.871094 C 211.152344 131.707031 209.757812 130.835938 209.757812 130.835938 Z M 200.242188 132.671875 C 201.246094 135.636719 201.035156 138.640625 200.789062 140.304688 C 202.195312 139.339844 203.46875 138.542969 204.632812 137.890625 C 204.417969 137.386719 204.09375 136.664062 203.597656 135.789062 C 202.671875 134.125 200.242188 132.671875 200.242188 132.671875 Z M 276.164062 141.582031 C 270.992188 141.582031 266.796875 145.777344 266.796875 150.949219 C 266.796875 156.125 270.992188 160.3125 276.164062 160.3125 C 281.335938 160.3125 285.53125 156.125 285.53125 150.949219 C 285.53125 145.777344 281.335938 141.582031 276.164062 141.582031 Z M 276.164062 145.839844 C 278.988281 145.839844 281.277344 148.125 281.277344 150.949219 C 281.277344 153.769531 278.988281 156.058594 276.164062 156.058594 C 273.339844 156.058594 271.054688 153.769531 271.054688 150.949219 C 271.054688 148.125 273.339844 145.839844 276.164062 145.839844 Z M 34.160156 151.210938 L 15.933594 151.644531 L 16.03125 155.738281 L 34.257812 155.300781 Z M 34.972656 166.222656 L 16.957031 170.03125 L 17.085938 170.640625 L 28.105469 177.117188 L 20.699219 187.417969 L 20.644531 187.492188 L 20.765625 188.074219 L 38.785156 184.269531 L 37.945312 180.285156 L 29.644531 182.039062 L 33.839844 176.175781 L 33.726562 175.652344 L 27.515625 171.992188 L 35.824219 170.238281 Z M 265.742188 169.917969 L 262.980469 181.753906 L 267.019531 182.699219 L 268.855469 174.847656 L 282.566406 178.046875 L 283.5 174.058594 Z M 278.9375 192.710938 L 258.765625 193.621094 L 258.542969 194.171875 L 272.519531 208.746094 L 274.191406 204.566406 L 267.355469 197.382812 L 277.25 196.921875 Z M 251.839844 208.121094 L 245.214844 218.59375 L 248.652344 220.769531 L 253.089844 213.753906 L 255.667969 215.386719 L 251.851562 221.425781 L 255.289062 223.601562 L 259.113281 217.5625 L 261.652344 219.167969 L 257.214844 226.183594 L 260.621094 228.339844 L 267.25 217.867188 Z M 242.605469 227.535156 C 242.28125 227.535156 239.359375 227.558594 237.363281 228.527344 C 236.316406 229.035156 235.40625 229.683594 234.660156 230.433594 C 233.707031 231.390625 233.035156 232.515625 232.714844 233.710938 C 232.1875 235.714844 232.769531 237.816406 234.226562 239.195312 C 235.628906 240.515625 237.597656 240.933594 239.5 240.3125 C 240.128906 240.109375 240.859375 239.75 241.710938 239.328125 C 242.707031 238.839844 244.214844 238.066406 244.910156 238.023438 C 246.589844 237.925781 246.550781 240.34375 244.402344 241.394531 C 243.605469 241.78125 242.238281 242.179688 241.527344 242.269531 L 242.042969 246.371094 C 242.324219 246.335938 244.804688 246.003906 246.570312 244.914062 C 249.589844 243.050781 250.179688 240.671875 250.257812 239.417969 C 250.335938 238.238281 249.84375 236.492188 248.566406 235.265625 C 247.488281 234.230469 246.035156 233.75 244.480469 233.910156 C 243.050781 234.058594 241.367188 234.890625 239.882812 235.617188 C 239.234375 235.9375 238.5625 236.265625 238.210938 236.382812 C 237.753906 236.53125 237.363281 236.46875 237.066406 236.1875 C 236.785156 235.921875 236.546875 235.410156 236.714844 234.769531 C 236.96875 233.816406 237.886719 232.871094 239.171875 232.25 C 240.03125 231.828125 241.730469 231.671875 242.601562 231.671875 L 242.609375 227.535156 Z M 242.605469 227.535156 "/>
</g>
</svg>
