<?xml version="1.0" encoding="UTF-8"?>
<svg xmlns="http://www.w3.org/2000/svg" xmlns:xlink="http://www.w3.org/1999/xlink" width="300px" height="300px" viewBox="0 0 300 300" version="1.1">
<g id="surface1">
<path style=" stroke:none;fill-rule:nonzero;fill:rgb(0%,8.627451%,26.666668%);fill-opacity:1;" d="M 60.695312 229.523438 L 68.304688 229.523438 C 70.613281 229.523438 74.40625 229.523438 74.40625 233.714844 C 74.40625 237.886719 70.613281 237.886719 68.304688 237.886719 L 63.363281 237.886719 L 63.363281 243.1875 L 60.695312 243.1875 Z M 68.886719 235.597656 C 70.410156 235.597656 71.742188 235.464844 71.742188 233.695312 C 71.742188 231.949219 70.410156 231.820312 68.886719 231.820312 L 63.363281 231.820312 L 63.363281 235.597656 Z M 68.886719 235.597656 "/>
<path style=" stroke:none;fill-rule:nonzero;fill:rgb(0%,8.627451%,26.666668%);fill-opacity:1;" d="M 85.714844 229.523438 L 97.960938 229.523438 L 97.960938 231.820312 L 88.378906 231.820312 L 88.378906 234.992188 L 96.628906 234.992188 L 96.628906 237.285156 L 88.378906 237.285156 L 88.378906 240.894531 L 98.1875 240.894531 L 98.1875 243.183594 L 85.714844 243.183594 Z M 85.714844 229.523438 "/>
<path style=" stroke:none;fill-rule:nonzero;fill:rgb(0%,8.627451%,26.666668%);fill-opacity:1;" d="M 109.699219 229.523438 L 112.367188 229.523438 L 112.367188 240.816406 L 122.269531 240.816406 L 122.269531 243.183594 L 109.699219 243.183594 Z M 109.699219 229.523438 "/>
<path style=" stroke:none;fill-rule:nonzero;fill:rgb(0%,8.627451%,26.666668%);fill-opacity:1;" d="M 133.855469 229.523438 L 136.523438 229.523438 L 136.523438 243.183594 L 133.855469 243.183594 Z M 133.855469 229.523438 "/>
<path style=" stroke:none;fill-rule:nonzero;fill:rgb(0%,8.627451%,26.666668%);fill-opacity:1;" d="M 163.65625 238.320312 C 163.394531 239.839844 162.304688 243.523438 156.03125 243.523438 C 153.984375 243.734375 151.949219 243.039062 150.460938 241.617188 C 148.976562 240.195312 148.1875 238.191406 148.308594 236.136719 C 148.308594 232.152344 150.804688 229.1875 156.234375 229.1875 C 162.34375 229.1875 163.242188 233.152344 163.449219 233.886719 L 160.785156 233.886719 C 159.980469 232.230469 158.214844 231.265625 156.386719 231.480469 C 154.554688 231.304688 152.78125 232.171875 151.792969 233.726562 C 150.804688 235.277344 150.773438 237.257812 151.710938 238.839844 C 152.648438 240.425781 154.398438 241.347656 156.234375 241.230469 C 158.296875 241.453125 160.25 240.257812 160.988281 238.320312 Z M 163.65625 238.320312 "/>
<path style=" stroke:none;fill-rule:nonzero;fill:rgb(0%,8.627451%,26.666668%);fill-opacity:1;" d="M 180.632812 229.527344 L 183.679688 229.527344 L 190.308594 243.183594 L 187.492188 243.183594 L 186.0625 240.050781 L 178.191406 240.050781 L 176.746094 243.183594 L 173.90625 243.183594 Z M 185.011719 237.753906 L 182.152344 231.664062 L 179.300781 237.753906 Z M 185.011719 237.753906 "/>
<path style=" stroke:none;fill-rule:nonzero;fill:rgb(0%,8.627451%,26.666668%);fill-opacity:1;" d="M 201.445312 229.523438 L 204.261719 229.523438 L 213.394531 239.386719 L 213.394531 229.523438 L 215.945312 229.523438 L 215.945312 243.183594 L 213.503906 243.183594 L 203.996094 232.960938 L 203.996094 243.183594 L 201.445312 243.183594 Z M 201.445312 229.523438 "/>
<path style=" stroke:none;fill-rule:nonzero;fill:rgb(0%,8.627451%,26.666668%);fill-opacity:1;" d="M 239.179688 233.679688 C 238.75 232.457031 237.640625 231.402344 234.390625 231.402344 C 232.585938 231.402344 230.761719 231.855469 230.761719 233.117188 C 230.761719 233.699219 231.101562 234.316406 233.824219 234.65625 L 237.054688 235.140625 C 240.121094 235.613281 241.921875 236.800781 241.921875 239.089844 C 241.921875 242.324219 238.839844 243.527344 235.195312 243.527344 C 229.335938 243.527344 227.90625 240.628906 227.589844 239.59375 L 230.164062 238.789062 C 230.652344 239.785156 231.664062 241.230469 235.273438 241.230469 C 237.453125 241.230469 239.253906 240.515625 239.253906 239.335938 C 239.253906 238.453125 238.242188 237.867188 236.285156 237.625 L 233.019531 237.171875 C 229.863281 236.738281 228.09375 235.367188 228.09375 233.285156 C 228.09375 229.1875 233.410156 229.1875 234.464844 229.1875 C 240.34375 229.1875 241.363281 231.914062 241.699219 232.851562 Z M 239.179688 233.679688 "/>
<path style=" stroke:none;fill-rule:nonzero;fill:rgb(0%,8.627451%,26.666668%);fill-opacity:1;" d="M 142.285156 202.042969 L 142.285156 193.953125 C 142.304688 192.9375 142.101562 191.933594 141.6875 191.003906 C 141.308594 190.195312 140.746094 189.480469 140.046875 188.925781 C 139.3125 188.359375 138.476562 187.945312 137.578125 187.707031 C 135.574219 187.175781 133.46875 187.175781 131.460938 187.707031 C 130.5625 187.945312 129.714844 188.359375 128.976562 188.925781 C 128.261719 189.476562 127.691406 190.1875 127.3125 191.003906 C 126.894531 191.933594 126.691406 192.9375 126.714844 193.953125 L 126.714844 202.054688 C 125.867188 202.179688 125.238281 202.90625 125.238281 203.765625 C 125.238281 204.621094 125.867188 205.351562 126.714844 205.476562 L 126.714844 214.546875 C 126.691406 215.5625 126.894531 216.570312 127.3125 217.5 C 127.695312 218.320312 128.265625 219.039062 128.976562 219.601562 C 129.710938 220.179688 130.558594 220.601562 131.460938 220.84375 C 133.464844 221.378906 135.574219 221.378906 137.578125 220.84375 C 138.480469 220.605469 139.320312 220.179688 140.046875 219.601562 C 140.746094 219.035156 141.304688 218.316406 141.6875 217.5 C 142.101562 216.570312 142.304688 215.5625 142.285156 214.546875 L 142.285156 205.488281 C 143.167969 205.398438 143.839844 204.65625 143.839844 203.765625 C 143.839844 202.878906 143.167969 202.136719 142.285156 202.042969 M 137.9375 214.371094 C 137.953125 214.882812 137.847656 215.390625 137.628906 215.855469 C 137.4375 216.234375 137.164062 216.566406 136.828125 216.828125 C 136.503906 217.082031 136.136719 217.269531 135.742188 217.382812 C 135.34375 217.503906 134.933594 217.5625 134.519531 217.5625 C 134.097656 217.5625 133.679688 217.503906 133.277344 217.382812 C 132.875 217.273438 132.5 217.085938 132.171875 216.828125 C 131.832031 216.570312 131.558594 216.234375 131.371094 215.855469 C 131.148438 215.390625 131.042969 214.882812 131.0625 214.371094 L 131.0625 194.140625 C 131.042969 193.625 131.148438 193.113281 131.371094 192.648438 C 131.5625 192.269531 131.835938 191.9375 132.171875 191.675781 C 132.5 191.421875 132.875 191.234375 133.277344 191.121094 C 133.679688 191.003906 134.097656 190.945312 134.519531 190.945312 C 134.933594 190.945312 135.34375 191.003906 135.742188 191.121094 C 136.132812 191.238281 136.503906 191.425781 136.828125 191.675781 C 137.160156 191.941406 137.433594 192.273438 137.628906 192.648438 C 137.847656 193.113281 137.953125 193.625 137.9375 194.140625 Z M 137.9375 214.371094 "/>
<path style=" stroke:none;fill-rule:nonzero;fill:rgb(0%,8.627451%,26.666668%);fill-opacity:1;" d="M 59.84375 209.492188 C 59.84375 209.578125 59.820312 209.589844 59.777344 209.539062 C 59.734375 209.472656 59.695312 209.414062 59.667969 209.359375 C 59.546875 208.972656 59.3125 208.203125 58.953125 207.054688 C 58.601562 205.898438 58.195312 204.558594 57.738281 203.03125 C 57.273438 201.511719 56.785156 199.914062 56.273438 198.242188 C 55.753906 196.570312 55.273438 195.03125 54.828125 193.628906 C 54.386719 192.222656 54.015625 191.054688 53.71875 190.101562 C 53.425781 189.15625 53.277344 188.652344 53.277344 188.59375 C 53.207031 188.332031 53.070312 188.09375 52.875 187.902344 L 47.066406 187.65625 L 47.066406 189.125 C 47.046875 189.542969 47.125 189.957031 47.289062 190.34375 C 47.410156 190.621094 47.59375 190.875 47.820312 191.078125 C 48.039062 191.289062 48.292969 191.457031 48.574219 191.566406 L 48.574219 202.0625 C 47.753906 202.214844 47.15625 202.933594 47.15625 203.769531 C 47.15625 204.605469 47.753906 205.324219 48.574219 205.476562 L 48.574219 220.878906 L 52.476562 220.878906 L 52.476562 199.730469 C 52.476562 199.554688 52.496094 199.480469 52.519531 199.507812 C 52.613281 199.667969 52.761719 200.152344 53.054688 201.082031 C 53.351562 202.015625 53.71875 203.175781 54.164062 204.570312 C 54.609375 205.957031 55.089844 207.464844 55.605469 209.089844 C 56.121094 210.71875 56.609375 212.25 57.070312 213.6875 C 57.53125 215.113281 57.917969 216.351562 58.242188 217.367188 C 58.570312 218.386719 58.761719 218.964844 58.824219 219.117188 C 58.941406 219.546875 59.097656 219.960938 59.289062 220.359375 L 62.683594 220.847656 L 63.75 205.433594 C 64.492188 205.222656 65.007812 204.542969 65.007812 203.769531 C 65.007812 202.996094 64.492188 202.316406 63.75 202.105469 L 63.75 191.875 C 64.464844 190.730469 64.703125 190.476562 64.902344 190.191406 C 65.148438 189.824219 65.273438 189.386719 65.253906 188.945312 L 65.253906 187.65625 L 59.84375 187.699219 Z M 59.84375 209.492188 "/>
<path style=" stroke:none;fill-rule:nonzero;fill:rgb(0%,8.627451%,26.666668%);fill-opacity:1;" d="M 231.859375 209.492188 C 231.859375 209.578125 231.835938 209.589844 231.789062 209.539062 C 231.746094 209.472656 231.710938 209.414062 231.679688 209.359375 C 231.558594 208.972656 231.324219 208.203125 230.96875 207.054688 C 230.617188 205.898438 230.207031 204.558594 229.746094 203.03125 C 229.289062 201.511719 228.804688 199.914062 228.28125 198.242188 C 227.769531 196.570312 227.289062 195.03125 226.84375 193.628906 C 226.398438 192.222656 226.03125 191.054688 225.730469 190.101562 C 225.4375 189.15625 225.289062 188.652344 225.289062 188.59375 C 225.222656 188.332031 225.085938 188.09375 224.890625 187.902344 L 219.082031 187.65625 L 219.082031 189.125 C 219.0625 189.542969 219.140625 189.957031 219.304688 190.34375 C 219.425781 190.621094 219.605469 190.875 219.832031 191.078125 C 220.050781 191.289062 220.308594 191.453125 220.589844 191.566406 L 220.589844 202.0625 C 219.769531 202.214844 219.171875 202.933594 219.171875 203.769531 C 219.171875 204.605469 219.769531 205.324219 220.589844 205.476562 L 220.589844 220.878906 L 224.492188 220.878906 L 224.492188 199.730469 C 224.492188 199.554688 224.503906 199.480469 224.535156 199.507812 C 224.625 199.667969 224.773438 200.152344 225.070312 201.082031 C 225.363281 202.015625 225.730469 203.175781 226.175781 204.570312 C 226.625 205.957031 227.101562 207.464844 227.621094 209.089844 C 228.136719 210.71875 228.625 212.25 229.082031 213.6875 C 229.542969 215.113281 229.933594 216.351562 230.257812 217.367188 C 230.585938 218.386719 230.773438 218.964844 230.839844 219.117188 C 230.957031 219.546875 231.113281 219.960938 231.304688 220.359375 L 234.699219 220.847656 L 235.761719 205.429688 C 236.507812 205.222656 237.019531 204.542969 237.019531 203.769531 C 237.019531 202.996094 236.507812 202.316406 235.761719 202.105469 L 235.761719 191.875 C 236.476562 190.730469 236.714844 190.476562 236.914062 190.191406 C 237.164062 189.824219 237.289062 189.386719 237.265625 188.945312 L 237.265625 187.65625 L 231.859375 187.699219 Z M 231.859375 209.492188 "/>
<path style=" stroke:none;fill-rule:nonzero;fill:rgb(0%,8.627451%,26.666668%);fill-opacity:1;" d="M 252.625 204.566406 C 251.917969 203.941406 251.167969 203.375 250.375 202.871094 C 250.433594 201.472656 249.65625 200.691406 248.695312 200.691406 C 248.292969 200.691406 247.902344 200.835938 247.59375 201.097656 C 247.453125 201 247.304688 200.90625 247.167969 200.816406 C 246.425781 200.335938 245.726562 199.792969 245.082031 199.195312 C 244.574219 198.777344 244.265625 198.167969 244.234375 197.511719 L 244.234375 193.117188 C 244.234375 192.800781 244.34375 192.492188 244.550781 192.253906 C 244.773438 191.988281 245.042969 191.769531 245.347656 191.609375 C 245.667969 191.433594 246.011719 191.300781 246.367188 191.214844 C 246.699219 191.125 247.042969 191.082031 247.386719 191.078125 C 247.722656 191.082031 248.058594 191.117188 248.386719 191.183594 C 248.742188 191.257812 249.082031 191.378906 249.402344 191.542969 C 249.707031 191.695312 249.972656 191.917969 250.183594 192.1875 C 250.390625 192.453125 250.5 192.78125 250.492188 193.117188 L 250.492188 194.761719 C 250.476562 195.433594 250.753906 196.082031 251.253906 196.535156 C 251.753906 197.007812 252.421875 197.261719 253.109375 197.246094 L 255.105469 197.246094 L 255.105469 193.957031 C 255.128906 192.941406 254.933594 191.9375 254.535156 191.003906 C 254.167969 190.191406 253.613281 189.480469 252.914062 188.925781 C 252.183594 188.363281 251.355469 187.941406 250.472656 187.679688 C 249.484375 187.394531 248.460938 187.25 247.433594 187.261719 C 246.414062 187.253906 245.398438 187.378906 244.414062 187.636719 C 243.542969 187.871094 242.726562 188.277344 242.019531 188.835938 C 241.328125 189.394531 240.78125 190.109375 240.421875 190.921875 C 240.015625 191.882812 239.820312 192.917969 239.847656 193.957031 L 239.847656 197.113281 C 239.816406 198.226562 240.097656 199.324219 240.664062 200.285156 C 241.21875 201.15625 241.914062 201.929688 242.730469 202.570312 C 243.558594 203.21875 244.433594 203.804688 245.351562 204.324219 C 245.246094 204.546875 245.191406 204.789062 245.191406 205.035156 C 245.191406 205.765625 245.648438 206.421875 246.335938 206.671875 C 247.023438 206.921875 247.792969 206.710938 248.261719 206.148438 C 248.976562 206.640625 249.613281 207.234375 250.160156 207.910156 C 250.714844 208.625 251.007812 209.515625 250.980469 210.421875 L 250.980469 215.125 C 250.984375 215.5 250.867188 215.867188 250.644531 216.167969 C 250.414062 216.488281 250.121094 216.757812 249.785156 216.964844 C 249.421875 217.1875 249.035156 217.367188 248.632812 217.5 C 248.246094 217.632812 247.839844 217.699219 247.433594 217.699219 C 247.027344 217.695312 246.625 217.636719 246.234375 217.519531 C 245.835938 217.410156 245.457031 217.246094 245.101562 217.03125 C 244.777344 216.835938 244.492188 216.578125 244.257812 216.277344 C 244.039062 215.980469 243.921875 215.625 243.929688 215.257812 L 243.929688 213.351562 C 243.964844 212.761719 243.746094 212.1875 243.332031 211.769531 C 242.824219 211.367188 242.179688 211.167969 241.53125 211.214844 L 239.402344 211.214844 L 239.402344 214.546875 C 239.378906 215.570312 239.601562 216.582031 240.046875 217.5 C 240.457031 218.320312 241.046875 219.03125 241.777344 219.582031 C 242.542969 220.148438 243.40625 220.566406 244.328125 220.804688 C 246.363281 221.335938 248.5 221.335938 250.539062 220.804688 C 251.464844 220.5625 252.335938 220.148438 253.109375 219.582031 C 253.851562 219.03125 254.460938 218.320312 254.886719 217.5 C 255.347656 216.585938 255.574219 215.570312 255.550781 214.546875 L 255.550781 210.195312 C 255.570312 209.089844 255.28125 208 254.710938 207.050781 C 254.140625 206.125 253.4375 205.289062 252.625 204.566406 "/>
<path style=" stroke:none;fill-rule:nonzero;fill:rgb(0%,8.627451%,26.666668%);fill-opacity:1;" d="M 108.957031 204.253906 C 108.78125 205.789062 108.601562 207.300781 108.425781 208.777344 C 108.246094 210.261719 108.082031 211.574219 107.9375 212.726562 C 107.785156 213.878906 107.667969 214.808594 107.582031 215.523438 C 107.5625 215.882812 107.5 216.242188 107.40625 216.589844 C 107.046875 214.433594 106.730469 212.492188 106.449219 210.777344 C 106.167969 209.0625 105.859375 207.148438 105.515625 205.03125 C 105.175781 202.917969 104.832031 200.832031 104.476562 198.773438 C 104.125 196.71875 103.789062 194.816406 103.476562 193.054688 C 103.167969 191.292969 102.894531 189.894531 102.660156 188.855469 C 102.597656 188.53125 102.328125 188.269531 101.835938 188.0625 C 101.367188 187.859375 100.859375 187.753906 100.347656 187.757812 C 99.875 187.761719 99.402344 187.839844 98.953125 187.992188 C 98.535156 188.085938 98.203125 188.402344 98.085938 188.816406 C 97.847656 189.789062 97.578125 191.15625 97.265625 192.917969 C 96.957031 194.679688 96.625 196.585938 96.269531 198.640625 C 95.914062 200.699219 95.566406 202.789062 95.226562 204.917969 C 94.886719 207.050781 94.574219 208.980469 94.292969 210.707031 C 94.011719 212.441406 93.695312 214.402344 93.339844 216.589844 C 93.234375 216.242188 93.167969 215.886719 93.140625 215.523438 C 93.035156 214.808594 92.917969 213.878906 92.785156 212.726562 C 92.652344 211.574219 92.496094 210.261719 92.320312 208.777344 C 92.140625 207.300781 91.960938 205.789062 91.785156 204.253906 C 91.375 200.640625 89.933594 187.652344 89.933594 187.652344 L 84.507812 187.65625 L 84.507812 188.992188 C 84.492188 189.425781 84.601562 189.859375 84.820312 190.234375 C 84.988281 190.515625 85.214844 190.761719 85.488281 190.945312 C 85.636719 191.0625 85.769531 191.195312 85.886719 191.347656 C 86.582031 195.617188 86.972656 199.023438 87.339844 202.164062 C 86.617188 202.457031 86.183594 203.195312 86.273438 203.96875 C 86.363281 204.742188 86.960938 205.359375 87.726562 205.480469 L 87.75 205.675781 C 87.953125 207.417969 88.152344 209.117188 88.347656 210.777344 C 88.539062 212.429688 88.714844 213.917969 88.878906 215.238281 C 89.042969 216.554688 89.175781 217.628906 89.28125 218.449219 C 89.382812 219.28125 89.433594 219.722656 89.433594 219.78125 L 95.425781 220.804688 C 96.394531 220.292969 96.5625 220.007812 96.664062 219.695312 L 100.4375 198.085938 L 104.125 219.695312 C 104.226562 220.007812 104.390625 220.296875 104.609375 220.539062 L 110.332031 220.804688 C 111.308594 219.722656 111.359375 219.28125 111.464844 218.449219 C 111.570312 217.628906 111.703125 216.554688 111.867188 215.238281 C 112.023438 213.917969 112.203125 212.429688 112.398438 210.777344 C 112.589844 209.117188 112.789062 207.414062 112.996094 205.675781 L 113.015625 205.480469 C 113.78125 205.355469 114.371094 204.738281 114.460938 203.96875 C 114.550781 203.199219 114.121094 202.460938 113.40625 202.164062 C 113.765625 199.023438 114.160156 195.617188 114.59375 191.917969 C 114.972656 191.195312 115.105469 191.0625 115.257812 190.945312 C 115.898438 190.507812 116.265625 189.769531 116.230469 188.992188 L 116.230469 187.65625 L 110.828125 187.675781 C 110.828125 187.675781 109.371094 200.640625 108.957031 204.253906 "/>
<path style=" stroke:none;fill-rule:nonzero;fill:rgb(0%,8.627451%,26.666668%);fill-opacity:1;" d="M 215.0625 203.769531 C 215.058594 202.917969 214.441406 202.191406 213.601562 202.058594 C 213.394531 200.886719 213.183594 199.714844 212.980469 198.578125 C 212.699219 196.976562 212.449219 195.535156 212.230469 194.25 C 212.007812 192.964844 211.820312 191.90625 211.675781 191.078125 C 211.527344 190.25 211.453125 189.773438 211.453125 189.65625 C 211.394531 189.121094 211.140625 188.625 210.742188 188.261719 C 210.300781 187.847656 209.710938 187.628906 209.101562 187.65625 L 203.152344 187.65625 L 203.152344 188.683594 C 203.152344 189.953125 203.523438 190.738281 204.265625 191.035156 C 204.484375 191.625 204.46875 191.839844 204.441406 192.050781 C 204.441406 192.082031 204.378906 192.449219 204.242188 193.160156 C 204.109375 193.875 203.929688 194.804688 203.710938 195.957031 C 203.488281 197.109375 203.246094 198.417969 202.976562 199.886719 C 202.847656 200.589844 202.714844 201.308594 202.582031 202.03125 C 201.757812 202.046875 201.058594 202.636719 200.90625 203.445312 C 200.75 204.253906 201.1875 205.058594 201.949219 205.371094 C 201.105469 209.875 199.09375 220.847656 199.09375 220.847656 L 203.320312 220.847656 C 203.320312 220.847656 204.546875 213.363281 204.574219 213.21875 C 204.632812 212.625 204.898438 212.332031 205.375 212.332031 L 210.433594 212.332031 C 211.453125 213.363281 212.445312 220.847656 212.445312 220.847656 L 216.917969 220.878906 C 216.917969 220.878906 215.082031 210.449219 214.171875 205.277344 C 214.71875 204.972656 215.058594 204.394531 215.0625 203.769531 M 210.5625 208.429688 L 205.90625 208.640625 C 205.332031 207.910156 205.367188 207.65625 205.441406 207.179688 C 205.515625 206.710938 205.609375 206.105469 205.730469 205.363281 C 205.84375 204.625 205.980469 203.789062 206.128906 202.859375 C 206.273438 201.921875 206.4375 200.972656 206.617188 199.992188 L 207.945312 192.273438 L 208.039062 192.273438 L 209.367188 199.992188 C 209.542969 200.972656 209.707031 201.921875 209.859375 202.859375 C 210.003906 203.789062 210.136719 204.625 210.253906 205.363281 C 210.371094 206.105469 210.476562 206.710938 210.5625 207.179688 C 210.652344 207.65625 210.695312 207.910156 210.695312 207.9375 "/>
<path style=" stroke:none;fill-rule:nonzero;fill:rgb(0%,8.627451%,26.666668%);fill-opacity:1;" d="M 161.671875 217.429688 C 161.523438 217.339844 161.402344 217.257812 161.296875 217.1875 C 161.191406 217.113281 161.140625 216.929688 161.140625 216.632812 L 161.140625 209.046875 C 161.15625 208.035156 160.988281 207.03125 160.652344 206.078125 C 160.367188 205.246094 159.84375 204.519531 159.144531 203.988281 C 158.820312 203.667969 158.792969 203.367188 159.054688 203.101562 C 159.695312 202.578125 160.210938 201.917969 160.5625 201.171875 C 160.953125 200.363281 161.152344 199.476562 161.140625 198.578125 L 161.140625 195.070312 C 161.152344 194.058594 161.015625 193.050781 160.742188 192.074219 C 160.496094 191.214844 160.0625 190.421875 159.476562 189.746094 C 158.871094 189.074219 158.121094 188.550781 157.28125 188.21875 C 156.246094 187.820312 155.144531 187.628906 154.039062 187.65625 L 144.90625 187.65625 L 144.90625 188.945312 C 144.871094 189.441406 144.988281 189.9375 145.238281 190.367188 C 145.414062 190.648438 145.644531 190.890625 145.921875 191.074219 L 146.367188 202.074219 C 145.566406 202.242188 144.988281 202.949219 144.988281 203.769531 C 144.988281 204.59375 145.566406 205.300781 146.367188 205.46875 L 146.367188 220.84375 L 150.710938 220.867188 L 150.710938 206.253906 C 150.710938 205.839844 150.90625 205.628906 151.292969 205.628906 L 154.039062 205.628906 C 154.832031 205.558594 155.605469 205.882812 156.105469 206.496094 C 156.574219 207.210938 156.800781 208.058594 156.75 208.910156 L 156.75 218.671875 C 156.691406 219.277344 156.914062 219.878906 157.355469 220.300781 C 157.796875 220.722656 158.402344 220.925781 159.007812 220.84375 L 162.691406 220.84375 L 162.691406 219.117188 C 162.734375 218.710938 162.613281 218.304688 162.359375 217.984375 C 162.152344 217.773438 161.921875 217.589844 161.671875 217.429688 M 156.75 198.578125 C 156.792969 199.453125 156.566406 200.316406 156.105469 201.0625 C 155.625 201.707031 154.84375 202.0625 154.039062 201.992188 L 151.246094 201.992188 L 150.710938 192.003906 C 150.710938 191.597656 150.949219 191.394531 151.421875 191.394531 L 154.039062 191.394531 C 154.835938 191.324219 155.617188 191.667969 156.105469 192.300781 C 156.570312 193.03125 156.792969 193.890625 156.75 194.757812 Z M 156.75 198.578125 "/>
<path style=" stroke:none;fill-rule:nonzero;fill:rgb(0%,8.627451%,26.666668%);fill-opacity:1;" d="M 175.558594 207.835938 C 175.082031 208.097656 174.816406 208.628906 174.890625 209.167969 C 174.890625 209.339844 174.929688 216.847656 174.828125 217.007812 L 170.457031 217.25 L 169.835938 191.964844 C 170.554688 190.773438 170.792969 190.519531 170.988281 190.234375 C 171.238281 189.871094 171.363281 189.433594 171.34375 188.992188 L 171.34375 187.660156 L 163.933594 187.660156 L 163.933594 188.992188 C 163.917969 189.433594 164.042969 189.867188 164.292969 190.234375 C 164.488281 190.519531 164.726562 190.769531 164.996094 190.988281 L 165.484375 202.0625 C 164.671875 202.222656 164.085938 202.9375 164.085938 203.765625 C 164.085938 204.59375 164.671875 205.308594 165.484375 205.46875 L 165.484375 220.84375 L 178.085938 220.84375 L 179.152344 207.527344 L 177.289062 207.527344 C 176.695312 207.511719 176.105469 207.613281 175.558594 207.835938 "/>
<path style=" stroke:none;fill-rule:nonzero;fill:rgb(0%,8.627451%,26.666668%);fill-opacity:1;" d="M 81.308594 187.695312 L 81.011719 187.664062 L 81.007812 187.660156 L 66.941406 187.660156 L 66.941406 188.945312 C 66.917969 189.417969 67 189.890625 67.1875 190.324219 C 67.328125 190.628906 67.570312 190.878906 67.875 191.03125 L 68.453125 202.0625 C 67.636719 202.222656 67.050781 202.9375 67.050781 203.765625 C 67.050781 204.597656 67.636719 205.308594 68.453125 205.46875 L 68.453125 220.84375 L 81.089844 220.84375 L 82.160156 210.34375 L 80.292969 210.34375 C 79.699219 210.328125 79.109375 210.433594 78.558594 210.652344 C 78.082031 210.917969 77.820312 211.445312 77.894531 211.988281 C 77.894531 212.164062 77.933594 216.847656 77.832031 217.007812 L 73.332031 217.25 C 72.976562 217.25 72.800781 217.042969 72.800781 216.632812 L 72.800781 206.296875 C 72.800781 205.878906 73.019531 205.675781 73.460938 205.675781 L 78.789062 205.675781 C 79.226562 205.675781 79.457031 205.46875 79.457031 205.046875 L 79.457031 202.570312 L 73.460938 201.902344 C 73.019531 201.902344 72.800781 201.695312 72.800781 201.28125 L 72.800781 192.007812 L 77.664062 191.347656 C 77.933594 191.660156 77.894531 196.339844 77.894531 196.519531 C 77.820312 197.058594 78.082031 197.589844 78.558594 197.851562 C 79.109375 198.074219 79.699219 198.179688 80.292969 198.164062 L 82.160156 198.164062 L 82.160156 188.636719 "/>
<path style=" stroke:none;fill-rule:nonzero;fill:rgb(0%,8.627451%,26.666668%);fill-opacity:1;" d="M 195.359375 187.695312 L 195.058594 187.664062 L 195.058594 187.660156 L 180.988281 187.660156 L 180.988281 188.945312 C 180.964844 189.417969 181.050781 189.890625 181.234375 190.324219 C 181.375 190.628906 181.617188 190.878906 181.921875 191.03125 L 182.5 202.0625 C 181.683594 202.222656 181.097656 202.9375 181.097656 203.765625 C 181.097656 204.597656 181.683594 205.308594 182.5 205.46875 L 182.5 220.84375 L 195.136719 220.84375 L 196.207031 210.34375 L 194.339844 210.34375 C 193.75 210.328125 193.160156 210.433594 192.609375 210.652344 C 192.132812 210.917969 191.867188 211.445312 191.941406 211.988281 C 191.941406 212.164062 191.984375 216.847656 191.878906 217.007812 L 187.378906 217.25 C 187.023438 217.25 186.847656 217.042969 186.847656 216.632812 L 186.847656 206.296875 C 186.847656 205.878906 187.066406 205.675781 187.507812 205.675781 L 192.835938 205.675781 C 193.277344 205.675781 193.5 205.46875 193.5 205.046875 L 193.5 202.570312 L 187.507812 201.902344 C 187.066406 201.902344 186.847656 201.695312 186.847656 201.28125 L 186.847656 192.007812 L 191.710938 191.347656 C 191.984375 191.660156 191.941406 196.339844 191.941406 196.519531 C 191.867188 197.058594 192.132812 197.589844 192.609375 197.851562 C 193.160156 198.074219 193.746094 198.179688 194.339844 198.164062 L 196.207031 198.164062 L 196.207031 188.636719 "/>
<path style=" stroke:none;fill-rule:nonzero;fill:rgb(0%,8.627451%,26.666668%);fill-opacity:1;" d="M 142.285156 202.042969 L 142.285156 193.953125 C 142.304688 192.9375 142.101562 191.933594 141.6875 191.003906 C 141.308594 190.195312 140.746094 189.480469 140.046875 188.925781 C 139.3125 188.359375 138.476562 187.945312 137.578125 187.707031 C 135.574219 187.175781 133.46875 187.175781 131.460938 187.707031 C 130.5625 187.945312 129.714844 188.359375 128.976562 188.925781 C 128.261719 189.476562 127.691406 190.1875 127.3125 191.003906 C 126.894531 191.933594 126.691406 192.9375 126.714844 193.953125 L 126.714844 202.054688 C 125.867188 202.179688 125.238281 202.90625 125.238281 203.765625 C 125.238281 204.621094 125.867188 205.351562 126.714844 205.476562 L 126.714844 214.546875 C 126.691406 215.5625 126.894531 216.570312 127.3125 217.5 C 127.695312 218.320312 128.265625 219.039062 128.976562 219.601562 C 129.710938 220.179688 130.558594 220.601562 131.460938 220.84375 C 133.464844 221.378906 135.574219 221.378906 137.578125 220.84375 C 138.480469 220.605469 139.320312 220.179688 140.046875 219.601562 C 140.746094 219.035156 141.304688 218.316406 141.6875 217.5 C 142.101562 216.570312 142.304688 215.5625 142.285156 214.546875 L 142.285156 205.488281 C 143.167969 205.398438 143.839844 204.65625 143.839844 203.765625 C 143.839844 202.878906 143.167969 202.136719 142.285156 202.042969 M 137.9375 214.371094 C 137.953125 214.882812 137.847656 215.390625 137.628906 215.855469 C 137.4375 216.234375 137.164062 216.566406 136.828125 216.828125 C 136.503906 217.082031 136.136719 217.269531 135.742188 217.382812 C 135.34375 217.503906 134.933594 217.5625 134.519531 217.5625 C 134.097656 217.5625 133.679688 217.503906 133.277344 217.382812 C 132.875 217.273438 132.5 217.085938 132.171875 216.828125 C 131.832031 216.570312 131.558594 216.234375 131.371094 215.855469 C 131.148438 215.390625 131.042969 214.882812 131.0625 214.371094 L 131.0625 194.140625 C 131.042969 193.625 131.148438 193.113281 131.371094 192.648438 C 131.5625 192.269531 131.835938 191.9375 132.171875 191.675781 C 132.5 191.421875 132.875 191.234375 133.277344 191.121094 C 133.679688 191.003906 134.097656 190.945312 134.519531 190.945312 C 134.933594 190.945312 135.34375 191.003906 135.742188 191.121094 C 136.132812 191.238281 136.503906 191.425781 136.828125 191.675781 C 137.160156 191.941406 137.433594 192.273438 137.628906 192.648438 C 137.847656 193.113281 137.953125 193.625 137.9375 194.140625 Z M 137.9375 214.371094 "/>
<path style=" stroke:none;fill-rule:nonzero;fill:rgb(0%,8.627451%,26.666668%);fill-opacity:1;" d="M 59.84375 209.492188 C 59.84375 209.578125 59.820312 209.589844 59.777344 209.539062 C 59.734375 209.472656 59.695312 209.414062 59.667969 209.359375 C 59.546875 208.972656 59.3125 208.203125 58.953125 207.054688 C 58.601562 205.898438 58.195312 204.558594 57.738281 203.03125 C 57.273438 201.511719 56.785156 199.914062 56.273438 198.242188 C 55.753906 196.570312 55.273438 195.03125 54.828125 193.628906 C 54.386719 192.222656 54.015625 191.054688 53.71875 190.101562 C 53.425781 189.15625 53.277344 188.652344 53.277344 188.59375 C 53.207031 188.332031 53.070312 188.09375 52.875 187.902344 L 47.066406 187.65625 L 47.066406 189.125 C 47.046875 189.542969 47.125 189.957031 47.289062 190.34375 C 47.410156 190.621094 47.59375 190.875 47.820312 191.078125 C 48.039062 191.289062 48.292969 191.457031 48.574219 191.566406 L 48.574219 202.0625 C 47.753906 202.214844 47.15625 202.933594 47.15625 203.769531 C 47.15625 204.605469 47.753906 205.324219 48.574219 205.476562 L 48.574219 220.878906 L 52.476562 220.878906 L 52.476562 199.730469 C 52.476562 199.554688 52.496094 199.480469 52.519531 199.507812 C 52.613281 199.667969 52.761719 200.152344 53.054688 201.082031 C 53.351562 202.015625 53.71875 203.175781 54.164062 204.570312 C 54.609375 205.957031 55.089844 207.464844 55.605469 209.089844 C 56.121094 210.71875 56.609375 212.25 57.070312 213.6875 C 57.53125 215.113281 57.917969 216.351562 58.242188 217.367188 C 58.570312 218.386719 58.761719 218.964844 58.824219 219.117188 C 58.941406 219.546875 59.097656 219.960938 59.289062 220.359375 L 62.683594 220.847656 L 63.75 205.433594 C 64.492188 205.222656 65.007812 204.542969 65.007812 203.769531 C 65.007812 202.996094 64.492188 202.316406 63.75 202.105469 L 63.75 191.875 C 64.464844 190.730469 64.703125 190.476562 64.902344 190.191406 C 65.148438 189.824219 65.273438 189.386719 65.253906 188.945312 L 65.253906 187.65625 L 59.84375 187.699219 Z M 59.84375 209.492188 "/>
<path style=" stroke:none;fill-rule:nonzero;fill:rgb(0%,8.627451%,26.666668%);fill-opacity:1;" d="M 231.859375 209.492188 C 231.859375 209.578125 231.835938 209.589844 231.789062 209.539062 C 231.746094 209.472656 231.710938 209.414062 231.679688 209.359375 C 231.558594 208.972656 231.324219 208.203125 230.96875 207.054688 C 230.617188 205.898438 230.207031 204.558594 229.746094 203.03125 C 229.289062 201.511719 228.804688 199.914062 228.28125 198.242188 C 227.769531 196.570312 227.289062 195.03125 226.84375 193.628906 C 226.398438 192.222656 226.03125 191.054688 225.730469 190.101562 C 225.4375 189.15625 225.289062 188.652344 225.289062 188.59375 C 225.222656 188.332031 225.085938 188.09375 224.890625 187.902344 L 219.082031 187.65625 L 219.082031 189.125 C 219.0625 189.542969 219.140625 189.957031 219.304688 190.34375 C 219.425781 190.621094 219.605469 190.875 219.832031 191.078125 C 220.050781 191.289062 220.308594 191.453125 220.589844 191.566406 L 220.589844 202.0625 C 219.769531 202.214844 219.171875 202.933594 219.171875 203.769531 C 219.171875 204.605469 219.769531 205.324219 220.589844 205.476562 L 220.589844 220.878906 L 224.492188 220.878906 L 224.492188 199.730469 C 224.492188 199.554688 224.503906 199.480469 224.535156 199.507812 C 224.625 199.667969 224.773438 200.152344 225.070312 201.082031 C 225.363281 202.015625 225.730469 203.175781 226.175781 204.570312 C 226.625 205.957031 227.101562 207.464844 227.621094 209.089844 C 228.136719 210.71875 228.625 212.25 229.082031 213.6875 C 229.542969 215.113281 229.933594 216.351562 230.257812 217.367188 C 230.585938 218.386719 230.773438 218.964844 230.839844 219.117188 C 230.957031 219.546875 231.113281 219.960938 231.304688 220.359375 L 234.699219 220.847656 L 235.761719 205.429688 C 236.507812 205.222656 237.019531 204.542969 237.019531 203.769531 C 237.019531 202.996094 236.507812 202.316406 235.761719 202.105469 L 235.761719 191.875 C 236.476562 190.730469 236.714844 190.476562 236.914062 190.191406 C 237.164062 189.824219 237.289062 189.386719 237.265625 188.945312 L 237.265625 187.65625 L 231.859375 187.699219 Z M 231.859375 209.492188 "/>
<path style=" stroke:none;fill-rule:nonzero;fill:rgb(0%,8.627451%,26.666668%);fill-opacity:1;" d="M 252.625 204.566406 C 251.917969 203.941406 251.167969 203.375 250.375 202.871094 C 250.433594 201.472656 249.65625 200.691406 248.695312 200.691406 C 248.292969 200.691406 247.902344 200.835938 247.59375 201.097656 C 247.453125 201 247.304688 200.90625 247.167969 200.816406 C 246.425781 200.335938 245.726562 199.792969 245.082031 199.195312 C 244.574219 198.777344 244.265625 198.167969 244.234375 197.511719 L 244.234375 193.117188 C 244.234375 192.800781 244.34375 192.492188 244.550781 192.253906 C 244.773438 191.988281 245.042969 191.769531 245.347656 191.609375 C 245.667969 191.433594 246.011719 191.300781 246.367188 191.214844 C 246.699219 191.125 247.042969 191.082031 247.386719 191.078125 C 247.722656 191.082031 248.058594 191.117188 248.386719 191.183594 C 248.742188 191.257812 249.082031 191.378906 249.402344 191.542969 C 249.707031 191.695312 249.972656 191.917969 250.183594 192.1875 C 250.390625 192.453125 250.5 192.78125 250.492188 193.117188 L 250.492188 194.761719 C 250.476562 195.433594 250.753906 196.082031 251.253906 196.535156 C 251.753906 197.007812 252.421875 197.261719 253.109375 197.246094 L 255.105469 197.246094 L 255.105469 193.957031 C 255.128906 192.941406 254.933594 191.9375 254.535156 191.003906 C 254.167969 190.191406 253.613281 189.480469 252.914062 188.925781 C 252.183594 188.363281 251.355469 187.941406 250.472656 187.679688 C 249.484375 187.394531 248.460938 187.25 247.433594 187.261719 C 246.414062 187.253906 245.398438 187.378906 244.414062 187.636719 C 243.542969 187.871094 242.726562 188.277344 242.019531 188.835938 C 241.328125 189.394531 240.78125 190.109375 240.421875 190.921875 C 240.015625 191.882812 239.820312 192.917969 239.847656 193.957031 L 239.847656 197.113281 C 239.816406 198.226562 240.097656 199.324219 240.664062 200.285156 C 241.21875 201.15625 241.914062 201.929688 242.730469 202.570312 C 243.558594 203.21875 244.433594 203.804688 245.351562 204.324219 C 245.246094 204.546875 245.191406 204.789062 245.191406 205.035156 C 245.191406 205.765625 245.648438 206.421875 246.335938 206.671875 C 247.023438 206.921875 247.792969 206.710938 248.261719 206.148438 C 248.976562 206.640625 249.613281 207.234375 250.160156 207.910156 C 250.714844 208.625 251.007812 209.515625 250.980469 210.421875 L 250.980469 215.125 C 250.984375 215.5 250.867188 215.867188 250.644531 216.167969 C 250.414062 216.488281 250.121094 216.757812 249.785156 216.964844 C 249.421875 217.1875 249.035156 217.367188 248.632812 217.5 C 248.246094 217.632812 247.839844 217.699219 247.433594 217.699219 C 247.027344 217.695312 246.625 217.636719 246.234375 217.519531 C 245.835938 217.410156 245.457031 217.246094 245.101562 217.03125 C 244.777344 216.835938 244.492188 216.578125 244.257812 216.277344 C 244.039062 215.980469 243.921875 215.625 243.929688 215.257812 L 243.929688 213.351562 C 243.964844 212.761719 243.746094 212.1875 243.332031 211.769531 C 242.824219 211.367188 242.179688 211.167969 241.53125 211.214844 L 239.402344 211.214844 L 239.402344 214.546875 C 239.378906 215.570312 239.601562 216.582031 240.046875 217.5 C 240.457031 218.320312 241.046875 219.03125 241.777344 219.582031 C 242.542969 220.148438 243.40625 220.566406 244.328125 220.804688 C 246.363281 221.335938 248.5 221.335938 250.539062 220.804688 C 251.464844 220.5625 252.335938 220.148438 253.109375 219.582031 C 253.851562 219.03125 254.460938 218.320312 254.886719 217.5 C 255.347656 216.585938 255.574219 215.570312 255.550781 214.546875 L 255.550781 210.195312 C 255.570312 209.089844 255.28125 208 254.710938 207.050781 C 254.140625 206.125 253.4375 205.289062 252.625 204.566406 "/>
<path style=" stroke:none;fill-rule:nonzero;fill:rgb(0%,8.627451%,26.666668%);fill-opacity:1;" d="M 108.957031 204.253906 C 108.78125 205.789062 108.601562 207.300781 108.425781 208.777344 C 108.246094 210.261719 108.082031 211.574219 107.9375 212.726562 C 107.785156 213.878906 107.667969 214.808594 107.582031 215.523438 C 107.5625 215.882812 107.5 216.242188 107.40625 216.589844 C 107.046875 214.433594 106.730469 212.492188 106.449219 210.777344 C 106.167969 209.0625 105.859375 207.148438 105.515625 205.03125 C 105.175781 202.917969 104.832031 200.832031 104.476562 198.773438 C 104.125 196.71875 103.789062 194.816406 103.476562 193.054688 C 103.167969 191.292969 102.894531 189.894531 102.660156 188.855469 C 102.597656 188.53125 102.328125 188.269531 101.835938 188.0625 C 101.367188 187.859375 100.859375 187.753906 100.347656 187.757812 C 99.875 187.761719 99.402344 187.839844 98.953125 187.992188 C 98.535156 188.085938 98.203125 188.402344 98.085938 188.816406 C 97.847656 189.789062 97.578125 191.15625 97.265625 192.917969 C 96.957031 194.679688 96.625 196.585938 96.269531 198.640625 C 95.914062 200.699219 95.566406 202.789062 95.226562 204.917969 C 94.886719 207.050781 94.574219 208.980469 94.292969 210.707031 C 94.011719 212.441406 93.695312 214.402344 93.339844 216.589844 C 93.234375 216.242188 93.167969 215.886719 93.140625 215.523438 C 93.035156 214.808594 92.917969 213.878906 92.785156 212.726562 C 92.652344 211.574219 92.496094 210.261719 92.320312 208.777344 C 92.140625 207.300781 91.960938 205.789062 91.785156 204.253906 C 91.375 200.640625 89.933594 187.652344 89.933594 187.652344 L 84.507812 187.65625 L 84.507812 188.992188 C 84.492188 189.425781 84.601562 189.859375 84.820312 190.234375 C 84.988281 190.515625 85.214844 190.761719 85.488281 190.945312 C 85.636719 191.0625 85.769531 191.195312 85.886719 191.347656 C 86.582031 195.617188 86.972656 199.023438 87.339844 202.164062 C 86.617188 202.457031 86.183594 203.195312 86.273438 203.96875 C 86.363281 204.742188 86.960938 205.359375 87.726562 205.480469 L 87.75 205.675781 C 87.953125 207.417969 88.152344 209.117188 88.347656 210.777344 C 88.539062 212.429688 88.714844 213.917969 88.878906 215.238281 C 89.042969 216.554688 89.175781 217.628906 89.28125 218.449219 C 89.382812 219.28125 89.433594 219.722656 89.433594 219.78125 L 95.425781 220.804688 C 96.394531 220.292969 96.5625 220.007812 96.664062 219.695312 L 100.4375 198.085938 L 104.125 219.695312 C 104.226562 220.007812 104.390625 220.296875 104.609375 220.539062 L 110.332031 220.804688 C 111.308594 219.722656 111.359375 219.28125 111.464844 218.449219 C 111.570312 217.628906 111.703125 216.554688 111.867188 215.238281 C 112.023438 213.917969 112.203125 212.429688 112.398438 210.777344 C 112.589844 209.117188 112.789062 207.414062 112.996094 205.675781 L 113.015625 205.480469 C 113.78125 205.355469 114.371094 204.738281 114.460938 203.96875 C 114.550781 203.199219 114.121094 202.460938 113.40625 202.164062 C 113.765625 199.023438 114.160156 195.617188 114.59375 191.917969 C 114.972656 191.195312 115.105469 191.0625 115.257812 190.945312 C 115.898438 190.507812 116.265625 189.769531 116.230469 188.992188 L 116.230469 187.65625 L 110.828125 187.675781 C 110.828125 187.675781 109.371094 200.640625 108.957031 204.253906 "/>
<path style=" stroke:none;fill-rule:nonzero;fill:rgb(0%,8.627451%,26.666668%);fill-opacity:1;" d="M 215.0625 203.769531 C 215.058594 202.917969 214.441406 202.191406 213.601562 202.058594 C 213.394531 200.886719 213.183594 199.714844 212.980469 198.578125 C 212.699219 196.976562 212.449219 195.535156 212.230469 194.25 C 212.007812 192.964844 211.820312 191.90625 211.675781 191.078125 C 211.527344 190.25 211.453125 189.773438 211.453125 189.65625 C 211.394531 189.121094 211.140625 188.625 210.742188 188.261719 C 210.300781 187.847656 209.710938 187.628906 209.101562 187.65625 L 203.152344 187.65625 L 203.152344 188.683594 C 203.152344 189.953125 203.523438 190.738281 204.265625 191.035156 C 204.484375 191.625 204.46875 191.839844 204.441406 192.050781 C 204.441406 192.082031 204.378906 192.449219 204.242188 193.160156 C 204.109375 193.875 203.929688 194.804688 203.710938 195.957031 C 203.488281 197.109375 203.246094 198.417969 202.976562 199.886719 C 202.847656 200.589844 202.714844 201.308594 202.582031 202.03125 C 201.757812 202.046875 201.058594 202.636719 200.90625 203.445312 C 200.75 204.253906 201.1875 205.058594 201.949219 205.371094 C 201.105469 209.875 199.09375 220.847656 199.09375 220.847656 L 203.320312 220.847656 C 203.320312 220.847656 204.546875 213.363281 204.574219 213.21875 C 204.632812 212.625 204.898438 212.332031 205.375 212.332031 L 210.433594 212.332031 C 211.453125 213.363281 212.445312 220.847656 212.445312 220.847656 L 216.917969 220.878906 C 216.917969 220.878906 215.082031 210.449219 214.171875 205.277344 C 214.71875 204.972656 215.058594 204.394531 215.0625 203.769531 M 210.5625 208.429688 L 205.90625 208.640625 C 205.332031 207.910156 205.367188 207.65625 205.441406 207.179688 C 205.515625 206.710938 205.609375 206.105469 205.730469 205.363281 C 205.84375 204.625 205.980469 203.789062 206.128906 202.859375 C 206.273438 201.921875 206.4375 200.972656 206.617188 199.992188 L 207.945312 192.273438 L 208.039062 192.273438 L 209.367188 199.992188 C 209.542969 200.972656 209.707031 201.921875 209.859375 202.859375 C 210.003906 203.789062 210.136719 204.625 210.253906 205.363281 C 210.371094 206.105469 210.476562 206.710938 210.5625 207.179688 C 210.652344 207.65625 210.695312 207.910156 210.695312 207.9375 "/>
<path style=" stroke:none;fill-rule:nonzero;fill:rgb(0%,8.627451%,26.666668%);fill-opacity:1;" d="M 161.671875 217.429688 C 161.523438 217.339844 161.402344 217.257812 161.296875 217.1875 C 161.191406 217.113281 161.140625 216.929688 161.140625 216.632812 L 161.140625 209.046875 C 161.15625 208.035156 160.988281 207.03125 160.652344 206.078125 C 160.367188 205.246094 159.84375 204.519531 159.144531 203.988281 C 158.820312 203.667969 158.792969 203.367188 159.054688 203.101562 C 159.695312 202.578125 160.210938 201.917969 160.5625 201.171875 C 160.953125 200.363281 161.152344 199.476562 161.140625 198.578125 L 161.140625 195.070312 C 161.152344 194.058594 161.015625 193.050781 160.742188 192.074219 C 160.496094 191.214844 160.0625 190.421875 159.476562 189.746094 C 158.871094 189.074219 158.121094 188.550781 157.28125 188.21875 C 156.246094 187.820312 155.144531 187.628906 154.039062 187.65625 L 144.90625 187.65625 L 144.90625 188.945312 C 144.871094 189.441406 144.988281 189.9375 145.238281 190.367188 C 145.414062 190.648438 145.644531 190.890625 145.921875 191.074219 L 146.367188 202.074219 C 145.566406 202.242188 144.988281 202.949219 144.988281 203.769531 C 144.988281 204.59375 145.566406 205.300781 146.367188 205.46875 L 146.367188 220.84375 L 150.710938 220.867188 L 150.710938 206.253906 C 150.710938 205.839844 150.90625 205.628906 151.292969 205.628906 L 154.039062 205.628906 C 154.832031 205.558594 155.605469 205.882812 156.105469 206.496094 C 156.574219 207.210938 156.800781 208.058594 156.75 208.910156 L 156.75 218.671875 C 156.691406 219.277344 156.914062 219.878906 157.355469 220.300781 C 157.796875 220.722656 158.402344 220.925781 159.007812 220.84375 L 162.691406 220.84375 L 162.691406 219.117188 C 162.734375 218.710938 162.613281 218.304688 162.359375 217.984375 C 162.152344 217.773438 161.921875 217.589844 161.671875 217.429688 M 156.75 198.578125 C 156.792969 199.453125 156.566406 200.316406 156.105469 201.0625 C 155.625 201.707031 154.84375 202.0625 154.039062 201.992188 L 151.246094 201.992188 L 150.710938 192.003906 C 150.710938 191.597656 150.949219 191.394531 151.421875 191.394531 L 154.039062 191.394531 C 154.835938 191.324219 155.617188 191.667969 156.105469 192.300781 C 156.570312 193.03125 156.792969 193.890625 156.75 194.757812 Z M 156.75 198.578125 "/>
<path style=" stroke:none;fill-rule:nonzero;fill:rgb(0%,8.627451%,26.666668%);fill-opacity:1;" d="M 175.558594 207.835938 C 175.082031 208.097656 174.816406 208.628906 174.890625 209.167969 C 174.890625 209.339844 174.929688 216.847656 174.828125 217.007812 L 170.457031 217.25 L 169.835938 191.964844 C 170.554688 190.773438 170.792969 190.519531 170.988281 190.234375 C 171.238281 189.871094 171.363281 189.433594 171.34375 188.992188 L 171.34375 187.660156 L 163.933594 187.660156 L 163.933594 188.992188 C 163.917969 189.433594 164.042969 189.867188 164.292969 190.234375 C 164.488281 190.519531 164.726562 190.769531 164.996094 190.988281 L 165.484375 202.0625 C 164.671875 202.222656 164.085938 202.9375 164.085938 203.765625 C 164.085938 204.59375 164.671875 205.308594 165.484375 205.46875 L 165.484375 220.84375 L 178.085938 220.84375 L 179.152344 207.527344 L 177.289062 207.527344 C 176.695312 207.511719 176.105469 207.613281 175.558594 207.835938 "/>
<path style=" stroke:none;fill-rule:nonzero;fill:rgb(0%,8.627451%,26.666668%);fill-opacity:1;" d="M 81.308594 187.695312 L 81.011719 187.664062 L 81.007812 187.660156 L 66.941406 187.660156 L 66.941406 188.945312 C 66.917969 189.417969 67 189.890625 67.1875 190.324219 C 67.328125 190.628906 67.570312 190.878906 67.875 191.03125 L 68.453125 202.0625 C 67.636719 202.222656 67.050781 202.9375 67.050781 203.765625 C 67.050781 204.597656 67.636719 205.308594 68.453125 205.46875 L 68.453125 220.84375 L 81.089844 220.84375 L 82.160156 210.34375 L 80.292969 210.34375 C 79.699219 210.328125 79.109375 210.433594 78.558594 210.652344 C 78.082031 210.917969 77.820312 211.445312 77.894531 211.988281 C 77.894531 212.164062 77.933594 216.847656 77.832031 217.007812 L 73.332031 217.25 C 72.976562 217.25 72.800781 217.042969 72.800781 216.632812 L 72.800781 206.296875 C 72.800781 205.878906 73.019531 205.675781 73.460938 205.675781 L 78.789062 205.675781 C 79.226562 205.675781 79.457031 205.46875 79.457031 205.046875 L 79.457031 202.570312 L 73.460938 201.902344 C 73.019531 201.902344 72.800781 201.695312 72.800781 201.28125 L 72.800781 192.007812 L 77.664062 191.347656 C 77.933594 191.660156 77.894531 196.339844 77.894531 196.519531 C 77.820312 197.058594 78.082031 197.589844 78.558594 197.851562 C 79.109375 198.074219 79.699219 198.179688 80.292969 198.164062 L 82.160156 198.164062 L 82.160156 188.636719 "/>
<path style=" stroke:none;fill-rule:nonzero;fill:rgb(0%,8.627451%,26.666668%);fill-opacity:1;" d="M 195.359375 187.695312 L 195.058594 187.664062 L 195.058594 187.660156 L 180.988281 187.660156 L 180.988281 188.945312 C 180.964844 189.417969 181.050781 189.890625 181.234375 190.324219 C 181.375 190.628906 181.617188 190.878906 181.921875 191.03125 L 182.5 202.0625 C 181.683594 202.222656 181.097656 202.9375 181.097656 203.765625 C 181.097656 204.597656 181.683594 205.308594 182.5 205.46875 L 182.5 220.84375 L 195.136719 220.84375 L 196.207031 210.34375 L 194.339844 210.34375 C 193.75 210.328125 193.160156 210.433594 192.609375 210.652344 C 192.132812 210.917969 191.867188 211.445312 191.941406 211.988281 C 191.941406 212.164062 191.984375 216.847656 191.878906 217.007812 L 187.378906 217.25 C 187.023438 217.25 186.847656 217.042969 186.847656 216.632812 L 186.847656 206.296875 C 186.847656 205.878906 187.066406 205.675781 187.507812 205.675781 L 192.835938 205.675781 C 193.277344 205.675781 193.5 205.46875 193.5 205.046875 L 193.5 202.570312 L 187.507812 201.902344 C 187.066406 201.902344 186.847656 201.695312 186.847656 201.28125 L 186.847656 192.007812 L 191.710938 191.347656 C 191.984375 191.660156 191.941406 196.339844 191.941406 196.519531 C 191.867188 197.058594 192.132812 197.589844 192.609375 197.851562 C 193.160156 198.074219 193.746094 198.179688 194.339844 198.164062 L 196.207031 198.164062 L 196.207031 188.636719 "/>
<path style=" stroke:none;fill-rule:nonzero;fill:rgb(0%,8.627451%,26.666668%);fill-opacity:1;" d="M 167.675781 65.789062 C 165.894531 69.136719 168.410156 72.875 169.480469 74.476562 C 172.757812 78.953125 174.632812 84.300781 174.867188 89.84375 C 174.925781 97.109375 171.285156 103.90625 165.203125 107.878906 C 168.160156 103.507812 169.667969 98.3125 169.507812 93.035156 C 169.507812 77.414062 160.144531 71.761719 160.144531 71.761719 C 160.144531 71.761719 159.917969 72.695312 159.347656 72.695312 C 157.324219 71.992188 155.363281 71.109375 153.5 70.054688 C 152.761719 69.660156 151.742188 69.0625 151.382812 68.855469 C 151.382812 68.855469 149.855469 69.660156 149.125 70.054688 C 147.257812 71.113281 145.300781 71.996094 143.273438 72.695312 C 142.703125 72.695312 142.476562 71.761719 142.476562 71.761719 C 142.476562 71.761719 133.117188 77.414062 133.117188 93.035156 C 132.957031 98.3125 134.460938 103.507812 137.421875 107.878906 C 131.339844 103.90625 127.695312 97.109375 127.753906 89.84375 C 127.988281 84.300781 129.863281 78.953125 133.144531 74.476562 C 134.214844 72.875 136.726562 69.136719 134.945312 65.789062 C 133.589844 63.722656 131.128906 62.65625 128.691406 63.085938 C 103.101562 63.511719 47.742188 74.679688 10.054688 96.636719 C 13.898438 102.84375 20.804688 106.480469 28.09375 106.132812 C 26.246094 107.035156 24.402344 107.960938 22.5625 108.910156 C 26.808594 114.859375 34.058594 117.886719 41.273438 116.71875 C 39.074219 117.757812 36.886719 118.824219 34.703125 119.917969 C 39.664062 125.910156 47.199219 129.160156 54.964844 128.660156 C 51.753906 130.277344 49.816406 131.308594 49.828125 131.308594 C 56.453125 136.996094 65.292969 139.390625 73.882812 137.820312 C 72.277344 138.992188 70.65625 140.230469 68.738281 141.566406 C 76.074219 145.25 84.332031 146.683594 92.480469 145.699219 C 90.824219 146.957031 89.171875 148.21875 87.519531 149.503906 C 87.488281 149.328125 107.167969 154.886719 121.171875 148.71875 C 121.6875 148.492188 122.1875 148.230469 122.683594 147.972656 C 126.21875 160.867188 137.941406 169.804688 151.308594 169.804688 C 164.679688 169.808594 176.402344 160.867188 179.9375 147.976562 C 180.4375 148.230469 180.929688 148.492188 181.449219 148.71875 C 195.449219 154.886719 215.128906 149.328125 215.101562 149.503906 C 213.453125 148.21875 211.796875 146.957031 210.136719 145.699219 C 218.285156 146.6875 226.542969 145.25 233.878906 141.566406 C 231.96875 140.230469 230.347656 138.992188 228.742188 137.820312 C 237.328125 139.390625 246.167969 136.996094 252.789062 131.308594 C 252.800781 131.308594 250.867188 130.277344 247.660156 128.660156 C 255.421875 129.160156 262.957031 125.910156 267.917969 119.917969 C 265.738281 118.820312 263.546875 117.753906 261.34375 116.71875 C 268.558594 117.886719 275.8125 114.859375 280.054688 108.910156 C 278.21875 107.960938 276.378906 107.035156 274.53125 106.132812 C 281.820312 106.476562 288.726562 102.84375 292.566406 96.636719 C 254.878906 74.679688 199.519531 63.511719 173.933594 63.085938 C 170.847656 63.03125 168.753906 63.785156 167.675781 65.789062 "/>
<path style=" stroke:none;fill-rule:nonzero;fill:rgb(77.64706%,61.960787%,40.000001%);fill-opacity:1;" d="M 173.980469 60.003906 L 173.640625 60 C 170.144531 59.621094 166.75 61.316406 164.953125 64.339844 C 163.835938 66.496094 163.652344 69.015625 164.4375 71.3125 C 163.898438 70.730469 163.300781 70.207031 162.652344 69.75 C 161.214844 68.695312 159.695312 67.757812 158.113281 66.9375 C 158.113281 66.9375 158.4375 68.957031 157.691406 68.71875 C 157.265625 68.570312 156.847656 68.394531 156.4375 68.203125 C 154.351562 67.210938 151.335938 65.394531 151.335938 65.394531 C 151.335938 65.394531 148.269531 67.210938 146.1875 68.203125 C 145.777344 68.394531 145.359375 68.566406 144.929688 68.71875 C 144.1875 68.957031 144.511719 66.9375 144.511719 66.9375 C 142.925781 67.757812 141.410156 68.695312 139.972656 69.75 C 139.324219 70.207031 138.722656 70.730469 138.183594 71.3125 C 138.972656 69.015625 138.785156 66.496094 137.667969 64.339844 C 135.871094 61.316406 132.476562 59.621094 128.980469 60 L 128.644531 60.003906 C 102.96875 60.433594 47.03125 71.527344 8.511719 93.972656 L 6 95.527344 C 8.449219 101.304688 13.210938 105.792969 19.121094 107.902344 L 17.851562 108.511719 C 17.851562 108.511719 23.125 117.074219 31.328125 118.851562 L 29.761719 119.503906 C 33.734375 125.347656 39.832031 129.410156 46.753906 130.820312 L 45.097656 131.632812 C 50.546875 137.039062 57.714844 140.371094 65.359375 141.046875 L 63.582031 142.402344 C 69.71875 146.089844 76.585938 148.402344 83.703125 149.179688 L 81.773438 150.894531 C 81.773438 150.894531 103.027344 158.667969 120.832031 152.191406 C 125.8125 164.664062 137.875 172.855469 151.308594 172.886719 L 151.3125 172.886719 C 164.746094 172.855469 176.808594 164.664062 181.792969 152.191406 C 199.589844 158.667969 220.847656 150.894531 220.847656 150.894531 L 218.921875 149.179688 C 226.039062 148.398438 232.90625 146.085938 239.042969 142.402344 L 237.257812 141.046875 C 244.902344 140.371094 252.074219 137.042969 257.515625 131.632812 L 255.867188 130.820312 C 262.792969 129.410156 268.890625 125.347656 272.859375 119.503906 L 271.292969 118.851562 C 279.492188 117.074219 284.773438 108.511719 284.773438 108.511719 L 283.503906 107.902344 C 289.414062 105.792969 294.171875 101.304688 296.617188 95.527344 L 294.109375 93.972656 C 255.589844 71.527344 199.65625 60.433594 173.980469 60.003906 M 274.53125 106.132812 C 276.378906 107.035156 278.21875 107.960938 280.054688 108.910156 C 275.8125 114.859375 268.558594 117.886719 261.34375 116.71875 C 263.542969 117.757812 265.734375 118.824219 267.917969 119.914062 C 262.957031 125.910156 255.421875 129.160156 247.660156 128.65625 C 250.867188 130.277344 252.800781 131.308594 252.789062 131.308594 C 246.167969 136.996094 237.328125 139.390625 228.742188 137.820312 C 230.347656 138.988281 231.96875 140.230469 233.878906 141.570312 C 226.542969 145.25 218.285156 146.683594 210.136719 145.699219 C 211.796875 146.953125 213.453125 148.21875 215.101562 149.503906 C 215.128906 149.332031 195.449219 154.886719 181.449219 148.71875 C 180.929688 148.492188 180.4375 148.230469 179.9375 147.976562 C 176.398438 160.867188 164.679688 169.808594 151.308594 169.804688 C 137.941406 169.804688 126.21875 160.867188 122.683594 147.972656 C 122.1875 148.230469 121.6875 148.492188 121.171875 148.71875 C 107.167969 154.886719 87.488281 149.332031 87.523438 149.503906 C 89.171875 148.21875 90.824219 146.953125 92.480469 145.699219 C 84.332031 146.683594 76.074219 145.246094 68.738281 141.570312 C 70.65625 140.230469 72.277344 138.988281 73.882812 137.820312 C 65.289062 139.390625 56.453125 136.996094 49.828125 131.308594 C 49.816406 131.308594 51.753906 130.277344 54.964844 128.65625 C 47.199219 129.160156 39.664062 125.910156 34.703125 119.914062 C 36.886719 118.820312 39.078125 117.753906 41.273438 116.71875 C 34.058594 117.886719 26.808594 114.859375 22.5625 108.910156 C 24.402344 107.960938 26.246094 107.035156 28.09375 106.132812 C 20.804688 106.480469 13.898438 102.84375 10.054688 96.636719 C 47.742188 74.679688 103.105469 63.511719 128.691406 63.085938 C 131.128906 62.65625 133.585938 63.71875 134.945312 65.789062 C 136.726562 69.136719 134.214844 72.871094 133.144531 74.476562 C 129.863281 78.953125 127.988281 84.300781 127.753906 89.84375 C 127.695312 97.109375 131.335938 103.90625 137.421875 107.878906 C 134.460938 103.507812 132.957031 98.3125 133.117188 93.035156 C 133.117188 77.410156 142.476562 71.761719 142.476562 71.761719 C 142.476562 71.761719 142.703125 72.695312 143.273438 72.695312 C 145.300781 71.996094 147.257812 71.109375 149.125 70.054688 C 149.855469 69.660156 151.382812 68.855469 151.382812 68.855469 C 151.742188 69.0625 152.761719 69.660156 153.496094 70.054688 C 155.363281 71.109375 157.324219 71.992188 159.347656 72.695312 C 159.917969 72.695312 160.144531 71.761719 160.144531 71.761719 C 160.144531 71.761719 169.507812 77.410156 169.507812 93.035156 C 169.667969 98.3125 168.160156 103.507812 165.199219 107.878906 C 171.285156 103.90625 174.929688 97.109375 174.867188 89.84375 C 174.632812 84.300781 172.757812 78.953125 169.480469 74.476562 C 168.410156 72.871094 165.894531 69.136719 167.675781 65.789062 C 168.753906 63.78125 170.847656 63.03125 173.933594 63.085938 C 199.519531 63.511719 254.878906 74.679688 292.566406 96.636719 C 288.726562 102.84375 281.820312 106.476562 274.53125 106.132812 "/>
<path style=" stroke:none;fill-rule:nonzero;fill:rgb(77.64706%,61.960787%,40.000001%);fill-opacity:1;" d="M 110.546875 83.519531 C 91.136719 86.34375 72.03125 90.964844 53.472656 97.320312 C 58.277344 105.867188 71.308594 102.28125 71.308594 102.28125 C 95.757812 95.363281 106.667969 93.015625 110.171875 92.339844 C 110.035156 89.394531 110.164062 86.441406 110.546875 83.519531 "/>
<path style=" stroke:none;fill-rule:nonzero;fill:rgb(77.64706%,61.960787%,40.000001%);fill-opacity:1;" d="M 110.761719 97.566406 C 95.324219 100.628906 80.144531 104.878906 65.359375 110.277344 C 65.359375 110.277344 71.785156 117.597656 84.53125 113.980469 C 95.25 110.941406 108.996094 106.554688 113.097656 105.242188 C 112.019531 102.785156 111.234375 100.210938 110.761719 97.566406 "/>
<path style=" stroke:none;fill-rule:nonzero;fill:rgb(77.64706%,61.960787%,40.000001%);fill-opacity:1;" d="M 115.242188 109.285156 C 110.882812 110.691406 89.109375 117.746094 79.921875 121.277344 C 79.921875 121.277344 85.195312 128.347656 100.417969 122.355469 C 111.019531 118.179688 116.863281 115.738281 119.4375 114.640625 C 117.855469 113.007812 116.449219 111.210938 115.242188 109.285156 "/>
<path style=" stroke:none;fill-rule:nonzero;fill:rgb(77.64706%,61.960787%,40.000001%);fill-opacity:1;" d="M 122.800781 117.714844 C 118.996094 119.367188 104.867188 125.542969 96.695312 129.476562 C 96.695312 129.476562 106.980469 134.53125 119.917969 126.539062 L 127.960938 121.257812 C 126.15625 120.207031 124.429688 119.023438 122.800781 117.714844 "/>
<path style=" stroke:none;fill-rule:nonzero;fill:rgb(77.64706%,61.960787%,40.000001%);fill-opacity:1;" d="M 192.070312 83.519531 C 211.484375 86.347656 230.589844 90.964844 249.148438 97.320312 C 244.347656 105.867188 231.316406 102.28125 231.316406 102.28125 C 206.863281 95.363281 195.953125 93.015625 192.453125 92.339844 C 192.585938 89.394531 192.460938 86.441406 192.070312 83.519531 "/>
<path style=" stroke:none;fill-rule:nonzero;fill:rgb(77.64706%,61.960787%,40.000001%);fill-opacity:1;" d="M 191.863281 97.566406 C 207.300781 100.628906 222.480469 104.878906 237.261719 110.277344 C 237.261719 110.277344 230.835938 117.597656 218.089844 113.980469 C 207.371094 110.941406 193.625 106.554688 189.523438 105.242188 C 190.601562 102.785156 191.386719 100.207031 191.863281 97.566406 "/>
<path style=" stroke:none;fill-rule:nonzero;fill:rgb(77.64706%,61.960787%,40.000001%);fill-opacity:1;" d="M 187.382812 109.285156 C 191.734375 110.691406 213.511719 117.746094 222.699219 121.277344 C 222.699219 121.277344 217.425781 128.347656 202.207031 122.355469 C 191.601562 118.179688 185.757812 115.738281 183.183594 114.640625 C 184.765625 113.007812 186.171875 111.210938 187.382812 109.285156 "/>
<path style=" stroke:none;fill-rule:nonzero;fill:rgb(77.64706%,61.960787%,40.000001%);fill-opacity:1;" d="M 179.820312 117.714844 C 183.621094 119.367188 197.753906 125.542969 205.925781 129.476562 C 205.925781 129.476562 195.644531 134.53125 182.703125 126.539062 L 174.660156 121.257812 C 176.46875 120.207031 178.191406 119.023438 179.820312 117.714844 "/>
<path style=" stroke:none;fill-rule:nonzero;fill:rgb(77.64706%,61.960787%,40.000001%);fill-opacity:1;" d="M 110.546875 83.519531 C 91.136719 86.34375 72.03125 90.964844 53.472656 97.320312 C 58.277344 105.867188 71.308594 102.28125 71.308594 102.28125 C 95.757812 95.363281 106.667969 93.015625 110.171875 92.339844 C 110.035156 89.394531 110.164062 86.441406 110.546875 83.519531 "/>
<path style=" stroke:none;fill-rule:nonzero;fill:rgb(77.64706%,61.960787%,40.000001%);fill-opacity:1;" d="M 110.761719 97.566406 C 95.324219 100.628906 80.144531 104.878906 65.359375 110.277344 C 65.359375 110.277344 71.785156 117.597656 84.53125 113.980469 C 95.25 110.941406 108.996094 106.554688 113.097656 105.242188 C 112.019531 102.785156 111.234375 100.210938 110.761719 97.566406 "/>
<path style=" stroke:none;fill-rule:nonzero;fill:rgb(77.64706%,61.960787%,40.000001%);fill-opacity:1;" d="M 115.242188 109.285156 C 110.882812 110.691406 89.109375 117.746094 79.921875 121.277344 C 79.921875 121.277344 85.195312 128.347656 100.417969 122.355469 C 111.019531 118.179688 116.863281 115.738281 119.4375 114.640625 C 117.855469 113.007812 116.449219 111.210938 115.242188 109.285156 "/>
<path style=" stroke:none;fill-rule:nonzero;fill:rgb(77.64706%,61.960787%,40.000001%);fill-opacity:1;" d="M 122.800781 117.714844 C 118.996094 119.367188 104.867188 125.542969 96.695312 129.476562 C 96.695312 129.476562 106.980469 134.53125 119.917969 126.539062 L 127.960938 121.257812 C 126.15625 120.207031 124.429688 119.023438 122.800781 117.714844 "/>
<path style=" stroke:none;fill-rule:nonzero;fill:rgb(77.64706%,61.960787%,40.000001%);fill-opacity:1;" d="M 192.070312 83.519531 C 211.484375 86.347656 230.589844 90.964844 249.148438 97.320312 C 244.347656 105.867188 231.316406 102.28125 231.316406 102.28125 C 206.863281 95.363281 195.953125 93.015625 192.453125 92.339844 C 192.585938 89.394531 192.460938 86.441406 192.070312 83.519531 "/>
<path style=" stroke:none;fill-rule:nonzero;fill:rgb(77.64706%,61.960787%,40.000001%);fill-opacity:1;" d="M 191.863281 97.566406 C 207.300781 100.628906 222.480469 104.878906 237.261719 110.277344 C 237.261719 110.277344 230.835938 117.597656 218.089844 113.980469 C 207.371094 110.941406 193.625 106.554688 189.523438 105.242188 C 190.601562 102.785156 191.386719 100.207031 191.863281 97.566406 "/>
<path style=" stroke:none;fill-rule:nonzero;fill:rgb(77.64706%,61.960787%,40.000001%);fill-opacity:1;" d="M 187.382812 109.285156 C 191.734375 110.691406 213.511719 117.746094 222.699219 121.277344 C 222.699219 121.277344 217.425781 128.347656 202.207031 122.355469 C 191.601562 118.179688 185.757812 115.738281 183.183594 114.640625 C 184.765625 113.007812 186.171875 111.210938 187.382812 109.285156 "/>
<path style=" stroke:none;fill-rule:nonzero;fill:rgb(77.64706%,61.960787%,40.000001%);fill-opacity:1;" d="M 179.820312 117.714844 C 183.621094 119.367188 197.753906 125.542969 205.925781 129.476562 C 205.925781 129.476562 195.644531 134.53125 182.703125 126.539062 L 174.660156 121.257812 C 176.46875 120.207031 178.191406 119.023438 179.820312 117.714844 "/>
<path style=" stroke:none;fill-rule:nonzero;fill:rgb(77.64706%,61.960787%,40.000001%);fill-opacity:1;" d="M 113.335938 135.535156 C 116.109375 136.460938 119.085938 136.578125 121.921875 135.875 C 122.285156 133.269531 122.996094 130.71875 124.03125 128.300781 C 120.261719 130.742188 116.058594 133.527344 113.335938 135.535156 "/>
<path style=" stroke:none;fill-rule:nonzero;fill:rgb(77.64706%,61.960787%,40.000001%);fill-opacity:1;" d="M 189.285156 135.535156 C 186.5625 133.527344 182.367188 130.742188 178.59375 128.304688 C 179.632812 130.722656 180.339844 133.269531 180.703125 135.878906 C 183.539062 136.578125 186.515625 136.460938 189.285156 135.535156 "/>
<path style=" stroke:none;fill-rule:nonzero;fill:rgb(100%,100%,100%);fill-opacity:1;" d="M 130.335938 70.984375 C 132.332031 68.132812 131.328125 66.988281 123.769531 67.703125 C 88.359375 71.285156 53.847656 81.011719 21.78125 96.453125 C 24.851562 98.011719 28.460938 98.089844 31.59375 96.667969 C 33.589844 95.953125 37.015625 94.53125 37.015625 94.53125 C 85.820312 74.835938 121.421875 73.363281 121.421875 73.363281 C 111.402344 97.917969 124.035156 110.945312 132.996094 116.71875 C 133.398438 116.398438 133.8125 116.085938 134.234375 115.789062 C 111.148438 95.691406 128.820312 73.152344 130.335938 70.984375 "/>
<path style=" stroke:none;fill-rule:nonzero;fill:rgb(100%,100%,100%);fill-opacity:1;" d="M 178.851562 67.703125 C 171.289062 66.988281 170.289062 68.132812 172.285156 70.988281 C 173.804688 73.148438 191.472656 95.691406 168.390625 115.789062 C 168.8125 116.085938 169.222656 116.398438 169.628906 116.714844 C 178.589844 110.941406 191.21875 97.921875 181.199219 73.359375 C 181.199219 73.359375 216.808594 74.835938 265.605469 94.527344 C 265.605469 94.527344 269.03125 95.957031 271.027344 96.667969 C 274.164062 98.089844 277.773438 98.007812 280.839844 96.449219 C 248.773438 81.011719 214.257812 71.285156 178.851562 67.703125 "/>
<path style=" stroke:none;fill-rule:nonzero;fill:rgb(77.64706%,61.960787%,40.000001%);fill-opacity:1;" d="M 159.265625 157.378906 C 157.851562 157.75 156.414062 158.019531 154.960938 158.179688 C 154.496094 159.03125 154.078125 159.90625 153.714844 160.804688 L 153.152344 162.246094 L 153.152344 165.441406 C 156.398438 165.210938 159.574219 164.355469 162.496094 162.917969 C 160.855469 161.460938 159.726562 159.519531 159.265625 157.378906 "/>
<path style=" stroke:none;fill-rule:nonzero;fill:rgb(77.64706%,61.960787%,40.000001%);fill-opacity:1;" d="M 147.667969 158.179688 C 146.214844 158.019531 144.773438 157.75 143.363281 157.378906 C 142.902344 159.523438 141.769531 161.464844 140.128906 162.917969 C 143.050781 164.355469 146.222656 165.210938 149.472656 165.445312 L 149.472656 162.226562 L 148.90625 160.789062 C 148.542969 159.894531 148.128906 159.023438 147.667969 158.179688 "/>
<path style=" stroke:none;fill-rule:nonzero;fill:rgb(100%,100%,100%);fill-opacity:1;" d="M 146.308594 99.992188 L 146.355469 99.917969 C 147.097656 98.492188 146.742188 96.738281 145.496094 95.71875 C 145.496094 95.71875 140.59375 96.75 140.472656 90.25 C 140.488281 89.523438 140.292969 88.808594 139.90625 88.195312 C 139.90625 88.195312 141.164062 87.054688 143.894531 89.109375 C 146.632812 91.15625 148.117188 96.972656 149.605469 95.609375 C 151.066406 94.253906 150.539062 86.675781 151.304688 86.390625 C 152.058594 86.675781 151.539062 94.253906 153.007812 95.609375 C 154.492188 96.972656 155.96875 91.15625 158.710938 89.109375 C 161.4375 87.054688 162.699219 88.195312 162.699219 88.195312 C 162.316406 88.8125 162.121094 89.523438 162.125 90.25 C 162.015625 96.75 157.113281 95.71875 157.113281 95.71875 C 155.871094 96.734375 155.515625 98.484375 156.265625 99.90625 C 159.40625 96.660156 161.8125 95.339844 163.148438 95.871094 C 163.160156 95.84375 163.171875 95.820312 163.183594 95.792969 C 164.296875 93.742188 164.789062 91.410156 164.601562 89.085938 C 164.636719 85.011719 163.183594 81.0625 160.519531 77.984375 C 160.519531 77.984375 160.453125 79.355469 158.144531 77.820312 C 154.03125 74.929688 148.546875 74.933594 144.433594 77.828125 C 142.203125 79.34375 142.09375 77.984375 142.09375 77.984375 C 139.433594 81.066406 137.988281 85.011719 138.019531 89.082031 C 137.871094 91.34375 138.328125 93.601562 139.339844 95.628906 C 139.375 95.714844 139.40625 95.792969 139.441406 95.878906 C 140.773438 95.320312 143.191406 96.644531 146.308594 99.992188 "/>
<path style=" stroke:none;fill-rule:nonzero;fill:rgb(85.490197%,10.196079%,19.607843%);fill-opacity:1;" d="M 144.023438 93.519531 C 143.460938 91.835938 143.128906 91.535156 142.769531 91.273438 C 142.769531 91.273438 142.078125 94.464844 144.929688 94.125 C 144.84375 93.886719 144.742188 93.65625 144.617188 93.433594 "/>
<path style=" stroke:none;fill-rule:nonzero;fill:rgb(85.490197%,10.196079%,19.607843%);fill-opacity:1;" d="M 159.851562 91.273438 C 159.492188 91.535156 159.164062 91.835938 158.867188 92.171875 C 157.878906 93.65625 157.777344 93.886719 157.691406 94.125 C 160.542969 94.464844 159.851562 91.273438 159.851562 91.273438 "/>
<path style=" stroke:none;fill-rule:nonzero;fill:rgb(85.490197%,10.196079%,19.607843%);fill-opacity:1;" d="M 147.34375 130.941406 C 145.242188 119.890625 143.585938 111.71875 142.25 105.792969 C 141.226562 101.261719 143.949219 103.074219 145.417969 105.90625 Z M 147.34375 130.941406 "/>
<path style=" stroke:none;fill-rule:nonzero;fill:rgb(85.490197%,10.196079%,19.607843%);fill-opacity:1;" d="M 155.28125 130.941406 C 157.382812 119.890625 159.039062 111.71875 160.375 105.792969 C 161.390625 101.261719 158.671875 103.074219 157.207031 105.90625 Z M 155.28125 130.941406 "/>
<path style=" stroke:none;fill-rule:nonzero;fill:rgb(85.490197%,10.196079%,19.607843%);fill-opacity:1;" d="M 152.648438 135.039062 C 153.554688 117.96875 154.914062 105.882812 154.914062 104.375 C 154.914062 103.699219 154.820312 103.03125 154.632812 102.382812 L 153.640625 105.628906 L 153.332031 99.894531 C 152.746094 99.167969 152.0625 98.523438 151.296875 97.988281 L 151.246094 97.988281 C 150.503906 98.523438 149.84375 99.164062 149.289062 99.890625 L 148.988281 105.628906 L 147.988281 102.382812 C 147.800781 103.027344 147.707031 103.699219 147.707031 104.375 C 147.707031 105.882812 149.0625 117.96875 149.96875 135.039062 C 150.875 152.109375 148.761719 155.28125 148.761719 155.28125 C 149.738281 156.851562 150.59375 158.5 151.308594 160.210938 C 152.027344 158.5 152.882812 156.851562 153.863281 155.28125 C 153.863281 155.28125 151.746094 152.109375 152.648438 135.039062 "/>
<path style=" stroke:none;fill-rule:nonzero;fill:rgb(100%,100%,100%);fill-opacity:1;" d="M 172.972656 142.902344 C 174.488281 140.5625 175.609375 137.988281 176.285156 135.285156 C 175.4375 130.878906 173.433594 126.777344 170.484375 123.394531 C 171.011719 126.851562 170.683594 130.382812 169.523438 133.679688 L 169.511719 133.710938 C 171.347656 136.480469 172.523438 139.636719 172.953125 142.929688 Z M 172.972656 142.902344 "/>
<path style=" stroke:none;fill-rule:nonzero;fill:rgb(100%,100%,100%);fill-opacity:1;" d="M 133.101562 133.679688 C 131.9375 130.382812 131.609375 126.851562 132.136719 123.394531 C 129.191406 126.769531 127.195312 130.863281 126.34375 135.261719 C 127.015625 137.992188 128.132812 140.59375 129.644531 142.96875 L 129.660156 142.992188 C 130.082031 139.671875 131.261719 136.496094 133.113281 133.710938 Z M 133.101562 133.679688 "/>
<path style=" stroke:none;fill-rule:nonzero;fill:rgb(100%,100%,100%);fill-opacity:1;" d="M 166.683594 130.234375 C 167.734375 126.09375 166.878906 121.703125 164.359375 118.253906 C 163.167969 117.554688 161.917969 116.953125 160.628906 116.457031 C 160.023438 119.300781 159.402344 122.285156 158.789062 125.238281 L 158.78125 125.277344 C 161.742188 126.351562 164.433594 128.054688 166.675781 130.265625 Z M 166.683594 130.234375 "/>
<path style=" stroke:none;fill-rule:nonzero;fill:rgb(100%,100%,100%);fill-opacity:1;" d="M 143.859375 125.230469 C 143.246094 122.277344 142.617188 119.292969 142.011719 116.453125 C 140.714844 116.949219 139.460938 117.550781 138.265625 118.253906 C 135.742188 121.703125 134.890625 126.09375 135.941406 130.234375 L 135.945312 130.265625 C 138.195312 128.046875 140.898438 126.34375 143.867188 125.269531 Z M 143.859375 125.230469 "/>
<path style=" stroke:none;fill-rule:nonzero;fill:rgb(100%,100%,100%);fill-opacity:1;" d="M 176.34375 144.546875 C 175.347656 146.144531 174.203125 147.648438 172.917969 149.027344 L 172.886719 149.054688 C 172.429688 152.140625 171.3125 155.089844 169.609375 157.703125 L 169.675781 157.640625 C 173.140625 154.027344 175.460938 149.472656 176.34375 144.546875 "/>
<path style=" stroke:none;fill-rule:nonzero;fill:rgb(100%,100%,100%);fill-opacity:1;" d="M 129.707031 149.019531 C 128.421875 147.640625 127.269531 146.144531 126.273438 144.542969 C 127.160156 149.472656 129.480469 154.03125 132.949219 157.644531 C 132.96875 157.664062 132.988281 157.679688 133.007812 157.699219 C 131.304688 155.082031 130.1875 152.132812 129.730469 149.042969 Z M 129.707031 149.019531 "/>
<path style=" stroke:none;fill-rule:nonzero;fill:rgb(77.64706%,61.960787%,40.000001%);fill-opacity:1;" d="M 162.882812 151.976562 C 166.972656 149.894531 170.445312 146.777344 172.953125 142.929688 C 172.523438 139.636719 171.347656 136.480469 169.511719 133.710938 C 168.6875 136.195312 167.726562 138.632812 166.632812 141.011719 C 164.902344 144.484375 163.640625 148.171875 162.882812 151.976562 "/>
<path style=" stroke:none;fill-rule:nonzero;fill:rgb(77.64706%,61.960787%,40.000001%);fill-opacity:1;" d="M 139.753906 152.0625 C 139.003906 148.226562 137.738281 144.507812 135.992188 141.011719 C 134.898438 138.628906 133.9375 136.191406 133.109375 133.707031 C 131.261719 136.496094 130.078125 139.671875 129.660156 142.992188 C 132.140625 146.875 135.632812 150.007812 139.753906 152.0625 "/>
<path style=" stroke:none;fill-rule:nonzero;fill:rgb(77.64706%,61.960787%,40.000001%);fill-opacity:1;" d="M 155.949219 153.980469 L 156.113281 154.304688 C 157.101562 154.109375 158.082031 153.859375 159.042969 153.554688 C 159.574219 148.660156 161.007812 143.902344 163.265625 139.527344 C 164.703125 136.558594 165.84375 133.457031 166.675781 130.265625 C 164.4375 128.054688 161.742188 126.351562 158.78125 125.28125 C 156.964844 134.070312 155.300781 142.488281 154.90625 145.414062 C 154.804688 148.304688 155.160156 151.195312 155.949219 153.980469 "/>
<path style=" stroke:none;fill-rule:nonzero;fill:rgb(77.64706%,61.960787%,40.000001%);fill-opacity:1;" d="M 143.585938 153.597656 C 144.542969 153.894531 145.519531 154.136719 146.507812 154.324219 L 146.679688 153.976562 C 147.484375 151.089844 147.835938 148.09375 147.722656 145.09375 C 147.257812 141.894531 145.632812 133.753906 143.871094 125.269531 C 140.898438 126.339844 138.195312 128.046875 135.945312 130.261719 C 136.777344 133.453125 137.917969 136.558594 139.355469 139.527344 C 141.628906 143.914062 143.0625 148.683594 143.585938 153.597656 "/>
<path style=" stroke:none;fill-rule:nonzero;fill:rgb(77.64706%,61.960787%,40.000001%);fill-opacity:1;" d="M 162.800781 156.144531 C 162.824219 156.308594 162.835938 156.480469 162.863281 156.644531 C 163.292969 158.390625 164.347656 159.921875 165.824219 160.949219 C 167.191406 159.992188 168.457031 158.90625 169.613281 157.703125 C 171.3125 155.089844 172.429688 152.140625 172.886719 149.054688 C 170.070312 152.109375 166.632812 154.527344 162.800781 156.144531 "/>
<path style=" stroke:none;fill-rule:nonzero;fill:rgb(77.64706%,61.960787%,40.000001%);fill-opacity:1;" d="M 139.765625 156.648438 C 139.792969 156.480469 139.804688 156.308594 139.824219 156.144531 C 135.992188 154.523438 132.550781 152.101562 129.730469 149.042969 C 130.1875 152.128906 131.304688 155.082031 133.003906 157.699219 C 134.160156 158.902344 135.433594 159.992188 136.800781 160.949219 C 138.277344 159.925781 139.332031 158.394531 139.765625 156.648438 "/>
</g>
</svg>
