<?xml version="1.0" encoding="UTF-8"?>
<svg xmlns="http://www.w3.org/2000/svg" xmlns:xlink="http://www.w3.org/1999/xlink" width="300px" height="300px" viewBox="0 0 300 300" version="1.1">
<g id="surface1">
<path style=" stroke:none;fill-rule:nonzero;fill:rgb(100%,100%,100%);fill-opacity:1;" d="M 149.0625 275.453125 L 129.203125 249.648438 C 103.917969 241.324219 86.3125 218.425781 84.667969 191.84375 L 72.351562 175.84375 C 60.640625 180.917969 48.890625 188.894531 48.890625 188.894531 L 11.898438 151.773438 L 27.511719 117.601562 L -0.371094 81.394531 L 43.988281 81.394531 L 52.578125 62.703125 L 74.519531 53.855469 L 76.949219 47.222656 L 94.726562 55.332031 L 98.976562 40.542969 L 101.882812 39.589844 C 115.933594 34.863281 132.152344 32.347656 148.761719 32.261719 C 149.238281 32.21875 154.527344 32.304688 154.660156 32.304688 C 155.265625 32.304688 157.867188 32.433594 157.867188 32.433594 C 171.917969 33.128906 185.101562 35.46875 197.113281 39.371094 L 200.0625 40.328125 L 203.964844 54.417969 L 210.382812 49.5625 L 246.375 62.355469 L 255.046875 81.304688 L 299.628906 81.304688 L 271.441406 117.644531 L 286.792969 151.339844 L 249.238281 190.023438 C 249.238281 190.023438 235.449219 179.960938 226.039062 176.230469 L 214.722656 190.847656 C 213.421875 218.078125 194.902344 241.972656 168.886719 249.953125 Z M 149.0625 275.453125 "/>
<path style=" stroke:none;fill-rule:nonzero;fill:rgb(69.411767%,69.411767%,69.411767%);fill-opacity:1;" d="M 277.246094 92.324219 L 21.828125 92.324219 L 149.105469 257.585938 Z M 277.246094 92.324219 "/>
<path style=" stroke:none;fill-rule:nonzero;fill:rgb(0%,23.921569%,65.098041%);fill-opacity:1;" d="M 11.289062 87.117188 L 149.105469 266 L 287.828125 87.164062 Z M 277.246094 92.324219 L 149.105469 257.542969 L 21.828125 92.324219 Z M 277.246094 92.324219 "/>
<path style=" stroke:none;fill-rule:nonzero;fill:rgb(0%,23.921569%,65.098041%);fill-opacity:1;" d="M 258.773438 103.8125 L 258.730469 103.683594 L 258.644531 103.640625 L 250.449219 98.132812 L 253.484375 92.277344 L 253.570312 92.148438 L 253.484375 91.976562 L 242.207031 67.257812 L 242.121094 67.085938 L 241.949219 67.039062 L 211.507812 56.199219 L 211.289062 56.113281 L 211.117188 56.242188 L 203.050781 62.402344 L 202.964844 62.488281 L 202.921875 62.574219 L 201.53125 65.957031 C 201.53125 65.957031 188.914062 62.792969 170.394531 60.925781 C 168.488281 60.753906 163.457031 60.320312 155.433594 59.667969 L 154.65625 59.625 L 153.832031 59.582031 L 153.65625 59.582031 L 153.527344 59.710938 L 147.5 65.695312 L 147.5 59.539062 C 147.5 59.539062 130.457031 60.492188 119.269531 62.011719 C 108.082031 63.527344 97.109375 66.304688 97.109375 66.304688 L 95.070312 61.96875 L 95.027344 61.835938 L 94.898438 61.792969 L 80.542969 55.246094 L 80.152344 55.070312 L 80.023438 55.503906 L 78.332031 60.058594 L 77.941406 59.148438 L 77.769531 58.757812 L 77.378906 58.929688 L 56.824219 67.171875 L 56.691406 67.214844 L 56.605469 67.34375 L 18.707031 150.605469 L 49.796875 181.785156 L 51.230469 180.960938 C 52.183594 180.441406 53.484375 179.660156 55.003906 178.75 C 58.773438 176.539062 63.933594 173.5 66.363281 172.289062 L 66.882812 172.027344 C 70.050781 170.464844 71.652344 169.730469 86.789062 163.222656 L 88.046875 162.746094 C 88.046875 162.746094 89.738281 162.097656 92.859375 161.054688 C 101.1875 158.28125 122.738281 151.863281 143.640625 151.863281 L 143.855469 151.863281 C 144.679688 151.863281 145.503906 151.863281 146.371094 151.90625 C 160.550781 152.296875 177.160156 155.332031 188.609375 157.761719 C 199.582031 160.144531 207.863281 162.402344 210.207031 163.050781 L 211.765625 163.527344 C 222.175781 167.5625 234.878906 174.195312 246.675781 181.742188 L 248.191406 182.695312 L 279.675781 150.257812 Z M 258.773438 103.8125 "/>
<path style=" stroke:none;fill-rule:nonzero;fill:rgb(100%,40.392157%,11.372549%);fill-opacity:1;" d="M 255.390625 106.71875 L 225.121094 86.511719 L 219.875 71.722656 L 229.242188 75.0625 L 233.015625 84.300781 L 247.28125 88.851562 L 238.957031 70.464844 L 212.070312 60.925781 L 207.125 64.742188 L 216.058594 93.796875 L 244.855469 114.136719 L 252.226562 132.523438 L 240.257812 127.101562 L 236.136719 115.652344 L 221.4375 111.316406 L 229.285156 137.160156 C 231.714844 138.03125 234.097656 138.984375 236.484375 139.9375 C 243.03125 142.582031 249.40625 145.53125 255.695312 148.695312 C 260.03125 150.910156 264.28125 153.25 268.488281 155.722656 L 274.734375 149.304688 Z M 255.390625 106.71875 "/>
<path style=" stroke:none;fill-rule:nonzero;fill:rgb(100%,40.392157%,11.372549%);fill-opacity:1;" d="M 51.230469 120.421875 L 61.332031 111.402344 L 63.761719 114.222656 L 53.789062 142.84375 C 59.25 140.457031 64.757812 138.246094 70.398438 136.25 L 77.59375 112.617188 L 71.351562 102.339844 L 84.273438 90.066406 L 91.820312 64.960938 L 82.539062 60.796875 L 74.210938 84.472656 L 60.855469 95.964844 L 73.042969 65.261719 L 59.988281 70.464844 L 23.953125 149.519531 L 29.589844 155.160156 C 32.929688 153.207031 36.3125 151.34375 39.738281 149.5625 Z M 51.230469 120.421875 "/>
<path style=" stroke:none;fill-rule:nonzero;fill:rgb(100%,40.392157%,11.372549%);fill-opacity:1;" d="M 142.554688 64.046875 L 131.496094 64.613281 L 126.292969 123.890625 C 130.976562 123.457031 135.703125 123.15625 140.472656 122.980469 Z M 142.554688 64.046875 "/>
<path style=" stroke:none;fill-rule:nonzero;fill:rgb(100%,40.392157%,11.372549%);fill-opacity:1;" d="M 175.339844 111.621094 L 162.503906 110.839844 L 160.464844 74.542969 L 171.351562 75.0625 L 170.09375 65.046875 L 155.480469 64.003906 L 148.929688 70.554688 L 148.929688 115.957031 L 155.78125 122.980469 C 162.851562 123.199219 169.875 123.71875 176.8125 124.585938 Z M 175.339844 111.621094 "/>
<path style=" stroke:none;fill-rule:nonzero;fill:rgb(100%,40.392157%,11.372549%);fill-opacity:1;" d="M 102.617188 87.464844 L 107.257812 110.015625 L 104.265625 127.101562 C 108.730469 126.234375 113.285156 125.496094 117.839844 124.890625 L 117.882812 124.890625 L 125.035156 65.4375 L 114.757812 66.910156 L 111.375 86.382812 L 107.558594 68.082031 L 95.503906 71.117188 L 78.722656 133.519531 C 83.578125 132 88.480469 130.65625 93.421875 129.441406 Z M 102.617188 87.464844 "/>
<path style=" stroke:none;fill-rule:nonzero;fill:rgb(100%,40.392157%,11.372549%);fill-opacity:1;" d="M 191.773438 108.324219 L 195.375 103.46875 L 200.664062 107.804688 L 205.523438 129.921875 C 210.59375 131.222656 215.625 132.652344 220.613281 134.257812 L 211.550781 101.820312 L 202.226562 94.1875 L 207.558594 87.117188 L 203.136719 70.683594 L 191.863281 68.167969 L 196.285156 84.734375 L 189.261719 94.101562 L 184.054688 66.824219 L 173.605469 65.480469 C 173.605469 65.480469 178.851562 105.460938 181.324219 125.148438 C 186.050781 125.800781 190.734375 126.625 195.375 127.578125 Z M 191.773438 108.324219 "/>
<path style=" stroke:none;fill-rule:nonzero;fill:rgb(69.411767%,69.411767%,69.411767%);fill-opacity:1;" d="M 127.898438 135.167969 C 127.898438 135.167969 132.234375 132.609375 140.953125 131.65625 L 140.691406 124.804688 C 135.921875 124.976562 131.195312 125.28125 126.46875 125.714844 C 126.902344 128.402344 127.507812 132.390625 127.898438 135.167969 Z M 127.898438 135.167969 "/>
<path style=" stroke:none;fill-rule:nonzero;fill:rgb(69.411767%,69.411767%,69.411767%);fill-opacity:1;" d="M 155.566406 131.265625 C 159.121094 131.699219 162.894531 132.824219 166.191406 133.78125 C 169.183594 134.515625 172.433594 135.773438 175.078125 136.988281 L 176.554688 126.449219 C 169.574219 125.582031 162.9375 125.0625 155.78125 124.847656 C 155.695312 126.839844 155.695312 129.746094 155.566406 131.265625 Z M 155.566406 131.265625 "/>
<path style=" stroke:none;fill-rule:nonzero;fill:rgb(69.411767%,69.411767%,69.411767%);fill-opacity:1;" d="M 109.816406 147.960938 C 113.847656 144.96875 116.277344 141.84375 120.570312 139.242188 C 119.746094 135.425781 118.707031 130.441406 117.882812 126.667969 C 113.242188 127.273438 108.644531 128.054688 104.089844 128.921875 C 105.824219 134.601562 108.039062 142.234375 109.816406 147.960938 Z M 109.816406 147.960938 "/>
<path style=" stroke:none;fill-rule:nonzero;fill:rgb(69.411767%,69.411767%,69.411767%);fill-opacity:1;" d="M 178.636719 139.070312 C 182.582031 141.367188 185.660156 143.925781 189.171875 147.351562 L 189.867188 147.875 L 195.417969 129.488281 C 190.648438 128.488281 185.964844 127.621094 181.0625 126.929688 Z M 178.636719 139.070312 "/>
<path style=" stroke:none;fill-rule:nonzero;fill:rgb(69.411767%,69.411767%,69.411767%);fill-opacity:1;" d="M 196.15625 155.070312 L 209.425781 158.195312 L 220.570312 136.121094 C 215.410156 134.429688 210.464844 133.042969 205.175781 131.742188 Z M 196.15625 155.070312 "/>
<path style=" stroke:none;fill-rule:nonzero;fill:rgb(69.411767%,69.411767%,69.411767%);fill-opacity:1;" d="M 89.476562 158.195312 C 92.945312 156.9375 97.761719 155.160156 102.269531 153.988281 L 93.640625 131.222656 C 88.4375 132.480469 83.882812 133.824219 78.808594 135.425781 C 82.105469 143.015625 85.703125 150.867188 89.476562 158.195312 Z M 89.476562 158.195312 "/>
<path style=" stroke:none;fill-rule:nonzero;fill:rgb(69.411767%,69.411767%,69.411767%);fill-opacity:1;" d="M 69.484375 166.390625 C 70.265625 165.738281 77.769531 162.488281 82.929688 160.320312 C 79.027344 153.25 74.300781 145.402344 70.398438 138.203125 C 64.800781 140.199219 59.683594 142.277344 54.222656 144.707031 Z M 69.484375 166.390625 "/>
<path style=" stroke:none;fill-rule:nonzero;fill:rgb(69.411767%,69.411767%,69.411767%);fill-opacity:1;" d="M 50.707031 176.320312 C 53.09375 174.890625 55.652344 173.414062 58.429688 171.8125 L 40.820312 151.039062 C 37.484375 152.773438 34.1875 154.59375 30.933594 156.503906 Z M 50.707031 176.320312 "/>
<path style=" stroke:none;fill-rule:nonzero;fill:rgb(69.411767%,69.411767%,69.411767%);fill-opacity:1;" d="M 216.449219 160.925781 C 227.03125 165.003906 241.773438 173.285156 247.671875 177.230469 C 250.363281 174.628906 265.0625 159.234375 267.101562 157.109375 C 254.871094 149.953125 242.035156 143.839844 228.679688 138.941406 Z M 216.449219 160.925781 "/>
<path style=" stroke:none;fill-rule:nonzero;fill:rgb(69.411767%,69.411767%,69.411767%);fill-opacity:1;" d="M 153.65625 123.9375 L 153.527344 130.917969 L 148.496094 130.742188 L 148.410156 118.472656 Z M 153.65625 123.9375 "/>
<path style=" stroke:none;fill-rule:nonzero;fill:rgb(0%,23.921569%,65.098041%);fill-opacity:1;" d="M 149.625 128.488281 C 116.839844 128.488281 90.300781 155.070312 90.257812 187.855469 C 90.257812 220.640625 116.839844 247.179688 149.625 247.179688 C 182.410156 247.179688 208.949219 220.597656 208.949219 187.855469 C 208.992188 155.027344 182.410156 128.488281 149.625 128.488281 Z M 149.625 128.488281 "/>
<path style=" stroke:none;fill-rule:nonzero;fill:rgb(100%,40.392157%,11.372549%);fill-opacity:1;" d="M 153.265625 132.914062 C 148.714844 134.515625 144.332031 136.816406 139.996094 138.808594 C 137.046875 137.03125 135.3125 136.597656 133.320312 135.296875 C 139.5625 133.042969 146.285156 132.695312 153.265625 132.914062 Z M 153.265625 132.914062 "/>
<path style=" stroke:none;fill-rule:nonzero;fill:rgb(100%,40.392157%,11.372549%);fill-opacity:1;" d="M 139.996094 138.984375 L 139.953125 138.941406 C 138.4375 138.03125 137.265625 137.464844 136.226562 136.988281 C 135.183594 136.511719 134.273438 136.078125 133.277344 135.425781 L 133.015625 135.253906 L 133.277344 135.167969 C 137.871094 133.476562 143.207031 132.695312 149.972656 132.695312 C 151.011719 132.695312 152.097656 132.695312 153.265625 132.738281 L 153.308594 133 C 149.929688 134.167969 146.589844 135.773438 143.378906 137.335938 C 142.296875 137.855469 141.125 138.417969 140.039062 138.941406 Z M 133.667969 135.339844 C 134.535156 135.90625 135.355469 136.292969 136.3125 136.726562 C 137.351562 137.207031 138.523438 137.769531 139.996094 138.679688 C 141.082031 138.160156 142.210938 137.640625 143.292969 137.117188 C 146.285156 135.6875 149.363281 134.214844 152.53125 133.042969 C 151.621094 133 150.796875 133 149.972656 133 C 143.378906 133 138.175781 133.734375 133.667969 135.339844 Z M 133.667969 135.339844 "/>
<path style=" stroke:none;fill-rule:nonzero;fill:rgb(100%,40.392157%,11.372549%);fill-opacity:1;" d="M 195.808594 158.105469 C 181.84375 144.011719 160.855469 145.054688 143.078125 140.066406 C 143.078125 140.066406 153.527344 135.082031 158.949219 133.691406 C 173.476562 136.164062 187.527344 144.882812 195.808594 158.105469 Z M 195.808594 158.105469 "/>
<path style=" stroke:none;fill-rule:nonzero;fill:rgb(100%,40.392157%,11.372549%);fill-opacity:1;" d="M 195.679688 158.195312 C 185.746094 148.175781 172.042969 145.792969 158.816406 143.492188 C 153.527344 142.582031 148.0625 141.628906 142.988281 140.199219 L 142.644531 140.109375 L 142.988281 139.9375 C 143.078125 139.894531 153.527344 134.90625 158.90625 133.5625 L 158.992188 133.5625 C 174.210938 136.164062 188.003906 145.316406 195.980469 158.0625 Z M 143.464844 140.023438 C 148.453125 141.410156 153.789062 142.324219 158.90625 143.234375 C 171.785156 145.488281 185.097656 147.785156 195.027344 157.152344 C 187.046875 145.054688 173.648438 136.382812 158.949219 133.867188 C 154.132812 135.082031 145.289062 139.15625 143.464844 140.023438 Z M 143.464844 140.023438 "/>
<path style=" stroke:none;fill-rule:nonzero;fill:rgb(100%,40.392157%,11.372549%);fill-opacity:1;" d="M 117.1875 160.230469 C 103.746094 180.832031 101.921875 206.242188 112.632812 228.488281 C 98.800781 216.867188 90.5625 194.402344 96.761719 172.546875 C 101.878906 165.4375 108.382812 159.191406 117.1875 160.230469 Z M 117.1875 160.230469 "/>
<path style=" stroke:none;fill-rule:nonzero;fill:rgb(100%,40.392157%,11.372549%);fill-opacity:1;" d="M 112.546875 228.574219 C 105.566406 222.722656 100.058594 214.089844 97.066406 204.378906 C 93.855469 193.882812 93.683594 182.867188 96.632812 172.503906 L 96.632812 172.460938 C 102.746094 163.917969 108.644531 159.972656 115.234375 159.972656 C 115.886719 159.972656 116.535156 160.015625 117.1875 160.101562 L 117.40625 160.144531 L 117.273438 160.320312 C 103.832031 180.917969 102.140625 206.414062 112.722656 228.445312 Z M 96.894531 172.589844 C 91.210938 192.582031 97.5 215.21875 112.199219 227.925781 C 101.921875 206.027344 103.65625 180.832031 116.925781 160.320312 C 116.363281 160.277344 115.800781 160.230469 115.234375 160.230469 C 108.773438 160.277344 102.964844 164.179688 96.894531 172.589844 Z M 96.894531 172.589844 "/>
<path style=" stroke:none;fill-rule:nonzero;fill:rgb(100%,40.392157%,11.372549%);fill-opacity:1;" d="M 131.585938 174.890625 C 138.828125 196.398438 140.429688 220.25 159.164062 241.933594 C 144.550781 244.878906 130.066406 240.5 118.53125 233.214844 C 104.222656 212.355469 105.566406 181.222656 119.875 160.96875 C 126.816406 162.964844 130.628906 172.113281 131.585938 174.890625 Z M 131.585938 174.890625 "/>
<path style=" stroke:none;fill-rule:nonzero;fill:rgb(100%,40.392157%,11.372549%);fill-opacity:1;" d="M 149.753906 243.015625 C 136.527344 243.015625 125.425781 237.769531 118.445312 233.34375 L 118.402344 233.300781 C 104.4375 212.878906 105 181.785156 119.746094 160.925781 L 119.789062 160.839844 L 119.875 160.882812 C 127.507812 163.09375 131.28125 173.71875 131.671875 174.890625 C 133.578125 180.484375 135.054688 186.164062 136.570312 192.105469 C 140.90625 208.714844 145.375 225.84375 159.207031 241.84375 L 159.382812 242.019531 L 159.121094 242.0625 C 156.128906 242.710938 152.921875 243.015625 149.753906 243.015625 Z M 118.617188 233.128906 C 125.558594 237.507812 136.613281 242.753906 149.753906 242.753906 C 152.832031 242.753906 155.914062 242.453125 158.90625 241.886719 C 145.15625 225.886719 140.691406 208.757812 136.355469 192.191406 C 134.792969 186.207031 133.320312 180.570312 131.453125 174.976562 C 131.0625 173.804688 127.335938 163.398438 119.960938 161.144531 C 105.304688 181.914062 104.742188 212.832031 118.617188 233.128906 Z M 118.617188 233.128906 "/>
<path style=" stroke:none;fill-rule:nonzero;fill:rgb(100%,40.392157%,11.372549%);fill-opacity:1;" d="M 121.523438 158.714844 C 123.691406 155.636719 126.164062 152.730469 128.894531 150.042969 C 159.292969 158.628906 188.304688 190.152344 193.25 221.117188 C 191.820312 223.457031 188.347656 226.710938 186.007812 229.050781 C 178.460938 235.859375 170.136719 239.375 162.15625 241.28125 C 147.976562 226.539062 143.292969 207.457031 138.261719 188.59375 C 134.402344 174.109375 131.757812 163.222656 121.566406 158.800781 Z M 121.523438 158.714844 "/>
<path style=" stroke:none;fill-rule:nonzero;fill:rgb(100%,40.392157%,11.372549%);fill-opacity:1;" d="M 162.070312 241.410156 L 162.027344 241.367188 C 148.324219 227.144531 143.421875 208.628906 138.652344 190.675781 L 137.828125 187.507812 C 134.054688 173.371094 131.367188 163.136719 121.480469 158.886719 L 121.394531 158.886719 L 121.351562 158.671875 L 121.394531 158.628906 C 123.605469 155.503906 126.078125 152.601562 128.808594 149.953125 L 128.851562 149.910156 L 128.9375 149.953125 C 143.726562 154.117188 158.558594 163.789062 170.742188 177.144531 C 182.972656 190.585938 191.039062 206.199219 193.421875 221.160156 L 193.421875 221.203125 L 193.378906 221.246094 C 192.164062 223.242188 189.433594 225.886719 187.265625 228.054688 L 186.09375 229.226562 C 179.417969 235.210938 171.609375 239.242188 162.15625 241.5 Z M 121.699219 158.714844 C 131.628906 163.09375 134.359375 173.328125 138.089844 187.507812 L 138.914062 190.632812 C 143.640625 208.496094 148.539062 226.972656 162.15625 241.109375 C 171.523438 238.851562 179.285156 234.863281 185.878906 228.921875 L 187.046875 227.75 C 189.214844 225.625 191.863281 223.023438 193.078125 221.03125 C 188.175781 190.542969 159.425781 158.800781 128.894531 150.128906 C 126.292969 152.773438 123.867188 155.636719 121.699219 158.714844 Z M 121.699219 158.714844 "/>
<path style=" stroke:none;fill-rule:nonzero;fill:rgb(100%,40.392157%,11.372549%);fill-opacity:1;" d="M 192.554688 158.585938 C 177.855469 145.617188 157.429688 147.265625 140.257812 141.238281 C 136.917969 143.277344 133.710938 145.660156 130.933594 148.132812 C 161.332031 157.671875 188.914062 187.378906 195.503906 218.125 C 200.273438 211.230469 203.136719 203.25 204.308594 194.75 C 205.046875 181.742188 204.914062 169.902344 192.554688 158.585938 Z M 192.554688 158.585938 "/>
<path style=" stroke:none;fill-rule:nonzero;fill:rgb(100%,40.392157%,11.372549%);fill-opacity:1;" d="M 195.417969 218.472656 L 195.332031 218.167969 C 188.828125 187.8125 161.117188 157.761719 130.847656 148.308594 L 130.585938 148.21875 L 130.761719 148.046875 C 133.535156 145.574219 136.746094 143.191406 140.128906 141.109375 L 140.171875 141.066406 L 140.214844 141.066406 C 146.15625 143.144531 152.574219 144.359375 158.816406 145.488281 C 170.65625 147.65625 182.929688 149.910156 192.554688 158.410156 C 204.742188 169.597656 205.132812 181.003906 204.351562 194.707031 C 203.136719 203.554688 200.1875 211.402344 195.503906 218.125 Z M 131.195312 148.089844 C 145.851562 152.730469 160.421875 162.3125 172.21875 175.105469 C 184.011719 187.898438 192.296875 203.035156 195.503906 217.777344 C 200.015625 211.144531 202.921875 203.421875 204.089844 194.75 C 204.871094 181.089844 204.523438 169.773438 192.382812 158.671875 C 182.796875 150.214844 170.613281 147.960938 158.773438 145.792969 C 152.574219 144.664062 146.113281 143.449219 140.171875 141.367188 C 137.046875 143.363281 133.925781 145.703125 131.195312 148.089844 Z M 131.195312 148.089844 "/>
<path style=" stroke:none;fill-rule:nonzero;fill:rgb(100%,40.392157%,11.372549%);fill-opacity:1;" d="M 126.382812 149.085938 C 123.433594 151.90625 121.265625 154.679688 118.964844 157.933594 L 118.921875 157.890625 C 110.855469 156.070312 104.523438 160.277344 99.40625 165.4375 C 101.835938 159.277344 106.953125 151.992188 112.332031 147.222656 C 117.316406 147.484375 120.960938 147.394531 126.382812 149.085938 "/>
<path style=" stroke:none;fill-rule:nonzero;fill:rgb(100%,40.392157%,11.372549%);fill-opacity:1;" d="M 99.496094 165.566406 L 99.277344 165.4375 C 101.75 159.191406 106.953125 151.820312 112.242188 147.179688 L 112.289062 147.136719 L 112.332031 147.136719 C 112.9375 147.179688 113.542969 147.179688 114.109375 147.222656 C 118.316406 147.394531 121.609375 147.484375 126.425781 149 L 126.640625 149.085938 L 126.46875 149.261719 C 123.867188 151.777344 121.742188 154.292969 119.050781 158.0625 L 119.007812 158.152344 L 118.835938 158.105469 C 117.578125 157.847656 116.320312 157.671875 115.105469 157.671875 C 109.816406 157.628906 104.828125 160.144531 99.496094 165.566406 Z M 112.417969 147.394531 C 107.386719 151.863281 102.398438 158.800781 99.839844 164.828125 C 105.046875 159.710938 109.902344 157.328125 115.148438 157.328125 C 116.40625 157.328125 117.664062 157.457031 118.921875 157.761719 C 121.523438 154.117188 123.605469 151.601562 126.121094 149.175781 C 121.480469 147.742188 118.226562 147.65625 114.152344 147.484375 C 113.589844 147.441406 112.980469 147.441406 112.417969 147.394531 Z M 112.417969 147.394531 "/>
<path style=" stroke:none;fill-rule:nonzero;fill:rgb(100%,40.392157%,11.372549%);fill-opacity:1;" d="M 128.550781 147.222656 C 131.410156 144.664062 134.230469 142.410156 137.65625 140.371094 L 129.851562 136.511719 C 124.644531 138.636719 119.09375 141.410156 115.28125 144.882812 C 121.21875 145.53125 123.734375 145.878906 128.550781 147.222656 Z M 128.550781 147.222656 "/>
<path style=" stroke:none;fill-rule:nonzero;fill:rgb(100%,40.392157%,11.372549%);fill-opacity:1;" d="M 128.59375 147.351562 L 128.503906 147.351562 C 123.691406 146.050781 121.21875 145.660156 115.28125 145.011719 L 114.976562 144.96875 L 115.191406 144.75 C 118.402344 141.800781 123.214844 139.027344 129.808594 136.339844 L 129.851562 136.292969 L 129.894531 136.339844 L 137.914062 140.328125 L 137.699219 140.457031 C 133.925781 142.710938 130.976562 145.183594 128.59375 147.308594 Z M 115.667969 144.75 C 121.351562 145.402344 123.824219 145.792969 128.550781 147.050781 C 130.890625 144.96875 133.753906 142.539062 137.394531 140.328125 L 129.894531 136.597656 C 123.519531 139.242188 118.835938 141.890625 115.667969 144.75 Z M 115.667969 144.75 "/>
<path style=" stroke:none;fill-rule:nonzero;fill:rgb(0%,23.921569%,65.098041%);fill-opacity:1;" d="M 141.210938 55.722656 L 138.828125 58.109375 L 134.707031 58.367188 L 133.1875 57.023438 L 131.238281 58.671875 L 126.769531 59.105469 L 124.820312 57.242188 L 127.421875 39.722656 L 130.804688 39.242188 L 128.984375 54.726562 L 131.410156 54.464844 L 133.320312 38.941406 L 136.660156 38.59375 L 135.269531 53.988281 L 137.65625 53.769531 L 138.871094 38.417969 C 140.300781 38.246094 141.039062 38.289062 142.296875 38.203125 Z M 141.210938 55.722656 "/>
<path style=" stroke:none;fill-rule:nonzero;fill:rgb(0%,23.921569%,65.098041%);fill-opacity:1;" d="M 152.226562 37.984375 L 152.269531 49 L 154.4375 49 L 154.265625 38.03125 C 154.265625 38.03125 156.519531 38.117188 157.558594 38.203125 L 157.992188 50.5625 L 155.914062 52.644531 L 155.21875 52.6875 L 155.304688 57.976562 L 151.621094 57.847656 L 151.574219 52.558594 L 150.839844 52.511719 L 148.628906 50.214844 L 148.757812 37.898438 C 149.972656 37.941406 152.226562 37.984375 152.226562 37.984375 Z M 152.226562 37.984375 "/>
<path style=" stroke:none;fill-rule:nonzero;fill:rgb(0%,23.921569%,65.098041%);fill-opacity:1;" d="M 124.90625 40.023438 L 124.34375 43.667969 L 120.222656 44.449219 L 119.484375 48.699219 C 121.003906 48.4375 121.914062 48.265625 123.691406 48.046875 C 123.433594 49.609375 123.390625 50.171875 123.085938 51.644531 L 118.964844 52.253906 L 118.183594 56.328125 L 122.390625 55.722656 C 122.390625 55.722656 121.957031 58.453125 121.742188 59.667969 C 118.792969 60.015625 115.800781 60.449219 112.980469 60.96875 C 112.980469 60.96875 116.148438 46.269531 116.925781 41.714844 Z M 124.90625 40.023438 "/>
<path style=" stroke:none;fill-rule:nonzero;fill:rgb(0%,23.921569%,65.098041%);fill-opacity:1;" d="M 109.46875 61.535156 L 105.175781 62.355469 L 107.125 54.335938 L 105.78125 51.472656 L 102.398438 63.007812 L 98.238281 63.960938 C 99.972656 57.71875 101.75 51.472656 103.484375 45.226562 C 104.914062 44.75 106 44.402344 107.257812 44.058594 C 107.734375 45.097656 108.863281 47.222656 108.863281 47.222656 L 109.859375 43.320312 C 109.859375 43.320312 112.503906 42.625 113.847656 42.324219 Z M 109.46875 61.535156 "/>
<path style=" stroke:none;fill-rule:nonzero;fill:rgb(0%,23.921569%,65.098041%);fill-opacity:1;" d="M 169.574219 41.410156 C 170.007812 46.441406 170.828125 51.257812 171.351562 55.9375 L 169.484375 58.800781 L 163.457031 58.410156 L 161.289062 56.027344 C 160.898438 50.910156 160.640625 45.75 160.335938 40.589844 C 160.898438 39.851562 161.722656 39.289062 162.417969 38.550781 L 167.449219 39.027344 Z M 163.933594 42.234375 L 165.019531 54.203125 L 167.144531 54.378906 L 166.015625 42.453125 Z M 163.933594 42.234375 "/>
<path style=" stroke:none;fill-rule:nonzero;fill:rgb(0%,23.921569%,65.098041%);fill-opacity:1;" d="M 189.085938 43.191406 C 189.824219 46.050781 191.296875 51.992188 191.296875 51.992188 L 192.730469 52.296875 L 193.421875 51.34375 L 191.644531 43.96875 C 191.644531 43.96875 193.421875 44.449219 195.332031 45.054688 L 197.238281 52.210938 L 196.328125 53.511719 L 197.976562 55.332031 L 200.492188 64.003906 L 196.371094 63.09375 L 194.765625 56.980469 L 192.207031 56.417969 L 193.597656 62.488281 L 189.390625 61.664062 C 187.914062 55.117188 185.269531 42.234375 185.269531 42.234375 C 185.269531 42.234375 187.4375 42.667969 189.085938 43.191406 Z M 189.085938 43.191406 "/>
<path style=" stroke:none;fill-rule:nonzero;fill:rgb(0%,23.921569%,65.098041%);fill-opacity:1;" d="M 182.582031 43.882812 L 183.96875 51.039062 L 183.1875 52.125 L 184.578125 53.816406 L 185.789062 60.925781 L 181.757812 60.234375 L 180.675781 54.292969 L 178.246094 54.03125 L 179.113281 59.800781 L 175.078125 59.277344 L 172.390625 39.589844 L 180.066406 40.933594 Z M 176.769531 44.144531 L 177.507812 49.132812 L 179.761719 49.390625 L 178.808594 44.492188 Z M 176.769531 44.144531 "/>
</g>
</svg>
