<?xml version="1.0" encoding="UTF-8"?>
<svg xmlns="http://www.w3.org/2000/svg" xmlns:xlink="http://www.w3.org/1999/xlink" width="300px" height="300px" viewBox="0 0 300 300" version="1.1">
<g id="surface1">
<path style=" stroke:none;fill-rule:nonzero;fill:rgb(100%,100%,100%);fill-opacity:1;" d="M 159.398438 259.414062 L 138.214844 231.894531 C 111.246094 223.011719 92.46875 198.589844 90.710938 170.234375 L 77.574219 153.164062 C 65.085938 158.578125 52.550781 167.089844 52.550781 167.089844 L 13.09375 127.492188 L 29.746094 91.042969 L 0.00390625 52.417969 L 47.324219 52.417969 L 56.480469 32.484375 L 79.886719 23.046875 L 82.476562 15.96875 L 101.441406 24.621094 L 105.976562 8.847656 L 109.074219 7.828125 C 124.0625 2.785156 141.363281 0.105469 159.078125 0.0117188 C 159.589844 -0.0351562 165.230469 0.0585938 165.371094 0.0585938 C 166.015625 0.0585938 168.792969 0.195312 168.792969 0.195312 C 183.78125 0.9375 197.839844 3.433594 210.652344 7.597656 L 213.796875 8.613281 L 217.960938 23.648438 L 224.808594 18.46875 L 263.199219 32.113281 L 272.453125 52.328125 L 320.003906 52.328125 L 289.9375 91.089844 L 306.3125 127.03125 L 266.257812 168.289062 C 266.257812 168.289062 251.546875 157.558594 241.507812 153.582031 L 229.4375 169.167969 C 228.046875 198.21875 208.296875 223.707031 180.542969 232.21875 Z M 159.398438 259.414062 "/>
<path style=" stroke:none;fill-rule:nonzero;fill:rgb(69.411767%,69.411767%,69.411767%);fill-opacity:1;" d="M 285.730469 86.878906 L 13.28125 86.878906 L 149.042969 263.160156 Z M 285.730469 86.878906 "/>
<path style=" stroke:none;fill-rule:nonzero;fill:rgb(0%,23.921569%,65.098041%);fill-opacity:1;" d="M 2.042969 81.328125 L 149.042969 272.132812 L 297.015625 81.371094 Z M 285.730469 86.878906 L 149.042969 263.113281 L 13.28125 86.878906 Z M 285.730469 86.878906 "/>
<path style=" stroke:none;fill-rule:nonzero;fill:rgb(0%,23.921569%,65.098041%);fill-opacity:1;" d="M 266.027344 99.136719 L 265.980469 98.996094 L 265.886719 98.949219 L 257.144531 93.074219 L 260.382812 86.832031 L 260.476562 86.691406 L 260.382812 86.507812 L 248.355469 60.140625 L 248.261719 59.957031 L 248.078125 59.910156 L 215.605469 48.347656 L 215.375 48.253906 L 215.191406 48.390625 L 206.585938 54.960938 L 206.496094 55.054688 L 206.449219 55.144531 L 204.96875 58.753906 C 204.96875 58.753906 191.507812 55.378906 171.757812 53.386719 C 169.722656 53.203125 164.355469 52.742188 155.796875 52.046875 L 154.964844 52 L 154.085938 51.953125 L 153.902344 51.953125 L 153.761719 52.09375 L 147.332031 58.476562 L 147.332031 51.90625 C 147.332031 51.90625 129.15625 52.925781 117.21875 54.542969 C 105.285156 56.164062 93.582031 59.125 93.582031 59.125 L 91.410156 54.5 L 91.363281 54.359375 L 91.222656 54.3125 L 75.914062 47.328125 L 75.496094 47.144531 L 75.359375 47.605469 L 73.554688 52.464844 L 73.136719 51.492188 L 72.953125 51.074219 L 72.535156 51.261719 L 50.613281 60.050781 L 50.472656 60.09375 L 50.378906 60.234375 L 9.953125 149.046875 L 43.117188 182.304688 L 44.644531 181.425781 C 45.664062 180.871094 47.050781 180.035156 48.667969 179.066406 C 52.691406 176.707031 58.199219 173.46875 60.789062 172.171875 L 61.34375 171.894531 C 64.71875 170.230469 66.429688 169.445312 82.574219 162.507812 L 83.914062 161.996094 C 83.914062 161.996094 85.71875 161.304688 89.050781 160.191406 C 97.929688 157.234375 120.921875 150.386719 143.214844 150.386719 L 143.449219 150.386719 C 144.328125 150.386719 145.207031 150.386719 146.128906 150.433594 C 161.257812 150.847656 178.972656 154.085938 191.183594 156.679688 C 202.886719 159.222656 211.722656 161.628906 214.21875 162.320312 L 215.882812 162.828125 C 226.984375 167.132812 240.539062 174.207031 253.121094 182.257812 L 254.738281 183.273438 L 288.320312 148.675781 Z M 266.027344 99.136719 "/>
<path style=" stroke:none;fill-rule:nonzero;fill:rgb(100%,40.392157%,11.372549%);fill-opacity:1;" d="M 262.417969 102.234375 L 230.132812 80.679688 L 224.535156 64.90625 L 234.527344 68.46875 L 238.550781 78.320312 L 253.769531 83.175781 L 244.886719 63.5625 L 216.207031 53.386719 L 210.933594 57.457031 L 220.464844 88.449219 L 251.175781 110.144531 L 259.042969 129.757812 L 246.273438 123.976562 L 241.878906 111.761719 L 226.199219 107.136719 L 234.570312 134.707031 C 237.160156 135.632812 239.707031 136.648438 242.25 137.667969 C 249.234375 140.488281 256.035156 143.632812 262.742188 147.011719 C 267.367188 149.371094 271.898438 151.867188 276.386719 154.503906 L 283.046875 147.65625 Z M 262.417969 102.234375 "/>
<path style=" stroke:none;fill-rule:nonzero;fill:rgb(100%,40.392157%,11.372549%);fill-opacity:1;" d="M 44.644531 116.851562 L 55.421875 107.230469 L 58.011719 110.238281 L 47.375 140.765625 C 53.203125 138.222656 59.078125 135.863281 65.089844 133.734375 L 72.769531 108.523438 L 66.105469 97.5625 L 79.890625 84.472656 L 87.941406 57.691406 L 78.042969 53.25 L 69.160156 78.503906 L 54.914062 90.761719 L 67.910156 58.015625 L 53.988281 63.5625 L 15.550781 147.890625 L 21.5625 153.902344 C 25.125 151.820312 28.734375 149.832031 32.386719 147.933594 Z M 44.644531 116.851562 "/>
<path style=" stroke:none;fill-rule:nonzero;fill:rgb(100%,40.392157%,11.372549%);fill-opacity:1;" d="M 142.058594 56.71875 L 130.265625 57.320312 L 124.714844 120.550781 C 129.710938 120.089844 134.75 119.765625 139.839844 119.582031 Z M 142.058594 56.71875 "/>
<path style=" stroke:none;fill-rule:nonzero;fill:rgb(100%,40.392157%,11.372549%);fill-opacity:1;" d="M 177.027344 107.460938 L 163.335938 106.628906 L 161.164062 67.914062 L 172.773438 68.46875 L 171.433594 57.78125 L 155.84375 56.671875 L 148.859375 63.65625 L 148.859375 112.085938 L 156.167969 119.582031 C 163.707031 119.8125 171.199219 120.367188 178.601562 121.292969 Z M 177.027344 107.460938 "/>
<path style=" stroke:none;fill-rule:nonzero;fill:rgb(100%,40.392157%,11.372549%);fill-opacity:1;" d="M 99.457031 81.695312 L 104.40625 105.75 L 101.214844 123.976562 C 105.980469 123.050781 110.835938 122.261719 115.695312 121.617188 L 115.738281 121.617188 L 123.371094 58.199219 L 112.410156 59.769531 L 108.800781 80.539062 L 104.730469 61.019531 L 91.871094 64.257812 L 73.972656 130.820312 C 79.152344 129.203125 84.378906 127.769531 89.652344 126.472656 Z M 99.457031 81.695312 "/>
<path style=" stroke:none;fill-rule:nonzero;fill:rgb(100%,40.392157%,11.372549%);fill-opacity:1;" d="M 194.558594 103.945312 L 198.398438 98.765625 L 204.042969 103.390625 L 209.222656 126.980469 C 214.636719 128.367188 220 129.894531 225.320312 131.605469 L 215.652344 97.007812 L 205.707031 88.867188 L 211.398438 81.328125 L 206.679688 63.796875 L 194.652344 61.113281 L 199.371094 78.78125 L 191.878906 88.773438 L 186.328125 59.679688 L 175.179688 58.246094 C 175.179688 58.246094 180.777344 100.894531 183.414062 121.894531 C 188.453125 122.585938 193.449219 123.464844 198.398438 124.484375 Z M 194.558594 103.945312 "/>
<path style=" stroke:none;fill-rule:nonzero;fill:rgb(69.411767%,69.411767%,69.411767%);fill-opacity:1;" d="M 126.425781 132.578125 C 126.425781 132.578125 131.050781 129.847656 140.347656 128.832031 L 140.070312 121.523438 C 134.984375 121.707031 129.941406 122.03125 124.898438 122.496094 C 125.363281 125.363281 126.007812 129.617188 126.425781 132.578125 Z M 126.425781 132.578125 "/>
<path style=" stroke:none;fill-rule:nonzero;fill:rgb(69.411767%,69.411767%,69.411767%);fill-opacity:1;" d="M 155.9375 128.414062 C 159.730469 128.878906 163.753906 130.082031 167.269531 131.097656 C 170.460938 131.882812 173.929688 133.226562 176.75 134.519531 L 178.324219 123.28125 C 170.878906 122.355469 163.800781 121.800781 156.167969 121.570312 C 156.074219 123.695312 156.074219 126.796875 155.9375 128.414062 Z M 155.9375 128.414062 "/>
<path style=" stroke:none;fill-rule:nonzero;fill:rgb(69.411767%,69.411767%,69.411767%);fill-opacity:1;" d="M 107.136719 146.222656 C 111.4375 143.03125 114.027344 139.703125 118.609375 136.925781 C 117.730469 132.855469 116.617188 127.535156 115.738281 123.511719 C 110.789062 124.160156 105.886719 124.992188 101.03125 125.917969 C 102.882812 131.976562 105.238281 140.117188 107.136719 146.222656 Z M 107.136719 146.222656 "/>
<path style=" stroke:none;fill-rule:nonzero;fill:rgb(69.411767%,69.411767%,69.411767%);fill-opacity:1;" d="M 180.542969 136.742188 C 184.753906 139.191406 188.039062 141.921875 191.785156 145.578125 L 192.523438 146.132812 L 198.445312 126.519531 C 193.359375 125.453125 188.363281 124.53125 183.136719 123.789062 Z M 180.542969 136.742188 "/>
<path style=" stroke:none;fill-rule:nonzero;fill:rgb(69.411767%,69.411767%,69.411767%);fill-opacity:1;" d="M 199.230469 153.808594 L 213.386719 157.140625 L 225.273438 133.597656 C 219.769531 131.792969 214.496094 130.3125 208.851562 128.925781 Z M 199.230469 153.808594 "/>
<path style=" stroke:none;fill-rule:nonzero;fill:rgb(69.411767%,69.411767%,69.411767%);fill-opacity:1;" d="M 85.441406 157.140625 C 89.144531 155.800781 94.277344 153.902344 99.089844 152.652344 L 89.882812 128.367188 C 84.332031 129.710938 79.476562 131.144531 74.0625 132.855469 C 77.578125 140.949219 81.417969 149.324219 85.441406 157.140625 Z M 85.441406 157.140625 "/>
<path style=" stroke:none;fill-rule:nonzero;fill:rgb(69.411767%,69.411767%,69.411767%);fill-opacity:1;" d="M 64.117188 165.882812 C 64.949219 165.1875 72.953125 161.71875 78.457031 159.40625 C 74.292969 151.867188 69.253906 143.496094 65.089844 135.816406 C 59.121094 137.945312 53.664062 140.164062 47.835938 142.753906 Z M 64.117188 165.882812 "/>
<path style=" stroke:none;fill-rule:nonzero;fill:rgb(69.411767%,69.411767%,69.411767%);fill-opacity:1;" d="M 44.089844 176.476562 C 46.632812 174.949219 49.363281 173.375 52.324219 171.664062 L 33.542969 149.507812 C 29.980469 151.359375 26.464844 153.300781 22.996094 155.335938 Z M 44.089844 176.476562 "/>
<path style=" stroke:none;fill-rule:nonzero;fill:rgb(69.411767%,69.411767%,69.411767%);fill-opacity:1;" d="M 220.878906 160.054688 C 232.167969 164.402344 247.894531 173.238281 254.183594 177.445312 C 257.050781 174.671875 272.734375 158.25 274.90625 155.984375 C 261.863281 148.351562 248.171875 141.828125 233.925781 136.601562 Z M 220.878906 160.054688 "/>
<path style=" stroke:none;fill-rule:nonzero;fill:rgb(69.411767%,69.411767%,69.411767%);fill-opacity:1;" d="M 153.902344 120.597656 L 153.761719 128.046875 L 148.398438 127.859375 L 148.304688 114.769531 Z M 153.902344 120.597656 "/>
<path style=" stroke:none;fill-rule:nonzero;fill:rgb(0%,23.921569%,65.098041%);fill-opacity:1;" d="M 149.597656 125.453125 C 114.628906 125.453125 86.320312 153.808594 86.273438 188.78125 C 86.273438 223.75 114.628906 252.058594 149.597656 252.058594 C 184.570312 252.058594 212.878906 223.703125 212.878906 188.78125 C 212.925781 153.761719 184.570312 125.453125 149.597656 125.453125 Z M 149.597656 125.453125 "/>
<path style=" stroke:none;fill-rule:nonzero;fill:rgb(100%,40.392157%,11.372549%);fill-opacity:1;" d="M 153.484375 130.171875 C 148.628906 131.882812 143.957031 134.335938 139.332031 136.464844 C 136.183594 134.566406 134.335938 134.105469 132.207031 132.71875 C 138.867188 130.3125 146.039062 129.941406 153.484375 130.171875 Z M 153.484375 130.171875 "/>
<path style=" stroke:none;fill-rule:nonzero;fill:rgb(100%,40.392157%,11.372549%);fill-opacity:1;" d="M 139.332031 136.648438 L 139.285156 136.601562 C 137.664062 135.632812 136.417969 135.03125 135.304688 134.519531 C 134.195312 134.011719 133.226562 133.550781 132.160156 132.855469 L 131.882812 132.671875 L 132.160156 132.578125 C 137.0625 130.773438 142.753906 129.941406 149.96875 129.941406 C 151.078125 129.941406 152.234375 129.941406 153.484375 129.988281 L 153.53125 130.265625 C 149.921875 131.515625 146.363281 133.226562 142.9375 134.890625 C 141.78125 135.445312 140.535156 136.046875 139.375 136.601562 Z M 132.578125 132.761719 C 133.503906 133.363281 134.382812 133.78125 135.398438 134.242188 C 136.507812 134.753906 137.757812 135.355469 139.332031 136.324219 C 140.488281 135.769531 141.691406 135.214844 142.847656 134.660156 C 146.039062 133.132812 149.320312 131.5625 152.699219 130.3125 C 151.726562 130.265625 150.847656 130.265625 149.96875 130.265625 C 142.9375 130.265625 137.386719 131.050781 132.578125 132.761719 Z M 132.578125 132.761719 "/>
<path style=" stroke:none;fill-rule:nonzero;fill:rgb(100%,40.392157%,11.372549%);fill-opacity:1;" d="M 198.863281 157.046875 C 183.96875 142.015625 161.578125 143.125 142.613281 137.804688 C 142.613281 137.804688 153.761719 132.484375 159.542969 131.003906 C 175.039062 133.640625 190.027344 142.941406 198.863281 157.046875 Z M 198.863281 157.046875 "/>
<path style=" stroke:none;fill-rule:nonzero;fill:rgb(100%,40.392157%,11.372549%);fill-opacity:1;" d="M 198.722656 157.140625 C 188.128906 146.457031 173.515625 143.910156 159.40625 141.460938 C 153.761719 140.488281 147.933594 139.46875 142.523438 137.945312 L 142.152344 137.851562 L 142.523438 137.667969 C 142.613281 137.621094 153.761719 132.300781 159.5 130.867188 L 159.589844 130.867188 C 175.828125 133.640625 190.535156 143.402344 199.046875 157 Z M 143.03125 137.757812 C 148.351562 139.238281 154.039062 140.210938 159.5 141.183594 C 173.234375 143.585938 187.4375 146.039062 198.03125 156.03125 C 189.519531 143.125 175.226562 133.875 159.542969 131.191406 C 154.410156 132.484375 144.972656 136.832031 143.03125 137.757812 Z M 143.03125 137.757812 "/>
<path style=" stroke:none;fill-rule:nonzero;fill:rgb(100%,40.392157%,11.372549%);fill-opacity:1;" d="M 115 159.3125 C 100.660156 181.285156 98.71875 208.390625 110.144531 232.121094 C 95.386719 219.726562 86.597656 195.765625 93.214844 172.449219 C 98.671875 164.863281 105.609375 158.203125 115 159.3125 Z M 115 159.3125 "/>
<path style=" stroke:none;fill-rule:nonzero;fill:rgb(100%,40.392157%,11.372549%);fill-opacity:1;" d="M 110.050781 232.214844 C 102.601562 225.96875 96.730469 216.765625 93.539062 206.402344 C 90.113281 195.210938 89.929688 183.460938 93.074219 172.40625 L 93.074219 172.359375 C 99.597656 163.246094 105.886719 159.035156 112.917969 159.035156 C 113.613281 159.035156 114.304688 159.082031 115 159.175781 L 115.230469 159.222656 L 115.09375 159.40625 C 100.753906 181.378906 98.949219 208.578125 110.234375 232.074219 Z M 93.351562 172.496094 C 87.292969 193.820312 94 217.96875 109.679688 231.519531 C 98.71875 208.160156 100.566406 181.285156 114.722656 159.40625 C 114.121094 159.359375 113.519531 159.3125 112.917969 159.3125 C 106.027344 159.359375 99.828125 163.523438 93.351562 172.496094 Z M 93.351562 172.496094 "/>
<path style=" stroke:none;fill-rule:nonzero;fill:rgb(100%,40.392157%,11.372549%);fill-opacity:1;" d="M 130.355469 174.949219 C 138.082031 197.890625 139.792969 223.332031 159.777344 246.460938 C 144.1875 249.605469 128.738281 244.933594 116.433594 237.164062 C 101.167969 214.914062 102.601562 181.703125 117.867188 160.101562 C 125.269531 162.226562 129.339844 171.988281 130.355469 174.949219 Z M 130.355469 174.949219 "/>
<path style=" stroke:none;fill-rule:nonzero;fill:rgb(100%,40.392157%,11.372549%);fill-opacity:1;" d="M 149.738281 247.617188 C 135.628906 247.617188 123.789062 242.019531 116.339844 237.300781 L 116.296875 237.253906 C 101.402344 215.46875 102.003906 182.304688 117.730469 160.054688 L 117.773438 159.960938 L 117.867188 160.007812 C 126.007812 162.367188 130.03125 173.699219 130.449219 174.949219 C 132.484375 180.914062 134.058594 186.976562 135.675781 193.3125 C 140.300781 211.027344 145.066406 229.300781 159.820312 246.367188 L 160.007812 246.554688 L 159.730469 246.597656 C 156.539062 247.292969 153.113281 247.617188 149.738281 247.617188 Z M 116.527344 237.070312 C 123.925781 241.742188 135.722656 247.339844 149.738281 247.339844 C 153.023438 247.339844 156.304688 247.015625 159.5 246.414062 C 144.835938 229.347656 140.070312 211.074219 135.445312 193.40625 C 133.78125 187.023438 132.207031 181.007812 130.21875 175.042969 C 129.800781 173.792969 125.824219 162.691406 117.960938 160.285156 C 102.324219 182.441406 101.722656 215.421875 116.527344 237.070312 Z M 116.527344 237.070312 "/>
<path style=" stroke:none;fill-rule:nonzero;fill:rgb(100%,40.392157%,11.372549%);fill-opacity:1;" d="M 119.625 157.695312 C 121.9375 154.410156 124.574219 151.3125 127.488281 148.445312 C 159.914062 157.601562 190.859375 191.230469 196.132812 224.257812 C 194.605469 226.753906 190.90625 230.226562 188.410156 232.722656 C 180.359375 239.984375 171.480469 243.730469 162.96875 245.765625 C 147.839844 230.039062 142.847656 209.6875 137.480469 189.566406 C 133.363281 174.117188 130.542969 162.507812 119.671875 157.789062 Z M 119.625 157.695312 "/>
<path style=" stroke:none;fill-rule:nonzero;fill:rgb(100%,40.392157%,11.372549%);fill-opacity:1;" d="M 162.875 245.90625 L 162.828125 245.859375 C 148.210938 230.6875 142.984375 210.9375 137.898438 191.785156 L 137.019531 188.410156 C 132.992188 173.328125 130.125 162.414062 119.578125 157.878906 L 119.488281 157.878906 L 119.441406 157.648438 L 119.488281 157.601562 C 121.847656 154.273438 124.484375 151.171875 127.398438 148.351562 L 127.441406 148.304688 L 127.535156 148.351562 C 143.308594 152.792969 159.128906 163.105469 172.125 177.355469 C 185.171875 191.695312 193.773438 208.34375 196.316406 224.304688 L 196.316406 224.351562 L 196.273438 224.398438 C 194.976562 226.523438 192.0625 229.347656 189.75 231.660156 L 188.5 232.90625 C 181.378906 239.289062 173.050781 243.59375 162.96875 246 Z M 119.8125 157.695312 C 130.402344 162.367188 133.316406 173.285156 137.296875 188.410156 L 138.175781 191.738281 C 143.214844 210.796875 148.441406 230.503906 162.96875 245.582031 C 172.957031 243.175781 181.238281 238.921875 188.269531 232.582031 L 189.519531 231.335938 C 191.832031 229.070312 194.652344 226.292969 195.949219 224.164062 C 190.722656 191.648438 160.054688 157.789062 127.488281 148.535156 C 124.714844 151.359375 122.125 154.410156 119.8125 157.695312 Z M 119.8125 157.695312 "/>
<path style=" stroke:none;fill-rule:nonzero;fill:rgb(100%,40.392157%,11.372549%);fill-opacity:1;" d="M 195.394531 157.554688 C 179.710938 143.726562 157.925781 145.484375 139.609375 139.054688 C 136.046875 141.226562 132.625 143.773438 129.664062 146.410156 C 162.089844 156.585938 191.507812 188.269531 198.539062 221.066406 C 203.625 213.710938 206.679688 205.199219 207.929688 196.132812 C 208.714844 182.257812 208.574219 169.628906 195.394531 157.554688 Z M 195.394531 157.554688 "/>
<path style=" stroke:none;fill-rule:nonzero;fill:rgb(100%,40.392157%,11.372549%);fill-opacity:1;" d="M 198.445312 221.4375 L 198.351562 221.113281 C 191.414062 188.734375 161.855469 156.679688 129.570312 146.59375 L 129.292969 146.5 L 129.476562 146.316406 C 132.4375 143.679688 135.863281 141.136719 139.46875 138.914062 L 139.515625 138.871094 L 139.5625 138.871094 C 145.898438 141.089844 152.746094 142.382812 159.40625 143.585938 C 172.035156 145.898438 185.125 148.304688 195.394531 157.371094 C 208.390625 169.304688 208.808594 181.472656 207.972656 196.085938 C 206.679688 205.523438 203.535156 213.894531 198.539062 221.066406 Z M 129.941406 146.363281 C 145.574219 151.3125 161.117188 161.535156 173.699219 175.179688 C 186.28125 188.824219 195.117188 204.96875 198.539062 220.695312 C 203.347656 213.617188 206.449219 205.386719 207.695312 196.132812 C 208.53125 181.5625 208.160156 169.492188 195.207031 157.648438 C 184.984375 148.628906 171.988281 146.222656 159.359375 143.910156 C 152.746094 142.707031 145.851562 141.414062 139.515625 139.191406 C 136.183594 141.320312 132.855469 143.820312 129.941406 146.363281 Z M 129.941406 146.363281 "/>
<path style=" stroke:none;fill-rule:nonzero;fill:rgb(100%,40.392157%,11.372549%);fill-opacity:1;" d="M 124.804688 147.425781 C 121.660156 150.433594 119.347656 153.394531 116.894531 156.863281 L 116.851562 156.816406 C 108.246094 154.875 101.492188 159.359375 96.035156 164.863281 C 98.625 158.296875 104.082031 150.527344 109.820312 145.4375 C 115.140625 145.714844 119.023438 145.621094 124.804688 147.425781 "/>
<path style=" stroke:none;fill-rule:nonzero;fill:rgb(100%,40.392157%,11.372549%);fill-opacity:1;" d="M 96.128906 165.003906 L 95.894531 164.863281 C 98.53125 158.203125 104.082031 150.339844 109.726562 145.390625 L 109.773438 145.34375 L 109.820312 145.34375 C 110.46875 145.390625 111.113281 145.390625 111.714844 145.4375 C 116.203125 145.621094 119.71875 145.714844 124.851562 147.335938 L 125.082031 147.425781 L 124.898438 147.613281 C 122.125 150.292969 119.855469 152.976562 116.988281 157 L 116.941406 157.09375 L 116.757812 157.046875 C 115.417969 156.769531 114.074219 156.585938 112.78125 156.585938 C 107.136719 156.539062 101.816406 159.222656 96.128906 165.003906 Z M 109.910156 145.621094 C 104.546875 150.386719 99.226562 157.789062 96.496094 164.21875 C 102.046875 158.757812 107.230469 156.214844 112.824219 156.214844 C 114.167969 156.214844 115.507812 156.355469 116.851562 156.679688 C 119.625 152.792969 121.847656 150.109375 124.527344 147.519531 C 119.578125 145.992188 116.109375 145.898438 111.761719 145.714844 C 111.160156 145.667969 110.511719 145.667969 109.910156 145.621094 Z M 109.910156 145.621094 "/>
<path style=" stroke:none;fill-rule:nonzero;fill:rgb(100%,40.392157%,11.372549%);fill-opacity:1;" d="M 127.117188 145.4375 C 130.171875 142.707031 133.179688 140.304688 136.832031 138.128906 L 128.507812 134.011719 C 122.957031 136.277344 117.035156 139.238281 112.964844 142.941406 C 119.300781 143.632812 121.984375 144.003906 127.117188 145.4375 Z M 127.117188 145.4375 "/>
<path style=" stroke:none;fill-rule:nonzero;fill:rgb(100%,40.392157%,11.372549%);fill-opacity:1;" d="M 127.164062 145.578125 L 127.074219 145.578125 C 121.9375 144.1875 119.300781 143.773438 112.964844 143.078125 L 112.640625 143.03125 L 112.871094 142.800781 C 116.296875 139.65625 121.429688 136.695312 128.460938 133.828125 L 128.507812 133.78125 L 128.554688 133.828125 L 137.109375 138.082031 L 136.878906 138.222656 C 132.855469 140.625 129.710938 143.261719 127.164062 145.53125 Z M 113.382812 142.800781 C 119.441406 143.496094 122.078125 143.910156 127.117188 145.253906 C 129.617188 143.03125 132.667969 140.441406 136.554688 138.082031 L 128.554688 134.105469 C 121.753906 136.925781 116.757812 139.75 113.382812 142.800781 Z M 113.382812 142.800781 "/>
<path style=" stroke:none;fill-rule:nonzero;fill:rgb(0%,23.921569%,65.098041%);fill-opacity:1;" d="M 140.625 47.835938 L 138.082031 50.382812 L 133.6875 50.660156 L 132.070312 49.226562 L 129.988281 50.984375 L 125.222656 51.445312 L 123.140625 49.457031 L 125.917969 30.769531 L 129.523438 30.261719 L 127.582031 46.773438 L 130.171875 46.496094 L 132.207031 29.9375 L 135.769531 29.566406 L 134.289062 45.988281 L 136.832031 45.753906 L 138.128906 29.382812 C 139.65625 29.195312 140.441406 29.242188 141.78125 29.148438 Z M 140.625 47.835938 "/>
<path style=" stroke:none;fill-rule:nonzero;fill:rgb(0%,23.921569%,65.098041%);fill-opacity:1;" d="M 152.375 28.917969 L 152.421875 40.667969 L 154.734375 40.667969 L 154.550781 28.964844 C 154.550781 28.964844 156.953125 29.058594 158.0625 29.148438 L 158.527344 42.332031 L 156.304688 44.554688 L 155.566406 44.597656 L 155.660156 50.242188 L 151.726562 50.105469 L 151.679688 44.460938 L 150.894531 44.414062 L 148.535156 41.960938 L 148.675781 28.824219 C 149.96875 28.871094 152.375 28.917969 152.375 28.917969 Z M 152.375 28.917969 "/>
<path style=" stroke:none;fill-rule:nonzero;fill:rgb(0%,23.921569%,65.098041%);fill-opacity:1;" d="M 123.234375 31.09375 L 122.632812 34.976562 L 118.238281 35.8125 L 117.453125 40.34375 C 119.070312 40.066406 120.042969 39.882812 121.9375 39.648438 C 121.660156 41.316406 121.613281 41.917969 121.289062 43.488281 L 116.894531 44.136719 L 116.0625 48.484375 L 120.550781 47.835938 C 120.550781 47.835938 120.089844 50.75 119.855469 52.046875 C 116.710938 52.417969 113.519531 52.878906 110.511719 53.433594 C 110.511719 53.433594 113.890625 37.753906 114.722656 32.898438 Z M 123.234375 31.09375 "/>
<path style=" stroke:none;fill-rule:nonzero;fill:rgb(0%,23.921569%,65.098041%);fill-opacity:1;" d="M 106.765625 54.035156 L 102.1875 54.914062 L 104.269531 46.355469 L 102.835938 43.304688 L 99.226562 55.609375 L 94.785156 56.625 C 96.636719 49.964844 98.53125 43.304688 100.382812 36.644531 C 101.910156 36.132812 103.066406 35.765625 104.40625 35.394531 C 104.917969 36.503906 106.117188 38.769531 106.117188 38.769531 L 107.183594 34.609375 C 107.183594 34.609375 110.003906 33.867188 111.4375 33.542969 Z M 106.765625 54.035156 "/>
<path style=" stroke:none;fill-rule:nonzero;fill:rgb(0%,23.921569%,65.098041%);fill-opacity:1;" d="M 170.878906 32.574219 C 171.339844 37.9375 172.21875 43.074219 172.773438 48.070312 L 170.785156 51.121094 L 164.355469 50.707031 L 162.042969 48.160156 C 161.625 42.703125 161.347656 37.199219 161.023438 31.695312 C 161.625 30.90625 162.503906 30.304688 163.246094 29.519531 L 168.609375 30.027344 Z M 164.863281 33.453125 L 166.019531 46.21875 L 168.285156 46.402344 L 167.085938 33.683594 Z M 164.863281 33.453125 "/>
<path style=" stroke:none;fill-rule:nonzero;fill:rgb(0%,23.921569%,65.098041%);fill-opacity:1;" d="M 191.691406 34.46875 C 192.480469 37.523438 194.050781 43.859375 194.050781 43.859375 L 195.578125 44.183594 L 196.316406 43.164062 L 194.421875 35.300781 C 194.421875 35.300781 196.316406 35.8125 198.351562 36.457031 L 200.386719 44.089844 L 199.417969 45.476562 L 201.175781 47.421875 L 203.859375 56.671875 L 199.464844 55.699219 L 197.753906 49.179688 L 195.023438 48.578125 L 196.503906 55.054688 L 192.015625 54.175781 C 190.445312 47.191406 187.621094 33.453125 187.621094 33.453125 C 187.621094 33.453125 189.933594 33.914062 191.691406 34.46875 Z M 191.691406 34.46875 "/>
<path style=" stroke:none;fill-rule:nonzero;fill:rgb(0%,23.921569%,65.098041%);fill-opacity:1;" d="M 184.753906 35.210938 L 186.234375 42.839844 L 185.402344 44 L 186.882812 45.800781 L 188.175781 53.386719 L 183.875 52.648438 L 182.71875 46.3125 L 180.128906 46.035156 L 181.054688 52.183594 L 176.75 51.628906 L 173.882812 30.628906 L 182.070312 32.0625 Z M 178.554688 35.488281 L 179.34375 40.804688 L 181.746094 41.085938 L 180.730469 35.855469 Z M 178.554688 35.488281 "/>
</g>
</svg>
