<?xml version="1.0" encoding="UTF-8"?>
<svg xmlns="http://www.w3.org/2000/svg" xmlns:xlink="http://www.w3.org/1999/xlink" width="300px" height="300px" viewBox="0 0 300 300" version="1.1">
<g id="surface1">
<path style=" stroke:none;fill-rule:nonzero;fill:rgb(100%,100%,100%);fill-opacity:1;" d="M 149.199219 298.472656 L 129.476562 266.929688 C 104.382812 256.730469 86.917969 228.800781 85.300781 196.308594 L 71.628906 179.992188 C 59.992188 186.167969 49.777344 192.703125 49.777344 192.703125 L 13.085938 147.347656 L 28.550781 105.59375 L 0.894531 61.359375 L 44.894531 61.359375 L 53.414062 38.515625 L 75.199219 27.6875 L 77.617188 19.59375 L 95.273438 29.527344 L 99.472656 11.457031 L 102.351562 10.273438 C 116.320312 4.546875 132.414062 1.460938 148.890625 1.347656 C 149.363281 1.308594 154.601562 1.421875 154.722656 1.421875 C 155.335938 1.421875 157.910156 1.59375 157.910156 1.59375 C 171.847656 2.421875 184.941406 5.277344 196.828125 10.085938 L 199.75 11.273438 L 203.617188 28.503906 L 209.972656 22.59375 L 245.664062 38.21875 L 254.273438 61.367188 L 298.496094 61.367188 L 270.542969 105.78125 L 285.773438 146.9375 L 248.503906 194.195312 C 248.503906 194.195312 234.980469 183.757812 225.617188 179.179688 L 214.242188 195.183594 C 212.957031 228.449219 194.578125 257.625 168.746094 267.421875 Z M 149.199219 298.472656 "/>
<path style=" stroke:none;fill-rule:nonzero;fill:rgb(11.372549%,25.882354%,54.11765%);fill-opacity:1;" d="M 148.898438 8.28125 L 148.757812 23.316406 L 150.96875 26.097656 L 151.703125 26.164062 L 151.742188 32.644531 L 155.394531 32.773438 L 155.296875 26.308594 L 155.980469 26.261719 L 158.046875 23.722656 L 157.605469 8.601562 C 156.597656 8.496094 154.34375 8.40625 154.34375 8.40625 L 154.472656 21.804688 L 152.332031 21.824219 L 152.296875 8.347656 C 152.296875 8.347656 150.082031 8.28125 148.898438 8.28125 Z M 142.382812 8.632812 C 141.148438 8.726562 140.414062 8.699219 139 8.890625 L 137.792969 27.628906 L 135.429688 27.890625 L 136.808594 9.074219 L 133.492188 9.472656 L 131.613281 28.429688 L 129.207031 28.757812 L 131.019531 9.839844 L 127.65625 10.40625 L 125.09375 31.832031 L 127.042969 34.121094 L 131.492188 33.613281 L 133.410156 31.601562 L 134.921875 33.226562 L 139.007812 32.925781 L 141.390625 30.007812 Z M 162.339844 9 C 161.679688 9.878906 160.835938 10.578125 160.289062 11.46875 C 160.601562 17.761719 160.863281 24.078125 161.246094 30.332031 L 163.410156 33.230469 L 169.402344 33.730469 L 171.257812 30.242188 C 170.753906 24.515625 169.929688 18.636719 169.507812 12.5 L 167.335938 9.601562 Z M 172.3125 10.386719 L 174.960938 34.429688 L 178.945312 35.039062 L 178.09375 27.976562 L 180.492188 28.304688 L 181.582031 35.546875 L 185.578125 36.398438 L 184.367188 27.707031 L 182.96875 25.652344 L 183.761719 24.296875 L 182.390625 15.550781 L 179.925781 12.042969 Z M 125.207031 10.847656 L 117.367188 12.808594 C 116.585938 18.355469 113.4375 36.320312 113.4375 36.320312 C 116.25 35.71875 119.195312 35.199219 122.125 34.757812 C 122.335938 33.265625 122.75 29.925781 122.75 29.925781 L 118.5625 30.679688 L 119.332031 25.726562 L 123.414062 25.007812 C 123.6875 23.179688 123.761719 22.523438 124.011719 20.597656 C 122.234375 20.886719 121.324219 21.0625 119.832031 21.394531 L 120.570312 16.21875 L 124.632812 15.277344 L 125.207031 10.84375 Z M 185.109375 13.488281 C 185.109375 13.488281 187.730469 29.222656 189.179688 37.210938 L 193.335938 38.210938 L 191.941406 30.796875 L 194.496094 31.503906 L 196.097656 38.949219 L 200.199219 40.082031 L 197.707031 29.460938 L 196.066406 27.238281 L 196.953125 25.667969 L 195.0625 16.945312 C 193.183594 16.246094 191.421875 15.636719 191.421875 15.636719 L 193.195312 24.640625 L 192.511719 25.804688 L 191.085938 25.453125 C 191.085938 25.449219 189.625 18.210938 188.882812 14.691406 C 187.214844 14.03125 185.109375 13.488281 185.109375 13.488281 Z M 163.925781 13.535156 L 165.96875 13.816406 L 167.089844 28.371094 L 164.988281 28.167969 Z M 114.273438 13.621094 C 112.953125 13.984375 110.332031 14.84375 110.332031 14.84375 L 109.328125 19.628906 C 109.328125 19.628906 108.210938 17.03125 107.75 15.738281 C 106.492188 16.203125 105.429688 16.601562 104.007812 17.191406 C 102.28125 24.828125 100.515625 32.464844 98.789062 40.09375 L 102.933594 38.929688 L 106.265625 24.835938 L 107.582031 28.351562 L 105.636719 38.144531 L 109.878906 37.117188 Z M 176.632812 15.851562 L 178.648438 16.308594 L 179.59375 22.269531 L 177.339844 21.949219 Z M 12.472656 68.382812 L 149.199219 286.945312 L 286.84375 68.390625 L 12.476562 68.382812 Z M 12.472656 68.382812 "/>
<path style=" stroke:none;fill-rule:nonzero;fill:rgb(61.960787%,63.529414%,63.529414%);fill-opacity:1;" d="M 276.351562 74.707031 L 149.214844 276.582031 L 22.921875 74.703125 Z M 276.351562 74.707031 "/>
<path style=" stroke:none;fill-rule:nonzero;fill:rgb(11.372549%,25.882354%,54.11765%);fill-opacity:1;" d="M 258.019531 88.777344 L 257.976562 88.644531 L 257.882812 88.570312 L 249.742188 81.835938 L 252.773438 74.707031 L 252.863281 74.488281 L 252.785156 74.261719 L 241.585938 44.042969 L 241.511719 43.859375 L 241.355469 43.789062 L 211.171875 30.550781 L 210.964844 30.457031 L 210.785156 30.625 L 202.78125 38.144531 L 202.699219 38.226562 L 202.65625 38.351562 L 201.285156 42.488281 C 201.285156 42.488281 188.773438 38.621094 170.394531 36.359375 C 168.523438 36.128906 163.523438 35.621094 155.539062 34.847656 L 154.761719 34.769531 L 153.957031 34.695312 L 153.769531 34.679688 L 153.636719 34.84375 L 147.671875 42.160156 L 147.679688 34.644531 C 147.679688 34.644531 130.761719 35.820312 119.683594 37.675781 C 108.605469 39.535156 97.707031 42.914062 97.707031 42.914062 L 95.703125 37.628906 L 95.640625 37.460938 L 95.507812 37.382812 L 81.265625 29.355469 L 80.863281 29.132812 L 80.714844 29.640625 L 79.054688 35.195312 L 78.679688 34.078125 L 78.523438 33.625 L 78.148438 33.8125 L 57.769531 43.871094 L 57.621094 43.949219 L 57.546875 44.136719 L 19.953125 145.851562 L 50.820312 183.921875 L 52.261719 182.917969 C 53.1875 182.261719 54.503906 181.300781 55.996094 180.226562 C 59.730469 177.515625 64.84375 173.808594 67.285156 172.355469 L 67.785156 172.0625 C 70.945312 170.179688 72.53125 169.230469 87.535156 161.324219 L 88.789062 160.746094 C 88.804688 160.742188 90.472656 159.941406 93.566406 158.679688 C 101.804688 155.304688 123.207031 147.460938 143.953125 147.460938 L 144.1875 147.460938 C 145.015625 147.460938 145.839844 147.476562 146.667969 147.507812 C 160.757812 147.984375 177.226562 151.675781 188.558594 154.675781 C 199.464844 157.574219 207.671875 160.355469 210.003906 161.164062 L 211.570312 161.757812 C 221.886719 166.667969 234.507812 174.78125 246.191406 183.996094 L 247.679688 185.175781 L 278.925781 145.546875 Z M 258.019531 88.777344 "/>
<path style=" stroke:none;fill-rule:nonzero;fill:rgb(61.960787%,63.529414%,63.529414%);fill-opacity:1;" d="M 148.5 106.664062 L 148.589844 121.632812 L 153.589844 121.851562 L 153.703125 113.320312 Z M 155.84375 114.394531 C 155.742188 116.898438 155.742188 120.421875 155.605469 122.273438 C 159.109375 122.777344 162.863281 124.195312 166.164062 125.335938 C 169.148438 126.222656 172.359375 127.800781 174.988281 129.242188 L 176.433594 116.355469 C 169.5 115.304688 162.941406 114.664062 155.84375 114.394531 Z M 140.847656 114.414062 C 136.117188 114.609375 131.421875 114.972656 126.757812 115.519531 C 127.164062 118.785156 127.769531 123.667969 128.1875 127.070312 C 128.1875 127.070312 132.496094 123.960938 141.125 122.78125 Z M 118.21875 116.695312 C 113.617188 117.445312 109.058594 118.378906 104.542969 119.457031 C 106.273438 126.390625 108.476562 135.691406 110.207031 142.695312 C 114.222656 139.011719 116.636719 135.230469 120.863281 132.0625 C 120.0625 127.378906 118.996094 121.320312 118.21875 116.695312 Z M 180.945312 117.03125 L 178.484375 131.832031 C 182.402344 134.625 185.457031 137.785156 188.957031 141.976562 L 189.644531 142.625 L 195.164062 120.140625 C 190.410156 118.929688 185.792969 117.871094 180.945312 117.03125 Z M 94.238281 122.214844 C 89.074219 123.75 84.582031 125.367188 79.546875 127.324219 C 82.730469 136.640625 86.292969 146.242188 90.074219 155.179688 C 93.507812 153.621094 98.300781 151.496094 102.777344 150.023438 Z M 204.863281 122.878906 L 195.898438 151.371094 L 209.050781 155.179688 L 220.117188 128.234375 C 215.015625 126.183594 210.09375 124.492188 204.863281 122.878906 Z M 71.121094 130.738281 C 65.550781 133.191406 60.480469 135.726562 55.09375 138.675781 L 70.234375 165.191406 C 70.992188 164.386719 78.460938 160.417969 83.570312 157.757812 C 79.6875 149.097656 75.015625 139.550781 71.121094 130.738281 Z M 228.140625 131.667969 L 216.015625 158.519531 C 226.492188 163.527344 241.144531 173.636719 246.972656 178.457031 C 249.660156 175.289062 264.238281 156.445312 266.238281 153.859375 C 254.121094 145.101562 241.386719 137.65625 228.140625 131.667969 Z M 41.824219 146.472656 C 38.503906 148.589844 35.230469 150.8125 32 153.125 L 51.609375 177.355469 C 53.988281 175.597656 56.507812 173.804688 59.277344 171.828125 Z M 41.824219 146.472656 "/>
<path style=" stroke:none;fill-rule:nonzero;fill:rgb(11.372549%,25.882354%,54.11765%);fill-opacity:1;" d="M 149.742188 118.890625 C 117.226562 118.894531 90.871094 151.355469 90.871094 191.402344 C 90.871094 231.4375 117.226562 263.894531 149.742188 263.894531 C 182.257812 263.894531 208.617188 231.4375 208.617188 191.402344 C 208.617188 151.355469 182.257812 118.894531 149.742188 118.890625 "/>
<path style=" stroke:none;fill-rule:nonzero;fill:rgb(96.078432%,51.764709%,14.901961%);fill-opacity:1;" d="M 83.1875 36.222656 L 74.929688 65.148438 L 61.691406 79.183594 L 73.753906 41.683594 L 60.789062 48.054688 L 25.050781 144.621094 L 30.640625 151.523438 C 33.957031 149.140625 37.320312 146.855469 40.730469 144.671875 L 52.121094 109.027344 L 62.121094 98.019531 L 64.515625 101.449219 L 54.636719 136.4375 C 60.035156 133.507812 65.535156 130.824219 71.117188 128.390625 L 78.28125 99.539062 L 72.101562 86.972656 L 84.894531 71.996094 L 92.378906 41.304688 L 83.183594 36.222656 Z M 211.652344 36.378906 L 206.753906 41.039062 L 215.625 76.539062 L 244.179688 101.386719 L 251.496094 123.851562 L 239.621094 117.253906 L 235.546875 103.269531 L 220.984375 97.992188 L 228.773438 129.582031 C 231.171875 130.671875 233.554688 131.796875 235.917969 132.980469 C 242.402344 136.207031 248.75 139.785156 254.957031 143.699219 C 259.257812 146.40625 263.484375 149.28125 267.640625 152.304688 L 273.847656 144.464844 L 254.632812 92.296875 L 224.613281 67.617188 L 219.390625 49.554688 L 228.683594 53.625 L 232.445312 64.914062 L 246.578125 70.496094 L 238.332031 48.050781 L 211.652344 36.382812 Z M 155.46875 40.136719 L 148.980469 48.113281 L 148.957031 103.585938 L 155.769531 112.171875 C 162.796875 112.4375 169.75 113.085938 176.621094 114.109375 L 175.210938 98.277344 L 162.488281 97.351562 L 160.441406 52.984375 L 171.226562 53.632812 L 169.964844 41.414062 Z M 142.695312 40.167969 L 131.730469 40.875 L 126.582031 113.316406 C 131.238281 112.769531 135.933594 112.398438 140.660156 112.203125 Z M 125.292969 41.832031 L 115.113281 43.65625 L 111.773438 67.445312 L 107.992188 45.058594 L 96.027344 48.75 L 79.371094 125.011719 C 84.175781 123.164062 89.03125 121.503906 93.949219 120.035156 L 103.097656 68.757812 L 107.695312 96.296875 L 104.722656 117.164062 C 109.167969 116.113281 113.652344 115.210938 118.183594 114.472656 L 118.210938 114.46875 Z M 173.558594 41.941406 C 173.558594 41.941406 178.757812 90.78125 181.207031 114.839844 C 185.894531 115.65625 190.539062 116.65625 195.144531 117.816406 L 191.550781 94.273438 L 195.132812 88.320312 L 200.367188 93.621094 L 205.179688 120.632812 C 210.234375 122.195312 215.226562 123.960938 220.152344 125.925781 L 211.171875 86.308594 L 201.910156 76.984375 L 207.179688 68.320312 L 202.796875 48.210938 L 191.621094 45.152344 L 196.015625 65.394531 L 189.054688 76.851562 L 183.90625 43.558594 L 173.554688 41.941406 Z M 148.203125 124.273438 C 143.109375 124.414062 138.195312 125.171875 133.554688 127.253906 C 135.542969 128.832031 137.226562 129.382812 140.167969 131.550781 C 144.480469 129.085938 148.832031 126.253906 153.351562 124.3125 C 151.617188 124.25 149.902344 124.230469 148.203125 124.273438 Z M 158.941406 125.261719 C 153.582031 126.949219 143.191406 133.042969 143.191406 133.042969 C 160.847656 139.128906 181.648438 137.886719 195.523438 155.097656 C 187.328125 138.921875 173.371094 128.292969 158.941406 125.261719 Z M 130.132812 128.652344 C 124.984375 131.242188 119.476562 134.617188 115.695312 138.886719 C 121.542969 139.726562 124.046875 140.171875 128.820312 141.773438 C 131.671875 138.648438 134.433594 135.910156 137.867188 133.378906 Z M 140.425781 134.476562 C 137.132812 136.960938 133.921875 139.886719 131.179688 142.925781 C 161.335938 154.566406 188.703125 190.886719 195.222656 228.421875 C 199.957031 220.007812 202.808594 210.242188 203.964844 199.882812 C 204.699219 183.964844 204.570312 169.476562 192.316406 155.65625 C 177.75 139.828125 157.453125 141.855469 140.425781 134.480469 Z M 112.746094 141.832031 C 107.386719 147.652344 102.328125 156.558594 99.914062 164.0625 C 104.96875 157.730469 111.265625 152.640625 119.253906 154.839844 L 119.320312 154.867188 C 121.59375 150.914062 123.765625 147.523438 126.679688 144.078125 C 121.269531 142 117.683594 142.097656 112.746094 141.832031 Z M 129.164062 145.242188 C 126.429688 148.53125 124 152.078125 121.84375 155.816406 L 121.851562 155.914062 C 131.964844 161.320312 134.621094 174.648438 138.4375 192.316406 C 143.410156 215.339844 148.050781 238.707031 162.136719 256.695312 C 170.058594 254.371094 178.316406 250.066406 185.8125 241.765625 C 188.125 238.917969 191.578125 234.941406 193.011719 232.082031 C 188.089844 194.238281 159.328125 155.722656 129.164062 145.242188 Z M 115.933594 157.550781 C 108.011719 157.363281 102.023438 164.605469 97.292969 172.730469 C 91.140625 199.410156 99.316406 226.886719 113.027344 241.066406 C 102.417969 213.886719 104.214844 182.871094 117.542969 157.683594 C 117 157.605469 116.460938 157.558594 115.933594 157.546875 Z M 120.199219 158.597656 C 106.011719 183.316406 104.675781 221.351562 118.863281 246.851562 C 130.320312 255.78125 144.6875 261.136719 159.183594 257.511719 C 140.582031 231.027344 138.992188 201.914062 131.8125 175.617188 C 130.871094 172.183594 127.113281 161.042969 120.203125 158.597656 Z M 120.199219 158.597656 "/>
</g>
</svg>
