<?xml version="1.0" encoding="UTF-8"?>
<svg xmlns="http://www.w3.org/2000/svg" xmlns:xlink="http://www.w3.org/1999/xlink" width="300px" height="300px" viewBox="0 0 300 300" version="1.1">
<g id="surface1">
<path style=" stroke:none;fill-rule:nonzero;fill:rgb(0%,17.647059%,38.431373%);fill-opacity:1;" d="M 48.535156 125.921875 L 56.988281 121.480469 L 21.132812 41.390625 L 29.585938 36.792969 L 25.507812 27.753906 L 0 41.234375 L 4.082031 50.433594 L 12.535156 45.832031 Z M 67.335938 115.929688 L 76.371094 112.757812 L 63.691406 70.414062 L 72.730469 67.242188 L 85.410156 109.585938 L 94.445312 106.414062 L 66.316406 11.894531 L 57.28125 15.066406 L 69.960938 57.410156 L 60.921875 60.582031 L 48.097656 18.238281 L 39.0625 21.410156 Z M 114.851562 1.902344 L 105.523438 3.488281 L 118.347656 91.347656 L 109.019531 92.933594 L 96.195312 5.074219 L 86.867188 6.660156 L 99.109375 90.238281 C 100.316406 98.644531 107.558594 104.398438 115.289062 103.082031 C 123.015625 101.769531 128.300781 93.886719 127.09375 85.480469 Z M 134.816406 99.277344 L 144.292969 99.4375 L 144.730469 70.730469 C 145.019531 62.007812 144.4375 44.246094 144 36 L 144.292969 36 C 146.769531 58.203125 151.289062 78.820312 154.203125 99.753906 L 163.238281 99.910156 L 164.84375 0.632812 L 155.367188 0.316406 L 154.929688 29.179688 C 154.640625 37.902344 155.222656 55.507812 155.660156 63.910156 L 155.367188 63.910156 C 152.890625 41.710938 148.371094 21.09375 145.457031 0.160156 L 136.421875 0 Z M 170.234375 99.910156 L 188.890625 103.082031 C 191.347656 103.546875 193.871094 102.917969 195.898438 101.335938 C 197.925781 99.757812 199.289062 97.359375 199.675781 94.679688 L 211.042969 16.96875 C 211.808594 11.339844 208.324219 6.070312 203.175781 5.074219 L 184.371094 1.902344 Z M 192.386719 13.796875 L 201.714844 15.382812 L 190.347656 93.09375 L 181.019531 91.507812 Z M 258.851562 21.726562 L 240.921875 15.382812 C 238.527344 14.464844 235.890625 14.660156 233.632812 15.921875 C 231.371094 17.179688 229.6875 19.394531 228.972656 22.042969 L 206.671875 96.738281 C 205.828125 99.347656 206.007812 102.214844 207.164062 104.671875 C 208.324219 107.132812 210.359375 108.964844 212.792969 109.746094 L 230.71875 116.089844 L 233.636719 106.253906 L 215.5625 99.910156 L 225.328125 67.402344 L 238.738281 72.160156 L 241.652344 62.484375 L 228.242188 57.726562 L 238.007812 25.214844 L 255.933594 31.558594 Z M 234.800781 118.148438 L 274.882812 28.703125 L 291.933594 37.746094 C 294.222656 38.914062 295.976562 41.039062 296.800781 43.636719 C 297.625 46.238281 297.445312 49.089844 296.308594 51.542969 L 281.585938 84.527344 C 279.691406 88.8125 276.339844 90.554688 272.695312 88.652344 L 262.492188 132.738281 L 254.039062 128.300781 L 264.097656 83.894531 L 261.328125 82.46875 L 243.402344 122.589844 Z M 279.253906 42.660156 L 265.410156 73.425781 L 274.007812 78.027344 L 287.855469 47.101562 Z M 279.253906 42.660156 "/>
<path style=" stroke:none;fill-rule:nonzero;fill:rgb(0%,47.843137%,75.686276%);fill-opacity:1;" d="M 16.761719 300.210938 C 35.144531 282.5625 54.839844 266.59375 75.644531 252.476562 C 79.726562 250.253906 83.804688 248.035156 87.886719 245.816406 C 89.488281 245.023438 92.84375 243.277344 96.921875 241.058594 C 99.839844 244.546875 102.605469 247.875 105.667969 251.046875 C 74.625 266.75 44.890625 283.242188 16.761719 300.210938 Z M 238.152344 179.839844 C 258.367188 174.917969 278.871094 171.523438 299.515625 169.691406 C 277.507812 176.988281 255.0625 185.074219 232.46875 194.113281 C 234.511719 189.515625 236.257812 184.757812 238.152344 179.839844 Z M 238.152344 179.839844 "/>
<path style=" stroke:none;fill-rule:nonzero;fill:rgb(94.117647%,31.764707%,20%);fill-opacity:1;" d="M 1.457031 233.445312 C 22.863281 218.832031 45.335938 206.152344 68.648438 195.542969 C 69.375 197.285156 70.25 199.03125 71.125 200.773438 C 69.8125 203.628906 68.503906 206.644531 67.191406 209.496094 C 44.597656 217.109375 22.589844 225.039062 1.457031 233.445312 Z M 246.753906 151.769531 C 264.292969 150.996094 281.855469 151.257812 299.367188 152.5625 C 281.148438 155.417969 262.640625 158.589844 243.839844 162.394531 C 244.859375 158.90625 245.878906 155.417969 246.753906 151.769531 Z M 246.753906 151.769531 "/>
<path style=" stroke:none;fill-rule:nonzero;fill:rgb(100%,100%,100%);fill-opacity:1;" d="M 150.414062 120.210938 C 184.664062 120.210938 211.480469 128.933594 241.941406 145.425781 C 227.078125 206.167969 199.820312 247.242188 150.414062 280.386719 C 131.902344 267.859375 116.015625 253.902344 102.898438 238.042969 C 108.730469 235.03125 115.289062 231.542969 121.117188 228.6875 C 123.59375 228.847656 125.78125 229.003906 127.96875 229.003906 C 127.980469 231.960938 126.933594 234.804688 125.050781 236.933594 C 126.074219 238.203125 126.949219 239.3125 127.96875 240.421875 C 130.589844 237.886719 132.195312 234.238281 132.339844 229.003906 C 138.125 229 143.890625 228.308594 149.539062 226.941406 C 149.394531 236.617188 148.082031 243.59375 145.601562 246.449219 C 144.914062 247.234375 144.332031 247.820312 143.707031 248.351562 C 146.1875 247.875 148.664062 247.242188 150.851562 246.609375 C 153.910156 239.789062 153.910156 227.894531 153.910156 225.832031 C 159.59375 224.246094 164.550781 222.660156 169.070312 221.074219 C 169.214844 226.625 171.402344 231.859375 175.335938 233.921875 C 177.085938 232.492188 178.6875 231.066406 180.4375 229.640625 C 179.417969 229.796875 173.296875 230.273438 173.441406 219.488281 C 186.558594 213.9375 195.15625 207.59375 202.738281 197.761719 C 204.746094 192.8125 206.308594 187.660156 207.402344 182.378906 C 198.363281 197.921875 190.203125 206.960938 173.878906 214.097656 C 174.476562 210.273438 175.355469 206.507812 176.503906 202.835938 C 181.3125 200.617188 186.265625 198.078125 189.183594 196.652344 L 196.324219 188.5625 C 198.21875 181.109375 199.820312 173.65625 201.570312 166.042969 L 196.03125 167.945312 L 202.589844 160.492188 C 204.046875 154.625 205.359375 148.757812 206.671875 142.890625 C 203.464844 143.367188 200.113281 144 196.90625 144.476562 C 197.488281 141.460938 197.78125 138.609375 198.074219 135.753906 C 196.46875 135.4375 194.867188 134.800781 193.261719 134.644531 C 192.902344 138.277344 192.316406 141.878906 191.515625 145.425781 L 191.078125 145.585938 C 187.839844 146.113281 184.777344 147.53125 182.1875 149.710938 L 183.0625 146.855469 C 177.8125 147.804688 172.566406 148.917969 167.320312 150.027344 L 162.074219 156.054688 L 162.21875 155.417969 L 163.96875 150.660156 C 158.867188 151.929688 153.621094 153.039062 148.371094 154.308594 C 147.351562 146.695312 146.1875 139.875 145.3125 134.324219 L 140.9375 134.800781 C 141.8125 140.511719 142.980469 147.488281 144.144531 155.261719 L 140.503906 156.210938 L 135.839844 161.605469 C 132.632812 157.796875 125.925781 160.175781 121.699219 161.285156 C 117.183594 162.554688 112.664062 163.980469 108.144531 165.25 C 106.808594 165.578125 105.496094 166.003906 104.210938 166.519531 C 100.710938 161.238281 97.59375 155.671875 94.882812 149.867188 L 94.445312 148.757812 C 93.132812 149.390625 91.820312 149.867188 90.363281 150.660156 L 90.949219 151.929688 C 93.539062 157.652344 96.511719 163.167969 99.839844 168.421875 C 94.800781 170.808594 90.28125 174.320312 86.574219 178.730469 C 86.574219 178.730469 80.160156 185.867188 79.433594 186.820312 C 77.847656 188.84375 76.433594 191.019531 75.207031 193.320312 C 68.296875 178.03125 62.921875 161.972656 59.175781 145.425781 C 89.34375 128.933594 116.160156 120.210938 150.414062 120.210938 Z M 153.765625 212.351562 C 156.972656 210.925781 160.03125 209.339844 163.238281 207.910156 L 164.695312 206.167969 C 165.417969 206.300781 166.152344 206.351562 166.882812 206.324219 C 168.375 206.070312 169.839844 205.644531 171.253906 205.058594 C 170.308594 208.640625 169.628906 212.300781 169.214844 216 C 164.84375 217.746094 159.742188 219.488281 154.058594 221.074219 C 153.910156 218.0625 153.910156 215.367188 153.765625 212.351562 Z M 131.902344 223.136719 L 134.964844 221.550781 L 142.542969 214.890625 L 144.292969 209.972656 C 145.3125 212.351562 145.894531 213.304688 147.0625 215.683594 L 149.539062 214.414062 L 149.539062 222.027344 C 143.808594 223.515625 137.9375 224.257812 132.046875 224.246094 Z M 131.902344 223.136719 "/>
<path style=" stroke:none;fill-rule:nonzero;fill:rgb(94.117647%,31.764707%,20%);fill-opacity:1;" d="M 168.921875 132.738281 C 176.082031 132.679688 183.238281 133.101562 190.347656 134.007812 C 195.714844 135.171875 201.019531 136.652344 206.234375 138.449219 C 208.300781 146.285156 209.332031 154.402344 209.296875 162.554688 C 209.289062 169.277344 208.605469 175.976562 207.253906 182.539062 C 198.21875 198.078125 189.910156 206.960938 173.734375 214.097656 C 174.332031 210.273438 175.207031 206.507812 176.355469 202.835938 C 181.164062 200.617188 185.976562 198.078125 189.035156 196.8125 L 196.179688 188.722656 C 197.925781 181.109375 199.675781 173.65625 201.425781 166.203125 L 195.886719 168.105469 L 202.445312 160.652344 C 203.757812 154.785156 205.214844 148.917969 206.527344 143.046875 C 203.320312 143.523438 199.96875 144.160156 196.761719 144.632812 C 197.199219 141.621094 197.636719 138.765625 197.925781 135.910156 C 196.324219 135.4375 194.71875 134.960938 193.117188 134.644531 C 192.757812 138.328125 192.171875 141.984375 191.367188 145.585938 L 190.929688 145.746094 C 187.613281 146.128906 184.472656 147.5625 181.894531 149.867188 L 182.914062 147.011719 C 177.523438 147.964844 172.421875 149.074219 167.027344 150.183594 L 161.925781 156.054688 L 162.074219 155.578125 L 163.820312 150.820312 C 158.574219 152.089844 153.472656 153.199219 148.226562 154.46875 C 147.207031 146.695312 146.039062 139.875 145.164062 134.324219 C 153.042969 133.226562 160.980469 132.695312 168.921875 132.738281 Z M 202.589844 197.921875 C 197.535156 210.246094 189.957031 221.148438 180.4375 229.796875 C 179.417969 229.957031 173.148438 230.433594 173.296875 219.648438 C 186.414062 214.097656 195.011719 207.59375 202.589844 197.921875 Z M 175.191406 234.078125 C 167.8125 239.8125 159.578125 244.105469 150.851562 246.765625 C 153.765625 239.945312 153.910156 228.054688 153.910156 225.992188 C 159.449219 224.40625 164.40625 222.820312 169.070312 221.234375 C 169.214844 226.785156 171.253906 232.175781 175.191406 234.078125 Z M 143.707031 248.511719 C 141.230469 248.988281 138.605469 249.304688 136.128906 249.621094 C 133.359375 246.609375 130.589844 243.4375 127.96875 240.421875 C 130.589844 237.886719 132.195312 234.238281 132.339844 229.003906 C 138.125 229 143.890625 228.308594 149.539062 226.941406 C 149.394531 236.617188 148.082031 243.59375 145.601562 246.449219 C 144.730469 247.402344 144.144531 248.035156 143.707031 248.511719 Z M 125.050781 236.933594 C 123.15625 234.554688 121.261719 232.019531 119.515625 229.480469 L 121.117188 228.6875 C 123.59375 228.847656 125.78125 229.003906 127.96875 229.003906 C 127.914062 231.945312 126.875 234.761719 125.050781 236.933594 Z M 90.363281 174.449219 C 87.851562 167.652344 85.664062 160.71875 83.804688 153.675781 C 85.847656 152.5625 87.886719 151.613281 90.074219 150.660156 L 90.511719 151.929688 C 93.152344 157.65625 96.171875 163.167969 99.546875 168.421875 C 96.230469 169.933594 93.136719 171.960938 90.363281 174.449219 Z M 94.007812 148.757812 C 108.960938 142.011719 124.628906 137.324219 140.648438 134.800781 C 141.523438 140.511719 142.6875 147.488281 143.707031 155.261719 L 140.066406 156.210938 L 135.546875 161.605469 C 132.195312 157.796875 125.488281 160.175781 121.410156 161.285156 C 116.890625 162.554688 112.371094 163.980469 107.855469 165.25 C 106.519531 165.578125 105.203125 166.003906 103.917969 166.519531 C 100.464844 161.238281 97.394531 155.667969 94.738281 149.867188 Z M 153.765625 212.351562 C 156.972656 210.925781 160.03125 209.339844 163.238281 207.910156 L 164.695312 206.167969 C 165.417969 206.300781 166.152344 206.351562 166.882812 206.324219 C 168.371094 206.050781 169.835938 205.625 171.253906 205.058594 C 170.238281 208.621094 169.554688 212.289062 169.214844 216 C 164.695312 217.746094 159.742188 219.488281 153.910156 221.074219 C 153.910156 218.0625 153.910156 215.367188 153.765625 212.351562 Z M 131.902344 223.136719 L 134.964844 221.550781 L 142.542969 214.890625 L 144.292969 209.972656 C 145.3125 212.351562 145.894531 213.304688 147.0625 215.683594 L 149.539062 214.574219 L 149.539062 222.183594 C 143.796875 223.59375 137.933594 224.339844 132.046875 224.40625 Z M 131.902344 223.136719 "/>
<path style=" stroke:none;fill-rule:nonzero;fill:rgb(99.215686%,73.333335%,18.82353%);fill-opacity:1;" d="M 152.015625 270.238281 C 137.578125 259.691406 124.535156 247.042969 113.246094 232.652344 L 119.515625 229.480469 C 121.410156 232.019531 123.304688 234.554688 125.199219 236.933594 C 126.09375 238.171875 127.066406 239.335938 128.113281 240.421875 C 136.445312 250.4375 145.671875 259.519531 155.660156 267.542969 C 154.492188 268.511719 153.273438 269.410156 152.015625 270.238281 Z M 83.222656 181.902344 C 78.960938 171.683594 75.40625 161.136719 72.582031 150.34375 C 97.484375 137.421875 124.585938 130.292969 152.160156 129.410156 C 164.992188 129.527344 177.785156 131.015625 190.347656 133.851562 C 183.230469 133.027344 176.078125 132.605469 168.921875 132.582031 C 160.933594 132.542969 152.949219 133.070312 145.019531 134.167969 C 143.5625 134.324219 142.105469 134.644531 140.648438 134.800781 C 124.632812 137.269531 108.964844 141.902344 94.007812 148.597656 C 92.695312 149.234375 91.238281 149.867188 89.925781 150.503906 C 87.886719 151.453125 85.847656 152.5625 83.804688 153.675781 C 85.570312 160.730469 87.710938 167.664062 90.21875 174.449219 C 88.90625 175.71875 87.449219 177.144531 86.136719 178.574219 Z M 83.222656 181.902344 "/>
<path style=" stroke:none;fill-rule:nonzero;fill:rgb(0%,17.647059%,38.431373%);fill-opacity:1;" d="M 51.742188 141.78125 C 84.535156 123.542969 113.246094 113.390625 150.558594 113.390625 C 187.726562 113.390625 216.582031 123.542969 249.375 141.78125 C 234.074219 208.546875 204.921875 252.953125 150.414062 288.476562 C 129.863281 274.996094 111.933594 259.296875 97.070312 241.058594 C 92.988281 243.277344 89.636719 245.023438 87.886719 245.972656 C 82.785156 248.828125 77.683594 251.523438 72.582031 254.378906 C 66.753906 257.550781 60.339844 262.46875 53.636719 260.5625 C 46.347656 257.074219 51.15625 247.402344 53.34375 242.007812 C 59.027344 228.210938 65.003906 214.414062 71.125 200.777344 C 63.476562 185.203125 57.695312 168.628906 53.925781 151.453125 Z M 150.414062 120.210938 C 116.160156 120.210938 89.34375 128.933594 58.882812 145.425781 C 62.539062 161.929688 67.867188 177.9375 74.769531 193.164062 C 76.046875 190.859375 77.511719 188.683594 79.140625 186.660156 C 79.871094 185.867188 86.136719 178.574219 86.136719 178.574219 C 89.910156 174.171875 94.472656 170.660156 99.546875 168.265625 C 96.140625 163.03125 93.121094 157.519531 90.511719 151.769531 L 90.074219 150.503906 C 91.382812 149.867188 92.695312 149.234375 94.152344 148.597656 L 94.589844 149.710938 C 97.25 155.5625 100.320312 161.179688 103.773438 166.519531 C 105.085938 166.042969 106.398438 165.566406 107.855469 165.09375 C 112.371094 163.824219 116.746094 162.554688 121.410156 161.285156 C 125.488281 160.019531 132.195312 157.640625 135.402344 161.445312 L 140.066406 156.054688 L 143.707031 155.261719 C 142.542969 147.332031 141.523438 140.351562 140.503906 134.800781 C 141.960938 134.644531 143.417969 134.324219 144.875 134.167969 C 145.75 139.71875 146.914062 146.695312 147.933594 154.148438 C 153.183594 153.039062 158.285156 151.769531 163.53125 150.660156 L 161.78125 155.417969 L 161.636719 155.894531 L 166.882812 149.867188 C 172.128906 148.917969 177.230469 147.804688 182.625 146.695312 L 181.75 149.710938 C 184.3125 147.453125 187.378906 145.972656 190.640625 145.425781 L 191.078125 145.425781 C 191.925781 141.828125 192.558594 138.171875 192.972656 134.484375 C 194.574219 134.800781 196.179688 135.277344 197.636719 135.59375 C 197.472656 138.53125 197.082031 141.449219 196.46875 144.316406 C 199.820312 143.839844 203.027344 143.367188 206.378906 142.730469 C 204.921875 148.597656 203.613281 154.625 202.300781 160.492188 L 195.742188 167.945312 L 201.28125 166.042969 C 199.382812 173.496094 197.636719 180.953125 196.03125 188.5625 L 188.890625 196.652344 C 185.828125 198.078125 180.875 200.617188 176.210938 202.679688 C 175.078125 206.355469 174.203125 210.121094 173.585938 213.9375 C 189.765625 206.800781 198.074219 197.761719 207.109375 182.378906 C 205.945312 187.65625 204.335938 192.808594 202.300781 197.761719 C 194.71875 207.4375 186.265625 213.9375 173.003906 219.332031 C 172.859375 230.273438 179.269531 229.796875 180.144531 229.480469 C 178.523438 231.082031 176.765625 232.515625 174.898438 233.761719 C 170.964844 231.859375 168.921875 226.46875 168.777344 220.917969 C 164.257812 222.660156 159.304688 224.089844 153.621094 225.675781 C 153.472656 227.734375 153.472656 239.628906 150.558594 246.449219 C 148.207031 247.164062 145.824219 247.746094 143.417969 248.195312 C 143.988281 247.652344 144.523438 247.070312 145.019531 246.449219 L 145.164062 246.289062 C 147.789062 243.4375 148.957031 236.457031 149.246094 226.785156 C 143.589844 228.105469 137.832031 228.851562 132.046875 229.003906 C 131.902344 234.238281 130.300781 237.886719 127.675781 240.265625 C 126.65625 239.152344 125.78125 238.042969 124.761719 236.933594 C 126.515625 234.726562 127.496094 231.921875 127.53125 229.003906 C 125.488281 228.847656 123.15625 228.6875 120.824219 228.527344 C 114.996094 231.542969 108.292969 235.03125 102.460938 237.886719 C 116.402344 254.414062 132.453125 268.671875 150.121094 280.230469 C 199.53125 247.082031 226.640625 206.167969 241.507812 145.269531 C 211.480469 128.933594 184.664062 120.210938 150.414062 120.210938 Z M 153.765625 212.351562 C 153.910156 215.367188 153.910156 218.0625 153.910156 220.917969 C 159.742188 219.332031 164.695312 217.746094 169.214844 216 C 169.570312 212.238281 170.25 208.519531 171.253906 204.898438 C 169.835938 205.464844 168.371094 205.890625 166.882812 206.167969 C 166.160156 206.328125 165.417969 206.328125 164.695312 206.167969 L 163.238281 207.753906 C 160.03125 209.339844 156.972656 210.925781 153.765625 212.351562 Z M 131.902344 223.136719 L 132.046875 224.246094 C 137.9375 224.257812 143.808594 223.515625 149.539062 222.027344 L 149.539062 214.414062 L 147.0625 215.683594 C 145.894531 213.304688 145.457031 212.351562 144.292969 209.972656 L 142.542969 214.890625 L 134.964844 221.550781 Z M 131.902344 223.136719 "/>
<path style=" stroke:none;fill-rule:nonzero;fill:rgb(100%,100%,100%);fill-opacity:1;" d="M 108.292969 167.945312 C 100.566406 170.324219 93.714844 173.816406 88.179688 180.476562 C 85.164062 184.453125 82.621094 188.820312 80.597656 193.480469 C 74.476562 207.277344 68.503906 221.074219 62.816406 234.871094 C 61.359375 238.519531 56.84375 247.242188 61.652344 249.621094 C 67.042969 251.046875 73.75 246.132812 78.414062 243.59375 C 83.515625 240.738281 88.761719 237.886719 93.863281 235.191406 C 102.605469 230.433594 110.476562 224.722656 115.871094 215.523438 C 117.824219 211.507812 119.578125 207.378906 121.117188 203.152344 C 124.46875 194.113281 127.820312 185.234375 131.320312 176.351562 C 132.632812 172.863281 134.964844 168.738281 134.234375 165.09375 C 132.777344 160.175781 125.050781 163.191406 121.847656 164.140625 C 117.328125 165.410156 112.808594 166.679688 108.292969 167.945312 Z M 98.527344 219.171875 C 94.445312 221.234375 90.511719 223.136719 86.429688 225.199219 C 92.257812 210.449219 98.378906 195.699219 104.792969 180.953125 C 108.292969 179.839844 111.933594 178.414062 115.578125 177.304688 C 109.601562 191.261719 103.917969 205.214844 98.527344 219.171875 Z M 168.339844 152.5625 C 162.65625 160.652344 157.117188 168.738281 151.578125 176.828125 C 154.203125 169.53125 156.824219 162.078125 159.449219 154.625 C 153.621094 155.894531 147.644531 157.320312 141.960938 158.75 C 140.355469 162.554688 138.898438 166.359375 137.441406 170.324219 C 138.636719 169.882812 139.851562 169.511719 141.085938 169.214844 C 136.566406 181.269531 132.046875 193.320312 127.675781 205.53125 C 125.78125 210.449219 124.03125 215.523438 122.285156 220.441406 C 128.113281 217.425781 134.089844 214.414062 139.917969 211.558594 C 142.542969 203.472656 145.164062 195.542969 147.933594 187.453125 C 150.414062 193.003906 152.890625 198.394531 155.367188 203.789062 C 159.15625 202.042969 162.949219 200.140625 166.738281 198.394531 C 164.40625 192.6875 162.074219 186.976562 159.742188 181.269531 C 163.96875 174.289062 168.195312 167.3125 172.421875 160.492188 C 173.585938 160.175781 174.898438 160.019531 176.066406 159.699219 C 177.085938 156.6875 177.960938 153.675781 178.835938 150.660156 C 175.335938 151.296875 171.839844 151.929688 168.339844 152.5625 Z M 191.078125 148.441406 C 187.925781 148.902344 184.976562 150.394531 182.625 152.722656 C 180.855469 154.984375 179.5625 157.632812 178.835938 160.492188 C 176.355469 169.058594 173.878906 177.621094 171.253906 186.183594 C 170.234375 189.515625 168.632812 195.699219 173.585938 195.382812 C 175.308594 194.988281 176.972656 194.347656 178.542969 193.480469 C 183.644531 191.101562 188.746094 188.882812 193.847656 186.660156 C 195.011719 181.269531 196.324219 175.875 197.636719 170.484375 C 195.011719 171.277344 192.386719 172.230469 189.621094 173.179688 C 188.890625 175.71875 188.308594 178.097656 187.726562 180.632812 C 185.828125 181.269531 183.933594 182.0625 182.1875 182.695312 C 184.519531 173.972656 186.703125 165.410156 189.183594 156.6875 C 190.785156 156.210938 192.386719 155.894531 193.992188 155.417969 C 193.691406 156.976562 193.300781 158.511719 192.824219 160.019531 C 195.304688 159.382812 197.636719 158.75 200.113281 158.113281 C 200.988281 154.308594 201.863281 150.34375 202.738281 146.378906 C 198.949219 147.011719 195.011719 147.804688 191.078125 148.441406 Z M 191.078125 148.441406 "/>
<path style=" stroke:none;fill-rule:nonzero;fill:rgb(0%,47.843137%,75.686276%);fill-opacity:1;" d="M 212.355469 140.351562 C 214.6875 141.304688 217.019531 142.097656 219.351562 143.046875 C 224.890625 145.425781 229.847656 147.648438 234.074219 149.867188 C 221.761719 196.648438 195.125 237.441406 158.574219 265.480469 L 155.660156 267.699219 C 149.65625 262.828125 143.914062 257.585938 138.460938 252 L 143.5625 251.207031 C 188.199219 242.96875 218.347656 197.058594 211.042969 148.441406 C 210.898438 147.804688 210.753906 147.171875 210.605469 146.539062 L 210.460938 145.902344 L 210.316406 145.746094 L 209.734375 143.523438 L 209.585938 143.207031 L 209.441406 142.574219 L 209.296875 142.414062 L 209.296875 142.097656 C 209.140625 141.171875 208.894531 140.269531 208.566406 139.402344 C 209.84375 139.648438 211.109375 139.964844 212.355469 140.351562 Z M 212.792969 140.988281 C 214.980469 141.78125 217.3125 142.730469 219.496094 143.523438 C 217.3125 142.730469 214.980469 141.78125 212.792969 140.988281 Z M 212.792969 140.988281 "/>
</g>
</svg>
