<?xml version="1.0" encoding="UTF-8"?>
<svg xmlns="http://www.w3.org/2000/svg" xmlns:xlink="http://www.w3.org/1999/xlink" width="300px" height="300px" viewBox="0 0 300 300" version="1.1">
<g id="surface1">
<path style=" stroke:none;fill-rule:nonzero;fill:rgb(76.078433%,80.000001%,82.352942%);fill-opacity:1;" d="M 121.171875 190.523438 C 137.25 188.0625 153.332031 188.800781 167.441406 194.707031 L 169.164062 190.933594 C 146.359375 183.632812 117.726562 183.960938 96.480469 195.691406 L 102.550781 181.582031 C 75.726562 188.800781 57.761719 203.980469 39.632812 219.484375 C 52.839844 188.226562 81.550781 162.632812 114.039062 153.28125 L 112.394531 158.449219 C 140.863281 149.179688 172.117188 147.375 197.382812 151.558594 L 191.476562 143.847656 L 205.996094 147.539062 L 215.347656 133.59375 L 219.039062 150.820312 L 233.3125 155.414062 C 233.3125 155.414062 222.894531 159.761719 223.386719 160.007812 C 277.449219 182.242188 260.140625 256.234375 208.785156 256.5625 C 182.78125 256.808594 162.601562 233.265625 163.503906 208.738281 C 150.132812 200.125 136.925781 195.941406 121.175781 190.527344 "/>
<path style=" stroke:none;fill-rule:nonzero;fill:rgb(76.078433%,80.000001%,82.352942%);fill-opacity:1;" d="M 88.277344 91.019531 C 88.277344 85.195312 89.917969 79.941406 93.445312 76.085938 C 96.972656 72.230469 101.976562 70.015625 107.71875 69.523438 C 118.710938 68.539062 129.867188 67.882812 140.945312 67.636719 L 149.066406 67.472656 L 149.066406 161.320312 L 148.902344 169.359375 L 140.78125 169.195312 C 139.386719 169.195312 128.472656 169.605469 126.503906 169.6875 L 126.257812 169.6875 L 117.480469 170.507812 L 117.480469 170.34375 L 111.984375 170.589844 C 111.246094 170.589844 98.121094 171.902344 97.546875 172.066406 L 88.277344 173.542969 L 88.277344 91.015625 Z M 111 91.921875 L 111 91.757812 C 111.082031 90.117188 111.984375 87.984375 113.625 86.753906 C 115.265625 85.523438 116.988281 85.195312 118.628906 85.113281 C 118.628906 85.113281 120.105469 85.03125 121.667969 84.949219 L 126.339844 84.621094 L 126.339844 118.089844 L 122.238281 118.335938 C 119.777344 118.5 118.300781 118.582031 115.59375 118.746094 L 110.917969 119.074219 L 110.917969 91.921875 Z M 111 91.921875 "/>
<path style=" stroke:none;fill-rule:nonzero;fill:rgb(76.078433%,80.000001%,82.352942%);fill-opacity:1;" d="M 289.671875 191.179688 C 289.671875 191.179688 278.761719 187.816406 277.121094 187.324219 C 277.066406 187.324219 277.011719 187.296875 276.957031 187.242188 C 272.035156 185.847656 267.605469 184.617188 264.40625 183.714844 L 258.582031 182.238281 C 253 180.925781 248.324219 178.21875 245.125 174.199219 C 241.925781 170.179688 240.367188 165.011719 240.367188 159.351562 L 240.367188 98.402344 C 240.367188 92.414062 242.171875 86.917969 246.523438 83.554688 C 249.3125 81.339844 252.757812 80.351562 256.367188 80.351562 C 258.253906 80.351562 260.222656 80.601562 262.191406 81.09375 C 262.929688 81.257812 265.0625 81.832031 268.425781 82.8125 C 271.707031 83.714844 275.972656 84.949219 280.15625 86.175781 C 288.605469 88.554688 296.808594 90.933594 296.808594 90.933594 L 300.007812 91.835938 L 300.007812 133.265625 L 273.429688 125.0625 L 273.019531 122.355469 C 273.019531 122.355469 272.28125 117.515625 271.542969 113.085938 L 271.542969 159.515625 C 271.542969 159.597656 271.625 159.761719 271.625 159.84375 C 271.625 159.84375 271.542969 159.925781 272.363281 160.171875 C 272.363281 160.171875 274.085938 160.582031 275.234375 160.910156 C 275.96875 157.792969 276.710938 154.59375 276.710938 154.511719 L 277.777344 149.917969 L 300.007812 156.5625 L 300.089844 194.050781 Z M 289.671875 191.179688 "/>
<path style=" stroke:none;fill-rule:nonzero;fill:rgb(76.078433%,80.000001%,82.352942%);fill-opacity:1;" d="M 0.257812 103.816406 C 0.257812 99.140625 2.472656 95.285156 5.015625 92.660156 C 7.640625 89.953125 10.511719 88.3125 13.21875 87.410156 C 25.441406 83.472656 42.667969 80.847656 43.488281 80.683594 L 48.164062 79.945312 C 50.132812 78.878906 52.265625 77.976562 54.480469 77.566406 C 60.46875 76.335938 78.679688 72.890625 79.5 72.726562 L 88.933594 70.921875 L 88.933594 166.324219 L 88.769531 173.460938 L 81.714844 174.28125 C 81.140625 174.28125 67.933594 176.578125 67.277344 176.742188 L 57.433594 178.957031 L 57.433594 163.535156 L 30.035156 170.015625 L 30.035156 179.449219 L 29.953125 185.683594 L 23.960938 187.160156 C 23.878906 187.160156 21.828125 187.734375 19.695312 188.390625 C 17.480469 189.046875 15.019531 189.867188 13.132812 190.441406 C 11.984375 190.769531 11 191.101562 10.917969 191.179688 L 0.0898438 195.117188 L 0.0898438 103.816406 Z M 0.257812 103.816406 "/>
<path style=" stroke:none;fill-rule:nonzero;fill:rgb(76.078433%,80.000001%,82.352942%);fill-opacity:1;" d="M 231.015625 176.414062 L 230.851562 176.414062 C 230.6875 176.414062 230.523438 176.332031 230.359375 176.332031 C 229.949219 176.25 229.375 176.167969 228.71875 176.003906 C 227.40625 175.757812 225.683594 175.511719 224.042969 175.183594 C 220.761719 174.609375 217.152344 174.035156 216.90625 174.035156 L 213.625 173.707031 L 209.769531 173.296875 L 209.769531 71.902344 L 218.464844 72.5625 C 219.367188 72.644531 221.253906 72.972656 224.042969 73.378906 C 226.667969 73.789062 229.785156 74.363281 231.917969 74.691406 C 233.476562 74.941406 234.296875 75.101562 235.035156 75.265625 L 241.105469 76.828125 L 241.105469 168.621094 L 241.023438 178.546875 Z M 231.015625 176.414062 "/>
<path style=" stroke:none;fill-rule:nonzero;fill:rgb(76.078433%,80.000001%,82.352942%);fill-opacity:1;" d="M 200.171875 171.902344 C 199.269531 171.738281 193.855469 171.164062 188.113281 170.753906 C 182.699219 170.34375 176.710938 169.933594 172.855469 169.6875 L 168.671875 169.523438 C 162.847656 169.277344 157.679688 167.472656 153.988281 163.699219 C 150.378906 159.925781 148.65625 154.757812 148.65625 148.933594 L 148.65625 85.441406 C 148.65625 80.355469 150.132812 75.679688 153.578125 72.394531 C 157.925781 68.292969 163.257812 67.882812 166.539062 67.882812 C 167.441406 67.882812 168.179688 67.882812 168.753906 67.964844 L 169.984375 67.964844 C 171.132812 67.964844 172.527344 68.046875 174.578125 68.128906 L 176.957031 68.214844 L 176.875 68.296875 C 179.171875 68.460938 182.042969 68.707031 185.734375 68.953125 C 198.121094 69.9375 201.402344 70.265625 203.289062 70.675781 C 203.945312 70.757812 204.765625 71.085938 205.011719 71.25 L 209.605469 73.464844 L 209.605469 106.523438 L 183.355469 103.160156 L 182.699219 100.125 C 182.699219 100.125 181.960938 96.761719 181.304688 93.808594 C 180.976562 93.808594 180.566406 93.726562 180.15625 93.726562 L 180.238281 105.785156 L 180.238281 108.410156 L 181.878906 108.328125 L 182.125 108.328125 C 182.863281 108.328125 183.847656 108.410156 185.488281 108.574219 C 187.046875 108.738281 189.015625 108.902344 191.066406 109.066406 C 195.167969 109.394531 199.597656 109.886719 201.8125 110.132812 C 202.46875 110.214844 202.796875 110.214844 203.371094 110.378906 L 209.6875 111.773438 L 209.605469 173.707031 Z M 200.171875 171.902344 "/>
<path style=" stroke:none;fill-rule:nonzero;fill:rgb(0%,0%,0%);fill-opacity:1;" d="M 90.902344 91.019531 C 90.738281 80.355469 97.382812 72.972656 108.046875 72.148438 C 118.957031 71.164062 130.113281 70.507812 141.109375 70.261719 L 146.605469 70.179688 L 146.605469 161.238281 L 146.523438 166.734375 L 141.027344 166.652344 C 139.632812 166.652344 127.160156 167.0625 126.175781 167.226562 L 120.269531 167.800781 L 120.269531 132.199219 C 119.203125 132.28125 118.21875 132.363281 117.152344 132.445312 L 117.152344 162.796875 L 117.070312 167.882812 L 111.984375 168.128906 C 111 168.128906 98.203125 169.441406 97.300781 169.605469 L 91.066406 170.589844 Z M 117.152344 112.511719 C 118.21875 112.429688 119.203125 112.347656 120.269531 112.265625 L 120.269531 91.019531 C 119.53125 91.101562 119.039062 91.101562 119.121094 91.101562 C 118.136719 91.183594 117.644531 91.347656 117.480469 91.511719 C 117.316406 91.675781 117.234375 91.675781 117.152344 92.167969 Z M 117.152344 112.511719 "/>
<path style=" stroke:none;fill-rule:nonzero;fill:rgb(0%,0%,0%);fill-opacity:1;" d="M 290.492188 188.636719 C 290.492188 188.636719 280.894531 185.683594 278.351562 184.945312 C 278.105469 184.863281 277.941406 184.863281 277.859375 184.78125 L 277.777344 184.78125 C 272.363281 183.222656 267.523438 181.910156 264.238281 181.007812 L 259.152344 179.777344 C 248.816406 177.398438 242.910156 169.933594 242.992188 159.433594 L 242.992188 98.484375 C 242.992188 92.902344 244.632812 88.472656 248.078125 85.683594 C 250.375 83.878906 253.164062 83.058594 256.28125 83.058594 C 257.921875 83.058594 259.726562 83.304688 261.53125 83.714844 C 263.253906 84.125 295.988281 93.480469 296.070312 93.480469 L 297.300781 93.804688 L 297.300781 129.738281 L 275.726562 123.09375 L 275.5625 122.027344 C 275.5625 122.027344 273.917969 111.523438 273.183594 107.09375 C 271.871094 106.683594 270.886719 106.4375 270.226562 106.191406 L 270.144531 106.191406 L 269.570312 106.027344 L 268.832031 105.78125 L 268.832031 159.515625 C 268.832031 159.679688 268.917969 160.417969 269.242188 160.992188 C 269.652344 161.730469 270.3125 162.304688 271.621094 162.714844 C 271.621094 162.714844 274.492188 163.453125 277.121094 164.191406 C 277.9375 160.582031 279.171875 155.167969 279.171875 155.167969 L 279.582031 153.363281 L 297.300781 158.695312 L 297.382812 190.769531 Z M 290.492188 188.636719 "/>
<path style=" stroke:none;fill-rule:nonzero;fill:rgb(0%,0%,0%);fill-opacity:1;" d="M 2.878906 103.816406 C 3.046875 96.023438 9.6875 91.265625 14.039062 89.871094 C 25.933594 86.097656 43.160156 83.386719 43.980469 83.222656 L 49.148438 82.402344 C 50.953125 81.335938 53.003906 80.515625 55.136719 80.023438 C 61.042969 78.792969 79.253906 75.351562 80.074219 75.183594 L 86.390625 74.035156 L 86.390625 166.242188 L 86.308594 171 L 81.550781 171.574219 C 80.566406 171.65625 67.769531 173.871094 66.867188 174.117188 L 60.222656 175.59375 L 60.222656 100.945312 L 60.058594 100.945312 C 58.171875 101.519531 57.84375 101.929688 57.433594 103.980469 L 57.433594 160.746094 L 31.429688 166.898438 L 31.429688 107.425781 C 31.265625 107.507812 31.101562 107.507812 31.019531 107.507812 C 30.117188 107.753906 29.132812 108.246094 28.476562 108.738281 C 27.816406 109.3125 27.574219 109.722656 27.574219 110.542969 L 27.574219 179.207031 L 27.492188 183.390625 L 23.46875 184.375 C 22.566406 184.621094 11.082031 188.148438 10.261719 188.476562 L 2.960938 191.183594 L 2.960938 103.816406 Z M 2.878906 103.816406 "/>
<path style=" stroke:none;fill-rule:nonzero;fill:rgb(0%,0%,0%);fill-opacity:1;" d="M 231.589844 173.789062 C 230.6875 173.542969 217.972656 171.492188 217.070312 171.410156 L 213.789062 171.082031 L 212.230469 170.917969 L 212.230469 74.773438 L 218.054688 75.265625 C 219.53125 75.433594 232.820312 77.644531 234.214844 77.976562 L 238.316406 79.042969 L 238.316406 168.703125 L 238.234375 175.347656 Z M 231.589844 173.789062 "/>
<path style=" stroke:none;fill-rule:nonzero;fill:rgb(0%,0%,0%);fill-opacity:1;" d="M 200.664062 169.277344 C 198.121094 168.785156 180.894531 167.472656 173.101562 166.980469 L 168.835938 166.816406 C 163.421875 166.570312 158.992188 164.929688 155.957031 161.8125 C 152.921875 158.695312 151.363281 154.183594 151.363281 148.851562 L 151.363281 85.441406 C 151.363281 80.847656 152.675781 76.992188 155.464844 74.285156 C 158.992188 70.921875 163.585938 70.511719 166.621094 70.511719 C 167.441406 70.511719 168.179688 70.511719 168.753906 70.59375 L 169.984375 70.59375 C 172.28125 70.59375 176.464844 70.921875 185.570312 71.578125 C 197.957031 72.5625 201.320312 72.890625 202.796875 73.21875 C 203.289062 73.300781 203.699219 73.464844 203.945312 73.628906 L 207.0625 75.105469 L 207.0625 103.570312 L 185.570312 100.78125 L 185.324219 99.550781 C 185.324219 99.550781 184.175781 94.464844 183.519531 91.347656 C 183.109375 91.347656 182.699219 91.265625 182.371094 91.265625 C 182.207031 91.265625 178.925781 91.019531 178.925781 91.019531 L 178.433594 91.019531 C 178.105469 91.019531 177.859375 91.019531 177.613281 91.101562 L 177.613281 92.578125 L 177.695312 105.949219 L 177.695312 111.28125 L 182.125 111.117188 L 182.289062 111.117188 C 183.355469 111.117188 188.03125 111.527344 192.789062 111.9375 C 197.546875 112.347656 201.976562 112.839844 202.960938 113.003906 L 207.144531 113.90625 L 207.0625 170.589844 Z M 177.695312 145.816406 C 177.695312 145.898438 177.777344 146.554688 177.941406 146.882812 C 178.105469 147.128906 178.351562 147.375 179.582031 147.457031 C 179.582031 147.457031 180.15625 147.457031 180.894531 147.539062 L 180.894531 129.492188 C 179.828125 129.410156 178.515625 129.328125 178.515625 129.328125 L 177.613281 129.246094 Z M 177.695312 145.816406 "/>
<path style=" stroke:none;fill-rule:nonzero;fill:rgb(100%,100%,100%);fill-opacity:1;" d="M 141.109375 74.039062 L 141.109375 73.136719 C 130.195312 73.382812 119.203125 73.957031 108.292969 74.941406 C 99.023438 75.757812 93.773438 81.503906 93.855469 90.9375 L 93.855469 166.980469 L 96.726562 166.488281 C 97.546875 166.324219 111 165.011719 111.738281 164.929688 L 114.035156 164.929688 L 114.035156 129.492188 C 116.25 129.328125 120.597656 129 123.0625 128.835938 L 123.0625 164.4375 L 125.769531 164.109375 C 126.507812 164.027344 138.976562 163.535156 140.78125 163.535156 L 140.863281 163.535156 L 142.503906 163.617188 L 143.40625 163.617188 L 143.40625 73.136719 L 140.945312 73.21875 Z M 123.140625 87.984375 L 123.140625 115.054688 C 120.925781 115.21875 116.578125 115.464844 114.117188 115.628906 L 114.117188 92.003906 C 114.363281 90.363281 114.9375 88.558594 118.792969 88.230469 C 118.792969 88.230469 121.171875 88.066406 123.140625 87.984375 "/>
<path style=" stroke:none;fill-rule:nonzero;fill:rgb(100%,100%,100%);fill-opacity:1;" d="M 294.429688 160.910156 L 281.878906 157.136719 L 281.714844 158.039062 C 281.714844 158.039062 280.15625 164.929688 279.5 167.964844 C 274.492188 166.488281 272.28125 165.832031 271.046875 165.585938 C 268.503906 164.847656 267.355469 163.453125 266.78125 162.386719 C 266.125 161.15625 266.046875 159.84375 266.046875 159.515625 L 266.046875 105.375 C 266.046875 105.128906 266.128906 103.980469 266.539062 103.40625 C 266.78125 102.996094 267.195312 102.832031 268.015625 102.832031 C 268.425781 102.832031 269 102.914062 269.65625 103.078125 L 269.902344 103.078125 C 270.066406 103.078125 272.199219 103.734375 275.890625 104.800781 C 276.382812 107.917969 278.269531 120.222656 278.269531 120.222656 L 278.351562 120.796875 L 294.347656 125.71875 L 294.347656 96.105469 L 293.691406 95.941406 C 293.691406 95.941406 262.4375 87 260.796875 86.671875 C 259.15625 86.261719 257.597656 86.015625 256.203125 86.015625 C 253.660156 86.015625 251.523438 86.671875 249.804688 87.984375 C 247.097656 90.117188 245.78125 93.726562 245.78125 98.484375 L 245.78125 159.433594 C 245.699219 168.539062 250.539062 174.691406 259.566406 176.828125 L 259.730469 176.910156 L 260.058594 176.910156 C 261.125 177.074219 269.738281 179.453125 278.433594 181.914062 L 291.148438 185.769531 L 294.265625 186.753906 Z M 294.429688 160.910156 "/>
<path style=" stroke:none;fill-rule:nonzero;fill:rgb(100%,100%,100%);fill-opacity:1;" d="M 55.710938 82.980469 C 52.429688 83.636719 49.476562 85.359375 47.179688 87.65625 L 47.179688 85.6875 L 44.390625 86.097656 C 43.652344 86.179688 26.507812 88.886719 14.941406 92.660156 C 11.167969 93.890625 5.917969 97.992188 5.832031 103.816406 L 5.832031 187.078125 L 9.113281 185.765625 C 9.773438 185.519531 21.914062 181.828125 22.652344 181.582031 L 23.800781 181.335938 L 24.457031 181.171875 L 24.457031 110.625 C 24.457031 107.015625 27.820312 105.457031 30.035156 104.71875 C 30.773438 104.472656 32.578125 104.144531 34.21875 103.898438 L 34.21875 163.207031 L 54.316406 158.449219 L 54.316406 103.734375 C 54.808594 100.453125 56.203125 98.894531 59.238281 98.074219 L 59.320312 98.074219 C 59.8125 97.992188 61.453125 97.746094 63.011719 97.5 L 63.011719 171.984375 L 66.046875 171.246094 C 66.785156 171.082031 80.320312 168.785156 81.140625 168.703125 L 82.535156 168.621094 L 83.355469 168.539062 L 83.355469 77.648438 L 80.484375 78.140625 C 80.566406 78.140625 61.617188 81.667969 55.710938 82.980469 "/>
<path style=" stroke:none;fill-rule:nonzero;fill:rgb(100%,100%,100%);fill-opacity:1;" d="M 217.808594 78.140625 L 216.085938 77.976562 L 215.183594 77.894531 L 215.183594 168.210938 L 216.003906 168.292969 L 217.398438 168.457031 C 218.136719 168.539062 231.589844 170.753906 232.328125 170.917969 L 235.363281 171.65625 L 235.363281 81.175781 L 233.558594 80.683594 C 232.328125 80.433594 218.957031 78.222656 217.808594 78.136719 "/>
<path style=" stroke:none;fill-rule:nonzero;fill:rgb(100%,100%,100%);fill-opacity:1;" d="M 182.289062 113.90625 L 182.125 113.90625 L 180.648438 113.988281 L 179.828125 113.988281 L 179.828125 126.539062 L 180.648438 126.621094 C 180.648438 126.621094 182.535156 126.785156 183.847656 126.867188 L 183.847656 150.820312 C 181.878906 150.65625 179.417969 150.492188 179.335938 150.492188 C 177.285156 150.328125 176.054688 149.589844 175.316406 148.441406 C 174.742188 147.457031 174.660156 146.308594 174.660156 145.816406 L 174.660156 105.785156 L 174.578125 92.496094 L 174.578125 91.101562 C 174.578125 90.363281 174.742188 89.542969 175.234375 88.96875 C 175.726562 88.394531 176.710938 87.984375 178.351562 87.984375 L 179.335938 87.984375 C 179.746094 87.984375 182.042969 88.148438 185.898438 88.476562 C 186.472656 90.9375 187.867188 97.417969 187.867188 97.417969 L 188.03125 97.992188 L 204.109375 100.042969 L 204.109375 76.910156 L 202.714844 76.171875 C 202.058594 75.925781 201.402344 75.679688 185.324219 74.449219 C 175.644531 73.710938 171.625 73.464844 169.820312 73.464844 L 168.589844 73.464844 C 168.015625 73.464844 167.355469 73.382812 166.539062 73.382812 C 163.828125 73.382812 160.21875 73.792969 157.511719 76.335938 C 155.296875 78.386719 154.3125 81.503906 154.3125 85.359375 L 154.3125 148.851562 C 154.230469 158.121094 159.5625 163.617188 168.917969 163.863281 L 169.324219 163.863281 C 171.703125 163.863281 197.546875 165.667969 201.15625 166.324219 L 204.027344 166.898438 L 204.109375 116.121094 L 202.222656 115.710938 C 200.910156 115.464844 184.09375 113.90625 182.289062 113.90625 "/>
<path style=" stroke:none;fill-rule:nonzero;fill:rgb(4.313726%,46.666667%,74.117649%);fill-opacity:1;" d="M 182.289062 124.324219 C 183.109375 124.40625 186.308594 124.570312 186.308594 124.570312 L 186.308594 153.363281 C 183.929688 153.199219 181.550781 153.035156 179.253906 152.871094 C 175.808594 152.625 174.085938 150.984375 173.347656 149.589844 C 172.445312 148.03125 172.363281 146.390625 172.363281 145.816406 L 172.363281 105.785156 C 172.363281 98.15625 172.28125 92.414062 172.28125 92.003906 L 172.28125 91.101562 C 172.28125 90.117188 172.527344 88.640625 173.59375 87.410156 C 174.742188 86.097656 176.710938 85.441406 179.335938 85.605469 C 179.335938 85.523438 183.355469 85.851562 188.03125 86.261719 L 190.164062 95.859375 L 201.8125 97.417969 L 201.8125 78.550781 C 200.828125 78.140625 169.246094 75.679688 169.246094 76.007812 L 168.671875 76.007812 C 166.128906 75.925781 162.023438 75.761719 159.402344 78.222656 C 157.757812 79.78125 156.9375 82.242188 156.9375 85.523438 L 156.9375 148.851562 C 156.9375 157.054688 161.042969 161.15625 169.246094 161.484375 C 169.246094 161.238281 197.710938 163.207031 201.8125 164.027344 C 201.8125 163.042969 201.894531 119.15625 201.894531 118.171875 C 200.910156 118.007812 183.4375 116.367188 182.453125 116.367188 L 182.453125 124.324219 Z M 111.738281 91.921875 C 111.902344 90.28125 112.804688 86.261719 118.628906 85.851562 C 120.925781 85.6875 123.222656 85.523438 125.519531 85.441406 L 125.519531 117.433594 C 120.925781 117.679688 116.25 118.007812 111.65625 118.335938 L 111.65625 91.921875 Z M 96.316406 91.019531 L 96.316406 164.191406 C 97.300781 164.027344 110.753906 162.632812 111.738281 162.632812 L 111.738281 127.277344 C 116.332031 126.867188 121.007812 126.539062 125.605469 126.292969 L 125.605469 161.730469 C 126.589844 161.648438 140.207031 161.15625 141.191406 161.15625 L 141.191406 75.597656 C 130.28125 75.84375 119.367188 76.417969 108.539062 77.402344 C 100.417969 78.222656 96.316406 82.898438 96.316406 91.019531 M 217.5625 166.078125 C 218.546875 166.160156 231.917969 168.375 232.820312 168.621094 L 232.820312 83.144531 C 231.917969 82.894531 218.464844 80.683594 217.5625 80.601562 Z M 44.800781 97.582031 L 44.800781 88.558594 C 44.800781 88.558594 27.246094 91.347656 15.679688 95.039062 C 12.644531 96.023438 8.296875 99.46875 8.296875 103.898438 L 8.296875 183.632812 C 9.195312 183.304688 21.175781 179.613281 22.160156 179.367188 L 22.160156 110.707031 C 22.160156 105.867188 26.097656 103.488281 29.460938 102.503906 C 31.347656 101.929688 36.84375 101.109375 36.84375 101.109375 L 36.84375 160.171875 L 52.101562 156.5625 L 52.101562 103.570312 C 52.59375 99.46875 54.808594 96.679688 58.910156 95.777344 C 62.765625 95.121094 65.636719 94.710938 65.636719 94.710938 L 65.636719 168.867188 C 66.539062 168.621094 80.15625 166.324219 81.058594 166.242188 L 81.058594 80.519531 C 81.058594 80.519531 62.191406 84.046875 56.203125 85.277344 C 50.542969 86.507812 46.03125 91.101562 44.800781 97.582031 M 291.96875 162.714844 L 283.601562 160.253906 L 281.140625 171.082031 C 275.726562 169.441406 270.226562 167.882812 270.226562 167.964844 C 266.863281 167.0625 265.222656 165.011719 264.402344 163.535156 C 263.5 161.8125 263.417969 160.171875 263.417969 159.515625 L 263.417969 105.375 C 263.417969 104.71875 263.5 103.160156 264.402344 101.929688 C 265.222656 100.863281 266.863281 99.714844 270.144531 100.699219 C 270.144531 100.613281 273.675781 101.683594 277.9375 102.910156 L 280.402344 118.910156 L 291.886719 122.4375 L 291.886719 97.992188 C 291.886719 97.992188 261.695312 89.296875 260.300781 88.964844 C 252.34375 86.996094 248.242188 90.277344 248.242188 98.484375 L 248.242188 159.433594 C 248.242188 167.636719 252.34375 172.558594 260.300781 174.527344 C 260.300781 174.363281 270.390625 177.152344 279.171875 179.613281 L 291.96875 183.46875 Z M 291.96875 162.714844 "/>
<path style=" stroke:none;fill-rule:nonzero;fill:rgb(4.313726%,46.666667%,74.117649%);fill-opacity:1;" d="M 182.289062 124.324219 C 183.109375 124.40625 186.308594 124.570312 186.308594 124.570312 L 186.308594 153.363281 C 183.929688 153.199219 181.550781 153.035156 179.253906 152.871094 C 175.808594 152.625 174.085938 150.984375 173.265625 149.589844 C 172.363281 148.03125 172.28125 146.390625 172.28125 145.816406 L 172.28125 105.785156 C 172.28125 98.15625 172.199219 92.414062 172.199219 92.003906 L 172.199219 91.101562 C 172.199219 90.117188 172.363281 88.640625 173.429688 87.410156 C 174.578125 86.097656 176.546875 85.441406 179.171875 85.605469 C 179.171875 85.523438 183.191406 85.851562 187.867188 86.261719 L 190 95.859375 L 201.648438 97.417969 L 201.648438 78.550781 C 200.664062 78.140625 169.082031 75.679688 169.082031 76.007812 L 168.507812 76.007812 C 166.046875 75.925781 161.863281 75.761719 159.238281 78.222656 C 157.597656 79.78125 156.777344 82.242188 156.777344 85.523438 L 156.777344 148.851562 C 156.777344 156.972656 160.878906 161.15625 169.082031 161.484375 C 169.082031 161.238281 197.546875 163.207031 201.648438 164.027344 C 201.648438 163.042969 201.730469 119.15625 201.730469 118.171875 C 200.746094 118.007812 183.273438 116.367188 182.289062 116.367188 Z M 217.5625 166.078125 C 218.546875 166.160156 231.917969 168.375 232.820312 168.621094 L 232.820312 83.0625 C 231.917969 82.816406 218.464844 80.601562 217.5625 80.519531 Z M 44.800781 97.582031 L 44.800781 88.558594 C 44.800781 88.558594 27.246094 91.347656 15.679688 95.039062 C 12.644531 96.023438 8.296875 99.46875 8.296875 103.898438 L 8.296875 183.632812 C 9.195312 183.304688 21.175781 179.613281 22.160156 179.367188 L 22.160156 110.707031 C 22.160156 105.949219 26.097656 103.488281 29.460938 102.503906 C 31.347656 101.929688 36.84375 101.109375 36.84375 101.109375 L 36.84375 160.171875 L 52.101562 156.5625 L 52.101562 103.570312 C 52.59375 99.46875 54.808594 96.761719 58.910156 95.777344 C 62.765625 95.121094 65.636719 94.710938 65.636719 94.710938 L 65.636719 168.867188 C 66.539062 168.621094 80.15625 166.324219 81.058594 166.242188 L 81.058594 80.519531 C 81.058594 80.519531 62.109375 84.046875 56.203125 85.277344 C 50.542969 86.507812 46.03125 91.101562 44.800781 97.582031 "/>
<path style=" stroke:none;fill-rule:nonzero;fill:rgb(0%,0%,0%);fill-opacity:1;" d="M 103.289062 44.914062 C 102.878906 44.421875 102.304688 44.011719 101.648438 43.847656 C 101.15625 43.683594 100.746094 43.683594 100.253906 43.683594 C 99.515625 43.683594 98.859375 43.765625 98.285156 43.847656 C 96.644531 44.175781 95.003906 44.503906 93.363281 44.75 C 92.132812 44.996094 91.066406 45.40625 90.246094 45.898438 C 89.671875 46.308594 89.097656 46.800781 88.769531 47.375 C 88.359375 48.113281 88.113281 48.933594 88.113281 49.753906 L 88.113281 65.667969 C 88.113281 66.488281 88.277344 67.3125 88.769531 67.964844 C 89.179688 68.457031 89.753906 68.785156 90.410156 68.949219 C 90.820312 69.03125 91.230469 69.03125 91.558594 69.03125 C 92.296875 69.03125 93.035156 68.867188 93.691406 68.785156 C 95.332031 68.457031 96.972656 68.128906 98.613281 67.882812 C 99.84375 67.636719 100.910156 67.308594 101.730469 66.816406 C 102.386719 66.40625 102.878906 65.996094 103.207031 65.421875 C 103.699219 64.683594 103.863281 63.863281 103.863281 63.042969 L 103.863281 47.210938 C 103.945312 46.308594 103.78125 45.488281 103.289062 44.914062 M 97.957031 63.371094 C 97.957031 63.371094 97.957031 63.539062 97.710938 63.78125 C 97.546875 63.949219 97.21875 64.109375 96.726562 64.191406 C 96.316406 64.273438 95.414062 64.441406 94.757812 64.601562 L 94.429688 64.601562 C 94.183594 64.601562 94.183594 64.519531 94.183594 64.519531 C 94.183594 64.519531 94.183594 64.355469 94.101562 64.355469 L 94.101562 49.425781 C 94.101562 49.425781 94.101562 49.261719 94.265625 49.015625 C 94.429688 48.851562 94.757812 48.6875 95.332031 48.523438 C 95.90625 48.441406 96.480469 48.277344 97.054688 48.195312 C 97.21875 48.195312 97.382812 48.113281 97.464844 48.113281 C 97.710938 48.113281 97.792969 48.195312 97.875 48.195312 C 97.957031 48.195312 97.957031 48.359375 97.957031 48.359375 L 97.957031 63.375 Z M 97.957031 63.371094 "/>
<path style=" stroke:none;fill-rule:nonzero;fill:rgb(0%,0%,0%);fill-opacity:1;" d="M 178.105469 41.796875 C 177.695312 41.222656 177.203125 40.8125 176.546875 40.484375 C 175.398438 39.910156 174.167969 39.746094 173.347656 39.746094 C 170.066406 39.5 166.785156 39.335938 163.585938 39.253906 L 162.601562 39.253906 L 162.601562 63.371094 L 163.503906 63.371094 C 164.898438 63.453125 166.375 63.453125 167.769531 63.535156 L 168.753906 63.535156 L 168.753906 43.4375 C 169.410156 43.4375 170.066406 43.519531 170.722656 43.519531 C 173.019531 43.765625 172.691406 44.503906 172.773438 44.75 L 172.773438 63.703125 L 173.59375 63.785156 C 174.988281 63.867188 176.382812 63.949219 177.777344 64.113281 L 178.761719 64.195312 L 178.761719 44.09375 C 178.84375 43.273438 178.597656 42.453125 178.105469 41.796875 "/>
<path style=" stroke:none;fill-rule:nonzero;fill:rgb(0%,0%,0%);fill-opacity:1;" d="M 197.546875 44.011719 C 197.136719 43.4375 196.644531 42.945312 196.070312 42.617188 C 195.167969 42.125 194.183594 41.796875 192.871094 41.632812 C 191.558594 41.386719 184.914062 40.648438 183.109375 40.484375 L 182.125 40.402344 L 182.125 64.601562 L 182.945312 64.683594 C 186.144531 65.011719 189.425781 65.425781 192.625 65.835938 C 193.199219 65.917969 193.691406 65.917969 194.101562 65.917969 C 194.757812 65.917969 195.332031 65.835938 195.824219 65.667969 C 196.480469 65.503906 197.054688 65.09375 197.464844 64.601562 C 197.957031 63.945312 198.203125 63.125 198.203125 62.304688 L 198.203125 46.390625 C 198.203125 45.570312 197.957031 44.75 197.546875 44.011719 M 191.96875 61.320312 C 191.804688 61.402344 191.476562 61.484375 191.066406 61.484375 C 190.820312 61.484375 190.492188 61.484375 190.328125 61.402344 C 189.589844 61.320312 188.851562 61.238281 188.113281 61.15625 L 188.113281 45.160156 C 188.769531 45.242188 189.425781 45.324219 190.082031 45.40625 C 190.738281 45.488281 191.3125 45.652344 191.722656 45.898438 C 192.050781 46.144531 192.214844 46.308594 192.214844 46.882812 L 192.214844 60.75 C 192.132812 61.242188 192.050781 61.242188 191.96875 61.324219 "/>
<path style=" stroke:none;fill-rule:nonzero;fill:rgb(0%,0%,0%);fill-opacity:1;" d="M 123.222656 63.78125 L 123.222656 55.660156 C 123.222656 54.839844 122.730469 54.019531 121.992188 53.527344 C 121.910156 53.445312 121.828125 53.363281 121.664062 53.363281 C 122.320312 52.871094 123.058594 52.132812 123.058594 50.820312 L 123.058594 44.667969 C 123.058594 43.847656 122.8125 43.027344 122.320312 42.371094 C 121.910156 41.878906 121.335938 41.46875 120.679688 41.304688 C 120.105469 41.140625 119.449219 41.058594 118.710938 41.058594 C 118.300781 41.058594 117.890625 41.058594 117.398438 41.140625 C 114.199219 41.550781 111 41.960938 107.800781 42.371094 L 106.980469 42.453125 L 106.980469 66.65625 L 108.046875 66.492188 C 109.441406 66.242188 110.835938 66.082031 112.230469 65.917969 L 113.050781 65.835938 L 113.050781 56.398438 C 113.789062 56.316406 114.445312 56.234375 115.183594 56.152344 L 115.925781 56.152344 C 116.5 56.152344 116.742188 56.234375 116.910156 56.316406 C 117.074219 56.398438 117.074219 56.5625 117.074219 56.890625 L 117.074219 65.257812 L 118.140625 65.175781 C 119.535156 65.011719 120.929688 64.851562 122.324219 64.765625 L 123.144531 64.683594 L 123.226562 63.78125 Z M 117.070312 50.738281 C 117.070312 50.902344 117.070312 51.148438 116.742188 51.476562 C 116.414062 51.722656 115.839844 51.96875 115.019531 52.132812 C 114.445312 52.214844 113.789062 52.296875 113.214844 52.378906 L 113.214844 45.652344 C 113.871094 45.570312 114.609375 45.488281 115.265625 45.40625 C 115.59375 45.324219 115.921875 45.324219 116.167969 45.324219 C 116.742188 45.324219 116.988281 45.40625 117.070312 45.488281 C 117.152344 45.570312 117.070312 45.488281 117.152344 45.734375 L 117.152344 49.757812 C 117.070312 50.25 117.070312 50.660156 117.070312 50.742188 "/>
<path style=" stroke:none;fill-rule:nonzero;fill:rgb(0%,0%,0%);fill-opacity:1;" d="M 140.042969 58.285156 L 140.042969 55.167969 L 139.058594 55.25 L 135.363281 55.496094 L 133.96875 59.761719 C 133.394531 59.761719 132.902344 59.84375 132.328125 59.84375 L 132.328125 39.664062 L 131.34375 39.746094 C 129.949219 39.828125 128.472656 39.992188 127.078125 40.074219 L 126.257812 40.15625 L 126.257812 64.355469 L 127.242188 64.273438 C 131.183594 63.949219 135.203125 63.699219 139.140625 63.535156 L 140.042969 63.535156 Z M 140.042969 58.285156 "/>
<path style=" stroke:none;fill-rule:nonzero;fill:rgb(0%,0%,0%);fill-opacity:1;" d="M 158.417969 39.089844 C 157.269531 39.089844 153.988281 39.007812 151.445312 39.007812 L 148.574219 39.007812 C 147.261719 39.007812 146.195312 39.171875 145.292969 39.582031 C 144.636719 39.828125 144.0625 40.320312 143.652344 40.8125 C 143.160156 41.46875 142.914062 42.289062 142.914062 43.191406 L 142.914062 63.289062 L 143.898438 63.289062 C 145.292969 63.289062 146.6875 63.207031 148.082031 63.207031 L 148.984375 63.207031 L 148.984375 54.183594 L 153.085938 54.183594 L 153.085938 63.125 L 153.988281 63.125 C 155.382812 63.125 156.859375 63.125 158.253906 63.207031 L 159.238281 63.207031 L 159.238281 39.089844 Z M 153.167969 50.164062 L 149.066406 50.164062 L 149.066406 43.847656 C 149.066406 43.765625 149.066406 43.601562 149.3125 43.4375 C 149.558594 43.191406 150.132812 43.027344 151.117188 43.027344 L 153.167969 43.027344 Z M 153.167969 50.164062 "/>
<path style=" stroke:none;fill-rule:nonzero;fill:rgb(0%,0%,0%);fill-opacity:1;" d="M 216.25 47.457031 C 215.921875 46.882812 215.429688 46.390625 214.855469 45.980469 C 213.789062 45.242188 212.558594 44.996094 211.65625 44.75 C 210.015625 44.421875 208.375 44.09375 206.734375 43.765625 C 206.078125 43.683594 205.503906 43.601562 204.929688 43.601562 C 204.4375 43.601562 203.945312 43.683594 203.453125 43.765625 C 202.796875 43.929688 202.222656 44.257812 201.8125 44.75 C 201.238281 45.488281 200.992188 46.308594 200.992188 47.128906 L 200.992188 63.042969 C 200.992188 63.863281 201.15625 64.683594 201.648438 65.421875 C 201.976562 65.996094 202.550781 66.488281 203.125 66.816406 C 204.191406 67.472656 205.421875 67.71875 206.324219 67.882812 C 207.964844 68.210938 209.605469 68.457031 211.164062 68.867188 C 211.902344 69.03125 212.558594 69.113281 213.214844 69.113281 C 213.625 69.113281 214.035156 69.113281 214.363281 69.03125 C 215.019531 68.867188 215.675781 68.539062 216.085938 68.046875 C 216.578125 67.390625 216.824219 66.652344 216.824219 65.75 L 216.824219 49.835938 C 216.824219 49.015625 216.660156 48.195312 216.25 47.457031 M 210.917969 64.4375 C 210.917969 64.4375 210.917969 64.519531 210.917969 64.4375 L 210.917969 64.519531 C 210.835938 64.519531 210.753906 64.601562 210.507812 64.601562 C 210.34375 64.601562 210.179688 64.601562 210.015625 64.519531 C 209.605469 64.4375 208.785156 64.273438 208.046875 64.191406 C 207.554688 64.109375 207.226562 63.863281 207.144531 63.617188 C 207.0625 63.453125 207.0625 63.289062 207.0625 63.289062 L 207.0625 48.277344 C 207.144531 48.277344 207.226562 48.195312 207.472656 48.195312 C 207.636719 48.195312 207.800781 48.195312 207.964844 48.277344 C 208.539062 48.359375 209.113281 48.523438 209.6875 48.605469 C 210.179688 48.6875 210.507812 48.851562 210.671875 49.015625 C 211 49.261719 210.917969 49.507812 210.917969 49.507812 Z M 210.917969 64.4375 "/>
<path style=" stroke:none;fill-rule:nonzero;fill:rgb(100%,100%,100%);fill-opacity:1;" d="M 116.003906 178.875 L 119.039062 177.398438 L 121.582031 179.613281 L 121.089844 176.332031 L 123.960938 174.609375 L 120.679688 174.035156 L 119.941406 170.753906 L 118.382812 173.707031 L 115.019531 173.378906 L 117.398438 175.839844 Z M 116.003906 178.875 "/>
<path style=" stroke:none;fill-rule:nonzero;fill:rgb(0%,0%,0%);fill-opacity:1;" d="M 217.972656 160.089844 C 220.925781 158.777344 226.503906 156.398438 226.503906 156.398438 L 226.914062 156.234375 L 226.503906 156.070312 C 226.503906 156.070312 217.5625 153.117188 215.675781 152.542969 C 215.347656 150.492188 213.953125 140.8125 213.953125 140.8125 L 213.871094 140.320312 L 210.589844 145.570312 C 210.589844 145.570312 208.703125 148.605469 207.71875 150.164062 C 205.585938 149.589844 196.398438 147.292969 196.398438 147.292969 L 195.90625 147.128906 L 196.234375 147.539062 C 196.234375 147.539062 200.007812 152.378906 202.222656 155.332031 C 192.953125 153.28125 182.207031 152.214844 169.984375 152.214844 C 165.964844 152.214844 161.78125 152.296875 157.351562 152.625 C 140.617188 153.609375 124.125 156.726562 108.375 162.386719 L 110.179688 156.972656 L 109.851562 157.054688 C 85.160156 164.765625 58.089844 187.980469 46.113281 210.867188 L 46.359375 211.03125 C 63.257812 195.199219 86.144531 182.484375 106.652344 177.890625 L 101.238281 190.441406 L 101.648438 190.277344 C 111.164062 185.683594 123.714844 183.632812 136.351562 183.632812 C 148.984375 183.632812 162.355469 185.765625 172.445312 189.457031 L 168.589844 197.90625 C 159.402344 193.722656 146.113281 190.851562 135.039062 190.851562 C 133.070312 190.851562 131.183594 190.933594 129.378906 191.097656 L 129.378906 191.425781 C 142.421875 195.117188 155.875 199.300781 166.621094 207.832031 C 166.539062 208.734375 166.539062 209.636719 166.539062 210.539062 C 166.539062 233.097656 185.980469 253.527344 208.867188 253.527344 L 209.359375 253.527344 C 234.542969 253.199219 253.25 230.144531 253.25 206.027344 C 253.167969 188.390625 243.074219 170.179688 217.972656 160.089844 "/>
<path style=" stroke:none;fill-rule:nonzero;fill:rgb(76.078433%,80.000001%,82.352942%);fill-opacity:1;" d="M 204.191406 201.433594 C 194.921875 201.433594 185.570312 197.988281 176.21875 194.625 C 173.757812 199.796875 172.527344 205.289062 172.527344 210.871094 C 172.527344 213.824219 172.855469 216.777344 173.59375 219.8125 L 175.890625 219.8125 C 193.9375 219.8125 213.132812 214.808594 228.554688 205.621094 C 226.75 202.339844 224.535156 199.222656 222.238281 196.183594 C 216.25 199.957031 210.261719 201.433594 204.191406 201.433594 "/>
<path style=" stroke:none;fill-rule:nonzero;fill:rgb(76.078433%,80.000001%,82.352942%);fill-opacity:1;" d="M 175.234375 223.257812 L 174.660156 223.257812 C 180.320312 237.859375 193.28125 247.539062 209.03125 247.785156 C 214.117188 235.316406 219.695312 221.699219 232.492188 215.382812 C 231.835938 213.167969 231.015625 210.953125 230.113281 208.820312 C 213.625 218.417969 194.347656 223.257812 175.234375 223.257812 "/>
<path style=" stroke:none;fill-rule:nonzero;fill:rgb(76.078433%,80.000001%,82.352942%);fill-opacity:1;" d="M 214.28125 177.480469 C 208.703125 175.347656 205.09375 174.691406 204.765625 174.609375 C 203.207031 174.855469 201.074219 175.019531 199.351562 175.347656 C 208.867188 179.121094 215.921875 183.714844 222.976562 191.671875 C 226.585938 188.800781 229.785156 185.519531 232 181.582031 C 225.519531 175.265625 213.296875 167.554688 182.78125 165.175781 C 195.660156 168.210938 207.472656 172.394531 214.363281 177.234375 Z M 214.28125 177.480469 "/>
<path style=" stroke:none;fill-rule:nonzero;fill:rgb(76.078433%,80.000001%,82.352942%);fill-opacity:1;" d="M 128.804688 173.214844 C 130.6875 173.214844 132.742188 173.132812 134.875 173.132812 C 156.53125 173.132812 189.917969 175.675781 202.878906 191.097656 L 202.632812 191.34375 C 198.121094 188.882812 189.179688 184.699219 183.601562 184.699219 L 183.109375 184.699219 C 181.222656 186.832031 179.5 189.128906 177.941406 191.589844 C 186.636719 194.789062 195.414062 197.988281 204.027344 197.988281 C 209.523438 197.988281 214.9375 196.757812 220.269531 193.476562 C 205.257812 177.070312 179.828125 169.933594 155.875 169.933594 C 146.441406 170.015625 137.171875 171.082031 128.804688 173.214844 "/>
<path style=" stroke:none;fill-rule:nonzero;fill:rgb(76.078433%,80.000001%,82.352942%);fill-opacity:1;" d="M 231.261719 203.894531 C 235.445312 201.023438 239.054688 198.070312 242.335938 194.214844 C 240.285156 190.277344 236.675781 185.847656 234.132812 183.632812 C 231.753906 187.820312 228.71875 191.34375 224.945312 194.378906 C 227.242188 197.25 229.539062 200.613281 231.261719 203.898438 "/>
<path style=" stroke:none;fill-rule:nonzero;fill:rgb(76.078433%,80.000001%,82.352942%);fill-opacity:1;" d="M 212.722656 247.621094 C 220.351562 246.71875 227.324219 244.09375 233.230469 239.089844 C 234.132812 235.726562 234.542969 232.199219 234.542969 228.753906 C 234.542969 225.308594 234.214844 222.105469 233.558594 218.828125 C 222.074219 224.324219 217.316406 236.464844 212.722656 247.621094 "/>
<path style=" stroke:none;fill-rule:nonzero;fill:rgb(76.078433%,80.000001%,82.352942%);fill-opacity:1;" d="M 237.824219 230.96875 C 237.824219 232.117188 237.824219 233.265625 237.742188 234.414062 C 242.171875 228.34375 244.632812 223.09375 245.945312 215.382812 C 242.664062 215.710938 239.464844 216.203125 236.347656 217.269531 C 237.414062 221.863281 237.824219 226.375 237.824219 230.96875 "/>
<path style=" stroke:none;fill-rule:nonzero;fill:rgb(76.078433%,80.000001%,82.352942%);fill-opacity:1;" d="M 232.902344 207.015625 C 233.886719 209.3125 234.789062 211.691406 235.609375 214.070312 C 239.21875 212.921875 242.664062 212.265625 246.355469 212.101562 L 246.355469 211.28125 C 246.355469 206.359375 245.617188 202.503906 243.976562 197.828125 C 240.53125 201.355469 236.921875 204.308594 232.902344 207.015625 "/>
<path style=" stroke:none;fill-rule:nonzero;fill:rgb(76.078433%,80.000001%,82.352942%);fill-opacity:1;" d="M 246.273438 212.101562 C 242.582031 212.347656 239.054688 212.921875 235.527344 214.070312 C 234.707031 211.691406 233.886719 209.3125 232.820312 207.015625 C 236.921875 204.308594 240.53125 201.273438 243.894531 197.828125 C 245.539062 202.585938 246.191406 206.359375 246.273438 211.28125 L 246.273438 212.101562 "/>
<path style=" stroke:none;fill-rule:nonzero;fill:rgb(76.078433%,80.000001%,82.352942%);fill-opacity:1;" d="M 246.273438 212.101562 C 242.582031 212.347656 239.054688 212.921875 235.527344 214.070312 C 234.707031 211.691406 233.886719 209.3125 232.820312 207.015625 C 236.921875 204.308594 240.53125 201.273438 243.894531 197.828125 C 245.539062 202.585938 246.191406 206.359375 246.273438 211.28125 L 246.273438 212.101562 "/>
<path style=" stroke:none;fill-rule:nonzero;fill:rgb(76.078433%,80.000001%,82.352942%);fill-opacity:1;" d="M 234.132812 183.550781 C 236.675781 185.847656 240.285156 190.277344 242.335938 194.132812 C 239.054688 197.988281 235.445312 200.941406 231.261719 203.8125 C 229.457031 200.613281 227.160156 197.167969 225.027344 194.296875 C 228.71875 191.261719 231.753906 187.816406 234.132812 183.550781 "/>
<path style=" stroke:none;fill-rule:nonzero;fill:rgb(76.078433%,80.000001%,82.352942%);fill-opacity:1;" d="M 234.132812 183.550781 C 236.675781 185.847656 240.285156 190.277344 242.335938 194.132812 C 239.054688 197.988281 235.445312 200.941406 231.261719 203.8125 C 229.457031 200.613281 227.160156 197.167969 225.027344 194.296875 C 228.71875 191.261719 231.753906 187.816406 234.132812 183.550781 "/>
<path style=" stroke:none;fill-rule:nonzero;fill:rgb(76.078433%,80.000001%,82.352942%);fill-opacity:1;" d="M 182.863281 165.09375 C 213.378906 167.472656 225.601562 175.265625 232.082031 181.5 C 229.867188 185.519531 226.667969 188.71875 223.058594 191.59375 C 216.003906 183.714844 208.949219 179.121094 199.433594 175.265625 C 201.15625 174.9375 203.289062 174.691406 204.847656 174.527344 C 205.175781 174.609375 208.785156 175.265625 214.363281 177.398438 L 214.527344 177.070312 C 207.554688 172.230469 195.742188 168.128906 182.863281 165.09375 "/>
<path style=" stroke:none;fill-rule:nonzero;fill:rgb(76.078433%,80.000001%,82.352942%);fill-opacity:1;" d="M 182.863281 165.09375 C 213.378906 167.472656 225.601562 175.265625 232.082031 181.5 C 229.867188 185.519531 226.667969 188.71875 223.058594 191.59375 C 216.003906 183.714844 208.949219 179.121094 199.433594 175.265625 C 201.15625 174.9375 203.289062 174.691406 204.847656 174.527344 C 205.175781 174.609375 208.785156 175.265625 214.363281 177.398438 L 214.527344 177.070312 C 207.554688 172.230469 195.742188 168.128906 182.863281 165.09375 "/>
<path style=" stroke:none;fill-rule:nonzero;fill:rgb(76.078433%,80.000001%,82.352942%);fill-opacity:1;" d="M 175.890625 219.730469 L 173.59375 219.730469 C 172.855469 216.777344 172.527344 213.742188 172.527344 210.789062 C 172.527344 205.207031 173.757812 199.792969 176.21875 194.542969 C 185.570312 197.988281 194.839844 201.351562 204.191406 201.351562 C 210.261719 201.351562 216.25 199.875 222.320312 196.101562 C 224.617188 199.054688 226.832031 202.175781 228.636719 205.539062 C 213.132812 214.726562 193.9375 219.730469 175.890625 219.730469 "/>
<path style=" stroke:none;fill-rule:nonzero;fill:rgb(76.078433%,80.000001%,82.352942%);fill-opacity:1;" d="M 175.890625 219.730469 L 173.59375 219.730469 C 172.855469 216.777344 172.527344 213.742188 172.527344 210.789062 C 172.527344 205.207031 173.757812 199.792969 176.21875 194.542969 C 185.570312 197.988281 194.839844 201.351562 204.191406 201.351562 C 210.261719 201.351562 216.25 199.875 222.320312 196.101562 C 224.617188 199.054688 226.832031 202.175781 228.636719 205.539062 C 213.132812 214.726562 193.9375 219.730469 175.890625 219.730469 "/>
<path style=" stroke:none;fill-rule:nonzero;fill:rgb(76.078433%,80.000001%,82.352942%);fill-opacity:1;" d="M 209.03125 247.785156 C 193.28125 247.539062 180.320312 237.859375 174.660156 223.257812 L 175.234375 223.257812 C 194.347656 223.257812 213.542969 218.417969 230.113281 208.734375 C 231.015625 210.871094 231.835938 213.085938 232.492188 215.300781 C 219.695312 221.699219 214.035156 235.316406 209.03125 247.785156 "/>
<path style=" stroke:none;fill-rule:nonzero;fill:rgb(76.078433%,80.000001%,82.352942%);fill-opacity:1;" d="M 209.03125 247.785156 C 193.28125 247.539062 180.320312 237.859375 174.660156 223.257812 L 175.234375 223.257812 C 194.347656 223.257812 213.542969 218.417969 230.113281 208.734375 C 231.015625 210.871094 231.835938 213.085938 232.492188 215.300781 C 219.695312 221.699219 214.035156 235.316406 209.03125 247.785156 "/>
<path style=" stroke:none;fill-rule:nonzero;fill:rgb(76.078433%,80.000001%,82.352942%);fill-opacity:1;" d="M 237.742188 234.414062 C 237.824219 233.265625 237.824219 232.117188 237.824219 230.96875 C 237.824219 226.375 237.332031 221.863281 236.347656 217.269531 C 239.382812 216.285156 242.664062 215.710938 245.863281 215.382812 C 244.632812 223.175781 242.253906 228.425781 237.742188 234.414062 "/>
<path style=" stroke:none;fill-rule:nonzero;fill:rgb(76.078433%,80.000001%,82.352942%);fill-opacity:1;" d="M 237.742188 234.414062 C 237.824219 233.265625 237.824219 232.117188 237.824219 230.96875 C 237.824219 226.375 237.332031 221.863281 236.347656 217.269531 C 239.382812 216.285156 242.664062 215.710938 245.863281 215.382812 C 244.632812 223.175781 242.253906 228.425781 237.742188 234.414062 "/>
<path style=" stroke:none;fill-rule:nonzero;fill:rgb(76.078433%,80.000001%,82.352942%);fill-opacity:1;" d="M 220.351562 193.476562 C 215.019531 196.757812 209.523438 197.988281 204.109375 197.988281 C 195.414062 197.988281 186.636719 194.789062 178.023438 191.589844 C 179.582031 189.128906 181.222656 186.832031 183.191406 184.699219 L 183.683594 184.699219 C 189.261719 184.699219 198.203125 188.800781 202.714844 191.34375 L 202.960938 191.097656 C 190 175.675781 156.613281 173.132812 134.953125 173.132812 C 132.820312 173.132812 130.769531 173.132812 128.882812 173.214844 C 137.167969 171.082031 146.523438 170.015625 156.039062 170.015625 C 179.910156 170.015625 205.339844 177.152344 220.351562 193.476562 "/>
<path style=" stroke:none;fill-rule:nonzero;fill:rgb(76.078433%,80.000001%,82.352942%);fill-opacity:1;" d="M 220.351562 193.476562 C 215.019531 196.757812 209.523438 197.988281 204.109375 197.988281 C 195.414062 197.988281 186.636719 194.789062 178.023438 191.589844 C 179.582031 189.128906 181.222656 186.832031 183.191406 184.699219 L 183.683594 184.699219 C 189.261719 184.699219 198.203125 188.800781 202.714844 191.34375 L 202.960938 191.097656 C 190 175.675781 156.613281 173.132812 134.953125 173.132812 C 132.820312 173.132812 130.769531 173.132812 128.882812 173.214844 C 137.167969 171.082031 146.523438 170.015625 156.039062 170.015625 C 179.910156 170.015625 205.339844 177.152344 220.351562 193.476562 "/>
<path style=" stroke:none;fill-rule:nonzero;fill:rgb(76.078433%,80.000001%,82.352942%);fill-opacity:1;" d="M 233.148438 239.089844 C 227.242188 244.09375 220.269531 246.71875 212.640625 247.621094 C 217.234375 236.464844 221.992188 224.324219 233.476562 218.828125 C 234.050781 222.109375 234.460938 225.390625 234.460938 228.753906 C 234.460938 232.199219 234.050781 235.726562 233.148438 239.089844 "/>
<path style=" stroke:none;fill-rule:nonzero;fill:rgb(76.078433%,80.000001%,82.352942%);fill-opacity:1;" d="M 233.148438 239.089844 C 227.242188 244.09375 220.269531 246.71875 212.640625 247.621094 C 217.234375 236.464844 221.992188 224.324219 233.476562 218.828125 C 234.050781 222.109375 234.460938 225.390625 234.460938 228.753906 C 234.460938 232.199219 234.050781 235.726562 233.148438 239.089844 "/>
<path style=" stroke:none;fill-rule:nonzero;fill:rgb(76.078433%,80.000001%,82.352942%);fill-opacity:1;" d="M 203.042969 163.371094 L 209.6875 161.074219 L 214.691406 166.734375 L 214.117188 159.269531 L 220.597656 156.480469 L 213.542969 154.183594 L 212.476562 146.800781 L 208.785156 152.789062 L 201.730469 150.984375 L 206.40625 157.054688 Z M 203.042969 163.371094 "/>
<path style=" stroke:none;fill-rule:nonzero;fill:rgb(100%,100%,100%);fill-opacity:1;" d="M 167.769531 168.703125 L 172.363281 166.40625 L 176.21875 169.851562 L 175.480469 164.765625 L 179.910156 162.222656 L 174.824219 161.320312 L 173.757812 156.316406 L 171.378906 160.910156 L 166.210938 160.335938 L 169.820312 164.027344 Z M 167.769531 168.703125 "/>
<path style=" stroke:none;fill-rule:nonzero;fill:rgb(100%,100%,100%);fill-opacity:1;" d="M 116.003906 178.875 L 119.039062 177.398438 L 121.5 179.613281 L 121.089844 176.332031 L 123.960938 174.609375 L 120.597656 174.035156 L 119.941406 170.753906 L 118.382812 173.707031 L 115.019531 173.378906 L 117.316406 175.839844 Z M 116.003906 178.875 "/>
<path style=" stroke:none;fill-rule:nonzero;fill:rgb(4.313726%,46.666667%,74.117649%);fill-opacity:1;" d="M 230.605469 224.652344 L 230.605469 224.078125 L 226.339844 231.214844 L 227.570312 224.898438 L 227.242188 224.734375 C 221.007812 232.363281 218.628906 237.777344 216.660156 244.503906 L 216.578125 244.832031 L 216.90625 244.75 C 223.960938 242.289062 227.570312 239.5 229.046875 238.351562 C 230.113281 236.054688 230.605469 231.460938 230.605469 225.882812 C 230.605469 225.390625 230.605469 225.0625 230.605469 224.652344 "/>
<path style=" stroke:none;fill-rule:nonzero;fill:rgb(4.313726%,46.666667%,74.117649%);fill-opacity:1;" d="M 216.332031 208.082031 C 209.523438 209.476562 201.484375 210.296875 194.183594 210.296875 C 193.117188 210.296875 191.96875 210.296875 190.984375 210.214844 L 206.652344 205.539062 L 206.652344 205.210938 C 196.316406 204.71875 188.277344 204.554688 178.1875 199.796875 L 178.023438 199.714844 L 177.941406 199.878906 C 176.464844 202.585938 175.5625 206.359375 175.5625 210.214844 C 175.5625 212.429688 175.808594 214.5625 176.464844 216.613281 L 176.464844 216.695312 L 177.613281 216.695312 C 182.125 216.695312 200.746094 216.203125 216.414062 208.328125 Z M 216.332031 208.082031 "/>
<path style=" stroke:none;fill-rule:nonzero;fill:rgb(4.313726%,46.666667%,74.117649%);fill-opacity:1;" d="M 219.777344 220.796875 C 211.902344 226.703125 205.914062 231.460938 194.265625 233.59375 C 205.09375 228.015625 212.3125 224.078125 219.121094 217.1875 L 218.875 216.941406 C 206.816406 223.996094 191.066406 226.949219 179.992188 227.441406 L 179.664062 227.441406 L 179.828125 227.6875 C 188.933594 242.125 200.5 243.4375 204.273438 243.4375 C 205.09375 243.4375 205.503906 243.355469 205.503906 243.355469 L 205.585938 243.355469 L 205.667969 243.273438 C 210.589844 235.5625 213.707031 228.097656 220.023438 220.960938 Z M 219.777344 220.796875 "/>
<path style=" stroke:none;fill-rule:evenodd;fill:rgb(100%,100%,100%);fill-opacity:1;" d="M 240.203125 193.230469 C 239.136719 194.378906 238.152344 195.363281 237.167969 196.265625 C 236.019531 193.804688 234.707031 191.507812 233.148438 189.292969 C 233.96875 188.308594 234.707031 187.324219 235.445312 186.257812 C 237.414062 188.472656 239.054688 191.015625 240.203125 193.230469 M 244.304688 208.574219 C 243.074219 208.738281 241.925781 208.902344 240.859375 209.148438 C 240.613281 207.34375 240.285156 205.539062 239.792969 203.816406 C 241.023438 202.832031 242.171875 201.765625 243.320312 200.617188 C 244.058594 203.242188 244.304688 205.703125 244.304688 208.574219 M 240.449219 224.980469 L 240.449219 224.40625 C 240.941406 221.863281 241.269531 219.402344 241.351562 216.855469 C 242.007812 216.691406 242.664062 216.53125 243.402344 216.449219 C 242.582031 219.484375 241.679688 222.273438 240.449219 224.980469 M 211.65625 172.640625 C 211.082031 172.3125 210.507812 172.066406 209.933594 171.820312 C 219.285156 174.609375 225.601562 178.21875 229.128906 180.925781 C 228.554688 181.746094 227.980469 182.484375 227.324219 183.222656 C 222.976562 178.792969 217.726562 175.101562 211.65625 172.640625 "/>
</g>
</svg>
