<?xml version="1.0" encoding="UTF-8"?>
<svg xmlns="http://www.w3.org/2000/svg" xmlns:xlink="http://www.w3.org/1999/xlink" width="300px" height="300px" viewBox="0 0 300 300" version="1.1">
<g id="surface1">
<path style=" stroke:none;fill-rule:nonzero;fill:rgb(76.078433%,80.000001%,82.352942%);fill-opacity:1;" d="M 121.269531 208.765625 C 137.300781 205.328125 153.460938 206.410156 167.519531 214.554688 L 169.226562 209.304688 C 146.496094 199.355469 117.722656 199.71875 96.570312 215.820312 L 102.613281 196.460938 C 75.679688 206.410156 57.808594 227.398438 39.546875 248.742188 C 52.816406 205.6875 81.589844 170.410156 114.042969 157.386719 L 112.46875 164.621094 C 140.976562 151.777344 172.25 149.246094 197.472656 155.035156 L 191.5625 144.363281 L 206.144531 149.609375 L 215.472656 130.25 L 219.152344 154.128906 L 233.472656 160.460938 C 233.472656 160.460938 223.09375 166.433594 223.488281 166.792969 C 277.621094 197.367188 260.277344 299.398438 208.90625 299.757812 C 182.890625 300.121094 162.65625 267.738281 163.578125 233.910156 C 150.175781 221.96875 137.035156 216.179688 121.269531 208.765625 Z M 121.269531 208.765625 "/>
<path style=" stroke:none;fill-rule:nonzero;fill:rgb(76.078433%,80.000001%,82.352942%);fill-opacity:1;" d="M 111.023438 72.90625 L 111.023438 72.722656 C 111.210938 69.996094 112.152344 67.472656 113.648438 65.667969 C 115.136719 64.324219 116.863281 63.574219 118.640625 63.496094 C 118.640625 63.496094 120.21875 63.316406 121.664062 63.316406 L 126.394531 62.773438 L 126.394531 108.90625 L 122.320312 109.265625 C 119.824219 109.445312 118.378906 109.628906 115.621094 109.808594 L 111.023438 110.351562 Z M 88.292969 71.636719 C 88.132812 64.136719 89.953125 56.808594 93.417969 51.015625 C 97.207031 45.652344 102.3125 42.425781 107.738281 41.96875 C 118.773438 40.703125 129.941406 39.800781 140.976562 39.4375 L 149.125 39.257812 L 149.125 168.601562 L 148.992188 179.636719 L 140.847656 179.457031 C 139.402344 179.457031 128.496094 180 126.527344 180 L 126.261719 180 L 117.589844 181.265625 L 117.589844 180.90625 L 112.074219 181.265625 C 111.285156 181.265625 98.144531 183.074219 97.621094 183.257812 L 88.292969 185.425781 Z M 88.292969 71.636719 "/>
<path style=" stroke:none;fill-rule:nonzero;fill:rgb(76.078433%,80.000001%,82.352942%);fill-opacity:1;" d="M 289.839844 209.667969 C 289.839844 209.667969 278.933594 204.964844 277.359375 204.421875 C 277.226562 204.421875 277.226562 204.421875 277.226562 204.242188 C 272.234375 202.25 267.765625 200.625 264.613281 199.355469 L 258.832031 197.367188 C 247.824219 194.78125 239.96875 181.242188 240.570312 165.890625 L 240.570312 81.769531 C 240.570312 73.628906 242.410156 66.03125 246.746094 61.328125 C 249.5625 58.34375 253.046875 56.808594 256.597656 56.984375 C 258.542969 57.027344 260.476562 57.332031 262.378906 57.890625 C 263.167969 58.25 265.269531 58.976562 268.6875 60.242188 C 271.972656 61.507812 276.175781 63.316406 280.378906 64.945312 C 288.789062 68.199219 297.066406 71.457031 297.066406 71.457031 L 300.21875 72.722656 L 300.21875 129.890625 L 273.679688 118.492188 L 273.285156 114.875 C 273.285156 114.875 272.496094 108.179688 271.707031 102.03125 L 271.707031 166.070312 L 271.839844 166.433594 C 271.839844 166.433594 271.707031 166.613281 272.628906 166.976562 C 272.628906 166.976562 274.335938 167.519531 275.386719 167.878906 C 276.175781 163.71875 276.964844 159.195312 276.964844 159.195312 L 278.015625 152.863281 L 300.21875 161.910156 L 300.351562 213.648438 Z M 289.839844 209.667969 "/>
<path style=" stroke:none;fill-rule:nonzero;fill:rgb(76.078433%,80.000001%,82.352942%);fill-opacity:1;" d="M 0.132812 89.1875 C 0.21875 83.378906 1.96875 77.855469 4.992188 73.808594 C 7.28125 70.59375 10.066406 68.121094 13.140625 66.574219 C 25.359375 61.144531 42.699219 57.527344 43.488281 57.347656 L 48.085938 56.441406 C 50.09375 54.847656 52.265625 53.691406 54.527344 53.003906 C 60.4375 51.375 78.699219 46.671875 79.488281 46.492188 L 88.949219 43.960938 L 88.949219 175.476562 L 88.816406 185.246094 L 81.722656 186.332031 C 81.195312 186.332031 67.925781 189.589844 67.269531 189.769531 L 57.417969 192.84375 L 57.417969 171.496094 L 29.957031 180.542969 L 29.957031 202.070312 L 23.914062 204.058594 C 23.78125 204.058594 21.808594 204.964844 19.707031 205.871094 C 17.472656 206.773438 14.976562 207.859375 13.140625 208.582031 C 12.367188 208.832031 11.617188 209.195312 10.90625 209.667969 L 0 215.09375 L 0 89.1875 Z M 0.132812 89.1875 "/>
<path style=" stroke:none;fill-rule:nonzero;fill:rgb(76.078433%,80.000001%,82.352942%);fill-opacity:1;" d="M 231.242188 189.40625 L 230.976562 189.40625 C 230.847656 189.40625 230.714844 189.226562 230.582031 189.226562 C 230.003906 189.113281 229.433594 188.929688 228.875 188.683594 C 227.285156 188.453125 225.707031 188.09375 224.144531 187.597656 C 220.859375 186.875 217.3125 185.96875 217.050781 185.96875 L 213.765625 185.609375 L 209.957031 185.066406 L 209.957031 45.226562 L 218.628906 46.128906 C 219.546875 46.3125 221.386719 46.671875 224.144531 47.398438 C 226.773438 47.941406 229.925781 48.664062 232.027344 49.207031 C 233.09375 49.339844 234.144531 49.582031 235.183594 49.929688 L 241.226562 52.101562 L 241.226562 192.300781 Z M 231.242188 189.40625 "/>
<path style=" stroke:none;fill-rule:nonzero;fill:rgb(76.078433%,80.000001%,82.352942%);fill-opacity:1;" d="M 200.363281 183.074219 C 199.445312 182.894531 193.925781 182.171875 188.277344 181.445312 C 182.757812 180.90625 176.847656 180.363281 172.90625 180 L 168.832031 179.820312 C 162.917969 179.457031 157.796875 176.925781 154.117188 171.859375 C 150.4375 166.613281 148.730469 159.558594 148.730469 151.417969 L 148.730469 63.859375 C 148.730469 56.984375 150.175781 50.472656 153.722656 45.949219 C 158.058594 40.339844 163.3125 39.800781 166.597656 39.800781 L 170.144531 39.800781 C 171.195312 39.800781 172.640625 39.980469 174.746094 40.160156 L 177.109375 40.160156 L 176.976562 40.339844 C 179.34375 40.523438 182.101562 40.882812 185.914062 41.246094 C 198.261719 42.511719 201.546875 43.054688 203.386719 43.597656 C 203.976562 43.730469 204.550781 43.976562 205.09375 44.320312 L 209.695312 47.398438 L 209.695312 92.984375 L 183.417969 88.28125 L 182.757812 84.121094 C 182.757812 84.121094 182.101562 79.597656 181.445312 75.4375 L 180.261719 75.4375 L 180.394531 91.898438 L 180.394531 95.519531 L 182.234375 95.519531 C 183.378906 95.5 184.519531 95.621094 185.648438 95.878906 C 187.226562 96.058594 189.195312 96.242188 191.167969 96.421875 C 195.242188 96.964844 199.707031 97.6875 201.941406 98.050781 C 202.46875 98.011719 203 98.074219 203.519531 98.230469 L 209.824219 100.222656 L 209.695312 185.609375 Z M 200.363281 183.074219 "/>
<path style=" stroke:none;fill-rule:nonzero;fill:rgb(0%,0%,0%);fill-opacity:1;" d="M 117.195312 101.304688 C 118.242188 101.097656 119.292969 100.976562 120.351562 100.945312 L 120.351562 71.636719 C 119.957031 71.730469 119.5625 71.789062 119.167969 71.820312 C 118.25 71.820312 117.722656 72 117.589844 72.363281 C 117.328125 72.542969 117.328125 72.542969 117.195312 73.265625 Z M 90.917969 71.636719 C 90.789062 56.984375 97.359375 46.671875 108.132812 45.589844 C 119.035156 44.320312 130.203125 43.417969 141.242188 43.054688 L 146.628906 42.875 L 146.628906 176.019531 L 141.109375 175.839844 C 139.664062 175.839844 127.183594 176.382812 126.261719 176.742188 L 120.351562 177.46875 L 120.351562 128.441406 C 119.292969 128.472656 118.242188 128.59375 117.195312 128.804688 L 117.195312 170.59375 L 117.066406 177.648438 L 112.074219 177.828125 C 111.023438 177.828125 98.277344 179.636719 97.359375 180 L 91.050781 181.265625 Z M 90.917969 71.636719 "/>
<path style=" stroke:none;fill-rule:nonzero;fill:rgb(0%,0%,0%);fill-opacity:1;" d="M 290.757812 206.230469 C 290.757812 206.230469 281.167969 202.070312 278.539062 201.164062 C 278.277344 200.984375 278.144531 200.984375 278.015625 200.804688 C 272.628906 198.632812 267.765625 196.824219 264.480469 195.738281 L 259.359375 193.929688 C 248.976562 190.671875 243.066406 180.363281 243.195312 165.890625 L 243.195312 81.949219 C 243.195312 74.171875 244.773438 68.199219 248.320312 64.222656 C 250.667969 61.796875 253.535156 60.523438 256.46875 60.601562 C 258.238281 60.648438 260 60.949219 261.722656 61.507812 C 263.429688 62.050781 296.277344 75.074219 296.277344 75.074219 L 297.589844 75.4375 L 297.589844 125.003906 L 275.914062 115.777344 L 275.78125 114.332031 C 275.78125 114.332031 274.074219 99.859375 273.417969 93.707031 C 272.101562 93.164062 271.050781 92.804688 270.394531 92.621094 L 269.738281 92.261719 L 269.082031 91.898438 L 269.082031 166.070312 C 269.066406 166.773438 269.203125 167.464844 269.472656 168.058594 C 269.96875 169.292969 270.835938 170.15625 271.839844 170.410156 C 271.839844 170.410156 274.730469 171.496094 277.359375 172.402344 C 278.144531 167.515625 279.328125 160.101562 279.328125 160.101562 L 279.855469 157.566406 L 297.589844 164.984375 L 297.589844 209.125 Z M 290.757812 206.230469 "/>
<path style=" stroke:none;fill-rule:nonzero;fill:rgb(0%,0%,0%);fill-opacity:1;" d="M 2.757812 89.1875 C 3.023438 78.511719 9.589844 72 13.925781 70.011719 C 25.882812 64.765625 43.09375 61.144531 44.015625 60.964844 L 49.140625 59.699219 C 51.027344 58.210938 53.0625 57.117188 55.183594 56.441406 C 61.09375 54.8125 79.226562 50.109375 80.144531 49.75 L 86.453125 48.300781 L 86.453125 175.296875 L 86.320312 181.808594 L 81.589844 182.714844 C 80.539062 182.714844 67.796875 185.789062 66.875 186.152344 L 60.175781 188.140625 L 60.175781 85.386719 L 60.042969 85.386719 C 58.203125 86.109375 57.808594 86.652344 57.417969 89.546875 L 57.417969 167.699219 L 31.402344 176.199219 L 31.402344 94.25 C 31.289062 94.371094 31.148438 94.433594 31.007812 94.433594 C 30.046875 94.671875 29.148438 95.230469 28.378906 96.058594 C 27.789062 96.628906 27.484375 97.609375 27.589844 98.59375 L 27.589844 193.207031 L 27.460938 198.996094 L 23.386719 200.261719 C 22.46875 200.625 11.035156 205.507812 10.25 205.871094 L 2.890625 209.667969 L 2.890625 89.1875 Z M 2.757812 89.1875 "/>
<path style=" stroke:none;fill-rule:nonzero;fill:rgb(0%,0%,0%);fill-opacity:1;" d="M 231.765625 185.789062 C 230.847656 185.425781 218.101562 182.53125 217.183594 182.351562 L 213.898438 181.988281 L 212.320312 181.808594 L 212.320312 49.207031 L 218.234375 49.929688 C 219.679688 50.109375 232.949219 53.1875 234.394531 53.730469 L 238.46875 55.175781 L 238.46875 187.777344 Z M 231.765625 185.789062 "/>
<path style=" stroke:none;fill-rule:nonzero;fill:rgb(0%,0%,0%);fill-opacity:1;" d="M 177.765625 147.074219 C 177.816406 147.628906 177.90625 148.171875 178.027344 148.703125 C 178.160156 148.882812 178.421875 149.246094 179.738281 149.425781 C 180.179688 149.441406 180.617188 149.503906 181.050781 149.609375 L 181.050781 124.644531 C 180.265625 124.527344 179.476562 124.464844 178.6875 124.460938 L 177.765625 124.28125 Z M 200.757812 179.457031 C 198.261719 178.734375 181.050781 176.925781 173.167969 176.382812 L 168.964844 176.019531 C 163.578125 175.839844 159.109375 173.488281 156.085938 169.144531 C 153.066406 164.984375 151.488281 158.652344 151.488281 151.417969 L 151.488281 63.859375 C 151.488281 57.527344 152.804688 52.28125 155.5625 48.480469 C 159.109375 43.960938 163.707031 43.417969 166.730469 43.417969 L 170.144531 43.417969 C 172.378906 43.417969 176.582031 43.960938 185.648438 44.863281 C 198.132812 46.128906 201.417969 46.671875 202.992188 47.035156 C 203.351562 47.1875 203.703125 47.367188 204.042969 47.578125 L 207.195312 49.75 L 207.195312 89.003906 L 185.648438 85.023438 L 185.386719 83.398438 C 185.386719 83.398438 184.335938 76.339844 183.679688 72 L 182.496094 72 C 182.363281 72 179.082031 71.636719 179.082031 71.636719 L 178.554688 71.636719 C 178.285156 71.59375 178.011719 71.65625 177.765625 71.820312 L 177.765625 99.496094 L 182.234375 99.316406 L 182.363281 99.316406 C 183.417969 99.316406 188.144531 99.859375 192.875 100.402344 C 197.738281 100.945312 202.074219 101.667969 203.125 101.847656 L 207.328125 103.117188 L 207.195312 181.265625 Z M 200.757812 179.457031 "/>
<path style=" stroke:none;fill-rule:nonzero;fill:rgb(100%,100%,100%);fill-opacity:1;" d="M 123.242188 67.476562 L 123.242188 104.742188 C 121.007812 104.925781 116.671875 105.285156 114.175781 105.46875 L 114.175781 72.90625 C 114.4375 70.734375 114.964844 68.199219 118.90625 67.839844 C 118.90625 67.839844 121.269531 67.476562 123.242188 67.476562 Z M 141.242188 48.300781 L 141.242188 47.035156 C 130.203125 47.398438 119.300781 48.121094 108.394531 49.386719 C 99.066406 50.652344 93.808594 58.433594 93.941406 71.457031 L 93.941406 176.382812 L 96.699219 175.660156 C 97.621094 175.476562 111.023438 173.667969 111.808594 173.488281 L 114.042969 173.488281 L 114.042969 124.644531 C 116.277344 124.460938 120.613281 123.917969 123.109375 123.738281 L 123.109375 172.765625 L 125.867188 172.402344 C 126.527344 172.222656 139.007812 171.496094 140.847656 171.496094 L 140.976562 171.496094 L 142.554688 171.679688 L 143.472656 171.679688 L 143.472656 47.035156 L 140.976562 47.035156 Z M 141.242188 48.300781 "/>
<path style=" stroke:none;fill-rule:nonzero;fill:rgb(100%,100%,100%);fill-opacity:1;" d="M 294.699219 167.878906 L 282.085938 162.8125 L 281.957031 164.082031 C 281.957031 164.082031 280.378906 173.488281 279.722656 177.648438 C 274.730469 175.65625 272.496094 174.753906 271.3125 174.390625 C 269.488281 173.855469 267.914062 172.277344 266.976562 170.050781 C 266.527344 168.808594 266.261719 167.457031 266.191406 166.070312 L 266.191406 91.355469 C 266.222656 90.410156 266.402344 89.488281 266.714844 88.644531 C 266.976562 88.101562 267.371094 87.917969 268.160156 87.917969 C 268.738281 87.964844 269.308594 88.085938 269.867188 88.28125 L 270.132812 88.28125 C 270.261719 88.28125 272.363281 89.1875 276.042969 90.632812 C 276.570312 94.976562 278.539062 111.800781 278.539062 111.800781 L 278.539062 112.703125 L 294.570312 119.398438 L 294.570312 78.695312 L 293.914062 78.332031 C 293.914062 78.332031 262.640625 66.03125 260.933594 65.667969 C 259.433594 65.113281 257.890625 64.8125 256.335938 64.765625 C 254.070312 64.664062 251.847656 65.617188 250.027344 67.476562 C 247.269531 70.371094 245.957031 75.4375 245.957031 81.949219 L 245.957031 165.890625 C 245.824219 178.554688 250.6875 186.875 259.75 189.949219 L 260.277344 189.949219 C 261.328125 190.3125 270 193.566406 278.671875 196.824219 L 291.417969 202.25 L 294.4375 203.519531 Z M 294.699219 167.878906 "/>
<path style=" stroke:none;fill-rule:nonzero;fill:rgb(100%,100%,100%);fill-opacity:1;" d="M 55.707031 60.601562 C 52.476562 61.523438 49.507812 63.726562 47.167969 66.933594 L 47.167969 64.222656 L 44.410156 64.765625 C 43.621094 64.945312 26.410156 68.742188 14.847656 73.808594 C 11.167969 75.617188 5.914062 81.226562 5.78125 89.1875 L 5.78125 204.058594 L 9.066406 202.25 C 9.722656 201.890625 21.808594 196.824219 22.597656 196.460938 L 23.78125 196.101562 L 24.4375 195.917969 L 24.4375 98.59375 C 24.4375 93.707031 27.722656 91.539062 29.957031 90.453125 C 31.34375 89.992188 32.746094 89.628906 34.160156 89.367188 L 34.160156 171.136719 L 54.261719 164.625 L 54.261719 89.1875 C 54.789062 84.664062 56.234375 82.492188 59.253906 81.40625 C 59.78125 81.226562 61.488281 80.863281 63.066406 80.503906 L 63.066406 183.257812 L 66.085938 182.171875 C 66.746094 181.988281 80.277344 178.734375 81.195312 178.734375 L 82.511719 178.554688 L 83.429688 178.554688 L 83.429688 53.1875 L 80.539062 53.910156 C 80.539062 53.910156 61.621094 58.792969 55.707031 60.601562 Z M 55.707031 60.601562 "/>
<path style=" stroke:none;fill-rule:nonzero;fill:rgb(100%,100%,100%);fill-opacity:1;" d="M 217.972656 53.910156 L 216.261719 53.730469 L 215.34375 53.546875 L 215.34375 178.011719 L 216.132812 178.191406 L 217.578125 178.371094 C 218.234375 178.554688 231.765625 181.445312 232.554688 181.808594 L 235.578125 182.714844 L 235.578125 58.070312 L 233.738281 57.347656 C 232.554688 56.984375 219.152344 53.910156 217.972656 53.910156 Z M 217.972656 53.910156 "/>
<path style=" stroke:none;fill-rule:nonzero;fill:rgb(100%,100%,100%);fill-opacity:1;" d="M 182.363281 103.117188 L 182.234375 103.117188 L 180.789062 103.296875 L 180 103.296875 L 180 120.664062 L 180.789062 120.664062 C 180.789062 120.664062 182.628906 120.84375 183.941406 121.023438 L 183.941406 154.128906 C 181.972656 153.769531 179.472656 153.589844 179.472656 153.589844 C 177.847656 153.636719 176.316406 152.546875 175.402344 150.695312 C 174.980469 149.574219 174.753906 148.335938 174.746094 147.074219 L 174.746094 71.820312 C 174.695312 70.71875 174.929688 69.632812 175.402344 68.742188 C 176.234375 67.753906 177.332031 67.292969 178.421875 67.476562 L 179.472656 67.476562 C 179.867188 67.476562 182.101562 67.660156 186.042969 68.199219 C 186.570312 71.457031 188.015625 80.503906 188.015625 80.503906 L 188.144531 81.226562 L 204.304688 84.121094 L 204.304688 52.101562 L 202.859375 51.195312 C 202.203125 50.835938 201.546875 50.472656 185.386719 48.84375 C 175.796875 47.757812 171.722656 47.398438 169.882812 47.398438 L 166.597656 47.398438 C 163.972656 47.398438 160.292969 47.941406 157.664062 51.375 C 155.429688 54.269531 154.378906 58.433594 154.378906 63.859375 L 154.378906 151.417969 C 154.378906 164.082031 159.636719 171.679688 168.964844 172.039062 L 169.488281 172.039062 C 171.855469 172.039062 197.738281 174.574219 201.285156 175.476562 L 204.175781 176.199219 L 204.304688 106.191406 L 202.335938 105.648438 C 201.023438 105.285156 184.203125 103.117188 182.363281 103.117188 Z M 182.363281 103.117188 "/>
<path style=" stroke:none;fill-rule:nonzero;fill:rgb(4.313726%,46.666667%,74.117649%);fill-opacity:1;" d="M 292.203125 170.410156 L 283.796875 166.976562 L 281.300781 181.988281 C 275.914062 179.636719 270.394531 177.648438 270.394531 177.648438 C 267.914062 176.835938 265.808594 174.597656 264.613281 171.496094 C 263.953125 169.828125 263.59375 167.96875 263.5625 166.070312 L 263.5625 91.355469 C 263.546875 89.675781 263.914062 88.03125 264.613281 86.652344 C 265.402344 85.207031 267.109375 83.578125 270.394531 85.023438 C 273.015625 85.871094 275.601562 86.898438 278.144531 88.101562 L 280.640625 109.988281 L 292.074219 114.875 L 292.074219 81.226562 C 292.074219 81.226562 261.855469 69.285156 260.539062 68.742188 C 252.527344 66.03125 248.453125 70.554688 248.453125 81.949219 L 248.453125 165.890625 C 248.453125 177.285156 252.527344 183.980469 260.539062 186.695312 C 260.539062 186.511719 270.65625 190.3125 279.328125 193.75 L 292.203125 198.996094 Z M 44.804688 80.683594 L 44.804688 68.199219 C 44.804688 68.199219 27.195312 72 15.636719 77.246094 C 12.613281 78.511719 8.277344 83.214844 8.277344 89.367188 L 8.277344 199.355469 C 9.195312 198.8125 21.152344 193.75 22.074219 193.386719 L 22.074219 98.773438 C 22.074219 92.082031 26.015625 88.824219 29.429688 87.375 C 31.269531 86.652344 36.789062 85.566406 36.789062 85.566406 L 36.789062 166.976562 L 52.027344 161.910156 L 52.027344 89.003906 C 52.554688 83.214844 54.789062 79.417969 58.859375 78.152344 C 62.804688 77.246094 65.695312 76.703125 65.695312 76.703125 L 65.695312 178.914062 C 66.480469 178.554688 80.144531 175.476562 81.066406 175.296875 L 81.066406 57.164062 C 81.066406 57.164062 62.144531 62.050781 56.234375 63.679688 C 50.289062 65.667969 45.785156 72.367188 44.804688 80.683594 Z M 217.707031 175.117188 C 218.757812 175.117188 232.027344 178.191406 232.949219 178.554688 L 232.949219 60.785156 C 232.027344 60.421875 218.628906 57.347656 217.707031 57.347656 Z M 96.304688 71.636719 L 96.304688 172.402344 C 97.359375 172.222656 110.757812 170.410156 111.808594 170.410156 L 111.808594 121.566406 C 116.410156 121.023438 121.007812 120.664062 125.605469 120.300781 L 125.605469 169.144531 C 126.65625 168.964844 140.320312 168.242188 141.242188 168.242188 L 141.242188 50.292969 C 130.335938 50.652344 119.429688 51.558594 108.527344 52.824219 C 100.511719 53.910156 96.304688 60.421875 96.304688 71.636719 Z M 111.808594 72.90625 C 111.941406 70.554688 112.859375 65.125 118.640625 64.582031 C 121.007812 64.222656 123.242188 64.039062 125.605469 63.859375 L 125.605469 108 C 121.007812 108.363281 116.277344 108.90625 111.679688 109.265625 L 111.679688 72.90625 Z M 182.363281 117.589844 C 183.285156 117.589844 186.4375 117.949219 186.4375 117.949219 L 186.4375 157.566406 C 184.074219 157.386719 181.707031 157.023438 179.34375 156.84375 C 175.925781 156.480469 174.21875 154.3125 173.429688 152.320312 C 172.785156 150.71875 172.46875 148.90625 172.511719 147.074219 L 172.511719 91.898438 C 172.511719 81.40625 172.378906 73.628906 172.378906 72.90625 L 172.378906 71.820312 C 172.371094 69.914062 172.832031 68.0625 173.695312 66.574219 C 174.875 64.765625 176.847656 63.859375 179.472656 64.222656 C 179.472656 64.039062 183.417969 64.582031 188.144531 65.125 L 190.25 78.332031 L 201.941406 80.503906 L 201.941406 54.453125 C 201.023438 53.910156 169.359375 50.472656 169.359375 51.015625 L 168.832031 51.015625 C 166.203125 50.835938 162.132812 50.652344 159.503906 53.910156 C 157.796875 56.082031 157.007812 59.519531 157.007812 64.039062 L 157.007812 151.417969 C 157.007812 162.632812 161.082031 168.242188 169.359375 168.785156 C 169.359375 168.421875 197.867188 171.136719 201.941406 172.222656 C 201.941406 170.953125 202.074219 110.351562 202.074219 109.085938 C 201.023438 108.90625 183.546875 106.554688 182.628906 106.554688 L 182.628906 117.589844 Z M 182.363281 117.589844 "/>
<path style=" stroke:none;fill-rule:nonzero;fill:rgb(4.313726%,46.666667%,74.117649%);fill-opacity:1;" d="M 44.804688 80.683594 L 44.804688 68.199219 C 44.804688 68.199219 27.195312 72 15.636719 77.246094 C 12.613281 78.511719 8.277344 83.214844 8.277344 89.367188 L 8.277344 199.355469 C 9.195312 198.8125 21.152344 193.75 22.074219 193.386719 L 22.074219 98.773438 C 22.074219 92.261719 26.015625 88.824219 29.429688 87.375 C 31.269531 86.652344 36.789062 85.566406 36.789062 85.566406 L 36.789062 166.976562 L 52.027344 161.910156 L 52.027344 89.003906 C 52.25 83.667969 55.054688 79.207031 58.859375 78.152344 C 62.804688 77.246094 65.695312 76.703125 65.695312 76.703125 L 65.695312 178.914062 C 66.480469 178.554688 80.144531 175.476562 81.066406 175.296875 L 81.066406 57.164062 C 81.066406 57.164062 62.144531 62.050781 56.234375 63.679688 C 50.289062 65.667969 45.785156 72.367188 44.804688 80.683594 Z M 217.707031 175.117188 C 218.757812 175.117188 232.027344 178.191406 232.949219 178.554688 L 232.949219 60.601562 C 232.027344 60.242188 218.628906 57.347656 217.707031 57.164062 Z M 182.363281 117.589844 C 183.285156 117.589844 186.4375 117.949219 186.4375 117.949219 L 186.4375 157.566406 C 184.074219 157.386719 181.707031 157.023438 179.34375 156.84375 C 175.925781 156.480469 174.21875 154.3125 173.429688 152.320312 C 172.761719 150.722656 172.398438 148.917969 172.378906 147.074219 L 172.378906 91.898438 C 172.378906 81.40625 172.25 73.628906 172.25 72.90625 L 172.25 71.820312 C 172.238281 69.914062 172.703125 68.0625 173.5625 66.574219 C 174.746094 64.765625 176.714844 63.859375 179.34375 64.222656 C 179.34375 64.039062 183.285156 64.582031 188.015625 65.125 L 190.117188 78.332031 L 201.808594 80.503906 L 201.808594 54.453125 C 200.757812 53.910156 169.226562 50.472656 169.226562 51.015625 L 168.570312 51.015625 C 166.203125 50.835938 162 50.652344 159.371094 53.910156 C 157.664062 56.082031 156.875 59.519531 156.875 64.039062 L 156.875 151.417969 C 156.875 162.453125 160.949219 168.242188 169.226562 168.785156 C 169.226562 168.421875 197.738281 171.136719 201.808594 172.222656 L 201.808594 109.085938 C 200.890625 108.90625 183.417969 106.554688 182.363281 106.554688 Z M 182.363281 117.589844 "/>
<path style=" stroke:none;fill-rule:nonzero;fill:rgb(0%,0%,0%);fill-opacity:1;" d="M 98.015625 33.46875 C 98.003906 33.699219 97.90625 33.910156 97.75 34.011719 C 97.621094 34.371094 97.226562 34.554688 96.699219 34.734375 C 96.027344 34.773438 95.363281 34.957031 94.730469 35.277344 L 94.46875 35.277344 C 94.203125 35.277344 94.203125 35.09375 94.203125 35.09375 L 94.074219 14.292969 C 94.074219 14.292969 94.074219 14.109375 94.335938 13.75 C 94.617188 13.355469 94.988281 13.101562 95.386719 13.023438 C 95.914062 13.023438 96.570312 12.664062 97.09375 12.664062 C 97.226562 12.664062 97.359375 12.480469 97.488281 12.480469 C 97.632812 12.472656 97.773438 12.539062 97.882812 12.664062 Z M 103.269531 8.140625 C 102.894531 7.402344 102.332031 6.886719 101.695312 6.695312 C 101.242188 6.398438 100.746094 6.273438 100.25 6.332031 C 99.585938 6.363281 98.925781 6.484375 98.277344 6.695312 C 96.699219 7.054688 94.992188 7.597656 93.417969 7.777344 C 92.296875 8.035156 91.226562 8.589844 90.261719 9.40625 C 89.6875 9.925781 89.195312 10.605469 88.816406 11.398438 C 88.402344 12.453125 88.175781 13.632812 88.160156 14.835938 L 88.160156 36.722656 C 88.113281 37.824219 88.34375 38.910156 88.816406 39.800781 C 89.191406 40.535156 89.753906 41.050781 90.394531 41.246094 L 91.578125 41.246094 C 92.363281 41.246094 93.023438 41.066406 93.679688 41.066406 C 95.386719 40.523438 96.964844 40.160156 98.671875 39.800781 C 99.753906 39.453125 100.808594 38.96875 101.824219 38.351562 C 102.371094 37.78125 102.855469 37.113281 103.269531 36.363281 C 103.726562 35.394531 103.957031 34.257812 103.925781 33.105469 L 103.925781 11.214844 C 104.011719 10.113281 103.777344 9.003906 103.269531 8.140625 Z M 103.269531 8.140625 "/>
<path style=" stroke:none;fill-rule:nonzero;fill:rgb(0%,0%,0%);fill-opacity:1;" d="M 178.160156 3.800781 C 177.8125 3.019531 177.3125 2.390625 176.714844 1.988281 C 175.679688 1.347656 174.566406 0.980469 173.429688 0.90625 C 170.144531 0.542969 166.859375 0.363281 163.707031 0.363281 L 162.65625 0.363281 L 162.65625 33.46875 L 163.578125 33.46875 C 165.023438 33.648438 166.46875 33.648438 167.914062 33.828125 L 168.832031 33.828125 L 168.832031 5.96875 C 169.488281 5.96875 170.144531 6.152344 170.804688 6.152344 C 173.167969 6.511719 172.773438 7.597656 172.90625 7.777344 L 172.90625 34.011719 L 173.695312 34.011719 C 175.140625 34.191406 176.453125 34.371094 177.898438 34.554688 L 178.816406 34.734375 L 178.816406 6.875 C 178.929688 5.765625 178.691406 4.648438 178.160156 3.800781 Z M 178.160156 3.800781 "/>
<path style=" stroke:none;fill-rule:nonzero;fill:rgb(0%,0%,0%);fill-opacity:1;" d="M 192.085938 30.753906 C 191.785156 30.839844 191.476562 30.902344 191.167969 30.933594 C 190.941406 30.980469 190.707031 30.917969 190.511719 30.753906 C 189.757812 30.734375 189.011719 30.613281 188.277344 30.390625 L 188.277344 8.503906 C 188.933594 8.503906 189.589844 8.683594 190.25 8.683594 C 190.800781 8.785156 191.335938 9.03125 191.824219 9.40625 C 192.21875 9.769531 192.351562 9.949219 192.351562 10.855469 L 192.351562 29.847656 C 192.21875 30.574219 192.21875 30.574219 192.085938 30.753906 Z M 197.738281 6.875 C 197.3125 6.074219 196.777344 5.398438 196.160156 4.882812 C 195.191406 4.144531 194.113281 3.710938 193.007812 3.617188 C 191.695312 3.257812 184.992188 2.171875 183.285156 1.988281 L 182.234375 1.808594 L 182.234375 35.277344 L 183.023438 35.277344 C 186.304688 35.820312 189.589844 36.363281 192.746094 36.90625 C 193.21875 37.046875 193.703125 37.105469 194.191406 37.085938 C 194.769531 37.082031 195.34375 36.960938 195.898438 36.722656 C 196.550781 36.460938 197.140625 35.960938 197.605469 35.277344 C 198.117188 34.335938 198.394531 33.195312 198.394531 32.019531 L 198.394531 10.128906 C 198.378906 8.984375 198.152344 7.867188 197.738281 6.875 Z M 197.738281 6.875 "/>
<path style=" stroke:none;fill-rule:nonzero;fill:rgb(0%,0%,0%);fill-opacity:1;" d="M 117.066406 16.101562 C 117.066406 16.492188 116.972656 16.875 116.804688 17.1875 C 116.261719 17.578125 115.6875 17.882812 115.09375 18.089844 C 114.472656 18.109375 113.855469 18.230469 113.253906 18.453125 L 113.253906 9.046875 C 113.960938 9.015625 114.667969 8.894531 115.359375 8.683594 L 116.277344 8.683594 C 116.804688 8.683594 117.066406 8.683594 117.066406 8.863281 C 117.195312 9.046875 117.066406 8.863281 117.195312 9.226562 L 117.195312 14.835938 C 117.105469 15.242188 117.0625 15.671875 117.066406 16.101562 Z M 123.242188 34.011719 L 123.242188 22.976562 C 123.261719 21.734375 122.816406 20.570312 122.058594 19.898438 C 121.925781 19.898438 121.925781 19.71875 121.664062 19.71875 C 122.535156 18.980469 123.078125 17.6875 123.109375 16.28125 L 123.109375 7.777344 C 123.109375 6.605469 122.832031 5.460938 122.320312 4.523438 C 121.90625 3.839844 121.359375 3.339844 120.746094 3.074219 C 120.101562 2.839844 119.4375 2.71875 118.773438 2.714844 C 118.332031 2.691406 117.890625 2.753906 117.460938 2.894531 C 114.304688 3.4375 111.023438 3.980469 107.867188 4.523438 L 107.082031 4.703125 L 107.082031 37.988281 L 108.132812 37.808594 C 109.523438 37.46875 110.925781 37.226562 112.335938 37.085938 L 113.125 36.90625 L 113.125 23.878906 C 113.832031 23.835938 114.535156 23.714844 115.226562 23.519531 L 116.015625 23.519531 C 116.34375 23.464844 116.675781 23.597656 116.933594 23.878906 C 117.066406 23.878906 117.066406 24.058594 117.066406 24.601562 L 117.066406 36.179688 L 118.25 36 C 119.5625 35.820312 121.007812 35.636719 122.320312 35.457031 L 123.242188 35.277344 Z M 123.242188 34.011719 "/>
<path style=" stroke:none;fill-rule:nonzero;fill:rgb(0%,0%,0%);fill-opacity:1;" d="M 140.058594 26.59375 L 140.058594 22.25 L 139.140625 22.25 L 135.460938 22.613281 L 134.015625 28.582031 L 132.4375 28.582031 L 132.4375 0.90625 L 131.386719 0.90625 C 130.074219 1.085938 128.496094 1.265625 127.183594 1.445312 L 126.261719 1.445312 L 126.261719 34.914062 L 127.3125 34.734375 C 131.253906 34.371094 135.328125 34.011719 139.269531 33.828125 L 140.058594 33.828125 Z M 140.058594 26.59375 "/>
<path style=" stroke:none;fill-rule:nonzero;fill:rgb(0%,0%,0%);fill-opacity:1;" d="M 153.195312 15.375 L 149.125 15.375 L 149.125 6.695312 C 149.125 6.511719 149.125 6.332031 149.386719 5.96875 C 149.957031 5.574219 150.589844 5.386719 151.226562 5.425781 L 153.195312 5.425781 Z M 158.453125 0 L 148.597656 0 C 147.480469 -0.0703125 146.363281 0.175781 145.3125 0.722656 C 144.714844 1.117188 144.179688 1.667969 143.738281 2.351562 C 143.203125 3.34375 142.925781 4.554688 142.949219 5.789062 L 142.949219 33.46875 L 144 33.46875 C 145.3125 33.46875 146.757812 33.285156 148.203125 33.285156 L 149.125 33.285156 L 149.125 20.804688 L 153.195312 20.804688 L 153.195312 33.105469 L 154.117188 33.105469 C 155.429688 33.105469 157.007812 33.105469 158.320312 33.285156 L 159.371094 33.285156 L 159.371094 0 Z M 158.453125 0 "/>
<path style=" stroke:none;fill-rule:nonzero;fill:rgb(0%,0%,0%);fill-opacity:1;" d="M 211.007812 34.914062 L 211.007812 35.09375 C 210.898438 35.222656 210.757812 35.285156 210.613281 35.277344 C 210.46875 35.300781 210.324219 35.234375 210.21875 35.09375 C 209.574219 34.875 208.914062 34.753906 208.25 34.734375 C 207.722656 34.554688 207.328125 34.191406 207.328125 33.828125 L 207.195312 12.664062 L 208.117188 12.664062 C 208.640625 12.84375 209.300781 13.023438 209.824219 13.207031 C 210.207031 13.242188 210.570312 13.429688 210.875 13.75 C 211.027344 13.925781 211.082031 14.21875 211.007812 14.472656 Z M 216.394531 11.578125 C 216.054688 10.746094 215.554688 10.058594 214.949219 9.589844 C 213.992188 8.714844 212.921875 8.097656 211.796875 7.777344 C 210.21875 7.417969 208.511719 6.875 206.933594 6.511719 C 206.328125 6.367188 205.710938 6.308594 205.09375 6.332031 C 204.609375 6.292969 204.121094 6.355469 203.648438 6.511719 C 203.007812 6.710938 202.414062 7.148438 201.941406 7.777344 C 201.425781 8.785156 201.152344 9.984375 201.152344 11.214844 L 201.152344 33.105469 C 201.121094 34.257812 201.351562 35.394531 201.808594 36.363281 C 202.1875 37.152344 202.679688 37.832031 203.253906 38.351562 C 204.253906 39.023438 205.316406 39.511719 206.410156 39.800781 C 208.117188 40.160156 209.695312 40.523438 211.269531 41.066406 C 211.960938 41.265625 212.664062 41.386719 213.371094 41.425781 C 213.769531 41.457031 214.171875 41.394531 214.554688 41.246094 C 215.21875 41.125 215.824219 40.675781 216.261719 39.980469 C 216.753906 39.035156 216.984375 37.882812 216.917969 36.722656 L 216.917969 14.835938 C 216.933594 13.707031 216.753906 12.589844 216.394531 11.578125 Z M 216.394531 11.578125 "/>
<path style=" stroke:none;fill-rule:nonzero;fill:rgb(100%,100%,100%);fill-opacity:1;" d="M 116.015625 192.664062 L 119.035156 190.671875 L 121.664062 193.75 L 121.140625 189.226562 L 124.027344 186.875 L 120.746094 185.96875 L 119.957031 181.445312 L 118.378906 185.609375 L 115.09375 185.066406 L 117.460938 188.503906 Z M 116.015625 192.664062 "/>
<path style=" stroke:none;fill-rule:nonzero;fill:rgb(0%,0%,0%);fill-opacity:1;" d="M 218.101562 166.792969 C 221.125 164.984375 226.640625 161.730469 226.640625 161.730469 L 227.035156 161.546875 L 226.640625 161.367188 C 226.640625 161.367188 217.707031 157.207031 215.867188 156.480469 C 215.472656 153.589844 214.160156 140.199219 214.160156 140.199219 L 214.027344 139.660156 L 210.746094 146.894531 C 210.746094 146.894531 208.90625 151.054688 207.855469 153.226562 C 205.75 152.320312 196.554688 149.246094 196.554688 149.246094 L 196.027344 148.882812 L 196.421875 149.609375 C 196.421875 149.609375 200.101562 156.121094 202.335938 160.28125 C 191.753906 157.195312 180.960938 155.738281 170.144531 155.941406 C 166.074219 155.941406 161.867188 156.121094 157.402344 156.480469 C 140.683594 157.816406 124.1875 162.386719 108.394531 170.050781 L 110.234375 162.453125 L 109.839844 162.632812 C 85.140625 173.304688 58.074219 205.328125 46.117188 236.804688 L 46.378906 236.984375 C 63.195312 215.277344 86.191406 197.730469 106.6875 191.398438 L 101.300781 208.582031 L 101.695312 208.402344 C 111.152344 202.070312 123.765625 199.355469 136.378906 199.355469 C 149.386719 199.355469 162.394531 202.25 172.511719 207.316406 L 168.699219 218.894531 C 159.503906 213.105469 146.234375 209.304688 135.066406 209.304688 C 133.09375 209.304688 131.253906 209.304688 129.417969 209.488281 L 129.417969 210.03125 C 142.554688 215.09375 155.957031 220.882812 166.730469 232.644531 C 166.621094 233.902344 166.578125 235.171875 166.597656 236.441406 C 166.597656 267.375 186.042969 295.597656 209.035156 295.597656 L 209.5625 295.597656 C 234.65625 295.234375 253.445312 263.398438 253.445312 230.109375 C 253.3125 205.871094 243.195312 180.722656 218.101562 166.792969 Z M 218.101562 166.792969 "/>
<path style=" stroke:none;fill-rule:nonzero;fill:rgb(76.078433%,80.000001%,82.352942%);fill-opacity:1;" d="M 204.304688 223.777344 C 195.109375 223.777344 185.648438 219.074219 176.320312 214.371094 C 173.894531 221.378906 172.636719 229.042969 172.640625 236.804688 C 172.601562 240.949219 172.957031 245.085938 173.695312 249.105469 L 176.058594 249.105469 C 194.558594 249.039062 212.722656 242.304688 228.746094 229.566406 C 226.839844 225.050781 224.734375 220.699219 222.4375 216.542969 C 217.03125 221.328125 210.734375 223.84375 204.304688 223.777344 Z M 204.304688 223.777344 "/>
<path style=" stroke:none;fill-rule:nonzero;fill:rgb(76.078433%,80.000001%,82.352942%);fill-opacity:1;" d="M 175.402344 253.808594 L 174.746094 253.808594 C 180.394531 274.070312 193.402344 287.277344 209.167969 287.636719 C 214.292969 270.453125 219.808594 251.820312 232.6875 242.953125 C 232.027344 240.058594 231.242188 236.984375 230.320312 233.910156 C 213.613281 247.109375 194.664062 253.976562 175.402344 253.808594 Z M 175.402344 253.808594 "/>
<path style=" stroke:none;fill-rule:nonzero;fill:rgb(76.078433%,80.000001%,82.352942%);fill-opacity:1;" d="M 214.421875 190.855469 C 211.386719 189.046875 208.214844 187.710938 204.964844 186.875 C 203.386719 187.234375 201.152344 187.417969 199.445312 187.777344 C 209.035156 193.023438 216.132812 199.355469 223.09375 210.390625 C 226.75 206.609375 229.828125 201.878906 232.160156 196.460938 C 225.722656 187.777344 213.503906 177.105469 182.890625 173.847656 C 195.765625 178.011719 207.589844 183.800781 214.554688 190.492188 Z M 214.421875 190.855469 "/>
<path style=" stroke:none;fill-rule:nonzero;fill:rgb(76.078433%,80.000001%,82.352942%);fill-opacity:1;" d="M 128.890625 184.882812 L 134.933594 184.882812 C 156.613281 184.882812 189.984375 188.320312 202.992188 209.488281 L 202.730469 209.847656 C 198.261719 206.59375 189.328125 200.804688 183.679688 200.804688 L 183.285156 200.804688 C 181.316406 203.699219 179.558594 206.851562 178.027344 210.210938 C 186.699219 214.734375 195.503906 219.074219 204.175781 219.074219 C 209.917969 219.195312 215.570312 217.0625 220.46875 212.925781 C 205.359375 190.3125 180 180.363281 155.957031 180.363281 C 146.839844 180.441406 137.757812 181.957031 128.890625 184.882812 Z M 128.890625 184.882812 "/>
<path style=" stroke:none;fill-rule:nonzero;fill:rgb(76.078433%,80.000001%,82.352942%);fill-opacity:1;" d="M 231.371094 227.214844 C 235.535156 223.5 239.292969 218.996094 242.539062 213.828125 C 240.414062 208.378906 237.613281 203.480469 234.261719 199.355469 C 231.898438 205 228.777344 209.972656 225.066406 214.011719 C 227.480469 218.113281 229.59375 222.535156 231.371094 227.214844 Z M 231.371094 227.214844 "/>
<path style=" stroke:none;fill-rule:nonzero;fill:rgb(76.078433%,80.000001%,82.352942%);fill-opacity:1;" d="M 212.847656 287.457031 C 220.375 286.433594 227.511719 282.335938 233.34375 275.699219 C 234.238281 271.035156 234.683594 266.230469 234.65625 261.40625 C 234.675781 256.855469 234.367188 252.308594 233.738281 247.839844 C 222.175781 255.4375 217.445312 272.082031 212.847656 287.457031 Z M 212.847656 287.457031 "/>
<path style=" stroke:none;fill-rule:nonzero;fill:rgb(76.078433%,80.000001%,82.352942%);fill-opacity:1;" d="M 237.941406 264.480469 L 237.941406 269.1875 C 242.253906 261.554688 245.058594 252.519531 246.085938 242.953125 C 242.832031 243.40625 239.617188 244.3125 236.496094 245.667969 C 237.496094 251.84375 237.980469 258.15625 237.941406 264.480469 Z M 237.941406 264.480469 "/>
<path style=" stroke:none;fill-rule:nonzero;fill:rgb(76.078433%,80.000001%,82.352942%);fill-opacity:1;" d="M 233.082031 231.558594 C 234 234.632812 234.917969 237.890625 235.839844 241.144531 C 239.304688 239.703125 242.871094 238.792969 246.480469 238.433594 L 246.480469 237.347656 C 246.550781 231.046875 245.75 224.78125 244.117188 218.894531 C 240.777344 223.644531 237.078125 227.890625 233.082031 231.558594 Z M 233.082031 231.558594 "/>
<path style=" stroke:none;fill-rule:nonzero;fill:rgb(76.078433%,80.000001%,82.352942%);fill-opacity:1;" d="M 246.480469 238.433594 C 242.828125 238.792969 239.214844 239.703125 235.707031 241.144531 C 234.925781 237.878906 234.003906 234.675781 232.949219 231.558594 C 236.980469 227.882812 240.726562 223.640625 244.117188 218.894531 C 245.613281 224.832031 246.410156 231.0625 246.480469 237.347656 Z M 246.480469 238.433594 "/>
<path style=" stroke:none;fill-rule:nonzero;fill:rgb(76.078433%,80.000001%,82.352942%);fill-opacity:1;" d="M 234.261719 199.175781 C 237.582031 203.40625 240.378906 208.355469 242.539062 213.828125 C 239.257812 218.890625 235.5 223.328125 231.371094 227.035156 C 229.515625 222.519531 227.453125 218.167969 225.195312 214.011719 C 228.867188 209.890625 231.945312 204.859375 234.261719 199.175781 Z M 234.261719 199.175781 "/>
<path style=" stroke:none;fill-rule:nonzero;fill:rgb(76.078433%,80.000001%,82.352942%);fill-opacity:1;" d="M 183.023438 173.667969 C 213.503906 176.925781 225.722656 187.777344 232.292969 196.28125 C 229.957031 201.691406 226.878906 206.425781 223.226562 210.210938 C 216.792969 200.183594 208.671875 192.480469 199.578125 187.777344 C 201.351562 187.253906 203.152344 186.890625 204.964844 186.695312 C 208.222656 187.722656 211.425781 189.050781 214.554688 190.671875 L 214.6875 190.3125 C 207.722656 183.617188 195.898438 177.828125 183.023438 173.667969 Z M 183.023438 173.667969 "/>
<path style=" stroke:none;fill-rule:nonzero;fill:rgb(76.078433%,80.000001%,82.352942%);fill-opacity:1;" d="M 176.058594 249.105469 L 173.695312 249.105469 C 172.957031 245.023438 172.601562 240.828125 172.640625 236.625 C 172.636719 228.917969 173.894531 221.3125 176.320312 214.371094 C 185.648438 219.074219 194.976562 223.777344 204.304688 223.777344 C 210.722656 223.753906 217.007812 221.246094 222.4375 216.542969 C 224.851562 220.519531 226.964844 224.820312 228.746094 229.386719 C 212.734375 242.179688 194.570312 248.976562 176.058594 249.105469 Z M 176.058594 249.105469 "/>
<path style=" stroke:none;fill-rule:nonzero;fill:rgb(76.078433%,80.000001%,82.352942%);fill-opacity:1;" d="M 209.167969 287.636719 C 193.402344 287.277344 180.394531 274.070312 174.746094 253.808594 L 175.402344 253.808594 C 194.660156 253.953125 213.605469 247.085938 230.320312 233.910156 C 231.246094 236.855469 232.035156 239.875 232.6875 242.953125 C 219.808594 251.820312 214.160156 270.453125 209.167969 287.636719 Z M 209.167969 287.636719 "/>
<path style=" stroke:none;fill-rule:nonzero;fill:rgb(76.078433%,80.000001%,82.352942%);fill-opacity:1;" d="M 237.941406 269.1875 L 237.941406 264.480469 C 237.980469 258.15625 237.496094 251.84375 236.496094 245.667969 C 239.613281 244.296875 242.828125 243.386719 246.085938 242.953125 C 245.109375 252.539062 242.296875 261.59375 237.941406 269.1875 Z M 237.941406 269.1875 "/>
<path style=" stroke:none;fill-rule:nonzero;fill:rgb(76.078433%,80.000001%,82.352942%);fill-opacity:1;" d="M 220.46875 212.925781 C 215.617188 217.058594 210.007812 219.195312 204.304688 219.074219 C 195.503906 219.074219 186.699219 214.734375 178.160156 210.210938 C 179.644531 206.855469 181.359375 203.703125 183.285156 200.804688 L 183.808594 200.804688 C 189.328125 200.804688 198.394531 206.410156 202.859375 209.847656 L 203.125 209.488281 C 190.117188 188.320312 156.746094 184.882812 135.066406 184.882812 L 128.890625 184.882812 C 137.796875 181.929688 146.929688 180.472656 156.085938 180.542969 C 180 180.542969 205.488281 190.3125 220.46875 212.925781 Z M 220.46875 212.925781 "/>
<path style=" stroke:none;fill-rule:nonzero;fill:rgb(76.078433%,80.000001%,82.352942%);fill-opacity:1;" d="M 233.34375 275.699219 C 227.511719 282.335938 220.375 286.429688 212.847656 287.457031 C 217.445312 272.082031 222.175781 255.4375 233.605469 247.839844 C 234.28125 252.304688 234.632812 256.847656 234.65625 261.40625 C 234.683594 266.230469 234.238281 271.035156 233.34375 275.699219 Z M 233.34375 275.699219 "/>
<path style=" stroke:none;fill-rule:nonzero;fill:rgb(76.078433%,80.000001%,82.352942%);fill-opacity:1;" d="M 203.125 171.316406 L 209.824219 168.242188 L 214.816406 176.019531 L 214.292969 165.707031 L 220.730469 161.910156 L 213.636719 158.652344 L 212.582031 148.523438 L 208.90625 156.84375 L 201.808594 154.3125 L 206.539062 162.632812 Z M 203.125 171.316406 "/>
<path style=" stroke:none;fill-rule:nonzero;fill:rgb(100%,100%,100%);fill-opacity:1;" d="M 167.914062 178.734375 L 172.511719 175.476562 L 176.320312 180.363281 L 175.53125 173.304688 L 180 169.6875 L 174.875 168.601562 L 173.824219 161.546875 L 171.460938 167.878906 L 166.335938 167.15625 L 169.882812 172.222656 Z M 167.914062 178.734375 "/>
<path style=" stroke:none;fill-rule:nonzero;fill:rgb(100%,100%,100%);fill-opacity:1;" d="M 116.015625 192.664062 L 119.035156 190.671875 L 121.53125 193.75 L 121.140625 189.226562 L 124.027344 186.875 L 120.613281 185.96875 L 119.957031 181.445312 L 118.378906 185.609375 L 115.09375 185.066406 L 117.328125 188.503906 Z M 116.015625 192.664062 "/>
<path style=" stroke:none;fill-rule:nonzero;fill:rgb(4.313726%,46.666667%,74.117649%);fill-opacity:1;" d="M 230.714844 255.800781 L 230.714844 255.074219 L 226.511719 264.84375 L 227.695312 256.160156 L 227.429688 255.980469 C 221.125 266.472656 218.757812 273.890625 216.789062 283.117188 L 216.789062 283.660156 L 217.050781 283.476562 C 221.457031 281.484375 225.585938 278.488281 229.269531 274.613281 C 230.320312 271.539062 230.714844 265.207031 230.714844 257.425781 Z M 230.714844 255.800781 "/>
<path style=" stroke:none;fill-rule:nonzero;fill:rgb(4.313726%,46.666667%,74.117649%);fill-opacity:1;" d="M 216.527344 233.003906 C 209.207031 234.960938 201.773438 235.988281 194.320312 236.082031 C 193.269531 236.113281 192.214844 236.054688 191.167969 235.898438 L 206.804688 229.386719 L 206.804688 229.023438 C 196.421875 228.300781 188.410156 228.121094 178.292969 221.609375 L 178.160156 221.425781 L 178.027344 221.609375 C 176.449219 226.054688 175.640625 230.949219 175.664062 235.898438 C 175.636719 238.902344 175.949219 241.890625 176.582031 244.765625 L 177.765625 244.765625 C 182.234375 244.765625 200.890625 244.222656 216.527344 233.367188 Z M 216.527344 233.003906 "/>
<path style=" stroke:none;fill-rule:nonzero;fill:rgb(4.313726%,46.666667%,74.117649%);fill-opacity:1;" d="M 219.941406 250.554688 C 212.058594 258.695312 206.015625 265.207031 194.453125 268.101562 C 205.226562 260.503906 212.453125 255.074219 219.285156 245.488281 L 219.023438 245.125 C 206.933594 254.894531 191.167969 259.054688 180.132812 259.597656 L 179.738281 259.597656 L 180 259.960938 C 189.066406 279.859375 200.628906 281.667969 204.4375 281.667969 L 205.75 281.667969 L 205.75 281.488281 C 210.746094 270.8125 213.898438 260.503906 220.203125 250.734375 Z M 219.941406 250.554688 "/>
<path style=" stroke:none;fill-rule:evenodd;fill:rgb(100%,100%,100%);fill-opacity:1;" d="M 211.796875 184.160156 C 211.28125 183.652344 210.703125 183.285156 210.085938 183.074219 C 219.417969 186.875 225.722656 191.757812 229.269531 195.558594 C 228.730469 196.660156 228.113281 197.691406 227.429688 198.632812 C 222.960938 192.4375 217.648438 187.519531 211.796875 184.160156 Z M 240.570312 256.339844 L 240.570312 255.4375 C 241.132812 252.054688 241.441406 248.597656 241.488281 245.125 C 242.15625 244.753906 242.871094 244.570312 243.589844 244.582031 C 242.859375 248.628906 241.847656 252.566406 240.570312 256.339844 Z M 244.511719 233.730469 C 243.359375 233.855469 242.21875 234.09375 241.09375 234.453125 C 240.839844 231.941406 240.445312 229.460938 239.914062 227.035156 C 241.214844 225.785156 242.40625 224.328125 243.460938 222.695312 C 244.210938 226.277344 244.566406 230 244.511719 233.730469 Z M 240.4375 212.5625 C 239.253906 214.011719 238.335938 215.457031 237.285156 216.722656 C 236.230469 213.339844 234.910156 210.121094 233.34375 207.136719 C 234.132812 205.6875 234.917969 204.421875 235.578125 202.976562 C 237.488281 205.875 239.121094 209.09375 240.4375 212.5625 Z M 240.4375 212.5625 "/>
</g>
</svg>
