<?xml version="1.0" encoding="UTF-8"?>
<svg xmlns="http://www.w3.org/2000/svg" xmlns:xlink="http://www.w3.org/1999/xlink" width="300px" height="300px" viewBox="0 0 300 300" version="1.1">
<g id="surface1">
<path style=" stroke:none;fill-rule:nonzero;fill:rgb(100%,100%,100%);fill-opacity:1;" d="M 299.886719 149.941406 C 299.886719 232.753906 232.753906 299.886719 149.941406 299.886719 C 67.132812 299.886719 0 232.753906 0 149.941406 C 0 67.132812 67.132812 0 149.941406 0 C 232.761719 -0.015625 299.902344 67.125 299.886719 149.941406 "/>
<path style=" stroke:none;fill-rule:nonzero;fill:rgb(11.372549%,25.882354%,54.11765%);fill-opacity:1;" d="M 294.367188 149.941406 C 294.367188 229.707031 229.707031 294.367188 149.941406 294.367188 C 70.179688 294.367188 5.519531 229.707031 5.519531 149.941406 C 5.519531 70.179688 70.179688 5.519531 149.941406 5.519531 C 229.707031 5.519531 294.367188 70.179688 294.367188 149.941406 "/>
<path style=" stroke:none;fill-rule:nonzero;fill:rgb(100%,100%,100%);fill-opacity:1;" d="M 27.800781 174.570312 L 30.769531 183.992188 L 40.765625 183.992188 L 32.695312 189.875 L 35.613281 199.144531 L 27.800781 193.46875 L 19.886719 199.144531 L 22.855469 189.875 L 14.734375 183.992188 L 24.730469 183.992188 Z M 27.800781 174.570312 "/>
<path style=" stroke:none;fill-rule:nonzero;fill:rgb(100%,100%,100%);fill-opacity:1;" d="M 272.136719 174.570312 L 275.105469 183.992188 L 285.152344 183.992188 L 277.03125 189.875 L 280 199.144531 L 272.136719 193.46875 L 264.273438 199.144531 L 267.242188 189.875 L 259.121094 183.992188 L 269.066406 183.992188 Z M 272.136719 174.570312 "/>
<path style=" stroke:none;fill-rule:nonzero;fill:rgb(100%,100%,100%);fill-opacity:1;" d="M 62.890625 225.070312 L 65.859375 234.441406 L 75.855469 234.441406 L 67.734375 240.378906 L 70.703125 249.644531 L 62.890625 243.96875 L 54.980469 249.644531 L 57.945312 240.378906 L 49.824219 234.441406 L 59.820312 234.441406 Z M 62.890625 225.070312 "/>
<path style=" stroke:none;fill-rule:nonzero;fill:rgb(100%,100%,100%);fill-opacity:1;" d="M 240.324219 225.070312 L 243.292969 234.441406 L 253.289062 234.441406 L 245.21875 240.378906 L 248.1875 249.644531 L 240.324219 243.96875 L 232.410156 249.644531 L 235.433594 240.378906 L 227.308594 234.441406 L 237.253906 234.441406 Z M 240.324219 225.070312 "/>
<path style=" stroke:none;fill-rule:nonzero;fill:rgb(100%,100%,100%);fill-opacity:1;" d="M 117.609375 257.921875 L 120.527344 267.347656 L 130.574219 267.347656 L 122.453125 273.230469 L 125.421875 282.496094 L 117.609375 276.824219 L 109.699219 282.496094 L 112.664062 273.230469 L 104.542969 267.347656 L 114.539062 267.347656 Z M 117.609375 257.921875 "/>
<path style=" stroke:none;fill-rule:nonzero;fill:rgb(100%,100%,100%);fill-opacity:1;" d="M 184.097656 257.921875 L 187.0625 267.347656 L 197.058594 267.347656 L 188.9375 273.230469 L 191.90625 282.496094 L 184.097656 276.824219 L 176.183594 282.496094 L 179.152344 273.230469 L 171.027344 267.347656 L 181.027344 267.347656 Z M 184.097656 257.921875 "/>
<path style=" stroke:none;fill-rule:nonzero;fill:rgb(100%,100%,100%);fill-opacity:1;" d="M 258.234375 150.621094 C 258.234375 210.429688 209.75 258.910156 149.941406 258.910156 C 90.136719 258.910156 41.652344 210.429688 41.652344 150.621094 C 41.652344 90.8125 90.136719 42.328125 149.941406 42.328125 C 209.753906 42.320312 258.246094 90.808594 258.234375 150.621094 "/>
<path style=" stroke:none;fill-rule:nonzero;fill:rgb(11.372549%,25.882354%,54.11765%);fill-opacity:1;" d="M 48.105469 171.914062 C 59.878906 228.148438 114.996094 264.203125 171.238281 252.457031 C 198.328125 247.019531 222.054688 230.824219 236.992188 207.578125 C 251.917969 184.410156 257.222656 156.339844 251.777344 129.324219 C 239.996094 73.117188 184.933594 37.0625 128.699219 48.730469 C 72.421875 60.480469 36.332031 115.640625 48.105469 171.914062 "/>
<path style=" stroke:none;fill-rule:nonzero;fill:rgb(100%,100%,100%);fill-opacity:1;" d="M 185.347656 69.558594 C 185.710938 73.617188 183.785156 77.574219 179.722656 81.324219 C 160.199219 67.003906 141.613281 59.976562 123.390625 59.875 C 119.574219 59.875 115.761719 60.171875 111.988281 60.757812 C 117.800781 58.316406 123.832031 56.433594 130.003906 55.136719 C 146.03125 51.765625 162.648438 52.5 178.316406 57.269531 C 181.703125 60.550781 184.980469 64.820312 185.347656 69.558594 "/>
<path style=" stroke:none;fill-rule:nonzero;fill:rgb(100%,100%,100%);fill-opacity:1;" d="M 164.988281 237.617188 C 185.503906 218.769531 195.03125 178.421875 200.703125 154.316406 L 201.589844 150.566406 C 204.503906 138.28125 209.660156 129.117188 215.230469 123.652344 C 235.796875 155.617188 233.035156 188.625 227.828125 209.347656 C 209.367188 233.785156 180.519531 248.160156 149.890625 248.1875 C 155.386719 245.378906 160.46875 241.820312 164.988281 237.617188 "/>
<path style=" stroke:none;fill-rule:nonzero;fill:rgb(100%,100%,100%);fill-opacity:1;" d="M 202.265625 100.691406 C 210.597656 93.714844 217.261719 88.402344 222 84.914062 C 232.316406 96.195312 239.828125 109.753906 243.917969 124.484375 C 240.066406 119.328125 235.171875 114.4375 229.859375 113.34375 C 225.277344 112.40625 220.59375 113.707031 216.167969 116.832031 C 211.972656 111.089844 207.324219 105.691406 202.265625 100.691406 "/>
<path style=" stroke:none;fill-rule:nonzero;fill:rgb(100%,100%,100%);fill-opacity:1;" d="M 54.300781 146.246094 C 63.777344 120.839844 98.503906 110.425781 111.570312 106.523438 L 112.144531 106.367188 C 117.9375 104.855469 123.816406 103.671875 129.742188 102.824219 C 146.558594 99.960938 167.332031 96.421875 179.878906 87.050781 C 185.339844 91.226562 190.570312 95.691406 195.550781 100.429688 C 167.175781 124.535156 123.285156 165.042969 76.480469 214.761719 C 65.457031 202.179688 57.886719 186.949219 54.511719 170.558594 C 53.121094 164.023438 52.425781 157.355469 52.429688 150.671875 C 53.519531 148.070312 54.300781 146.246094 54.300781 146.246094 "/>
<path style=" stroke:none;fill-rule:nonzero;fill:rgb(100%,100%,100%);fill-opacity:1;" d="M 198.988281 97.515625 C 194.019531 92.765625 188.804688 88.285156 183.367188 84.082031 C 188.105469 79.449219 190.292969 74.449219 189.824219 69.140625 C 189.5 65.96875 188.390625 62.925781 186.59375 60.289062 C 198.628906 65.230469 209.578125 72.484375 218.824219 81.636719 C 213.929688 85.28125 207.210938 90.644531 198.988281 97.515625 "/>
<path style=" stroke:none;fill-rule:nonzero;fill:rgb(100%,100%,100%);fill-opacity:1;" d="M 176.078125 84.238281 C 164.3125 92.359375 144.839844 95.691406 128.960938 98.347656 C 122.863281 99.246094 116.816406 100.464844 110.84375 101.992188 L 110.269531 102.148438 C 97.722656 105.898438 66.171875 115.320312 53.15625 138.074219 C 55.058594 123.480469 60.238281 109.507812 68.308594 97.203125 C 75.242188 86.546875 84.105469 77.273438 94.441406 69.871094 C 117.558594 60.132812 143.488281 60.808594 176.078125 84.238281 "/>
<path style=" stroke:none;fill-rule:nonzero;fill:rgb(100%,100%,100%);fill-opacity:1;" d="M 228.921875 117.769531 C 235.742188 119.171875 243.03125 130.628906 246.519531 137.1875 C 249.5625 158.476562 245.402344 180.175781 234.703125 198.832031 C 235.222656 195.550781 235.640625 192.0625 235.953125 188.417969 C 237.886719 164.535156 231.824219 140.691406 218.71875 120.632812 C 222.257812 118.132812 225.800781 117.144531 228.921875 117.769531 "/>
<path style=" stroke:none;fill-rule:nonzero;fill:rgb(100%,100%,100%);fill-opacity:1;" d="M 198.832031 103.605469 C 203.894531 108.570312 208.511719 113.96875 212.628906 119.746094 C 205.964844 126.097656 200.289062 136.613281 197.214844 149.527344 L 196.332031 153.328125 C 190.761719 176.964844 181.441406 216.480469 161.96875 234.339844 C 155.464844 240.503906 147.597656 245.050781 139.007812 247.613281 C 123.839844 245.898438 109.285156 240.636719 96.527344 232.253906 C 90.34375 228.199219 84.632812 223.46875 79.5 218.144531 C 126.773438 167.851562 170.820312 127.398438 198.832031 103.605469 "/>
<path style=" stroke:none;fill-rule:nonzero;fill:rgb(100%,100%,100%);fill-opacity:1;" d="M 176.859375 179.566406 L 179.515625 178.839844 C 181.128906 178.421875 182.171875 177.902344 182.171875 175.558594 C 182.171875 173.632812 181.648438 170.144531 179.308594 170.144531 C 176.859375 170.144531 176.859375 174.308594 176.859375 176.546875 Z M 176.859375 179.566406 "/>
<path style=" stroke:none;fill-rule:nonzero;fill:rgb(100%,100%,100%);fill-opacity:1;" d="M 145.152344 178.109375 C 145.152344 169.777344 144.839844 162.59375 139.21875 162.59375 C 134.636719 162.59375 133.804688 169.777344 133.804688 178.109375 C 133.804688 186.441406 133.542969 193.675781 139.21875 193.675781 C 143.957031 193.625 145.152344 186.441406 145.152344 178.109375 "/>
<path style=" stroke:none;fill-rule:nonzero;fill:rgb(100%,100%,100%);fill-opacity:1;" d="M 176.859375 179.566406 L 179.515625 178.839844 C 181.128906 178.421875 182.171875 177.902344 182.171875 175.558594 C 182.171875 173.632812 181.648438 170.144531 179.308594 170.144531 C 176.859375 170.144531 176.859375 174.308594 176.859375 176.546875 Z M 176.859375 179.566406 "/>
<path style=" stroke:none;fill-rule:nonzero;fill:rgb(100%,100%,100%);fill-opacity:1;" d="M 133.125 159.003906 L 133.230469 159.003906 C 135.9375 154.785156 141.09375 152.753906 146.140625 152.753906 C 157.597656 152.753906 164.625 162.644531 164.625 175.921875 C 164.625 191.644531 153.953125 201.015625 140.78125 201.015625 C 120.527344 201.015625 113.132812 184.667969 113.132812 165.71875 C 113.132812 143.902344 122.609375 125.890625 146.195312 125.890625 C 155.410156 125.890625 162.957031 131.824219 162.957031 140.882812 C 163.03125 143.253906 162.113281 145.542969 160.421875 147.207031 C 158.730469 148.867188 156.421875 149.746094 154.054688 149.628906 C 147.703125 149.628906 145.671875 144.320312 144.738281 139.632812 C 144.371094 137.65625 145.101562 133.28125 141.820312 133.28125 C 134.949219 133.28125 133.855469 146.714844 133.542969 151.660156 Z M 133.125 159.003906 "/>
<path style=" stroke:none;fill-rule:nonzero;fill:rgb(100%,100%,100%);fill-opacity:1;" d="M 145.152344 178.109375 C 145.152344 169.777344 144.839844 162.59375 139.21875 162.59375 C 134.636719 162.59375 133.804688 169.777344 133.804688 178.109375 C 133.804688 186.441406 133.542969 193.675781 139.21875 193.675781 C 143.957031 193.625 145.152344 186.441406 145.152344 178.109375 "/>
<path style=" stroke:none;fill-rule:nonzero;fill:rgb(100%,100%,100%);fill-opacity:1;" d="M 22.335938 126.722656 C 26.1875 127.191406 27.75 129.898438 27.175781 134.898438 L 26.761719 138.542969 L 28.84375 138.800781 C 31.5 139.113281 32.488281 139.0625 32.800781 136.925781 L 35.246094 137.238281 L 34.101562 147.132812 L 31.65625 146.820312 C 31.863281 144.632812 30.875 144.371094 28.21875 144.058594 L 20.511719 143.175781 C 17.859375 142.863281 16.867188 142.914062 16.554688 145.050781 L 14.109375 144.738281 L 15.410156 133.90625 C 16.035156 128.597656 18.378906 126.253906 22.335938 126.722656 Z M 24.417969 137.238281 C 24.78125 133.960938 23.84375 132.1875 21.503906 131.929688 C 19.472656 131.667969 18.015625 132.96875 17.703125 135.417969 C 17.492188 137.136719 18.117188 137.5 19.992188 137.707031 L 24.261719 138.230469 C 24.3125 137.917969 24.367188 137.605469 24.417969 137.238281 Z M 24.417969 137.238281 "/>
<path style=" stroke:none;fill-rule:nonzero;fill:rgb(100%,100%,100%);fill-opacity:1;" d="M 36.808594 115.789062 C 37.589844 113.757812 36.757812 113.238281 34.308594 112.195312 L 27.175781 109.230469 C 24.730469 108.1875 23.742188 107.980469 22.855469 109.957031 L 20.566406 109.019531 L 24.417969 99.859375 L 26.65625 100.796875 C 25.875 102.824219 26.707031 103.347656 29.15625 104.386719 L 30.976562 105.167969 L 33.839844 98.296875 L 32.019531 97.515625 C 29.570312 96.472656 28.582031 96.265625 27.699219 98.242188 L 25.460938 97.308594 L 29.3125 88.144531 L 31.601562 89.082031 C 30.820312 91.109375 31.65625 91.632812 34.101562 92.671875 L 41.234375 95.640625 C 43.679688 96.683594 44.671875 96.890625 45.554688 94.910156 L 47.847656 95.847656 L 43.992188 105.011719 L 41.753906 104.074219 C 42.535156 102.042969 41.703125 101.523438 39.253906 100.484375 L 36.132812 99.179688 L 33.269531 106.054688 L 36.390625 107.355469 C 38.839844 108.394531 39.828125 108.605469 40.714844 106.625 L 42.953125 107.5625 L 39.101562 116.726562 Z M 36.808594 115.789062 "/>
<path style=" stroke:none;fill-rule:nonzero;fill:rgb(100%,100%,100%);fill-opacity:1;" d="M 46.386719 67.109375 C 45.140625 68.878906 45.816406 69.609375 47.949219 71.222656 L 54.144531 75.855469 C 56.28125 77.46875 57.164062 77.886719 58.519531 76.222656 L 60.496094 77.679688 L 54.5625 85.59375 L 52.585938 84.132812 C 53.832031 82.363281 53.15625 81.636719 50.96875 80.023438 L 44.773438 75.386719 C 42.640625 73.773438 41.753906 73.304688 40.402344 75.023438 L 38.421875 73.566406 L 44.359375 65.652344 Z M 46.386719 67.109375 "/>
<path style=" stroke:none;fill-rule:nonzero;fill:rgb(100%,100%,100%);fill-opacity:1;" d="M 68.777344 68.253906 L 67.214844 66.382812 C 68.828125 64.921875 68.308594 64.089844 66.589844 62.058594 L 61.589844 56.125 C 59.871094 54.09375 59.144531 53.417969 57.425781 54.769531 L 55.863281 52.898438 L 63.464844 46.542969 L 65.027344 48.417969 C 63.414062 49.875 63.882812 50.710938 65.601562 52.792969 L 71.171875 59.40625 C 72.472656 60.914062 73.046875 61.175781 74.605469 59.871094 C 76.691406 58.101562 77.574219 54.980469 76.847656 51.023438 L 79.03125 50.554688 L 81.269531 57.84375 Z M 68.777344 68.253906 "/>
<path style=" stroke:none;fill-rule:nonzero;fill:rgb(100%,100%,100%);fill-opacity:1;" d="M 92.359375 50.085938 L 91.320312 47.847656 C 93.195312 46.699219 93.089844 45.453125 93.039062 43.265625 L 92.515625 27.90625 L 96.683594 26.03125 L 108.136719 37.226562 C 109.4375 38.476562 110.167969 39.101562 111.832031 38.527344 L 112.875 40.765625 L 103.816406 44.878906 L 102.824219 42.691406 C 104.285156 42.015625 104.75 41.496094 104.386719 40.714844 C 104.261719 40.441406 104.085938 40.191406 103.867188 39.984375 L 101.785156 37.902344 L 95.953125 40.558594 L 96.316406 43.421875 C 96.339844 43.636719 96.390625 43.847656 96.472656 44.046875 C 96.890625 44.929688 97.722656 44.984375 99.128906 44.359375 L 100.117188 46.542969 Z M 99.753906 36.078125 L 95.484375 31.5 L 95.847656 37.902344 Z M 99.753906 36.078125 "/>
<path style=" stroke:none;fill-rule:nonzero;fill:rgb(100%,100%,100%);fill-opacity:1;" d="M 122.972656 35.246094 C 125.109375 34.882812 125.160156 33.894531 124.796875 31.238281 L 123.703125 23.585938 C 123.339844 20.929688 123.027344 19.992188 120.839844 20.253906 L 120.476562 17.804688 L 130.472656 16.398438 C 138.175781 15.308594 142.757812 18.328125 143.695312 24.679688 C 144.582031 31.082031 141.039062 35.195312 133.335938 36.339844 L 123.339844 37.746094 Z M 130.160156 31.707031 C 130.417969 33.683594 130.785156 34.207031 132.867188 33.894531 C 136.824219 33.320312 139.007812 30.195312 138.28125 25.40625 C 137.605469 20.617188 134.6875 18.222656 130.679688 18.796875 C 128.597656 19.105469 128.441406 19.679688 128.699219 21.660156 Z M 130.160156 31.707031 "/>
<path style=" stroke:none;fill-rule:nonzero;fill:rgb(100%,100%,100%);fill-opacity:1;" d="M 157.910156 32.332031 C 160.042969 32.589844 160.40625 31.65625 160.773438 29 L 161.867188 21.347656 C 162.230469 18.691406 162.230469 17.703125 160.09375 17.335938 L 160.460938 14.890625 L 176.964844 17.285156 L 178.785156 23.6875 L 176.808594 24.367188 C 175.195312 21.035156 172.902344 19.105469 169.832031 18.691406 C 167.851562 18.378906 167.488281 18.949219 167.226562 20.878906 L 166.8125 23.742188 L 167.75 23.898438 C 169.832031 24.210938 170.457031 23.636719 170.925781 21.191406 L 173.007812 21.503906 L 171.707031 30.457031 L 169.621094 30.144531 C 169.675781 27.800781 169 26.605469 167.382812 26.394531 L 166.445312 26.238281 L 165.769531 30.875 C 165.511719 32.800781 165.667969 33.425781 167.695312 33.683594 C 170.613281 34.101562 174.046875 32.695312 176.753906 29.46875 L 178.472656 30.769531 L 174.464844 37.171875 L 157.542969 34.675781 Z M 157.910156 32.332031 "/>
<path style=" stroke:none;fill-rule:nonzero;fill:rgb(100%,100%,100%);fill-opacity:1;" d="M 189.042969 41.128906 L 190.03125 38.890625 C 192.0625 39.722656 192.582031 38.890625 193.675781 36.390625 L 196.800781 29.3125 C 197.894531 26.863281 198.152344 25.925781 196.175781 24.992188 L 197.164062 22.75 L 206.222656 26.707031 L 205.234375 28.949219 C 203.203125 28.113281 202.683594 28.949219 201.589844 31.394531 L 198.101562 39.308594 C 197.320312 41.128906 197.371094 41.753906 199.246094 42.589844 C 201.746094 43.679688 204.972656 43.109375 208.148438 40.660156 L 209.554688 42.378906 L 204.035156 47.636719 Z M 189.042969 41.128906 "/>
<path style=" stroke:none;fill-rule:nonzero;fill:rgb(100%,100%,100%);fill-opacity:1;" d="M 240.011719 55.863281 C 237.566406 58.882812 234.441406 58.78125 230.484375 55.605469 L 227.621094 53.3125 L 226.320312 54.925781 C 224.652344 57.007812 224.132812 57.894531 225.800781 59.300781 L 224.238281 61.226562 L 216.53125 54.980469 L 218.09375 53.054688 C 219.8125 54.355469 220.59375 53.730469 222.257812 51.648438 L 227.101562 45.609375 C 228.765625 43.523438 229.234375 42.640625 227.621094 41.234375 L 229.183594 39.308594 L 237.671875 46.179688 C 241.78125 49.460938 242.511719 52.742188 240.011719 55.863281 Z M 229.964844 51.960938 C 232.515625 54.042969 234.546875 54.144531 236.003906 52.324219 C 237.304688 50.710938 236.992188 48.835938 235.066406 47.273438 C 233.714844 46.179688 233.089844 46.492188 231.890625 47.949219 L 229.183594 51.28125 C 229.496094 51.542969 229.757812 51.75 229.964844 51.960938 Z M 229.964844 51.960938 "/>
<path style=" stroke:none;fill-rule:nonzero;fill:rgb(100%,100%,100%);fill-opacity:1;" d="M 241.523438 73.929688 C 242.824219 75.699219 243.710938 75.285156 245.894531 73.722656 L 252.246094 69.296875 C 254.433594 67.785156 255.164062 67.058594 253.964844 65.234375 L 255.996094 63.828125 L 261.671875 71.953125 L 259.691406 73.359375 C 258.390625 71.585938 257.507812 72.003906 255.320312 73.566406 L 253.707031 74.710938 L 257.976562 80.800781 L 259.589844 79.65625 C 261.777344 78.148438 262.503906 77.417969 261.308594 75.597656 L 263.285156 74.191406 L 268.960938 82.3125 L 266.929688 83.71875 C 265.628906 81.949219 264.742188 82.363281 262.554688 83.925781 L 256.203125 88.351562 C 254.019531 89.863281 253.289062 90.589844 254.488281 92.414062 L 252.457031 93.820312 L 246.78125 85.695312 L 248.757812 84.289062 C 250.0625 86.0625 250.945312 85.644531 253.132812 84.082031 L 255.890625 82.15625 L 251.625 76.066406 L 248.863281 77.992188 C 246.675781 79.5 245.949219 80.230469 247.144531 82.050781 L 245.167969 83.457031 L 239.492188 75.335938 Z M 241.523438 73.929688 "/>
<path style=" stroke:none;fill-rule:nonzero;fill:rgb(100%,100%,100%);fill-opacity:1;" d="M 277.601562 108.03125 C 276.769531 106 275.78125 106.210938 273.28125 107.148438 L 266.042969 109.90625 C 263.546875 110.84375 262.710938 111.363281 263.390625 113.445312 L 261.097656 114.332031 L 257.558594 105.0625 L 259.847656 104.179688 C 260.683594 106.210938 261.671875 105.949219 264.171875 105.011719 L 271.40625 102.253906 C 273.90625 101.316406 274.792969 100.796875 274.0625 98.765625 L 276.351562 97.878906 L 279.894531 107.148438 Z M 277.601562 108.03125 "/>
<path style=" stroke:none;fill-rule:nonzero;fill:rgb(100%,100%,100%);fill-opacity:1;" d="M 264.640625 125.210938 L 267.085938 124.902344 C 267.605469 127.035156 268.855469 127.296875 270.9375 127.867188 L 285.777344 131.875 L 286.347656 136.40625 L 272.292969 144.058594 C 270.679688 144.945312 269.898438 145.414062 269.949219 147.234375 L 267.503906 147.546875 L 266.199219 137.707031 L 268.597656 137.394531 L 268.597656 137.605469 C 268.75 138.957031 269.167969 139.582031 270 139.476562 C 270.3125 139.421875 270.609375 139.316406 270.886719 139.164062 L 273.488281 137.761719 L 272.65625 131.410156 L 269.792969 130.886719 C 269.570312 130.84375 269.34375 130.828125 269.117188 130.835938 C 268.179688 130.941406 267.867188 131.773438 268.023438 133.28125 L 265.628906 133.59375 Z M 275.882812 136.355469 L 281.507812 133.59375 L 275.3125 132.085938 Z M 275.882812 136.355469 "/>
<path style=" stroke:none;fill-rule:nonzero;fill:rgb(100%,100%,100%);fill-opacity:1;" d="M 210.804688 163.269531 C 208.804688 163.273438 206.902344 164.148438 205.597656 165.667969 C 205.441406 165.355469 205.339844 165.042969 205.183594 164.78125 L 204.089844 162.644531 L 188.523438 167.226562 L 188.523438 175.765625 L 191.386719 175.765625 C 191.644531 175.765625 191.800781 175.820312 191.855469 175.765625 C 192.222656 176.945312 192.347656 178.183594 192.21875 179.410156 L 192.21875 189.304688 L 189.355469 189.71875 L 189.355469 199.089844 L 210.910156 199.089844 L 210.910156 189.71875 L 208.097656 189.304688 L 208.097656 186.386719 C 208.164062 184.128906 208.425781 181.882812 208.878906 179.671875 C 209.789062 179.957031 210.738281 180.097656 211.691406 180.085938 C 215.542969 180.085938 218.25 176.597656 218.25 171.652344 C 218.300781 166.65625 215.28125 163.269531 210.804688 163.269531 Z M 210.804688 163.269531 "/>
<path style=" stroke:none;fill-rule:nonzero;fill:rgb(100%,100%,100%);fill-opacity:1;" d="M 237.828125 173.214844 C 237.671875 172.78125 237.582031 172.324219 237.566406 171.863281 C 237.566406 169.3125 236.523438 163.375 227.101562 163.375 C 221.894531 163.375 211.636719 167.382812 211.636719 176.703125 C 211.550781 179.515625 212.433594 182.273438 214.136719 184.511719 C 211.949219 185.914062 210.679688 188.375 210.804688 190.96875 C 210.804688 194.300781 212.472656 199.925781 223.769531 199.925781 C 233.453125 199.925781 238.972656 194.925781 238.972656 186.179688 C 239.023438 177.847656 238.292969 175.089844 237.828125 173.214844 Z M 237.828125 173.214844 "/>
<path style=" stroke:none;fill-rule:nonzero;fill:rgb(100%,100%,100%);fill-opacity:1;" d="M 123.910156 123.128906 C 123.324219 122.445312 122.46875 122.046875 121.566406 122.035156 C 120.164062 122.035156 119.015625 122.921875 117.664062 124.378906 C 112.984375 129.269531 106.46875 131.972656 99.703125 131.824219 C 90.332031 131.824219 80.4375 127.503906 72.578125 120.007812 C 71.96875 119.402344 71.144531 119.066406 70.285156 119.070312 C 66.433594 119.070312 65.445312 125.210938 65.445312 125.316406 L 65.445312 156.191406 L 67.890625 156.554688 C 76.089844 157.96875 84.492188 157.667969 92.570312 155.667969 C 84.65625 162.75 66.847656 182.015625 67.109375 200.339844 C 67.160156 203.722656 69.246094 204.089844 70.128906 204.089844 C 71.007812 204.074219 71.847656 203.71875 72.472656 203.101562 C 72.628906 202.996094 72.785156 202.839844 72.941406 202.734375 C 76.320312 200.625 80.257812 199.589844 84.238281 199.769531 C 87.839844 199.71875 91.410156 200.445312 94.703125 201.902344 C 95.292969 202.226562 95.957031 202.40625 96.628906 202.421875 C 97.5 202.429688 98.328125 202.070312 98.921875 201.433594 C 99.667969 200.496094 99.953125 199.273438 99.703125 198.101562 C 98.398438 184.773438 101.316406 170.246094 106.992188 161.867188 L 107.824219 160.617188 C 112.664062 153.484375 122.714844 138.59375 124.589844 126.304688 C 124.859375 125.199219 124.609375 124.03125 123.910156 123.128906 Z M 123.910156 123.128906 "/>
<path style=" stroke:none;fill-rule:nonzero;fill:rgb(100%,100%,100%);fill-opacity:1;" d="M 195.601562 182.117188 L 195.445312 179.773438 C 195.363281 178.300781 195.136719 176.835938 194.769531 175.402344 L 194.664062 172.695312 L 194.144531 173.476562 C 192.140625 167.335938 186.390625 163.207031 179.929688 163.269531 C 169.933594 163.269531 162.957031 171.183594 162.957031 182.484375 C 162.957031 191.175781 168.0625 199.925781 179.359375 199.925781 C 185.6875 200.011719 191.597656 196.769531 194.925781 191.386719 L 195.34375 190.65625 L 195.03125 182.273438 Z M 183.472656 187.53125 C 182.484375 187.503906 181.597656 186.917969 181.179688 186.023438 L 186.699219 184.511719 C 185.847656 185.734375 184.746094 186.761719 183.472656 187.53125 Z M 183.472656 187.53125 "/>
<path style=" stroke:none;fill-rule:nonzero;fill:rgb(100%,100%,100%);fill-opacity:1;" d="M 158.378906 154.785156 C 157.804688 154.003906 157.179688 153.066406 156.660156 152.285156 C 162.132812 151.335938 166.066406 146.488281 165.875 140.9375 C 165.875 130.730469 157.441406 123.078125 146.246094 123.078125 C 123.753906 123.078125 110.269531 139.0625 110.269531 165.769531 C 110.269531 190.03125 121.414062 203.933594 140.78125 203.933594 C 156.503906 203.933594 167.488281 192.425781 167.488281 175.976562 C 167.539062 167.75 162.023438 159.9375 158.378906 154.785156 Z M 158.378906 154.785156 "/>
<path style=" stroke:none;fill-rule:nonzero;fill:rgb(11.372549%,25.882354%,54.11765%);fill-opacity:1;" d="M 183.523438 190.449219 C 180.035156 190.449219 177.953125 187.273438 177.640625 184.042969 L 192.636719 179.984375 C 192.21875 172.644531 187.949219 166.1875 179.984375 166.1875 C 171.496094 166.1875 165.875 172.800781 165.875 182.535156 C 165.875 190.136719 170.246094 197.058594 179.410156 197.058594 C 184.726562 197.171875 189.699219 194.457031 192.480469 189.929688 L 189.511719 186.386719 C 188.105469 188.679688 186.386719 190.449219 183.523438 190.449219 Z M 176.910156 176.597656 C 176.910156 174.359375 176.910156 170.195312 179.359375 170.195312 C 181.648438 170.195312 182.222656 173.683594 182.222656 175.609375 C 182.324219 176.402344 182.097656 177.199219 181.597656 177.820312 C 181.09375 178.4375 180.363281 178.824219 179.566406 178.890625 L 176.910156 179.621094 Z M 176.910156 176.597656 "/>
<path style=" stroke:none;fill-rule:nonzero;fill:rgb(11.372549%,25.882354%,54.11765%);fill-opacity:1;" d="M 208.148438 196.226562 L 192.324219 196.226562 L 192.324219 192.21875 L 195.1875 191.800781 L 195.1875 179.410156 C 195.1875 174.984375 194.613281 172.851562 191.4375 172.851562 L 191.4375 169.363281 L 202.683594 166.082031 C 203.855469 168.652344 204.492188 171.433594 204.558594 174.257812 L 204.660156 174.257812 C 205.808594 170.871094 207.210938 166.132812 210.855469 166.132812 C 214.085938 166.132812 215.492188 168.632812 215.492188 171.652344 C 215.492188 174.726562 214.136719 177.222656 211.792969 177.222656 C 210.5 177.140625 209.230469 176.820312 208.046875 176.285156 C 206.015625 175.609375 205.339844 184.511719 205.339844 186.386719 L 205.339844 191.800781 L 208.148438 192.21875 Z M 208.148438 196.226562 "/>
<path style=" stroke:none;fill-rule:nonzero;fill:rgb(11.372549%,25.882354%,54.11765%);fill-opacity:1;" d="M 234.753906 171.914062 C 234.753906 174.359375 232.621094 175.609375 230.382812 175.609375 C 227.714844 175.460938 225.542969 173.417969 225.226562 170.769531 C 224.082031 170.769531 223.25 171.339844 223.25 173.320312 C 223.25 177.902344 236.210938 174.621094 236.210938 186.230469 C 236.210938 194.925781 229.914062 197.113281 223.875 197.113281 C 220.175781 197.113281 213.773438 196.644531 213.773438 191.019531 C 213.773438 188.46875 215.179688 186.542969 217.730469 186.542969 C 221.632812 186.542969 222.3125 190.136719 222.988281 192.6875 C 223.171875 193.230469 223.722656 193.5625 224.289062 193.46875 C 226.371094 193.46875 227.882812 192.636719 227.882812 191.230469 C 227.882812 186.023438 214.605469 188.054688 214.605469 176.703125 C 214.605469 169.519531 223.09375 166.289062 227.207031 166.289062 C 231.839844 166.289062 234.753906 167.851562 234.753906 171.914062 "/>
<path style=" stroke:none;fill-rule:nonzero;fill:rgb(11.372549%,25.882354%,54.11765%);fill-opacity:1;" d="M 146.246094 152.804688 C 141.195312 152.804688 136.042969 154.835938 133.335938 159.054688 L 133.230469 159.054688 L 133.75 151.765625 C 134.0625 146.820312 135.15625 133.386719 142.027344 133.386719 C 145.308594 133.386719 144.582031 137.761719 144.945312 139.738281 C 145.828125 144.371094 147.859375 149.734375 154.265625 149.734375 C 156.628906 149.839844 158.933594 148.960938 160.621094 147.300781 C 162.308594 145.640625 163.230469 143.355469 163.167969 140.988281 C 163.167969 131.929688 155.617188 125.992188 146.402344 125.992188 C 122.816406 125.992188 113.34375 144.007812 113.34375 165.824219 C 113.34375 184.773438 120.683594 201.121094 140.988281 201.121094 C 154.160156 201.121094 164.832031 191.75 164.832031 176.027344 C 164.730469 162.699219 157.699219 152.804688 146.246094 152.804688 Z M 139.21875 193.675781 C 133.59375 193.675781 133.804688 186.441406 133.804688 178.109375 C 133.804688 169.777344 134.585938 162.59375 139.21875 162.59375 C 144.894531 162.59375 145.152344 169.777344 145.152344 178.109375 C 145.207031 186.441406 144.007812 193.675781 139.21875 193.675781 Z M 139.21875 193.675781 "/>
<path style=" stroke:none;fill-rule:nonzero;fill:rgb(78.431374%,6.27451%,18.039216%);fill-opacity:1;" d="M 68.308594 125.578125 L 68.308594 153.691406 C 84.03125 156.035156 102.824219 154.472656 116.152344 135.054688 C 116.726562 134.21875 117.039062 134.792969 116.675781 135.519531 C 112.976562 143.070312 104.179688 150.046875 96.578125 156.035156 C 89.289062 161.761719 69.714844 182.273438 69.972656 200.339844 C 69.972656 201.746094 70.027344 201.328125 71.273438 200.445312 C 77.210938 196.019531 88.820312 195.914062 95.953125 199.300781 C 96.941406 199.769531 97.046875 199.613281 96.890625 198.363281 C 95.535156 184.355469 98.660156 169.101562 104.648438 160.199219 C 108.761719 154.054688 119.902344 138.230469 121.828125 125.835938 C 122.035156 124.535156 121.359375 124.746094 119.746094 126.460938 C 107.148438 139.789062 84.394531 139.425781 69.660156 125.367188 C 68.777344 124.378906 68.359375 124.796875 68.308594 125.578125 "/>
<path style=" stroke:none;fill-rule:nonzero;fill:rgb(100%,100%,100%);fill-opacity:1;" d="M 122.570312 108.722656 C 122.570312 93.828125 110.496094 81.753906 95.601562 81.753906 C 80.707031 81.753906 68.632812 93.828125 68.632812 108.722656 C 68.632812 123.617188 80.707031 135.6875 95.601562 135.6875 C 110.496094 135.6875 122.570312 123.617188 122.570312 108.722656 Z M 122.570312 108.722656 "/>
<path style=" stroke:none;fill-rule:nonzero;fill:rgb(11.372549%,25.882354%,54.11765%);fill-opacity:1;" d="M 95.589844 82.730469 L 96.472656 85.59375 L 99.546875 85.59375 L 97.046875 87.363281 L 97.929688 90.175781 L 95.589844 88.457031 L 93.140625 90.175781 L 94.078125 87.363281 L 91.578125 85.59375 L 94.652344 85.59375 Z M 95.589844 82.730469 "/>
<path style=" stroke:none;fill-rule:nonzero;fill:rgb(11.372549%,25.882354%,54.11765%);fill-opacity:1;" d="M 113.5 93.195312 L 114.433594 96.003906 L 117.507812 96.003906 L 115.007812 97.828125 L 115.894531 100.640625 L 113.5 98.921875 L 111.105469 100.640625 L 112.039062 97.828125 L 109.542969 96.003906 L 112.613281 96.003906 Z M 113.5 93.195312 "/>
<path style=" stroke:none;fill-rule:nonzero;fill:rgb(11.372549%,25.882354%,54.11765%);fill-opacity:1;" d="M 105.792969 85.125 L 106.730469 87.933594 L 109.800781 87.933594 L 107.304688 89.757812 L 108.1875 92.570312 L 105.84375 90.851562 L 103.449219 92.570312 L 104.335938 89.757812 L 101.835938 87.933594 L 104.910156 87.933594 Z M 105.792969 85.125 "/>
<path style=" stroke:none;fill-rule:nonzero;fill:rgb(11.372549%,25.882354%,54.11765%);fill-opacity:1;" d="M 116.464844 103.035156 L 117.351562 105.898438 L 120.421875 105.898438 L 117.925781 107.71875 L 118.863281 110.53125 L 116.464844 108.8125 L 114.070312 110.53125 L 114.957031 107.71875 L 112.507812 105.898438 L 115.527344 105.898438 Z M 116.464844 103.035156 "/>
<path style=" stroke:none;fill-rule:nonzero;fill:rgb(11.372549%,25.882354%,54.11765%);fill-opacity:1;" d="M 115.164062 113.5 L 116.101562 116.363281 L 119.121094 116.363281 L 116.675781 118.183594 L 117.558594 120.996094 L 115.164062 119.226562 L 112.769531 120.996094 L 113.65625 118.132812 L 111.207031 116.363281 L 114.28125 116.363281 Z M 115.164062 113.5 "/>
<path style=" stroke:none;fill-rule:nonzero;fill:rgb(11.372549%,25.882354%,54.11765%);fill-opacity:1;" d="M 109.386719 121.828125 L 110.269531 124.691406 L 113.34375 124.691406 L 110.894531 126.515625 L 111.78125 129.324219 L 109.4375 127.609375 L 106.992188 129.324219 L 107.925781 126.515625 L 105.429688 124.691406 L 108.5 124.691406 Z M 109.386719 121.828125 "/>
<path style=" stroke:none;fill-rule:nonzero;fill:rgb(11.372549%,25.882354%,54.11765%);fill-opacity:1;" d="M 100.328125 126.515625 L 101.261719 129.378906 L 104.28125 129.378906 L 101.785156 131.199219 L 102.722656 134.011719 L 100.328125 132.292969 L 97.929688 134.011719 L 98.816406 131.199219 L 96.371094 129.378906 L 99.386719 129.378906 Z M 100.328125 126.515625 "/>
<path style=" stroke:none;fill-rule:nonzero;fill:rgb(11.372549%,25.882354%,54.11765%);fill-opacity:1;" d="M 77.3125 92.257812 L 76.378906 95.121094 L 73.359375 95.121094 L 75.804688 96.890625 L 74.917969 99.703125 L 77.261719 97.984375 L 79.707031 99.703125 L 78.773438 96.890625 L 81.269531 95.121094 L 78.199219 95.121094 Z M 77.3125 92.257812 "/>
<path style=" stroke:none;fill-rule:nonzero;fill:rgb(11.372549%,25.882354%,54.11765%);fill-opacity:1;" d="M 84.8125 85.125 L 83.875 87.933594 L 80.855469 87.933594 L 83.300781 89.757812 L 82.417969 92.570312 L 84.8125 90.851562 L 87.207031 92.570312 L 86.320312 89.757812 L 88.769531 87.933594 L 85.75 87.933594 Z M 84.8125 85.125 "/>
<path style=" stroke:none;fill-rule:nonzero;fill:rgb(11.372549%,25.882354%,54.11765%);fill-opacity:1;" d="M 73.773438 101.785156 L 72.890625 104.648438 L 69.816406 104.648438 L 72.316406 106.417969 L 71.429688 109.28125 L 73.773438 107.511719 L 76.167969 109.28125 L 75.285156 106.417969 L 77.78125 104.648438 L 74.761719 104.648438 Z M 73.773438 101.785156 "/>
<path style=" stroke:none;fill-rule:nonzero;fill:rgb(11.372549%,25.882354%,54.11765%);fill-opacity:1;" d="M 74.761719 112.199219 L 73.824219 115.0625 L 70.753906 115.0625 L 73.253906 116.882812 L 72.367188 119.695312 L 74.710938 117.976562 L 77.105469 119.695312 L 76.21875 116.882812 L 78.667969 115.0625 L 75.648438 115.0625 Z M 74.761719 112.199219 "/>
<path style=" stroke:none;fill-rule:nonzero;fill:rgb(11.372549%,25.882354%,54.11765%);fill-opacity:1;" d="M 80.488281 120.734375 L 79.605469 123.597656 L 76.53125 123.597656 L 79.03125 125.421875 L 78.09375 128.230469 L 80.488281 126.460938 L 82.9375 128.230469 L 82 125.421875 L 84.449219 123.597656 L 81.425781 123.597656 Z M 80.488281 120.734375 "/>
<path style=" stroke:none;fill-rule:nonzero;fill:rgb(11.372549%,25.882354%,54.11765%);fill-opacity:1;" d="M 89.546875 126.148438 L 88.664062 129.011719 L 85.59375 129.011719 L 88.089844 130.835938 L 87.207031 133.648438 L 89.546875 131.929688 L 91.996094 133.648438 L 91.058594 130.785156 L 93.558594 129.011719 L 90.488281 129.011719 Z M 89.546875 126.148438 "/>
</g>
</svg>
