<?xml version="1.0" encoding="UTF-8"?>
<svg xmlns="http://www.w3.org/2000/svg" xmlns:xlink="http://www.w3.org/1999/xlink" width="300px" height="300px" viewBox="0 0 300 300" version="1.1">
<g id="surface1">
<path style=" stroke:none;fill-rule:nonzero;fill:rgb(38.82353%,44.705883%,47.843137%);fill-opacity:1;" d="M 298.953125 0.824219 C 298.457031 0.28125 297.746094 -0.0195312 297.007812 0 L 109.222656 0 C 86.84375 0 73.085938 9.617188 68.359375 28.304688 L 0.113281 297.34375 C -0.105469 298.101562 0.0507812 298.914062 0.527344 299.542969 C 0.988281 300.148438 1.710938 300.503906 2.476562 300.503906 L 207.078125 300.503906 C 218.753906 300.503906 230.429688 291.160156 233.070312 279.894531 L 299.371094 3.023438 C 299.585938 2.265625 299.433594 1.453125 298.953125 0.824219 Z M 298.953125 0.824219 "/>
<path style=" stroke:none;fill-rule:nonzero;fill:rgb(0%,0%,0%);fill-opacity:1;" d="M 2.476562 298.03125 L 207.078125 298.03125 C 217.640625 298.03125 228.34375 289.511719 230.707031 279.34375 L 297.007812 2.335938 L 109.222656 2.335938 C 91.847656 2.472656 76.003906 8.105469 70.722656 28.992188 Z M 2.476562 298.03125 "/>
<path style=" stroke:none;fill-rule:nonzero;fill:rgb(38.82353%,44.705883%,47.843137%);fill-opacity:1;" d="M 44.589844 188.65625 L 222.089844 188.65625 C 230.984375 188.65625 239.742188 181.648438 241.828125 172.992188 L 279.078125 13.601562 L 116.453125 13.601562 C 96.574219 13.601562 87.679688 19.785156 83.648438 36.136719 Z M 222.089844 190.855469 L 41.8125 190.855469 L 81.425781 35.585938 C 86.566406 15.527344 99.078125 11.542969 116.453125 11.542969 L 281.855469 11.542969 L 243.910156 173.542969 C 241.6875 183.023438 231.957031 190.855469 222.089844 190.855469 Z M 222.089844 190.855469 "/>
<path style=" stroke:none;fill-rule:nonzero;fill:rgb(100%,100%,100%);fill-opacity:1;" d="M 71.277344 277.832031 L 76.28125 284.566406 L 113.671875 284.566406 L 128.824219 225.207031 L 113.53125 225.207031 L 100.46875 276.183594 L 86.847656 276.183594 L 99.910156 225.207031 L 80.589844 225.207031 L 79.339844 226.167969 L 83.230469 231.390625 Z M 71.277344 277.832031 "/>
<path style=" stroke:none;fill-rule:nonzero;fill:rgb(100%,100%,100%);fill-opacity:1;" d="M 72.53125 245.953125 L 76.144531 231.664062 L 71.140625 224.929688 L 40.558594 224.929688 L 32.21875 231.664062 L 27.078125 251.585938 L 52.929688 262.304688 L 49.457031 276.183594 L 35.972656 276.183594 L 37.503906 269.726562 L 24.019531 263.542969 L 20.40625 277.832031 L 25.269531 284.566406 L 55.988281 284.566406 L 64.328125 277.832031 L 69.472656 257.769531 L 43.617188 247.054688 L 47.09375 233.3125 L 60.574219 233.3125 L 58.90625 239.910156 Z M 72.53125 245.953125 "/>
<path style=" stroke:none;fill-rule:nonzero;fill:rgb(100%,100%,100%);fill-opacity:1;" d="M 178.167969 231.664062 L 173.164062 224.929688 L 135.910156 224.929688 L 120.761719 284.289062 L 136.050781 284.289062 L 148.976562 233.3125 L 162.597656 233.3125 L 149.671875 284.289062 L 168.855469 284.289062 L 170.105469 283.191406 L 166.351562 278.105469 Z M 178.167969 231.664062 "/>
<path style=" stroke:none;fill-rule:nonzero;fill:rgb(100%,100%,100%);fill-opacity:1;" d="M 225.5625 245.953125 L 229.179688 231.664062 L 224.175781 224.929688 L 193.59375 224.929688 L 185.253906 231.664062 L 180.113281 251.585938 L 205.964844 262.304688 L 202.492188 276.183594 L 188.867188 276.183594 L 190.535156 269.726562 L 177.054688 263.542969 L 173.441406 277.832031 L 178.304688 284.566406 L 209.023438 284.566406 L 217.363281 277.832031 L 222.507812 257.769531 L 196.652344 247.054688 L 200.128906 233.3125 L 213.609375 233.3125 L 211.941406 239.910156 Z M 225.5625 245.953125 "/>
<path style=" stroke:none;fill-rule:nonzero;fill:rgb(74.509805%,75.294119%,76.078433%);fill-opacity:1;" d="M 24.019531 263.542969 L 29.578125 271.785156 L 28.328125 276.59375 L 31.109375 280.304688 L 52.792969 280.304688 L 57.101562 277.007812 L 64.328125 277.832031 L 55.988281 284.566406 L 25.269531 284.566406 L 20.40625 277.832031 Z M 24.019531 263.542969 "/>
<path style=" stroke:none;fill-rule:nonzero;fill:rgb(74.509805%,75.294119%,76.078433%);fill-opacity:1;" d="M 49.457031 276.183594 L 57.101562 277.007812 L 61.410156 260.105469 L 35.277344 249.25 L 39.585938 232.488281 L 32.21875 231.664062 L 27.078125 251.585938 L 52.929688 262.304688 Z M 49.457031 276.183594 "/>
<path style=" stroke:none;fill-rule:nonzero;fill:rgb(74.509805%,75.294119%,76.078433%);fill-opacity:1;" d="M 65.300781 229.054688 L 44.175781 229.054688 L 39.585938 232.488281 L 47.09375 233.3125 L 60.574219 233.3125 L 58.90625 239.910156 L 66.96875 237.433594 L 68.21875 232.902344 Z M 65.300781 229.054688 "/>
<path style=" stroke:none;fill-rule:nonzero;fill:rgb(74.509805%,75.294119%,76.078433%);fill-opacity:1;" d="M 177.054688 263.542969 L 182.613281 271.785156 L 181.363281 276.59375 L 184.144531 280.304688 L 205.828125 280.304688 L 210.136719 277.007812 L 217.363281 277.832031 L 209.023438 284.566406 L 178.304688 284.566406 L 173.441406 277.832031 Z M 177.054688 263.542969 "/>
<path style=" stroke:none;fill-rule:nonzero;fill:rgb(74.509805%,75.294119%,76.078433%);fill-opacity:1;" d="M 202.492188 276.183594 L 210.136719 277.007812 L 214.445312 260.105469 L 188.3125 249.25 L 192.621094 232.488281 L 185.253906 231.664062 L 180.113281 251.585938 L 205.964844 262.304688 Z M 202.492188 276.183594 "/>
<path style=" stroke:none;fill-rule:nonzero;fill:rgb(74.509805%,75.294119%,76.078433%);fill-opacity:1;" d="M 218.335938 229.054688 L 197.070312 229.054688 L 192.621094 232.488281 L 200.128906 233.3125 L 213.609375 233.3125 L 211.941406 239.910156 L 220.003906 237.433594 L 221.117188 232.902344 Z M 218.335938 229.054688 "/>
<path style=" stroke:none;fill-rule:nonzero;fill:rgb(74.509805%,75.294119%,76.078433%);fill-opacity:1;" d="M 79.339844 226.167969 L 91.292969 229.054688 L 79.199219 276.59375 L 81.980469 280.304688 L 107 280.304688 L 113.671875 284.566406 L 76.28125 284.566406 L 71.277344 277.832031 L 83.230469 231.390625 Z M 79.339844 226.167969 "/>
<path style=" stroke:none;fill-rule:nonzero;fill:rgb(74.509805%,75.294119%,76.078433%);fill-opacity:1;" d="M 113.53125 225.207031 L 120.066406 229.054688 L 107 280.304688 L 100.46875 276.183594 Z M 113.53125 225.207031 "/>
<path style=" stroke:none;fill-rule:nonzero;fill:rgb(74.509805%,75.294119%,76.078433%);fill-opacity:1;" d="M 142.582031 229.054688 L 135.910156 224.929688 L 120.761719 284.289062 L 136.050781 284.289062 L 129.378906 280.304688 Z M 142.582031 229.054688 "/>
<path style=" stroke:none;fill-rule:nonzero;fill:rgb(74.509805%,75.294119%,76.078433%);fill-opacity:1;" d="M 158.152344 280.304688 L 170.242188 232.902344 L 167.464844 229.054688 L 142.582031 229.054688 L 148.976562 233.3125 L 162.597656 233.3125 L 149.671875 284.289062 L 168.855469 284.289062 L 170.105469 283.191406 Z M 158.152344 280.304688 "/>
<path style=" stroke:none;fill-rule:nonzero;fill:rgb(100%,100%,100%);fill-opacity:1;" d="M 47.648438 207.070312 L 43.617188 208.167969 L 44.867188 202.945312 L 48.621094 202.945312 Z M 40.421875 199.921875 L 40.003906 200.199219 L 41.253906 201.847656 L 37.363281 217.511719 L 42.785156 217.511719 L 43.0625 217.097656 L 41.8125 215.585938 L 42.785156 211.464844 L 51.125 208.855469 L 52.792969 201.984375 L 51.125 199.921875 Z M 40.421875 199.921875 "/>
<path style=" stroke:none;fill-rule:nonzero;fill:rgb(100%,100%,100%);fill-opacity:1;" d="M 84.621094 199.921875 L 80.589844 199.921875 L 79.0625 206.246094 L 75.171875 207.207031 L 76.976562 199.921875 L 71.695312 199.921875 L 71.277344 200.199219 L 72.53125 201.847656 L 68.636719 217.511719 L 72.667969 217.511719 L 74.335938 210.503906 L 78.226562 209.679688 L 76.28125 217.511719 L 81.5625 217.511719 L 81.980469 217.097656 L 80.730469 215.585938 Z M 84.621094 199.921875 "/>
<path style=" stroke:none;fill-rule:nonzero;fill:rgb(100%,100%,100%);fill-opacity:1;" d="M 108.390625 214.625 L 104.636719 214.625 L 107.554688 202.808594 L 111.308594 202.808594 Z M 106.582031 199.921875 L 103.941406 201.984375 L 100.605469 215.3125 L 102.273438 217.511719 L 109.5 217.511719 L 112.144531 215.3125 L 115.480469 201.984375 L 113.8125 199.921875 Z M 106.582031 199.921875 "/>
<path style=" stroke:none;fill-rule:nonzero;fill:rgb(100%,100%,100%);fill-opacity:1;" d="M 176.914062 201.984375 L 175.246094 199.921875 L 165.65625 199.921875 L 161.347656 217.511719 L 165.378906 217.511719 L 168.992188 202.808594 L 172.746094 202.808594 L 169.132812 217.511719 L 174.414062 217.511719 L 174.832031 217.097656 L 173.578125 215.585938 Z M 176.914062 201.984375 "/>
<path style=" stroke:none;fill-rule:nonzero;fill:rgb(100%,100%,100%);fill-opacity:1;" d="M 201.65625 199.921875 L 196.234375 199.921875 L 195.820312 200.199219 L 197.207031 201.847656 L 193.316406 217.511719 L 198.597656 217.511719 L 199.015625 217.097656 L 197.765625 215.585938 Z M 201.65625 199.921875 "/>
<path style=" stroke:none;fill-rule:nonzero;fill:rgb(100%,100%,100%);fill-opacity:1;" d="M 230.152344 215.726562 L 228.066406 208.855469 L 235.15625 199.921875 L 231.261719 199.921875 L 227.230469 205.28125 L 225.84375 199.921875 L 220.558594 199.921875 L 220.144531 200.199219 L 222.226562 201.847656 L 224.3125 208.992188 L 217.640625 217.511719 L 221.394531 217.511719 L 225.285156 212.289062 L 226.675781 217.511719 L 231.957031 217.511719 L 232.375 217.097656 Z M 230.152344 215.726562 "/>
<path style=" stroke:none;fill-rule:nonzero;fill:rgb(100%,100%,100%);fill-opacity:1;" d="M 140.777344 214.625 L 136.191406 214.625 L 137.300781 210.089844 L 141.054688 210.089844 L 141.75 207.207031 L 137.996094 207.207031 L 139.109375 202.808594 L 143.417969 202.808594 L 144.53125 204.320312 L 144.945312 204.046875 L 145.917969 199.921875 L 134.523438 199.921875 L 134.105469 200.199219 L 135.355469 201.847656 L 131.464844 217.511719 L 141.886719 217.511719 L 142.863281 213.390625 L 142.582031 213.113281 Z M 140.777344 214.625 "/>
<path style=" stroke:none;fill-rule:nonzero;fill:rgb(97.647059%,62.7451%,10.588235%);fill-opacity:1;" d="M 49.457031 185.769531 L 150.785156 130.945312 L 81.980469 185.769531 L 165.519531 138.367188 L 164.128906 147.984375 L 178.027344 140.289062 L 209.441406 169.695312 L 226.121094 119.953125 L 250.304688 118.441406 L 238.074219 88.351562 L 259.894531 71.449219 L 231.539062 60.457031 L 238.769531 30.367188 L 214.722656 41.222656 L 202.210938 15.390625 L 182.890625 34.351562 L 148.144531 18.960938 L 143.417969 49.601562 L 112.421875 56.335938 L 130.769531 67.191406 L 112.28125 76.398438 L 127.988281 77.769531 L 63.496094 127.238281 L 128.40625 93.160156 L 58.90625 145.511719 L 132.855469 107.449219 L 53.765625 166.121094 L 140.914062 120.230469 Z M 49.457031 185.769531 "/>
<path style=" stroke:none;fill-rule:nonzero;fill:rgb(89.803922%,37.64706%,12.54902%);fill-opacity:1;" d="M 234.875 88.761719 C 233.6875 116.253906 210.195312 137.59375 182.386719 136.445312 C 154.578125 135.296875 132.96875 112.09375 134.105469 84.601562 C 135.242188 57.109375 158.695312 35.726562 186.503906 36.824219 C 214.371094 37.964844 236.027344 61.21875 234.875 88.761719 Z M 234.875 88.761719 "/>
<path style=" stroke:none;fill-rule:nonzero;fill:rgb(72.549021%,34.901962%,8.235294%);fill-opacity:1;" d="M 190.675781 129.710938 C 170.804688 128.929688 153.25 116.671875 145.863281 98.417969 C 138.480469 80.160156 142.636719 59.320312 156.484375 45.207031 C 138.339844 57.207031 130.046875 79.367188 135.929688 100.152344 C 141.808594 120.933594 160.527344 135.628906 182.335938 136.582031 C 196.710938 137.140625 210.652344 131.648438 220.699219 121.464844 C 211.855469 127.351562 201.320312 130.242188 190.675781 129.710938 Z M 190.675781 129.710938 "/>
<path style=" stroke:none;fill-rule:nonzero;fill:rgb(0%,0%,0%);fill-opacity:1;" d="M 234.875 87.25 C 234.972656 85.511719 234.925781 83.765625 234.738281 82.03125 C 231.65625 79.835938 228.074219 78.421875 224.3125 77.910156 C 223.480469 77.910156 222.785156 77.769531 221.949219 77.769531 C 221.488281 74.460938 220.746094 71.199219 219.726562 68.015625 C 220.226562 68.125 220.742188 68.167969 221.253906 68.152344 C 224.867188 68.425781 228.34375 68.839844 231.820312 69.390625 C 231.347656 68.074219 230.789062 66.789062 230.152344 65.542969 C 226.398438 64.992188 222.367188 64.582031 218.335938 64.304688 C 217.089844 61.0625 215.554688 57.9375 213.75 54.960938 C 216.246094 54.515625 218.5625 53.371094 220.421875 51.664062 C 219.449219 50.703125 218.476562 49.878906 217.5 48.917969 C 215.796875 50.410156 213.65625 51.324219 211.386719 51.527344 C 210.96875 50.976562 210.550781 50.425781 210.273438 50.015625 C 206.90625 45.71875 202.925781 41.921875 198.460938 38.75 C 194.574219 37.609375 190.558594 36.960938 186.503906 36.824219 L 185.949219 36.824219 C 193.78125 39.957031 200.671875 45.015625 205.964844 51.527344 C 200.066406 50.714844 194.25 49.378906 188.589844 47.542969 C 186.785156 46.992188 185.117188 46.582031 183.449219 46.03125 C 175.691406 43.785156 167.609375 42.855469 159.539062 43.28125 C 155.167969 45.761719 151.1875 48.863281 147.726562 52.488281 C 154.121094 49.878906 166.90625 45.480469 182.476562 49.742188 C 184.144531 50.152344 185.8125 50.566406 187.617188 51.113281 C 194.429688 53.175781 202.210938 55.375 208.882812 55.375 C 210.675781 58.136719 212.257812 61.03125 213.609375 64.03125 C 212.316406 63.917969 211.015625 63.871094 209.71875 63.894531 C 177.191406 63.34375 149.53125 72.824219 134.105469 88.214844 C 134.144531 91.214844 134.472656 94.203125 135.078125 97.144531 C 139.386719 90.960938 145.917969 85.328125 154.257812 80.65625 C 169.828125 72 190.675781 67.464844 212.777344 67.742188 C 213.609375 67.742188 214.304688 67.878906 215.140625 67.878906 C 216.25 71.054688 217.085938 74.316406 217.640625 77.632812 C 203.324219 78.320312 194.152344 86.976562 183.449219 96.457031 C 173.996094 104.839844 162.320312 113.222656 145.363281 118.304688 C 146.980469 120.222656 148.746094 122.015625 150.644531 123.664062 C 166.628906 117.34375 177.191406 107.449219 186.226562 99.480469 C 196.511719 90.414062 205.269531 81.753906 218.058594 81.34375 C 218.476562 84.902344 218.476562 88.5 218.058594 92.0625 C 216.390625 111.574219 204.851562 128.199219 189.285156 136.441406 C 193.214844 136.058594 197.085938 135.226562 200.824219 133.96875 C 202.074219 132.871094 203.324219 131.769531 204.4375 130.671875 C 214.839844 120.46875 221.203125 106.914062 222.367188 92.472656 C 222.785156 88.820312 222.785156 85.132812 222.367188 81.480469 C 223.0625 81.617188 223.757812 81.617188 224.3125 81.753906 C 228.339844 82.417969 232.046875 84.34375 234.875 87.25 Z M 234.875 87.25 "/>
</g>
</svg>
