<?xml version="1.0" encoding="UTF-8"?>
<svg xmlns="http://www.w3.org/2000/svg" xmlns:xlink="http://www.w3.org/1999/xlink" width="300px" height="300px" viewBox="0 0 300 300" version="1.1">
<g id="surface1">
<path style=" stroke:none;fill-rule:nonzero;fill:rgb(0%,0%,0%);fill-opacity:1;" d="M 199.691406 40.875 C 197.789062 37.488281 195.570312 34.363281 193.074219 31.558594 C 192.023438 30.304688 190.910156 29.125 189.738281 28.023438 L 213.75 0 L 143.957031 0 L 116.988281 31.558594 L 116.921875 31.636719 C 114.488281 34.511719 112.277344 37.628906 110.304688 40.953125 C 108.375 44.339844 106.71875 47.9375 105.371094 51.695312 C 99.71875 67.355469 99.71875 85.027344 105.371094 100.691406 C 106.707031 104.433594 108.359375 108.007812 110.304688 111.367188 C 112.207031 114.75 114.425781 117.875 116.921875 120.679688 C 117.957031 121.976562 119.070312 123.179688 120.257812 124.285156 L 96.3125 152.320312 L 166.109375 152.320312 L 193.140625 120.601562 C 198.046875 114.90625 201.945312 108.140625 204.625 100.691406 C 210.277344 85.027344 210.277344 67.355469 204.625 51.695312 C 203.328125 47.886719 201.671875 44.257812 199.691406 40.875 Z M 199.691406 40.875 "/>
<path style=" stroke:none;fill-rule:nonzero;fill:rgb(100%,100%,100%);fill-opacity:1;" d="M 189.996094 35.238281 C 188.964844 33.96875 187.8125 32.765625 186.714844 31.636719 L 157.433594 66.050781 C 158.933594 66.550781 160.300781 67.476562 161.417969 68.75 C 164.890625 72.910156 164.890625 79.554688 161.417969 83.710938 L 107.09375 147.273438 L 113.519531 147.273438 L 164.5625 87.472656 C 169.839844 81.304688 169.898438 71.320312 164.699219 65.070312 L 167.84375 61.386719 C 174.839844 69.613281 174.820312 82.917969 167.796875 91.113281 L 167.777344 91.152344 L 119.875 147.273438 L 126.234375 147.273438 L 170.988281 94.898438 C 179.734375 84.59375 179.761719 67.96875 171.042969 57.628906 L 174.203125 53.949219 C 184.734375 66.292969 184.71875 86.296875 174.167969 98.621094 L 174.132812 98.660156 L 132.59375 147.273438 L 138.953125 147.273438 L 177.347656 102.339844 C 189.65625 87.957031 189.679688 64.621094 177.402344 50.199219 L 180.617188 46.441406 C 194.640625 62.964844 194.585938 89.65625 180.492188 106.101562 L 145.296875 147.273438 L 151.722656 147.273438 L 183.695312 109.78125 C 199.53125 91.3125 199.574219 61.320312 183.792969 42.785156 L 183.761719 42.761719 L 186.972656 39 C 204.527344 59.625 204.46875 93.003906 186.839844 113.542969 L 158.082031 147.273438 L 164.441406 147.273438 L 190.050781 117.300781 C 209.332031 94.589844 209.308594 57.914062 189.996094 35.238281 Z M 189.996094 35.238281 "/>
<path style=" stroke:none;fill-rule:nonzero;fill:rgb(81.176472%,3.921569%,17.254902%);fill-opacity:1;" d="M 120.203125 117.144531 C 121.226562 118.398438 122.320312 119.582031 123.46875 120.679688 L 152.753906 86.410156 C 151.242188 85.945312 149.867188 85.015625 148.769531 83.710938 C 145.238281 79.585938 145.234375 72.894531 148.757812 68.765625 L 148.769531 68.75 L 203.09375 5.109375 L 196.734375 5.109375 L 145.554688 65.003906 C 140.28125 71.179688 140.253906 81.183594 145.5 87.394531 L 142.289062 91.074219 C 135.296875 82.886719 135.308594 69.617188 142.308594 61.441406 C 142.339844 61.398438 142.375 61.355469 142.410156 61.308594 L 190.375 5.109375 L 184.019531 5.109375 L 139.199219 57.5625 C 130.421875 67.851562 130.394531 84.507812 139.140625 94.835938 L 135.929688 98.515625 C 125.449219 86.121094 125.480469 66.15625 135.996094 53.804688 L 177.660156 5.109375 L 171.300781 5.109375 L 132.851562 50.121094 C 120.53125 64.503906 120.503906 87.847656 132.785156 102.273438 L 129.570312 106.023438 C 115.5625 89.503906 115.589844 62.839844 129.636719 46.363281 L 164.886719 5.109375 L 158.53125 5.109375 L 126.492188 42.679688 C 110.664062 61.15625 110.601562 91.140625 126.359375 109.703125 L 123.210938 113.460938 C 105.644531 92.863281 105.667969 59.496094 123.269531 38.933594 L 123.28125 38.921875 L 152.171875 5.109375 L 145.8125 5.109375 L 120.066406 35.238281 C 100.78125 57.902344 100.839844 94.570312 120.203125 117.144531 Z M 120.203125 117.144531 "/>
<path style=" stroke:none;fill-rule:nonzero;fill:rgb(100%,100%,100%);fill-opacity:1;" d="M 67.546875 280.207031 L 64.144531 280.207031 L 64.144531 276.152344 L 74.800781 276.152344 L 74.800781 280.207031 L 71.335938 280.207031 L 71.335938 299.894531 L 67.546875 299.894531 Z M 67.546875 280.207031 "/>
<path style=" stroke:none;fill-rule:nonzero;fill:rgb(100%,100%,100%);fill-opacity:1;" d="M 79.679688 276.144531 L 88.097656 276.144531 L 90.59375 279.078125 L 90.59375 287.34375 L 88.476562 289.675781 L 90.726562 299.816406 L 86.933594 299.816406 L 84.816406 290.121094 L 83.40625 290.121094 L 83.40625 299.894531 L 79.625 299.894531 L 79.625 276.144531 Z M 85.96875 286.820312 L 86.742188 285.773438 L 86.742188 280.585938 L 85.96875 279.539062 L 83.472656 279.539062 L 83.472656 286.820312 Z M 85.96875 286.820312 "/>
<path style=" stroke:none;fill-rule:nonzero;fill:rgb(100%,100%,100%);fill-opacity:1;" d="M 98.238281 276.144531 L 103.691406 276.144531 L 106.78125 299.894531 L 103.050781 299.894531 L 102.539062 294.40625 L 99.269531 294.40625 L 98.6875 299.894531 L 95.09375 299.894531 Z M 99.582031 290.726562 L 102.023438 290.726562 L 100.800781 278.933594 Z M 99.582031 290.726562 "/>
<path style=" stroke:none;fill-rule:nonzero;fill:rgb(100%,100%,100%);fill-opacity:1;" d="M 111.078125 296.515625 L 113.328125 296.515625 L 113.328125 279.53125 L 111.078125 279.53125 L 111.078125 276.152344 L 119.363281 276.152344 L 119.363281 279.53125 L 117.179688 279.53125 L 117.179688 296.515625 L 119.363281 296.515625 L 119.363281 299.894531 L 111.078125 299.894531 Z M 111.078125 296.515625 "/>
<path style=" stroke:none;fill-rule:nonzero;fill:rgb(100%,100%,100%);fill-opacity:1;" d="M 124.628906 276.152344 L 128.480469 276.152344 L 128.480469 295.988281 L 132.78125 295.988281 L 132.78125 299.894531 L 124.628906 299.894531 Z M 124.628906 276.152344 "/>
<path style=" stroke:none;fill-rule:nonzero;fill:rgb(100%,100%,100%);fill-opacity:1;" d="M 145.8125 276.144531 L 154.097656 276.144531 L 156.539062 279.078125 L 156.539062 285.394531 L 154.542969 287.726562 L 156.539062 290.058594 L 156.539062 296.960938 L 154.097656 299.816406 L 145.8125 299.816406 Z M 151.792969 286.074219 L 152.753906 284.949219 L 152.753906 280.730469 L 151.914062 279.839844 L 149.609375 279.839844 L 149.609375 286.140625 L 151.792969 286.140625 Z M 151.914062 296.359375 L 152.753906 295.46875 L 152.753906 290.582031 L 151.792969 289.519531 L 149.542969 289.519531 L 149.542969 296.292969 L 151.914062 296.292969 Z M 151.914062 296.359375 "/>
<path style=" stroke:none;fill-rule:nonzero;fill:rgb(100%,100%,100%);fill-opacity:1;" d="M 162.1875 276.152344 L 165.914062 276.152344 L 165.914062 295.988281 L 170.34375 295.988281 L 170.34375 299.894531 L 162.1875 299.894531 Z M 162.1875 276.152344 "/>
<path style=" stroke:none;fill-rule:nonzero;fill:rgb(100%,100%,100%);fill-opacity:1;" d="M 177.539062 276.144531 L 183.054688 276.144531 L 186.132812 299.894531 L 182.417969 299.894531 L 181.835938 294.40625 L 178.625 294.40625 L 178.050781 299.894531 L 174.449219 299.894531 Z M 179.015625 290.726562 L 181.457031 290.726562 L 180.167969 278.933594 Z M 179.015625 290.726562 "/>
<path style=" stroke:none;fill-rule:nonzero;fill:rgb(100%,100%,100%);fill-opacity:1;" d="M 190.441406 296.664062 L 195.640625 280.207031 L 190.570312 280.207031 L 190.570312 276.152344 L 199.75 276.152344 L 199.75 279.304688 L 194.613281 295.839844 L 199.75 295.839844 L 199.75 299.894531 L 190.441406 299.894531 Z M 190.441406 296.664062 "/>
<path style=" stroke:none;fill-rule:nonzero;fill:rgb(100%,100%,100%);fill-opacity:1;" d="M 205.015625 276.152344 L 213.941406 276.152344 L 213.941406 280.058594 L 208.867188 280.058594 L 208.867188 285.84375 L 213.492188 285.84375 L 213.492188 289.75 L 208.867188 289.75 L 208.867188 295.988281 L 214.003906 295.988281 L 214.003906 299.894531 L 205.015625 299.894531 Z M 205.015625 276.152344 "/>
<path style=" stroke:none;fill-rule:nonzero;fill:rgb(100%,100%,100%);fill-opacity:1;" d="M 219.527344 276.144531 L 227.933594 276.144531 L 230.441406 279.078125 L 230.441406 287.34375 L 228.449219 289.675781 L 230.628906 299.894531 L 226.847656 299.894531 L 224.789062 290.199219 L 223.308594 290.199219 L 223.308594 299.894531 L 219.527344 299.894531 Z M 225.816406 286.820312 L 226.589844 285.773438 L 226.589844 280.585938 L 225.816406 279.539062 L 223.308594 279.539062 L 223.308594 286.820312 Z M 225.816406 286.820312 "/>
<path style=" stroke:none;fill-rule:nonzero;fill:rgb(100%,100%,100%);fill-opacity:1;" d="M 235.449219 297.039062 L 235.449219 292.757812 L 239.175781 292.757812 L 239.175781 295.238281 L 240.074219 296.289062 L 241.421875 296.289062 L 242.191406 295.238281 L 242.191406 290.726562 L 241.550781 289.976562 L 237.570312 289.976562 L 235.515625 287.421875 L 235.515625 279.082031 L 237.953125 276.152344 L 243.539062 276.152344 L 245.980469 279.082031 L 245.980469 283.289062 L 242.191406 283.289062 L 242.191406 280.808594 L 241.421875 279.832031 L 240.136719 279.832031 L 239.238281 280.808594 L 239.238281 285.242188 L 239.945312 285.917969 L 243.925781 285.917969 L 245.980469 288.398438 L 245.980469 297.039062 L 243.539062 299.894531 L 237.890625 299.894531 Z M 235.449219 297.039062 "/>
<path style=" stroke:none;fill-rule:nonzero;fill:rgb(100%,100%,100%);fill-opacity:1;" d="M 40.96875 185.148438 C 40.96875 171.40625 34.613281 166.820312 22.21875 166.820312 L 0 166.820312 L 9.695312 178.164062 L 9.695312 261.050781 L 21.707031 261.050781 L 21.707031 219.71875 L 22.34375 219.71875 C 34.476562 219.71875 40.769531 215.359375 41.09375 202.285156 L 41.09375 185.148438 Z M 21.707031 178.164062 L 24.402344 178.164062 C 27.15625 178.164062 28.957031 179.214844 28.957031 182.816406 L 28.957031 203.265625 C 28.957031 206.710938 28.121094 208.441406 23.886719 208.441406 L 21.828125 208.441406 L 21.828125 178.164062 Z M 21.707031 178.164062 "/>
<path style=" stroke:none;fill-rule:nonzero;fill:rgb(100%,100%,100%);fill-opacity:1;" d="M 58.109375 183.878906 C 58.109375 179.136719 59.394531 178.085938 61.835938 178.085938 C 64.207031 178.085938 65.429688 179.136719 65.429688 183.878906 L 65.429688 243.917969 C 65.429688 248.726562 64.140625 249.695312 61.835938 249.695312 C 59.394531 249.695312 58.109375 248.726562 58.109375 243.917969 Z M 61.703125 260.972656 C 69.15625 260.972656 77.375 257.4375 77.375 245.1875 L 77.375 182.671875 C 77.375 170.34375 69.089844 166.820312 61.703125 166.820312 C 54.378906 166.820312 46.097656 170.34375 46.097656 182.671875 L 46.097656 245.1875 C 46.097656 257.4375 54.378906 260.972656 61.703125 260.972656 Z M 61.703125 260.972656 "/>
<path style=" stroke:none;fill-rule:nonzero;fill:rgb(100%,100%,100%);fill-opacity:1;" d="M 204.953125 183.417969 L 205.65625 183.417969 L 207.972656 219.640625 L 202.253906 219.640625 Z M 201.101562 230.910156 L 208.992188 230.910156 L 211.566406 260.972656 L 223.632812 260.972656 L 214.523438 166.820312 L 196.476562 166.820312 L 187.355469 260.972656 L 198.210938 260.972656 Z M 201.101562 230.910156 "/>
<path style=" stroke:none;fill-rule:nonzero;fill:rgb(100%,100%,100%);fill-opacity:1;" d="M 288.617188 242.710938 C 288.617188 248.804688 287.136719 249.695312 284.058594 249.695312 L 281.171875 249.695312 L 281.171875 178.164062 L 284.058594 178.164062 C 287.070312 178.164062 288.617188 179.136719 288.617188 185.148438 Z M 300.558594 243.917969 L 300.558594 188.160156 C 300.558594 171.550781 295.542969 166.820312 283.667969 166.820312 L 269.160156 166.820312 L 269.160156 260.972656 L 286.175781 260.972656 C 295.613281 260.972656 300.558594 252.851562 300.558594 243.917969 Z M 300.558594 243.917969 "/>
<path style=" stroke:none;fill-rule:nonzero;fill:rgb(100%,100%,100%);fill-opacity:1;" d="M 94.457031 178.085938 L 97.34375 178.085938 C 100.042969 178.085938 101.898438 179.136719 101.898438 182.75 L 101.898438 202.207031 C 101.898438 205.664062 101.003906 208.296875 96.761719 208.296875 L 94.457031 208.296875 Z M 94.644531 219.5625 C 100.230469 219.261719 102.023438 221.515625 102.023438 227.160156 L 102.023438 260.972656 L 113.652344 260.972656 C 113.652344 260.972656 113.898438 250.820312 113.652344 223.625 C 113.585938 215.136719 109.03125 213.851562 109.03125 213.851562 C 114.292969 211.230469 113.652344 208.140625 113.652344 201.15625 L 113.585938 182.894531 C 113.585938 170.726562 107.933594 166.820312 98.304688 166.820312 L 82.445312 166.820312 L 82.445312 260.972656 L 94.578125 260.972656 L 94.578125 219.5625 Z M 94.644531 219.5625 "/>
<path style=" stroke:none;fill-rule:nonzero;fill:rgb(100%,100%,100%);fill-opacity:1;" d="M 182.285156 249.699219 L 167.003906 249.699219 L 167.003906 166.816406 L 154.933594 166.816406 L 154.933594 260.972656 L 182.285156 260.972656 Z M 182.285156 249.699219 "/>
<path style=" stroke:none;fill-rule:nonzero;fill:rgb(100%,100%,100%);fill-opacity:1;" d="M 127.515625 176.851562 L 127.515625 259.660156 L 139.523438 259.660156 L 139.523438 176.851562 L 149.859375 176.851562 L 149.859375 165.507812 L 110.4375 165.507812 L 120.195312 176.851562 Z M 127.515625 176.851562 "/>
<path style=" stroke:none;fill-rule:nonzero;fill:rgb(100%,100%,100%);fill-opacity:1;" d="M 239.625 208.746094 L 253.171875 260.972656 L 264.085938 260.972656 L 264.085938 166.816406 L 253.234375 166.816406 L 253.234375 219.644531 L 239.625 166.816406 L 228.773438 166.816406 L 228.773438 260.972656 L 239.625 260.972656 Z M 239.625 208.746094 "/>
</g>
</svg>
