<?xml version="1.0"?>
<svg width="268.49777" height="228.92001" xmlns="http://www.w3.org/2000/svg" xmlns:svg="http://www.w3.org/2000/svg" version="1.1">

 <g class="layer">
  <title>Layer 1</title>
  <path d="m178.39,31.2a41.41,41.41 0 0 0 -5.91,-7.11a34.13,34.13 0 0 0 -2.98,-2.7l21.45,-21.39l-62.35,0l-24.09,24.09l-0.06,0.06a53.24,53.24 0 0 0 -5.91,7.11a49.1,49.1 0 0 0 -4.41,8.2a48.07,48.07 0 0 0 0,37.4a46.43,46.43 0 0 0 4.41,8.15a41.41,41.41 0 0 0 5.91,7.11a27.36,27.36 0 0 0 2.98,2.75l-21.39,21.4l62.35,0l24.15,-24.21a47.22,47.22 0 0 0 10.26,-15.2a48.07,48.07 0 0 0 0,-37.4a42.41,42.41 0 0 0 -4.41,-8.26z" id="svg_1"/>
  <path d="m169.73,26.9c-0.92,-0.97 -1.95,-1.89 -2.93,-2.75l-26.16,26.27a8.39,8.39 0 0 1 3.56,2.06a8.17,8.17 0 0 1 0,11.42l-48.53,48.52l5.74,0l45.6,-45.65a12.17,12.17 0 0 0 0.12,-17.1l2.81,-2.81a16.05,16.05 0 0 1 -0.04,22.69l-0.02,0.03l-42.79,42.84l5.68,0l39.98,-39.98a20.22,20.22 0 0 0 0.05,-28.45l2.82,-2.81a24.11,24.11 0 0 1 -0.03,34.1l-0.03,0.03l-37.11,37.11l5.68,0l34.3,-34.3a28.16,28.16 0 0 0 0.05,-39.8l2.87,-2.87a32.23,32.23 0 0 1 -0.11,45.54l-31.44,31.43l5.74,0l28.56,-28.62a36.16,36.16 0 0 0 0.09,-51.14l-0.03,-0.02l2.87,-2.87a40.23,40.23 0 0 1 -0.12,56.9l-25.69,25.75l5.68,0l22.88,-22.88a44.4,44.4 0 0 0 -0.05,-62.64z" fill="#fff" id="svg_2"/>
  <path d="m107.38,89.42a32.57,32.57 0 0 0 2.92,2.7l26.16,-26.16a7.76,7.76 0 0 1 -3.56,-2.06a8.07,8.07 0 0 1 -0.01,-11.41l0.01,-0.01l48.53,-48.58l-5.68,0l-45.72,45.72a12.12,12.12 0 0 0 -0.05,17.09l-2.87,2.81a15.99,15.99 0 0 1 0.02,-22.62q0.04,-0.05 0.09,-0.1l42.85,-42.9l-5.68,0l-40.04,40.04a20.17,20.17 0 0 0 -0.05,28.45l-2.87,2.81a24.22,24.22 0 0 1 0.06,-34.13l37.22,-37.17l-5.68,0l-34.35,34.36a28.16,28.16 0 0 0 -0.06,39.81l-2.87,2.86a32.28,32.28 0 0 1 0.06,-45.54l31.49,-31.49l-5.68,0l-28.62,28.68a36.21,36.21 0 0 0 -0.12,51.16l-2.81,2.87a40.23,40.23 0 0 1 0.05,-56.89l0.01,-0.01l25.81,-25.81l-5.68,0l-23,23a44.21,44.21 0 0 0 0.12,62.52z" fill="#cf0a2c" id="svg_3"/>
  <polygon fill="#ffffff" id="svg_4" points="60.342 213.892 57.302 213.892 57.302 210.795 66.823 210.795 66.823 213.892 63.726 213.892 63.726 228.92 60.342 228.92 60.342 213.892" transform="matrix(1, 0, 0, 1, 0, 0)"/>
  <path d="m71.18,210.79l7.52,0l2.23,2.24l0,6.31l-1.89,1.78l2.01,7.74l-3.39,0l-1.89,-7.4l-1.26,0l0,7.46l-3.38,0l0,-18.13l0.05,0zm5.62,8.15l0.69,-0.8l0,-3.96l-0.69,-0.8l-2.23,0l0,5.56l2.23,0z" fill="#ffffff" id="svg_5" transform="matrix(1, 0, 0, 1, 0, 0)"/>
  <path d="m87.76,210.79l4.87,0l2.76,18.13l-3.33,0l-0.46,-4.19l-2.92,0l-0.52,4.19l-3.21,0l2.81,-18.13zm1.2,11.13l2.18,0l-1.09,-9l-1.09,9z" fill="#ffffff" id="svg_6" transform="matrix(1, 0, 0, 1, 0, 0)"/>
  <polygon fill="#ffffff" id="svg_7" points="99.231 226.339 101.239 226.339 101.239 213.376 99.231 213.376 99.231 210.795 106.63 210.795 106.63 213.376 104.68 213.376 104.68 226.339 106.63 226.339 106.63 228.92 99.231 228.92 99.231 226.339" transform="matrix(1, 0, 0, 1, 0, 0)"/>
  <polygon fill="#ffffff" id="svg_8" points="111.334 210.795 114.775 210.795 114.775 225.937 118.619 225.937 118.619 228.92 111.334 228.92 111.334 210.795"/>
  <path d="m130.26,210.79l7.4,0l2.18,2.24l0,4.82l-1.78,1.78l1.78,1.78l0,5.27l-2.18,2.18l-7.4,0l0,-18.07zm5.34,7.58l0.86,-0.86l0,-3.22l-0.75,-0.68l-2.06,0l0,4.81l1.95,0l0,-0.05zm0.11,7.85l0.75,-0.68l0,-3.73l-0.86,-0.81l-2.01,0l0,5.17l2.12,0l0,0.05z" fill="#ffffff" id="svg_9"/>
  <polygon fill="#ffffff" id="svg_10" points="144.889 210.795 148.216 210.795 148.216 225.937 152.174 225.937 152.174 228.92 144.889 228.92 144.889 210.795"/>
  <path d="m158.6,210.79l4.93,0l2.75,18.13l-3.32,0l-0.52,-4.19l-2.87,0l-0.51,4.19l-3.22,0l2.76,-18.13zm1.32,11.13l2.18,0l-1.15,-9l-1.03,9z" fill="#ffffff" id="svg_11"/>
  <polygon fill="#ffffff" id="svg_12" points="170.127 226.454 174.773 213.892 170.242 213.892 170.242 210.795 178.444 210.795 178.444 213.204 173.855 225.823 178.444 225.823 178.444 228.92 170.127 228.92 170.127 226.454"/>
  <polygon fill="#ffffff" id="svg_13" points="183.147 210.795 191.12 210.795 191.12 213.777 186.589 213.777 186.589 218.194 190.719 218.194 190.719 221.177 186.589 221.177 186.589 225.937 191.178 225.937 191.178 228.92 183.147 228.92 183.147 210.795"/>
  <path d="m196.11,210.79l7.51,0l2.24,2.24l0,6.31l-1.78,1.78l1.95,7.8l-3.38,0l-1.84,-7.4l-1.32,0l0,7.4l-3.38,0l0,-18.13zm5.62,8.15l0.69,-0.8l0,-3.96l-0.69,-0.8l-2.24,0l0,5.56l2.24,0z" fill="#ffffff" id="svg_14"/>
  <polygon fill="#ffffff" id="svg_15" points="210.336 226.74 210.336 223.471 213.662 223.471 213.662 225.364 214.466 226.167 215.67 226.167 216.358 225.364 216.358 221.922 215.785 221.349 212.229 221.349 210.393 219.398 210.393 213.032 212.573 210.795 217.563 210.795 219.743 213.032 219.743 216.244 216.358 216.244 216.358 214.351 215.67 213.605 214.523 213.605 213.72 214.351 213.72 217.735 214.351 218.251 217.907 218.251 219.743 220.144 219.743 226.74 217.563 228.92 212.515 228.92 210.336 226.74"/>
  <path d="m36.6,141.33c0,-10.49 -5.68,-13.99 -16.75,-13.99l-19.85,0l8.66,8.66l0,63.27l10.73,0l0,-31.55l0.57,0c10.84,0 16.46,-3.33 16.75,-13.31l0,-13.08l-0.11,0zm-17.21,-5.33l2.41,0c2.46,0 4.07,0.8 4.07,3.55l0,15.61c0,2.63 -0.75,3.95 -4.53,3.95l-1.84,0l0,-23.11l-0.11,0z" fill="#ffffff" id="svg_16" transform="matrix(1, 0, 0, 1, 0, 0)"/>
  <path d="m51.91,140.36c0,-3.62 1.15,-4.42 3.33,-4.42c2.12,0 3.21,0.8 3.21,4.42l0,45.83c0,3.67 -1.15,4.41 -3.21,4.41c-2.18,0 -3.33,-0.74 -3.33,-4.41l0,-45.83zm3.21,58.85c6.66,0 14,-2.7 14,-12.05l0,-47.72c0,-9.41 -7.4,-12.1 -14,-12.1c-6.54,0 -13.94,2.69 -13.94,12.1l0,47.72c0,9.35 7.4,12.05 13.94,12.05z" fill="#ffffff" id="svg_17" transform="matrix(1, 0, 0, 1, 0, 0)"/>
  <path d="m183.09,140.01l0.63,0l2.07,27.65l-5.11,0l2.41,-27.65zm-3.44,36.25l7.05,0l2.3,22.95l10.78,0l-8.14,-71.87l-16.12,0l-8.15,71.87l9.7,0l2.58,-22.95z" fill="#ffffff" id="svg_18" transform="matrix(1, 0, 0, 1, 0, 0)"/>
  <path d="m257.83,185.27c0,4.65 -1.32,5.33 -4.07,5.33l-2.58,0l0,-54.6l2.58,0c2.69,0 4.07,0.74 4.07,5.33l0,43.94zm10.67,0.92l0,-42.56c0,-12.68 -4.48,-16.29 -15.09,-16.29l-12.96,0l0,71.87l15.2,0c8.43,0 12.85,-6.2 12.85,-13.02z" fill="#ffffff" id="svg_19" transform="matrix(1, 0, 0, 1, 0, 0)"/>
  <path d="m84.38,135.94l2.58,0c2.41,0 4.07,0.8 4.07,3.56l0,14.85c0,2.64 -0.8,4.65 -4.59,4.65l-2.06,0l0,-23.06zm0.17,31.66c4.99,-0.23 6.59,1.49 6.59,5.8l0,25.81l10.39,0s0.22,-7.75 0,-28.51c-0.06,-6.48 -4.13,-7.46 -4.13,-7.46c4.7,-2 4.13,-4.36 4.13,-9.69l-0.06,-13.94c0,-9.29 -5.05,-12.27 -13.65,-12.27l-14.17,0l0,71.87l10.84,0l0,-31.61l0.06,0z" fill="#ffffff" id="svg_20" transform="matrix(1, 0, 0, 1, 0, 0)"/>
  <polygon fill="#ffffff" id="svg_21" points="162.842 190.604 149.191 190.604 149.191 127.337 138.407 127.337 138.407 199.208 162.842 199.208 162.842 190.604" transform="matrix(1, 0, 0, 1, 0, 0)"/>
  <polygon fill="#ffffff" id="svg_22" points="113.91500091552734,134.9980010986328 113.91500091552734,198.20799255371094 124.64099884033203,198.20799255371094 124.64099884033203,134.9980010986328 133.87600708007812,134.9980010986328 133.87600708007812,126.33699798583984 98.65799713134766,126.33699798583984 107.3759994506836,134.9980010986328 113.91500091552734,134.9980010986328 " transform="matrix(1, 0, 0, 1, 0, 0)"/>
  <polygon fill="#ffffff" id="svg_23" points="214.064 159.343 226.167 199.208 235.918 199.208 235.918 127.337 226.224 127.337 226.224 167.661 214.064 127.337 204.37 127.337 204.37 199.208 214.064 199.208 214.064 159.343" transform="matrix(1, 0, 0, 1, 0, 0)"/>
 </g>
</svg>