<?xml version="1.0"?>
<svg width="385.39316" height="173.87994" xmlns="http://www.w3.org/2000/svg" xmlns:svg="http://www.w3.org/2000/svg" version="1.1">

 <g class="layer">
  <title>Layer 1</title>
  <path d="m146.78,111.27l8.41,0l-2.53,6.36l-5.88,-6.36zm-10.04,28.57l-13.39,19.84l21.96,-7.19l8.9,21.39l6.69,-23.02l24.74,6.37l-16.01,-18.53l19.19,-15.92l-17.14,1.06l11.34,-12.74l22.13,0l25.3,-44.81l0,-29.55l-17.96,0l-8.57,15.26l-1.63,11.51l-12.9,22.94l-11.84,0l11.6,-20.49l0,-29.14l-18.62,0l-8.32,15.18l-1.47,11.59l-20.25,36.17l3.1,8l-3.91,-4.25l1.63,21.8l-23.59,1.06l19.02,13.47z" fill="#fff" id="svg_1"/>
  <path d="m40.9,86.45c-7.27,1.88 -14.7,3.92 -21.88,5.88c-0.82,0.24 -1.55,0.57 -2.29,0.73l0,-18.28c1.15,-0.33 2.13,-0.66 3.27,-0.9c5.96,-1.8 11.92,-3.35 17.88,-4.9c0.98,-0.33 2.12,-0.49 3.1,-0.82l0,9.96c5.63,-1.47 11.18,-2.77 16.74,-4l0,-12.16c-1.96,-2.86 -3.84,-5.8 -5.88,-8.9c-1.39,0.33 -2.86,0.74 -4.25,1.06l-0.24,0c-11.92,2.86 -23.76,6.04 -35.51,9.64a11.62,11.62 0 0 0 -1.31,0.4a45.74,45.74 0 0 0 -4.41,1.39c-2.04,4.17 -4,8.33 -5.88,12.33l0,24.57c2.94,2.04 5.88,4.08 8.9,6.2c2.45,-0.73 4.82,-1.55 7.27,-2.2c7.51,-2.29 15.02,-4.24 22.45,-6.2c0.81,-0.17 1.63,-0.41 2.45,-0.58l0,19.03c-0.98,0.24 -2.13,0.49 -3.11,0.81c-6.2,1.55 -12.4,3.19 -18.53,5.06c-1.06,0.25 -2.12,0.57 -3.18,0.9l0,-9.96c-5.47,1.63 -11.02,3.35 -16.49,5.06l0,12.25c1.96,2.77 3.84,5.55 5.8,8.32c1.38,-0.4 2.85,-0.89 4.32,-1.3a9.87,9.87 0 0 1 1.47,-0.41c11.92,-3.67 23.92,-6.94 36.08,-9.8c1.56,-0.4 2.94,-0.73 4.49,-1.06c2.04,-3.92 3.92,-7.92 5.96,-11.75l0,-25.31c-2.94,-2.28 -5.96,-4.73 -8.89,-7.02c-3.03,0.65 -5.72,1.39 -8.33,1.96z" fill="#ffffff" id="svg_2" transform="matrix(1, 0, 0, 1, 0, 0)"/>
  <path d="m385.39,107.43c-2.94,-3.92 -5.87,-7.92 -8.81,-11.84c-2.62,-0.81 -5.31,-1.63 -7.92,-2.45c-7.27,-2.12 -14.53,-4.16 -21.88,-5.96c-0.82,-0.16 -1.55,-0.4 -2.37,-0.57l0,-18.45c1.06,0.33 2.13,0.49 3.19,0.82c5.96,1.55 12,3.1 17.96,4.9c0.98,0.24 2.12,0.57 3.1,0.9l0,9.87c5.55,1.64 11.02,3.35 16.49,5.07l0,-12.17c-1.88,-4 -3.84,-8 -5.72,-12c-1.47,-0.41 -2.85,-0.9 -4.32,-1.3c-0.08,0 -0.08,0 -0.17,-0.09c-11.75,-3.67 -23.59,-6.93 -35.51,-9.71a7.64,7.64 0 0 0 -1.3,-0.33c-1.55,-0.4 -3.02,-0.73 -4.57,-1.14c-2.05,3.02 -4.09,6.12 -6.05,9.14l0,24.58c3.03,3.67 5.96,7.34 8.98,11.02c2.45,0.65 4.98,1.22 7.35,1.79q11.27,2.94 22.53,6.12c0.82,0.17 1.55,0.49 2.29,0.66l0,19.02c-0.98,-0.25 -2.12,-0.57 -3.1,-0.9c-6.21,-1.8 -12.41,-3.43 -18.53,-5.06c-1.07,-0.25 -2.13,-0.49 -3.19,-0.82l0,-9.96c-5.55,-1.47 -11.1,-2.77 -16.65,-4l0,12.25c1.88,3.83 3.83,7.75 5.88,11.59c1.38,0.24 2.93,0.65 4.32,0.98c0.49,0.08 0.9,0.24 1.39,0.33c12.16,2.93 24.25,6.12 36.16,9.87c1.55,0.41 2.94,0.9 4.33,1.31c1.96,-2.78 5.8,-8.57 5.8,-8.57c0.32,0.32 0.32,-16.49 0.32,-24.9z" fill="#ffffff" id="svg_3"/>
  <path d="m117.14,57.47l0,21.31c-1.38,0.24 -2.53,0.32 -3.91,0.49c-7.27,0.98 -14.53,2.04 -21.72,3.18l0,-25.22c7.27,-1.23 14.45,-2.21 21.72,-3.11c1.38,-0.24 2.53,-0.32 3.91,-0.49l0,3.84zm5.96,-16.49c-0.57,0.08 -0.89,0.08 -1.47,0.16c-15.75,1.8 -31.42,4.25 -47.02,7.19l0,75.51c5.55,-1.14 11.27,-2.12 16.9,-3.02l0,-26.37c10.04,-1.55 20.17,-3.02 30.12,-4.24c0.58,-0.09 0.9,-0.09 1.47,-0.17c1.47,-0.24 3.02,-0.32 4.49,-0.49c2.13,-4 4.33,-7.83 6.53,-11.75l0,-27.11c-2.12,-3.42 -4.24,-7.02 -6.53,-10.44c-1.47,0.32 -3.02,0.49 -4.49,0.73z" fill="#ffffff" id="svg_4" transform="matrix(1, 0, 0, 1, 0, 0)"/>
  <path d="m289.72,78.69c-7.35,-1.14 -14.78,-2.2 -22.12,-3.02l0,-22.28c7.51,0.9 14.85,1.96 22.36,3.18c1.23,0.17 2.53,0.41 3.76,0.57l0,22.29c-1.31,-0.33 -2.7,-0.49 -4,-0.74zm14.86,8.49c2.04,-0.81 4,-1.46 6.04,-2.28l0,-26.12c-3.6,-4.17 -7.11,-8.33 -10.7,-12.49c-16.32,-2.78 -32.73,-5.06 -49.22,-6.53l0,75.51c5.63,0.49 11.34,1.06 16.98,1.79l0,-29.55c4.32,0.49 8.73,1.14 13.06,1.72c1.39,0.16 2.94,0.4 4.33,0.57c2.93,0.41 5.79,0.98 8.73,1.3l0,29.55c0.33,0 0.57,0.17 0.9,0.17c5.39,0.9 10.61,1.79 16,2.77l0,-32.08c-2.12,-1.39 -4.08,-2.77 -6.12,-4.33z" fill="#ffffff" id="svg_5"/>
  <path d="m71.18,21.14c-2.44,0.41 -4.73,0.9 -7.1,1.39a3.11,3.11 0 0 0 -0.81,0.25l0,-6.05c0.32,-0.08 0.73,-0.08 0.98,-0.16c1.96,-0.41 3.91,-0.73 5.87,-1.14c0.33,-0.08 0.74,-0.08 1.06,-0.16l0,3.18c1.8,-0.25 3.6,-0.65 5.47,-0.98l0,-3.92c-0.65,-1.06 -1.22,-1.96 -1.96,-2.94a8.04,8.04 0 0 1 -1.38,0.17l-0.08,0c-3.92,0.73 -7.76,1.47 -11.6,2.28a3.54,3.54 0 0 1 -0.4,0.08c-0.49,0.08 -0.98,0.17 -1.39,0.25c-0.57,1.39 -1.31,2.53 -1.96,3.92l0,8c1.06,0.73 1.96,1.47 2.94,2.28l2.45,-0.49c2.45,-0.49 4.89,-0.9 7.26,-1.47c0.33,0 0.57,-0.08 0.82,-0.08l0,6.12c-0.25,0.09 -0.66,0.09 -0.98,0.17c-2.04,0.41 -4.08,0.81 -6.12,1.14c-0.25,0.08 -0.66,0.08 -0.98,0.16l0,-3.18c-1.8,0.41 -3.68,0.65 -5.39,1.06l0,4c0.65,0.98 1.22,1.88 1.96,2.86c0.49,-0.08 0.9,-0.17 1.39,-0.25c0.24,0 0.32,-0.08 0.49,-0.08c4,-0.81 7.83,-1.55 11.75,-2.28c0.49,-0.09 1.06,-0.17 1.47,-0.25c0.57,-1.22 1.31,-2.45 1.88,-3.75l0,-8.25c-0.98,-0.82 -1.88,-1.63 -2.94,-2.37c-0.9,0.17 -1.8,0.25 -2.7,0.49z" fill="#ffffff" id="svg_6"/>
  <path d="m90.78,22.61q1.59,-6 2.94,-12.24c1.06,3.75 1.95,7.59 2.93,11.34c-1.87,0.33 -3.91,0.66 -5.87,0.9zm-0.82,-14.61c-2.2,8.49 -4.41,16.98 -6.78,25.47c1.72,-0.33 3.43,-0.65 5.23,-0.82c0.49,-1.96 0.9,-3.83 1.39,-5.63c2.61,-0.41 5.22,-0.82 8,-1.22c0.49,1.71 0.9,3.51 1.39,5.22c1.79,-0.33 3.75,-0.49 5.55,-0.82c-2.21,-7.83 -4.41,-15.67 -6.78,-23.42c-2.69,0.4 -5.31,0.81 -8,1.22z" fill="#ffffff" id="svg_7"/>
  <path d="m125.47,19.59c-2.77,-5.14 -5.71,-10.2 -8.57,-15.35c-1.88,0.17 -3.84,0.41 -5.8,0.66l0,24.49c1.64,-0.17 3.27,-0.41 4.9,-0.57l0,-16.41c2.86,5.14 5.63,10.37 8.49,15.51c1.96,-0.25 3.84,-0.41 5.88,-0.65l0,-24.49c-1.63,0.24 -3.27,0.32 -4.9,0.57l0,16.24z" fill="#ffffff" id="svg_8"/>
  <path d="m155.59,15.84c0.98,-3.92 1.96,-8 3.02,-11.92c0.98,3.84 1.88,7.75 2.94,11.67c-2.04,0.08 -4,0.17 -5.96,0.25zm-0.81,-14.78c-2.29,8.33 -4.57,16.65 -6.78,24.9c1.72,-0.08 3.43,-0.16 5.23,-0.33c0.49,-1.79 0.89,-3.67 1.38,-5.55c2.7,-0.16 5.39,-0.24 8,-0.41c0.58,1.88 0.98,3.68 1.47,5.47c1.88,-0.08 3.76,-0.16 5.64,-0.16c-2.21,-8.08 -4.57,-16.08 -6.78,-24.16c-2.86,0 -5.55,0.08 -8.16,0.24z" fill="#ffffff" id="svg_9"/>
  <path d="m192,16.25c-2.85,-5.47 -5.79,-10.78 -8.65,-16.17c-1.88,0 -3.84,0.08 -5.71,0.08l0,24.49c1.63,0 3.18,-0.08 4.81,-0.08l0,-16.49c2.86,5.47 5.72,10.78 8.49,16.25l5.88,0l0,-24.33l-4.82,0l0,16.25z" fill="#ffffff" id="svg_10"/>
  <path d="m204.82,4.49c2.28,0 4.49,0.16 6.69,0.24l0,20c1.8,0.17 3.68,0.17 5.47,0.25l0,-20.08c2.21,0.16 4.49,0.24 6.7,0.32l0,-4.32c-6.29,-0.33 -12.58,-0.49 -18.86,-0.66l0,4.25z" fill="#ffffff" id="svg_11"/>
  <path d="m273.64,21.22c-2.86,-5.79 -5.64,-11.51 -8.58,-17.3c-1.95,-0.25 -3.83,-0.41 -5.79,-0.57l0,24.49c1.63,0.16 3.26,0.24 4.9,0.49l0,-16.41c2.77,5.79 5.63,11.51 8.49,17.39c1.87,0.24 3.83,0.49 5.71,0.73l0,-24.49c-1.55,-0.24 -3.18,-0.41 -4.82,-0.65l0,16.32l0.09,0z" fill="#ffffff" id="svg_12"/>
  <path d="m286.37,10.37c1.47,0.24 2.78,0.41 4.16,0.65l0,16.9c-1.38,-0.25 -2.69,-0.41 -4.16,-0.65l0,3.75c4.57,0.65 9.14,1.31 13.72,2.12l0,-3.75c-1.47,-0.17 -2.78,-0.41 -4.17,-0.65l0,-16.9c1.39,0.16 2.7,0.41 4.17,0.65l0,-3.76c-4.58,-0.65 -9.15,-1.38 -13.72,-2.12l0,3.76z" fill="#ffffff" id="svg_13"/>
  <path d="m245.8,7.67l0,14.86c-0.49,0 -0.9,-0.08 -1.39,-0.08c-1.96,-0.25 -3.84,-0.33 -5.79,-0.41c-0.49,0 -0.9,-0.08 -1.39,-0.08l0,-16.33c0.49,0 0.9,0.08 1.39,0.08c1.95,0.17 3.83,0.33 5.79,0.41c0.49,0 0.9,0.08 1.39,0.08l0,1.47zm3.35,-5.3c-0.49,0 -0.98,-0.08 -1.47,-0.08c-4,-0.33 -7.84,-0.58 -11.76,-0.9l-0.49,0c-0.57,0 -1.06,-0.08 -1.55,-0.08c-0.73,1.06 -1.39,2.28 -2.12,3.42l0,17.23c0.73,1.14 1.39,2.53 2.12,3.67c0.49,0 0.98,0.17 1.55,0.17l0.49,0c3.92,0.24 7.76,0.49 11.76,0.89c0.49,0 0.98,0.09 1.47,0.09c0.73,-1.15 1.47,-2.29 2.12,-3.43l0,-17.23c-0.65,-1.22 -1.39,-2.45 -2.12,-3.75z" fill="#ffffff" id="svg_14"/>
  <path d="m322.05,18.2l0,14.86c-0.49,-0.08 -0.9,-0.24 -1.47,-0.32c-1.88,-0.41 -3.84,-0.66 -5.72,-1.07a9.49,9.49 0 0 0 -1.47,-0.32l0,-16.33a9.49,9.49 0 0 0 1.47,0.33c1.88,0.41 3.84,0.73 5.72,1.14c0.57,0.08 0.98,0.16 1.47,0.24l0,1.47zm5.3,-0.81c-0.65,-1.31 -1.39,-2.78 -1.96,-4.08c-0.57,-0.09 -1.06,-0.17 -1.55,-0.25c-3.84,-0.81 -7.67,-1.55 -11.67,-2.28c-0.17,0 -0.33,-0.09 -0.49,-0.09a9.49,9.49 0 0 1 -1.47,-0.32a35.71,35.71 0 0 0 -2.04,3.26l0,17.23c0.73,1.3 1.39,2.61 2.04,3.92c0.49,0.08 0.98,0.24 1.47,0.32a2.89,2.89 0 0 1 0.49,0.08c3.92,0.74 7.83,1.39 11.67,2.21a8.67,8.67 0 0 0 1.55,0.32c0.66,-1.14 1.39,-2.12 1.96,-3.26l0,-17.06z" fill="#ffffff" id="svg_15"/>
  <polygon id="svg_16" points="163.431 64.654 143.512 100.083 146.859 108.328 159.186 108.328 153.553 122.614 143.022 111.185 144.247 128.002 125.879 128.818 140.492 139.022 130.124 154.451 146.859 149.063 153.716 165.635 159.023 147.512 177.635 152.247 165.553 138.369 180.329 126.124 165.064 127.104 181.635 108.328 203.431 108.328 227.513 65.634 227.513 39.674 213.962 39.674 206.125 53.47 204.819 64.654 190.86 89.552 172.574 89.552 186.207 65.47 186.207 39.756 172.084 39.756 164.574 53.47 163.431 64.654"/>
  <polygon fill="#c4ced4" id="svg_17" points="222.452 43.511 216.085 43.511 211.187 52.082 217.799 52.082 222.452 43.511"/>
  <polygon fill="#c4ced4" id="svg_18" points="181.227 43.511 174.451 43.511 169.635 52.082 176.819 52.082 181.227 43.511"/>
  <polygon fill="#c4ced4" id="svg_19" points="168.411 98.205 154.206 130.614 147.839 123.757 148.492 132.41 138.941 132.818 146.533 138.206 141.226 146.206 149.88 143.349 153.472 151.92 156.165 142.533 165.88 145.063 159.594 137.798 167.268 131.43 156.492 132.165 155.757 132.165 178.125 98.369 197.554 98.369 214.779 67.593 208.085 67.593 193.635 92.981 158.859 92.981 173.39 67.593 166.615 67.593 149.063 98.369 168.411 98.369 168.411 98.205"/>
  <polygon fill="#c4ced4" id="svg_20" points="175.023 55.593 168.737 55.593 167.921 63.021 174.37 63.021 175.023 55.593"/>
  <polygon fill="#c4ced4" id="svg_21" points="216.411 55.593 210.207 55.593 209.391 63.021 215.758 63.021 216.411 55.593"/>
  <path d="m151.19,140.25a2.79,2.79 0 0 0 2.85,-2.72q0,-0.07 0,-0.14a2.84,2.84 0 0 0 -2.82,-2.86q-0.02,0 -0.03,0a2.86,2.86 0 0 0 0,5.72z" id="svg_22"/>
 </g>
</svg>