<?xml version="1.0" encoding="UTF-8"?>
<svg xmlns="http://www.w3.org/2000/svg" xmlns:xlink="http://www.w3.org/1999/xlink" width="300px" height="300px" viewBox="0 0 300 300" version="1.1">
<g id="surface1">
<path style=" stroke:none;fill-rule:nonzero;fill:rgb(100%,100%,100%);fill-opacity:1;" d="M 110.085938 165.203125 L 116.390625 165.203125 L 114.496094 169.972656 Z M 102.554688 186.628906 L 92.511719 201.511719 L 108.984375 196.117188 L 115.65625 212.160156 L 120.675781 194.894531 L 139.230469 199.671875 L 127.222656 185.773438 L 141.613281 173.835938 L 128.761719 174.628906 L 137.265625 165.074219 L 153.863281 165.074219 L 172.835938 131.46875 L 172.835938 109.304688 L 159.367188 109.304688 L 152.941406 120.75 L 151.71875 129.382812 L 142.042969 146.585938 L 133.164062 146.585938 L 141.863281 131.21875 L 141.863281 109.363281 L 127.898438 109.363281 L 121.65625 120.75 L 120.554688 129.441406 L 105.367188 156.570312 L 107.691406 162.570312 L 104.761719 159.382812 L 105.984375 175.734375 L 88.289062 176.527344 Z M 102.554688 186.628906 "/>
<path style=" stroke:none;fill-rule:nonzero;fill:rgb(100%,100%,100%);fill-opacity:1;" d="M 30.675781 146.585938 C 25.222656 147.996094 19.648438 149.527344 14.265625 150.996094 C 13.648438 151.175781 13.101562 151.425781 12.546875 151.546875 L 12.546875 137.835938 C 13.410156 137.585938 14.144531 137.339844 15 137.160156 C 19.46875 135.808594 23.941406 134.648438 28.410156 133.484375 C 29.144531 133.238281 30 133.117188 30.734375 132.871094 L 30.734375 140.339844 C 34.957031 139.238281 39.121094 138.261719 43.289062 137.339844 L 43.289062 128.21875 C 41.820312 126.074219 40.410156 123.871094 38.878906 121.546875 C 37.835938 121.792969 36.734375 122.101562 35.691406 122.339844 L 35.511719 122.339844 C 26.574219 124.484375 17.691406 126.871094 8.878906 129.570312 C 8.546875 129.652344 8.21875 129.75 7.898438 129.871094 C 6.777344 130.160156 5.675781 130.507812 4.589844 130.914062 C 3.058594 134.039062 1.589844 137.160156 0.179688 140.160156 L 0.179688 158.585938 C 2.386719 160.117188 4.589844 161.648438 6.855469 163.238281 C 8.691406 162.691406 10.46875 162.074219 12.308594 161.585938 C 17.941406 159.871094 23.574219 158.40625 29.144531 156.9375 C 29.753906 156.808594 30.367188 156.628906 30.984375 156.503906 L 30.984375 170.773438 C 30.246094 170.953125 29.386719 171.140625 28.648438 171.382812 C 24 172.546875 19.351562 173.773438 14.753906 175.175781 C 13.957031 175.363281 13.164062 175.605469 12.367188 175.851562 L 12.367188 168.382812 C 8.265625 169.605469 4.101562 170.894531 0 172.175781 L 0 181.363281 C 1.46875 183.441406 2.878906 185.527344 4.351562 187.605469 C 5.386719 187.304688 6.488281 186.9375 7.589844 186.628906 C 7.949219 186.5 8.316406 186.394531 8.691406 186.324219 C 17.632812 183.570312 26.632812 181.117188 35.753906 178.972656 C 36.921875 178.671875 37.957031 178.425781 39.121094 178.175781 C 40.648438 175.238281 42.058594 172.238281 43.589844 169.363281 L 43.589844 150.382812 C 41.386719 148.671875 39.121094 146.835938 36.921875 145.117188 C 34.648438 145.605469 32.632812 146.160156 30.675781 146.585938 Z M 30.675781 146.585938 "/>
<path style=" stroke:none;fill-rule:nonzero;fill:rgb(100%,100%,100%);fill-opacity:1;" d="M 289.042969 162.324219 C 286.835938 159.382812 284.640625 156.382812 282.433594 153.441406 C 280.46875 152.835938 278.453125 152.21875 276.496094 151.605469 C 271.042969 150.015625 265.597656 148.484375 260.085938 147.136719 C 259.46875 147.015625 258.921875 146.835938 258.308594 146.707031 L 258.308594 132.871094 C 259.101562 133.117188 259.90625 133.238281 260.699219 133.484375 C 265.171875 134.648438 269.699219 135.808594 274.171875 137.160156 C 274.90625 137.339844 275.761719 137.585938 276.496094 137.835938 L 276.496094 145.238281 C 280.65625 146.46875 284.761719 147.75 288.863281 149.039062 L 288.863281 139.914062 C 287.453125 136.914062 285.984375 133.914062 284.574219 130.914062 C 283.46875 130.605469 282.433594 130.238281 281.332031 129.9375 C 281.273438 129.9375 281.273438 129.9375 281.203125 129.871094 C 272.390625 127.117188 263.511719 124.671875 254.574219 122.585938 C 254.253906 122.476562 253.929688 122.394531 253.597656 122.339844 C 252.433594 122.039062 251.332031 121.792969 250.171875 121.484375 C 248.632812 123.75 247.101562 126.074219 245.632812 128.339844 L 245.632812 146.773438 C 247.90625 149.527344 250.101562 152.28125 252.367188 155.039062 C 254.203125 155.527344 256.101562 155.953125 257.878906 156.382812 C 263.515625 157.851562 269.148438 159.382812 274.777344 160.972656 C 275.390625 161.101562 275.941406 161.339844 276.496094 161.46875 L 276.496094 175.734375 C 275.761719 175.546875 274.90625 175.304688 274.171875 175.058594 C 269.511719 173.707031 264.863281 172.484375 260.273438 171.261719 C 259.46875 171.074219 258.675781 170.894531 257.878906 170.648438 L 257.878906 163.175781 C 253.71875 162.074219 249.554688 161.101562 245.390625 160.175781 L 245.390625 169.363281 C 246.800781 172.238281 248.265625 175.175781 249.800781 178.058594 C 250.835938 178.238281 252 178.546875 253.042969 178.792969 C 253.410156 178.851562 253.71875 178.972656 254.085938 179.039062 C 263.203125 181.238281 272.273438 183.628906 281.203125 186.441406 C 282.367188 186.75 283.410156 187.117188 284.453125 187.425781 C 285.921875 185.339844 288.800781 180.996094 288.800781 180.996094 C 289.042969 181.238281 289.042969 168.628906 289.042969 162.324219 Z M 289.042969 162.324219 "/>
<path style=" stroke:none;fill-rule:nonzero;fill:rgb(100%,100%,100%);fill-opacity:1;" d="M 87.855469 124.851562 L 87.855469 140.835938 C 86.820312 141.015625 85.957031 141.074219 84.921875 141.203125 C 79.46875 141.9375 74.023438 142.734375 68.632812 143.585938 L 68.632812 124.671875 C 74.085938 123.75 79.46875 123.015625 84.921875 122.339844 C 85.957031 122.160156 86.820312 122.101562 87.855469 121.972656 Z M 92.324219 112.484375 C 91.898438 112.546875 91.65625 112.546875 91.222656 112.605469 C 79.410156 113.953125 67.65625 115.792969 55.957031 117.996094 L 55.957031 174.628906 C 60.121094 173.773438 64.410156 173.039062 68.632812 172.363281 L 68.632812 152.585938 C 76.164062 151.425781 83.761719 150.324219 91.222656 149.40625 C 91.65625 149.339844 91.898438 149.339844 92.324219 149.28125 C 93.425781 149.101562 94.589844 149.039062 95.691406 148.914062 C 97.289062 145.914062 98.941406 143.039062 100.589844 140.101562 L 100.589844 119.765625 C 99 117.203125 97.410156 114.503906 95.691406 111.9375 C 94.589844 112.175781 93.425781 112.304688 92.324219 112.484375 Z M 92.324219 112.484375 "/>
<path style=" stroke:none;fill-rule:nonzero;fill:rgb(100%,100%,100%);fill-opacity:1;" d="M 217.289062 140.765625 C 211.777344 139.914062 206.203125 139.117188 200.699219 138.503906 L 200.699219 121.792969 C 206.332031 122.46875 211.835938 123.261719 217.46875 124.175781 C 218.390625 124.304688 219.367188 124.484375 220.289062 124.605469 L 220.289062 141.324219 C 219.308594 141.074219 218.265625 140.953125 217.289062 140.765625 Z M 228.433594 147.136719 C 229.964844 146.527344 231.433594 146.039062 232.964844 145.425781 L 232.964844 125.835938 C 230.265625 122.707031 227.632812 119.585938 224.941406 116.46875 C 212.699219 114.382812 200.390625 112.671875 188.023438 111.570312 L 188.023438 168.203125 C 192.246094 168.570312 196.53125 168.996094 200.761719 169.546875 L 200.761719 147.382812 C 204 147.75 207.308594 148.238281 210.554688 148.671875 C 211.597656 148.792969 212.761719 148.972656 213.800781 149.101562 C 216 149.40625 218.144531 149.835938 220.351562 150.074219 L 220.351562 172.238281 C 220.597656 172.238281 220.777344 172.363281 221.023438 172.363281 C 225.066406 173.039062 228.984375 173.707031 233.023438 174.441406 L 233.023438 150.382812 C 231.433594 149.339844 229.964844 148.304688 228.433594 147.136719 Z M 228.433594 147.136719 "/>
<path style=" stroke:none;fill-rule:nonzero;fill:rgb(100%,100%,100%);fill-opacity:1;" d="M 53.386719 97.605469 C 51.554688 97.914062 49.835938 98.28125 48.058594 98.648438 C 47.851562 98.683594 47.644531 98.746094 47.453125 98.835938 L 47.453125 94.296875 C 47.691406 94.238281 48 94.238281 48.1875 94.175781 C 49.65625 93.871094 51.121094 93.628906 52.589844 93.324219 C 52.835938 93.261719 53.144531 93.261719 53.386719 93.203125 L 53.386719 95.585938 C 54.734375 95.398438 56.085938 95.101562 57.488281 94.851562 L 57.488281 91.914062 C 57 91.117188 56.574219 90.441406 56.015625 89.707031 C 55.675781 89.78125 55.332031 89.824219 54.984375 89.835938 L 54.921875 89.835938 C 51.984375 90.382812 49.101562 90.9375 46.222656 91.546875 C 46.125 91.570312 46.023438 91.589844 45.921875 91.605469 C 45.554688 91.664062 45.1875 91.734375 44.878906 91.792969 C 44.453125 92.835938 43.898438 93.691406 43.410156 94.734375 L 43.410156 100.734375 C 44.203125 101.28125 44.878906 101.835938 45.613281 102.441406 L 47.453125 102.074219 C 49.289062 101.707031 51.121094 101.398438 52.898438 100.972656 C 53.144531 100.972656 53.324219 100.914062 53.511719 100.914062 L 53.511719 105.503906 C 53.324219 105.570312 53.015625 105.570312 52.777344 105.628906 C 51.246094 105.9375 49.71875 106.238281 48.1875 106.484375 C 48 106.546875 47.691406 106.546875 47.453125 106.605469 L 47.453125 104.21875 C 46.101562 104.527344 44.691406 104.707031 43.410156 105.015625 L 43.410156 108.015625 C 43.898438 108.75 44.324219 109.425781 44.878906 110.160156 C 45.246094 110.101562 45.554688 110.03125 45.921875 109.972656 C 46.101562 109.972656 46.164062 109.914062 46.289062 109.914062 C 49.289062 109.304688 52.164062 108.75 55.101562 108.203125 C 55.46875 108.136719 55.898438 108.074219 56.203125 108.015625 C 56.632812 107.101562 57.1875 106.175781 57.613281 105.203125 L 57.613281 99.015625 C 56.878906 98.398438 56.203125 97.792969 55.410156 97.238281 C 54.734375 97.363281 54.058594 97.425781 53.386719 97.605469 Z M 53.386719 97.605469 "/>
<path style=" stroke:none;fill-rule:nonzero;fill:rgb(100%,100%,100%);fill-opacity:1;" d="M 68.085938 98.707031 C 68.878906 95.707031 69.613281 92.648438 70.289062 89.527344 C 71.085938 92.339844 71.753906 95.21875 72.488281 98.03125 C 71.085938 98.28125 69.554688 98.527344 68.085938 98.707031 Z M 67.46875 87.75 C 65.820312 94.117188 64.164062 100.484375 62.386719 106.851562 C 63.675781 106.605469 64.957031 106.363281 66.308594 106.238281 C 66.675781 104.765625 66.984375 103.363281 67.351562 102.015625 C 69.308594 101.707031 71.265625 101.398438 73.351562 101.101562 C 73.71875 102.382812 74.023438 103.734375 74.390625 105.015625 C 75.734375 104.765625 77.203125 104.648438 78.554688 104.398438 C 76.898438 98.527344 75.246094 92.648438 73.46875 86.835938 C 71.453125 87.136719 69.488281 87.441406 67.46875 87.75 Z M 67.46875 87.75 "/>
<path style=" stroke:none;fill-rule:nonzero;fill:rgb(100%,100%,100%);fill-opacity:1;" d="M 94.101562 96.441406 C 92.023438 92.585938 89.820312 88.792969 87.675781 84.929688 C 86.265625 85.058594 84.796875 85.238281 83.324219 85.425781 L 83.324219 103.792969 C 84.554688 103.664062 85.777344 103.484375 87 103.363281 L 87 91.058594 C 89.144531 94.914062 91.222656 98.835938 93.367188 102.691406 C 94.835938 102.503906 96.246094 102.382812 97.777344 102.203125 L 97.777344 83.835938 C 96.554688 84.015625 95.324219 84.074219 94.101562 84.261719 Z M 94.101562 96.441406 "/>
<path style=" stroke:none;fill-rule:nonzero;fill:rgb(100%,100%,100%);fill-opacity:1;" d="M 116.691406 93.628906 C 117.425781 90.691406 118.164062 87.628906 118.957031 84.691406 C 119.691406 87.570312 120.367188 90.503906 121.164062 93.441406 C 119.632812 93.503906 118.164062 93.570312 116.691406 93.628906 Z M 116.085938 82.546875 C 114.367188 88.792969 112.65625 95.03125 111 101.21875 C 112.289062 101.160156 113.574219 101.101562 114.921875 100.972656 C 115.289062 99.628906 115.589844 98.21875 115.957031 96.808594 C 117.984375 96.691406 120 96.628906 121.957031 96.503906 C 122.390625 97.914062 122.691406 99.261719 123.058594 100.605469 C 124.46875 100.546875 125.878906 100.484375 127.289062 100.484375 C 125.632812 94.425781 123.863281 88.425781 122.203125 82.363281 C 120.058594 82.363281 118.042969 82.425781 116.085938 82.546875 Z M 116.085938 82.546875 "/>
<path style=" stroke:none;fill-rule:nonzero;fill:rgb(100%,100%,100%);fill-opacity:1;" d="M 144 93.9375 C 141.863281 89.835938 139.65625 85.851562 137.511719 81.808594 C 136.101562 81.808594 134.632812 81.871094 133.230469 81.871094 L 133.230469 100.238281 C 134.453125 100.238281 135.613281 100.175781 136.835938 100.175781 L 136.835938 87.808594 C 138.984375 91.914062 141.128906 95.894531 143.203125 99.996094 L 147.613281 99.996094 L 147.613281 81.75 L 144 81.75 Z M 144 93.9375 "/>
<path style=" stroke:none;fill-rule:nonzero;fill:rgb(100%,100%,100%);fill-opacity:1;" d="M 153.613281 85.117188 C 155.324219 85.117188 156.984375 85.238281 158.632812 85.296875 L 158.632812 100.296875 C 159.984375 100.425781 161.390625 100.425781 162.734375 100.484375 L 162.734375 85.425781 C 164.390625 85.546875 166.101562 85.605469 167.761719 85.664062 L 167.761719 82.425781 C 163.042969 82.175781 158.324219 82.058594 153.613281 81.929688 Z M 153.613281 85.117188 "/>
<path style=" stroke:none;fill-rule:nonzero;fill:rgb(100%,100%,100%);fill-opacity:1;" d="M 205.230469 97.664062 C 203.085938 93.324219 201 89.03125 198.796875 84.691406 C 197.332031 84.503906 195.921875 84.382812 194.453125 84.261719 L 194.453125 102.628906 C 195.675781 102.75 196.898438 102.808594 198.128906 102.996094 L 198.128906 90.691406 C 200.203125 95.03125 202.351562 99.324219 204.496094 103.734375 C 205.898438 103.914062 207.367188 104.101562 208.777344 104.28125 L 208.777344 85.914062 C 207.613281 85.734375 206.390625 85.605469 205.164062 85.425781 L 205.164062 97.664062 Z M 205.230469 97.664062 "/>
<path style=" stroke:none;fill-rule:nonzero;fill:rgb(100%,100%,100%);fill-opacity:1;" d="M 214.777344 89.527344 C 215.878906 89.707031 216.863281 89.835938 217.898438 90.015625 L 217.898438 102.691406 C 216.863281 102.503906 215.878906 102.382812 214.777344 102.203125 L 214.777344 105.015625 C 218.203125 105.503906 221.632812 105.996094 225.066406 106.605469 L 225.066406 103.792969 C 223.964844 103.664062 222.984375 103.484375 221.941406 103.304688 L 221.941406 90.628906 C 222.984375 90.75 223.964844 90.9375 225.066406 91.117188 L 225.066406 88.296875 C 221.632812 87.808594 218.203125 87.261719 214.777344 86.707031 Z M 214.777344 89.527344 "/>
<path style=" stroke:none;fill-rule:nonzero;fill:rgb(100%,100%,100%);fill-opacity:1;" d="M 184.351562 87.503906 L 184.351562 98.648438 C 183.984375 98.648438 183.675781 98.585938 183.308594 98.585938 C 181.835938 98.398438 180.425781 98.339844 178.964844 98.28125 C 178.597656 98.28125 178.289062 98.21875 177.921875 98.21875 L 177.921875 85.972656 C 178.289062 85.972656 178.597656 86.03125 178.964844 86.03125 C 180.425781 86.160156 181.835938 86.28125 183.308594 86.339844 C 183.675781 86.339844 183.984375 86.398438 184.351562 86.398438 Z M 186.863281 83.527344 C 186.496094 83.527344 186.128906 83.46875 185.761719 83.46875 C 182.761719 83.21875 179.878906 83.03125 176.941406 82.792969 L 176.574219 82.792969 C 176.144531 82.792969 175.777344 82.734375 175.410156 82.734375 C 174.863281 83.527344 174.367188 84.441406 173.820312 85.296875 L 173.820312 98.21875 C 174.367188 99.074219 174.863281 100.117188 175.410156 100.972656 C 175.777344 100.972656 176.144531 101.101562 176.574219 101.101562 L 176.941406 101.101562 C 179.878906 101.28125 182.761719 101.46875 185.761719 101.765625 C 186.128906 101.765625 186.496094 101.835938 186.863281 101.835938 C 187.410156 100.972656 187.964844 100.117188 188.453125 99.261719 L 188.453125 86.339844 C 187.964844 85.425781 187.410156 84.503906 186.863281 83.527344 Z M 186.863281 83.527344 "/>
<path style=" stroke:none;fill-rule:nonzero;fill:rgb(100%,100%,100%);fill-opacity:1;" d="M 241.539062 95.398438 L 241.539062 106.546875 C 241.171875 106.484375 240.863281 106.363281 240.433594 106.304688 C 239.023438 105.996094 237.554688 105.808594 236.144531 105.503906 C 235.785156 105.394531 235.414062 105.3125 235.042969 105.261719 L 235.042969 93.015625 C 235.402344 93.125 235.773438 93.210938 236.144531 93.261719 C 237.554688 93.570312 239.023438 93.808594 240.433594 94.117188 C 240.863281 94.175781 241.171875 94.238281 241.539062 94.296875 Z M 245.511719 94.792969 C 245.023438 93.808594 244.46875 92.707031 244.042969 91.734375 C 243.613281 91.664062 243.246094 91.605469 242.878906 91.546875 C 240 90.9375 237.128906 90.382812 234.128906 89.835938 C 234 89.835938 233.878906 89.765625 233.761719 89.765625 C 233.386719 89.71875 233.019531 89.636719 232.65625 89.527344 C 232.105469 90.3125 231.59375 91.128906 231.128906 91.972656 L 231.128906 104.894531 C 231.675781 105.871094 232.171875 106.851562 232.65625 107.835938 C 233.023438 107.894531 233.390625 108.015625 233.761719 108.074219 C 233.882812 108.085938 234.007812 108.105469 234.128906 108.136719 C 237.066406 108.691406 240 109.175781 242.878906 109.792969 C 243.257812 109.90625 243.648438 109.988281 244.042969 110.03125 C 244.539062 109.175781 245.085938 108.441406 245.511719 107.585938 Z M 245.511719 94.792969 "/>
<path style=" stroke:none;fill-rule:nonzero;fill:rgb(0%,0%,0%);fill-opacity:1;" d="M 122.574219 130.242188 L 107.632812 156.8125 L 110.144531 162.996094 L 119.390625 162.996094 L 115.164062 173.710938 L 107.265625 165.140625 L 108.183594 177.75 L 94.410156 178.363281 L 105.367188 186.015625 L 97.59375 197.589844 L 110.144531 193.546875 L 115.285156 205.976562 L 119.265625 192.382812 L 133.226562 195.933594 L 124.164062 185.527344 L 135.246094 176.34375 L 123.796875 177.078125 L 136.226562 162.996094 L 152.574219 162.996094 L 170.632812 130.976562 L 170.632812 111.503906 L 160.472656 111.503906 L 154.59375 121.851562 L 153.613281 130.242188 L 143.144531 148.914062 L 129.429688 148.914062 L 139.65625 130.851562 L 139.65625 111.566406 L 129.0625 111.566406 L 123.429688 121.851562 Z M 122.574219 130.242188 "/>
<path style=" stroke:none;fill-rule:nonzero;fill:rgb(76.862746%,80.784315%,83.137256%);fill-opacity:1;" d="M 166.839844 114.382812 L 162.0625 114.382812 L 158.390625 120.8125 L 163.347656 120.8125 Z M 166.839844 114.382812 "/>
<path style=" stroke:none;fill-rule:nonzero;fill:rgb(76.862746%,80.784315%,83.137256%);fill-opacity:1;" d="M 135.921875 114.382812 L 130.839844 114.382812 L 127.226562 120.8125 L 132.613281 120.8125 Z M 135.921875 114.382812 "/>
<path style=" stroke:none;fill-rule:nonzero;fill:rgb(76.862746%,80.784315%,83.137256%);fill-opacity:1;" d="M 126.308594 155.402344 L 115.65625 179.710938 L 110.878906 174.566406 L 111.367188 181.058594 L 104.207031 181.363281 L 109.898438 185.40625 L 105.917969 191.40625 L 112.410156 189.261719 L 115.105469 195.691406 L 117.125 188.648438 L 124.410156 190.546875 L 119.695312 185.097656 L 125.449219 180.324219 L 117.367188 180.875 L 116.816406 180.875 L 133.59375 155.527344 L 148.164062 155.527344 L 161.085938 132.445312 L 156.0625 132.445312 L 145.226562 151.484375 L 119.144531 151.484375 L 130.042969 132.445312 L 124.960938 132.445312 L 111.796875 155.527344 L 126.308594 155.527344 Z M 126.308594 155.402344 "/>
<path style=" stroke:none;fill-rule:nonzero;fill:rgb(76.862746%,80.784315%,83.137256%);fill-opacity:1;" d="M 131.265625 123.445312 L 126.554688 123.445312 L 125.941406 129.015625 L 130.777344 129.015625 Z M 131.265625 123.445312 "/>
<path style=" stroke:none;fill-rule:nonzero;fill:rgb(76.862746%,80.784315%,83.137256%);fill-opacity:1;" d="M 162.308594 123.445312 L 157.65625 123.445312 L 157.042969 129.015625 L 161.820312 129.015625 Z M 162.308594 123.445312 "/>
<path style=" stroke:none;fill-rule:nonzero;fill:rgb(0%,0%,0%);fill-opacity:1;" d="M 113.390625 186.9375 C 114.546875 186.960938 115.5 186.050781 115.53125 184.898438 C 115.53125 184.863281 115.53125 184.828125 115.53125 184.792969 C 115.539062 183.617188 114.589844 182.65625 113.414062 182.648438 C 113.40625 182.648438 113.398438 182.648438 113.390625 182.648438 C 112.207031 182.648438 111.246094 183.609375 111.246094 184.792969 C 111.246094 185.976562 112.207031 186.9375 113.390625 186.9375 Z M 113.390625 186.9375 "/>
</g>
</svg>
