<?xml version="1.0" encoding="UTF-8"?>
<svg xmlns="http://www.w3.org/2000/svg" xmlns:xlink="http://www.w3.org/1999/xlink" width="300px" height="300px" viewBox="0 0 300 300" version="1.1">
<defs>
<clipPath id="clip1">
  <path d="M 0 0 L 299.652344 0 L 299.652344 299.6875 L 0 299.6875 Z M 0 0 "/>
</clipPath>
</defs>
<g id="surface1">
<g clip-path="url(#clip1)" clip-rule="nonzero">
<path style=" stroke:none;fill-rule:nonzero;fill:rgb(100%,100%,100%);fill-opacity:1;" d="M 299.652344 0 L 256.765625 37.742188 L 220.925781 6.363281 L 184.921875 37.746094 L 149.140625 6.363281 L 113.371094 37.742188 L 77.582031 6.363281 L 41.820312 37.757812 L 0 0.753906 L 0 167.871094 C 0 240.550781 66.511719 299.6875 149.371094 299.6875 C 232.355469 299.585938 299.582031 240.617188 299.652344 167.871094 Z M 299.652344 0 "/>
</g>
<path style=" stroke:none;fill-rule:nonzero;fill:rgb(36.078432%,40.000001%,43.921569%);fill-opacity:1;" d="M 13.375 190.757812 C 16.914062 206.496094 24.003906 221.457031 34.238281 234.757812 C 40.46875 225.175781 52.9375 213.273438 77.421875 208.21875 C 75.542969 202.707031 73.867188 196.847656 72.445312 190.757812 Z M 13.375 190.757812 "/>
<path style=" stroke:none;fill-rule:nonzero;fill:rgb(36.078432%,40.000001%,43.921569%);fill-opacity:1;" d="M 44.007812 246.082031 C 70.105469 273.117188 108.34375 288.847656 148.742188 289.171875 C 144.953125 287.476562 141.246094 285.609375 137.683594 283.597656 C 120.652344 273.949219 97.246094 255.171875 82.128906 220.359375 C 58.339844 224.90625 48.269531 236.726562 44.007812 246.082031 "/>
<path style=" stroke:none;fill-rule:nonzero;fill:rgb(36.078432%,40.000001%,43.921569%);fill-opacity:1;" d="M 96.785156 218.53125 C 107.515625 242.175781 123.722656 260.347656 145 272.542969 C 156.105469 278.929688 168.453125 283.476562 181.433594 285.953125 C 203.757812 281.363281 224.441406 272.007812 241.644531 258.722656 C 228.078125 257.417969 214.167969 250.574219 199.484375 243.355469 C 176.558594 232.074219 148.003906 218.035156 109.457031 218.035156 C 105.292969 218.035156 101.042969 218.210938 96.785156 218.53125 "/>
<path style=" stroke:none;fill-rule:nonzero;fill:rgb(35.686275%,16.862746%,50.980395%);fill-opacity:1;" d="M 154.75 129.261719 L 105.179688 129.261719 L 105.179688 180.996094 L 125.773438 180.996094 L 125.773438 139.496094 L 141.242188 139.496094 L 141.242188 181 L 160.867188 181 L 160.867188 136.507812 C 160.867188 132.566406 158.121094 129.261719 154.75 129.261719 "/>
<path style=" stroke:none;fill-rule:nonzero;fill:rgb(35.686275%,16.862746%,50.980395%);fill-opacity:1;" d="M 169.542969 129.261719 L 169.542969 173.644531 C 169.542969 177.59375 172.269531 181 175.628906 181 L 225.148438 181 L 225.148438 149.585938 L 205.378906 149.566406 L 205.378906 170.75 L 189.914062 170.75 L 189.914062 139.246094 L 225.152344 139.246094 L 225.152344 129.261719 Z M 169.542969 129.261719 "/>
<path style=" stroke:none;fill-rule:nonzero;fill:rgb(35.686275%,16.862746%,50.980395%);fill-opacity:1;" d="M 50.375 129.261719 L 39.171875 150.152344 L 32.703125 150.152344 L 32.703125 129.261719 L 12.207031 129.261719 L 12.207031 180.996094 L 32.703125 180.996094 L 32.703125 160.179688 L 39.171875 160.179688 L 50.375 180.996094 L 70.851562 180.996094 L 56.410156 155.167969 L 70.851562 129.261719 Z M 50.375 129.261719 "/>
<path style=" stroke:none;fill-rule:nonzero;fill:rgb(35.686275%,16.862746%,50.980395%);fill-opacity:1;" d="M 76.304688 129.261719 L 97.527344 129.261719 L 97.527344 180.996094 L 76.304688 180.996094 Z M 76.304688 129.261719 "/>
<path style=" stroke:none;fill-rule:nonzero;fill:rgb(35.686275%,16.862746%,50.980395%);fill-opacity:1;" d="M 287.5 143.253906 L 287.5 129.261719 L 233.09375 129.261719 L 233.09375 152.898438 C 233.09375 156.835938 235.820312 160.039062 239.175781 160.039062 L 266.898438 160.039062 L 266.898438 171.316406 L 233.09375 171.316406 L 233.09375 181 L 287.527344 181 L 287.527344 157.25 C 287.527344 153.574219 285.214844 150.121094 282.097656 150.121094 L 253.511719 150.121094 L 253.511719 139.289062 L 267.8125 139.289062 L 267.8125 143.253906 Z M 287.5 143.253906 "/>
<path style=" stroke:none;fill-rule:nonzero;fill:rgb(35.686275%,16.862746%,50.980395%);fill-opacity:1;" d="M 229.617188 76.789062 L 212.246094 76.789062 L 248.078125 45.359375 L 220.925781 21.597656 L 184.921875 52.976562 L 149.140625 21.597656 L 86.234375 76.789062 L 68.859375 76.789062 L 104.632812 45.3125 L 77.582031 21.597656 L 41.820312 52.976562 L 12.207031 27.207031 L 12.207031 119.765625 L 287.496094 119.765625 L 287.496094 26.011719 Z M 229.617188 76.789062 "/>
<path style=" stroke:none;fill-rule:nonzero;fill:rgb(100%,100%,100%);fill-opacity:1;" d="M 72.347656 109.820312 C 72.347656 111.164062 73.585938 112.253906 75.117188 112.261719 L 90.585938 112.261719 L 90.585938 108.617188 L 77.976562 108.617188 L 77.976562 96.796875 L 90.585938 96.796875 L 90.585938 93.164062 L 72.347656 93.164062 Z M 72.347656 109.820312 "/>
<path style=" stroke:none;fill-rule:nonzero;fill:rgb(100%,100%,100%);fill-opacity:1;" d="M 47.125 93.164062 L 47.125 112.257812 L 52.753906 112.257812 L 52.753906 107.261719 L 59.734375 107.261719 L 59.734375 112.257812 L 65.363281 112.257812 L 65.363281 95.597656 C 65.351562 94.90625 65.007812 94.25 64.421875 93.789062 C 63.835938 93.328125 63.054688 93.101562 62.273438 93.164062 Z M 59.734375 103.628906 L 52.753906 103.628906 L 52.753906 96.800781 L 59.734375 96.800781 Z M 59.734375 103.628906 "/>
<path style=" stroke:none;fill-rule:nonzero;fill:rgb(100%,100%,100%);fill-opacity:1;" d="M 274.507812 93.164062 L 261.746094 93.164062 C 260.222656 93.164062 258.988281 94.246094 258.984375 95.578125 L 258.984375 109.820312 C 258.988281 111.160156 260.21875 112.246094 261.746094 112.257812 L 274.507812 112.257812 C 276.039062 112.246094 277.269531 111.15625 277.269531 109.8125 L 277.269531 95.578125 C 277.269531 94.246094 276.03125 93.164062 274.507812 93.164062 M 271.617188 108.589844 L 264.660156 108.589844 L 264.660156 96.792969 L 271.617188 96.792969 Z M 271.617188 108.589844 "/>
<path style=" stroke:none;fill-rule:nonzero;fill:rgb(100%,100%,100%);fill-opacity:1;" d="M 21.882812 102.097656 C 21.890625 103.4375 23.128906 104.523438 24.660156 104.527344 L 34.492188 104.527344 L 34.492188 108.613281 L 21.882812 108.613281 L 21.882812 112.257812 L 40.125 112.257812 L 40.125 103.316406 C 40.128906 102.074219 39.058594 101.03125 37.648438 100.902344 L 37.496094 100.890625 L 27.507812 100.890625 L 27.507812 96.796875 L 40.125 96.796875 L 40.125 93.164062 L 21.882812 93.164062 Z M 21.882812 102.097656 "/>
<path style=" stroke:none;fill-rule:nonzero;fill:rgb(100%,100%,100%);fill-opacity:1;" d="M 137.792969 93.164062 L 122.332031 93.164062 L 122.332031 112.257812 L 127.964844 112.257812 L 127.964844 107.261719 L 134.945312 107.261719 L 134.945312 112.257812 L 140.582031 112.257812 L 140.582031 95.597656 C 140.574219 94.25 139.328125 93.164062 137.792969 93.164062 M 134.945312 103.628906 L 127.964844 103.628906 L 127.964844 96.800781 L 134.945312 96.800781 Z M 134.945312 103.628906 "/>
<path style=" stroke:none;fill-rule:nonzero;fill:rgb(100%,100%,100%);fill-opacity:1;" d="M 234.449219 96.792969 L 240.761719 96.792969 L 240.761719 112.257812 L 246.382812 112.257812 L 246.382812 96.792969 L 252.691406 96.792969 L 252.691406 93.164062 L 234.449219 93.164062 Z M 234.449219 96.792969 "/>
<path style=" stroke:none;fill-rule:nonzero;fill:rgb(100%,100%,100%);fill-opacity:1;" d="M 176.058594 93.164062 L 148.050781 93.164062 L 148.050781 112.261719 L 153.683594 112.261719 L 153.683594 96.800781 L 160.589844 96.800781 L 160.589844 112.261719 L 166.296875 112.261719 L 166.296875 96.800781 L 173.195312 96.800781 L 173.195312 112.261719 L 178.828125 112.261719 L 178.828125 95.59375 C 178.820312 94.253906 177.585938 93.167969 176.058594 93.164062 "/>
<path style=" stroke:none;fill-rule:nonzero;fill:rgb(100%,100%,100%);fill-opacity:1;" d="M 225.964844 93.164062 L 210.503906 93.164062 L 210.503906 112.261719 L 216.132812 112.261719 L 216.132812 96.800781 L 223.113281 96.800781 L 223.113281 112.261719 L 228.746094 112.261719 L 228.746094 95.59375 C 228.738281 94.25 227.496094 93.164062 225.964844 93.164062 "/>
<path style=" stroke:none;fill-rule:nonzero;fill:rgb(100%,100%,100%);fill-opacity:1;" d="M 186.496094 109.820312 C 186.496094 111.164062 187.734375 112.257812 189.265625 112.261719 L 204.722656 112.261719 L 204.722656 108.617188 L 192.128906 108.617188 L 192.128906 104.523438 L 204.722656 104.523438 L 204.722656 100.894531 L 192.128906 100.894531 L 192.128906 96.796875 L 204.722656 96.796875 L 204.722656 93.164062 L 186.496094 93.164062 Z M 186.496094 109.820312 "/>
<path style=" stroke:none;fill-rule:nonzero;fill:rgb(100%,100%,100%);fill-opacity:1;" d="M 112.296875 105.3125 L 115.308594 105.3125 L 115.308594 95.589844 C 115.289062 94.902344 114.945312 94.253906 114.359375 93.792969 C 113.773438 93.332031 113 93.105469 112.214844 93.164062 L 97.066406 93.164062 L 97.066406 112.257812 L 102.695312 112.257812 L 102.695312 105.3125 L 106.777344 105.3125 L 110.148438 112.257812 L 115.632812 112.257812 Z M 109.675781 101.679688 L 102.695312 101.679688 L 102.695312 96.796875 L 109.675781 96.796875 Z M 109.675781 101.679688 "/>
<path style=" stroke:none;fill-rule:nonzero;fill:rgb(36.078432%,40.000001%,43.921569%);fill-opacity:1;" d="M 106.453125 205.410156 C 135.78125 204.886719 164.785156 211.324219 201.796875 229.8125 C 229.152344 243.480469 241.171875 247.625 249.375 245.855469 C 256.933594 244.222656 263.945312 240.308594 276.3125 217.390625 C 280.746094 208.882812 284.023438 199.945312 286.074219 190.765625 L 87.097656 190.765625 C 88.480469 196.046875 89.84375 201.304688 91.664062 206.136719 C 96.574219 205.65625 101.511719 205.414062 106.453125 205.410156 "/>
</g>
</svg>
