<svg width="260" height="260" xmlns="http://www.w3.org/2000/svg">
 <g>
  <title>Layer 1</title>
  <path fill="#cd1141" d="m250.08,130.84a120.72,120.72 0 1 1 -120.72,-120.84a120.812,120.812 0 0 1 120.72,120.84z" id="svg_1" stroke-width="0"/>
  <path d="m130.36,245.2a114.484,114.484 0 0 1 -1.32,-228.96l1.32,0a114.469,114.469 0 0 1 81.84,194.52a113.993,113.993 0 0 1 -80.64,34.44l-1.2,0z" id="svg_2" stroke-width="0"/>
  <path fill="#fff" d="m129,32.56l-1.2,1.2l0,14.64l1.2,1.2l3.96,0l1.2,-1.2l0,-14.64l-1.2,-1.2l-3.96,0zm11.64,19.68l-4.08,3.96l-11.16,0l-3.96,-3.96l0,-22.2l3.96,-3.96l11.16,0l3.96,3.96l0,22.2l0.12,0zm77.16,33.12l-1.56,-0.48l-13.08,6.36l-0.6,1.56l1.68,3.6l1.56,0.6l13.2,-6.36l0.6,-1.56l-1.8,-3.72zm-12.6,18.96l-5.28,-1.92l-4.8,-9.96l1.92,-5.4l19.92,-9.48l5.28,1.8l4.8,10.08l-1.8,5.4l-20.04,9.48zm-145.92,-40.68l0,1.68l10.56,10.2l1.68,0l2.88,-2.88l0,-1.8l-10.44,-10.2l-1.8,0l-2.88,3zm22.08,5.28l0.12,5.64l-7.8,8.04l-5.64,0l-15.84,-15.36l-0.12,-5.64l7.8,-8.04l5.76,-0.12l15.72,15.48zm83.64,-4.44l-1.2,-19.68l-6.84,16.2l-5.28,-2.16l11.76,-27.72l6.48,2.76l0.12,17.28l6.12,-14.64l5.4,2.28l-11.64,27.72l-4.92,-2.04zm-73.08,-16.56l4.68,-2.16a8.333,8.333 0 0 0 0.6,-1.56l-1.56,-3.72l-1.68,-0.6l-4.68,2.16l2.64,5.88zm12.24,-2.76l-1.32,4.68l8.4,8.16l-5.88,2.64l-7.8,-7.56l-2.76,1.32l3.96,9.12l-5.4,2.28l-12,-27.6l12.96,-5.64l5.52,2.28l4.32,10.32zm80.52,33.6l-4.44,-4.32l16.56,-16.92l-3.96,-3.84l4.56,-4.68l12.36,12.24l-4.56,4.56l-3.96,-3.84l-16.56,16.8zm-120.72,18.84l-2.52,5.76l-21.6,-9.6l-2.28,5.04l-6,-2.76l7.2,-15.72l5.88,2.64l-2.28,5.04l21.6,9.6zm140.52,66.72l-0.6,1.08l-1.8,3.6l0.48,1.56l3,1.68l-0.36,-0.24l1.56,-0.48l3.6,-6.72l5.52,-1.68l9.12,4.68l1.56,5.4l-5.16,9.96l-5.4,1.68l-4.56,-2.4l3,-5.64l2.28,1.2l2.52,-4.68l-0.6,-1.68l-2.4,-1.2l-1.68,0.48l-3.36,6.6l-5.64,1.68l-9.12,-4.68l-1.8,-5.52l5.16,-9.96l5.52,-1.56l4.32,2.28l-3,5.64l-2.16,-1.08zm-153.12,4.08l2.4,4.56a9.406,9.406 0 0 0 1.68,0.6l3.6,-1.92l0.48,-1.68l-2.4,-4.56l-5.76,3zm3.6,12.12l-4.8,-0.96l-7.56,8.88l-3,-5.64l6.96,-8.28l-1.44,-2.76l-8.88,4.56l-2.64,-5.16l26.64,-13.92l6.6,12.48l-1.8,5.52l-10.08,5.28zm41.64,31.08l4.2,1.8l1.56,-0.72l1.68,-3.84l-0.6,-1.56l-4.32,-1.8l-2.52,6.12zm-2.28,5.28l-4.32,10.44l-5.28,-2.16l11.52,-27.84l12.72,5.28l2.16,5.4l-4.2,10.2l-4.2,2.16l-8.4,-3.48zm40.44,18.48l-6.36,0.12l-0.24,-23.64l-5.4,0.12l-0.12,-6.6l17.28,-0.12l0.12,6.48l-5.52,0.12l0.24,23.52zm22.44,-27.96l-0.72,1.56l5.16,13.68l1.56,0.6l3.84,-1.44l0.72,-1.56l-5.16,-13.68l-1.56,-0.6l-3.84,1.44zm17.76,14.16l-2.16,5.16l-10.44,3.96l-5.16,-2.28l-7.92,-20.76l2.28,-5.16l10.44,-3.96l5.16,2.28l7.8,20.76zm11.16,-22.92l3.96,-3.48l0.12,-1.56l-2.64,-3.24l-1.56,-0.12l-3.96,3.36l4.08,5.04zm10.92,-6.24l0.12,4.92l10.44,5.52l-4.92,4.08l-9.6,-4.92l-2.28,2.04l6.36,7.56l-4.32,3.84l-19.56,-23.04l10.68,-9l5.88,0.48l7.2,8.52zm-127.44,10.44l4.2,-8.28l-8.04,4.8l3.84,3.48zm-0.12,14.28l-4.68,-4.32l2.16,-4.44l-6.48,-6l-4.32,2.64l-4.68,-4.44l27.24,-16.32l4.68,4.32l-13.92,28.56z" id="svg_3" stroke-width="0"/>
  <path fill="#a0a0a3" d="m152.76,191.32l0.24,0.24a6.461,6.461 0 0 0 0.96,-0.12l0.72,-0.24l1.92,-0.84l4.68,-2.16l0.84,-0.48l0.48,-0.24l0.48,-0.36l0.84,-0.48l0.96,-0.6l1.32,-0.84l2.16,-1.56l1.2,-0.84l1.56,-1.08l1.44,-1.08l0.6,-0.48l1.08,-0.96l0.96,-0.96l1.56,-1.68l1.8,-1.8l2.16,-2.52l1.2,-1.56l0.36,-0.48l1.32,-1.56l2.4,-3.6l0.72,-1.08l1.68,-3.24l0.84,-1.68l1.56,-3.24l0.84,-2.04l0.96,-3s1.08,-3.96 1.68,-6c0.12,-0.12 0.12,-0.36 -0.12,-0.6a9.92,9.92 0 0 1 -0.84,-1.56a5.217,5.217 0 0 0 -0.48,-0.84c-0.24,-0.24 -0.6,-0.72 -0.84,-0.96c-0.12,-0.24 -0.36,-0.36 -0.6,-0.6c-0.48,-0.36 -0.96,-0.96 -1.32,-1.2c-0.24,-0.12 -0.36,-0.24 -0.6,-0.36a15.044,15.044 0 0 0 -4.2,-2.52a12.493,12.493 0 0 0 -1.92,-0.72a8.84,8.84 0 0 0 -1.68,-0.48a0.565,0.565 0 0 0 -0.72,0.12c-0.12,0.12 -0.12,0.36 -0.12,0.72a17.904,17.904 0 0 0 -0.24,2.52a17.904,17.904 0 0 0 -0.24,2.52c-0.12,0.84 -0.12,1.56 -0.24,2.4a25.987,25.987 0 0 1 -0.48,3c-0.36,1.92 -0.72,3.84 -1.08,5.64a5.954,5.954 0 0 1 -0.36,1.56a19.043,19.043 0 0 0 -0.84,2.4a36.675,36.675 0 0 1 -1.56,5.16a15.629,15.629 0 0 1 -1.8,4.08c0,0.12 0,0.12 -0.12,0.36c-0.36,0.84 -0.72,1.68 -1.08,2.64c-0.24,0.48 -0.6,0.96 -0.84,1.56a11.394,11.394 0 0 1 -1.2,2.04c-0.6,1.08 -1.32,2.04 -1.92,3.12a11.887,11.887 0 0 1 -1.32,2.04c-0.12,0.24 -0.24,0.36 -0.36,0.6a8.517,8.517 0 0 1 -1.2,1.68c-0.84,1.08 -1.68,2.16 -2.52,3.12l-1.8,1.8l-1.56,1.56c-0.12,0.24 -0.24,0.24 -0.36,0.36a3.235,3.235 0 0 0 -0.96,0.84a10.755,10.755 0 0 1 -2.16,1.8a6.011,6.011 0 0 0 -0.96,0.84a12.058,12.058 0 0 1 -2.88,1.92zm42.36,-50.64l0.12,-0.12l0,-0.48l0.48,-4.08l0.24,-3.84l0,-4.44l-0.36,-4.32s-0.6,-3.96 -0.96,-6c-0.12,-0.72 -0.6,-0.96 -1.2,-1.32c-0.24,-0.12 -0.36,-0.24 -0.6,-0.24a5.85,5.85 0 0 1 -1.32,-0.48c-0.96,-0.12 -1.92,-0.6 -2.88,-0.72c-1.2,-0.24 -2.4,-0.24 -3.6,-0.48c-0.96,0 -1.92,-0.12 -2.88,-0.12l-2.04,0c-0.48,0 -0.84,0 -1.08,0.36c-0.24,0.24 0,0.72 0,1.2c0.12,0.96 0.36,1.44 0.48,2.28a64.273,64.273 0 0 1 1.08,8.4c0,1.32 0.12,2.52 0.12,3.84l0,0.96a5.196,5.196 0 0 0 0.12,0.6a2.625,2.625 0 0 0 0.6,0.36a2.111,2.111 0 0 1 0.72,0.12a3.71,3.71 0 0 1 0.96,0.24c1.08,0.36 2.28,0.72 3.48,1.2a18.126,18.126 0 0 1 2.16,1.08a0.372,0.372 0 0 0 0.24,0.12c0.48,0.36 0.96,0.72 1.32,0.96a15.069,15.069 0 0 1 2.88,2.64a0.937,0.937 0 0 0 0.48,0.48c0.36,0.36 0.84,1.32 1.2,1.68c0.12,0 0.12,0.12 0.24,0.12zm-29.04,-46.32l1.08,0c0.24,0 0.48,0 0.48,-0.36c0.12,-0.24 0,-0.36 -0.12,-0.6s-0.84,-1.44 -0.84,-1.44l-0.72,-1.2l-3.12,-4.32l-0.6,-0.84l-0.6,-0.84l-0.96,-1.08l-2.52,-2.64l-0.96,-1.08l-3.84,-3.6l-3.12,-2.4l-1.2,-0.6l-3.6,-2.16l-2.64,-1.44l-0.48,-0.24l-2.16,-0.72l-3.12,-1.2l-0.24,-0.12l-0.96,-0.24l-1.2,-0.24l-1.8,-0.36l-0.96,0l-1.68,-0.36l-1.92,-0.12l-0.72,-0.12l-1.2,0l-2.16,0.12l-2.04,0.24l-1.56,0l-1.44,0.12l-1.32,0.24l-1.2,0.36l-1.8,0.36l-0.36,0l-1.68,0.6l-0.96,0.36l-0.6,0.36l-1.44,0.36l-0.6,0.36l-0.84,0.48l-2.16,0.96l-2.76,1.08l-0.84,0.36l-1.92,1.08l-1.68,1.08l-1.56,0.84l-0.6,0.24l-1.68,0.96l-0.36,0.12l-1.92,1.44l-1.56,1.08l-0.36,0.24l-1.8,1.44l-0.6,0.48a7.241,7.241 0 0 0 -0.96,0.96l0.6,-0.12l1.32,-0.48l0.24,0l1.8,-0.72l0.24,0l1.92,-0.84l1.08,-0.24l0.96,-0.36l1.44,-0.6l3.6,-1.32l0.24,0l1.8,-0.6l1.44,-0.6l0.24,0.12l2.76,0.12l1.8,0.12l0.12,0l3.48,0.36l4.92,0.24l0,0.12l1.8,1.44l0.12,0l1.8,1.8l0.12,-0.12l2.52,0.12l0.12,-0.12l6.12,0.36l0,0.12l2.76,1.68l0.12,0l4.8,2.28l0,0.24l2.76,-1.08l4.08,1.32l0.72,1.2l1.44,0l1.44,1.56l0.12,0l1.2,1.32l0,0.12l0.12,0l3.12,0.72l1.2,1.8l2.88,1.08a40.059,40.059 0 0 0 4.8,0.96a17.281,17.281 0 0 0 4.32,0zm27.36,18.6c-0.12,-0.36 -0.48,-1.32 -0.48,-1.32l-0.12,-0.6l-0.24,-0.6l-0.48,-1.56l-0.48,-1.32l-1.56,-3.36l-0.72,-1.68l-0.72,-1.92l-1.08,-1.56l-0.96,-1.8l-0.6,-1.08l-0.36,-0.36l-4.32,-6l-0.72,-0.72a0.258,0.258 0 0 0 -0.24,-0.24s-1.32,2.16 -1.92,2.88c-0.6,0.6 -1.8,1.68 -1.8,1.68s-0.96,0.72 -1.08,0.84a11.067,11.067 0 0 1 -0.96,0.6l-0.96,0.6a5.85,5.85 0 0 1 -0.84,0.36c-0.24,0.12 -0.36,0.12 -0.36,0.24c-0.12,0.12 -0.12,0.12 -0.12,0.36s0.12,0.24 0.12,0.36a25.677,25.677 0 0 0 1.2,2.64a21.902,21.902 0 0 1 1.68,3.84a12.45,12.45 0 0 1 0.48,1.2c0.36,1.2 0.84,2.28 1.08,3.36c0.12,0.6 0.36,0.96 0.48,1.56c0.12,0.48 0.24,1.08 0.36,1.44c0.12,0.36 0.24,0.6 0.72,0.48l0.96,0c1.2,0 2.28,-0.12 3.48,-0.12c0.36,0 2.76,0.24 2.76,0.24s0.72,0.12 1.2,0.24c0.96,0.12 1.8,0.36 2.76,0.48a15.197,15.197 0 0 1 2.16,0.72l1.08,0.36a1.209,1.209 0 0 1 0.36,0.12c0.24,-0.12 0.24,-0.24 0.24,-0.36z" id="svg_4" stroke-width="0"/>
  <path fill="#a0a0a3" d="m177.96,86.8a2.622,2.622 0 0 0 -0.36,-0.6l-0.24,-0.36l-0.6,-0.84l-0.36,-0.6l-0.84,-0.72a1.485,1.485 0 0 0 -0.36,-0.24c-1.44,-1.08 -4.2,-3.36 -4.2,-3.36l-0.72,-0.6l-1.44,-1.32l-7.2,-4.32l-5.76,-2.64l-3.12,-1.2l-1.08,-0.36l-3.72,-1.32l-2.64,-0.72l-2.52,-0.48l-0.36,0l-0.24,0.24s0.24,0.24 0.36,0.24c0.84,0.24 1.68,0.6 2.4,0.84c0.6,0.24 1.08,0.48 1.68,0.72a1.481,1.481 0 0 1 0.96,0.48c1.2,0.6 2.4,1.32 3.72,2.04a13.101,13.101 0 0 1 2.04,1.56l1.44,1.08a3.18,3.18 0 0 1 0.72,0.6c0.12,0.12 0.24,0.24 0.36,0.24c0.72,0.6 1.56,1.2 2.16,1.8a17.378,17.378 0 0 0 2.04,2.16c0.72,0.72 1.32,1.32 1.92,2.04a20.863,20.863 0 0 0 1.56,1.8c1.08,1.08 1.8,2.28 2.88,3.36c0.12,0.12 0.12,0.24 0.24,0.48a24.029,24.029 0 0 0 1.92,2.88a12.458,12.458 0 0 1 1.44,2.04a7.17,7.17 0 0 0 0.72,1.32c0.24,0.12 0.48,0.36 0.6,0.36a0.838,0.838 0 0 0 0.48,-0.24l0.48,-0.12a6.885,6.885 0 0 0 0.84,-0.48a1.934,1.934 0 0 0 0.84,-0.48a6.923,6.923 0 0 0 1.2,-0.96c0.36,-0.36 1.2,-1.32 1.2,-1.32l0.6,-0.72l0.96,-1.68c-0.12,0 0.12,-0.36 0,-0.6zm-3,24.24c-0.36,-1.2 -0.6,-2.4 -1.08,-3.6a28.095,28.095 0 0 0 -1.08,-2.88c-0.24,-0.6 -0.36,-1.2 -0.6,-1.8c-0.12,-0.36 -0.24,-0.6 -0.36,-0.96a22.49,22.49 0 0 0 -2.04,-4.2a0.372,0.372 0 0 0 -0.12,-0.24c-0.12,-0.12 -0.12,-0.24 -0.24,-0.36c-0.24,-0.12 -0.36,0 -0.72,0c-0.6,0 -1.44,0.12 -1.68,0.12c-0.36,0 -1.56,0.12 -2.52,0.12l-1.44,0l-3.12,-0.48c-1.2,-0.12 -3.72,-0.72 -3.72,-0.72l-2.04,-0.72l-2.4,-0.84l-0.12,0.12l-3.72,-0.36l-0.12,0.12l-2.04,-1.56l-0.24,0l-1.32,-1.2l0,-0.24l-1.44,-0.24l-0.24,0.12l-1.2,-0.48l-0.12,-0.12l-2.64,0.24l-2.52,-0.96l-8.52,0.48l-0.12,-0.12l-1.68,0.12l-0.12,0.24l-4.2,0.24l-0.12,-0.12l-6,3.48l-0.12,0.24l-0.24,0.24l-0.12,-0.12l-3,-0.24l-5.64,0l-1.56,-0.12l-0.48,-0.24l-5.52,4.32l0,0.12l-1.92,1.56l-2.16,-1.08l-0.12,0.12l-0.84,-0.24s-4.08,0.96 -3.96,0.96l-3.84,-0.6l-0.24,-0.12l-0.6,0.72l-1.56,0.72l0,0.12l-3,2.4l-4.32,3l-4.8,3.6l-2.16,1.56l-0.12,0.96l-0.84,2.04l-0.36,1.8l-0.6,3.72l-0.36,1.56l-0.24,1.92l-0.48,3.96l-0.24,8.64l0.24,0.48l0.12,2.4s0,0.48 0.12,0.48l10.68,-10.92l3.36,-1.44l3,-0.12l1.8,-2.04l0.12,-0.36l0.24,0l4.8,-0.48l0.24,-0.12l2.04,0l0.6,-0.72l2.16,-1.32l2.4,-1.56l6.36,0l0.12,0.12l2.52,0.24l2.04,-0.36l3.6,-3.6l2.88,-2.76l4.32,-0.48l0.12,-0.24l0.24,0.24l2.16,0.96l0.24,-0.12l1.92,-0.24l0.12,0l1.8,-0.36l0.12,0l2.04,1.68l0.12,-0.12l4.08,-0.12l0.36,-0.24l3.36,0.12l0.12,0.12l0.6,-0.12l0,-0.12l1.32,-0.6l0.24,0l1.44,-0.72l0.12,-0.12l1.68,-0.6l0.12,-0.24l4.68,-1.8l0.84,-0.24l0.12,-0.12l0.24,0.24l1.32,0.6l0.48,0l1.44,0.84l0.12,-0.12l0.36,-0.24l0.12,0l0.72,-0.36l0,-0.12l1.08,-0.24l2.76,0.72l0.6,-0.12l0.48,0.24l2.04,0.36l1.92,0.72l1.08,-0.12l0.48,0.24l0.24,-0.12s3.84,-0.48 5.76,-0.6c1.32,-0.12 2.52,-0.24 3.72,-0.36c0.72,-0.12 1.44,-0.12 2.16,-0.24c0.24,0.12 0.48,-0.12 0.24,-0.48z" id="svg_5" stroke-width="0"/>
  <path fill="#a0a0a3" d="m177.84,130.72c0,-0.36 -0.12,-0.48 -0.12,-0.72a13.041,13.041 0 0 1 -0.12,-2.16c0,-0.24 -0.12,-0.6 -0.12,-0.84a20.34,20.34 0 0 1 -0.12,-2.76c-0.12,-1.2 -0.36,-2.28 -0.48,-3.48a20.345,20.345 0 0 0 -0.48,-2.64a22.148,22.148 0 0 0 -0.48,-2.76c-0.24,-0.96 -0.36,-0.96 -1.32,-0.96c-0.12,0 -0.24,0 -0.24,0.12a4.083,4.083 0 0 1 -1.2,0.12c-1.92,0.24 -3.72,0.36 -5.52,0.6l-5.4,1.92l-7.8,-0.24l-0.84,-0.36l0,0.24l-2.4,1.68l-0.24,0l-1.8,1.68l-0.12,0.24l-4.68,0.6l-4.2,3.36l-0.48,0l-2.28,1.32l-0.84,0.12l-0.96,0.72l-0.24,-0.12l-4.32,-0.36l-0.72,0.84l0,0.12l-3.72,4.2l-0.12,0.24l-0.12,0l-4.8,5.4l-1.32,0l-0.12,0.12l-3.96,0.72l-0.36,0l0,0.24l-6.6,3.6l-2.88,-0.36l-0.6,0.24l-2.88,-0.24l-2.88,3.12l-1.8,0.36l-0.96,0l-0.96,0.36l-0.6,0l0,0.12l-3.6,2.76l-0.48,0.12l-5.52,4.32l0,0.24l-3.48,8.4l0.24,0.36l-5.76,0.48l-1.8,1.68l-0.24,0.6l2.64,3.48l1.8,2.88l1.68,2.16l2.64,2.76l0,0.24c0.12,0 0.48,0 0.48,0.12l1.56,0.48l1.92,0.6a0.118,0.118 0 0 0 0.12,0.12l0.12,0l3.24,1.32l0.24,0l0.12,0.12l0.36,0l0.72,0.6l1.32,-0.72l0.12,0l0.6,-0.48l4.92,1.2l3.6,-1.8l7.92,-0.72l3.24,-5.28l1.44,-1.44l0.24,0l1.08,-1.08l0,-0.12l2.04,-1.92l0.96,-0.96l0.24,-0.12l1.08,-1.08l0.96,-0.96l0.24,-0.12l-0.24,-0.72l0.84,-3.48l1.8,-0.48l0.12,-0.12l0.48,-0.12l0,-0.24l2.4,-3.96l0.24,0l0.96,-2.04l1.68,-0.84l0.24,-0.36l0.24,0.12l0.96,-0.48l0.12,0l1.68,-0.84l0.24,-0.24l5.76,-2.64l0.48,0l0,-0.36l0.24,-0.12l0.6,-2.04l1.92,-0.84l2.04,-0.12l1.92,-1.44l2.88,0.24l0.24,0.12l0.12,-0.12l3.96,-1.68l0,-0.6l0.84,-1.8l1.92,-0.48l0.12,-0.12l2.52,-0.6l1.08,-1.2l0.12,0l0.6,-0.6l1.8,0.24l0,0.12l1.08,0.12l0.6,0.12s2.52,-1.2 3.72,-1.68a5.85,5.85 0 0 0 1.32,-0.48c0.6,-0.24 1.2,-0.36 1.8,-0.6a2.824,2.824 0 0 0 0.96,-0.24l1.2,-0.24l1.32,-0.24l0.96,-0.12l0.6,0a0.776,0.776 0 0 0 0.6,-0.24c0.24,-0.12 0.12,-0.36 0.24,-0.48a2.112,2.112 0 0 1 -0.12,-0.72z" id="svg_6" stroke-width="0"/>
  <path fill="#a0a0a3" d="m177.84,135.76a1.014,1.014 0 0 0 -0.24,-0.72a0.91,0.91 0 0 0 -0.48,-0.24c-0.12,0 -0.84,0.12 -0.84,0.12l-1.08,0.12c-0.24,0 -0.24,0.12 -0.36,0.12a10.162,10.162 0 0 0 -2.04,0.48a9.105,9.105 0 0 0 -2.16,0.72a14.576,14.576 0 0 0 -2.4,1.08c-0.24,0.12 -2.76,1.32 -3.84,1.92l-1.56,1.56l0,0.24l-1.2,0l0,0.12l-3,0.96l0,0.36l-0.36,0.24l0,0.24l-1.44,2.52l-0.24,0l0,0.24s-0.24,0.36 -0.6,0.96l-6.24,3.96l-0.12,0l-1.08,0.84l-0.6,2.64l-0.6,0.6l-2.52,9.12l0.36,1.08l-3.6,1.68l-0.6,0l-0.72,3.12l-0.12,0.12l-0.96,2.88l0.12,0.12l-0.36,2.4l-0.12,0.24l0.12,0.24l-3.6,5.52l-0.24,0l-0.84,1.44l0,0.24l-3,4.2l-3.12,1.92l0.12,0.24l-0.12,1.32l0.24,0.48l-0.36,0.12l-2.28,1.32l-0.24,0l-3.36,1.92l-0.36,0.6l1.2,0.24l2.16,0.12l1.56,0.12l5.04,0l4.68,-0.6l2.76,-0.6l2.16,-0.6l2.28,-0.6l2.88,-1.2l0.24,-0.12l0.84,-0.48a30.524,30.524 0 0 0 3.36,-2.04a57.845,57.845 0 0 0 5.28,-4.2a19.924,19.924 0 0 0 1.56,-1.68a19.133,19.133 0 0 0 1.56,-1.56c0.12,-0.12 0.24,-0.12 0.24,-0.36a6.862,6.862 0 0 1 0.84,-0.96a3.181,3.181 0 0 0 0.6,-0.72a15.684,15.684 0 0 1 1.32,-1.44a3.404,3.404 0 0 0 1.08,-1.2a16.481,16.481 0 0 0 1.56,-2.4a30.404,30.404 0 0 0 2.16,-3.24c0.6,-1.2 1.2,-2.4 1.92,-3.6c0.6,-0.96 1.08,-2.04 1.56,-3c0.72,-1.8 1.56,-3.6 2.16,-5.28a35.388,35.388 0 0 0 1.8,-5.76a30.472,30.472 0 0 1 1.2,-4.44a1.305,1.305 0 0 1 0.12,-0.6c0.24,-1.2 0.36,-2.4 0.6,-3.6c0.12,-1.08 0.24,-2.16 0.48,-3.36a15.005,15.005 0 0 0 0.36,-2.28c0,-1.08 0.12,-2.16 0.12,-3.24l0,-0.36a0.896,0.896 0 0 0 0.36,-0.36z" id="svg_7" stroke-width="0"/>
 </g>

</svg>