<?xml version="1.0" encoding="UTF-8"?>
<svg xmlns="http://www.w3.org/2000/svg" xmlns:xlink="http://www.w3.org/1999/xlink" width="300px" height="300px" viewBox="0 0 300 300" version="1.1">
<g id="surface1">
<path style=" stroke:none;fill-rule:nonzero;fill:rgb(100%,100%,100%);fill-opacity:1;" d="M 299.921875 0.152344 L 270.625 92.753906 L 153.148438 92.753906 L 116.179688 209.570312 L 82.996094 209.570312 C 83.320312 203.691406 84.089844 197.882812 85.292969 192.253906 C 88.378906 178.695312 94.179688 166.824219 101.929688 158.210938 C 103.921875 161.554688 105.722656 165.136719 107.3125 168.917969 C 107.613281 169.5 108.109375 169.5 108.214844 168.917969 L 161.714844 0 L 299.921875 0 Z M 299.921875 0.152344 "/>
<path style=" stroke:none;fill-rule:nonzero;fill:rgb(100%,100%,100%);fill-opacity:1;" d="M 28.003906 245.8125 C 24.683594 255.488281 19.914062 263.921875 14.050781 270.476562 C 5.667969 256.089844 0.730469 238.035156 0 219.105469 L 32.984375 219.105469 C 32.5625 228.410156 30.867188 237.496094 28.003906 245.8125 "/>
<path style=" stroke:none;fill-rule:nonzero;fill:rgb(100%,100%,100%);fill-opacity:1;" d="M 54.804688 219.105469 L 54.804688 299.976562 C 41.371094 298.804688 28.625 290.816406 18.734375 277.371094 C 25.105469 270.054688 30.28125 260.726562 33.875 250.070312 C 37.21875 240.445312 39.15625 229.898438 39.558594 219.105469 Z M 54.804688 219.105469 "/>
<path style=" stroke:none;fill-rule:nonzero;fill:rgb(100%,100%,100%);fill-opacity:1;" d="M 30.59375 192.253906 C 31.878906 197.847656 32.648438 203.671875 32.882812 209.570312 L 0 209.570312 C 0.75 190.691406 5.683594 172.695312 14.050781 158.347656 C 21.824219 166.847656 27.605469 178.699219 30.59375 192.253906 "/>
<path style=" stroke:none;fill-rule:nonzero;fill:rgb(100%,100%,100%);fill-opacity:1;" d="M 54.804688 128.847656 L 54.804688 209.570312 L 39.457031 209.570312 C 39.148438 202.632812 38.246094 195.777344 36.765625 189.175781 C 33.40625 174.179688 27.09375 160.996094 18.632812 151.300781 C 24.699219 143.027344 31.90625 136.773438 39.757812 132.964844 C 44.636719 130.664062 49.691406 129.28125 54.804688 128.847656 "/>
<path style=" stroke:none;fill-rule:nonzero;fill:rgb(100%,100%,100%);fill-opacity:1;" d="M 76.523438 209.570312 L 61.277344 209.570312 L 61.277344 128.847656 C 74.742188 129.902344 87.53125 137.84375 97.445312 151.300781 C 88.902344 160.910156 82.542969 174.121094 79.214844 189.175781 C 77.746094 195.78125 76.839844 202.632812 76.523438 209.570312 "/>
<path style=" stroke:none;fill-rule:nonzero;fill:rgb(100%,100%,100%);fill-opacity:1;" d="M 97.445312 277.523438 C 87.484375 290.96875 74.667969 298.90625 61.175781 299.976562 L 61.175781 219.105469 L 76.421875 219.105469 C 76.921875 229.875 78.851562 240.394531 82.105469 250.070312 C 85.769531 260.785156 91.011719 270.164062 97.445312 277.523438 "/>
<path style=" stroke:none;fill-rule:nonzero;fill:rgb(100%,100%,100%);fill-opacity:1;" d="M 116.179688 219.105469 C 115.460938 238.066406 110.484375 256.136719 102.03125 270.476562 C 90.925781 258.167969 83.984375 239.382812 82.996094 218.964844 L 116.179688 218.964844 Z M 116.179688 219.105469 "/>
</g>
</svg>
