<?xml version="1.0"?>
<svg width="379.89548" height="257.97553" xmlns="http://www.w3.org/2000/svg" xmlns:svg="http://www.w3.org/2000/svg" version="1.1">

 <g class="layer">
  <title>Layer 1</title>
  <path d="m379.9,0.13l-37.11,79.64l-148.8,0l-46.83,100.46l-42.03,0a67.59,67.59 0 0 1 2.91,-14.89a60.94,60.94 0 0 1 21.07,-29.28a69.49,69.49 0 0 1 6.82,9.21c0.38,0.5 1.01,0.5 1.14,0l0,0l67.77,-145.27l175.06,0l0,0.13z" fill="#ffffff" id="svg_1" transform="matrix(1, 0, 0, 1, 0, 0)"/>
  <path d="m35.47,211.4a61.45,61.45 0 0 1 -17.67,21.21a74.3,74.3 0 0 1 -17.8,-44.18l41.78,0a59.53,59.53 0 0 1 -6.31,22.97" fill="#ffffff" id="svg_2" transform="matrix(1, 0, 0, 1, 0, 0)"/>
  <path d="m69.42,188.43l0,69.55a73.81,73.81 0 0 1 -45.69,-19.44a68.36,68.36 0 0 0 19.18,-23.48a66.55,66.55 0 0 0 7.2,-26.63l19.31,0z" fill="#ffffff" id="svg_3" transform="matrix(1, 0, 0, 1, 0, 0)"/>
  <path d="m38.75,165.34a56.56,56.56 0 0 1 2.9,14.89l-41.65,0a74.24,74.24 0 0 1 17.8,-44.05a59.01,59.01 0 0 1 20.95,29.16" fill="#ffffff" id="svg_4" transform="matrix(1, 0, 0, 1, 0, 0)"/>
  <path d="m69.42,110.81l0,69.42l-19.44,0a70.75,70.75 0 0 0 -3.41,-17.54a68.44,68.44 0 0 0 -22.97,-32.57a73.02,73.02 0 0 1 26.76,-15.77a76.84,76.84 0 0 1 19.06,-3.54" fill="#ffffff" id="svg_5" transform="matrix(1, 0, 0, 1, 0, 0)"/>
  <path d="m96.93,180.23l-19.31,0l0,-69.42a73.31,73.31 0 0 1 45.81,19.31a67.12,67.12 0 0 0 -23.09,32.57a71.87,71.87 0 0 0 -3.41,17.54" fill="#ffffff" id="svg_6"/>
  <path d="m123.43,238.67a73.88,73.88 0 0 1 -45.94,19.31l0,-69.55l19.31,0a70.95,70.95 0 0 0 7.2,26.63a69.5,69.5 0 0 0 19.43,23.61" fill="#ffffff" id="svg_7" transform="matrix(1, 0, 0, 1, 0, 0)"/>
  <path d="m147.16,188.43a73.64,73.64 0 0 1 -17.92,44.18a60.86,60.86 0 0 1 -24.11,-44.3l42.03,0l0,0.12z" fill="#ffffff" id="svg_8" transform="matrix(1, 0, 0, 1, 0, 0)"/>
 </g>
</svg>