<?xml version="1.0" encoding="UTF-8"?>
<svg xmlns="http://www.w3.org/2000/svg" xmlns:xlink="http://www.w3.org/1999/xlink" width="300px" height="300px" viewBox="0 0 300 300" version="1.1">
<g id="surface1">
<path style=" stroke:none;fill-rule:nonzero;fill:rgb(76.862746%,80.784315%,83.137256%);fill-opacity:1;" d="M 299.078125 150.027344 C 299.078125 67.894531 232.492188 1.3125 150.351562 1.3125 C 68.210938 1.3125 1.625 67.894531 1.625 150.027344 C 1.625 232.160156 68.210938 298.738281 150.351562 298.738281 C 232.492188 298.738281 299.078125 232.160156 299.078125 150.027344 Z M 299.078125 150.027344 "/>
<path style=" stroke:none;fill-rule:nonzero;fill:rgb(89.019608%,9.411765%,21.568628%);fill-opacity:1;" d="M 292.402344 149.304688 C 292.402344 70.390625 228.535156 6.421875 149.746094 6.421875 C 70.960938 6.421875 7.089844 70.390625 7.089844 149.304688 C 7.089844 228.214844 70.960938 292.1875 149.746094 292.1875 C 228.535156 292.1875 292.402344 228.214844 292.402344 149.304688 Z M 292.402344 149.304688 "/>
<path style=" stroke:none;fill-rule:nonzero;fill:rgb(100%,100%,100%);fill-opacity:1;" d="M 292.835938 142.542969 L 6.820312 142.570312 C 6.6875 145.011719 6.617188 147.472656 6.617188 149.949219 C 6.617188 162.984375 8.535156 175.738281 12.082031 187.9375 C 45.765625 187.929688 253.273438 187.917969 287.527344 187.898438 C 291.09375 175.601562 293.015625 162.730469 293.015625 149.589844 C 293.015625 147.230469 292.945312 144.878906 292.828125 142.542969 "/>
<path style=" stroke:none;fill-rule:nonzero;fill:rgb(0%,16.862746%,36.078432%);fill-opacity:1;" d="M 131.46875 292.65625 C 137.269531 293.375 143.175781 293.753906 149.167969 293.761719 L 149.359375 293.761719 C 162.390625 293.761719 175.003906 292.011719 187.003906 288.769531 C 224.578125 277.980469 256.640625 251.332031 275.375 217.132812 L 24.25 217.132812 C 46.105469 256.753906 86.039062 286.199219 131.46875 292.65625 "/>
<path style=" stroke:none;fill-rule:nonzero;fill:rgb(76.862746%,80.784315%,83.137256%);fill-opacity:1;" d="M 237.546875 102.519531 C 231.414062 91.21875 223.167969 81.238281 213.335938 73.105469 C 211.488281 71.578125 209.574219 70.144531 207.621094 68.753906 C 191.355469 57.15625 171.480469 50.296875 149.984375 50.257812 L 149.808594 50.257812 C 96.507812 50.265625 52.953125 92.085938 50.195312 144.730469 C 50.109375 146.425781 50.0625 148.140625 50.058594 149.859375 L 50.058594 150.03125 C 50.0625 163.789062 52.847656 176.90625 57.890625 188.832031 C 58.515625 190.320312 59.183594 191.792969 59.882812 193.25 C 65.476562 204.867188 73.261719 215.238281 82.695312 223.824219 C 85.054688 225.976562 87.519531 228.007812 90.070312 229.921875 C 106.699219 242.371094 127.335938 249.75 149.703125 249.777344 L 149.835938 249.777344 C 161.882812 249.769531 173.421875 247.640625 184.105469 243.726562 C 222.265625 229.761719 249.515625 193.140625 249.5625 150.136719 L 249.5625 150.011719 C 249.5625 136.257812 246.773438 123.148438 241.738281 111.226562 C 240.476562 108.242188 239.078125 105.339844 237.542969 102.515625 "/>
<path style=" stroke:none;fill-rule:nonzero;fill:rgb(100%,100%,100%);fill-opacity:1;" d="M 152.796875 15.039062 C 152.796875 15.039062 154.746094 16.460938 154.546875 18.246094 L 152.054688 40.503906 L 157.144531 41.074219 C 158.136719 41.1875 158.894531 41.195312 159.292969 40.511719 C 159.292969 40.511719 159.921875 34.90625 160.628906 28.628906 L 165.777344 39.953125 C 166.535156 41.8125 164.882812 41.945312 164.882812 41.945312 L 166.394531 42.152344 L 166.394531 42.144531 L 171.460938 42.714844 C 172.464844 42.828125 173.207031 42.832031 173.609375 42.152344 L 176.347656 17.71875 L 169.214844 16.90625 L 167.265625 16.710938 C 167.265625 16.710938 169.074219 18.003906 168.886719 19.785156 L 167.820312 29.25 L 161.761719 16.511719 C 161.597656 16.191406 161.324219 16 160.914062 15.953125 C 160.027344 15.859375 154.902344 15.265625 154.902344 15.265625 Z M 149.066406 15.339844 C 148.347656 15.351562 145.558594 15.5625 142.628906 15.660156 C 141.921875 15.808594 140.621094 15.832031 140.90625 18.773438 L 142.085938 41.050781 L 149.265625 40.667969 L 149.796875 40.523438 C 149.796875 40.523438 149.3125 39.703125 149.148438 38.324219 C 149.148438 38.324219 148.015625 18.128906 148.015625 17.195312 C 148.015625 16.273438 149.066406 15.339844 149.066406 15.339844 Z M 133.984375 15.929688 L 124.890625 17.832031 C 124.890625 17.832031 127.15625 18.554688 127.535156 20.324219 L 127.558594 20.394531 L 128.871094 26.6875 L 123.875 27.734375 C 122.410156 28.039062 122.101562 29.5 122.101562 29.5 L 119.964844 18.847656 L 111.371094 20.636719 C 111.371094 20.636719 113.140625 21.464844 113.519531 23.230469 L 113.5625 23.300781 L 118.085938 45.152344 L 123.105469 44.113281 C 124.097656 43.917969 124.808594 43.683594 124.984375 42.910156 L 123.152344 34.136719 L 130.109375 32.6875 L 132.09375 42.246094 L 137.113281 41.21875 C 138.105469 41.011719 138.816406 40.777344 138.992188 40.015625 Z M 185.171875 20.582031 C 184.722656 20.609375 184.34375 20.683594 184.003906 20.808594 C 182.65625 21.316406 181.511719 22.953125 180.542969 25.730469 L 176.929688 36.171875 C 176.492188 37.402344 176.21875 38.429688 176.125 39.265625 C 175.914062 40.894531 176.300781 42.152344 177.234375 43.035156 C 178.167969 43.921875 179.894531 44.808594 182.457031 45.691406 L 186.921875 47.238281 C 190.144531 48.355469 192.425781 48.65625 193.746094 48.144531 C 195.09375 47.632812 196.25 46.007812 197.21875 43.222656 C 197.21875 43.222656 198.945312 38.324219 199.191406 37.585938 C 199.605469 36.234375 198.589844 35.382812 198.023438 35.1875 L 189.648438 32.269531 C 188.667969 31.929688 188.042969 32.675781 187.699219 33.308594 C 187.355469 33.945312 186.117188 37.523438 186.117188 37.523438 L 185.679688 38.644531 C 185.679688 38.644531 186.636719 37.714844 187.886719 38.144531 L 190.960938 39.214844 C 190.5 40.339844 189.980469 40.976562 189.449219 41.148438 C 188.964844 41.3125 187.949219 41.113281 186.386719 40.574219 C 186.386719 40.574219 185.3125 40.15625 185.019531 39.984375 C 184.273438 39.5 183.945312 38.886719 184.050781 38.09375 C 184.097656 37.644531 184.261719 37.023438 184.546875 36.207031 L 186.554688 30.421875 C 187.097656 28.875 187.640625 28.007812 188.207031 27.828125 C 188.773438 27.65625 189.824219 27.832031 191.382812 28.378906 L 198.992188 31.003906 C 200.371094 31.480469 200.632812 33.277344 200.632812 33.277344 L 201.164062 31.761719 L 202.511719 27.859375 C 202.898438 26.371094 201.957031 25.574219 200.679688 25.128906 L 190.792969 21.703125 C 188.394531 20.871094 186.53125 20.5 185.171875 20.582031 Z M 105.472656 22.46875 C 105.148438 22.453125 104.820312 22.496094 104.507812 22.628906 L 95.871094 26.230469 C 92.757812 27.523438 90.871094 28.804688 90.214844 30.082031 C 89.554688 31.34375 89.800781 33.355469 90.929688 36.082031 L 91.929688 38.40625 C 92.082031 38.757812 92.261719 39.082031 92.46875 39.382812 C 93.257812 40.523438 94.355469 41.289062 95.789062 41.675781 C 97.492188 42.113281 99.433594 41.863281 101.632812 40.949219 L 104.996094 39.546875 C 106.296875 39.011719 107.246094 39.148438 107.808594 39.972656 C 107.964844 40.191406 108.039062 40.441406 108.039062 40.699219 C 108.039062 40.699219 108.421875 41.878906 105.742188 42.996094 L 98.964844 45.828125 C 97.453125 46.339844 95.25 44.902344 95.25 44.902344 C 95.25 44.902344 96.644531 48.210938 97.5 50.25 C 98 51.4375 99.519531 52.210938 100.761719 51.691406 L 101.4375 51.410156 L 106.109375 49.472656 L 109.480469 48.058594 C 112.601562 46.757812 114.480469 45.488281 115.136719 44.207031 C 115.804688 42.933594 115.515625 41.089844 114.390625 38.386719 C 114.390625 38.386719 113.523438 36.371094 113.230469 35.8125 C 111.59375 32.675781 108.171875 31.609375 104.703125 33.050781 L 100.800781 34.679688 C 99.394531 35.261719 98.40625 35.152344 97.855469 34.347656 C 97.835938 34.320312 97.679688 33.992188 97.667969 33.953125 C 97.496094 33.367188 97.050781 32.34375 99.132812 31.480469 L 106.191406 28.546875 C 107.710938 27.914062 110.019531 29.425781 110.019531 29.425781 C 110.019531 29.425781 108.625 26.101562 107.769531 24.070312 C 107.394531 23.179688 106.449219 22.523438 105.472656 22.46875 Z M 206.65625 27.890625 C 206.101562 27.878906 205.722656 28.316406 205.558594 28.566406 C 205.34375 28.917969 203.160156 32.769531 203.160156 32.769531 L 202.191406 34.480469 C 202.191406 34.480469 203.65625 33.054688 205.332031 34.023438 L 209.089844 36.207031 L 199.488281 52.835938 L 206.253906 56.761719 C 206.253906 56.761719 206.277344 55.65625 206.890625 54.402344 C 206.890625 54.402344 212.207031 45.148438 215.3125 39.785156 L 218.207031 41.46875 C 219.871094 42.429688 219.8125 45.050781 219.8125 45.050781 L 221.382812 42.289062 L 223.996094 37.742188 L 213.375 31.605469 C 213.375 31.605469 213.328125 31.578125 213.28125 31.542969 L 207.257812 28.066406 C 207.046875 27.941406 206.832031 27.894531 206.65625 27.890625 Z M 74.539062 38.28125 L 70.304688 41.238281 C 69.453125 41.84375 69.082031 42.414062 69.164062 43.304688 L 76.304688 65.050781 C 76.765625 66.414062 75.101562 68.871094 75.101562 68.871094 L 82.546875 63.660156 C 83.214844 63.195312 83.363281 62.410156 83.125 61.660156 L 82.078125 58.585938 L 87.757812 54.621094 L 89.957031 56.011719 C 91.226562 57.0625 90.320312 58.234375 90.320312 58.234375 L 98.488281 52.511719 Z M 227.667969 42.546875 C 226.226562 42.585938 224.609375 43.765625 222.789062 46.078125 L 215.960938 54.765625 C 215.160156 55.789062 214.582031 56.675781 214.214844 57.433594 C 213.496094 58.910156 213.410156 60.214844 214.015625 61.355469 C 214.605469 62.5 215.960938 63.902344 218.078125 65.570312 L 221.785156 68.5 C 224.476562 70.613281 226.546875 71.636719 227.949219 71.582031 C 229.390625 71.535156 231.023438 70.367188 232.839844 68.054688 L 239.679688 59.363281 C 240.46875 58.355469 241.0625 57.464844 241.425781 56.707031 C 242.160156 55.238281 242.195312 53.890625 241.546875 52.691406 C 241.011719 51.613281 239.65625 50.21875 237.492188 48.527344 L 233.785156 45.597656 C 231.140625 43.511719 229.097656 42.5 227.667969 42.546875 Z M 62.234375 45.578125 L 61.484375 46.472656 L 57.5 50.996094 C 57.480469 51.023438 57.480469 51.039062 57.449219 51.070312 C 56.910156 51.683594 56.519531 52.207031 56.566406 52.773438 L 66.714844 68.4375 L 52.414062 60.703125 C 50.59375 59.972656 51.355469 57.984375 51.355469 57.984375 L 49.921875 59.605469 L 46.984375 62.925781 C 46.972656 62.953125 46.957031 62.976562 46.921875 63.007812 C 46.179688 63.84375 45.8125 64.691406 46.203125 65.605469 L 56.472656 80.042969 L 42.125 72.671875 C 40.265625 71.714844 41.078125 69.652344 41.078125 69.652344 L 39.550781 71.355469 L 36.175781 75.195312 C 36.164062 75.214844 36.15625 75.230469 36.113281 75.277344 C 35.34375 76.148438 35.144531 77.410156 35.886719 78.027344 C 36 78.121094 35.941406 78.089844 35.941406 78.089844 L 58.203125 88.523438 L 63.4375 82.597656 C 64.148438 81.792969 64.351562 81.359375 64.019531 80.511719 L 59.804688 72.660156 L 68.441406 76.917969 L 74.003906 70.59375 C 74.695312 69.8125 74.800781 68.710938 74.515625 67.867188 L 62.667969 48.050781 C 61.90625 46.707031 62.234375 45.578125 62.234375 45.578125 Z M 78.457031 48.828125 L 81.882812 51.078125 L 79.828125 52.574219 Z M 229.34375 50.550781 C 229.886719 50.582031 230.757812 51.050781 231.882812 51.890625 C 232.578125 52.449219 233.132812 52.925781 233.324219 53.167969 C 233.878906 53.839844 233.960938 54.546875 233.617188 55.265625 C 233.417969 55.664062 233.050781 56.1875 232.496094 56.832031 L 228.714844 61.636719 C 227.6875 62.953125 226.863281 63.585938 226.175781 63.558594 C 225.726562 63.5625 224.890625 63.078125 223.777344 62.238281 C 223.105469 61.699219 222.550781 61.222656 222.375 61.003906 C 221.820312 60.304688 221.722656 59.617188 222.078125 58.90625 C 222.277344 58.496094 222.644531 57.972656 223.164062 57.289062 L 226.945312 52.472656 C 227.960938 51.179688 228.761719 50.550781 229.34375 50.550781 Z M 149.960938 52.78125 C 96.34375 52.78125 52.882812 96.246094 52.882812 149.863281 C 52.882812 203.480469 96.34375 246.945312 149.960938 246.949219 C 203.582031 246.949219 247.046875 203.484375 247.046875 149.863281 C 247.046875 96.246094 203.582031 52.78125 149.960938 52.78125 Z M 247.425781 57.859375 C 247.425781 57.859375 247.777344 60.230469 246.375 61.347656 L 228.714844 75.140625 L 231.882812 79.191406 C 232.484375 79.972656 233.015625 80.519531 233.78125 80.332031 C 233.78125 80.332031 238.234375 76.855469 243.207031 72.960938 L 238.730469 84.566406 C 237.929688 86.414062 236.675781 85.316406 236.675781 85.316406 L 237.574219 86.539062 L 237.585938 86.53125 L 240.726562 90.558594 C 241.355469 91.347656 241.875 91.878906 242.628906 91.699219 L 262 76.542969 L 257.582031 70.886719 L 256.367188 69.359375 C 256.367188 69.359375 256.707031 71.5625 255.289062 72.671875 L 247.789062 78.539062 L 252.644531 65.28125 C 252.761719 64.949219 252.703125 64.625 252.457031 64.304688 C 251.914062 63.601562 248.734375 59.519531 248.734375 59.519531 Z M 33.542969 97.410156 L 30.191406 107.738281 L 19.332031 107.738281 L 28.125 114.109375 L 24.761719 124.4375 L 33.542969 118.054688 L 42.324219 124.4375 L 38.972656 114.109375 L 47.765625 107.738281 L 36.90625 107.738281 Z M 266.097656 98.78125 L 262.753906 109.109375 L 251.878906 109.109375 L 260.675781 115.492188 L 257.320312 125.816406 L 266.097656 119.441406 L 274.882812 125.816406 L 271.53125 115.492188 L 280.316406 109.109375 L 269.453125 109.109375 Z M 223.648438 230.351562 C 223.414062 230.316406 223.164062 230.316406 222.917969 230.351562 C 222.597656 230.398438 222.277344 230.519531 222.007812 230.71875 L 214.308594 236.035156 C 211.53125 237.945312 209.949219 239.589844 209.570312 240.972656 C 209.179688 242.339844 209.867188 244.253906 211.519531 246.6875 L 212.972656 248.753906 C 213.195312 249.0625 213.433594 249.34375 213.703125 249.59375 C 214.707031 250.550781 215.949219 251.070312 217.4375 251.152344 C 219.183594 251.222656 221.027344 250.585938 222.988281 249.238281 L 226 247.171875 C 227.15625 246.367188 228.101562 246.308594 228.835938 246.996094 C 229.035156 247.183594 229.152344 247.394531 229.210938 247.65625 C 229.210938 247.65625 229.828125 248.730469 227.441406 250.371094 L 221.394531 254.554688 C 220.023438 255.367188 217.566406 254.410156 217.566406 254.410156 C 217.566406 254.410156 219.621094 257.375 220.886719 259.183594 C 221.605469 260.246094 223.257812 260.695312 224.371094 259.925781 L 224.972656 259.515625 L 229.128906 256.632812 L 232.140625 254.554688 C 234.929688 252.640625 236.5 251.011719 236.878906 249.617188 C 237.253906 248.222656 236.605469 246.488281 234.941406 244.078125 C 234.941406 244.078125 233.664062 242.28125 233.261719 241.796875 C 231.019531 239.082031 227.453125 238.726562 224.359375 240.851562 L 220.875 243.261719 C 219.621094 244.125 218.628906 244.230469 217.921875 243.558594 C 217.886719 243.535156 217.683594 243.238281 217.671875 243.203125 C 217.378906 242.660156 216.726562 241.773438 218.582031 240.5 L 224.878906 236.152344 C 226.234375 235.21875 228.800781 236.210938 228.800781 236.210938 L 225.492188 231.453125 C 225.078125 230.847656 224.382812 230.449219 223.648438 230.351562 Z M 71.84375 230.765625 C 71.339844 230.789062 70.894531 231.003906 70.652344 231.414062 C 70.578125 231.546875 70.601562 231.488281 70.601562 231.488281 L 62.660156 254.386719 L 69.34375 258.605469 C 70.246094 259.183594 70.714844 259.300781 71.503906 258.839844 L 78.574219 253.429688 L 75.738281 262.644531 L 82.859375 267.144531 C 83.746094 267.699219 84.851562 267.628906 85.640625 267.214844 L 102.167969 251.648438 C 103.378906 250.667969 104.542969 250.820312 104.542969 250.820312 L 103.539062 250.230469 L 98.441406 247.007812 C 98.414062 246.984375 98.386719 246.984375 98.347656 246.957031 C 97.65625 246.523438 97.082031 246.226562 96.53125 246.367188 L 85.320312 257.28125 L 89.421875 244.089844 C 89.679688 242.8125 91.726562 242.777344 91.726562 242.777344 L 89.917969 241.621094 L 86.148438 239.246094 C 86.121094 239.234375 86.109375 239.234375 86.078125 239.210938 C 85.121094 238.609375 84.226562 238.371094 83.390625 238.902344 L 71.867188 249.59375 L 76.921875 236.730469 C 77.574219 234.746094 79.746094 235.207031 79.746094 235.207031 L 77.824219 233.980469 L 73.496094 231.25 C 73.476562 231.25 73.449219 231.238281 73.402344 231.203125 C 72.90625 230.882812 72.347656 230.742188 71.84375 230.765625 Z M 203.464844 245 C 202.578125 245.058594 201.457031 245.375 200.097656 245.96875 L 183.171875 253.289062 C 183.171875 253.289062 185.511719 253.714844 186.351562 255.191406 L 194.191406 273.296875 C 194.535156 274.574219 194.0625 275.953125 193.839844 276.25 L 210.328125 269.175781 C 212.570312 268.207031 213.871094 267.144531 214.234375 266.035156 C 214.601562 264.898438 214.199219 262.972656 213.042969 260.292969 L 208.140625 249.59375 C 207.621094 248.410156 207.375 247.976562 207.007812 247.265625 C 206.265625 245.847656 205.25 245.164062 204.28125 245.023438 C 204.03125 244.988281 203.761719 244.976562 203.464844 245 Z M 107.640625 251.328125 C 106.960938 251.28125 106.117188 251.554688 105.472656 253.667969 L 98.164062 274.738281 L 104.964844 277.101562 L 105.496094 277.160156 C 105.496094 277.160156 105.367188 276.226562 105.734375 274.878906 C 105.734375 274.878906 112.316406 255.757812 112.667969 254.90625 C 113.019531 254.046875 114.339844 253.574219 114.339844 253.574219 C 113.675781 253.3125 111.023438 252.449219 108.265625 251.433594 C 108.085938 251.398438 107.871094 251.351562 107.640625 251.328125 Z M 201.03125 252.296875 C 201.195312 252.285156 201.351562 252.308594 201.492188 252.367188 C 201.789062 252.488281 202.046875 252.722656 202.285156 253.101562 C 202.589844 253.585938 206.785156 262.9375 206.722656 263.433594 C 206.675781 263.941406 206.417969 264.308594 205.957031 264.496094 L 199.472656 267.320312 L 195.667969 258.570312 C 195.433594 257.988281 194.855469 256.667969 194.191406 255.167969 L 200.535156 252.414062 C 200.710938 252.34375 200.878906 252.308594 201.03125 252.296875 Z M 117.957031 254.859375 C 116.804688 254.953125 116.304688 255.851562 115.96875 256.9375 L 115.21875 260.316406 L 115.238281 260.316406 L 114.898438 261.710938 C 114.898438 261.710938 116.285156 260.660156 117.804688 260.894531 L 126.445312 262.785156 L 111.980469 274.972656 L 111.101562 279.0625 L 129.953125 283.207031 C 131.160156 283.476562 131.996094 283.511719 132.421875 282.296875 L 133.78125 276.0625 C 133.78125 276.0625 132.375 277.429688 130.816406 277.171875 L 121.675781 275.152344 L 136.472656 263.835938 L 137.546875 259.019531 C 137.546875 259.019531 118.757812 254.894531 118.484375 254.871094 C 118.296875 254.847656 118.121094 254.847656 117.957031 254.859375 Z M 179.003906 255.039062 C 178.296875 255.039062 177.457031 255.121094 176.488281 255.296875 L 158.511719 258.675781 C 158.511719 258.675781 160.78125 259.527344 161.171875 261.238281 L 165.164062 283.183594 L 170.171875 282.25 C 171.160156 282.074219 171.882812 281.859375 172.070312 281.09375 L 170.726562 273.664062 L 174.222656 272.964844 L 180.28125 280.324219 L 189.246094 278.660156 C 189.246094 278.660156 187.695312 278.28125 186.835938 277.453125 L 181.378906 271.417969 C 182.640625 271.125 183.667969 270.425781 184.046875 269.800781 C 184.660156 268.773438 184.683594 266.8125 184.152344 263.929688 C 184.152344 263.929688 183.125 258.886719 182.925781 258.097656 C 182.535156 256.585938 181.683594 255.664062 180.753906 255.320312 C 180.304688 255.132812 179.726562 255.039062 179.003906 255.039062 Z M 145.378906 258.792969 C 144.339844 258.804688 143.726562 259.054688 143.277344 259.832031 L 136.664062 281.730469 C 136.25 283.113281 133.484375 284.1875 133.484375 284.1875 L 142.554688 284.1875 C 143.371094 284.1875 143.960938 283.632812 144.199219 282.875 L 145.09375 279.757812 L 152.015625 279.757812 L 153.03125 282.167969 C 153.480469 283.75 152.050781 284.1875 152.050781 284.1875 L 162.03125 284.1875 L 150.550781 258.792969 Z M 176.003906 261.675781 C 176.464844 261.746094 176.820312 262.113281 177.03125 262.75 C 177.222656 263.269531 177.492188 265.113281 177.328125 265.597656 C 177.171875 266.070312 176.84375 266.351562 176.335938 266.445312 L 172.191406 267.273438 C 171.246094 267.449219 170.558594 268.429688 169.992188 269.613281 L 168.765625 262.972656 L 175.484375 261.675781 C 175.671875 261.652344 175.839844 261.640625 176.003906 261.675781 Z M 148.011719 269.835938 L 149.453125 273.675781 L 146.914062 273.675781 Z M 148.011719 269.835938 "/>
<path style=" stroke:none;fill-rule:nonzero;fill:rgb(89.019608%,9.411765%,21.568628%);fill-opacity:1;" d="M 149.894531 60.855469 C 143.429688 60.847656 137.148438 61.550781 131.074219 62.859375 C 135.546875 65.171875 140.007812 69.414062 142.84375 77.152344 L 149.875 66.804688 L 156.910156 77.152344 C 159.734375 69.441406 164.1875 65.191406 168.652344 62.878906 C 162.605469 61.570312 156.332031 60.863281 149.894531 60.855469 Z M 121.785156 65.390625 C 95.714844 74.082031 75.039062 94.546875 66.070312 120.492188 C 78.007812 102.558594 101.355469 82.183594 137.042969 78.148438 C 133.902344 70.617188 127.523438 67.066406 121.785156 65.390625 Z M 177.878906 65.414062 C 172.167969 67.101562 165.828125 70.648438 162.703125 78.148438 C 198.113281 82.148438 221.386719 102.242188 233.40625 120.066406 C 224.363281 94.34375 203.789062 74.0625 177.878906 65.410156 Z M 177.878906 65.414062 "/>
<path style=" stroke:none;fill-rule:nonzero;fill:rgb(0%,16.862746%,36.078432%);fill-opacity:1;" d="M 180.308594 88.523438 C 177.117188 88.589844 175.617188 89.644531 175.617188 89.644531 L 165.285156 95.425781 L 165.816406 97.34375 L 168.070312 105.527344 C 168.070312 105.527344 172.308594 117.3125 182.394531 127.398438 C 201.441406 146.226562 225.757812 173.777344 223.292969 198.960938 C 232.554688 185.242188 238.046875 168.78125 238.367188 151.066406 C 236.824219 142.128906 233.957031 134.253906 230.382812 127.378906 C 223.738281 114.621094 210.898438 102.585938 195.121094 93.277344 C 188.378906 89.367188 183.5 88.453125 180.304688 88.523438 Z M 119.4375 88.53125 C 116.242188 88.464844 111.371094 89.367188 104.632812 93.277344 C 88.851562 102.578125 76.011719 114.617188 69.371094 127.386719 C 65.695312 134.464844 62.769531 142.59375 61.261719 151.855469 C 61.734375 169.375 67.257812 185.625 76.480469 199.191406 C 73.851562 173.945312 98.25 146.285156 117.347656 127.398438 C 127.441406 117.320312 131.683594 105.527344 131.683594 105.527344 L 133.9375 97.335938 L 134.46875 95.425781 L 124.136719 89.644531 C 124.136719 89.644531 122.628906 88.601562 119.4375 88.53125 Z M 149.871094 107.195312 C 148.847656 107.925781 116.152344 131.460938 101.746094 154.761719 C 82.308594 186.203125 84.832031 204.335938 89.863281 214.6875 C 102.390625 226.207031 118.246094 234.164062 135.828125 236.953125 L 143.40625 129.546875 L 149.714844 123.203125 L 149.800781 123.121094 L 149.808594 123.121094 L 149.882812 123.203125 L 156.203125 129.546875 L 163.832031 236.871094 L 163.730469 236.921875 C 181.441406 234.125 197.414062 226.101562 209.996094 214.449219 C 214.945312 204.058594 217.289062 185.964844 197.996094 154.757812 C 183.59375 131.460938 150.902344 107.925781 149.871094 107.195312 Z M 149.871094 107.195312 "/>
<path style=" stroke:none;fill-rule:nonzero;fill:rgb(76.862746%,80.784315%,83.137256%);fill-opacity:1;" d="M 149.863281 73.683594 L 148.828125 75.78125 L 146.773438 79.976562 L 146.761719 79.976562 L 146.679688 80.152344 L 146.59375 80.328125 L 145.484375 82.589844 L 145.390625 82.789062 L 145.371094 82.820312 L 142.609375 82.996094 C 138.695312 83.242188 134.8125 83.78125 130.972656 84.4375 C 129.269531 84.730469 127.550781 84.980469 125.863281 85.351562 L 131.292969 88.28125 L 136.722656 91.207031 L 138.40625 92.109375 L 140.085938 93.011719 L 139.070312 96.699219 L 139.007812 96.90625 L 138.550781 98.609375 L 135.519531 109.589844 L 142.410156 104.515625 L 147.074219 101.070312 L 148.453125 100.050781 L 149.824219 99.035156 L 149.824219 98.980469 L 149.863281 99.011719 L 149.90625 98.980469 L 149.90625 99.035156 L 151.289062 100.050781 L 152.667969 101.070312 L 164.210938 109.589844 L 161.191406 98.609375 L 160.929688 97.652344 L 160.671875 96.699219 L 159.652344 93.011719 L 160.742188 92.433594 L 163.007812 91.207031 L 170.347656 87.261719 L 173.875 85.351562 C 172.1875 84.980469 170.464844 84.730469 168.757812 84.4375 C 164.910156 83.78125 161.050781 83.242188 157.132812 82.996094 L 154.359375 82.820312 L 154.308594 82.707031 L 154.246094 82.589844 L 153.132812 80.328125 L 153.070312 80.191406 Z M 149.886719 123.210938 L 149.957031 244.765625 L 163.722656 236.917969 L 163.828125 236.867188 L 156.195312 129.542969 Z M 149.886719 123.210938 "/>
</g>
</svg>
